<svg width="439" height="134" viewBox="0 0 439 134" fill="none" xmlns="http://www.w3.org/2000/svg">
<path fill-rule="evenodd" clip-rule="evenodd" d="M44.4384 0.40625C32.5194 0.40625 22.8571 10.0685 22.8571 21.9876C22.8571 33.4809 31.8415 42.8758 43.1703 43.5322V43.5693H46.529C48.8026 43.5693 50.6457 45.4124 50.6457 47.6861C50.6457 49.9597 48.8026 51.8028 46.529 51.8028H43.1703V52.0253H35.7606C16.3449 52.0253 0.605469 67.7648 0.605469 87.1804V98.4133C0.605469 117.829 16.345 133.568 35.7606 133.568H403.838C423.254 133.568 438.993 117.829 438.993 98.4133V87.1804C438.993 67.7648 423.254 52.0253 403.838 52.0253H113.415V51.8026H110.052C107.778 51.8026 105.935 49.9595 105.935 47.6859C105.935 45.4123 107.778 43.5691 110.052 43.5691H113.415V43.5648C125.138 43.339 134.572 33.765 134.572 21.9876C134.572 10.0685 124.91 0.40625 112.991 0.40625H44.4384Z" fill="white"/>
<path d="M48.2357 17.2046H54.3935V18.5432H49.6636V26.1289H48.2357V17.2046ZM58.3251 17.2046H62.0733L64.5721 26.1289H63.055L61.0024 18.5432H59.396L57.3434 26.1289H55.8263L58.3251 17.2046ZM71.1719 26.3074C70.5889 26.3074 70.0355 26.1944 69.512 25.9683C69.0003 25.7303 68.5482 25.409 68.1555 25.0044C67.7628 24.588 67.4534 24.0942 67.2274 23.523C67.0013 22.9519 66.8882 22.3331 66.8882 21.6668C66.8882 21.0004 67.0013 20.3816 67.2274 19.8105C67.4534 19.2393 67.7628 18.7515 68.1555 18.3469C68.5482 17.9304 69.0003 17.6092 69.512 17.3831C70.0355 17.1451 70.5889 17.0261 71.1719 17.0261C71.755 17.0261 72.2488 17.1094 72.6533 17.276C73.0579 17.4426 73.3851 17.627 73.635 17.8293C73.8968 18.0316 74.0812 18.222 74.1883 18.4005C74.3073 18.567 74.3668 18.6503 74.3668 18.6503H74.3847V17.2046H75.8125V26.1289H74.3847V24.701H74.3668C74.3668 24.701 74.3073 24.7903 74.1883 24.9687C74.0812 25.1353 73.8968 25.3198 73.635 25.5221C73.3851 25.7124 73.0579 25.8909 72.6533 26.0575C72.2488 26.2241 71.755 26.3074 71.1719 26.3074ZM71.3504 24.9687C71.7788 24.9687 72.1774 24.8914 72.5463 24.7367C72.9151 24.5701 73.2364 24.344 73.5101 24.0585C73.7838 23.761 73.9979 23.41 74.1526 23.0054C74.3073 22.6008 74.3847 22.1546 74.3847 21.6668C74.3847 21.1789 74.3073 20.7327 74.1526 20.3281C73.9979 19.9235 73.7838 19.5785 73.5101 19.2929C73.2364 18.9954 72.9151 18.7693 72.5463 18.6146C72.1774 18.448 71.7788 18.3648 71.3504 18.3648C70.922 18.3648 70.5234 18.448 70.1545 18.6146C69.7857 18.7693 69.4644 18.9954 69.1907 19.2929C68.917 19.5785 68.7028 19.9235 68.5482 20.3281C68.3935 20.7327 68.3161 21.1789 68.3161 21.6668C68.3161 22.1546 68.3935 22.6008 68.5482 23.0054C68.7028 23.41 68.917 23.761 69.1907 24.0585C69.4644 24.344 69.7857 24.5701 70.1545 24.7367C70.5234 24.8914 70.922 24.9687 71.3504 24.9687ZM79.7455 17.2046H84.1184C84.9752 17.2046 85.6356 17.4188 86.0996 17.8471C86.5637 18.2755 86.7957 18.805 86.7957 19.4357C86.7957 19.8402 86.7303 20.1675 86.5994 20.4173C86.4804 20.6672 86.3376 20.8636 86.171 21.0064C86.0163 21.1491 85.8676 21.2503 85.7248 21.3098C85.582 21.3574 85.4928 21.3812 85.4571 21.3812V21.399C85.4809 21.399 85.582 21.4288 85.7605 21.4883C85.939 21.5359 86.1294 21.637 86.3317 21.7917C86.5458 21.9464 86.7362 22.1665 86.9028 22.4521C87.0694 22.7258 87.1527 23.0887 87.1527 23.5409C87.1527 24.3024 86.8909 24.9271 86.3674 25.415C85.8557 25.8909 85.112 26.1289 84.1363 26.1289H79.7455V17.2046ZM84.1184 24.7903C84.6539 24.7903 85.0525 24.6713 85.3143 24.4333C85.588 24.1834 85.7248 23.8562 85.7248 23.4516C85.7248 23.047 85.588 22.7258 85.3143 22.4878C85.0525 22.2379 84.6539 22.113 84.1184 22.113H81.1734V24.7903H84.1184ZM84.0292 20.8636C84.4814 20.8636 84.8145 20.7624 85.0287 20.5601C85.2548 20.346 85.3678 20.0604 85.3678 19.7034C85.3678 19.3464 85.2548 19.0668 85.0287 18.8645C84.8145 18.6503 84.4814 18.5432 84.0292 18.5432H81.1734V20.8636H84.0292ZM90.5509 17.2046H91.9788V20.8636H96.9764V17.2046H98.4043V26.1289H96.9764V22.2022H91.9788V26.1289H90.5509V17.2046ZM106.081 26.3074C105.498 26.3074 104.944 26.1944 104.421 25.9683C103.909 25.7303 103.457 25.409 103.064 25.0044C102.672 24.588 102.362 24.0942 102.136 23.523C101.91 22.9519 101.797 22.3331 101.797 21.6668C101.797 21.0004 101.91 20.3816 102.136 19.8105C102.362 19.2393 102.672 18.7515 103.064 18.3469C103.457 17.9304 103.909 17.6092 104.421 17.3831C104.944 17.1451 105.498 17.0261 106.081 17.0261C106.664 17.0261 107.157 17.1094 107.562 17.276C107.967 17.4426 108.294 17.627 108.544 17.8293C108.805 18.0316 108.99 18.222 109.097 18.4005C109.216 18.567 109.276 18.6503 109.276 18.6503H109.293V17.2046H110.721V26.1289H109.293V24.701H109.276C109.276 24.701 109.216 24.7903 109.097 24.9687C108.99 25.1353 108.805 25.3198 108.544 25.5221C108.294 25.7124 107.967 25.8909 107.562 26.0575C107.157 26.2241 106.664 26.3074 106.081 26.3074ZM106.259 24.9687C106.687 24.9687 107.086 24.8914 107.455 24.7367C107.824 24.5701 108.145 24.344 108.419 24.0585C108.692 23.761 108.907 23.41 109.061 23.0054C109.216 22.6008 109.293 22.1546 109.293 21.6668C109.293 21.1789 109.216 20.7327 109.061 20.3281C108.907 19.9235 108.692 19.5785 108.419 19.2929C108.145 18.9954 107.824 18.7693 107.455 18.6146C107.086 18.448 106.687 18.3648 106.259 18.3648C105.831 18.3648 105.432 18.448 105.063 18.6146C104.694 18.7693 104.373 18.9954 104.099 19.2929C103.826 19.5785 103.612 19.9235 103.457 20.3281C103.302 20.7327 103.225 21.1789 103.225 21.6668C103.225 22.1546 103.302 22.6008 103.457 23.0054C103.612 23.41 103.826 23.761 104.099 24.0585C104.373 24.344 104.694 24.5701 105.063 24.7367C105.432 24.8914 105.831 24.9687 106.259 24.9687ZM116.082 22.9162C115.749 22.7734 115.451 22.583 115.19 22.345C114.964 22.1427 114.755 21.875 114.565 21.5418C114.386 21.1967 114.297 20.7624 114.297 20.2389C114.297 19.8105 114.375 19.4119 114.529 19.043C114.696 18.6741 114.928 18.3529 115.225 18.0792C115.535 17.8055 115.898 17.5913 116.314 17.4366C116.743 17.2819 117.224 17.2046 117.76 17.2046H121.794V26.1289H120.366V23.2731H117.51L115.939 26.1289H114.297L116.082 22.9162ZM120.366 21.9345V18.5432H117.778C117.099 18.5432 116.588 18.7039 116.243 19.0252C115.898 19.3345 115.725 19.7391 115.725 20.2389C115.725 20.7386 115.898 21.1491 116.243 21.4704C116.588 21.7798 117.099 21.9345 117.778 21.9345H120.366Z" fill="black"/>
<path d="M59.2994 109.057C57.9094 109.057 56.684 108.928 55.6232 108.672C54.5624 108.416 53.6113 108.087 52.77 107.685C51.9653 107.246 51.252 106.752 50.6301 106.203C50.0449 105.655 49.551 105.106 49.1487 104.557C48.1976 103.24 47.5575 101.722 47.2282 100.003H51.6178C51.8372 100.954 52.2579 101.777 52.8798 102.472C53.3919 103.094 54.1417 103.661 55.1294 104.173C56.1536 104.685 57.5436 104.941 59.2994 104.941C61.6405 104.941 63.3597 104.484 64.4571 103.57C65.5911 102.655 66.1581 101.649 66.1581 100.552C66.1581 99.4544 65.6459 98.5034 64.6217 97.6986C63.5975 96.8573 61.9149 96.4366 59.5738 96.4366H56.2816V92.3214H59.5738C61.7685 92.3214 63.3232 91.9557 64.2376 91.2241C65.1521 90.4925 65.6094 89.578 65.6094 88.4806C65.6094 87.5295 65.0973 86.6516 64.073 85.8469C63.0854 85.0422 61.4942 84.6398 59.2994 84.6398C57.8363 84.6398 56.6657 84.8593 55.7878 85.2982C54.9099 85.7372 54.2149 86.2127 53.7028 86.7248C53.1175 87.3467 52.6969 88.0234 52.4408 88.755H48.0513C48.3805 87.2186 49.0206 85.8469 49.9717 84.6398C50.3741 84.1277 50.8496 83.6338 51.3983 83.1583C51.947 82.6462 52.6054 82.2073 53.3736 81.8415C54.1417 81.4391 55.0014 81.1282 55.9524 80.9087C56.9401 80.6526 58.0557 80.5246 59.2994 80.5246C61.0918 80.5246 62.6464 80.7441 63.9633 81.183C65.3167 81.5854 66.4324 82.1341 67.3103 82.8291C68.2248 83.5241 68.9015 84.3471 69.3405 85.2982C69.7794 86.2127 69.9989 87.182 69.9989 88.2063C69.9989 89.3768 69.7794 90.3462 69.3405 91.1143C68.9015 91.8825 68.3894 92.5043 67.8041 92.9799C67.2554 93.4188 66.725 93.7297 66.2129 93.9126C65.7374 94.0955 65.4448 94.2053 65.335 94.2419V94.2967C65.4082 94.2967 65.7191 94.3882 66.2678 94.5711C66.8165 94.754 67.4018 95.1015 68.0236 95.6136C68.682 96.0891 69.2673 96.7475 69.7794 97.5889C70.2915 98.4302 70.5476 99.5093 70.5476 100.826C70.5476 101.924 70.3098 102.966 69.8343 103.954C69.3588 104.941 68.6455 105.819 67.6944 106.587C66.7433 107.356 65.5728 107.959 64.1828 108.398C62.7928 108.837 61.165 109.057 59.2994 109.057ZM80.992 81.0733H85.3815V92.3214H100.745V81.0733H105.134V108.508H100.745V96.4366H85.3815V108.508H80.992V81.0733ZM128.732 109.057C126.94 109.057 125.239 108.709 123.63 108.014C122.057 107.282 120.667 106.295 119.459 105.051C118.252 103.771 117.301 102.253 116.606 100.497C115.911 98.7411 115.564 96.839 115.564 94.7906C115.564 92.7421 115.911 90.84 116.606 89.0842C117.301 87.3284 118.252 85.8286 119.459 84.5849C120.667 83.3046 122.057 82.317 123.63 81.622C125.239 80.8904 126.94 80.5246 128.732 80.5246C130.525 80.5246 132.043 80.7807 133.286 81.2928C134.53 81.8049 135.536 82.3719 136.304 82.9937C137.109 83.6156 137.676 84.2008 138.005 84.7495C138.371 85.2616 138.554 85.5177 138.554 85.5177H138.609V81.0733H142.998V108.508H138.609V104.118H138.554C138.554 104.118 138.371 104.393 138.005 104.941C137.676 105.453 137.109 106.02 136.304 106.642C135.536 107.228 134.53 107.776 133.286 108.288C132.043 108.8 130.525 109.057 128.732 109.057ZM129.281 104.941C130.598 104.941 131.823 104.704 132.957 104.228C134.091 103.716 135.079 103.021 135.92 102.143C136.762 101.229 137.42 100.149 137.895 98.9057C138.371 97.662 138.609 96.2903 138.609 94.7906C138.609 93.2908 138.371 91.9191 137.895 90.6754C137.42 89.4317 136.762 88.3709 135.92 87.493C135.079 86.5785 134.091 85.8835 132.957 85.4079C131.823 84.8958 130.598 84.6398 129.281 84.6398C127.964 84.6398 126.739 84.8958 125.605 85.4079C124.471 85.8835 123.483 86.5785 122.642 87.493C121.801 88.3709 121.142 89.4317 120.667 90.6754C120.191 91.9191 119.953 93.2908 119.953 94.7906C119.953 96.2903 120.191 97.662 120.667 98.9057C121.142 100.149 121.801 101.229 122.642 102.143C123.483 103.021 124.471 103.716 125.605 104.228C126.739 104.704 127.964 104.941 129.281 104.941ZM155.089 81.0733H159.478V92.0471H164.965L173.744 81.0733H178.957L168.806 93.9675L179.78 108.508H174.293L164.965 96.1623H159.478V108.508H155.089V81.0733ZM199.854 109.057C197.806 109.057 195.904 108.709 194.148 108.014C192.392 107.282 190.874 106.295 189.594 105.051C188.35 103.771 187.362 102.253 186.631 100.497C185.936 98.7411 185.588 96.839 185.588 94.7906C185.588 92.7421 185.936 90.84 186.631 89.0842C187.362 87.3284 188.35 85.8286 189.594 84.5849C190.874 83.3046 192.392 82.317 194.148 81.622C195.904 80.8904 197.806 80.5246 199.854 80.5246C201.903 80.5246 203.805 80.8904 205.561 81.622C207.316 82.317 208.816 83.3046 210.06 84.5849C211.34 85.8286 212.328 87.3284 213.023 89.0842C213.754 90.84 214.12 92.7421 214.12 94.7906C214.12 96.839 213.754 98.7411 213.023 100.497C212.328 102.253 211.34 103.771 210.06 105.051C208.816 106.295 207.316 107.282 205.561 108.014C203.805 108.709 201.903 109.057 199.854 109.057ZM199.854 104.941C201.281 104.941 202.598 104.704 203.805 104.228C205.012 103.716 206.054 103.021 206.932 102.143C207.81 101.229 208.487 100.149 208.962 98.9057C209.475 97.662 209.731 96.2903 209.731 94.7906C209.731 93.2908 209.475 91.9191 208.962 90.6754C208.487 89.4317 207.81 88.3709 206.932 87.493C206.054 86.5785 205.012 85.8835 203.805 85.4079C202.598 84.8958 201.281 84.6398 199.854 84.6398C198.428 84.6398 197.111 84.8958 195.904 85.4079C194.697 85.8835 193.654 86.5785 192.776 87.493C191.898 88.3709 191.203 89.4317 190.691 90.6754C190.216 91.9191 189.978 93.2908 189.978 94.7906C189.978 96.2903 190.216 97.662 190.691 98.9057C191.203 100.149 191.898 101.229 192.776 102.143C193.654 103.021 194.697 103.716 195.904 104.228C197.111 104.704 198.428 104.941 199.854 104.941ZM224.524 81.0733H231.108L239.338 98.0827H240.71L248.941 81.0733H255.525V108.508H251.135V86.5602L251.19 86.0115H251.08L242.905 103.021H237.144L228.968 86.0115H228.858L228.913 86.5602V108.508H224.524V81.0733ZM279.672 109.057C277.733 109.057 275.922 108.709 274.239 108.014C272.593 107.282 271.149 106.295 269.905 105.051C268.698 103.771 267.728 102.253 266.997 100.497C266.302 98.7411 265.954 96.839 265.954 94.7906C265.954 92.7421 266.302 90.84 266.997 89.0842C267.728 87.3284 268.698 85.8286 269.905 84.5849C271.149 83.3046 272.593 82.317 274.239 81.622C275.922 80.8904 277.733 80.5246 279.672 80.5246C281.025 80.5246 282.25 80.6709 283.348 80.9636C284.482 81.2196 285.488 81.5854 286.366 82.0609C287.243 82.4999 288.012 83.012 288.67 83.5973C289.328 84.1825 289.895 84.7678 290.371 85.3531C291.505 86.7797 292.328 88.3709 292.84 90.1267H288.451C288.012 89.1025 287.408 88.188 286.64 87.3832C285.981 86.6882 285.085 86.0664 283.951 85.5177C282.817 84.9324 281.391 84.6398 279.672 84.6398C278.355 84.6398 277.129 84.8958 275.995 85.4079C274.861 85.8835 273.874 86.5785 273.032 87.493C272.191 88.3709 271.533 89.4317 271.057 90.6754C270.582 91.9191 270.344 93.2908 270.344 94.7906C270.344 96.3269 270.6 97.7169 271.112 98.9606C271.624 100.204 272.301 101.265 273.142 102.143C273.983 103.021 274.971 103.716 276.105 104.228C277.239 104.704 278.428 104.941 279.672 104.941C281.464 104.941 282.927 104.63 284.061 104.009C285.232 103.387 286.164 102.692 286.859 101.924C287.664 101.046 288.286 100.04 288.725 98.9057H293.114C292.602 100.844 291.761 102.545 290.59 104.009C290.078 104.63 289.493 105.252 288.835 105.874C288.176 106.459 287.39 106.99 286.475 107.465C285.597 107.941 284.591 108.325 283.457 108.618C282.324 108.91 281.062 109.057 279.672 109.057ZM309.05 85.1885H299.448V81.0733H323.042V85.1885H313.44V108.508H309.05V85.1885ZM331.57 81.0733H345.013C347.647 81.0733 349.677 81.7317 351.103 83.0486C352.53 84.3654 353.243 85.9932 353.243 87.9319C353.243 89.1756 353.042 90.1816 352.64 90.9497C352.274 91.7179 351.835 92.3214 351.323 92.7604C350.847 93.1993 350.39 93.5103 349.951 93.6932C349.512 93.8395 349.238 93.9126 349.128 93.9126V93.9675C349.201 93.9675 349.512 94.059 350.061 94.2419C350.609 94.3882 351.195 94.6991 351.817 95.1746C352.475 95.6502 353.06 96.3269 353.572 97.2048C354.084 98.0461 354.341 99.1618 354.341 100.552C354.341 102.893 353.536 104.813 351.926 106.313C350.353 107.776 348.067 108.508 345.068 108.508H331.57V81.0733ZM345.013 104.393C346.659 104.393 347.884 104.027 348.689 103.295C349.53 102.527 349.951 101.521 349.951 100.277C349.951 99.0338 349.53 98.0461 348.689 97.3145C347.884 96.5464 346.659 96.1623 345.013 96.1623H335.959V104.393H345.013ZM344.738 92.3214C346.128 92.3214 347.153 92.0105 347.811 91.3887C348.506 90.7302 348.854 89.8523 348.854 88.755C348.854 87.6576 348.506 86.798 347.811 86.1761C347.153 85.5177 346.128 85.1885 344.738 85.1885H335.959V92.3214H344.738ZM377.407 109.057C375.359 109.057 373.456 108.709 371.701 108.014C369.945 107.282 368.427 106.295 367.146 105.051C365.903 103.771 364.915 102.253 364.184 100.497C363.489 98.7411 363.141 96.839 363.141 94.7906C363.141 92.7421 363.489 90.84 364.184 89.0842C364.915 87.3284 365.903 85.8286 367.146 84.5849C368.427 83.3046 369.945 82.317 371.701 81.622C373.456 80.8904 375.359 80.5246 377.407 80.5246C379.455 80.5246 381.358 80.8904 383.113 81.622C384.869 82.317 386.369 83.3046 387.613 84.5849C388.893 85.8286 389.881 87.3284 390.576 89.0842C391.307 90.84 391.673 92.7421 391.673 94.7906C391.673 96.839 391.307 98.7411 390.576 100.497C389.881 102.253 388.893 103.771 387.613 105.051C386.369 106.295 384.869 107.282 383.113 108.014C381.358 108.709 379.455 109.057 377.407 109.057ZM377.407 104.941C378.834 104.941 380.15 104.704 381.358 104.228C382.565 103.716 383.607 103.021 384.485 102.143C385.363 101.229 386.04 100.149 386.515 98.9057C387.027 97.662 387.283 96.2903 387.283 94.7906C387.283 93.2908 387.027 91.9191 386.515 90.6754C386.04 89.4317 385.363 88.3709 384.485 87.493C383.607 86.5785 382.565 85.8835 381.358 85.4079C380.15 84.8958 378.834 84.6398 377.407 84.6398C375.98 84.6398 374.664 84.8958 373.456 85.4079C372.249 85.8835 371.207 86.5785 370.329 87.493C369.451 88.3709 368.756 89.4317 368.244 90.6754C367.768 91.9191 367.531 93.2908 367.531 94.7906C367.531 96.2903 367.768 97.662 368.244 98.9057C368.756 100.149 369.451 101.229 370.329 102.143C371.207 103.021 372.249 103.716 373.456 104.228C374.664 104.704 375.98 104.941 377.407 104.941Z" fill="black"/>
<path d="M35.4278 19.4272V24.8528C35.4278 25.0551 35.3593 25.2248 35.2222 25.3618C35.0851 25.4989 34.9157 25.5672 34.7139 25.5667C34.5121 25.5663 34.3427 25.4977 34.2056 25.3611C34.0685 25.2245 34 25.0551 34 24.8528V17.7139C34 17.5116 34.0685 17.3422 34.2056 17.2056C34.3427 17.069 34.5121 17.0005 34.7139 17H41.8528C42.0551 17 42.2248 17.0685 42.3618 17.2056C42.4989 17.3427 42.5672 17.5121 42.5667 17.7139C42.5663 17.9157 42.4977 18.0854 42.3611 18.2229C42.2245 18.3604 42.0551 18.4287 41.8528 18.4278H36.4272L42.7809 24.7815C42.9118 24.9123 42.9772 25.0789 42.9772 25.2812C42.9772 25.4834 42.9118 25.65 42.7809 25.7809C42.65 25.9118 42.4834 25.9772 42.2812 25.9772C42.0789 25.9772 41.9123 25.9118 41.7815 25.7809L35.4278 19.4272Z" fill="black"/>
</svg>
