<svg width="257" height="134" viewBox="0 0 257 134" fill="none" xmlns="http://www.w3.org/2000/svg">
<rect x="48.8555" y="0.40625" width="111.715" height="43.1626" rx="21.5813" fill="white"/>
<path fill-rule="evenodd" clip-rule="evenodd" d="M69.167 35.168H139.411V43.5663H136.049C133.776 43.5663 131.932 45.4095 131.932 47.6831C131.932 49.9567 133.776 51.7998 136.049 51.7998H139.411V60.3624H69.167V51.8001H72.5257C74.7993 51.8001 76.6425 49.9569 76.6425 47.6833C76.6425 45.4097 74.7993 43.5666 72.5257 43.5666H69.167V35.168Z" fill="white"/>
<rect x="0.419922" y="51.7695" width="255.851" height="81.6379" rx="35.1551" fill="white"/>
<path d="M74.2348 17.2046H80.3925V18.5432H75.6626V26.1289H74.2348V17.2046ZM84.3241 17.2046H88.0723L90.5711 26.1289H89.054L87.0014 18.5432H85.395L83.3424 26.1289H81.8253L84.3241 17.2046ZM97.1709 26.3074C96.5879 26.3074 96.0346 26.1944 95.511 25.9683C94.9993 25.7303 94.5472 25.409 94.1545 25.0044C93.7618 24.588 93.4525 24.0942 93.2264 23.523C93.0003 22.9519 92.8873 22.3331 92.8873 21.6668C92.8873 21.0004 93.0003 20.3816 93.2264 19.8105C93.4525 19.2393 93.7618 18.7515 94.1545 18.3469C94.5472 17.9304 94.9993 17.6092 95.511 17.3831C96.0346 17.1451 96.5879 17.0261 97.1709 17.0261C97.754 17.0261 98.2478 17.1094 98.6524 17.276C99.0569 17.4426 99.3842 17.627 99.634 17.8293C99.8958 18.0316 100.08 18.222 100.187 18.4005C100.306 18.567 100.366 18.6503 100.366 18.6503H100.384V17.2046H101.812V26.1289H100.384V24.701H100.366C100.366 24.701 100.306 24.7903 100.187 24.9687C100.08 25.1353 99.8958 25.3198 99.634 25.5221C99.3842 25.7124 99.0569 25.8909 98.6524 26.0575C98.2478 26.2241 97.754 26.3074 97.1709 26.3074ZM97.3494 24.9687C97.7778 24.9687 98.1764 24.8914 98.5453 24.7367C98.9141 24.5701 99.2354 24.344 99.5091 24.0585C99.7828 23.761 99.997 23.41 100.152 23.0054C100.306 22.6008 100.384 22.1546 100.384 21.6668C100.384 21.1789 100.306 20.7327 100.152 20.3281C99.997 19.9235 99.7828 19.5785 99.5091 19.2929C99.2354 18.9954 98.9141 18.7693 98.5453 18.6146C98.1764 18.448 97.7778 18.3648 97.3494 18.3648C96.9211 18.3648 96.5224 18.448 96.1536 18.6146C95.7847 18.7693 95.4634 18.9954 95.1897 19.2929C94.9161 19.5785 94.7019 19.9235 94.5472 20.3281C94.3925 20.7327 94.3152 21.1789 94.3152 21.6668C94.3152 22.1546 94.3925 22.6008 94.5472 23.0054C94.7019 23.41 94.9161 23.761 95.1897 24.0585C95.4634 24.344 95.7847 24.5701 96.1536 24.7367C96.5224 24.8914 96.9211 24.9687 97.3494 24.9687ZM105.745 17.2046H110.117C110.974 17.2046 111.635 17.4188 112.099 17.8471C112.563 18.2755 112.795 18.805 112.795 19.4357C112.795 19.8402 112.729 20.1675 112.598 20.4173C112.479 20.6672 112.337 20.8636 112.17 21.0064C112.015 21.1491 111.867 21.2503 111.724 21.3098C111.581 21.3574 111.492 21.3812 111.456 21.3812V21.399C111.48 21.399 111.581 21.4288 111.76 21.4883C111.938 21.5359 112.128 21.637 112.331 21.7917C112.545 21.9464 112.735 22.1665 112.902 22.4521C113.068 22.7258 113.152 23.0887 113.152 23.5409C113.152 24.3024 112.89 24.9271 112.366 25.415C111.855 25.8909 111.111 26.1289 110.135 26.1289H105.745V17.2046ZM110.117 24.7903C110.653 24.7903 111.052 24.6713 111.313 24.4333C111.587 24.1834 111.724 23.8562 111.724 23.4516C111.724 23.047 111.587 22.7258 111.313 22.4878C111.052 22.2379 110.653 22.113 110.117 22.113H107.172V24.7903H110.117ZM110.028 20.8636C110.48 20.8636 110.814 20.7624 111.028 20.5601C111.254 20.346 111.367 20.0604 111.367 19.7034C111.367 19.3464 111.254 19.0668 111.028 18.8645C110.814 18.6503 110.48 18.5432 110.028 18.5432H107.172V20.8636H110.028ZM116.55 17.2046H117.978V20.8636H122.975V17.2046H124.403V26.1289H122.975V22.2022H117.978V26.1289H116.55V17.2046ZM132.08 26.3074C131.497 26.3074 130.943 26.1944 130.42 25.9683C129.908 25.7303 129.456 25.409 129.063 25.0044C128.671 24.588 128.361 24.0942 128.135 23.523C127.909 22.9519 127.796 22.3331 127.796 21.6668C127.796 21.0004 127.909 20.3816 128.135 19.8105C128.361 19.2393 128.671 18.7515 129.063 18.3469C129.456 17.9304 129.908 17.6092 130.42 17.3831C130.943 17.1451 131.497 17.0261 132.08 17.0261C132.663 17.0261 133.156 17.1094 133.561 17.276C133.966 17.4426 134.293 17.627 134.543 17.8293C134.805 18.0316 134.989 18.222 135.096 18.4005C135.215 18.567 135.275 18.6503 135.275 18.6503H135.292V17.2046H136.72V26.1289H135.292V24.701H135.275C135.275 24.701 135.215 24.7903 135.096 24.9687C134.989 25.1353 134.805 25.3198 134.543 25.5221C134.293 25.7124 133.966 25.8909 133.561 26.0575C133.156 26.2241 132.663 26.3074 132.08 26.3074ZM132.258 24.9687C132.686 24.9687 133.085 24.8914 133.454 24.7367C133.823 24.5701 134.144 24.344 134.418 24.0585C134.691 23.761 134.906 23.41 135.06 23.0054C135.215 22.6008 135.292 22.1546 135.292 21.6668C135.292 21.1789 135.215 20.7327 135.06 20.3281C134.906 19.9235 134.691 19.5785 134.418 19.2929C134.144 18.9954 133.823 18.7693 133.454 18.6146C133.085 18.448 132.686 18.3648 132.258 18.3648C131.83 18.3648 131.431 18.448 131.062 18.6146C130.693 18.7693 130.372 18.9954 130.098 19.2929C129.825 19.5785 129.611 19.9235 129.456 20.3281C129.301 20.7327 129.224 21.1789 129.224 21.6668C129.224 22.1546 129.301 22.6008 129.456 23.0054C129.611 23.41 129.825 23.761 130.098 24.0585C130.372 24.344 130.693 24.5701 131.062 24.7367C131.431 24.8914 131.83 24.9687 132.258 24.9687ZM142.081 22.9162C141.748 22.7734 141.45 22.583 141.189 22.345C140.963 22.1427 140.754 21.875 140.564 21.5418C140.386 21.1967 140.296 20.7624 140.296 20.2389C140.296 19.8105 140.374 19.4119 140.528 19.043C140.695 18.6741 140.927 18.3529 141.224 18.0792C141.534 17.8055 141.897 17.5913 142.313 17.4366C142.742 17.2819 143.223 17.2046 143.759 17.2046H147.793V26.1289H146.365V23.2731H143.509L141.938 26.1289H140.296L142.081 22.9162ZM146.365 21.9345V18.5432H143.777C143.099 18.5432 142.587 18.7039 142.242 19.0252C141.897 19.3345 141.724 19.7391 141.724 20.2389C141.724 20.7386 141.897 21.1491 142.242 21.4704C142.587 21.7798 143.099 21.9345 143.777 21.9345H146.365Z" fill="black"/>
<path d="M45.7071 107.314C43.9147 107.314 42.2138 106.967 40.6043 106.272C39.0313 105.54 37.6413 104.553 36.4342 103.309C35.2271 102.029 34.276 100.511 33.581 98.7547C32.886 96.9989 32.5385 95.0968 32.5385 93.0484C32.5385 90.9999 32.886 89.0978 33.581 87.342C34.276 85.5862 35.2271 84.0864 36.4342 82.8427C37.6413 81.5624 39.0313 80.5748 40.6043 79.8798C42.2138 79.1482 43.9147 78.7824 45.7071 78.7824C47.4995 78.7824 49.0175 79.0385 50.2612 79.5506C51.5049 80.0627 52.5108 80.6297 53.279 81.2515C54.0838 81.8734 54.6507 82.4586 54.98 83.0073C55.3457 83.5194 55.5286 83.7755 55.5286 83.7755H55.5835V79.3311H59.973V106.766H55.5835V102.376H55.5286C55.5286 102.376 55.3457 102.65 54.98 103.199C54.6507 103.711 54.0838 104.278 53.279 104.9C52.5108 105.485 51.5049 106.034 50.2612 106.546C49.0175 107.058 47.4995 107.314 45.7071 107.314ZM46.2558 103.199C47.5726 103.199 48.798 102.961 49.932 102.486C51.066 101.974 52.0536 101.279 52.8949 100.401C53.7363 99.4863 54.3947 98.4072 54.8702 97.1635C55.3457 95.9198 55.5835 94.5481 55.5835 93.0484C55.5835 91.5486 55.3457 90.1769 54.8702 88.9332C54.3947 87.6895 53.7363 86.6287 52.8949 85.7508C52.0536 84.8363 51.066 84.1413 49.932 83.6658C48.798 83.1536 47.5726 82.8976 46.2558 82.8976C44.9389 82.8976 43.7135 83.1536 42.5795 83.6658C41.4456 84.1413 40.4579 84.8363 39.6166 85.7508C38.7753 86.6287 38.1169 87.6895 37.6413 88.9332C37.1658 90.1769 36.928 91.5486 36.928 93.0484C36.928 94.5481 37.1658 95.9198 37.6413 97.1635C38.1169 98.4072 38.7753 99.4863 39.6166 100.401C40.4579 101.279 41.4456 101.974 42.5795 102.486C43.7135 102.961 44.9389 103.199 46.2558 103.199ZM84.409 107.04C82.3606 106.894 80.4585 106.436 78.7027 105.668C76.9469 104.9 75.4288 103.894 74.1485 102.65C72.9048 101.37 71.9172 99.9253 71.1856 98.3158C70.4906 96.6697 70.1431 94.9139 70.1431 93.0484C70.1431 91.1828 70.4906 89.4453 71.1856 87.8358C71.9172 86.1897 72.9048 84.7448 74.1485 83.5012C75.4288 82.2209 76.9469 81.1967 78.7027 80.4285C80.4585 79.6603 82.3606 79.2031 84.409 79.0568V68.3573H88.7986V79.0568C90.847 79.2031 92.7491 79.6603 94.505 80.4285C96.2608 81.1967 97.7605 82.2209 99.0042 83.5012C100.284 84.7448 101.272 86.1897 101.967 87.8358C102.699 89.4453 103.065 91.1828 103.065 93.0484C103.065 94.9139 102.699 96.6697 101.967 98.3158C101.272 99.9253 100.284 101.37 99.0042 102.65C97.7605 103.894 96.2608 104.9 94.505 105.668C92.7491 106.436 90.847 106.894 88.7986 107.04V117.191H84.409V107.04ZM84.409 83.1719C82.9825 83.2451 81.6656 83.5377 80.4585 84.0498C79.2514 84.562 78.2088 85.257 77.3309 86.1349C76.453 87.0128 75.758 88.0553 75.2459 89.2624C74.7704 90.4329 74.5326 91.6949 74.5326 93.0484C74.5326 94.4384 74.7704 95.7187 75.2459 96.8892C75.758 98.0597 76.453 99.084 77.3309 99.9619C78.2088 100.84 79.2514 101.535 80.4585 102.047C81.6656 102.559 82.9825 102.852 84.409 102.925V83.1719ZM88.7986 102.925C90.2252 102.852 91.542 102.559 92.7491 102.047C93.9563 101.535 94.9988 100.84 95.8767 99.9619C96.7546 99.084 97.4313 98.0597 97.9068 96.8892C98.4189 95.7187 98.675 94.4384 98.675 93.0484C98.675 91.6949 98.4189 90.4329 97.9068 89.2624C97.4313 88.0553 96.7546 87.0128 95.8767 86.1349C94.9988 85.257 93.9563 84.562 92.7491 84.0498C91.542 83.5377 90.2252 83.2451 88.7986 83.1719V102.925ZM113.211 79.3311H117.601V99.907L117.546 100.456H117.655L132.415 79.3311H137.353V106.766H132.964V86.1897L133.019 85.641H132.909L118.149 106.766H113.211V79.3311ZM149.429 79.3311H153.818V102.65H164.792V79.3311H169.182V102.65H180.156V79.3311H184.545V106.766H149.429V79.3311ZM208.154 107.314C206.361 107.314 204.66 106.967 203.051 106.272C201.478 105.54 200.088 104.553 198.881 103.309C197.674 102.029 196.723 100.511 196.028 98.7547C195.333 96.9989 194.985 95.0968 194.985 93.0484C194.985 90.9999 195.333 89.0978 196.028 87.342C196.723 85.5862 197.674 84.0864 198.881 82.8427C200.088 81.5624 201.478 80.5748 203.051 79.8798C204.66 79.1482 206.361 78.7824 208.154 78.7824C209.946 78.7824 211.464 79.0385 212.708 79.5506C213.952 80.0627 214.957 80.6297 215.726 81.2515C216.53 81.8734 217.097 82.4586 217.427 83.0073C217.792 83.5194 217.975 83.7755 217.975 83.7755H218.03V79.3311H222.42V106.766H218.03V102.376H217.975C217.975 102.376 217.792 102.65 217.427 103.199C217.097 103.711 216.53 104.278 215.726 104.9C214.957 105.485 213.952 106.034 212.708 106.546C211.464 107.058 209.946 107.314 208.154 107.314ZM208.702 103.199C210.019 103.199 211.245 102.961 212.379 102.486C213.513 101.974 214.5 101.279 215.342 100.401C216.183 99.4863 216.841 98.4072 217.317 97.1635C217.792 95.9198 218.03 94.5481 218.03 93.0484C218.03 91.5486 217.792 90.1769 217.317 88.9332C216.841 87.6895 216.183 86.6287 215.342 85.7508C214.5 84.8363 213.513 84.1413 212.379 83.6658C211.245 83.1536 210.019 82.8976 208.702 82.8976C207.386 82.8976 206.16 83.1536 205.026 83.6658C203.892 84.1413 202.905 84.8363 202.063 85.7508C201.222 86.6287 200.564 87.6895 200.088 88.9332C199.612 90.1769 199.375 91.5486 199.375 93.0484C199.375 94.5481 199.612 95.9198 200.088 97.1635C200.564 98.4072 201.222 99.4863 202.063 100.401C202.905 101.279 203.892 101.974 205.026 102.486C206.16 102.961 207.386 103.199 208.702 103.199Z" fill="black"/>
<path d="M57.4314 19.4334V24.8728C57.4314 25.0755 57.3627 25.2456 57.2253 25.3831C57.0879 25.5205 56.918 25.5889 56.7157 25.5885C56.5134 25.588 56.3435 25.5193 56.2061 25.3823C56.0687 25.2454 56 25.0755 56 24.8728V17.7157C56 17.5129 56.0687 17.3431 56.2061 17.2061C56.3435 17.0692 56.5134 17.0005 56.7157 17H63.8728C64.0755 17 64.2456 17.0687 64.3831 17.2061C64.5205 17.3435 64.5889 17.5134 64.5885 17.7157C64.588 17.918 64.5193 18.0881 64.3823 18.226C64.2454 18.3639 64.0755 18.4324 63.8728 18.4314H58.4334L64.8032 24.8012C64.9344 24.9324 65 25.0994 65 25.3022C65 25.505 64.9344 25.672 64.8032 25.8032C64.672 25.9344 64.505 26 64.3022 26C64.0994 26 63.9324 25.9344 63.8012 25.8032L57.4314 19.4334Z" fill="black"/>
</svg>
