<svg width="214" height="134" viewBox="0 0 214 134" fill="none" xmlns="http://www.w3.org/2000/svg">
<path fill-rule="evenodd" clip-rule="evenodd" d="M44.4365 0.40625C32.5175 0.40625 22.8552 10.0685 22.8552 21.9876C22.8552 33.48 31.8382 42.8743 43.1657 43.5321V43.5698H46.5244C48.798 43.5698 50.6412 45.4129 50.6412 47.6866C50.6412 49.9602 48.798 51.8033 46.5244 51.8033H43.1657V52.0253H35.7586C16.343 52.0253 0.603516 67.7648 0.603516 87.1804V98.4133C0.603516 117.829 16.343 133.568 35.7586 133.568H177.909C197.325 133.568 213.065 117.829 213.065 98.4133V87.1804C213.065 67.7648 197.325 52.0253 177.909 52.0253H113.41V51.8029H110.049C107.775 51.8029 105.932 49.9598 105.932 47.6861C105.932 45.4125 107.775 43.5694 110.049 43.5694H113.41V43.5649C125.135 43.3404 134.57 33.7659 134.57 21.9876C134.57 10.0685 124.908 0.40625 112.989 0.40625H44.4365Z" fill="white"/>
<path d="M48.2357 17.2046H54.3935V18.5432H49.6636V26.1289H48.2357V17.2046ZM58.3251 17.2046H62.0733L64.5721 26.1289H63.055L61.0024 18.5432H59.396L57.3434 26.1289H55.8263L58.3251 17.2046ZM71.1719 26.3074C70.5889 26.3074 70.0355 26.1944 69.512 25.9683C69.0003 25.7303 68.5482 25.409 68.1555 25.0044C67.7628 24.588 67.4534 24.0942 67.2274 23.523C67.0013 22.9519 66.8882 22.3331 66.8882 21.6668C66.8882 21.0004 67.0013 20.3816 67.2274 19.8105C67.4534 19.2393 67.7628 18.7515 68.1555 18.3469C68.5482 17.9304 69.0003 17.6092 69.512 17.3831C70.0355 17.1451 70.5889 17.0261 71.1719 17.0261C71.755 17.0261 72.2488 17.1094 72.6533 17.276C73.0579 17.4426 73.3851 17.627 73.635 17.8293C73.8968 18.0316 74.0812 18.222 74.1883 18.4005C74.3073 18.567 74.3668 18.6503 74.3668 18.6503H74.3847V17.2046H75.8125V26.1289H74.3847V24.701H74.3668C74.3668 24.701 74.3073 24.7903 74.1883 24.9687C74.0812 25.1353 73.8968 25.3198 73.635 25.5221C73.3851 25.7124 73.0579 25.8909 72.6533 26.0575C72.2488 26.2241 71.755 26.3074 71.1719 26.3074ZM71.3504 24.9687C71.7788 24.9687 72.1774 24.8914 72.5463 24.7367C72.9151 24.5701 73.2364 24.344 73.5101 24.0585C73.7838 23.761 73.9979 23.41 74.1526 23.0054C74.3073 22.6008 74.3847 22.1546 74.3847 21.6668C74.3847 21.1789 74.3073 20.7327 74.1526 20.3281C73.9979 19.9235 73.7838 19.5785 73.5101 19.2929C73.2364 18.9954 72.9151 18.7693 72.5463 18.6146C72.1774 18.448 71.7788 18.3648 71.3504 18.3648C70.922 18.3648 70.5234 18.448 70.1545 18.6146C69.7857 18.7693 69.4644 18.9954 69.1907 19.2929C68.917 19.5785 68.7028 19.9235 68.5482 20.3281C68.3935 20.7327 68.3161 21.1789 68.3161 21.6668C68.3161 22.1546 68.3935 22.6008 68.5482 23.0054C68.7028 23.41 68.917 23.761 69.1907 24.0585C69.4644 24.344 69.7857 24.5701 70.1545 24.7367C70.5234 24.8914 70.922 24.9687 71.3504 24.9687ZM79.7455 17.2046H84.1184C84.9752 17.2046 85.6356 17.4188 86.0996 17.8471C86.5637 18.2755 86.7957 18.805 86.7957 19.4357C86.7957 19.8402 86.7303 20.1675 86.5994 20.4173C86.4804 20.6672 86.3376 20.8636 86.171 21.0064C86.0163 21.1491 85.8676 21.2503 85.7248 21.3098C85.582 21.3574 85.4928 21.3812 85.4571 21.3812V21.399C85.4809 21.399 85.582 21.4288 85.7605 21.4883C85.939 21.5359 86.1294 21.637 86.3317 21.7917C86.5458 21.9464 86.7362 22.1665 86.9028 22.4521C87.0694 22.7258 87.1527 23.0887 87.1527 23.5409C87.1527 24.3024 86.8909 24.9271 86.3674 25.415C85.8557 25.8909 85.112 26.1289 84.1363 26.1289H79.7455V17.2046ZM84.1184 24.7903C84.6539 24.7903 85.0525 24.6713 85.3143 24.4333C85.588 24.1834 85.7248 23.8562 85.7248 23.4516C85.7248 23.047 85.588 22.7258 85.3143 22.4878C85.0525 22.2379 84.6539 22.113 84.1184 22.113H81.1734V24.7903H84.1184ZM84.0292 20.8636C84.4814 20.8636 84.8145 20.7624 85.0287 20.5601C85.2548 20.346 85.3678 20.0604 85.3678 19.7034C85.3678 19.3464 85.2548 19.0668 85.0287 18.8645C84.8145 18.6503 84.4814 18.5432 84.0292 18.5432H81.1734V20.8636H84.0292ZM90.5509 17.2046H91.9788V20.8636H96.9764V17.2046H98.4043V26.1289H96.9764V22.2022H91.9788V26.1289H90.5509V17.2046ZM106.081 26.3074C105.498 26.3074 104.944 26.1944 104.421 25.9683C103.909 25.7303 103.457 25.409 103.064 25.0044C102.672 24.588 102.362 24.0942 102.136 23.523C101.91 22.9519 101.797 22.3331 101.797 21.6668C101.797 21.0004 101.91 20.3816 102.136 19.8105C102.362 19.2393 102.672 18.7515 103.064 18.3469C103.457 17.9304 103.909 17.6092 104.421 17.3831C104.944 17.1451 105.498 17.0261 106.081 17.0261C106.664 17.0261 107.157 17.1094 107.562 17.276C107.967 17.4426 108.294 17.627 108.544 17.8293C108.805 18.0316 108.99 18.222 109.097 18.4005C109.216 18.567 109.276 18.6503 109.276 18.6503H109.293V17.2046H110.721V26.1289H109.293V24.701H109.276C109.276 24.701 109.216 24.7903 109.097 24.9687C108.99 25.1353 108.805 25.3198 108.544 25.5221C108.294 25.7124 107.967 25.8909 107.562 26.0575C107.157 26.2241 106.664 26.3074 106.081 26.3074ZM106.259 24.9687C106.687 24.9687 107.086 24.8914 107.455 24.7367C107.824 24.5701 108.145 24.344 108.419 24.0585C108.692 23.761 108.907 23.41 109.061 23.0054C109.216 22.6008 109.293 22.1546 109.293 21.6668C109.293 21.1789 109.216 20.7327 109.061 20.3281C108.907 19.9235 108.692 19.5785 108.419 19.2929C108.145 18.9954 107.824 18.7693 107.455 18.6146C107.086 18.448 106.687 18.3648 106.259 18.3648C105.831 18.3648 105.432 18.448 105.063 18.6146C104.694 18.7693 104.373 18.9954 104.099 19.2929C103.826 19.5785 103.612 19.9235 103.457 20.3281C103.302 20.7327 103.225 21.1789 103.225 21.6668C103.225 22.1546 103.302 22.6008 103.457 23.0054C103.612 23.41 103.826 23.761 104.099 24.0585C104.373 24.344 104.694 24.5701 105.063 24.7367C105.432 24.8914 105.831 24.9687 106.259 24.9687ZM116.082 22.9162C115.749 22.7734 115.451 22.583 115.19 22.345C114.964 22.1427 114.755 21.875 114.565 21.5418C114.386 21.1967 114.297 20.7624 114.297 20.2389C114.297 19.8105 114.375 19.4119 114.529 19.043C114.696 18.6741 114.928 18.3529 115.225 18.0792C115.535 17.8055 115.898 17.5913 116.314 17.4366C116.743 17.2819 117.224 17.2046 117.76 17.2046H121.794V26.1289H120.366V23.2731H117.51L115.939 26.1289H114.297L116.082 22.9162ZM120.366 21.9345V18.5432H117.778C117.099 18.5432 116.588 18.7039 116.243 19.0252C115.898 19.3345 115.725 19.7391 115.725 20.2389C115.725 20.7386 115.898 21.1491 116.243 21.4704C116.588 21.7798 117.099 21.9345 117.778 21.9345H120.366Z" fill="black"/>
<path d="M41.0037 107.314C38.9552 107.314 37.0531 106.967 35.2973 106.272C33.5415 105.54 32.0234 104.553 30.7432 103.309C29.4995 102.029 28.5118 100.511 27.7802 98.7547C27.0852 96.9989 26.7377 95.0968 26.7377 93.0484C26.7377 90.9999 27.0852 89.0978 27.7802 87.342C28.5118 85.5862 29.4995 84.0864 30.7432 82.8427C32.0234 81.5624 33.5415 80.5748 35.2973 79.8798C37.0531 79.1482 38.9552 78.7824 41.0037 78.7824C43.0521 78.7824 44.9543 79.1482 46.7101 79.8798C48.4659 80.5748 49.9656 81.5624 51.2093 82.8427C52.4896 84.0864 53.4772 85.5862 54.1723 87.342C54.9038 89.0978 55.2696 90.9999 55.2696 93.0484C55.2696 95.0968 54.9038 96.9989 54.1723 98.7547C53.4772 100.511 52.4896 102.029 51.2093 103.309C49.9656 104.553 48.4659 105.54 46.7101 106.272C44.9543 106.967 43.0521 107.314 41.0037 107.314ZM41.0037 103.199C42.4303 103.199 43.7471 102.961 44.9543 102.486C46.1614 101.974 47.2039 101.279 48.0818 100.401C48.9597 99.4863 49.6364 98.4072 50.1119 97.1635C50.6241 95.9198 50.8801 94.5481 50.8801 93.0484C50.8801 91.5486 50.6241 90.1769 50.1119 88.9332C49.6364 87.6895 48.9597 86.6287 48.0818 85.7508C47.2039 84.8363 46.1614 84.1413 44.9543 83.6658C43.7471 83.1536 42.4303 82.8976 41.0037 82.8976C39.5771 82.8976 38.2602 83.1536 37.0531 83.6658C35.846 84.1413 34.8035 84.8363 33.9256 85.7508C33.0477 86.6287 32.3527 87.6895 31.8406 88.9332C31.365 90.1769 31.1273 91.5486 31.1273 93.0484C31.1273 94.5481 31.365 95.9198 31.8406 97.1635C32.3527 98.4072 33.0477 99.4863 33.9256 100.401C34.8035 101.279 35.846 101.974 37.0531 102.486C38.2602 102.961 39.5771 103.199 41.0037 103.199ZM85.4412 79.3311H89.8307V90.5793H105.194V79.3311H109.584V106.766H105.194V94.6944H89.8307V106.766H85.4412V79.3311ZM133.182 107.314C131.389 107.314 129.688 106.967 128.079 106.272C126.506 105.54 125.116 104.553 123.909 103.309C122.702 102.029 121.75 100.511 121.055 98.7547C120.36 96.9989 120.013 95.0968 120.013 93.0484C120.013 90.9999 120.36 89.0978 121.055 87.342C121.75 85.5862 122.702 84.0864 123.909 82.8427C125.116 81.5624 126.506 80.5748 128.079 79.8798C129.688 79.1482 131.389 78.7824 133.182 78.7824C134.974 78.7824 136.492 79.0385 137.736 79.5506C138.979 80.0627 139.985 80.6297 140.753 81.2515C141.558 81.8734 142.125 82.4586 142.454 83.0073C142.82 83.5194 143.003 83.7755 143.003 83.7755H143.058V79.3311H147.447V106.766H143.058V102.376H143.003C143.003 102.376 142.82 102.65 142.454 103.199C142.125 103.711 141.558 104.278 140.753 104.9C139.985 105.485 138.979 106.034 137.736 106.546C136.492 107.058 134.974 107.314 133.182 107.314ZM133.73 103.199C135.047 103.199 136.272 102.961 137.406 102.486C138.54 101.974 139.528 101.279 140.369 100.401C141.211 99.4863 141.869 98.4072 142.345 97.1635C142.82 95.9198 143.058 94.5481 143.058 93.0484C143.058 91.5486 142.82 90.1769 142.345 88.9332C141.869 87.6895 141.211 86.6287 140.369 85.7508C139.528 84.8363 138.54 84.1413 137.406 83.6658C136.272 83.1536 135.047 82.8976 133.73 82.8976C132.413 82.8976 131.188 83.1536 130.054 83.6658C128.92 84.1413 127.932 84.8363 127.091 85.7508C126.25 86.6287 125.591 87.6895 125.116 88.9332C124.64 90.1769 124.402 91.5486 124.402 93.0484C124.402 94.5481 124.64 95.9198 125.116 97.1635C125.591 98.4072 126.25 99.4863 127.091 100.401C127.932 101.279 128.92 101.974 130.054 102.486C131.188 102.961 132.413 103.199 133.73 103.199ZM171.609 107.314C169.67 107.314 167.86 106.967 166.177 106.272C164.531 105.54 163.086 104.553 161.842 103.309C160.635 102.029 159.666 100.511 158.934 98.7547C158.239 96.9989 157.892 95.0968 157.892 93.0484C157.892 90.9999 158.239 89.0978 158.934 87.342C159.666 85.5862 160.635 84.0864 161.842 82.8427C163.086 81.5624 164.531 80.5748 166.177 79.8798C167.86 79.1482 169.67 78.7824 171.609 78.7824C172.963 78.7824 174.188 78.9287 175.285 79.2214C176.419 79.4774 177.425 79.8432 178.303 80.3187C179.181 80.7577 179.949 81.2698 180.608 81.8551C181.266 82.4403 181.833 83.0256 182.309 83.6109C183.443 85.0375 184.266 86.6287 184.778 88.3845H180.388C179.949 87.3603 179.346 86.4458 178.578 85.641C177.919 84.946 177.023 84.3242 175.889 83.7755C174.755 83.1902 173.328 82.8976 171.609 82.8976C170.292 82.8976 169.067 83.1536 167.933 83.6658C166.799 84.1413 165.811 84.8363 164.97 85.7508C164.129 86.6287 163.47 87.6895 162.995 88.9332C162.519 90.1769 162.281 91.5486 162.281 93.0484C162.281 94.5847 162.537 95.9747 163.05 97.2184C163.562 98.4621 164.238 99.5229 165.08 100.401C165.921 101.279 166.909 101.974 168.043 102.486C169.177 102.961 170.365 103.199 171.609 103.199C173.402 103.199 174.865 102.888 175.999 102.266C177.169 101.645 178.102 100.95 178.797 100.181C179.602 99.3034 180.224 98.2975 180.663 97.1635H185.052C184.54 99.1022 183.699 100.803 182.528 102.266C182.016 102.888 181.431 103.51 180.772 104.132C180.114 104.717 179.327 105.248 178.413 105.723C177.535 106.199 176.529 106.583 175.395 106.875C174.261 107.168 172.999 107.314 171.609 107.314Z" fill="black"/>
<path d="M33.4314 19.4334V24.8728C33.4314 25.0755 33.3627 25.2456 33.2253 25.3831C33.0879 25.5205 32.918 25.5889 32.7157 25.5885C32.5134 25.588 32.3435 25.5193 32.2061 25.3823C32.0687 25.2454 32 25.0755 32 24.8728V17.7157C32 17.5129 32.0687 17.3431 32.2061 17.2061C32.3435 17.0692 32.5134 17.0005 32.7157 17H39.8728C40.0755 17 40.2456 17.0687 40.3831 17.2061C40.5205 17.3435 40.5889 17.5134 40.5885 17.7157C40.588 17.918 40.5193 18.0881 40.3823 18.226C40.2454 18.3639 40.0755 18.4324 39.8728 18.4314H34.4334L40.8032 24.8012C40.9344 24.9324 41 25.0994 41 25.3022C41 25.505 40.9344 25.672 40.8032 25.8032C40.672 25.9344 40.505 26 40.3022 26C40.0994 26 39.9324 25.9344 39.8012 25.8032L33.4314 19.4334Z" fill="black"/>
</svg>
