<svg width="1068" height="976" viewBox="0 0 1068 976" fill="none" xmlns="http://www.w3.org/2000/svg">
<path d="M706.135 310.035L520.34 366.907L523.909 565.393L710.377 499.003L706.135 310.035Z" fill="#FDB600"/>
<path d="M890.93 251.895L725.544 302.24L730.377 489.393L890.93 431.1L890.93 251.895Z" fill="#FC5812"/>
<path d="M1067.4 199.391L921.559 244.099L924.346 420.655L1060.2 369.18L1067.4 199.391Z" fill="#097441"/>
<path d="M148.238 229.56L26.1863 179.648V363.741L148.238 419.027V229.56Z" fill="#097441"/>
<path d="M319.107 299.436L180.95 242.938V433.584L318.522 495.9L319.107 299.436Z" fill="#097441"/>
<path d="M486.674 367.962L347.208 311.568L345.862 508.893L486.674 564.644V367.962Z" fill="#097441"/>
<path d="M148.987 230.065L26.4336 179.34V364.875L148.987 419.712V230.065Z" fill="#FC5812"/>
<path d="M244.416 528.625L27.9351 487.719V645.869L241.248 688.067L244.416 528.625Z" fill="#FC5812"/>
<path d="M483.183 574.201L267.192 532.427L267.192 694.017L477.889 734.423L483.183 574.201Z" fill="#FC5812"/>
<path d="M716.102 619.248L510.365 579.458L506.203 739.993L712.44 780.393L716.102 619.248Z" fill="#8000FF"/>
<path d="M132.829 732.479L108.649 692.354H136.022L132.829 732.479Z" fill="#8000FF"/>
<path d="M185.293 819.352L161.57 779.617L159.745 692.354L188.487 705.21L185.293 819.352Z" fill="#8000FF"/>
<path d="M262.85 951.025L210.182 853.703V739.236L262.85 809.224V951.025Z" fill="#8000FF"/>
<path d="M516.442 784.621L293.993 809.224V975.103L523.919 945.839L516.442 784.621Z" fill="#8000FF"/>
<path d="M775.031 914.979L553.828 943.179V777.704L736.399 811.757L775.031 774.512V914.979Z" fill="#8000FF"/>
<path d="M804.317 910.19L809.925 753.229L1003.09 728.753V885.183L804.317 910.19Z" fill="#8000FF"/>
<path d="M940.155 631.916L844.196 718.644L996.234 700.021L940.155 631.916Z" fill="#8000FF"/>
<path d="M279.375 784.621L231.895 713.711L228.516 713.006L746.544 595.129L832.276 525.812V691.292L752.356 762.638L746.544 595.129L228.516 713.006L231.895 713.711L466.097 762.638L279.375 784.621Z" fill="#8000FF"/>
<path d="M927.454 452.437L859.159 507.653V670.818L927.454 605.676V452.437Z" fill="#8000FF"/>
<path d="M1024.08 419.555L952.883 443.131V447.474L961.602 578.378L1024.08 520.681V419.555Z" fill="#8000FF"/>
<path d="M713.576 595.129L824.335 507.653L588.701 569.357L713.576 595.129Z" fill="#8000FF"/>
<path d="M91.217 420.141L27.957 463.272L327.004 525.095L91.217 420.141Z" fill="#8000FF"/>
<path d="M193.409 111.93L38.2345 158.618L157.48 210.642L314.217 158.618L193.409 111.93Z" fill="#8000FF"/>
<path d="M406.384 50.1247L240.795 99.4804L360.04 147.947L516.777 96.3678L406.384 50.1247Z" fill="#8000FF"/>
<path d="M567.808 0.324219L447.001 38.5638L567.808 86.1411L687.053 45.6783L567.808 0.324219Z" fill="#8000FF"/>
<path d="M407.844 49.0156L238.076 99.256L360.039 151.591L521.227 99.256L407.844 49.0156Z" fill="#097441"/>
<path d="M714.137 594.799L586.064 570.402L826.448 504.785L714.137 594.799Z" fill="#097441"/>
<path d="M833.091 522.508L746.582 594.937V775.14L833.091 690.628V522.508Z" fill="#FC5812"/>
<path d="M926.967 452.352L858.369 508.599V673.678L926.967 606.115V452.352Z" fill="#097441"/>
<path d="M342.537 174.724L188.965 224.92L324.167 280.135L481.413 231.194L342.537 174.724Z" fill="#FDB600"/>
<path d="M551.954 110.725L392.503 160.92L386.581 163.633L529.175 217.39L684.217 168.45L551.954 110.725Z" fill="#FDB600"/>
<path d="M717.493 60.7617L594.021 97.5875L583.978 100.614L723.401 152.574L851.598 110.725L717.493 60.7617Z" fill="#FDB600"/>
<path d="M522.809 244.362L656.741 294.896L495.815 350.748L363.985 294.896L522.809 244.362Z" fill="#FDB600"/>
<path d="M723.401 180.531L573.683 231.194L703.461 280.135L851.598 231.194L723.401 180.531Z" fill="#FDB600"/>
<path d="M904.878 129.111L777.176 168.45L763.37 171.705L900.725 224.92L1036.73 180.531L904.878 129.111Z" fill="#FDB600"/>
<path d="M522.812 244.07L363.752 295.004L496.169 351.71L658.411 295.004L522.812 244.07Z" fill="#8000FF"/>
<path d="M553.451 945.197V778.08L735.351 811.422L778.207 771.168V916.328L553.451 945.197Z" fill="#FDB600"/>
<path d="M346.27 509.375V311.805L488.128 368.338L490.77 566.535L346.27 509.375Z" fill="#FC5812"/>
</svg>
