<svg width="1462" height="652" viewBox="0 0 1462 652" fill="none" xmlns="http://www.w3.org/2000/svg">
<style>
a:hover{
  opacity: 0.7;
  transition: 0.3s ease-in-out;


}


  svg{
cursor: url("icons8-circle-30.png") 15 15,pointer;
  }


</style>
<path fill-rule="evenodd" clip-rule="evenodd" d="M624.6 184.852H937.055V221.24H921.628C911.777 221.24 903.791 229.226 903.791 239.077C903.791 248.928 911.777 256.914 921.628 256.914H937.055V294.015H624.6V256.914H640.016C649.867 256.914 657.853 248.928 657.853 239.077C657.853 229.226 649.867 221.24 640.016 221.24H624.6V184.852Z" fill="white"/>
<rect x="443" width="604" height="221" rx="110.5" fill="white"/>
<path d="M507.494 76.0347H516.916V99.5896H528.694L547.537 76.0347H558.726L536.938 103.712L560.493 134.922H548.715L528.694 108.423H516.916V134.922H507.494V76.0347ZM591.749 84.8678H571.138V76.0347H621.781V84.8678H601.171V134.922H591.749V84.8678ZM667.175 136.1C662.778 136.1 658.695 135.354 654.927 133.862C651.158 132.292 647.899 130.172 645.151 127.502C642.482 124.754 640.362 121.496 638.791 117.727C637.3 113.958 636.554 109.875 636.554 105.478C636.554 101.081 637.3 96.9985 638.791 93.2297C640.362 89.461 642.482 86.2418 645.151 83.5722C647.899 80.8242 651.158 78.7042 654.927 77.2124C658.695 75.6421 662.778 74.8569 667.175 74.8569C671.572 74.8569 675.655 75.6421 679.424 77.2124C683.192 78.7042 686.412 80.8242 689.081 83.5722C691.829 86.2418 693.949 89.461 695.441 93.2297C697.011 96.9985 697.796 101.081 697.796 105.478C697.796 109.875 697.011 113.958 695.441 117.727C693.949 121.496 691.829 124.754 689.081 127.502C686.412 130.172 683.192 132.292 679.424 133.862C675.655 135.354 671.572 136.1 667.175 136.1ZM667.175 127.267C670.237 127.267 673.064 126.756 675.655 125.735C678.246 124.636 680.484 123.144 682.368 121.26C684.252 119.297 685.705 116.981 686.726 114.311C687.825 111.642 688.374 108.697 688.374 105.478C688.374 102.259 687.825 99.3148 686.726 96.6452C685.705 93.9756 684.252 91.6987 682.368 89.8143C680.484 87.8514 678.246 86.3596 675.655 85.3389C673.064 84.2396 670.237 83.69 667.175 83.69C664.113 83.69 661.286 84.2396 658.695 85.3389C656.104 86.3596 653.867 87.8514 651.982 89.8143C650.098 91.6987 648.606 93.9756 647.507 96.6452C646.486 99.3148 645.976 102.259 645.976 105.478C645.976 108.697 646.486 111.642 647.507 114.311C648.606 116.981 650.098 119.297 651.982 121.26C653.867 123.144 656.104 124.636 658.695 125.735C661.286 126.756 664.113 127.267 667.175 127.267ZM762.559 76.0347H776.691L794.358 112.545H797.302L814.968 76.0347H829.101V134.922H819.679V87.8121L819.797 86.6344H819.561L802.013 123.144H789.647L772.098 86.6344H771.863L771.98 87.8121V134.922H762.559V76.0347ZM855.021 76.0347H864.443V96.0563H878.576C881.952 96.0563 885.014 96.5667 887.762 97.5874C890.51 98.6081 892.865 100.021 894.828 101.827C896.791 103.555 898.283 105.596 899.304 107.952C900.403 110.307 900.953 112.82 900.953 115.489C900.953 118.159 900.403 120.671 899.304 123.027C898.283 125.382 896.791 127.463 894.828 129.269C892.865 130.996 890.51 132.37 887.762 133.391C885.014 134.412 881.952 134.922 878.576 134.922H855.021V76.0347ZM878.576 126.089C882.737 126.089 885.917 125.068 888.115 123.027C890.392 120.985 891.531 118.473 891.531 115.489C891.531 112.505 890.392 109.993 888.115 107.952C885.917 105.91 882.737 104.889 878.576 104.889H864.443V126.089H878.576ZM908.608 76.0347H918.03V134.922H908.608V76.0347ZM964.528 136.688C962.486 136.688 960.798 136.021 959.463 134.686C958.129 133.352 957.461 131.663 957.461 129.622C957.461 127.581 958.129 125.893 959.463 124.558C960.798 123.223 962.486 122.556 964.528 122.556C966.569 122.556 968.257 123.223 969.592 124.558C970.927 125.893 971.594 127.581 971.594 129.622C971.594 131.663 970.927 133.352 969.592 134.686C968.257 136.021 966.569 136.688 964.528 136.688ZM959.228 111.367C959.228 107.284 959.817 103.908 960.995 101.238C962.251 98.4903 963.782 96.1741 965.588 94.2897C967.472 92.4053 969.474 90.7957 971.594 89.461C973.714 88.1262 975.677 86.7522 977.483 85.3389C979.367 83.8471 980.898 82.2375 982.076 80.5101C983.332 78.7042 983.961 76.4273 983.961 73.6792C983.961 71.9518 983.568 70.2637 982.783 68.6149C981.998 66.9661 980.859 65.5135 979.367 64.2572C977.876 63.001 976.07 62.0195 973.95 61.3129C971.908 60.5277 969.553 60.1351 966.883 60.1351C962.879 60.1351 959.621 60.9203 957.108 62.4906C954.595 64.061 952.633 65.7491 951.219 67.5549C949.57 69.6749 948.314 72.1089 947.451 74.8569H936.851C937.95 70.303 939.795 66.1809 942.386 62.4906C943.485 60.9988 944.781 59.507 946.273 58.0152C947.765 56.5234 949.492 55.1886 951.455 54.0109C953.496 52.8331 955.773 51.8909 958.286 51.1843C960.798 50.4776 963.664 50.1243 966.883 50.1243C970.966 50.1243 974.696 50.7917 978.072 52.1265C981.527 53.3827 984.471 55.1101 986.905 57.3086C989.339 59.4285 991.223 61.941 992.558 64.8461C993.893 67.6727 994.56 70.6171 994.56 73.6792C994.56 77.3695 993.932 80.4709 992.676 82.9834C991.498 85.4174 989.967 87.4981 988.083 89.2254C986.277 90.9528 984.314 92.4838 982.194 93.8186C980.074 95.1534 978.072 96.6059 976.187 98.1763C974.382 99.7466 972.851 101.552 971.594 103.594C970.417 105.635 969.828 108.226 969.828 111.367H959.228Z" fill="black"/>
<path d="M0 256H1300.3C1354.81 256 1399 300.191 1399 354.704V564H98.7043C44.1914 564 0 519.809 0 465.296V256Z" fill="white"/>
<path d="M53.9081 340.02C51.2223 340.02 48.7405 339.561 46.4627 338.643C44.185 337.691 42.2131 336.382 40.5473 334.716C38.9154 333.017 37.6236 331.028 36.6717 328.75C35.7537 326.438 35.2948 323.905 35.2948 321.152C35.2948 318.398 35.7537 315.882 36.6717 313.604C37.6236 311.293 38.9154 309.304 40.5473 307.638C42.2131 305.938 44.185 304.629 46.4627 303.711C48.7405 302.759 51.2223 302.283 53.9081 302.283C55.7099 302.283 57.3417 302.47 58.8036 302.844C60.2655 303.218 61.5743 303.711 62.7302 304.323C63.9201 304.935 64.957 305.632 65.8409 306.414C66.7249 307.196 67.4898 307.995 68.1357 308.811C69.6656 310.715 70.7875 312.873 71.5014 315.287H66.9118C66.2659 313.689 65.365 312.244 64.2091 310.953C63.6991 310.409 63.1212 309.882 62.4753 309.372C61.8293 308.862 61.0814 308.403 60.2315 307.995C59.3815 307.587 58.4296 307.264 57.3757 307.026C56.3218 306.754 55.1659 306.618 53.9081 306.618C51.8682 306.618 49.9814 306.975 48.2476 307.689C46.5477 308.369 45.0689 309.355 43.811 310.647C42.5871 311.905 41.6182 313.434 40.9043 315.236C40.2243 317.004 39.8844 318.976 39.8844 321.152C39.8844 323.327 40.2243 325.316 40.9043 327.118C41.6182 328.886 42.5871 330.416 43.811 331.708C45.0689 332.966 46.5477 333.951 48.2476 334.665C49.9814 335.345 51.8682 335.685 53.9081 335.685C55.1999 335.685 56.3898 335.549 57.4777 335.277C58.5656 335.005 59.5345 334.648 60.3845 334.206C61.2684 333.764 62.0333 333.272 62.6792 332.728C63.3592 332.15 63.9541 331.572 64.4641 330.994C65.62 329.634 66.5209 328.053 67.1668 326.251H71.7564C70.9405 328.835 69.7506 331.13 68.1867 333.136C67.5068 334.019 66.7079 334.869 65.7899 335.685C64.906 336.501 63.8691 337.232 62.6792 337.878C61.5233 338.524 60.2145 339.034 58.7526 339.408C57.2907 339.816 55.6759 340.02 53.9081 340.02ZM91.6346 339.51C89.7308 339.51 87.9629 339.187 86.3311 338.541C84.6992 337.861 83.2884 336.943 82.0985 335.787C80.9426 334.597 80.0247 333.187 79.3447 331.555C78.6988 329.923 78.3758 328.155 78.3758 326.251C78.3758 324.347 78.6988 322.58 79.3447 320.948C80.0247 319.316 80.9426 317.922 82.0985 316.766C83.2884 315.576 84.6992 314.658 86.3311 314.012C87.9629 313.332 89.7308 312.992 91.6346 312.992C93.5384 312.992 95.3062 313.332 96.9381 314.012C98.5699 314.658 99.9638 315.576 101.12 316.766C102.31 317.922 103.228 319.316 103.873 320.948C104.553 322.58 104.893 324.347 104.893 326.251C104.893 328.155 104.553 329.923 103.873 331.555C103.228 333.187 102.31 334.597 101.12 335.787C99.9638 336.943 98.5699 337.861 96.9381 338.541C95.3062 339.187 93.5384 339.51 91.6346 339.51ZM91.6346 335.685C92.9605 335.685 94.1843 335.464 95.3062 335.022C96.4281 334.546 97.397 333.9 98.213 333.085C99.0289 332.235 99.6578 331.232 100.1 330.076C100.576 328.92 100.814 327.645 100.814 326.251C100.814 324.857 100.576 323.582 100.1 322.427C99.6578 321.271 99.0289 320.285 98.213 319.469C97.397 318.619 96.4281 317.973 95.3062 317.531C94.1843 317.055 92.9605 316.817 91.6346 316.817C90.3087 316.817 89.0848 317.055 87.9629 317.531C86.841 317.973 85.8721 318.619 85.0562 319.469C84.2403 320.285 83.5943 321.271 83.1184 322.427C82.6764 323.582 82.4554 324.857 82.4554 326.251C82.4554 327.645 82.6764 328.92 83.1184 330.076C83.5943 331.232 84.2403 332.235 85.0562 333.085C85.8721 333.9 86.841 334.546 87.9629 335.022C89.0848 335.464 90.3087 335.685 91.6346 335.685ZM123.997 339.51C122.161 339.51 120.461 339.204 118.897 338.592C117.367 337.946 116.058 337.028 114.97 335.838C113.883 334.614 113.033 333.119 112.421 331.351C111.809 329.583 111.503 327.543 111.503 325.231C111.503 321.288 111.877 317.922 112.625 315.134C113.373 312.346 114.461 310.086 115.888 308.352C117.316 306.584 119.067 305.309 121.141 304.527C123.249 303.711 125.645 303.303 128.331 303.303H134.451V307.638H128.331C126.291 307.638 124.524 307.876 123.028 308.352C121.532 308.794 120.274 309.508 119.254 310.494C118.234 311.446 117.418 312.686 116.806 314.216C116.228 315.712 115.82 317.514 115.582 319.622H115.633C116.143 318.874 116.823 318.194 117.673 317.582C118.387 317.072 119.288 316.613 120.376 316.205C121.498 315.763 122.875 315.542 124.507 315.542C126.24 315.542 127.838 315.848 129.3 316.46C130.762 317.038 132.02 317.871 133.074 318.959C134.162 320.013 134.995 321.271 135.573 322.733C136.185 324.194 136.49 325.792 136.49 327.526C136.49 329.26 136.185 330.858 135.573 332.32C134.961 333.781 134.111 335.056 133.023 336.144C131.935 337.198 130.609 338.031 129.045 338.643C127.515 339.221 125.832 339.51 123.997 339.51ZM123.997 335.685C125.221 335.685 126.342 335.481 127.362 335.073C128.382 334.631 129.266 334.053 130.014 333.34C130.762 332.592 131.34 331.725 131.748 330.739C132.19 329.753 132.411 328.682 132.411 327.526C132.411 326.37 132.19 325.299 131.748 324.313C131.34 323.327 130.762 322.478 130.014 321.764C129.266 321.016 128.382 320.438 127.362 320.03C126.342 319.588 125.221 319.367 123.997 319.367C122.773 319.367 121.651 319.588 120.631 320.03C119.611 320.438 118.727 321.016 117.979 321.764C117.231 322.478 116.636 323.327 116.194 324.313C115.786 325.299 115.582 326.37 115.582 327.526C115.582 328.682 115.786 329.753 116.194 330.739C116.636 331.725 117.231 332.592 117.979 333.34C118.727 334.053 119.611 334.631 120.631 335.073C121.651 335.481 122.773 335.685 123.997 335.685ZM155.592 339.51C153.756 339.51 152.039 339.187 150.441 338.541C148.843 337.861 147.467 336.943 146.311 335.787C145.155 334.597 144.237 333.187 143.557 331.555C142.911 329.923 142.588 328.155 142.588 326.251C142.588 324.347 142.911 322.58 143.557 320.948C144.237 319.316 145.155 317.922 146.311 316.766C147.467 315.576 148.843 314.658 150.441 314.012C152.039 313.332 153.756 312.992 155.592 312.992C157.428 312.992 159.144 313.332 160.742 314.012C162.34 314.658 163.717 315.559 164.873 316.715C166.029 317.871 166.93 319.248 167.576 320.846C168.256 322.444 168.596 324.16 168.596 325.996V327.526H146.668C146.804 328.716 147.127 329.821 147.637 330.841C148.146 331.827 148.792 332.677 149.574 333.391C150.356 334.104 151.257 334.665 152.277 335.073C153.331 335.481 154.436 335.685 155.592 335.685C157.122 335.685 158.414 335.447 159.467 334.971C160.521 334.495 161.388 333.968 162.068 333.391C162.85 332.745 163.496 331.98 164.006 331.096H168.086C167.474 332.694 166.607 334.104 165.485 335.328C164.499 336.382 163.207 337.351 161.609 338.235C160.011 339.085 158.006 339.51 155.592 339.51ZM164.261 323.956C164.125 323.004 163.819 322.104 163.343 321.254C162.901 320.37 162.306 319.605 161.558 318.959C160.81 318.313 159.926 317.803 158.906 317.429C157.921 317.021 156.816 316.817 155.592 316.817C154.368 316.817 153.246 317.021 152.226 317.429C151.24 317.803 150.356 318.313 149.574 318.959C148.826 319.605 148.214 320.37 147.739 321.254C147.263 322.104 146.94 323.004 146.77 323.956H164.261ZM176.747 313.502H180.826V317.582H180.877C180.877 317.582 181.03 317.344 181.336 316.868C181.676 316.358 182.203 315.831 182.917 315.287C183.665 314.709 184.617 314.182 185.773 313.706C186.929 313.23 188.34 312.992 190.006 312.992C191.671 312.992 193.235 313.332 194.697 314.012C196.193 314.658 197.502 315.576 198.624 316.766C199.746 317.922 200.63 319.316 201.276 320.948C201.922 322.58 202.244 324.347 202.244 326.251C202.244 328.155 201.922 329.923 201.276 331.555C200.63 333.187 199.746 334.597 198.624 335.787C197.502 336.943 196.193 337.861 194.697 338.541C193.235 339.187 191.671 339.51 190.006 339.51C188.34 339.51 186.929 339.272 185.773 338.796C184.617 338.32 183.665 337.81 182.917 337.266C182.203 336.688 181.676 336.161 181.336 335.685C181.03 335.175 180.877 334.92 180.877 334.92H180.826V348.689H176.747V313.502ZM189.496 335.685C190.72 335.685 191.858 335.464 192.912 335.022C193.966 334.546 194.884 333.9 195.666 333.085C196.448 332.235 197.06 331.232 197.502 330.076C197.944 328.92 198.165 327.645 198.165 326.251C198.165 324.857 197.944 323.582 197.502 322.427C197.06 321.271 196.448 320.285 195.666 319.469C194.884 318.619 193.966 317.973 192.912 317.531C191.858 317.055 190.72 316.817 189.496 316.817C188.272 316.817 187.133 317.055 186.079 317.531C185.025 317.973 184.107 318.619 183.325 319.469C182.543 320.285 181.931 321.271 181.489 322.427C181.047 323.582 180.826 324.857 180.826 326.251C180.826 327.645 181.047 328.92 181.489 330.076C181.931 331.232 182.543 332.235 183.325 333.085C184.107 333.9 185.025 334.546 186.079 335.022C187.133 335.464 188.272 335.685 189.496 335.685ZM210.422 313.502H214.501V332.626L214.45 333.136H214.552L228.27 313.502H232.86V339H228.78V319.877L228.831 319.367H228.729L215.011 339H210.422V313.502ZM253.772 339.51C251.97 339.51 250.287 339.187 248.723 338.541C247.193 337.861 245.85 336.943 244.694 335.787C243.573 334.597 242.672 333.187 241.992 331.555C241.346 329.923 241.023 328.155 241.023 326.251C241.023 324.347 241.346 322.58 241.992 320.948C242.672 319.316 243.573 317.922 244.694 316.766C245.85 315.576 247.193 314.658 248.723 314.012C250.287 313.332 251.97 312.992 253.772 312.992C255.029 312.992 256.168 313.128 257.188 313.4C258.242 313.638 259.177 313.978 259.993 314.42C260.809 314.828 261.523 315.304 262.135 315.848C262.747 316.392 263.274 316.936 263.716 317.48C264.77 318.806 265.535 320.285 266.01 321.917H261.931C261.523 320.965 260.962 320.115 260.248 319.367C259.636 318.721 258.803 318.143 257.749 317.633C256.695 317.089 255.369 316.817 253.772 316.817C252.548 316.817 251.409 317.055 250.355 317.531C249.301 317.973 248.383 318.619 247.601 319.469C246.819 320.285 246.207 321.271 245.765 322.427C245.323 323.582 245.102 324.857 245.102 326.251C245.102 327.679 245.34 328.971 245.816 330.127C246.292 331.283 246.921 332.269 247.703 333.085C248.485 333.9 249.403 334.546 250.457 335.022C251.511 335.464 252.616 335.685 253.772 335.685C255.437 335.685 256.797 335.396 257.851 334.818C258.939 334.24 259.806 333.595 260.452 332.881C261.2 332.065 261.778 331.13 262.186 330.076H266.265C265.789 331.878 265.008 333.459 263.92 334.818C263.444 335.396 262.9 335.974 262.288 336.552C261.676 337.096 260.945 337.589 260.095 338.031C259.279 338.473 258.344 338.83 257.29 339.102C256.236 339.374 255.063 339.51 253.772 339.51ZM273.937 313.502H278.016V322.172H285.156C286.617 322.172 287.943 322.393 289.133 322.835C290.323 323.276 291.343 323.888 292.193 324.67C293.043 325.418 293.689 326.302 294.131 327.322C294.607 328.342 294.845 329.43 294.845 330.586C294.845 331.742 294.607 332.83 294.131 333.849C293.689 334.869 293.043 335.77 292.193 336.552C291.343 337.3 290.323 337.895 289.133 338.337C287.943 338.779 286.617 339 285.156 339H273.937V313.502ZM285.156 335.175C286.957 335.175 288.334 334.733 289.286 333.849C290.272 332.966 290.765 331.878 290.765 330.586C290.765 329.294 290.272 328.206 289.286 327.322C288.334 326.438 286.957 325.996 285.156 325.996H278.016V335.175H285.156ZM301.723 323.446H330.28V327.271H301.723V323.446ZM350.918 339.255C349.014 339.119 347.246 338.694 345.614 337.98C343.982 337.266 342.571 336.331 341.381 335.175C340.226 333.985 339.308 332.643 338.628 331.147C337.982 329.617 337.659 327.985 337.659 326.251C337.659 324.517 337.982 322.902 338.628 321.407C339.308 319.877 340.226 318.534 341.381 317.378C342.571 316.188 343.982 315.236 345.614 314.522C347.246 313.808 349.014 313.383 350.918 313.247V303.303H354.997V313.247C356.901 313.383 358.669 313.808 360.301 314.522C361.933 315.236 363.326 316.188 364.482 317.378C365.672 318.534 366.59 319.877 367.236 321.407C367.916 322.902 368.256 324.517 368.256 326.251C368.256 327.985 367.916 329.617 367.236 331.147C366.59 332.643 365.672 333.985 364.482 335.175C363.326 336.331 361.933 337.266 360.301 337.98C358.669 338.694 356.901 339.119 354.997 339.255V348.689H350.918V339.255ZM350.918 317.072C349.592 317.14 348.368 317.412 347.246 317.888C346.124 318.364 345.155 319.01 344.339 319.826C343.523 320.642 342.877 321.611 342.401 322.733C341.959 323.82 341.738 324.993 341.738 326.251C341.738 327.543 341.959 328.733 342.401 329.821C342.877 330.909 343.523 331.861 344.339 332.677C345.155 333.493 346.124 334.138 347.246 334.614C348.368 335.09 349.592 335.362 350.918 335.43V317.072ZM354.997 335.43C356.323 335.362 357.547 335.09 358.669 334.614C359.791 334.138 360.76 333.493 361.576 332.677C362.391 331.861 363.02 330.909 363.462 329.821C363.938 328.733 364.176 327.543 364.176 326.251C364.176 324.993 363.938 323.82 363.462 322.733C363.02 321.611 362.391 320.642 361.576 319.826C360.76 319.01 359.791 318.364 358.669 317.888C357.547 317.412 356.323 317.14 354.997 317.072V335.43ZM387.63 339.51C385.794 339.51 384.077 339.187 382.48 338.541C380.882 337.861 379.505 336.943 378.349 335.787C377.193 334.597 376.275 333.187 375.595 331.555C374.949 329.923 374.626 328.155 374.626 326.251C374.626 324.347 374.949 322.58 375.595 320.948C376.275 319.316 377.193 317.922 378.349 316.766C379.505 315.576 380.882 314.658 382.48 314.012C384.077 313.332 385.794 312.992 387.63 312.992C389.466 312.992 391.183 313.332 392.781 314.012C394.379 314.658 395.755 315.559 396.911 316.715C398.067 317.871 398.968 319.248 399.614 320.846C400.294 322.444 400.634 324.16 400.634 325.996V327.526H378.706C378.842 328.716 379.165 329.821 379.675 330.841C380.185 331.827 380.831 332.677 381.613 333.391C382.395 334.104 383.296 334.665 384.315 335.073C385.369 335.481 386.474 335.685 387.63 335.685C389.16 335.685 390.452 335.447 391.506 334.971C392.56 334.495 393.427 333.968 394.107 333.391C394.888 332.745 395.534 331.98 396.044 331.096H400.124C399.512 332.694 398.645 334.104 397.523 335.328C396.537 336.382 395.245 337.351 393.648 338.235C392.05 339.085 390.044 339.51 387.63 339.51ZM396.299 323.956C396.163 323.004 395.857 322.104 395.381 321.254C394.939 320.37 394.345 319.605 393.597 318.959C392.849 318.313 391.965 317.803 390.945 317.429C389.959 317.021 388.854 316.817 387.63 316.817C386.406 316.817 385.284 317.021 384.264 317.429C383.279 317.803 382.395 318.313 381.613 318.959C380.865 319.605 380.253 320.37 379.777 321.254C379.301 322.104 378.978 323.004 378.808 323.956H396.299ZM420.004 339.51C418.202 339.51 416.519 339.187 414.956 338.541C413.426 337.861 412.083 336.943 410.927 335.787C409.805 334.597 408.904 333.187 408.224 331.555C407.578 329.923 407.255 328.155 407.255 326.251C407.255 324.347 407.578 322.58 408.224 320.948C408.904 319.316 409.805 317.922 410.927 316.766C412.083 315.576 413.426 314.658 414.956 314.012C416.519 313.332 418.202 312.992 420.004 312.992C421.262 312.992 422.401 313.128 423.421 313.4C424.475 313.638 425.41 313.978 426.226 314.42C427.042 314.828 427.755 315.304 428.367 315.848C428.979 316.392 429.506 316.936 429.948 317.48C431.002 318.806 431.767 320.285 432.243 321.917H428.163C427.755 320.965 427.195 320.115 426.481 319.367C425.869 318.721 425.036 318.143 423.982 317.633C422.928 317.089 421.602 316.817 420.004 316.817C418.78 316.817 417.641 317.055 416.587 317.531C415.534 317.973 414.616 318.619 413.834 319.469C413.052 320.285 412.44 321.271 411.998 322.427C411.556 323.582 411.335 324.857 411.335 326.251C411.335 327.679 411.573 328.971 412.049 330.127C412.525 331.283 413.154 332.269 413.936 333.085C414.718 333.9 415.636 334.546 416.689 335.022C417.743 335.464 418.848 335.685 420.004 335.685C421.67 335.685 423.03 335.396 424.084 334.818C425.172 334.24 426.039 333.595 426.685 332.881C427.432 332.065 428.01 331.13 428.418 330.076H432.498C432.022 331.878 431.24 333.459 430.152 334.818C429.676 335.396 429.132 335.974 428.52 336.552C427.908 337.096 427.178 337.589 426.328 338.031C425.512 338.473 424.577 338.83 423.523 339.102C422.469 339.374 421.296 339.51 420.004 339.51ZM445.779 317.327H436.855V313.502H458.782V317.327H449.858V339H445.779V317.327ZM465.179 313.502H469.258V332.626L469.207 333.136H469.309L483.027 313.502H487.617V339H483.537V319.877L483.588 319.367H483.486L469.768 339H465.179V313.502ZM497.31 313.502H509.804C512.251 313.502 514.138 314.114 515.464 315.338C516.79 316.562 517.453 318.075 517.453 319.877C517.453 321.033 517.266 321.968 516.892 322.682C516.552 323.395 516.144 323.956 515.668 324.364C515.226 324.772 514.801 325.061 514.393 325.231C513.985 325.367 513.73 325.435 513.628 325.435V325.486C513.696 325.486 513.985 325.571 514.495 325.741C515.005 325.877 515.549 326.166 516.127 326.608C516.739 327.05 517.283 327.679 517.759 328.495C518.235 329.277 518.473 330.314 518.473 331.606C518.473 333.781 517.725 335.566 516.229 336.96C514.767 338.32 512.642 339 509.855 339H497.31V313.502ZM509.804 335.175C511.334 335.175 512.472 334.835 513.22 334.155C514.002 333.442 514.393 332.507 514.393 331.351C514.393 330.195 514.002 329.277 513.22 328.597C512.472 327.883 511.334 327.526 509.804 327.526H501.389V335.175H509.804ZM509.549 323.956C510.841 323.956 511.792 323.667 512.404 323.089C513.05 322.478 513.373 321.662 513.373 320.642C513.373 319.622 513.05 318.823 512.404 318.245C511.792 317.633 510.841 317.327 509.549 317.327H501.389V323.956H509.549ZM537.361 339.51C535.695 339.51 534.114 339.187 532.618 338.541C531.157 337.861 529.865 336.943 528.743 335.787C527.621 334.597 526.737 333.187 526.091 331.555C525.445 329.923 525.122 328.155 525.122 326.251C525.122 324.347 525.445 322.58 526.091 320.948C526.737 319.316 527.621 317.922 528.743 316.766C529.865 315.576 531.157 314.658 532.618 314.012C534.114 313.332 535.695 312.992 537.361 312.992C539.027 312.992 540.438 313.23 541.594 313.706C542.75 314.182 543.684 314.709 544.398 315.287C545.146 315.865 545.673 316.409 545.979 316.919C546.319 317.395 546.489 317.633 546.489 317.633H546.54V313.502H550.62V339H546.54V334.92H546.489C546.489 334.92 546.319 335.175 545.979 335.685C545.673 336.161 545.146 336.688 544.398 337.266C543.684 337.81 542.75 338.32 541.594 338.796C540.438 339.272 539.027 339.51 537.361 339.51ZM537.871 335.685C539.095 335.685 540.234 335.464 541.288 335.022C542.342 334.546 543.259 333.9 544.041 333.085C544.823 332.235 545.435 331.232 545.877 330.076C546.319 328.92 546.54 327.645 546.54 326.251C546.54 324.857 546.319 323.582 545.877 322.427C545.435 321.271 544.823 320.285 544.041 319.469C543.259 318.619 542.342 317.973 541.288 317.531C540.234 317.055 539.095 316.817 537.871 316.817C536.647 316.817 535.508 317.055 534.454 317.531C533.4 317.973 532.482 318.619 531.701 319.469C530.919 320.285 530.307 321.271 529.865 322.427C529.423 323.582 529.202 324.857 529.202 326.251C529.202 327.645 529.423 328.92 529.865 330.076C530.307 331.232 530.919 332.235 531.701 333.085C532.482 333.9 533.4 334.546 534.454 335.022C535.508 335.464 536.647 335.685 537.871 335.685ZM564.406 313.502H575.115L582.255 339H577.92L572.056 317.327H567.466L561.602 339H557.267L564.406 313.502ZM588.872 313.502H592.952V322.172H600.091C601.553 322.172 602.879 322.393 604.069 322.835C605.259 323.276 606.279 323.888 607.128 324.67C607.978 325.418 608.624 326.302 609.066 327.322C609.542 328.342 609.78 329.43 609.78 330.586C609.78 331.742 609.542 332.83 609.066 333.849C608.624 334.869 607.978 335.77 607.128 336.552C606.279 337.3 605.259 337.895 604.069 338.337C602.879 338.779 601.553 339 600.091 339H588.872V313.502ZM600.091 335.175C601.893 335.175 603.27 334.733 604.222 333.849C605.208 332.966 605.701 331.878 605.701 330.586C605.701 329.294 605.208 328.206 604.222 327.322C603.27 326.438 601.893 325.996 600.091 325.996H592.952V335.175H600.091ZM645.23 339.51C643.428 339.51 641.745 339.187 640.181 338.541C638.652 337.861 637.309 336.943 636.153 335.787C635.031 334.597 634.13 333.187 633.45 331.555C632.804 329.923 632.481 328.155 632.481 326.251C632.481 324.347 632.804 322.58 633.45 320.948C634.13 319.316 635.031 317.922 636.153 316.766C637.309 315.576 638.652 314.658 640.181 314.012C641.745 313.332 643.428 312.992 645.23 312.992C646.488 312.992 647.627 313.128 648.647 313.4C649.7 313.638 650.635 313.978 651.451 314.42C652.267 314.828 652.981 315.304 653.593 315.848C654.205 316.392 654.732 316.936 655.174 317.48C656.228 318.806 656.993 320.285 657.469 321.917H653.389C652.981 320.965 652.42 320.115 651.706 319.367C651.094 318.721 650.261 318.143 649.208 317.633C648.154 317.089 646.828 316.817 645.23 316.817C644.006 316.817 642.867 317.055 641.813 317.531C640.759 317.973 639.841 318.619 639.059 319.469C638.278 320.285 637.666 321.271 637.224 322.427C636.782 323.582 636.561 324.857 636.561 326.251C636.561 327.679 636.799 328.971 637.275 330.127C637.751 331.283 638.38 332.269 639.161 333.085C639.943 333.9 640.861 334.546 641.915 335.022C642.969 335.464 644.074 335.685 645.23 335.685C646.896 335.685 648.256 335.396 649.31 334.818C650.397 334.24 651.264 333.595 651.91 332.881C652.658 332.065 653.236 331.13 653.644 330.076H657.724C657.248 331.878 656.466 333.459 655.378 334.818C654.902 335.396 654.358 335.974 653.746 336.552C653.134 337.096 652.403 337.589 651.553 338.031C650.737 338.473 649.802 338.83 648.749 339.102C647.695 339.374 646.522 339.51 645.23 339.51ZM665.395 313.502H671.514L679.164 329.311H680.439L688.088 313.502H694.207V339H690.128V318.602L690.179 318.092H690.077L682.478 333.9H677.124L669.526 318.092H669.424L669.475 318.602V339H665.395V313.502ZM715.374 339.51C713.538 339.51 711.822 339.187 710.224 338.541C708.626 337.861 707.249 336.943 706.093 335.787C704.937 334.597 704.019 333.187 703.339 331.555C702.693 329.923 702.37 328.155 702.37 326.251C702.37 324.347 702.693 322.58 703.339 320.948C704.019 319.316 704.937 317.922 706.093 316.766C707.249 315.576 708.626 314.658 710.224 314.012C711.822 313.332 713.538 312.992 715.374 312.992C717.21 312.992 718.927 313.332 720.525 314.012C722.123 314.658 723.5 315.559 724.655 316.715C725.811 317.871 726.712 319.248 727.358 320.846C728.038 322.444 728.378 324.16 728.378 325.996V327.526H706.45C706.586 328.716 706.909 329.821 707.419 330.841C707.929 331.827 708.575 332.677 709.357 333.391C710.139 334.104 711.04 334.665 712.06 335.073C713.113 335.481 714.218 335.685 715.374 335.685C716.904 335.685 718.196 335.447 719.25 334.971C720.304 334.495 721.171 333.968 721.851 333.391C722.633 332.745 723.279 331.98 723.789 331.096H727.868C727.256 332.694 726.389 334.104 725.267 335.328C724.281 336.382 722.99 337.351 721.392 338.235C719.794 339.085 717.788 339.51 715.374 339.51ZM724.043 323.956C723.907 323.004 723.602 322.104 723.126 321.254C722.684 320.37 722.089 319.605 721.341 318.959C720.593 318.313 719.709 317.803 718.689 317.429C717.703 317.021 716.598 316.817 715.374 316.817C714.15 316.817 713.029 317.021 712.009 317.429C711.023 317.803 710.139 318.313 709.357 318.959C708.609 319.605 707.997 320.37 707.521 321.254C707.045 322.104 706.722 323.004 706.552 323.956H724.043ZM736.529 313.502H740.609V323.956H754.888V313.502H758.967V339H754.888V327.781H740.609V339H736.529V313.502ZM768.66 313.502H772.74V322.172H778.859C780.321 322.172 781.647 322.393 782.837 322.835C784.027 323.276 785.047 323.888 785.897 324.67C786.747 325.418 787.393 326.302 787.835 327.322C788.31 328.342 788.548 329.43 788.548 330.586C788.548 331.742 788.31 332.83 787.835 333.849C787.393 334.869 786.747 335.77 785.897 336.552C785.047 337.3 784.027 337.895 782.837 338.337C781.647 338.779 780.321 339 778.859 339H768.66V313.502ZM778.859 335.175C780.661 335.175 782.038 334.733 782.99 333.849C783.976 332.966 784.469 331.878 784.469 330.586C784.469 329.294 783.976 328.206 782.99 327.322C782.038 326.438 780.661 325.996 778.859 325.996H772.74V335.175H778.859ZM791.863 313.502H795.943V339H791.863V313.502ZM826.544 313.502H837.253L844.392 339H840.058L834.193 317.327H829.604L823.739 339H819.405L826.544 313.502ZM851.01 313.502H855.089V332.626L855.038 333.136H855.14L868.858 313.502H873.448V339H869.368V319.877L869.419 319.367H869.317L855.599 339H851.01V313.502ZM899.459 329.566C898.915 329.94 898.286 330.28 897.572 330.586C896.96 330.858 896.178 331.096 895.227 331.3C894.309 331.504 893.255 331.606 892.065 331.606C888.971 331.606 886.574 330.807 884.875 329.209C883.209 327.577 882.376 325.401 882.376 322.682V313.502H886.455V322.427C886.455 324.092 886.948 325.401 887.934 326.353C888.92 327.305 890.382 327.781 892.32 327.781C893.476 327.781 894.496 327.696 895.38 327.526C896.263 327.356 897.011 327.152 897.623 326.914C898.337 326.642 898.949 326.336 899.459 325.996V313.502H903.539V339H899.459V329.566ZM913.23 313.502H917.31V323.956H931.588V313.502H935.668V339H931.588V327.781H917.31V339H913.23V313.502ZM957.09 339.51C955.186 339.51 953.418 339.187 951.786 338.541C950.154 337.861 948.744 336.943 947.554 335.787C946.398 334.597 945.48 333.187 944.8 331.555C944.154 329.923 943.831 328.155 943.831 326.251C943.831 324.347 944.154 322.58 944.8 320.948C945.48 319.316 946.398 317.922 947.554 316.766C948.744 315.576 950.154 314.658 951.786 314.012C953.418 313.332 955.186 312.992 957.09 312.992C958.994 312.992 960.761 313.332 962.393 314.012C964.025 314.658 965.419 315.576 966.575 316.766C967.765 317.922 968.683 319.316 969.329 320.948C970.009 322.58 970.349 324.347 970.349 326.251C970.349 328.155 970.009 329.923 969.329 331.555C968.683 333.187 967.765 334.597 966.575 335.787C965.419 336.943 964.025 337.861 962.393 338.541C960.761 339.187 958.994 339.51 957.09 339.51ZM957.09 335.685C958.416 335.685 959.64 335.464 960.761 335.022C961.883 334.546 962.852 333.9 963.668 333.085C964.484 332.235 965.113 331.232 965.555 330.076C966.031 328.92 966.269 327.645 966.269 326.251C966.269 324.857 966.031 323.582 965.555 322.427C965.113 321.271 964.484 320.285 963.668 319.469C962.852 318.619 961.883 317.973 960.761 317.531C959.64 317.055 958.416 316.817 957.09 316.817C955.764 316.817 954.54 317.055 953.418 317.531C952.296 317.973 951.327 318.619 950.511 319.469C949.695 320.285 949.05 321.271 948.574 322.427C948.132 323.582 947.911 324.857 947.911 326.251C947.911 327.645 948.132 328.92 948.574 330.076C949.05 331.232 949.695 332.235 950.511 333.085C951.327 333.9 952.296 334.546 953.418 335.022C954.54 335.464 955.764 335.685 957.09 335.685ZM989.707 339.51C987.905 339.51 986.222 339.187 984.658 338.541C983.128 337.861 981.786 336.943 980.63 335.787C979.508 334.597 978.607 333.187 977.927 331.555C977.281 329.923 976.958 328.155 976.958 326.251C976.958 324.347 977.281 322.58 977.927 320.948C978.607 319.316 979.508 317.922 980.63 316.766C981.786 315.576 983.128 314.658 984.658 314.012C986.222 313.332 987.905 312.992 989.707 312.992C990.965 312.992 992.104 313.128 993.124 313.4C994.177 313.638 995.112 313.978 995.928 314.42C996.744 314.828 997.458 315.304 998.07 315.848C998.682 316.392 999.209 316.936 999.651 317.48C1000.7 318.806 1001.47 320.285 1001.95 321.917H997.866C997.458 320.965 996.897 320.115 996.183 319.367C995.571 318.721 994.738 318.143 993.684 317.633C992.631 317.089 991.305 316.817 989.707 316.817C988.483 316.817 987.344 317.055 986.29 317.531C985.236 317.973 984.318 318.619 983.536 319.469C982.754 320.285 982.143 321.271 981.701 322.427C981.259 323.582 981.038 324.857 981.038 326.251C981.038 327.679 981.276 328.971 981.752 330.127C982.228 331.283 982.856 332.269 983.638 333.085C984.42 333.9 985.338 334.546 986.392 335.022C987.446 335.464 988.551 335.685 989.707 335.685C991.373 335.685 992.733 335.396 993.786 334.818C994.874 334.24 995.741 333.595 996.387 332.881C997.135 332.065 997.713 331.13 998.121 330.076H1002.2C1001.72 331.878 1000.94 333.459 999.855 334.818C999.379 335.396 998.835 335.974 998.223 336.552C997.611 337.096 996.88 337.589 996.03 338.031C995.214 338.473 994.279 338.83 993.226 339.102C992.172 339.374 990.999 339.51 989.707 339.51ZM1015.48 317.327H1006.56V313.502H1028.49V317.327H1019.56V339H1015.48V317.327ZM1034.88 313.502H1038.96V332.626L1038.91 333.136H1039.01L1052.73 313.502H1057.32V339H1053.24V319.877L1053.29 319.367H1053.19L1039.47 339H1034.88V313.502ZM1065.99 343.335C1068.03 343.097 1069.05 341.992 1069.05 340.02V339.255C1068.98 339.323 1068.88 339.374 1068.75 339.408C1068.47 339.476 1068.24 339.51 1068.03 339.51C1067.39 339.51 1066.84 339.272 1066.4 338.796C1065.96 338.32 1065.74 337.674 1065.74 336.858C1065.74 335.872 1066.03 335.09 1066.6 334.512C1067.18 333.934 1067.91 333.645 1068.8 333.645C1069.68 333.645 1070.41 334.002 1070.99 334.716C1071.57 335.396 1071.86 336.569 1071.86 338.235C1071.86 340.547 1071.33 342.281 1070.28 343.437C1069.22 344.592 1067.79 345.238 1065.99 345.374V343.335ZM1097.11 313.502H1114.71V317.327H1101.19V339H1097.11V313.502ZM1117.01 335.175H1119.82L1125.68 313.502H1136.39L1142.26 335.175H1145.06V344.864H1140.98V339H1121.09V344.864H1117.01V335.175ZM1138.18 335.175L1133.33 317.327H1128.74L1123.9 335.175H1138.18ZM1162.89 339.51C1161.05 339.51 1159.33 339.187 1157.74 338.541C1156.14 337.861 1154.76 336.943 1153.61 335.787C1152.45 334.597 1151.53 333.187 1150.85 331.555C1150.21 329.923 1149.88 328.155 1149.88 326.251C1149.88 324.347 1150.21 322.58 1150.85 320.948C1151.53 319.316 1152.45 317.922 1153.61 316.766C1154.76 315.576 1156.14 314.658 1157.74 314.012C1159.33 313.332 1161.05 312.992 1162.89 312.992C1164.72 312.992 1166.44 313.332 1168.04 314.012C1169.64 314.658 1171.01 315.559 1172.17 316.715C1173.32 317.871 1174.23 319.248 1174.87 320.846C1175.55 322.444 1175.89 324.16 1175.89 325.996V327.526H1153.96C1154.1 328.716 1154.42 329.821 1154.93 330.841C1155.44 331.827 1156.09 332.677 1156.87 333.391C1157.65 334.104 1158.55 334.665 1159.57 335.073C1160.63 335.481 1161.73 335.685 1162.89 335.685C1164.42 335.685 1165.71 335.447 1166.76 334.971C1167.82 334.495 1168.68 333.968 1169.36 333.391C1170.15 332.745 1170.79 331.98 1171.3 331.096H1175.38C1174.77 332.694 1173.9 334.104 1172.78 335.328C1171.79 336.382 1170.5 337.351 1168.9 338.235C1167.31 339.085 1165.3 339.51 1162.89 339.51ZM1171.56 323.956C1171.42 323.004 1171.11 322.104 1170.64 321.254C1170.2 320.37 1169.6 319.605 1168.85 318.959C1168.11 318.313 1167.22 317.803 1166.2 317.429C1165.22 317.021 1164.11 316.817 1162.89 316.817C1161.66 316.817 1160.54 317.021 1159.52 317.429C1158.54 317.803 1157.65 318.313 1156.87 318.959C1156.12 319.605 1155.51 320.37 1155.03 321.254C1154.56 322.104 1154.24 323.004 1154.07 323.956H1171.56ZM1200.88 313.502H1213.38C1215.83 313.502 1217.71 314.114 1219.04 315.338C1220.37 316.562 1221.03 318.075 1221.03 319.877C1221.03 321.033 1220.84 321.968 1220.47 322.682C1220.13 323.395 1219.72 323.956 1219.24 324.364C1218.8 324.772 1218.38 325.061 1217.97 325.231C1217.56 325.367 1217.31 325.435 1217.2 325.435V325.486C1217.27 325.486 1217.56 325.571 1218.07 325.741C1218.58 325.877 1219.12 326.166 1219.7 326.608C1220.31 327.05 1220.86 327.679 1221.33 328.495C1221.81 329.277 1222.05 330.314 1222.05 331.606C1222.05 333.781 1221.3 335.566 1219.8 336.96C1218.34 338.32 1216.22 339 1213.43 339H1200.88V313.502ZM1213.38 335.175C1214.91 335.175 1216.05 334.835 1216.8 334.155C1217.58 333.442 1217.97 332.507 1217.97 331.351C1217.97 330.195 1217.58 329.277 1216.8 328.597C1216.05 327.883 1214.91 327.526 1213.38 327.526H1204.96V335.175H1213.38ZM1213.12 323.956C1214.42 323.956 1215.37 323.667 1215.98 323.089C1216.63 322.478 1216.95 321.662 1216.95 320.642C1216.95 319.622 1216.63 318.823 1215.98 318.245C1215.37 317.633 1214.42 317.327 1213.12 317.327H1204.96V323.956H1213.12ZM1230.23 313.502H1234.31V322.172H1240.43C1241.89 322.172 1243.21 322.393 1244.4 322.835C1245.59 323.276 1246.61 323.888 1247.46 324.67C1248.31 325.418 1248.96 326.302 1249.4 327.322C1249.88 328.342 1250.12 329.43 1250.12 330.586C1250.12 331.742 1249.88 332.83 1249.4 333.849C1248.96 334.869 1248.31 335.77 1247.46 336.552C1246.61 337.3 1245.59 337.895 1244.4 338.337C1243.21 338.779 1241.89 339 1240.43 339H1230.23V313.502ZM1240.43 335.175C1242.23 335.175 1243.6 334.733 1244.56 333.849C1245.54 332.966 1246.04 331.878 1246.04 330.586C1246.04 329.294 1245.54 328.206 1244.56 327.322C1243.6 326.438 1242.23 325.996 1240.43 325.996H1234.31V335.175H1240.43ZM1253.43 313.502H1257.51V339H1253.43V313.502ZM47.7886 422.51C45.9868 422.51 44.3039 422.187 42.7401 421.541C41.2102 420.861 39.8674 419.943 38.7115 418.787C37.5896 417.597 36.6887 416.187 36.0087 414.555C35.3628 412.923 35.0398 411.155 35.0398 409.251C35.0398 407.347 35.3628 405.58 36.0087 403.948C36.6887 402.316 37.5896 400.922 38.7115 399.766C39.8674 398.576 41.2102 397.658 42.7401 397.012C44.3039 396.332 45.9868 395.992 47.7886 395.992C49.0465 395.992 50.1854 396.128 51.2053 396.4C52.2592 396.638 53.1941 396.978 54.01 397.42C54.826 397.828 55.5399 398.304 56.1518 398.848C56.7638 399.392 57.2907 399.936 57.7327 400.48C58.7866 401.806 59.5515 403.285 60.0275 404.917H55.9479C55.5399 403.965 54.979 403.115 54.265 402.367C53.6531 401.721 52.8202 401.143 51.7663 400.633C50.7124 400.089 49.3865 399.817 47.7886 399.817C46.5647 399.817 45.4258 400.055 44.3719 400.531C43.318 400.973 42.4001 401.619 41.6182 402.469C40.8363 403.285 40.2243 404.271 39.7824 405.427C39.3404 406.582 39.1194 407.857 39.1194 409.251C39.1194 410.679 39.3574 411.971 39.8334 413.127C40.3093 414.283 40.9383 415.269 41.7202 416.085C42.5021 416.9 43.42 417.546 44.4739 418.022C45.5278 418.464 46.6327 418.685 47.7886 418.685C49.4545 418.685 50.8143 418.396 51.8682 417.818C52.9561 417.24 53.8231 416.595 54.469 415.881C55.2169 415.065 55.7949 414.13 56.2028 413.076H60.2825C59.8065 414.878 59.0246 416.459 57.9367 417.818C57.4607 418.396 56.9168 418.974 56.3048 419.552C55.6929 420.096 54.962 420.589 54.112 421.031C53.2961 421.473 52.3612 421.83 51.3073 422.102C50.2534 422.374 49.0805 422.51 47.7886 422.51ZM67.9537 396.502H74.0731L81.7224 412.311H82.9973L90.6466 396.502H96.766V422H92.6864V401.602L92.7374 401.092H92.6354L85.0371 416.9H79.6826L72.0843 401.092H71.9823L72.0333 401.602V422H67.9537V396.502ZM118.188 422.51C116.284 422.51 114.516 422.187 112.884 421.541C111.253 420.861 109.842 419.943 108.652 418.787C107.496 417.597 106.578 416.187 105.898 414.555C105.252 412.923 104.929 411.155 104.929 409.251C104.929 407.347 105.252 405.58 105.898 403.948C106.578 402.316 107.496 400.922 108.652 399.766C109.842 398.576 111.253 397.658 112.884 397.012C114.516 396.332 116.284 395.992 118.188 395.992C120.092 395.992 121.86 396.332 123.491 397.012C125.123 397.658 126.517 398.576 127.673 399.766C128.863 400.922 129.781 402.316 130.427 403.948C131.107 405.58 131.447 407.347 131.447 409.251C131.447 411.155 131.107 412.923 130.427 414.555C129.781 416.187 128.863 417.597 127.673 418.787C126.517 419.943 125.123 420.861 123.491 421.541C121.86 422.187 120.092 422.51 118.188 422.51ZM118.188 418.685C119.514 418.685 120.738 418.464 121.86 418.022C122.982 417.546 123.95 416.9 124.766 416.085C125.582 415.235 126.211 414.232 126.653 413.076C127.129 411.92 127.367 410.645 127.367 409.251C127.367 407.857 127.129 406.582 126.653 405.427C126.211 404.271 125.582 403.285 124.766 402.469C123.95 401.619 122.982 400.973 121.86 400.531C120.738 400.055 119.514 399.817 118.188 399.817C116.862 399.817 115.638 400.055 114.516 400.531C113.394 400.973 112.426 401.619 111.61 402.469C110.794 403.285 110.148 404.271 109.672 405.427C109.23 406.582 109.009 407.857 109.009 409.251C109.009 410.645 109.23 411.92 109.672 413.076C110.148 414.232 110.794 415.235 111.61 416.085C112.426 416.9 113.394 417.546 114.516 418.022C115.638 418.464 116.862 418.685 118.188 418.685ZM144.964 408.486L136.04 396.502H140.885L148.534 406.701H152.869V396.502H156.948V406.701H161.283L168.932 396.502H173.777L164.853 408.486L174.542 422H169.442L161.283 410.526H156.948V422H152.869V410.526H148.534L140.375 422H135.275L144.964 408.486ZM191.408 422.51C189.572 422.51 187.855 422.187 186.257 421.541C184.66 420.861 183.283 419.943 182.127 418.787C180.971 417.597 180.053 416.187 179.373 414.555C178.727 412.923 178.404 411.155 178.404 409.251C178.404 407.347 178.727 405.58 179.373 403.948C180.053 402.316 180.971 400.922 182.127 399.766C183.283 398.576 184.66 397.658 186.257 397.012C187.855 396.332 189.572 395.992 191.408 395.992C193.244 395.992 194.961 396.332 196.559 397.012C198.156 397.658 199.533 398.559 200.689 399.715C201.845 400.871 202.746 402.248 203.392 403.846C204.072 405.444 204.412 407.16 204.412 408.996V410.526H182.484C182.62 411.716 182.943 412.821 183.453 413.841C183.963 414.827 184.609 415.677 185.391 416.391C186.172 417.104 187.073 417.665 188.093 418.073C189.147 418.481 190.252 418.685 191.408 418.685C192.938 418.685 194.23 418.447 195.284 417.971C196.338 417.495 197.204 416.968 197.884 416.391C198.666 415.745 199.312 414.98 199.822 414.096H203.902C203.29 415.694 202.423 417.104 201.301 418.328C200.315 419.382 199.023 420.351 197.425 421.235C195.828 422.085 193.822 422.51 191.408 422.51ZM200.077 406.956C199.941 406.004 199.635 405.104 199.159 404.254C198.717 403.37 198.122 402.605 197.374 401.959C196.627 401.313 195.743 400.803 194.723 400.429C193.737 400.021 192.632 399.817 191.408 399.817C190.184 399.817 189.062 400.021 188.042 400.429C187.056 400.803 186.172 401.313 185.391 401.959C184.643 402.605 184.031 403.37 183.555 404.254C183.079 405.104 182.756 406.004 182.586 406.956H200.077ZM218.173 400.327H209.248V396.502H231.176V400.327H222.252V422H218.173V400.327ZM249.047 422.51C247.211 422.51 245.494 422.187 243.896 421.541C242.298 420.861 240.921 419.943 239.765 418.787C238.61 417.597 237.692 416.187 237.012 414.555C236.366 412.923 236.043 411.155 236.043 409.251C236.043 407.347 236.366 405.58 237.012 403.948C237.692 402.316 238.61 400.922 239.765 399.766C240.921 398.576 242.298 397.658 243.896 397.012C245.494 396.332 247.211 395.992 249.047 395.992C250.882 395.992 252.599 396.332 254.197 397.012C255.795 397.658 257.172 398.559 258.328 399.715C259.484 400.871 260.385 402.248 261.03 403.846C261.71 405.444 262.05 407.16 262.05 408.996V410.526H240.122C240.258 411.716 240.581 412.821 241.091 413.841C241.601 414.827 242.247 415.677 243.029 416.391C243.811 417.104 244.712 417.665 245.732 418.073C246.786 418.481 247.891 418.685 249.047 418.685C250.576 418.685 251.868 418.447 252.922 417.971C253.976 417.495 254.843 416.968 255.523 416.391C256.305 415.745 256.951 414.98 257.461 414.096H261.54C260.928 415.694 260.062 417.104 258.94 418.328C257.954 419.382 256.662 420.351 255.064 421.235C253.466 422.085 251.46 422.51 249.047 422.51ZM257.716 406.956C257.58 406.004 257.274 405.104 256.798 404.254C256.356 403.37 255.761 402.605 255.013 401.959C254.265 401.313 253.381 400.803 252.361 400.429C251.375 400.021 250.27 399.817 249.047 399.817C247.823 399.817 246.701 400.021 245.681 400.429C244.695 400.803 243.811 401.313 243.029 401.959C242.281 402.605 241.669 403.37 241.193 404.254C240.717 405.104 240.394 406.004 240.224 406.956H257.716ZM287.044 396.502H299.538C301.986 396.502 303.872 397.114 305.198 398.338C306.524 399.562 307.187 401.075 307.187 402.877C307.187 404.033 307 404.968 306.626 405.682C306.286 406.395 305.878 406.956 305.402 407.364C304.96 407.772 304.535 408.061 304.127 408.231C303.719 408.367 303.464 408.435 303.363 408.435V408.486C303.43 408.486 303.719 408.571 304.229 408.741C304.739 408.877 305.283 409.166 305.861 409.608C306.473 410.05 307.017 410.679 307.493 411.495C307.969 412.277 308.207 413.314 308.207 414.606C308.207 416.781 307.459 418.566 305.963 419.96C304.501 421.32 302.377 422 299.589 422H287.044V396.502ZM299.538 418.175C301.068 418.175 302.207 417.835 302.955 417.155C303.736 416.442 304.127 415.507 304.127 414.351C304.127 413.195 303.736 412.277 302.955 411.597C302.207 410.883 301.068 410.526 299.538 410.526H291.124V418.175H299.538ZM299.283 406.956C300.575 406.956 301.527 406.667 302.139 406.089C302.785 405.478 303.108 404.662 303.108 403.642C303.108 402.622 302.785 401.823 302.139 401.245C301.527 400.633 300.575 400.327 299.283 400.327H291.124V406.956H299.283ZM316.386 396.502H320.466V400.582H320.517C320.517 400.582 320.67 400.344 320.976 399.868C321.316 399.358 321.843 398.831 322.557 398.287C323.305 397.709 324.256 397.182 325.412 396.706C326.568 396.23 327.979 395.992 329.645 395.992C331.311 395.992 332.875 396.332 334.337 397.012C335.832 397.658 337.141 398.576 338.263 399.766C339.385 400.922 340.269 402.316 340.915 403.948C341.561 405.58 341.884 407.347 341.884 409.251C341.884 411.155 341.561 412.923 340.915 414.555C340.269 416.187 339.385 417.597 338.263 418.787C337.141 419.943 335.832 420.861 334.337 421.541C332.875 422.187 331.311 422.51 329.645 422.51C327.979 422.51 326.568 422.272 325.412 421.796C324.256 421.32 323.305 420.81 322.557 420.266C321.843 419.688 321.316 419.161 320.976 418.685C320.67 418.175 320.517 417.92 320.517 417.92H320.466V431.689H316.386V396.502ZM329.135 418.685C330.359 418.685 331.498 418.464 332.552 418.022C333.606 417.546 334.524 416.9 335.305 416.085C336.087 415.235 336.699 414.232 337.141 413.076C337.583 411.92 337.804 410.645 337.804 409.251C337.804 407.857 337.583 406.582 337.141 405.427C336.699 404.271 336.087 403.285 335.305 402.469C334.524 401.619 333.606 400.973 332.552 400.531C331.498 400.055 330.359 399.817 329.135 399.817C327.911 399.817 326.772 400.055 325.718 400.531C324.664 400.973 323.747 401.619 322.965 402.469C322.183 403.285 321.571 404.271 321.129 405.427C320.687 406.582 320.466 407.857 320.466 409.251C320.466 410.645 320.687 411.92 321.129 413.076C321.571 414.232 322.183 415.235 322.965 416.085C323.747 416.9 324.664 417.546 325.718 418.022C326.772 418.464 327.911 418.685 329.135 418.685ZM361.535 422.51C359.699 422.51 357.982 422.187 356.384 421.541C354.787 420.861 353.41 419.943 352.254 418.787C351.098 417.597 350.18 416.187 349.5 414.555C348.854 412.923 348.531 411.155 348.531 409.251C348.531 407.347 348.854 405.58 349.5 403.948C350.18 402.316 351.098 400.922 352.254 399.766C353.41 398.576 354.787 397.658 356.384 397.012C357.982 396.332 359.699 395.992 361.535 395.992C363.371 395.992 365.088 396.332 366.685 397.012C368.283 397.658 369.66 398.559 370.816 399.715C371.972 400.871 372.873 402.248 373.519 403.846C374.199 405.444 374.539 407.16 374.539 408.996V410.526H352.611C352.747 411.716 353.07 412.821 353.58 413.841C354.09 414.827 354.736 415.677 355.517 416.391C356.299 417.104 357.2 417.665 358.22 418.073C359.274 418.481 360.379 418.685 361.535 418.685C363.065 418.685 364.357 418.447 365.411 417.971C366.464 417.495 367.331 416.968 368.011 416.391C368.793 415.745 369.439 414.98 369.949 414.096H374.029C373.417 415.694 372.55 417.104 371.428 418.328C370.442 419.382 369.15 420.351 367.552 421.235C365.955 422.085 363.949 422.51 361.535 422.51ZM370.204 406.956C370.068 406.004 369.762 405.104 369.286 404.254C368.844 403.37 368.249 402.605 367.501 401.959C366.753 401.313 365.87 400.803 364.85 400.429C363.864 400.021 362.759 399.817 361.535 399.817C360.311 399.817 359.189 400.021 358.169 400.429C357.183 400.803 356.299 401.313 355.517 401.959C354.77 402.605 354.158 403.37 353.682 404.254C353.206 405.104 352.883 406.004 352.713 406.956H370.204ZM382.69 396.502H388.809L396.459 412.311H397.734L405.383 396.502H411.502V422H407.423V401.602L407.474 401.092H407.372L399.773 416.9H394.419L386.821 401.092H386.719L386.77 401.602V422H382.69V396.502ZM432.669 422.51C430.834 422.51 429.117 422.187 427.519 421.541C425.921 420.861 424.544 419.943 423.388 418.787C422.232 417.597 421.314 416.187 420.634 414.555C419.989 412.923 419.666 411.155 419.666 409.251C419.666 407.347 419.989 405.58 420.634 403.948C421.314 402.316 422.232 400.922 423.388 399.766C424.544 398.576 425.921 397.658 427.519 397.012C429.117 396.332 430.834 395.992 432.669 395.992C434.505 395.992 436.222 396.332 437.82 397.012C439.418 397.658 440.795 398.559 441.95 399.715C443.106 400.871 444.007 402.248 444.653 403.846C445.333 405.444 445.673 407.16 445.673 408.996V410.526H423.745C423.881 411.716 424.204 412.821 424.714 413.841C425.224 414.827 425.87 415.677 426.652 416.391C427.434 417.104 428.335 417.665 429.355 418.073C430.409 418.481 431.513 418.685 432.669 418.685C434.199 418.685 435.491 418.447 436.545 417.971C437.599 417.495 438.466 416.968 439.146 416.391C439.928 415.745 440.574 414.98 441.084 414.096H445.163C444.551 415.694 443.684 417.104 442.562 418.328C441.577 419.382 440.285 420.351 438.687 421.235C437.089 422.085 435.083 422.51 432.669 422.51ZM441.339 406.956C441.203 406.004 440.897 405.104 440.421 404.254C439.979 403.37 439.384 402.605 438.636 401.959C437.888 401.313 437.004 400.803 435.984 400.429C434.998 400.021 433.893 399.817 432.669 399.817C431.445 399.817 430.324 400.021 429.304 400.429C428.318 400.803 427.434 401.313 426.652 401.959C425.904 402.605 425.292 403.37 424.816 404.254C424.34 405.104 424.017 406.004 423.847 406.956H441.339ZM453.824 396.502H457.904V406.956H472.183V396.502H476.262V422H472.183V410.781H457.904V422H453.824V396.502ZM485.955 396.502H490.035V406.956H504.314V396.502H508.393V422H504.314V410.781H490.035V422H485.955V396.502ZM529.815 422.51C527.911 422.51 526.144 422.187 524.512 421.541C522.88 420.861 521.469 419.943 520.279 418.787C519.123 417.597 518.205 416.187 517.525 414.555C516.88 412.923 516.557 411.155 516.557 409.251C516.557 407.347 516.88 405.58 517.525 403.948C518.205 402.316 519.123 400.922 520.279 399.766C521.469 398.576 522.88 397.658 524.512 397.012C526.144 396.332 527.911 395.992 529.815 395.992C531.719 395.992 533.487 396.332 535.119 397.012C536.751 397.658 538.145 398.576 539.3 399.766C540.49 400.922 541.408 402.316 542.054 403.948C542.734 405.58 543.074 407.347 543.074 409.251C543.074 411.155 542.734 412.923 542.054 414.555C541.408 416.187 540.49 417.597 539.3 418.787C538.145 419.943 536.751 420.861 535.119 421.541C533.487 422.187 531.719 422.51 529.815 422.51ZM529.815 418.685C531.141 418.685 532.365 418.464 533.487 418.022C534.609 417.546 535.578 416.9 536.394 416.085C537.21 415.235 537.839 414.232 538.281 413.076C538.756 411.92 538.994 410.645 538.994 409.251C538.994 407.857 538.756 406.582 538.281 405.427C537.839 404.271 537.21 403.285 536.394 402.469C535.578 401.619 534.609 400.973 533.487 400.531C532.365 400.055 531.141 399.817 529.815 399.817C528.489 399.817 527.266 400.055 526.144 400.531C525.022 400.973 524.053 401.619 523.237 402.469C522.421 403.285 521.775 404.271 521.299 405.427C520.857 406.582 520.636 407.857 520.636 409.251C520.636 410.645 520.857 411.92 521.299 413.076C521.775 414.232 522.421 415.235 523.237 416.085C524.053 416.9 525.022 417.546 526.144 418.022C527.266 418.464 528.489 418.685 529.815 418.685ZM568.056 396.502H590.239V422H586.159V400.327H572.135V422H568.056V396.502ZM611.667 422.51C609.763 422.51 607.995 422.187 606.363 421.541C604.731 420.861 603.32 419.943 602.131 418.787C600.975 417.597 600.057 416.187 599.377 414.555C598.731 412.923 598.408 411.155 598.408 409.251C598.408 407.347 598.731 405.58 599.377 403.948C600.057 402.316 600.975 400.922 602.131 399.766C603.32 398.576 604.731 397.658 606.363 397.012C607.995 396.332 609.763 395.992 611.667 395.992C613.571 395.992 615.338 396.332 616.97 397.012C618.602 397.658 619.996 398.576 621.152 399.766C622.342 400.922 623.26 402.316 623.906 403.948C624.585 405.58 624.925 407.347 624.925 409.251C624.925 411.155 624.585 412.923 623.906 414.555C623.26 416.187 622.342 417.597 621.152 418.787C619.996 419.943 618.602 420.861 616.97 421.541C615.338 422.187 613.571 422.51 611.667 422.51ZM611.667 418.685C612.993 418.685 614.216 418.464 615.338 418.022C616.46 417.546 617.429 416.9 618.245 416.085C619.061 415.235 619.69 414.232 620.132 413.076C620.608 411.92 620.846 410.645 620.846 409.251C620.846 407.857 620.608 406.582 620.132 405.427C619.69 404.271 619.061 403.285 618.245 402.469C617.429 401.619 616.46 400.973 615.338 400.531C614.216 400.055 612.993 399.817 611.667 399.817C610.341 399.817 609.117 400.055 607.995 400.531C606.873 400.973 605.904 401.619 605.088 402.469C604.272 403.285 603.626 404.271 603.15 405.427C602.709 406.582 602.488 407.857 602.488 409.251C602.488 410.645 602.709 411.92 603.15 413.076C603.626 414.232 604.272 415.235 605.088 416.085C605.904 416.9 606.873 417.546 607.995 418.022C609.117 418.464 610.341 418.685 611.667 418.685ZM637.144 396.502H647.853L654.993 422H650.658L644.794 400.327H640.204L634.34 422H630.005L637.144 396.502ZM661.61 396.502H665.69V406.956H679.968V396.502H684.048V422H679.968V410.781H665.69V422H661.61V396.502ZM705.47 422.51C703.566 422.51 701.798 422.187 700.167 421.541C698.535 420.861 697.124 419.943 695.934 418.787C694.778 417.597 693.86 416.187 693.18 414.555C692.534 412.923 692.211 411.155 692.211 409.251C692.211 407.347 692.534 405.58 693.18 403.948C693.86 402.316 694.778 400.922 695.934 399.766C697.124 398.576 698.535 397.658 700.167 397.012C701.798 396.332 703.566 395.992 705.47 395.992C707.374 395.992 709.142 396.332 710.774 397.012C712.405 397.658 713.799 398.576 714.955 399.766C716.145 400.922 717.063 402.316 717.709 403.948C718.389 405.58 718.729 407.347 718.729 409.251C718.729 411.155 718.389 412.923 717.709 414.555C717.063 416.187 716.145 417.597 714.955 418.787C713.799 419.943 712.405 420.861 710.774 421.541C709.142 422.187 707.374 422.51 705.47 422.51ZM705.47 418.685C706.796 418.685 708.02 418.464 709.142 418.022C710.264 417.546 711.232 416.9 712.048 416.085C712.864 415.235 713.493 414.232 713.935 413.076C714.411 411.92 714.649 410.645 714.649 409.251C714.649 407.857 714.411 406.582 713.935 405.427C713.493 404.271 712.864 403.285 712.048 402.469C711.232 401.619 710.264 400.973 709.142 400.531C708.02 400.055 706.796 399.817 705.47 399.817C704.144 399.817 702.92 400.055 701.798 400.531C700.676 400.973 699.708 401.619 698.892 402.469C698.076 403.285 697.43 404.271 696.954 405.427C696.512 406.582 696.291 407.857 696.291 409.251C696.291 410.645 696.512 411.92 696.954 413.076C697.43 414.232 698.076 415.235 698.892 416.085C699.708 416.9 700.676 417.546 701.798 418.022C702.92 418.464 704.144 418.685 705.47 418.685ZM738.087 422.51C736.285 422.51 734.602 422.187 733.039 421.541C731.509 420.861 730.166 419.943 729.01 418.787C727.888 417.597 726.987 416.187 726.307 414.555C725.661 412.923 725.338 411.155 725.338 409.251C725.338 407.347 725.661 405.58 726.307 403.948C726.987 402.316 727.888 400.922 729.01 399.766C730.166 398.576 731.509 397.658 733.039 397.012C734.602 396.332 736.285 395.992 738.087 395.992C739.345 395.992 740.484 396.128 741.504 396.4C742.558 396.638 743.493 396.978 744.309 397.42C745.124 397.828 745.838 398.304 746.45 398.848C747.062 399.392 747.589 399.936 748.031 400.48C749.085 401.806 749.85 403.285 750.326 404.917H746.246C745.838 403.965 745.277 403.115 744.563 402.367C743.952 401.721 743.119 401.143 742.065 400.633C741.011 400.089 739.685 399.817 738.087 399.817C736.863 399.817 735.724 400.055 734.67 400.531C733.617 400.973 732.699 401.619 731.917 402.469C731.135 403.285 730.523 404.271 730.081 405.427C729.639 406.582 729.418 407.857 729.418 409.251C729.418 410.679 729.656 411.971 730.132 413.127C730.608 414.283 731.237 415.269 732.019 416.085C732.801 416.9 733.718 417.546 734.772 418.022C735.826 418.464 736.931 418.685 738.087 418.685C739.753 418.685 741.113 418.396 742.167 417.818C743.255 417.24 744.122 416.595 744.767 415.881C745.515 415.065 746.093 414.13 746.501 413.076H750.581C750.105 414.878 749.323 416.459 748.235 417.818C747.759 418.396 747.215 418.974 746.603 419.552C745.991 420.096 745.26 420.589 744.41 421.031C743.595 421.473 742.66 421.83 741.606 422.102C740.552 422.374 739.379 422.51 738.087 422.51ZM763.862 400.327H754.937V396.502H776.865V400.327H767.941V422H763.862V400.327ZM783.262 396.502H787.341V405.172H794.481C795.943 405.172 797.268 405.393 798.458 405.835C799.648 406.276 800.668 406.888 801.518 407.67C802.368 408.418 803.014 409.302 803.456 410.322C803.932 411.342 804.17 412.43 804.17 413.586C804.17 414.742 803.932 415.83 803.456 416.849C803.014 417.869 802.368 418.77 801.518 419.552C800.668 420.3 799.648 420.895 798.458 421.337C797.268 421.779 795.943 422 794.481 422H783.262V396.502ZM794.481 418.175C796.282 418.175 797.659 417.733 798.611 416.849C799.597 415.966 800.09 414.878 800.09 413.586C800.09 412.294 799.597 411.206 798.611 410.322C797.659 409.438 796.282 408.996 794.481 408.996H787.341V418.175H794.481ZM832.466 422.51C830.8 422.51 829.253 422.221 827.826 421.643C826.398 421.065 825.123 420.266 824.001 419.246C822.879 418.226 821.944 417.019 821.196 415.626C820.448 414.232 819.955 412.702 819.717 411.036H815.638V422H811.558V396.502H815.638V407.211H819.717C820.023 405.546 820.55 404.033 821.298 402.673C822.046 401.279 822.964 400.089 824.052 399.103C825.174 398.117 826.432 397.352 827.826 396.808C829.253 396.264 830.8 395.992 832.466 395.992C834.234 395.992 835.9 396.332 837.464 397.012C839.028 397.658 840.37 398.576 841.492 399.766C842.648 400.922 843.549 402.316 844.195 403.948C844.875 405.58 845.215 407.347 845.215 409.251C845.215 411.155 844.875 412.923 844.195 414.555C843.549 416.187 842.648 417.597 841.492 418.787C840.37 419.943 839.028 420.861 837.464 421.541C835.9 422.187 834.234 422.51 832.466 422.51ZM832.466 418.685C833.69 418.685 834.829 418.464 835.883 418.022C836.937 417.546 837.855 416.9 838.637 416.085C839.418 415.235 840.03 414.232 840.472 413.076C840.914 411.92 841.135 410.645 841.135 409.251C841.135 407.857 840.914 406.582 840.472 405.427C840.03 404.271 839.418 403.285 838.637 402.469C837.855 401.619 836.937 400.973 835.883 400.531C834.829 400.055 833.69 399.817 832.466 399.817C831.242 399.817 830.103 400.055 829.049 400.531C827.996 400.973 827.078 401.619 826.296 402.469C825.514 403.285 824.902 404.271 824.46 405.427C824.018 406.582 823.797 407.857 823.797 409.251C823.797 410.645 824.018 411.92 824.46 413.076C824.902 414.232 825.514 415.235 826.296 416.085C827.078 416.9 827.996 417.546 829.049 418.022C830.103 418.464 831.242 418.685 832.466 418.685ZM870.193 396.502H874.272V415.626L874.221 416.136H874.323L888.041 396.502H892.631V422H888.551V402.877L888.602 402.367H888.5L874.782 422H870.193V396.502ZM910.993 422.51C909.701 422.51 908.562 422.391 907.576 422.153C906.59 421.915 905.706 421.609 904.924 421.235C904.177 420.827 903.514 420.368 902.936 419.858C902.392 419.348 901.933 418.838 901.559 418.328C900.675 417.104 900.08 415.694 899.774 414.096H903.854C904.058 414.98 904.448 415.745 905.026 416.391C905.502 416.968 906.199 417.495 907.117 417.971C908.069 418.447 909.361 418.685 910.993 418.685C913.169 418.685 914.767 418.26 915.786 417.41C916.84 416.561 917.367 415.626 917.367 414.606C917.367 413.586 916.891 412.702 915.939 411.954C914.988 411.172 913.424 410.781 911.248 410.781H908.188V406.956H911.248C913.288 406.956 914.733 406.616 915.582 405.936C916.432 405.257 916.857 404.407 916.857 403.387C916.857 402.503 916.381 401.687 915.429 400.939C914.512 400.191 913.033 399.817 910.993 399.817C909.633 399.817 908.545 400.021 907.729 400.429C906.913 400.837 906.267 401.279 905.791 401.755C905.247 402.333 904.856 402.962 904.618 403.642H900.539C900.845 402.214 901.44 400.939 902.324 399.817C902.698 399.341 903.14 398.882 903.65 398.44C904.16 397.964 904.771 397.556 905.485 397.216C906.199 396.842 906.998 396.553 907.882 396.349C908.8 396.111 909.837 395.992 910.993 395.992C912.659 395.992 914.104 396.196 915.327 396.604C916.585 396.978 917.622 397.488 918.438 398.134C919.288 398.78 919.917 399.545 920.325 400.429C920.733 401.279 920.937 402.18 920.937 403.132C920.937 404.22 920.733 405.121 920.325 405.835C919.917 406.548 919.441 407.126 918.897 407.568C918.387 407.976 917.894 408.265 917.418 408.435C916.976 408.605 916.704 408.707 916.602 408.741V408.792C916.67 408.792 916.959 408.877 917.469 409.047C917.979 409.217 918.523 409.54 919.101 410.016C919.713 410.458 920.257 411.07 920.733 411.852C921.209 412.634 921.447 413.637 921.447 414.861C921.447 415.881 921.226 416.849 920.784 417.767C920.342 418.685 919.679 419.501 918.795 420.215C917.911 420.929 916.823 421.49 915.531 421.898C914.24 422.306 912.727 422.51 910.993 422.51ZM929.624 396.502H935.743L943.393 412.311H944.668L952.317 396.502H958.436V422H954.357V401.602L954.408 401.092H954.306L946.707 416.9H941.353L933.755 401.092H933.653L933.704 401.602V422H929.624V396.502ZM979.603 422.51C977.768 422.51 976.051 422.187 974.453 421.541C972.855 420.861 971.478 419.943 970.322 418.787C969.166 417.597 968.248 416.187 967.569 414.555C966.923 412.923 966.6 411.155 966.6 409.251C966.6 407.347 966.923 405.58 967.569 403.948C968.248 402.316 969.166 400.922 970.322 399.766C971.478 398.576 972.855 397.658 974.453 397.012C976.051 396.332 977.768 395.992 979.603 395.992C981.439 395.992 983.156 396.332 984.754 397.012C986.352 397.658 987.729 398.559 988.885 399.715C990.04 400.871 990.941 402.248 991.587 403.846C992.267 405.444 992.607 407.16 992.607 408.996V410.526H970.679C970.815 411.716 971.138 412.821 971.648 413.841C972.158 414.827 972.804 415.677 973.586 416.391C974.368 417.104 975.269 417.665 976.289 418.073C977.343 418.481 978.448 418.685 979.603 418.685C981.133 418.685 982.425 418.447 983.479 417.971C984.533 417.495 985.4 416.968 986.08 416.391C986.862 415.745 987.508 414.98 988.018 414.096H992.097C991.485 415.694 990.618 417.104 989.496 418.328C988.511 419.382 987.219 420.351 985.621 421.235C984.023 422.085 982.017 422.51 979.603 422.51ZM988.273 406.956C988.137 406.004 987.831 405.104 987.355 404.254C986.913 403.37 986.318 402.605 985.57 401.959C984.822 401.313 983.938 400.803 982.918 400.429C981.932 400.021 980.827 399.817 979.603 399.817C978.38 399.817 977.258 400.021 976.238 400.429C975.252 400.803 974.368 401.313 973.586 401.959C972.838 402.605 972.226 403.37 971.75 404.254C971.274 405.104 970.951 406.004 970.781 406.956H988.273ZM1000.76 396.502H1004.84V406.956H1019.12V396.502H1023.2V422H1019.12V410.781H1004.84V422H1000.76V396.502ZM1032.89 396.502H1036.97V415.626L1036.92 416.136H1037.02L1050.74 396.502H1055.33V422H1051.25V402.877L1051.3 402.367H1051.2L1037.48 422H1032.89V396.502ZM1070.63 400.327H1061.71V396.502H1083.63V400.327H1074.71V422H1070.63V400.327ZM1101.25 422.51C1099.45 422.51 1097.76 422.187 1096.2 421.541C1094.67 420.861 1093.33 419.943 1092.17 418.787C1091.05 417.597 1090.15 416.187 1089.47 414.555C1088.82 412.923 1088.5 411.155 1088.5 409.251C1088.5 407.347 1088.82 405.58 1089.47 403.948C1090.15 402.316 1091.05 400.922 1092.17 399.766C1093.33 398.576 1094.67 397.658 1096.2 397.012C1097.76 396.332 1099.45 395.992 1101.25 395.992C1102.51 395.992 1103.65 396.128 1104.67 396.4C1105.72 396.638 1106.65 396.978 1107.47 397.42C1108.29 397.828 1109 398.304 1109.61 398.848C1110.22 399.392 1110.75 399.936 1111.19 400.48C1112.25 401.806 1113.01 403.285 1113.49 404.917H1109.41C1109 403.965 1108.44 403.115 1107.73 402.367C1107.11 401.721 1106.28 401.143 1105.23 400.633C1104.17 400.089 1102.85 399.817 1101.25 399.817C1100.03 399.817 1098.89 400.055 1097.83 400.531C1096.78 400.973 1095.86 401.619 1095.08 402.469C1094.3 403.285 1093.68 404.271 1093.24 405.427C1092.8 406.582 1092.58 407.857 1092.58 409.251C1092.58 410.679 1092.82 411.971 1093.29 413.127C1093.77 414.283 1094.4 415.269 1095.18 416.085C1095.96 416.9 1096.88 417.546 1097.93 418.022C1098.99 418.464 1100.09 418.685 1101.25 418.685C1102.91 418.685 1104.27 418.396 1105.33 417.818C1106.42 417.24 1107.28 416.595 1107.93 415.881C1108.68 415.065 1109.26 414.13 1109.66 413.076H1113.74C1113.27 414.878 1112.48 416.459 1111.4 417.818C1110.92 418.396 1110.38 418.974 1109.77 419.552C1109.15 420.096 1108.42 420.589 1107.57 421.031C1106.76 421.473 1105.82 421.83 1104.77 422.102C1103.71 422.374 1102.54 422.51 1101.25 422.51ZM1125.49 412.821C1124.54 412.413 1123.69 411.869 1122.94 411.189C1122.3 410.611 1121.7 409.846 1121.16 408.894C1120.65 407.908 1120.39 406.667 1120.39 405.172C1120.39 403.948 1120.62 402.809 1121.06 401.755C1121.53 400.701 1122.2 399.783 1123.05 399.001C1123.93 398.219 1124.97 397.607 1126.16 397.165C1127.38 396.723 1128.76 396.502 1130.29 396.502H1141.81V422H1137.73V413.841H1129.57L1125.09 422H1120.39L1125.49 412.821ZM1137.73 410.016V400.327H1130.34C1128.4 400.327 1126.94 400.786 1125.95 401.704C1124.97 402.588 1124.47 403.744 1124.47 405.172C1124.47 406.599 1124.97 407.772 1125.95 408.69C1126.94 409.574 1128.4 410.016 1130.34 410.016H1137.73ZM1168.35 396.502H1180.84C1183.29 396.502 1185.17 397.114 1186.5 398.338C1187.83 399.562 1188.49 401.075 1188.49 402.877C1188.49 404.033 1188.3 404.968 1187.93 405.682C1187.59 406.395 1187.18 406.956 1186.7 407.364C1186.26 407.772 1185.84 408.061 1185.43 408.231C1185.02 408.367 1184.77 408.435 1184.66 408.435V408.486C1184.73 408.486 1185.02 408.571 1185.53 408.741C1186.04 408.877 1186.58 409.166 1187.16 409.608C1187.77 410.05 1188.32 410.679 1188.79 411.495C1189.27 412.277 1189.51 413.314 1189.51 414.606C1189.51 416.781 1188.76 418.566 1187.26 419.96C1185.8 421.32 1183.68 422 1180.89 422H1168.35V396.502ZM1180.84 418.175C1182.37 418.175 1183.51 417.835 1184.26 417.155C1185.04 416.442 1185.43 415.507 1185.43 414.351C1185.43 413.195 1185.04 412.277 1184.26 411.597C1183.51 410.883 1182.37 410.526 1180.84 410.526H1172.43V418.175H1180.84ZM1180.58 406.956C1181.88 406.956 1182.83 406.667 1183.44 406.089C1184.09 405.478 1184.41 404.662 1184.41 403.642C1184.41 402.622 1184.09 401.823 1183.44 401.245C1182.83 400.633 1181.88 400.327 1180.58 400.327H1172.43V406.956H1180.58ZM1197.69 396.502H1201.77V406.956H1216.05V396.502H1220.13V422H1216.05V410.781H1201.77V422H1197.69V396.502ZM1241.29 422.51C1239.46 422.51 1237.74 422.187 1236.14 421.541C1234.54 420.861 1233.17 419.943 1232.01 418.787C1230.86 417.597 1229.94 416.187 1229.26 414.555C1228.61 412.923 1228.29 411.155 1228.29 409.251C1228.29 407.347 1228.61 405.58 1229.26 403.948C1229.94 402.316 1230.86 400.922 1232.01 399.766C1233.17 398.576 1234.54 397.658 1236.14 397.012C1237.74 396.332 1239.46 395.992 1241.29 395.992C1243.13 395.992 1244.85 396.332 1246.44 397.012C1248.04 397.658 1249.42 398.559 1250.57 399.715C1251.73 400.871 1252.63 402.248 1253.28 403.846C1253.96 405.444 1254.3 407.16 1254.3 408.996V410.526H1232.37C1232.5 411.716 1232.83 412.821 1233.34 413.841C1233.85 414.827 1234.49 415.677 1235.28 416.391C1236.06 417.104 1236.96 417.665 1237.98 418.073C1239.03 418.481 1240.14 418.685 1241.29 418.685C1242.82 418.685 1244.11 418.447 1245.17 417.971C1246.22 417.495 1247.09 416.968 1247.77 416.391C1248.55 415.745 1249.2 414.98 1249.71 414.096H1253.79C1253.17 415.694 1252.31 417.104 1251.19 418.328C1250.2 419.382 1248.91 420.351 1247.31 421.235C1245.71 422.085 1243.71 422.51 1241.29 422.51ZM1249.96 406.956C1249.83 406.004 1249.52 405.104 1249.04 404.254C1248.6 403.37 1248.01 402.605 1247.26 401.959C1246.51 401.313 1245.63 400.803 1244.61 400.429C1243.62 400.021 1242.52 399.817 1241.29 399.817C1240.07 399.817 1238.95 400.021 1237.93 400.429C1236.94 400.803 1236.06 401.313 1235.28 401.959C1234.53 402.605 1233.92 403.37 1233.44 404.254C1232.96 405.104 1232.64 406.004 1232.47 406.956H1249.96ZM1262.45 396.502H1266.53V418.175H1276.73V396.502H1280.81V418.175H1291.01V396.502H1295.08V422H1262.45V396.502ZM1304.79 396.502H1308.87V406.956H1323.15V396.502H1327.23V422H1323.15V410.781H1308.87V422H1304.79V396.502ZM1348.39 422.51C1346.56 422.51 1344.84 422.187 1343.24 421.541C1341.64 420.861 1340.27 419.943 1339.11 418.787C1337.96 417.597 1337.04 416.187 1336.36 414.555C1335.71 412.923 1335.39 411.155 1335.39 409.251C1335.39 407.347 1335.71 405.58 1336.36 403.948C1337.04 402.316 1337.96 400.922 1339.11 399.766C1340.27 398.576 1341.64 397.658 1343.24 397.012C1344.84 396.332 1346.56 395.992 1348.39 395.992C1350.23 395.992 1351.95 396.332 1353.54 397.012C1355.14 397.658 1356.52 398.559 1357.67 399.715C1358.83 400.871 1359.73 402.248 1360.38 403.846C1361.06 405.444 1361.4 407.16 1361.4 408.996V410.526H1339.47C1339.6 411.716 1339.93 412.821 1340.44 413.841C1340.95 414.827 1341.59 415.677 1342.38 416.391C1343.16 417.104 1344.06 417.665 1345.08 418.073C1346.13 418.481 1347.24 418.685 1348.39 418.685C1349.92 418.685 1351.21 418.447 1352.27 417.971C1353.32 417.495 1354.19 416.968 1354.87 416.391C1355.65 415.745 1356.3 414.98 1356.81 414.096H1360.89C1360.27 415.694 1359.41 417.104 1358.29 418.328C1357.3 419.382 1356.01 420.351 1354.41 421.235C1352.81 422.085 1350.81 422.51 1348.39 422.51ZM1357.06 406.956C1356.93 406.004 1356.62 405.104 1356.14 404.254C1355.7 403.37 1355.11 402.605 1354.36 401.959C1353.61 401.313 1352.73 400.803 1351.71 400.429C1350.72 400.021 1349.62 399.817 1348.39 399.817C1347.17 399.817 1346.05 400.021 1345.03 400.429C1344.04 400.803 1343.16 401.313 1342.38 401.959C1341.63 402.605 1341.02 403.37 1340.54 404.254C1340.06 405.104 1339.74 406.004 1339.57 406.956H1357.06ZM1368.53 426.335C1370.57 426.097 1371.59 424.992 1371.59 423.02V422.255C1371.52 422.323 1371.42 422.374 1371.28 422.408C1371.01 422.476 1370.77 422.51 1370.57 422.51C1369.92 422.51 1369.38 422.272 1368.94 421.796C1368.49 421.32 1368.27 420.674 1368.27 419.858C1368.27 418.872 1368.56 418.09 1369.14 417.512C1369.72 416.934 1370.45 416.645 1371.33 416.645C1372.22 416.645 1372.95 417.002 1373.53 417.716C1374.1 418.396 1374.39 419.569 1374.39 421.235C1374.39 423.547 1373.87 425.281 1372.81 426.437C1371.76 427.592 1370.33 428.238 1368.53 428.374V426.335ZM47.7886 505.51C45.9868 505.51 44.3039 505.187 42.7401 504.541C41.2102 503.861 39.8674 502.943 38.7115 501.787C37.5896 500.597 36.6887 499.187 36.0087 497.555C35.3628 495.923 35.0398 494.155 35.0398 492.251C35.0398 490.347 35.3628 488.58 36.0087 486.948C36.6887 485.316 37.5896 483.922 38.7115 482.766C39.8674 481.576 41.2102 480.658 42.7401 480.012C44.3039 479.332 45.9868 478.992 47.7886 478.992C49.0465 478.992 50.1854 479.128 51.2053 479.4C52.2592 479.638 53.1941 479.978 54.01 480.42C54.826 480.828 55.5399 481.304 56.1518 481.848C56.7638 482.392 57.2907 482.936 57.7327 483.48C58.7866 484.806 59.5515 486.285 60.0275 487.917H55.9479C55.5399 486.965 54.979 486.115 54.265 485.367C53.6531 484.721 52.8202 484.143 51.7663 483.633C50.7124 483.089 49.3865 482.817 47.7886 482.817C46.5647 482.817 45.4258 483.055 44.3719 483.531C43.318 483.973 42.4001 484.619 41.6182 485.469C40.8363 486.285 40.2243 487.271 39.7824 488.427C39.3404 489.582 39.1194 490.857 39.1194 492.251C39.1194 493.679 39.3574 494.971 39.8334 496.127C40.3093 497.283 40.9383 498.269 41.7202 499.085C42.5021 499.9 43.42 500.546 44.4739 501.022C45.5278 501.464 46.6327 501.685 47.7886 501.685C49.4545 501.685 50.8143 501.396 51.8682 500.818C52.9561 500.24 53.8231 499.595 54.469 498.881C55.2169 498.065 55.7949 497.13 56.2028 496.076H60.2825C59.8065 497.878 59.0246 499.459 57.9367 500.818C57.4607 501.396 56.9168 501.974 56.3048 502.552C55.6929 503.096 54.962 503.589 54.112 504.031C53.2961 504.473 52.3612 504.83 51.3073 505.102C50.2534 505.374 49.0805 505.51 47.7886 505.51ZM79.6826 505.51C77.7787 505.51 76.0109 505.187 74.3791 504.541C72.7472 503.861 71.3363 502.943 70.1465 501.787C68.9906 500.597 68.0727 499.187 67.3927 497.555C66.7468 495.923 66.4238 494.155 66.4238 492.251C66.4238 490.347 66.7468 488.58 67.3927 486.948C68.0727 485.316 68.9906 483.922 70.1465 482.766C71.3363 481.576 72.7472 480.658 74.3791 480.012C76.0109 479.332 77.7787 478.992 79.6826 478.992C81.5864 478.992 83.3542 479.332 84.9861 480.012C86.6179 480.658 88.0118 481.576 89.1677 482.766C90.3576 483.922 91.2755 485.316 91.9214 486.948C92.6014 488.58 92.9413 490.347 92.9413 492.251C92.9413 494.155 92.6014 495.923 91.9214 497.555C91.2755 499.187 90.3576 500.597 89.1677 501.787C88.0118 502.943 86.6179 503.861 84.9861 504.541C83.3542 505.187 81.5864 505.51 79.6826 505.51ZM79.6826 501.685C81.0084 501.685 82.2323 501.464 83.3542 501.022C84.4761 500.546 85.445 499.9 86.261 499.085C87.0769 498.235 87.7058 497.232 88.1478 496.076C88.6237 494.92 88.8617 493.645 88.8617 492.251C88.8617 490.857 88.6237 489.582 88.1478 488.427C87.7058 487.271 87.0769 486.285 86.261 485.469C85.445 484.619 84.4761 483.973 83.3542 483.531C82.2323 483.055 81.0084 482.817 79.6826 482.817C78.3567 482.817 77.1328 483.055 76.0109 483.531C74.889 483.973 73.9201 484.619 73.1042 485.469C72.2883 486.285 71.6423 487.271 71.1664 488.427C70.7244 489.582 70.5034 490.857 70.5034 492.251C70.5034 493.645 70.7244 494.92 71.1664 496.076C71.6423 497.232 72.2883 498.235 73.1042 499.085C73.9201 499.9 74.889 500.546 76.0109 501.022C77.1328 501.464 78.3567 501.685 79.6826 501.685ZM112.045 505.51C110.209 505.51 108.509 505.204 106.945 504.592C105.415 503.946 104.106 503.028 103.018 501.838C101.931 500.614 101.081 499.119 100.469 497.351C99.8568 495.583 99.5508 493.543 99.5508 491.231C99.5508 487.288 99.9248 483.922 100.673 481.134C101.421 478.346 102.509 476.086 103.936 474.352C105.364 472.584 107.115 471.309 109.189 470.527C111.297 469.711 113.693 469.303 116.379 469.303H122.499V473.638H116.379C114.339 473.638 112.572 473.876 111.076 474.352C109.58 474.794 108.322 475.508 107.302 476.494C106.282 477.446 105.466 478.686 104.854 480.216C104.276 481.712 103.868 483.514 103.63 485.622H103.681C104.191 484.874 104.871 484.194 105.721 483.582C106.435 483.072 107.336 482.613 108.424 482.205C109.546 481.763 110.923 481.542 112.555 481.542C114.288 481.542 115.886 481.848 117.348 482.46C118.81 483.038 120.068 483.871 121.122 484.959C122.21 486.013 123.043 487.271 123.621 488.733C124.233 490.194 124.538 491.792 124.538 493.526C124.538 495.26 124.233 496.858 123.621 498.32C123.009 499.781 122.159 501.056 121.071 502.144C119.983 503.198 118.657 504.031 117.093 504.643C115.563 505.221 113.88 505.51 112.045 505.51ZM112.045 501.685C113.269 501.685 114.39 501.481 115.41 501.073C116.43 500.631 117.314 500.053 118.062 499.34C118.81 498.592 119.388 497.725 119.796 496.739C120.238 495.753 120.459 494.682 120.459 493.526C120.459 492.37 120.238 491.299 119.796 490.313C119.388 489.327 118.81 488.478 118.062 487.764C117.314 487.016 116.43 486.438 115.41 486.03C114.39 485.588 113.269 485.367 112.045 485.367C110.821 485.367 109.699 485.588 108.679 486.03C107.659 486.438 106.775 487.016 106.027 487.764C105.279 488.478 104.684 489.327 104.242 490.313C103.834 491.299 103.63 492.37 103.63 493.526C103.63 494.682 103.834 495.753 104.242 496.739C104.684 497.725 105.279 498.592 106.027 499.34C106.775 500.053 107.659 500.631 108.679 501.073C109.699 501.481 110.821 501.685 112.045 501.685ZM132.166 479.502H136.245V483.582H136.296C136.296 483.582 136.449 483.344 136.755 482.868C137.095 482.358 137.622 481.831 138.336 481.287C139.084 480.709 140.036 480.182 141.192 479.706C142.348 479.23 143.759 478.992 145.425 478.992C147.09 478.992 148.654 479.332 150.116 480.012C151.612 480.658 152.921 481.576 154.043 482.766C155.165 483.922 156.049 485.316 156.695 486.948C157.341 488.58 157.663 490.347 157.663 492.251C157.663 494.155 157.341 495.923 156.695 497.555C156.049 499.187 155.165 500.597 154.043 501.787C152.921 502.943 151.612 503.861 150.116 504.541C148.654 505.187 147.09 505.51 145.425 505.51C143.759 505.51 142.348 505.272 141.192 504.796C140.036 504.32 139.084 503.81 138.336 503.266C137.622 502.688 137.095 502.161 136.755 501.685C136.449 501.175 136.296 500.92 136.296 500.92H136.245V514.689H132.166V479.502ZM144.915 501.685C146.139 501.685 147.277 501.464 148.331 501.022C149.385 500.546 150.303 499.9 151.085 499.085C151.867 498.235 152.479 497.232 152.921 496.076C153.363 494.92 153.584 493.645 153.584 492.251C153.584 490.857 153.363 489.582 152.921 488.427C152.479 487.271 151.867 486.285 151.085 485.469C150.303 484.619 149.385 483.973 148.331 483.531C147.277 483.055 146.139 482.817 144.915 482.817C143.691 482.817 142.552 483.055 141.498 483.531C140.444 483.973 139.526 484.619 138.744 485.469C137.962 486.285 137.35 487.271 136.908 488.427C136.466 489.582 136.245 490.857 136.245 492.251C136.245 493.645 136.466 494.92 136.908 496.076C137.35 497.232 137.962 498.235 138.744 499.085C139.526 499.9 140.444 500.546 141.498 501.022C142.552 501.464 143.691 501.685 144.915 501.685ZM176.55 505.51C174.884 505.51 173.303 505.187 171.807 504.541C170.345 503.861 169.053 502.943 167.931 501.787C166.81 500.597 165.926 499.187 165.28 497.555C164.634 495.923 164.311 494.155 164.311 492.251C164.311 490.347 164.634 488.58 165.28 486.948C165.926 485.316 166.81 483.922 167.931 482.766C169.053 481.576 170.345 480.658 171.807 480.012C173.303 479.332 174.884 478.992 176.55 478.992C178.215 478.992 179.626 479.23 180.782 479.706C181.938 480.182 182.873 480.709 183.587 481.287C184.335 481.865 184.862 482.409 185.168 482.919C185.508 483.395 185.678 483.633 185.678 483.633H185.729V479.502H189.808V505H185.729V500.92H185.678C185.678 500.92 185.508 501.175 185.168 501.685C184.862 502.161 184.335 502.688 183.587 503.266C182.873 503.81 181.938 504.32 180.782 504.796C179.626 505.272 178.215 505.51 176.55 505.51ZM177.06 501.685C178.283 501.685 179.422 501.464 180.476 501.022C181.53 500.546 182.448 499.9 183.23 499.085C184.012 498.235 184.624 497.232 185.066 496.076C185.508 494.92 185.729 493.645 185.729 492.251C185.729 490.857 185.508 489.582 185.066 488.427C184.624 487.271 184.012 486.285 183.23 485.469C182.448 484.619 181.53 483.973 180.476 483.531C179.422 483.055 178.283 482.817 177.06 482.817C175.836 482.817 174.697 483.055 173.643 483.531C172.589 483.973 171.671 484.619 170.889 485.469C170.107 486.285 169.495 487.271 169.053 488.427C168.611 489.582 168.39 490.857 168.39 492.251C168.39 493.645 168.611 494.92 169.053 496.076C169.495 497.232 170.107 498.235 170.889 499.085C171.671 499.9 172.589 500.546 173.643 501.022C174.697 501.464 175.836 501.685 177.06 501.685ZM205.125 483.327H196.201V479.502H218.129V483.327H209.205V505H205.125V483.327ZM224.525 479.502H228.605V488.172H235.744C237.206 488.172 238.532 488.393 239.722 488.835C240.911 489.276 241.931 489.888 242.781 490.67C243.631 491.418 244.277 492.302 244.719 493.322C245.195 494.342 245.433 495.43 245.433 496.586C245.433 497.742 245.195 498.83 244.719 499.849C244.277 500.869 243.631 501.77 242.781 502.552C241.931 503.3 240.911 503.895 239.722 504.337C238.532 504.779 237.206 505 235.744 505H224.525V479.502ZM235.744 501.175C237.546 501.175 238.923 500.733 239.875 499.849C240.861 498.966 241.353 497.878 241.353 496.586C241.353 495.294 240.861 494.206 239.875 493.322C238.923 492.438 237.546 491.996 235.744 491.996H228.605V501.175H235.744ZM280.883 505.51C279.081 505.51 277.398 505.187 275.834 504.541C274.304 503.861 272.961 502.943 271.806 501.787C270.684 500.597 269.783 499.187 269.103 497.555C268.457 495.923 268.134 494.155 268.134 492.251C268.134 490.347 268.457 488.58 269.103 486.948C269.783 485.316 270.684 483.922 271.806 482.766C272.961 481.576 274.304 480.658 275.834 480.012C277.398 479.332 279.081 478.992 280.883 478.992C282.141 478.992 283.28 479.128 284.299 479.4C285.353 479.638 286.288 479.978 287.104 480.42C287.92 480.828 288.634 481.304 289.246 481.848C289.858 482.392 290.385 482.936 290.827 483.48C291.881 484.806 292.646 486.285 293.122 487.917H289.042C288.634 486.965 288.073 486.115 287.359 485.367C286.747 484.721 285.914 484.143 284.86 483.633C283.806 483.089 282.481 482.817 280.883 482.817C279.659 482.817 278.52 483.055 277.466 483.531C276.412 483.973 275.494 484.619 274.712 485.469C273.93 486.285 273.318 487.271 272.877 488.427C272.435 489.582 272.214 490.857 272.214 492.251C272.214 493.679 272.452 494.971 272.927 496.127C273.403 497.283 274.032 498.269 274.814 499.085C275.596 499.9 276.514 500.546 277.568 501.022C278.622 501.464 279.727 501.685 280.883 501.685C282.549 501.685 283.908 501.396 284.962 500.818C286.05 500.24 286.917 499.595 287.563 498.881C288.311 498.065 288.889 497.13 289.297 496.076H293.377C292.901 497.878 292.119 499.459 291.031 500.818C290.555 501.396 290.011 501.974 289.399 502.552C288.787 503.096 288.056 503.589 287.206 504.031C286.39 504.473 285.455 504.83 284.401 505.102C283.348 505.374 282.175 505.51 280.883 505.51ZM312.522 505.51C310.686 505.51 308.969 505.187 307.371 504.541C305.773 503.861 304.396 502.943 303.241 501.787C302.085 500.597 301.167 499.187 300.487 497.555C299.841 495.923 299.518 494.155 299.518 492.251C299.518 490.347 299.841 488.58 300.487 486.948C301.167 485.316 302.085 483.922 303.241 482.766C304.396 481.576 305.773 480.658 307.371 480.012C308.969 479.332 310.686 478.992 312.522 478.992C314.358 478.992 316.074 479.332 317.672 480.012C319.27 480.658 320.647 481.559 321.803 482.715C322.959 483.871 323.86 485.248 324.506 486.846C325.186 488.444 325.526 490.16 325.526 491.996V493.526H303.598C303.734 494.716 304.057 495.821 304.566 496.841C305.076 497.827 305.722 498.677 306.504 499.391C307.286 500.104 308.187 500.665 309.207 501.073C310.261 501.481 311.366 501.685 312.522 501.685C314.052 501.685 315.343 501.447 316.397 500.971C317.451 500.495 318.318 499.968 318.998 499.391C319.78 498.745 320.426 497.98 320.936 497.096H325.016C324.404 498.694 323.537 500.104 322.415 501.328C321.429 502.382 320.137 503.351 318.539 504.235C316.941 505.085 314.935 505.51 312.522 505.51ZM321.191 489.956C321.055 489.004 320.749 488.104 320.273 487.254C319.831 486.37 319.236 485.605 318.488 484.959C317.74 484.313 316.856 483.803 315.836 483.429C314.851 483.021 313.746 482.817 312.522 482.817C311.298 482.817 310.176 483.021 309.156 483.429C308.17 483.803 307.286 484.313 306.504 484.959C305.756 485.605 305.144 486.37 304.668 487.254C304.192 488.104 303.87 489.004 303.7 489.956H321.191ZM344.641 505.51C342.805 505.51 341.105 505.204 339.541 504.592C338.011 503.946 336.703 503.028 335.615 501.838C334.527 500.614 333.677 499.119 333.065 497.351C332.453 495.583 332.147 493.543 332.147 491.231C332.147 487.288 332.521 483.922 333.269 481.134C334.017 478.346 335.105 476.086 336.533 474.352C337.96 472.584 339.711 471.309 341.785 470.527C343.893 469.711 346.29 469.303 348.975 469.303H355.095V473.638H348.975C346.936 473.638 345.168 473.876 343.672 474.352C342.176 474.794 340.918 475.508 339.898 476.494C338.878 477.446 338.062 478.686 337.45 480.216C336.872 481.712 336.465 483.514 336.227 485.622H336.278C336.787 484.874 337.467 484.194 338.317 483.582C339.031 483.072 339.932 482.613 341.02 482.205C342.142 481.763 343.519 481.542 345.151 481.542C346.885 481.542 348.482 481.848 349.944 482.46C351.406 483.038 352.664 483.871 353.718 484.959C354.806 486.013 355.639 487.271 356.217 488.733C356.829 490.194 357.135 491.792 357.135 493.526C357.135 495.26 356.829 496.858 356.217 498.32C355.605 499.781 354.755 501.056 353.667 502.144C352.579 503.198 351.253 504.031 349.689 504.643C348.159 505.221 346.477 505.51 344.641 505.51ZM344.641 501.685C345.865 501.685 346.987 501.481 348.006 501.073C349.026 500.631 349.91 500.053 350.658 499.34C351.406 498.592 351.984 497.725 352.392 496.739C352.834 495.753 353.055 494.682 353.055 493.526C353.055 492.37 352.834 491.299 352.392 490.313C351.984 489.327 351.406 488.478 350.658 487.764C349.91 487.016 349.026 486.438 348.006 486.03C346.987 485.588 345.865 485.367 344.641 485.367C343.417 485.367 342.295 485.588 341.275 486.03C340.255 486.438 339.371 487.016 338.623 487.764C337.875 488.478 337.28 489.327 336.838 490.313C336.431 491.299 336.227 492.37 336.227 493.526C336.227 494.682 336.431 495.753 336.838 496.739C337.28 497.725 337.875 498.592 338.623 499.34C339.371 500.053 340.255 500.631 341.275 501.073C342.295 501.481 343.417 501.685 344.641 501.685ZM376.236 505.51C374.4 505.51 372.683 505.187 371.085 504.541C369.488 503.861 368.111 502.943 366.955 501.787C365.799 500.597 364.881 499.187 364.201 497.555C363.555 495.923 363.232 494.155 363.232 492.251C363.232 490.347 363.555 488.58 364.201 486.948C364.881 485.316 365.799 483.922 366.955 482.766C368.111 481.576 369.488 480.658 371.085 480.012C372.683 479.332 374.4 478.992 376.236 478.992C378.072 478.992 379.789 479.332 381.386 480.012C382.984 480.658 384.361 481.559 385.517 482.715C386.673 483.871 387.574 485.248 388.22 486.846C388.9 488.444 389.24 490.16 389.24 491.996V493.526H367.312C367.448 494.716 367.771 495.821 368.281 496.841C368.791 497.827 369.437 498.677 370.218 499.391C371 500.104 371.901 500.665 372.921 501.073C373.975 501.481 375.08 501.685 376.236 501.685C377.766 501.685 379.058 501.447 380.112 500.971C381.165 500.495 382.032 499.968 382.712 499.391C383.494 498.745 384.14 497.98 384.65 497.096H388.73C388.118 498.694 387.251 500.104 386.129 501.328C385.143 502.382 383.851 503.351 382.253 504.235C380.656 505.085 378.65 505.51 376.236 505.51ZM384.905 489.956C384.769 489.004 384.463 488.104 383.987 487.254C383.545 486.37 382.95 485.605 382.202 484.959C381.454 484.313 380.571 483.803 379.551 483.429C378.565 483.021 377.46 482.817 376.236 482.817C375.012 482.817 373.89 483.021 372.87 483.429C371.884 483.803 371 484.313 370.218 484.959C369.471 485.605 368.859 486.37 368.383 487.254C367.907 488.104 367.584 489.004 367.414 489.956H384.905ZM414.233 479.502H418.313V489.956H432.592V479.502H436.671V505H432.592V493.781H418.313V505H414.233V479.502ZM458.093 505.51C456.189 505.51 454.422 505.187 452.79 504.541C451.158 503.861 449.747 502.943 448.557 501.787C447.401 500.597 446.483 499.187 445.803 497.555C445.157 495.923 444.834 494.155 444.834 492.251C444.834 490.347 445.157 488.58 445.803 486.948C446.483 485.316 447.401 483.922 448.557 482.766C449.747 481.576 451.158 480.658 452.79 480.012C454.422 479.332 456.189 478.992 458.093 478.992C459.997 478.992 461.765 479.332 463.397 480.012C465.029 480.658 466.422 481.576 467.578 482.766C468.768 483.922 469.686 485.316 470.332 486.948C471.012 488.58 471.352 490.347 471.352 492.251C471.352 494.155 471.012 495.923 470.332 497.555C469.686 499.187 468.768 500.597 467.578 501.787C466.422 502.943 465.029 503.861 463.397 504.541C461.765 505.187 459.997 505.51 458.093 505.51ZM458.093 501.685C459.419 501.685 460.643 501.464 461.765 501.022C462.887 500.546 463.856 499.9 464.672 499.085C465.488 498.235 466.117 497.232 466.558 496.076C467.034 494.92 467.272 493.645 467.272 492.251C467.272 490.857 467.034 489.582 466.558 488.427C466.117 487.271 465.488 486.285 464.672 485.469C463.856 484.619 462.887 483.973 461.765 483.531C460.643 483.055 459.419 482.817 458.093 482.817C456.767 482.817 455.543 483.055 454.422 483.531C453.3 483.973 452.331 484.619 451.515 485.469C450.699 486.285 450.053 487.271 449.577 488.427C449.135 489.582 448.914 490.857 448.914 492.251C448.914 493.645 449.135 494.92 449.577 496.076C450.053 497.232 450.699 498.235 451.515 499.085C452.331 499.9 453.3 500.546 454.422 501.022C455.543 501.464 456.767 501.685 458.093 501.685ZM479.491 479.502H491.985C494.433 479.502 496.32 480.114 497.646 481.338C498.972 482.562 499.634 484.075 499.634 485.877C499.634 487.033 499.447 487.968 499.074 488.682C498.734 489.395 498.326 489.956 497.85 490.364C497.408 490.772 496.983 491.061 496.575 491.231C496.167 491.367 495.912 491.435 495.81 491.435V491.486C495.878 491.486 496.167 491.571 496.677 491.741C497.187 491.877 497.731 492.166 498.309 492.608C498.921 493.05 499.464 493.679 499.94 494.495C500.416 495.277 500.654 496.314 500.654 497.606C500.654 499.781 499.906 501.566 498.411 502.96C496.949 504.32 494.824 505 492.036 505H479.491V479.502ZM491.985 501.175C493.515 501.175 494.654 500.835 495.402 500.155C496.184 499.442 496.575 498.507 496.575 497.351C496.575 496.195 496.184 495.277 495.402 494.597C494.654 493.883 493.515 493.526 491.985 493.526H483.571V501.175H491.985ZM491.73 489.956C493.022 489.956 493.974 489.667 494.586 489.089C495.232 488.478 495.555 487.662 495.555 486.642C495.555 485.622 495.232 484.823 494.586 484.245C493.974 483.633 493.022 483.327 491.73 483.327H483.571V489.956H491.73ZM508.834 479.502H512.913V488.172H519.033C520.494 488.172 521.82 488.393 523.01 488.835C524.2 489.276 525.22 489.888 526.07 490.67C526.92 491.418 527.566 492.302 528.008 493.322C528.484 494.342 528.722 495.43 528.722 496.586C528.722 497.742 528.484 498.83 528.008 499.849C527.566 500.869 526.92 501.77 526.07 502.552C525.22 503.3 524.2 503.895 523.01 504.337C521.82 504.779 520.494 505 519.033 505H508.834V479.502ZM519.033 501.175C520.834 501.175 522.211 500.733 523.163 499.849C524.149 498.966 524.642 497.878 524.642 496.586C524.642 495.294 524.149 494.206 523.163 493.322C522.211 492.438 520.834 491.996 519.033 491.996H512.913V501.175H519.033ZM532.036 479.502H536.116V505H532.036V479.502ZM545.795 479.502H549.875V498.626L549.824 499.136H549.926L563.643 479.502H568.233V505H564.153V485.877L564.204 485.367H564.102L550.385 505H545.795V479.502ZM557.014 473.383C554.566 473.383 552.679 472.771 551.354 471.547C550.028 470.323 549.365 468.81 549.365 467.009H553.189C553.189 467.892 553.495 468.623 554.107 469.201C554.753 469.779 555.722 470.068 557.014 470.068C558.306 470.068 559.258 469.779 559.87 469.201C560.516 468.623 560.839 467.892 560.839 467.009H564.663C564.663 468.81 564 470.323 562.675 471.547C561.349 472.771 559.462 473.383 557.014 473.383ZM606.497 505.51C604.594 505.51 602.826 505.187 601.194 504.541C599.562 503.861 598.151 502.943 596.961 501.787C595.805 500.597 594.888 499.187 594.208 497.555C593.562 495.923 593.239 494.155 593.239 492.251C593.239 490.347 593.562 488.58 594.208 486.948C594.888 485.316 595.805 483.922 596.961 482.766C598.151 481.576 599.562 480.658 601.194 480.012C602.826 479.332 604.594 478.992 606.497 478.992C608.401 478.992 610.169 479.332 611.801 480.012C613.433 480.658 614.827 481.576 615.983 482.766C617.172 483.922 618.09 485.316 618.736 486.948C619.416 488.58 619.756 490.347 619.756 492.251C619.756 494.155 619.416 495.923 618.736 497.555C618.09 499.187 617.172 500.597 615.983 501.787C614.827 502.943 613.433 503.861 611.801 504.541C610.169 505.187 608.401 505.51 606.497 505.51ZM606.497 501.685C607.823 501.685 609.047 501.464 610.169 501.022C611.291 500.546 612.26 499.9 613.076 499.085C613.892 498.235 614.521 497.232 614.963 496.076C615.439 494.92 615.677 493.645 615.677 492.251C615.677 490.857 615.439 489.582 614.963 488.427C614.521 487.271 613.892 486.285 613.076 485.469C612.26 484.619 611.291 483.973 610.169 483.531C609.047 483.055 607.823 482.817 606.497 482.817C605.172 482.817 603.948 483.055 602.826 483.531C601.704 483.973 600.735 484.619 599.919 485.469C599.103 486.285 598.457 487.271 597.981 488.427C597.539 489.582 597.318 490.857 597.318 492.251C597.318 493.645 597.539 494.92 597.981 496.076C598.457 497.232 599.103 498.235 599.919 499.085C600.735 499.9 601.704 500.546 602.826 501.022C603.948 501.464 605.172 501.685 606.497 501.685ZM638.859 505.51C637.024 505.51 635.324 505.204 633.76 504.592C632.23 503.946 630.921 503.028 629.833 501.838C628.745 500.614 627.895 499.119 627.284 497.351C626.672 495.583 626.366 493.543 626.366 491.231C626.366 487.288 626.74 483.922 627.488 481.134C628.235 478.346 629.323 476.086 630.751 474.352C632.179 472.584 633.93 471.309 636.004 470.527C638.112 469.711 640.508 469.303 643.194 469.303H649.313V473.638H643.194C641.154 473.638 639.386 473.876 637.891 474.352C636.395 474.794 635.137 475.508 634.117 476.494C633.097 477.446 632.281 478.686 631.669 480.216C631.091 481.712 630.683 483.514 630.445 485.622H630.496C631.006 484.874 631.686 484.194 632.536 483.582C633.25 483.072 634.151 482.613 635.239 482.205C636.361 481.763 637.738 481.542 639.369 481.542C641.103 481.542 642.701 481.848 644.163 482.46C645.625 483.038 646.883 483.871 647.937 484.959C649.025 486.013 649.857 487.271 650.435 488.733C651.047 490.194 651.353 491.792 651.353 493.526C651.353 495.26 651.047 496.858 650.435 498.32C649.823 499.781 648.974 501.056 647.886 502.144C646.798 503.198 645.472 504.031 643.908 504.643C642.378 505.221 640.695 505.51 638.859 505.51ZM638.859 501.685C640.083 501.685 641.205 501.481 642.225 501.073C643.245 500.631 644.129 500.053 644.877 499.34C645.625 498.592 646.203 497.725 646.611 496.739C647.053 495.753 647.274 494.682 647.274 493.526C647.274 492.37 647.053 491.299 646.611 490.313C646.203 489.327 645.625 488.478 644.877 487.764C644.129 487.016 643.245 486.438 642.225 486.03C641.205 485.588 640.083 485.367 638.859 485.367C637.636 485.367 636.514 485.588 635.494 486.03C634.474 486.438 633.59 487.016 632.842 487.764C632.094 488.478 631.499 489.327 631.057 490.313C630.649 491.299 630.445 492.37 630.445 493.526C630.445 494.682 630.649 495.753 631.057 496.739C631.499 497.725 632.094 498.592 632.842 499.34C633.59 500.053 634.474 500.631 635.494 501.073C636.514 501.481 637.636 501.685 638.859 501.685ZM663.06 479.502H673.769L680.909 505H676.574L670.71 483.327H666.12L660.256 505H655.921L663.06 479.502ZM687.526 479.502H691.606V498.626L691.555 499.136H691.657L705.374 479.502H709.964V505H705.884V485.877L705.935 485.367H705.833L692.116 505H687.526V479.502ZM719.657 479.502H723.737V489.701H728.836L736.995 479.502H741.84L732.406 491.486L742.605 505H737.505L728.836 493.526H723.737V505H719.657V479.502Z" fill="black"/>
<path d="M183 569.336C183 614.462 219.581 651.043 264.707 651.043H519.164V641.705C519.164 596.58 482.583 559.999 437.458 559.999H183V569.336Z" fill="white"/>

<a target="_top" href="/templates/festival.html">
<path d="M199.872 581.279C201.536 615.122 229.46 641.707 263.344 641.707H503.99V634.055C503.99 598.958 475.538 570.506 440.441 570.506H199.342L199.872 581.279Z" fill="#8000FF"/>
<path fill-rule="evenodd" clip-rule="evenodd" d="M456.031 607.625C456.031 618.68 447.069 627.642 436.014 627.642C424.959 627.642 415.997 618.68 415.997 607.625C415.997 596.571 424.959 587.609 436.014 587.609C447.069 587.609 456.031 596.571 456.031 607.625ZM458.386 607.625C458.386 619.981 448.37 629.997 436.014 629.997C423.659 629.997 413.643 619.981 413.643 607.625C413.643 595.27 423.659 585.254 436.014 585.254C448.37 585.254 458.386 595.27 458.386 607.625ZM435.284 617.964L444.844 609.522H422.453C421.992 609.522 421.583 609.365 421.226 609.05C420.87 608.736 420.692 608.375 420.692 607.967C420.692 607.56 420.87 607.199 421.226 606.884C421.583 606.57 421.992 606.412 422.453 606.412H444.844L435.284 597.971C434.926 597.658 434.748 597.288 434.749 596.862C434.751 596.435 434.929 596.065 435.284 595.75C435.639 595.435 436.058 595.278 436.541 595.278C437.024 595.278 437.443 595.435 437.8 595.75L450.379 606.857C450.734 607.171 450.912 607.542 450.913 607.967C450.914 608.393 450.736 608.763 450.379 609.078L437.8 620.185C437.443 620.5 437.024 620.657 436.542 620.656C436.06 620.655 435.64 620.498 435.284 620.185C434.928 619.872 434.749 619.502 434.749 619.075C434.749 618.649 434.928 618.278 435.284 617.964Z" fill="white"/>
<path d="M258.064 612.38C257.624 612.682 257.116 612.957 256.54 613.204C256.046 613.423 255.414 613.616 254.645 613.78C253.904 613.945 253.052 614.028 252.091 614.028C249.593 614.028 247.657 613.382 246.284 612.092C244.938 610.774 244.265 609.016 244.265 606.819V599.405H247.561V606.613C247.561 607.959 247.959 609.016 248.755 609.785C249.551 610.554 250.732 610.938 252.297 610.938C253.231 610.938 254.055 610.87 254.769 610.732C255.483 610.595 256.087 610.43 256.581 610.238C257.158 610.018 257.652 609.771 258.064 609.497V599.405H261.359V620H258.064V612.38ZM270.422 599.405H273.717V614.851L273.676 615.263H273.759L284.838 599.405H288.545V620H285.25V604.554L285.291 604.142H285.209L274.129 620H270.422V599.405ZM302.141 602.495H294.933V599.405H312.644V602.495H305.436V620H302.141V602.495ZM327.696 620.412C326.351 620.412 325.074 620.151 323.866 619.629C322.685 619.08 321.641 618.339 320.735 617.405C319.829 616.444 319.115 615.304 318.593 613.986C318.072 612.668 317.811 611.24 317.811 609.703C317.811 608.165 318.072 606.737 318.593 605.419C319.115 604.101 319.829 602.975 320.735 602.041C321.641 601.08 322.685 600.339 323.866 599.817C325.074 599.268 326.351 598.993 327.696 598.993C329.042 598.993 330.181 599.186 331.115 599.57C332.048 599.955 332.804 600.38 333.38 600.847C333.984 601.314 334.41 601.753 334.657 602.165C334.932 602.549 335.069 602.742 335.069 602.742H335.11V599.405H338.405V620H335.11V616.705H335.069C335.069 616.705 334.932 616.911 334.657 617.323C334.41 617.707 333.984 618.133 333.38 618.6C332.804 619.039 332.048 619.451 331.115 619.835C330.181 620.22 329.042 620.412 327.696 620.412ZM328.108 617.323C329.097 617.323 330.016 617.144 330.868 616.787C331.719 616.403 332.46 615.881 333.092 615.222C333.723 614.536 334.218 613.726 334.575 612.792C334.932 611.858 335.11 610.829 335.11 609.703C335.11 608.577 334.932 607.547 334.575 606.613C334.218 605.68 333.723 604.884 333.092 604.225C332.46 603.538 331.719 603.016 330.868 602.659C330.016 602.275 329.097 602.083 328.108 602.083C327.119 602.083 326.2 602.275 325.348 602.659C324.497 603.016 323.756 603.538 323.124 604.225C322.493 604.884 321.998 605.68 321.641 606.613C321.284 607.547 321.106 608.577 321.106 609.703C321.106 610.829 321.284 611.858 321.641 612.792C321.998 613.726 322.493 614.536 323.124 615.222C323.756 615.881 324.497 616.403 325.348 616.787C326.2 617.144 327.119 617.323 328.108 617.323ZM352.012 602.495H344.804V599.405H362.516V602.495H355.307V620H352.012V602.495ZM368.918 599.405H372.213V606.408H377.979C379.16 606.408 380.231 606.586 381.192 606.943C382.153 607.3 382.977 607.794 383.663 608.426C384.35 609.03 384.872 609.744 385.228 610.568C385.613 611.391 385.805 612.27 385.805 613.204C385.805 614.137 385.613 615.016 385.228 615.84C384.872 616.664 384.35 617.391 383.663 618.023C382.977 618.627 382.153 619.108 381.192 619.465C380.231 619.822 379.16 620 377.979 620H368.918V599.405ZM377.979 616.911C379.435 616.911 380.547 616.554 381.316 615.84C382.112 615.126 382.51 614.247 382.51 613.204C382.51 612.16 382.112 611.282 381.316 610.568C380.547 609.854 379.435 609.497 377.979 609.497H372.213V616.911H377.979Z" fill="white"/>
</a> 
</svg>
