<svg width="1435" height="938" viewBox="0 0 1435 938" fill="none" xmlns="http://www.w3.org/2000/svg">
<path d="M359.828 273.67L314.857 538.009L559.773 877.935L908.308 660.101L953.5 602.808H1006.78H1102.87L1208.5 503.738L1024.09 210.109L359.828 273.67Z" fill="#8000FF"/>
<path d="M1195.97 499.551L893.992 234.732L595.102 13.1543H1093.32H1267.58L1345.17 59.7051L1392.91 216.068L1416.78 338.413L1401.27 401.078L1312.34 414.804L1195.97 499.551Z" fill="#138B35"/>
<path d="M48.3079 638.616L329.403 377.215L349.408 363.063V187.568L417 114.5L461.834 23.041H627.458L938.5 124L944.5 279.5L627.458 454L563 833.5L575.884 879.128L431.457 847.498L319.258 923.889L288.821 916.13L19.0645 745.444L48.3079 638.616Z" fill="#FC5812"/>
<path d="M162.944 545.14L320 522L548 604.5L586.875 695.407L569.325 874.193L431 838.5L311.566 924.648L184.881 845.675L23.6445 749.153L45.033 646.417L154.718 550.624L162.944 545.14Z" fill="#FDB600"/>
<path d="M307.596 923.9L14 746.964L41.1477 639.209L337.76 360.501L352.68 169.523L425.49 104.471L451.478 12H1271.99L1351.71 62.5531L1421.71 330.875L1400.07 407.051L1304.58 417.197L1102.83 601.138H1007.56L958.705 601.138L928.001 642.193L573.972 883.069L430.862 847.494L307.596 923.9Z" stroke="white" stroke-width="24"/>
</svg>
