<svg width="460" height="84" viewBox="0 0 460 84" fill="none" xmlns="http://www.w3.org/2000/svg">
<rect width="460" height="84" rx="42" fill="#8000FF"/>
<path d="M29.3534 32.4735H44.039V49.3535H41.3382V35.0055H32.0542V49.3535H29.3534V32.4735ZM59.0688 49.6911C57.8534 49.6911 56.7168 49.4773 55.659 49.0497C54.6012 48.5995 53.6897 47.9919 52.9245 47.2266C52.1593 46.4389 51.5516 45.5049 51.1014 44.4246C50.6738 43.3442 50.46 42.1739 50.46 40.9135C50.46 39.6532 50.6738 38.4828 51.1014 37.4025C51.5516 36.3222 52.1593 35.3994 52.9245 34.6342C53.6897 33.8464 54.6012 33.2388 55.659 32.8111C56.7168 32.361 57.8534 32.1359 59.0688 32.1359C60.2841 32.1359 61.4207 32.361 62.4785 32.8111C63.5364 33.2388 64.4479 33.8352 65.2131 34.6004C65.9783 35.3656 66.5748 36.2772 67.0024 37.335C67.4525 38.3928 67.6776 39.5294 67.6776 40.7447V41.7575H53.1608C53.2508 42.5453 53.4646 43.2767 53.8022 43.9519C54.1398 44.6046 54.5675 45.1673 55.0851 45.6399C55.6028 46.1126 56.1992 46.4839 56.8744 46.754C57.5721 47.0241 58.3036 47.1591 59.0688 47.1591C60.0816 47.1591 60.9368 47.0016 61.6345 46.6865C62.3323 46.3714 62.9062 46.0225 63.3563 45.6399C63.874 45.2123 64.3016 44.7059 64.6392 44.1207H67.34C66.9349 45.1785 66.3609 46.1126 65.6182 46.9228C64.9655 47.6205 64.1103 48.2619 63.0525 48.8471C61.9947 49.4098 60.6668 49.6911 59.0688 49.6911ZM64.808 39.3943C64.718 38.7641 64.5154 38.1677 64.2003 37.605C63.9077 37.0199 63.5139 36.5135 63.0187 36.0859C62.5236 35.6582 61.9384 35.3206 61.2632 35.0731C60.6105 34.803 59.879 34.6679 59.0688 34.6679C58.2586 34.6679 57.5158 34.803 56.8406 35.0731C56.1879 35.3206 55.6028 35.6582 55.0851 36.0859C54.59 36.5135 54.1848 37.0199 53.8698 37.605C53.5547 38.1677 53.3409 38.7641 53.2283 39.3943H64.808ZM74.0867 32.4735H76.7875V35.1743H76.8213C76.8213 35.1743 76.9225 35.0168 77.1251 34.7017C77.3502 34.3641 77.699 34.0152 78.1717 33.6551C78.6668 33.2725 79.297 32.9237 80.0622 32.6086C80.8274 32.2935 81.7615 32.1359 82.8643 32.1359C83.9671 32.1359 85.0024 32.361 85.9702 32.8111C86.9605 33.2388 87.827 33.8464 88.5697 34.6342C89.3124 35.3994 89.8976 36.3222 90.3252 37.4025C90.7529 38.4828 90.9667 39.6532 90.9667 40.9135C90.9667 42.1739 90.7529 43.3442 90.3252 44.4246C89.8976 45.5049 89.3124 46.4389 88.5697 47.2266C87.827 47.9919 86.9605 48.5995 85.9702 49.0497C85.0024 49.4773 83.9671 49.6911 82.8643 49.6911C81.7615 49.6911 80.8274 49.5336 80.0622 49.2185C79.297 48.9034 78.6668 48.5658 78.1717 48.2057C77.699 47.8231 77.3502 47.4742 77.1251 47.1591C76.9225 46.8215 76.8213 46.6527 76.8213 46.6527H76.7875V55.7679H74.0867V32.4735ZM82.5267 47.1591C83.3369 47.1591 84.0909 47.0128 84.7886 46.7202C85.4863 46.4051 86.094 45.9775 86.6116 45.4374C87.1293 44.8747 87.5344 44.2107 87.827 43.4455C88.1196 42.6803 88.2659 41.8363 88.2659 40.9135C88.2659 39.9908 88.1196 39.1468 87.827 38.3815C87.5344 37.6163 87.1293 36.9636 86.6116 36.4235C86.094 35.8608 85.4863 35.4332 84.7886 35.1406C84.0909 34.8255 83.3369 34.6679 82.5267 34.6679C81.7164 34.6679 80.9625 34.8255 80.2648 35.1406C79.5671 35.4332 78.9594 35.8608 78.4417 36.4235C77.9241 36.9636 77.519 37.6163 77.2264 38.3815C76.9338 39.1468 76.7875 39.9908 76.7875 40.9135C76.7875 41.8363 76.9338 42.6803 77.2264 43.4455C77.519 44.2107 77.9241 44.8747 78.4417 45.4374C78.9594 45.9775 79.5671 46.4051 80.2648 46.7202C80.9625 47.0128 81.7164 47.1591 82.5267 47.1591ZM104.989 49.6911C103.774 49.6911 102.637 49.4773 101.579 49.0497C100.521 48.5995 99.6098 47.9919 98.8446 47.2266C98.0794 46.4389 97.4717 45.5049 97.0216 44.4246C96.594 43.3442 96.3801 42.1739 96.3801 40.9135C96.3801 39.6532 96.594 38.4828 97.0216 37.4025C97.4717 36.3222 98.0794 35.3994 98.8446 34.6342C99.6098 33.8464 100.521 33.2388 101.579 32.8111C102.637 32.361 103.774 32.1359 104.989 32.1359C106.204 32.1359 107.341 32.361 108.399 32.8111C109.456 33.2388 110.368 33.8352 111.133 34.6004C111.898 35.3656 112.495 36.2772 112.923 37.335C113.373 38.3928 113.598 39.5294 113.598 40.7447V41.7575H99.0809C99.171 42.5453 99.3848 43.2767 99.7224 43.9519C100.06 44.6046 100.488 45.1673 101.005 45.6399C101.523 46.1126 102.119 46.4839 102.795 46.754C103.492 47.0241 104.224 47.1591 104.989 47.1591C106.002 47.1591 106.857 47.0016 107.555 46.6865C108.252 46.3714 108.826 46.0225 109.276 45.6399C109.794 45.2123 110.222 44.7059 110.559 44.1207H113.26C112.855 45.1785 112.281 46.1126 111.538 46.9228C110.886 47.6205 110.03 48.2619 108.973 48.8471C107.915 49.4098 106.587 49.6911 104.989 49.6911ZM110.728 39.3943C110.638 38.7641 110.436 38.1677 110.12 37.605C109.828 37.0199 109.434 36.5135 108.939 36.0859C108.444 35.6582 107.859 35.3206 107.183 35.0731C106.531 34.803 105.799 34.6679 104.989 34.6679C104.179 34.6679 103.436 34.803 102.761 35.0731C102.108 35.3206 101.523 35.6582 101.005 36.0859C100.51 36.5135 100.105 37.0199 99.7899 37.605C99.4748 38.1677 99.261 38.7641 99.1485 39.3943H110.728ZM120.007 32.4735H122.708V45.1335L122.674 45.4711H122.741L131.823 32.4735H134.861V49.3535H132.16V36.6935L132.194 36.3559H132.127L123.045 49.3535H120.007V32.4735ZM127.434 28.4223C125.814 28.4223 124.564 28.0172 123.687 27.207C122.809 26.3967 122.37 25.3952 122.37 24.2023H124.902C124.902 24.7875 125.105 25.2714 125.51 25.654C125.937 26.0366 126.579 26.2279 127.434 26.2279C128.289 26.2279 128.919 26.0366 129.325 25.654C129.752 25.2714 129.966 24.7875 129.966 24.2023H132.498C132.498 25.3952 132.059 26.3967 131.181 27.207C130.304 28.0172 129.055 28.4223 127.434 28.4223ZM146.005 35.0055H140.097V32.4735H154.613V35.0055H148.705V49.3535H146.005V35.0055ZM159.861 32.4735H162.562V45.1335L162.528 45.4711H162.595L171.677 32.4735H174.715V49.3535H172.014V36.6935L172.048 36.3559H171.981L162.899 49.3535H159.861V32.4735ZM194.308 32.4735H202.579C204.199 32.4735 205.449 32.8787 206.326 33.6889C207.204 34.4991 207.643 35.5007 207.643 36.6935C207.643 37.4588 207.519 38.0777 207.272 38.5503C207.047 39.023 206.776 39.3943 206.461 39.6644C206.169 39.9345 205.887 40.1258 205.617 40.2383C205.347 40.3284 205.178 40.3734 205.111 40.3734V40.4071C205.156 40.4071 205.347 40.4634 205.685 40.5759C206.022 40.666 206.383 40.8573 206.765 41.1498C207.17 41.4424 207.53 41.8588 207.846 42.399C208.161 42.9166 208.318 43.6031 208.318 44.4583C208.318 45.8987 207.823 47.0803 206.833 48.0031C205.865 48.9034 204.458 49.3535 202.613 49.3535H194.308V32.4735ZM202.579 46.8215C203.592 46.8215 204.346 46.5965 204.841 46.1463C205.359 45.6737 205.617 45.0547 205.617 44.2895C205.617 43.5243 205.359 42.9166 204.841 42.4665C204.346 41.9938 203.592 41.7575 202.579 41.7575H197.009V46.8215H202.579ZM202.41 39.3943C203.265 39.3943 203.896 39.203 204.301 38.8204C204.728 38.4153 204.942 37.8751 204.942 37.1999C204.942 36.5247 204.728 35.9958 204.301 35.6132C203.896 35.2081 203.265 35.0055 202.41 35.0055H197.009V39.3943H202.41ZM226.909 32.4735H230.96L236.024 42.9391H236.868L241.932 32.4735H245.983V49.3535H243.282V35.8495L243.316 35.5119H243.248L238.218 45.9775H234.673L229.643 35.5119H229.576L229.609 35.8495V49.3535H226.909V32.4735ZM260.502 49.6911C259.4 49.6911 258.353 49.4773 257.363 49.0497C256.395 48.5995 255.54 47.9919 254.797 47.2266C254.054 46.4389 253.469 45.5049 253.041 44.4246C252.614 43.3442 252.4 42.1739 252.4 40.9135C252.4 39.6532 252.614 38.4828 253.041 37.4025C253.469 36.3222 254.054 35.3994 254.797 34.6342C255.54 33.8464 256.395 33.2388 257.363 32.8111C258.353 32.361 259.4 32.1359 260.502 32.1359C261.605 32.1359 262.539 32.2935 263.304 32.6086C264.07 32.9237 264.689 33.2725 265.161 33.6551C265.656 34.0377 266.005 34.3979 266.208 34.7355C266.433 35.0505 266.545 35.2081 266.545 35.2081H266.579V32.4735H269.28V49.3535H266.579V46.6527H266.545C266.545 46.6527 266.433 46.8215 266.208 47.1591C266.005 47.4742 265.656 47.8231 265.161 48.2057C264.689 48.5658 264.07 48.9034 263.304 49.2185C262.539 49.5336 261.605 49.6911 260.502 49.6911ZM260.84 47.1591C261.65 47.1591 262.404 47.0128 263.102 46.7202C263.8 46.4051 264.407 45.9775 264.925 45.4374C265.443 44.8747 265.848 44.2107 266.14 43.4455C266.433 42.6803 266.579 41.8363 266.579 40.9135C266.579 39.9908 266.433 39.1468 266.14 38.3815C265.848 37.6163 265.443 36.9636 264.925 36.4235C264.407 35.8608 263.8 35.4332 263.102 35.1406C262.404 34.8255 261.65 34.6679 260.84 34.6679C260.03 34.6679 259.276 34.8255 258.578 35.1406C257.88 35.4332 257.273 35.8608 256.755 36.4235C256.237 36.9636 255.832 37.6163 255.54 38.3815C255.247 39.1468 255.101 39.9908 255.101 40.9135C255.101 41.8363 255.247 42.6803 255.54 43.4455C255.832 44.2107 256.237 44.8747 256.755 45.4374C257.273 45.9775 257.88 46.4051 258.578 46.7202C259.276 47.0128 260.03 47.1591 260.84 47.1591ZM276.719 32.4735H288.366V35.0055H279.42V49.3535H276.719V32.4735ZM300.851 49.6911C299.748 49.6911 298.701 49.4773 297.711 49.0497C296.743 48.5995 295.888 47.9919 295.145 47.2266C294.403 46.4389 293.817 45.5049 293.39 44.4246C292.962 43.3442 292.748 42.1739 292.748 40.9135C292.748 39.6532 292.962 38.4828 293.39 37.4025C293.817 36.3222 294.403 35.3994 295.145 34.6342C295.888 33.8464 296.743 33.2388 297.711 32.8111C298.701 32.361 299.748 32.1359 300.851 32.1359C301.954 32.1359 302.888 32.2935 303.653 32.6086C304.418 32.9237 305.037 33.2725 305.51 33.6551C306.005 34.0377 306.354 34.3979 306.556 34.7355C306.781 35.0505 306.894 35.2081 306.894 35.2081H306.928V32.4735H309.628V49.3535H306.928V46.6527H306.894C306.894 46.6527 306.781 46.8215 306.556 47.1591C306.354 47.4742 306.005 47.8231 305.51 48.2057C305.037 48.5658 304.418 48.9034 303.653 49.2185C302.888 49.5336 301.954 49.6911 300.851 49.6911ZM301.188 47.1591C301.999 47.1591 302.753 47.0128 303.45 46.7202C304.148 46.4051 304.756 45.9775 305.273 45.4374C305.791 44.8747 306.196 44.2107 306.489 43.4455C306.781 42.6803 306.928 41.8363 306.928 40.9135C306.928 39.9908 306.781 39.1468 306.489 38.3815C306.196 37.6163 305.791 36.9636 305.273 36.4235C304.756 35.8608 304.148 35.4332 303.45 35.1406C302.753 34.8255 301.999 34.6679 301.188 34.6679C300.378 34.6679 299.624 34.8255 298.926 35.1406C298.229 35.4332 297.621 35.8608 297.103 36.4235C296.586 36.9636 296.181 37.6163 295.888 38.3815C295.595 39.1468 295.449 39.9908 295.449 40.9135C295.449 41.8363 295.595 42.6803 295.888 43.4455C296.181 44.2107 296.586 44.8747 297.103 45.4374C297.621 45.9775 298.229 46.4051 298.926 46.7202C299.624 47.0128 300.378 47.1591 301.188 47.1591ZM322.807 49.6911C321.951 49.6911 321.197 49.6123 320.545 49.4548C319.892 49.2972 319.307 49.0947 318.789 48.8471C318.294 48.577 317.855 48.2732 317.473 47.9356C317.112 47.598 316.809 47.2604 316.561 46.9228C315.976 46.1126 315.582 45.1785 315.379 44.1207H318.08C318.215 44.7059 318.474 45.2123 318.857 45.6399C319.172 46.0225 319.633 46.3714 320.241 46.6865C320.871 47.0016 321.726 47.1591 322.807 47.1591C324.247 47.1591 325.305 46.8778 325.98 46.3151C326.678 45.7525 327.027 45.1335 327.027 44.4583C327.027 43.7831 326.712 43.1979 326.081 42.7028C325.451 42.1852 324.416 41.9263 322.975 41.9263H320.95V39.3943H322.975C324.326 39.3943 325.282 39.1693 325.845 38.7191C326.408 38.269 326.689 37.7063 326.689 37.0311C326.689 36.446 326.374 35.9058 325.744 35.4107C325.136 34.9155 324.157 34.6679 322.807 34.6679C321.906 34.6679 321.186 34.803 320.646 35.0731C320.106 35.3431 319.678 35.6357 319.363 35.9508C319.003 36.3334 318.744 36.7498 318.587 37.1999H315.886C316.088 36.2547 316.482 35.4107 317.067 34.6679C317.315 34.3528 317.608 34.049 317.945 33.7564C318.283 33.4413 318.688 33.1712 319.161 32.9462C319.633 32.6986 320.162 32.5073 320.747 32.3723C321.355 32.2147 322.041 32.1359 322.807 32.1359C323.909 32.1359 324.866 32.271 325.676 32.5411C326.509 32.7886 327.195 33.1262 327.736 33.5539C328.298 33.9815 328.715 34.4879 328.985 35.0731C329.255 35.6357 329.39 36.2321 329.39 36.8623C329.39 37.5825 329.255 38.179 328.985 38.6516C328.715 39.1242 328.4 39.5069 328.039 39.7994C327.702 40.0695 327.375 40.2608 327.06 40.3734C326.768 40.4859 326.588 40.5534 326.52 40.5759V40.6097C326.565 40.6097 326.757 40.666 327.094 40.7785C327.432 40.891 327.792 41.1048 328.174 41.4199C328.58 41.7125 328.94 42.1176 329.255 42.6353C329.57 43.1529 329.727 43.8169 329.727 44.6271C329.727 45.3023 329.581 45.9438 329.289 46.5514C328.996 47.1591 328.557 47.6993 327.972 48.1719C327.387 48.6446 326.667 49.0159 325.811 49.286C324.956 49.5561 323.954 49.6911 322.807 49.6911ZM336.154 32.4735H338.854V45.1335L338.821 45.4711H338.888L347.97 32.4735H351.008V49.3535H348.307V36.6935L348.341 36.3559H348.273L339.192 49.3535H336.154V32.4735ZM358.438 32.4735H361.139V39.3943H370.591V32.4735H373.292V49.3535H370.591V41.9263H361.139V49.3535H358.438V32.4735Z" fill="white"/>
<path fill-rule="evenodd" clip-rule="evenodd" d="M427.158 42.5C427.158 51.1476 420.148 58.1579 411.5 58.1579C402.852 58.1579 395.842 51.1476 395.842 42.5C395.842 33.8524 402.852 26.8421 411.5 26.8421C420.148 26.8421 427.158 33.8524 427.158 42.5ZM429 42.5C429 52.165 421.165 60 411.5 60C401.835 60 394 52.165 394 42.5C394 32.835 401.835 25 411.5 25C421.165 25 429 32.835 429 42.5ZM411.415 51.2308L419.181 43.752H400.993C400.618 43.752 400.286 43.6126 399.996 43.3338C399.707 43.055 399.562 42.7352 399.562 42.3744C399.562 42.0136 399.707 41.6937 399.996 41.4149C400.286 41.1361 400.618 40.9967 400.993 40.9967H419.181L411.415 33.518C411.124 33.2405 410.979 32.9128 410.981 32.5349C410.982 32.157 411.127 31.8287 411.415 31.5499C411.703 31.2711 412.043 31.1317 412.436 31.1317C412.828 31.1317 413.169 31.2711 413.459 31.5499L423.677 41.3903C423.965 41.6691 424.109 41.9972 424.11 42.3744C424.111 42.7516 423.966 43.0796 423.677 43.3584L413.459 53.1989C413.169 53.4777 412.828 53.6168 412.437 53.6161C412.045 53.6154 411.704 53.4764 411.415 53.1989C411.125 52.9214 410.981 52.5937 410.981 52.2158C410.981 51.8379 411.125 51.5096 411.415 51.2308Z" fill="white"/>
</svg>
