<svg width="357" height="85" viewBox="0 0 357 85" fill="none" xmlns="http://www.w3.org/2000/svg">
<rect x="0.308594" y="0.790039" width="356.274" height="84.2102" rx="26.8459" fill="#8000FF"/>
<path d="M35.4012 50.4812C34.546 50.4812 33.792 50.4024 33.1393 50.2448C32.4866 50.0873 31.9014 49.8847 31.3838 49.6372C30.8886 49.3671 30.4498 49.0632 30.0671 48.7256C29.707 48.388 29.4032 48.0504 29.1556 47.7128C28.5705 46.9026 28.1766 45.9686 27.974 44.9108H30.6748C30.8099 45.4959 31.0687 46.0023 31.4513 46.43C31.7664 46.8126 32.2278 47.1614 32.8355 47.4765C33.4656 47.7916 34.3209 47.9492 35.4012 47.9492C36.8416 47.9492 37.8995 47.6678 38.5747 47.1052C39.2724 46.5425 39.6212 45.9236 39.6212 45.2484C39.6212 44.5732 39.3061 43.988 38.6759 43.4928C38.0457 42.9752 37.0104 42.7164 35.57 42.7164H33.5444V40.1844H35.57C36.9204 40.1844 37.8769 39.9593 38.4396 39.5092C39.0023 39.059 39.2836 38.4964 39.2836 37.8212C39.2836 37.236 38.9685 36.6958 38.3383 36.2007C37.7307 35.7055 36.7516 35.458 35.4012 35.458C34.501 35.458 33.7807 35.593 33.2406 35.8631C32.7004 36.1332 32.2728 36.4258 31.9577 36.7408C31.5976 37.1235 31.3388 37.5398 31.1812 37.99H28.4804C28.683 37.0447 29.0769 36.2007 29.662 35.458C29.9096 35.1429 30.2022 34.839 30.5398 34.5465C30.8774 34.2314 31.2825 33.9613 31.7551 33.7362C32.2278 33.4886 32.7567 33.2973 33.3419 33.1623C33.9495 33.0047 34.636 32.926 35.4012 32.926C36.504 32.926 37.4606 33.061 38.2708 33.3311C39.1036 33.5787 39.79 33.9163 40.3302 34.3439C40.8928 34.7715 41.3092 35.2779 41.5793 35.8631C41.8494 36.4258 41.9844 37.0222 41.9844 37.6524C41.9844 38.3726 41.8494 38.969 41.5793 39.4416C41.3092 39.9143 40.9941 40.2969 40.634 40.5895C40.2964 40.8596 39.9701 41.0509 39.655 41.1634C39.3624 41.2759 39.1823 41.3435 39.1148 41.366V41.3997C39.1598 41.3997 39.3511 41.456 39.6887 41.5685C40.0263 41.6811 40.3864 41.8949 40.7691 42.21C41.1742 42.5025 41.5343 42.9077 41.8494 43.4253C42.1645 43.943 42.322 44.6069 42.322 45.4172C42.322 46.0924 42.1757 46.7338 41.8831 47.3415C41.5905 47.9492 41.1517 48.4893 40.5665 48.962C39.9813 49.4346 39.2611 49.806 38.4059 50.076C37.5506 50.3461 36.5491 50.4812 35.4012 50.4812ZM55.8379 50.4812C54.735 50.4812 53.6885 50.2673 52.6982 49.8397C51.7304 49.3896 50.8751 48.7819 50.1324 48.0167C49.3897 47.2289 48.8045 46.2949 48.3769 45.2146C47.9493 44.1343 47.7355 42.9639 47.7355 41.7036C47.7355 40.4432 47.9493 39.2728 48.3769 38.1925C48.8045 37.1122 49.3897 36.1894 50.1324 35.4242C50.8751 34.6365 51.7304 34.0288 52.6982 33.6012C53.6885 33.151 54.735 32.926 55.8379 32.926C56.9407 32.926 57.8747 33.0835 58.6399 33.3986C59.4052 33.7137 60.0241 34.0626 60.4967 34.4452C60.9919 34.8278 61.3407 35.1879 61.5433 35.5255C61.7684 35.8406 61.8809 35.9981 61.8809 35.9981H61.9147V33.2636H64.6155V50.1436H61.9147V47.4428H61.8809C61.8809 47.4428 61.7684 47.6116 61.5433 47.9492C61.3407 48.2643 60.9919 48.6131 60.4967 48.9957C60.0241 49.3558 59.4052 49.6934 58.6399 50.0085C57.8747 50.3236 56.9407 50.4812 55.8379 50.4812ZM56.1755 47.9492C56.9857 47.9492 57.7397 47.8029 58.4374 47.5103C59.1351 47.1952 59.7428 46.7676 60.2604 46.2274C60.7781 45.6647 61.1832 45.0008 61.4758 44.2356C61.7684 43.4703 61.9147 42.6263 61.9147 41.7036C61.9147 40.7808 61.7684 39.9368 61.4758 39.1716C61.1832 38.4063 60.7781 37.7536 60.2604 37.2135C59.7428 36.6508 59.1351 36.2232 58.4374 35.9306C57.7397 35.6155 56.9857 35.458 56.1755 35.458C55.3652 35.458 54.6113 35.6155 53.9135 35.9306C53.2158 36.2232 52.6082 36.6508 52.0905 37.2135C51.5729 37.7536 51.1677 38.4063 50.8751 39.1716C50.5826 39.9368 50.4363 40.7808 50.4363 41.7036C50.4363 42.6263 50.5826 43.4703 50.8751 44.2356C51.1677 45.0008 51.5729 45.6647 52.0905 46.2274C52.6082 46.7676 53.2158 47.1952 53.9135 47.5103C54.6113 47.8029 55.3652 47.9492 56.1755 47.9492ZM72.0545 33.2636H74.7553V40.0156H78.1313L83.5329 33.2636H86.7401L80.4945 41.1972L87.2465 50.1436H83.8705L78.1313 42.5476H74.7553V50.1436H72.0545V33.2636ZM98.9227 50.4812C97.8199 50.4812 96.7733 50.2673 95.783 49.8397C94.8152 49.3896 93.96 48.7819 93.2173 48.0167C92.4745 47.2289 91.8894 46.2949 91.4617 45.2146C91.0341 44.1343 90.8203 42.9639 90.8203 41.7036C90.8203 40.4432 91.0341 39.2728 91.4617 38.1925C91.8894 37.1122 92.4745 36.1894 93.2173 35.4242C93.96 34.6365 94.8152 34.0288 95.783 33.6012C96.7733 33.151 97.8199 32.926 98.9227 32.926C100.026 32.926 100.96 33.0835 101.725 33.3986C102.49 33.7137 103.109 34.0626 103.582 34.4452C104.077 34.8278 104.426 35.1879 104.628 35.5255C104.853 35.8406 104.966 35.9981 104.966 35.9981H104.999V33.2636H107.7V50.1436H104.999V47.4428H104.966C104.966 47.4428 104.853 47.6116 104.628 47.9492C104.426 48.2643 104.077 48.6131 103.582 48.9957C103.109 49.3558 102.49 49.6934 101.725 50.0085C100.96 50.3236 100.026 50.4812 98.9227 50.4812ZM99.2603 47.9492C100.071 47.9492 100.825 47.8029 101.522 47.5103C102.22 47.1952 102.828 46.7676 103.345 46.2274C103.863 45.6647 104.268 45.0008 104.561 44.2356C104.853 43.4703 104.999 42.6263 104.999 41.7036C104.999 40.7808 104.853 39.9368 104.561 39.1716C104.268 38.4063 103.863 37.7536 103.345 37.2135C102.828 36.6508 102.22 36.2232 101.522 35.9306C100.825 35.6155 100.071 35.458 99.2603 35.458C98.4501 35.458 97.6961 35.6155 96.9984 35.9306C96.3007 36.2232 95.693 36.6508 95.1753 37.2135C94.6577 37.7536 94.2526 38.4063 93.96 39.1716C93.6674 39.9368 93.5211 40.7808 93.5211 41.7036C93.5211 42.6263 93.6674 43.4703 93.96 44.2356C94.2526 45.0008 94.6577 45.6647 95.1753 46.2274C95.693 46.7676 96.3007 47.1952 96.9984 47.5103C97.6961 47.8029 98.4501 47.9492 99.2603 47.9492ZM120.879 50.4812C120.023 50.4812 119.269 50.4024 118.617 50.2448C117.964 50.0873 117.379 49.8847 116.861 49.6372C116.366 49.3671 115.927 49.0632 115.544 48.7256C115.184 48.388 114.881 48.0504 114.633 47.7128C114.048 46.9026 113.654 45.9686 113.451 44.9108H116.152C116.287 45.4959 116.546 46.0023 116.929 46.43C117.244 46.8126 117.705 47.1614 118.313 47.4765C118.943 47.7916 119.798 47.9492 120.879 47.9492C122.319 47.9492 123.377 47.6678 124.052 47.1052C124.75 46.5425 125.099 45.9236 125.099 45.2484C125.099 44.5732 124.783 43.988 124.153 43.4928C123.523 42.9752 122.488 42.7164 121.047 42.7164H119.022V40.1844H121.047C122.398 40.1844 123.354 39.9593 123.917 39.5092C124.48 39.059 124.761 38.4964 124.761 37.8212C124.761 37.236 124.446 36.6958 123.816 36.2007C123.208 35.7055 122.229 35.458 120.879 35.458C119.978 35.458 119.258 35.593 118.718 35.8631C118.178 36.1332 117.75 36.4258 117.435 36.7408C117.075 37.1235 116.816 37.5398 116.659 37.99H113.958C114.16 37.0447 114.554 36.2007 115.139 35.458C115.387 35.1429 115.68 34.839 116.017 34.5465C116.355 34.2314 116.76 33.9613 117.232 33.7362C117.705 33.4886 118.234 33.2973 118.819 33.1623C119.427 33.0047 120.113 32.926 120.879 32.926C121.981 32.926 122.938 33.061 123.748 33.3311C124.581 33.5787 125.267 33.9163 125.807 34.3439C126.37 34.7715 126.787 35.2779 127.057 35.8631C127.327 36.4258 127.462 37.0222 127.462 37.6524C127.462 38.3726 127.327 38.969 127.057 39.4416C126.787 39.9143 126.471 40.2969 126.111 40.5895C125.774 40.8596 125.447 41.0509 125.132 41.1634C124.84 41.2759 124.66 41.3435 124.592 41.366V41.3997C124.637 41.3997 124.828 41.456 125.166 41.5685C125.504 41.6811 125.864 41.8949 126.246 42.21C126.651 42.5025 127.012 42.9077 127.327 43.4253C127.642 43.943 127.799 44.6069 127.799 45.4172C127.799 46.0924 127.653 46.7338 127.36 47.3415C127.068 47.9492 126.629 48.4893 126.044 48.962C125.459 49.4346 124.738 49.806 123.883 50.076C123.028 50.3461 122.026 50.4812 120.879 50.4812ZM141.315 50.4812C140.212 50.4812 139.166 50.2673 138.176 49.8397C137.208 49.3896 136.352 48.7819 135.61 48.0167C134.867 47.2289 134.282 46.2949 133.854 45.2146C133.427 44.1343 133.213 42.9639 133.213 41.7036C133.213 40.4432 133.427 39.2728 133.854 38.1925C134.282 37.1122 134.867 36.1894 135.61 35.4242C136.352 34.6365 137.208 34.0288 138.176 33.6012C139.166 33.151 140.212 32.926 141.315 32.926C142.418 32.926 143.352 33.0835 144.117 33.3986C144.882 33.7137 145.501 34.0626 145.974 34.4452C146.469 34.8278 146.818 35.1879 147.021 35.5255C147.246 35.8406 147.358 35.9981 147.358 35.9981H147.392V33.2636H150.093V50.1436H147.392V47.4428H147.358C147.358 47.4428 147.246 47.6116 147.021 47.9492C146.818 48.2643 146.469 48.6131 145.974 48.9957C145.501 49.3558 144.882 49.6934 144.117 50.0085C143.352 50.3236 142.418 50.4812 141.315 50.4812ZM141.653 47.9492C142.463 47.9492 143.217 47.8029 143.915 47.5103C144.612 47.1952 145.22 46.7676 145.738 46.2274C146.255 45.6647 146.661 45.0008 146.953 44.2356C147.246 43.4703 147.392 42.6263 147.392 41.7036C147.392 40.7808 147.246 39.9368 146.953 39.1716C146.661 38.4063 146.255 37.7536 145.738 37.2135C145.22 36.6508 144.612 36.2232 143.915 35.9306C143.217 35.6155 142.463 35.458 141.653 35.458C140.843 35.458 140.089 35.6155 139.391 35.9306C138.693 36.2232 138.085 36.6508 137.568 37.2135C137.05 37.7536 136.645 38.4063 136.352 39.1716C136.06 39.9368 135.914 40.7808 135.914 41.7036C135.914 42.6263 136.06 43.4703 136.352 44.2356C136.645 45.0008 137.05 45.6647 137.568 46.2274C138.085 46.7676 138.693 47.1952 139.391 47.5103C140.089 47.8029 140.843 47.9492 141.653 47.9492ZM161.245 35.7956H155.337V33.2636H169.854V35.7956H163.946V50.1436H161.245V35.7956ZM175.102 33.2636H177.802V39.0028H182.529C183.497 39.0028 184.374 39.1491 185.162 39.4416C185.95 39.7342 186.625 40.1394 187.188 40.657C187.75 41.1522 188.178 41.7373 188.47 42.4125C188.786 43.0877 188.943 43.8079 188.943 44.5732C188.943 45.3384 188.786 46.0586 188.47 46.7338C188.178 47.409 187.75 48.0054 187.188 48.5231C186.625 49.0182 185.95 49.4121 185.162 49.7047C184.374 49.9973 183.497 50.1436 182.529 50.1436H175.102V33.2636ZM182.529 47.6116C183.722 47.6116 184.633 47.319 185.263 46.7338C185.916 46.1486 186.242 45.4284 186.242 44.5732C186.242 43.7179 185.916 42.9977 185.263 42.4125C184.633 41.8274 183.722 41.5348 182.529 41.5348H177.802V47.6116H182.529ZM214.437 50.4812C213.244 50.4812 212.13 50.2673 211.095 49.8397C210.082 49.3896 209.193 48.7819 208.428 48.0167C207.685 47.2289 207.089 46.2949 206.639 45.2146C206.211 44.1343 205.997 42.9639 205.997 41.7036C205.997 40.4432 206.211 39.2728 206.639 38.1925C207.089 37.1122 207.685 36.1894 208.428 35.4242C209.193 34.6365 210.082 34.0288 211.095 33.6012C212.13 33.151 213.244 32.926 214.437 32.926C215.27 32.926 216.024 33.016 216.699 33.1961C217.397 33.3536 218.016 33.5787 218.556 33.8713C219.096 34.1413 219.569 34.4564 219.974 34.8165C220.379 35.1766 220.728 35.5367 221.02 35.8969C221.718 36.7746 222.224 37.7536 222.54 38.834H219.839C219.569 38.2038 219.197 37.6411 218.725 37.146C218.32 36.7183 217.768 36.3357 217.07 35.9981C216.373 35.638 215.495 35.458 214.437 35.458C213.627 35.458 212.873 35.6155 212.175 35.9306C211.478 36.2232 210.87 36.6508 210.352 37.2135C209.835 37.7536 209.429 38.4063 209.137 39.1716C208.844 39.9368 208.698 40.7808 208.698 41.7036C208.698 42.6488 208.856 43.5041 209.171 44.2693C209.486 45.0345 209.902 45.6872 210.42 46.2274C210.937 46.7676 211.545 47.1952 212.243 47.5103C212.94 47.8029 213.672 47.9492 214.437 47.9492C215.54 47.9492 216.44 47.7579 217.138 47.3752C217.858 46.9926 218.432 46.565 218.86 46.0924C219.355 45.5522 219.737 44.9333 220.008 44.2356H222.708C222.393 45.4284 221.876 46.475 221.155 47.3752C220.84 47.7579 220.48 48.1405 220.075 48.5231C219.67 48.8832 219.186 49.2095 218.623 49.5021C218.083 49.7947 217.464 50.031 216.767 50.2111C216.069 50.3911 215.292 50.4812 214.437 50.4812ZM232.513 35.7956H226.605V33.2636H241.122V35.7956H235.214V50.1436H232.513V35.7956ZM253.459 50.4812C252.356 50.4812 251.31 50.2673 250.319 49.8397C249.351 49.3896 248.496 48.7819 247.753 48.0167C247.011 47.2289 246.426 46.2949 245.998 45.2146C245.57 44.1343 245.357 42.9639 245.357 41.7036C245.357 40.4432 245.57 39.2728 245.998 38.1925C246.426 37.1122 247.011 36.1894 247.753 35.4242C248.496 34.6365 249.351 34.0288 250.319 33.6012C251.31 33.151 252.356 32.926 253.459 32.926C254.562 32.926 255.496 33.0835 256.261 33.3986C257.026 33.7137 257.645 34.0626 258.118 34.4452C258.613 34.8278 258.962 35.1879 259.164 35.5255C259.389 35.8406 259.502 35.9981 259.502 35.9981H259.536V33.2636H262.236V50.1436H259.536V47.4428H259.502C259.502 47.4428 259.389 47.6116 259.164 47.9492C258.962 48.2643 258.613 48.6131 258.118 48.9957C257.645 49.3558 257.026 49.6934 256.261 50.0085C255.496 50.3236 254.562 50.4812 253.459 50.4812ZM253.797 47.9492C254.607 47.9492 255.361 47.8029 256.058 47.5103C256.756 47.1952 257.364 46.7676 257.881 46.2274C258.399 45.6647 258.804 45.0008 259.097 44.2356C259.389 43.4703 259.536 42.6263 259.536 41.7036C259.536 40.7808 259.389 39.9368 259.097 39.1716C258.804 38.4063 258.399 37.7536 257.881 37.2135C257.364 36.6508 256.756 36.2232 256.058 35.9306C255.361 35.6155 254.607 35.458 253.797 35.458C252.986 35.458 252.232 35.6155 251.535 35.9306C250.837 36.2232 250.229 36.6508 249.712 37.2135C249.194 37.7536 248.789 38.4063 248.496 39.1716C248.204 39.9368 248.057 40.7808 248.057 41.7036C248.057 42.6263 248.204 43.4703 248.496 44.2356C248.789 45.0008 249.194 45.6647 249.712 46.2274C250.229 46.7676 250.837 47.1952 251.535 47.5103C252.232 47.8029 252.986 47.9492 253.797 47.9492ZM269.676 33.2636H272.376V40.0156H275.752L281.154 33.2636H284.361L278.116 41.1972L284.868 50.1436H281.492L275.752 42.5476H272.376V50.1436H269.676V33.2636ZM296.544 50.4812C295.441 50.4812 294.394 50.2673 293.404 49.8397C292.436 49.3896 291.581 48.7819 290.838 48.0167C290.096 47.2289 289.51 46.2949 289.083 45.2146C288.655 44.1343 288.441 42.9639 288.441 41.7036C288.441 40.4432 288.655 39.2728 289.083 38.1925C289.51 37.1122 290.096 36.1894 290.838 35.4242C291.581 34.6365 292.436 34.0288 293.404 33.6012C294.394 33.151 295.441 32.926 296.544 32.926C297.647 32.926 298.581 33.0835 299.346 33.3986C300.111 33.7137 300.73 34.0626 301.203 34.4452C301.698 34.8278 302.047 35.1879 302.249 35.5255C302.474 35.8406 302.587 35.9981 302.587 35.9981H302.621V33.2636H305.321V50.1436H302.621V47.4428H302.587C302.587 47.4428 302.474 47.6116 302.249 47.9492C302.047 48.2643 301.698 48.6131 301.203 48.9957C300.73 49.3558 300.111 49.6934 299.346 50.0085C298.581 50.3236 297.647 50.4812 296.544 50.4812ZM296.881 47.9492C297.692 47.9492 298.446 47.8029 299.143 47.5103C299.841 47.1952 300.449 46.7676 300.966 46.2274C301.484 45.6647 301.889 45.0008 302.182 44.2356C302.474 43.4703 302.621 42.6263 302.621 41.7036C302.621 40.7808 302.474 39.9368 302.182 39.1716C301.889 38.4063 301.484 37.7536 300.966 37.2135C300.449 36.6508 299.841 36.2232 299.143 35.9306C298.446 35.6155 297.692 35.458 296.881 35.458C296.071 35.458 295.317 35.6155 294.619 35.9306C293.922 36.2232 293.314 36.6508 292.796 37.2135C292.279 37.7536 291.874 38.4063 291.581 39.1716C291.288 39.9368 291.142 40.7808 291.142 41.7036C291.142 42.6263 291.288 43.4703 291.581 44.2356C291.874 45.0008 292.279 45.6647 292.796 46.2274C293.314 46.7676 293.922 47.1952 294.619 47.5103C295.317 47.8029 296.071 47.9492 296.881 47.9492ZM312.76 33.2636H315.461V40.1844H324.914V33.2636H327.615V50.1436H324.914V42.7164H315.461V50.1436H312.76V33.2636Z" fill="white"/>
</svg>
