<svg width="461" height="134" viewBox="0 0 461 134" fill="none" xmlns="http://www.w3.org/2000/svg">
<path fill-rule="evenodd" clip-rule="evenodd" d="M43.4365 0.40625C31.5175 0.40625 21.8552 10.0685 21.8552 21.9876C21.8552 33.48 30.8382 42.8743 42.1657 43.5321V43.5698H45.5244C47.798 43.5698 49.6412 45.4129 49.6412 47.6866C49.6412 49.9602 47.798 51.8033 45.5244 51.8033H42.1657V52.001H35.1551C15.7395 52.001 0 67.7404 0 87.1561V98.8459C0 118.262 15.7395 134.001 35.1551 134.001H425.845C445.261 134.001 461 118.262 461 98.8459V87.1561C461 67.7404 445.261 52.001 425.845 52.001H112.41V51.8029H109.049C106.775 51.8029 104.932 49.9598 104.932 47.6861C104.932 45.4125 106.775 43.5694 109.049 43.5694H112.41V43.5649C124.135 43.3404 133.57 33.7659 133.57 21.9876C133.57 10.0685 123.908 0.40625 111.989 0.40625H43.4365Z" fill="white"/>
<path d="M65.3546 27.1785C64.6882 27.1785 64.0695 27.0654 63.4983 26.8394C62.9272 26.6014 62.4334 26.2801 62.0169 25.8755C61.6123 25.4591 61.2911 24.9653 61.0531 24.3941C60.827 23.8229 60.7139 23.2042 60.7139 22.5378C60.7139 21.8715 60.827 21.2527 61.0531 20.6816C61.2911 20.1104 61.6123 19.6226 62.0169 19.218C62.4334 18.8015 62.9272 18.4803 63.4983 18.2542C64.0695 18.0162 64.6882 17.8972 65.3546 17.8972C66.0209 17.8972 66.6397 18.0162 67.2108 18.2542C67.782 18.4803 68.2699 18.8015 68.6744 19.218C69.0909 19.6226 69.4122 20.1104 69.6383 20.6816C69.8762 21.2527 69.9952 21.8715 69.9952 22.5378C69.9952 23.2042 69.8762 23.8229 69.6383 24.3941C69.4122 24.9653 69.0909 25.4591 68.6744 25.8755C68.2699 26.2801 67.782 26.6014 67.2108 26.8394C66.6397 27.0654 66.0209 27.1785 65.3546 27.1785ZM65.3546 25.8398C65.8187 25.8398 66.247 25.7625 66.6397 25.6078C67.0324 25.4412 67.3715 25.2151 67.6571 24.9296C67.9426 24.6321 68.1628 24.2811 68.3175 23.8765C68.484 23.4719 68.5673 23.0257 68.5673 22.5378C68.5673 22.05 68.484 21.6038 68.3175 21.1992C68.1628 20.7946 67.9426 20.4496 67.6571 20.164C67.3715 19.8665 67.0324 19.6404 66.6397 19.4857C66.247 19.3191 65.8187 19.2358 65.3546 19.2358C64.8905 19.2358 64.4622 19.3191 64.0695 19.4857C63.6768 19.6404 63.3377 19.8665 63.0521 20.164C62.7665 20.4496 62.5405 20.7946 62.3739 21.1992C62.2192 21.6038 62.1418 22.05 62.1418 22.5378C62.1418 23.0257 62.2192 23.4719 62.3739 23.8765C62.5405 24.2811 62.7665 24.6321 63.0521 24.9296C63.3377 25.2151 63.6768 25.4412 64.0695 25.6078C64.4622 25.7625 64.8905 25.8398 65.3546 25.8398ZM79.8099 18.0757H81.2378V21.7347H86.2354V18.0757H87.6633V27H86.2354V23.0733H81.2378V27H79.8099V18.0757ZM95.3396 27.1785C94.7565 27.1785 94.2032 27.0654 93.6797 26.8394C93.168 26.6014 92.7158 26.2801 92.3232 25.8755C91.9305 25.4591 91.6211 24.9653 91.395 24.3941C91.1689 23.8229 91.0559 23.2042 91.0559 22.5378C91.0559 21.8715 91.1689 21.2527 91.395 20.6816C91.6211 20.1104 91.9305 19.6226 92.3232 19.218C92.7158 18.8015 93.168 18.4803 93.6797 18.2542C94.2032 18.0162 94.7565 17.8972 95.3396 17.8972C95.9226 17.8972 96.4164 17.9805 96.821 18.1471C97.2256 18.3137 97.5528 18.4981 97.8027 18.7004C98.0645 18.9027 98.2489 19.0931 98.356 19.2715C98.475 19.4381 98.5345 19.5214 98.5345 19.5214H98.5523V18.0757H99.9802V27H98.5523V25.5721H98.5345C98.5345 25.5721 98.475 25.6614 98.356 25.8398C98.2489 26.0064 98.0645 26.1909 97.8027 26.3931C97.5528 26.5835 97.2256 26.762 96.821 26.9286C96.4164 27.0952 95.9226 27.1785 95.3396 27.1785ZM95.5181 25.8398C95.9464 25.8398 96.345 25.7625 96.7139 25.6078C97.0828 25.4412 97.4041 25.2151 97.6777 24.9296C97.9514 24.6321 98.1656 24.2811 98.3203 23.8765C98.475 23.4719 98.5523 23.0257 98.5523 22.5378C98.5523 22.05 98.475 21.6038 98.3203 21.1992C98.1656 20.7946 97.9514 20.4496 97.6777 20.164C97.4041 19.8665 97.0828 19.6404 96.7139 19.4857C96.345 19.3191 95.9464 19.2358 95.5181 19.2358C95.0897 19.2358 94.6911 19.3191 94.3222 19.4857C93.9533 19.6404 93.6321 19.8665 93.3584 20.164C93.0847 20.4496 92.8705 20.7946 92.7158 21.1992C92.5611 21.6038 92.4838 22.05 92.4838 22.5378C92.4838 23.0257 92.5611 23.4719 92.7158 23.8765C92.8705 24.2811 93.0847 24.6321 93.3584 24.9296C93.6321 25.2151 93.9533 25.4412 94.3222 25.6078C94.6911 25.7625 95.0897 25.8398 95.5181 25.8398ZM107.84 27.1785C107.209 27.1785 106.62 27.0654 106.073 26.8394C105.537 26.6014 105.067 26.2801 104.663 25.8755C104.27 25.4591 103.955 24.9653 103.717 24.3941C103.491 23.8229 103.378 23.2042 103.378 22.5378C103.378 21.8715 103.491 21.2527 103.717 20.6816C103.955 20.1104 104.27 19.6226 104.663 19.218C105.067 18.8015 105.537 18.4803 106.073 18.2542C106.62 18.0162 107.209 17.8972 107.84 17.8972C108.28 17.8972 108.679 17.9448 109.036 18.04C109.405 18.1233 109.732 18.2423 110.017 18.397C110.303 18.5398 110.553 18.7063 110.767 18.8967C110.981 19.0871 111.166 19.2775 111.32 19.4679C111.689 19.9319 111.957 20.4496 112.124 21.0207H110.696C110.553 20.6875 110.357 20.3901 110.107 20.1283C109.892 19.9022 109.601 19.6999 109.232 19.5214C108.863 19.331 108.399 19.2358 107.84 19.2358C107.412 19.2358 107.013 19.3191 106.644 19.4857C106.275 19.6404 105.954 19.8665 105.68 20.164C105.407 20.4496 105.192 20.7946 105.038 21.1992C104.883 21.6038 104.806 22.05 104.806 22.5378C104.806 23.0376 104.889 23.4898 105.055 23.8943C105.222 24.2989 105.442 24.644 105.716 24.9296C105.99 25.2151 106.311 25.4412 106.68 25.6078C107.049 25.7625 107.435 25.8398 107.84 25.8398C108.423 25.8398 108.899 25.7387 109.268 25.5364C109.649 25.3341 109.952 25.108 110.178 24.8582C110.44 24.5726 110.642 24.2454 110.785 23.8765H112.213C112.046 24.5071 111.773 25.0604 111.392 25.5364C111.225 25.7387 111.035 25.941 110.821 26.1433C110.606 26.3337 110.351 26.5062 110.053 26.6609C109.768 26.8156 109.44 26.9405 109.071 27.0357C108.703 27.1309 108.292 27.1785 107.84 27.1785Z" fill="black"/>
<path d="M27.3838 79.3311H51.2518V106.766H46.8623V83.4463H31.7733V106.766H27.3838V79.3311ZM63.3337 79.3311H67.7233V83.7206H67.7781C67.7781 83.7206 67.9427 83.4646 68.272 82.9525C68.6377 82.4038 69.2047 81.8368 69.9729 81.2515C70.7776 80.6297 71.8019 80.0627 73.0456 79.5506C74.2893 79.0385 75.8073 78.7824 77.5997 78.7824C79.3921 78.7824 81.0747 79.1482 82.6476 79.8798C84.2571 80.5748 85.6654 81.5624 86.8726 82.8427C88.0797 84.0864 89.0307 85.5862 89.7258 87.342C90.4208 89.0978 90.7683 90.9999 90.7683 93.0484C90.7683 95.0968 90.4208 96.9989 89.7258 98.7547C89.0307 100.511 88.0797 102.029 86.8726 103.309C85.6654 104.553 84.2571 105.54 82.6476 106.272C81.0747 106.967 79.3921 107.314 77.5997 107.314C75.8073 107.314 74.2893 107.058 73.0456 106.546C71.8019 106.034 70.7776 105.485 69.9729 104.9C69.2047 104.278 68.6377 103.711 68.272 103.199C67.9427 102.65 67.7781 102.376 67.7781 102.376H67.7233V117.191H63.3337V79.3311ZM77.051 103.199C78.3679 103.199 79.5933 102.961 80.7272 102.486C81.8612 101.974 82.8488 101.279 83.6902 100.401C84.5315 99.4863 85.1899 98.4072 85.6654 97.1635C86.141 95.9198 86.3787 94.5481 86.3787 93.0484C86.3787 91.5486 86.141 90.1769 85.6654 88.9332C85.1899 87.6895 84.5315 86.6287 83.6902 85.7508C82.8488 84.8363 81.8612 84.1413 80.7272 83.6658C79.5933 83.1536 78.3679 82.8976 77.051 82.8976C75.7341 82.8976 74.5087 83.1536 73.3748 83.6658C72.2408 84.1413 71.2532 84.8363 70.4118 85.7508C69.5705 86.6287 68.9121 87.6895 68.4366 88.9332C67.961 90.1769 67.7233 91.5486 67.7233 93.0484C67.7233 94.5481 67.961 95.9198 68.4366 97.1635C68.9121 98.4072 69.5705 99.4863 70.4118 100.401C71.2532 101.279 72.2408 101.974 73.3748 102.486C74.5087 102.961 75.7341 103.199 77.051 103.199ZM113.833 107.314C111.784 107.314 109.882 106.967 108.126 106.272C106.37 105.54 104.852 104.553 103.572 103.309C102.328 102.029 101.341 100.511 100.609 98.7547C99.9141 96.9989 99.5666 95.0968 99.5666 93.0484C99.5666 90.9999 99.9141 89.0978 100.609 87.342C101.341 85.5862 102.328 84.0864 103.572 82.8427C104.852 81.5624 106.37 80.5748 108.126 79.8798C109.882 79.1482 111.784 78.7824 113.833 78.7824C115.881 78.7824 117.783 79.1482 119.539 79.8798C121.295 80.5748 122.794 81.5624 124.038 82.8427C125.318 84.0864 126.306 85.5862 127.001 87.342C127.733 89.0978 128.099 90.9999 128.099 93.0484C128.099 95.0968 127.733 96.9989 127.001 98.7547C126.306 100.511 125.318 102.029 124.038 103.309C122.794 104.553 121.295 105.54 119.539 106.272C117.783 106.967 115.881 107.314 113.833 107.314ZM113.833 103.199C115.259 103.199 116.576 102.961 117.783 102.486C118.99 101.974 120.033 101.279 120.911 100.401C121.789 99.4863 122.465 98.4072 122.941 97.1635C123.453 95.9198 123.709 94.5481 123.709 93.0484C123.709 91.5486 123.453 90.1769 122.941 88.9332C122.465 87.6895 121.789 86.6287 120.911 85.7508C120.033 84.8363 118.99 84.1413 117.783 83.6658C116.576 83.1536 115.259 82.8976 113.833 82.8976C112.406 82.8976 111.089 83.1536 109.882 83.6658C108.675 84.1413 107.632 84.8363 106.754 85.7508C105.877 86.6287 105.182 87.6895 104.669 88.9332C104.194 90.1769 103.956 91.5486 103.956 93.0484C103.956 94.5481 104.194 95.9198 104.669 97.1635C105.182 98.4072 105.877 99.4863 106.754 100.401C107.632 101.279 108.675 101.974 109.882 102.486C111.089 102.961 112.406 103.199 113.833 103.199ZM150.573 107.314C148.635 107.314 146.824 106.967 145.141 106.272C143.495 105.54 142.05 104.553 140.807 103.309C139.6 102.029 138.63 100.511 137.899 98.7547C137.204 96.9989 136.856 95.0968 136.856 93.0484C136.856 90.9999 137.204 89.0978 137.899 87.342C138.63 85.5862 139.6 84.0864 140.807 82.8427C142.05 81.5624 143.495 80.5748 145.141 79.8798C146.824 79.1482 148.635 78.7824 150.573 78.7824C151.927 78.7824 153.152 78.9287 154.25 79.2214C155.384 79.4774 156.389 79.8432 157.267 80.3187C158.145 80.7577 158.913 81.2698 159.572 81.8551C160.23 82.4403 160.797 83.0256 161.273 83.6109C162.407 85.0375 163.23 86.6287 163.742 88.3845H159.352C158.913 87.3603 158.31 86.4458 157.542 85.641C156.883 84.946 155.987 84.3242 154.853 83.7755C153.719 83.1902 152.293 82.8976 150.573 82.8976C149.257 82.8976 148.031 83.1536 146.897 83.6658C145.763 84.1413 144.776 84.8363 143.934 85.7508C143.093 86.6287 142.434 87.6895 141.959 88.9332C141.483 90.1769 141.246 91.5486 141.246 93.0484C141.246 94.5847 141.502 95.9747 142.014 97.2184C142.526 98.4621 143.203 99.5229 144.044 100.401C144.885 101.279 145.873 101.974 147.007 102.486C148.141 102.961 149.33 103.199 150.573 103.199C152.366 103.199 153.829 102.888 154.963 102.266C156.133 101.645 157.066 100.95 157.761 100.181C158.566 99.3034 159.188 98.2975 159.627 97.1635H164.016C163.504 99.1022 162.663 100.803 161.492 102.266C160.98 102.888 160.395 103.51 159.737 104.132C159.078 104.717 158.292 105.248 157.377 105.723C156.499 106.199 155.493 106.583 154.359 106.875C153.225 107.168 151.963 107.314 150.573 107.314ZM179.952 83.4463H170.35V79.3311H193.943V83.4463H184.341V106.766H179.952V83.4463ZM202.472 79.3311H206.861V83.7206H206.916C206.916 83.7206 207.081 83.4646 207.41 82.9525C207.776 82.4038 208.343 81.8368 209.111 81.2515C209.916 80.6297 210.94 80.0627 212.184 79.5506C213.427 79.0385 214.945 78.7824 216.738 78.7824C218.53 78.7824 220.213 79.1482 221.786 79.8798C223.395 80.5748 224.803 81.5624 226.011 82.8427C227.218 84.0864 228.169 85.5862 228.864 87.342C229.559 89.0978 229.906 90.9999 229.906 93.0484C229.906 95.0968 229.559 96.9989 228.864 98.7547C228.169 100.511 227.218 102.029 226.011 103.309C224.803 104.553 223.395 105.54 221.786 106.272C220.213 106.967 218.53 107.314 216.738 107.314C214.945 107.314 213.427 107.058 212.184 106.546C210.94 106.034 209.916 105.485 209.111 104.9C208.343 104.278 207.776 103.711 207.41 103.199C207.081 102.65 206.916 102.376 206.916 102.376H206.861V117.191H202.472V79.3311ZM216.189 103.199C217.506 103.199 218.731 102.961 219.865 102.486C220.999 101.974 221.987 101.279 222.828 100.401C223.67 99.4863 224.328 98.4072 224.803 97.1635C225.279 95.9198 225.517 94.5481 225.517 93.0484C225.517 91.5486 225.279 90.1769 224.803 88.9332C224.328 87.6895 223.67 86.6287 222.828 85.7508C221.987 84.8363 220.999 84.1413 219.865 83.6658C218.731 83.1536 217.506 82.8976 216.189 82.8976C214.872 82.8976 213.647 83.1536 212.513 83.6658C211.379 84.1413 210.391 84.8363 209.55 85.7508C208.709 86.6287 208.05 87.6895 207.575 88.9332C207.099 90.1769 206.861 91.5486 206.861 93.0484C206.861 94.5481 207.099 95.9198 207.575 97.1635C208.05 98.4072 208.709 99.4863 209.55 100.401C210.391 101.279 211.379 101.974 212.513 102.486C213.647 102.961 214.872 103.199 216.189 103.199ZM251.873 107.314C250.081 107.314 248.38 106.967 246.77 106.272C245.197 105.54 243.807 104.553 242.6 103.309C241.393 102.029 240.442 100.511 239.747 98.7547C239.052 96.9989 238.705 95.0968 238.705 93.0484C238.705 90.9999 239.052 89.0978 239.747 87.342C240.442 85.5862 241.393 84.0864 242.6 82.8427C243.807 81.5624 245.197 80.5748 246.77 79.8798C248.38 79.1482 250.081 78.7824 251.873 78.7824C253.666 78.7824 255.184 79.0385 256.427 79.5506C257.671 80.0627 258.677 80.6297 259.445 81.2515C260.25 81.8734 260.817 82.4586 261.146 83.0073C261.512 83.5194 261.695 83.7755 261.695 83.7755H261.75V79.3311H266.139V106.766H261.75V102.376H261.695C261.695 102.376 261.512 102.65 261.146 103.199C260.817 103.711 260.25 104.278 259.445 104.9C258.677 105.485 257.671 106.034 256.427 106.546C255.184 107.058 253.666 107.314 251.873 107.314ZM252.422 103.199C253.739 103.199 254.964 102.961 256.098 102.486C257.232 101.974 258.22 101.279 259.061 100.401C259.902 99.4863 260.561 98.4072 261.036 97.1635C261.512 95.9198 261.75 94.5481 261.75 93.0484C261.75 91.5486 261.512 90.1769 261.036 88.9332C260.561 87.6895 259.902 86.6287 259.061 85.7508C258.22 84.8363 257.232 84.1413 256.098 83.6658C254.964 83.1536 253.739 82.8976 252.422 82.8976C251.105 82.8976 249.88 83.1536 248.746 83.6658C247.612 84.1413 246.624 84.8363 245.783 85.7508C244.941 86.6287 244.283 87.6895 243.807 88.9332C243.332 90.1769 243.094 91.5486 243.094 93.0484C243.094 94.5481 243.332 95.9198 243.807 97.1635C244.283 98.4072 244.941 99.4863 245.783 100.401C246.624 101.279 247.612 101.974 248.746 102.486C249.88 102.961 251.105 103.199 252.422 103.199ZM278.23 79.3311H282.619V90.5793H297.982V79.3311H302.372V106.766H297.982V94.6944H282.619V106.766H278.23V79.3311ZM326.519 107.314C324.58 107.314 322.769 106.967 321.087 106.272C319.441 105.54 317.996 104.553 316.752 103.309C315.545 102.029 314.576 100.511 313.844 98.7547C313.149 96.9989 312.801 95.0968 312.801 93.0484C312.801 90.9999 313.149 89.0978 313.844 87.342C314.576 85.5862 315.545 84.0864 316.752 82.8427C317.996 81.5624 319.441 80.5748 321.087 79.8798C322.769 79.1482 324.58 78.7824 326.519 78.7824C327.872 78.7824 329.098 78.9287 330.195 79.2214C331.329 79.4774 332.335 79.8432 333.213 80.3187C334.091 80.7577 334.859 81.2698 335.517 81.8551C336.176 82.4403 336.743 83.0256 337.218 83.6109C338.352 85.0375 339.175 86.6287 339.687 88.3845H335.298C334.859 87.3603 334.255 86.4458 333.487 85.641C332.829 84.946 331.932 84.3242 330.798 83.7755C329.665 83.1902 328.238 82.8976 326.519 82.8976C325.202 82.8976 323.976 83.1536 322.842 83.6658C321.708 84.1413 320.721 84.8363 319.88 85.7508C319.038 86.6287 318.38 87.6895 317.904 88.9332C317.429 90.1769 317.191 91.5486 317.191 93.0484C317.191 94.5847 317.447 95.9747 317.959 97.2184C318.471 98.4621 319.148 99.5229 319.989 100.401C320.831 101.279 321.818 101.974 322.952 102.486C324.086 102.961 325.275 103.199 326.519 103.199C328.311 103.199 329.774 102.888 330.908 102.266C332.079 101.645 333.012 100.95 333.707 100.181C334.511 99.3034 335.133 98.2975 335.572 97.1635H339.962C339.449 99.1022 338.608 100.803 337.438 102.266C336.926 102.888 336.34 103.51 335.682 104.132C335.023 104.717 334.237 105.248 333.322 105.723C332.445 106.199 331.439 106.583 330.305 106.875C329.171 107.168 327.909 107.314 326.519 107.314ZM355.897 83.4463H346.295V79.3311H369.889V83.4463H360.287V106.766H355.897V83.4463ZM378.417 79.3311H391.86C394.494 79.3311 396.524 79.9895 397.95 81.3064C399.377 82.6232 400.09 84.251 400.09 86.1897C400.09 87.4334 399.889 88.4394 399.487 89.2075C399.121 89.9757 398.682 90.5793 398.17 91.0182C397.694 91.4572 397.237 91.7681 396.798 91.951C396.359 92.0973 396.085 92.1705 395.975 92.1705V92.2253C396.048 92.2253 396.359 92.3168 396.908 92.4997C397.457 92.646 398.042 92.9569 398.664 93.4324C399.322 93.908 399.907 94.5847 400.42 95.4626C400.932 96.3039 401.188 97.4196 401.188 98.8096C401.188 101.151 400.383 103.071 398.773 104.571C397.201 106.034 394.914 106.766 391.915 106.766H378.417V79.3311ZM391.86 102.65C393.506 102.65 394.731 102.285 395.536 101.553C396.378 100.785 396.798 99.779 396.798 98.5353C396.798 97.2916 396.378 96.3039 395.536 95.5723C394.731 94.8042 393.506 94.4201 391.86 94.4201H382.807V102.65H391.86ZM391.586 90.5793C392.976 90.5793 394 90.2683 394.658 89.6465C395.353 88.9881 395.701 88.1102 395.701 87.0128C395.701 85.9154 395.353 85.0558 394.658 84.4339C394 83.7755 392.976 83.4463 391.586 83.4463H382.807V90.5793H391.586ZM424.254 107.314C422.206 107.314 420.304 106.967 418.548 106.272C416.792 105.54 415.274 104.553 413.994 103.309C412.75 102.029 411.762 100.511 411.031 98.7547C410.336 96.9989 409.988 95.0968 409.988 93.0484C409.988 90.9999 410.336 89.0978 411.031 87.342C411.762 85.5862 412.75 84.0864 413.994 82.8427C415.274 81.5624 416.792 80.5748 418.548 79.8798C420.304 79.1482 422.206 78.7824 424.254 78.7824C426.303 78.7824 428.205 79.1482 429.961 79.8798C431.716 80.5748 433.216 81.5624 434.46 82.8427C435.74 84.0864 436.728 85.5862 437.423 87.342C438.154 89.0978 438.52 90.9999 438.52 93.0484C438.52 95.0968 438.154 96.9989 437.423 98.7547C436.728 100.511 435.74 102.029 434.46 103.309C433.216 104.553 431.716 105.54 429.961 106.272C428.205 106.967 426.303 107.314 424.254 107.314ZM424.254 103.199C425.681 103.199 426.998 102.961 428.205 102.486C429.412 101.974 430.454 101.279 431.332 100.401C432.21 99.4863 432.887 98.4072 433.362 97.1635C433.875 95.9198 434.131 94.5481 434.131 93.0484C434.131 91.5486 433.875 90.1769 433.362 88.9332C432.887 87.6895 432.21 86.6287 431.332 85.7508C430.454 84.8363 429.412 84.1413 428.205 83.6658C426.998 83.1536 425.681 82.8976 424.254 82.8976C422.828 82.8976 421.511 83.1536 420.304 83.6658C419.096 84.1413 418.054 84.8363 417.176 85.7508C416.298 86.6287 415.603 87.6895 415.091 88.9332C414.616 90.1769 414.378 91.5486 414.378 93.0484C414.378 94.5481 414.616 95.9198 415.091 97.1635C415.603 98.4072 416.298 99.4863 417.176 100.401C418.054 101.279 419.096 101.974 420.304 102.486C421.511 102.961 422.828 103.199 424.254 103.199Z" fill="black"/>
<path d="M44.4314 20.4334V25.8728C44.4314 26.0755 44.3627 26.2456 44.2253 26.3831C44.0879 26.5205 43.918 26.5889 43.7157 26.5885C43.5134 26.588 43.3435 26.5193 43.2061 26.3823C43.0687 26.2454 43 26.0755 43 25.8728V18.7157C43 18.5129 43.0687 18.3431 43.2061 18.2061C43.3435 18.0692 43.5134 18.0005 43.7157 18H50.8728C51.0755 18 51.2456 18.0687 51.3831 18.2061C51.5205 18.3435 51.5889 18.5134 51.5885 18.7157C51.588 18.918 51.5193 19.0881 51.3823 19.226C51.2454 19.3639 51.0755 19.4324 50.8728 19.4314H45.4334L51.8032 25.8012C51.9344 25.9324 52 26.0994 52 26.3022C52 26.505 51.9344 26.672 51.8032 26.8032C51.672 26.9344 51.505 27 51.3022 27C51.0994 27 50.9324 26.9344 50.8012 26.8032L44.4314 20.4334Z" fill="black"/>
</svg>
