<svg width="443" height="134" viewBox="0 0 443 134" fill="none" xmlns="http://www.w3.org/2000/svg">
<path fill-rule="evenodd" clip-rule="evenodd" d="M43.4365 0.40625C31.5175 0.40625 21.8552 10.0685 21.8552 21.9876C21.8552 33.48 30.8382 42.8743 42.1657 43.5321V43.5698H45.5244C47.798 43.5698 49.6412 45.4129 49.6412 47.6866C49.6412 49.9602 47.798 51.8033 45.5244 51.8033H42.1657V52H35.1551C15.7395 52 0 67.7395 0 87.1551V98.8449C0 118.261 15.7395 134 35.1551 134H407.845C427.261 134 443 118.261 443 98.8449V87.1551C443 67.7395 427.261 52 407.845 52H112.41V51.8029H109.049C106.775 51.8029 104.932 49.9598 104.932 47.6861C104.932 45.4125 106.775 43.5694 109.049 43.5694H112.41V43.5649C124.135 43.3404 133.57 33.7659 133.57 21.9876C133.57 10.0685 123.908 0.40625 111.989 0.40625H43.4365Z" fill="black"/>
<path d="M65.3546 27.1785C64.6882 27.1785 64.0695 27.0654 63.4983 26.8394C62.9272 26.6014 62.4334 26.2801 62.0169 25.8755C61.6123 25.4591 61.2911 24.9653 61.0531 24.3941C60.827 23.8229 60.7139 23.2042 60.7139 22.5378C60.7139 21.8715 60.827 21.2527 61.0531 20.6816C61.2911 20.1104 61.6123 19.6226 62.0169 19.218C62.4334 18.8015 62.9272 18.4803 63.4983 18.2542C64.0695 18.0162 64.6882 17.8972 65.3546 17.8972C66.0209 17.8972 66.6397 18.0162 67.2108 18.2542C67.782 18.4803 68.2699 18.8015 68.6744 19.218C69.0909 19.6226 69.4122 20.1104 69.6383 20.6816C69.8762 21.2527 69.9952 21.8715 69.9952 22.5378C69.9952 23.2042 69.8762 23.8229 69.6383 24.3941C69.4122 24.9653 69.0909 25.4591 68.6744 25.8755C68.2699 26.2801 67.782 26.6014 67.2108 26.8394C66.6397 27.0654 66.0209 27.1785 65.3546 27.1785ZM65.3546 25.8398C65.8187 25.8398 66.247 25.7625 66.6397 25.6078C67.0324 25.4412 67.3715 25.2151 67.6571 24.9296C67.9426 24.6321 68.1628 24.2811 68.3175 23.8765C68.484 23.4719 68.5673 23.0257 68.5673 22.5378C68.5673 22.05 68.484 21.6038 68.3175 21.1992C68.1628 20.7946 67.9426 20.4496 67.6571 20.164C67.3715 19.8665 67.0324 19.6404 66.6397 19.4857C66.247 19.3191 65.8187 19.2358 65.3546 19.2358C64.8905 19.2358 64.4622 19.3191 64.0695 19.4857C63.6768 19.6404 63.3377 19.8665 63.0521 20.164C62.7665 20.4496 62.5405 20.7946 62.3739 21.1992C62.2192 21.6038 62.1418 22.05 62.1418 22.5378C62.1418 23.0257 62.2192 23.4719 62.3739 23.8765C62.5405 24.2811 62.7665 24.6321 63.0521 24.9296C63.3377 25.2151 63.6768 25.4412 64.0695 25.6078C64.4622 25.7625 64.8905 25.8398 65.3546 25.8398ZM79.8099 18.0757H81.2378V21.7347H86.2354V18.0757H87.6633V27H86.2354V23.0733H81.2378V27H79.8099V18.0757ZM95.3396 27.1785C94.7565 27.1785 94.2032 27.0654 93.6797 26.8394C93.168 26.6014 92.7158 26.2801 92.3232 25.8755C91.9305 25.4591 91.6211 24.9653 91.395 24.3941C91.1689 23.8229 91.0559 23.2042 91.0559 22.5378C91.0559 21.8715 91.1689 21.2527 91.395 20.6816C91.6211 20.1104 91.9305 19.6226 92.3232 19.218C92.7158 18.8015 93.168 18.4803 93.6797 18.2542C94.2032 18.0162 94.7565 17.8972 95.3396 17.8972C95.9226 17.8972 96.4164 17.9805 96.821 18.1471C97.2256 18.3137 97.5528 18.4981 97.8027 18.7004C98.0645 18.9027 98.2489 19.0931 98.356 19.2715C98.475 19.4381 98.5345 19.5214 98.5345 19.5214H98.5523V18.0757H99.9802V27H98.5523V25.5721H98.5345C98.5345 25.5721 98.475 25.6614 98.356 25.8398C98.2489 26.0064 98.0645 26.1909 97.8027 26.3931C97.5528 26.5835 97.2256 26.762 96.821 26.9286C96.4164 27.0952 95.9226 27.1785 95.3396 27.1785ZM95.5181 25.8398C95.9464 25.8398 96.345 25.7625 96.7139 25.6078C97.0828 25.4412 97.4041 25.2151 97.6777 24.9296C97.9514 24.6321 98.1656 24.2811 98.3203 23.8765C98.475 23.4719 98.5523 23.0257 98.5523 22.5378C98.5523 22.05 98.475 21.6038 98.3203 21.1992C98.1656 20.7946 97.9514 20.4496 97.6777 20.164C97.4041 19.8665 97.0828 19.6404 96.7139 19.4857C96.345 19.3191 95.9464 19.2358 95.5181 19.2358C95.0897 19.2358 94.6911 19.3191 94.3222 19.4857C93.9533 19.6404 93.6321 19.8665 93.3584 20.164C93.0847 20.4496 92.8705 20.7946 92.7158 21.1992C92.5611 21.6038 92.4838 22.05 92.4838 22.5378C92.4838 23.0257 92.5611 23.4719 92.7158 23.8765C92.8705 24.2811 93.0847 24.6321 93.3584 24.9296C93.6321 25.2151 93.9533 25.4412 94.3222 25.6078C94.6911 25.7625 95.0897 25.8398 95.5181 25.8398ZM107.84 27.1785C107.209 27.1785 106.62 27.0654 106.073 26.8394C105.537 26.6014 105.067 26.2801 104.663 25.8755C104.27 25.4591 103.955 24.9653 103.717 24.3941C103.491 23.8229 103.378 23.2042 103.378 22.5378C103.378 21.8715 103.491 21.2527 103.717 20.6816C103.955 20.1104 104.27 19.6226 104.663 19.218C105.067 18.8015 105.537 18.4803 106.073 18.2542C106.62 18.0162 107.209 17.8972 107.84 17.8972C108.28 17.8972 108.679 17.9448 109.036 18.04C109.405 18.1233 109.732 18.2423 110.017 18.397C110.303 18.5398 110.553 18.7063 110.767 18.8967C110.981 19.0871 111.166 19.2775 111.32 19.4679C111.689 19.9319 111.957 20.4496 112.124 21.0207H110.696C110.553 20.6875 110.357 20.3901 110.107 20.1283C109.892 19.9022 109.601 19.6999 109.232 19.5214C108.863 19.331 108.399 19.2358 107.84 19.2358C107.412 19.2358 107.013 19.3191 106.644 19.4857C106.275 19.6404 105.954 19.8665 105.68 20.164C105.407 20.4496 105.192 20.7946 105.038 21.1992C104.883 21.6038 104.806 22.05 104.806 22.5378C104.806 23.0376 104.889 23.4898 105.055 23.8943C105.222 24.2989 105.442 24.644 105.716 24.9296C105.99 25.2151 106.311 25.4412 106.68 25.6078C107.049 25.7625 107.435 25.8398 107.84 25.8398C108.423 25.8398 108.899 25.7387 109.268 25.5364C109.649 25.3341 109.952 25.108 110.178 24.8582C110.44 24.5726 110.642 24.2454 110.785 23.8765H112.213C112.046 24.5071 111.773 25.0604 111.392 25.5364C111.225 25.7387 111.035 25.941 110.821 26.1433C110.606 26.3337 110.351 26.5062 110.053 26.6609C109.768 26.8156 109.44 26.9405 109.071 27.0357C108.703 27.1309 108.292 27.1785 107.84 27.1785Z" fill="white"/>
<path d="M27.3838 79.3311H51.2518V106.766H46.8623V83.4463H31.7733V106.766H27.3838V79.3311ZM74.3076 106.766H67.9976L60.5903 79.3311H65.2542L71.2898 102.65H75.4049L82.5379 79.3311H87.2018L75.6793 117.191H71.0154L74.3076 106.766ZM101.461 83.4463H91.8592V79.3311H115.453V83.4463H105.851V106.766H101.461V83.4463ZM136.327 107.314C134.351 107.314 132.504 106.967 130.785 106.272C129.066 105.54 127.584 104.553 126.341 103.309C125.097 102.029 124.109 100.511 123.378 98.7547C122.683 96.9989 122.335 95.0968 122.335 93.0484C122.335 90.9999 122.683 89.0978 123.378 87.342C124.109 85.5862 125.097 84.0864 126.341 82.8427C127.584 81.5624 129.066 80.5748 130.785 79.8798C132.504 79.1482 134.351 78.7824 136.327 78.7824C138.302 78.7824 140.149 79.1482 141.868 79.8798C143.588 80.5748 145.069 81.5442 146.313 82.7879C147.557 84.0316 148.526 85.513 149.221 87.2322C149.953 88.9515 150.318 90.7987 150.318 92.774V94.4201H126.725C126.871 95.7004 127.218 96.8892 127.767 97.9866C128.316 99.0474 129.011 99.9619 129.852 100.73C130.693 101.498 131.663 102.102 132.76 102.541C133.894 102.98 135.083 103.199 136.327 103.199C137.973 103.199 139.363 102.943 140.497 102.431C141.631 101.919 142.563 101.352 143.295 100.73C144.136 100.035 144.831 99.212 145.38 98.2609H149.77C149.111 99.9802 148.178 101.498 146.971 102.815C145.911 103.949 144.52 104.992 142.801 105.943C141.082 106.857 138.924 107.314 136.327 107.314ZM145.654 90.5793C145.508 89.555 145.179 88.5857 144.667 87.6712C144.191 86.7201 143.551 85.8971 142.746 85.2021C141.942 84.5071 140.991 83.9584 139.893 83.556C138.832 83.1171 137.644 82.8976 136.327 82.8976C135.01 82.8976 133.803 83.1171 132.705 83.556C131.645 83.9584 130.693 84.5071 129.852 85.2021C129.047 85.8971 128.389 86.7201 127.877 87.6712C127.365 88.5857 127.017 89.555 126.834 90.5793H145.654ZM160.735 79.3311H174.178C176.811 79.3311 178.842 79.9895 180.268 81.3064C181.695 82.6232 182.408 84.251 182.408 86.1897C182.408 87.4334 182.207 88.4394 181.805 89.2075C181.439 89.9757 181 90.5793 180.488 91.0182C180.012 91.4572 179.555 91.7681 179.116 91.951C178.677 92.0973 178.403 92.1705 178.293 92.1705V92.2253C178.366 92.2253 178.677 92.3168 179.226 92.4997C179.774 92.646 180.36 92.9569 180.982 93.4324C181.64 93.908 182.225 94.5847 182.737 95.4626C183.249 96.3039 183.506 97.4196 183.506 98.8096C183.506 101.151 182.701 103.071 181.091 104.571C179.518 106.034 177.232 106.766 174.233 106.766H160.735V79.3311ZM174.178 102.65C175.824 102.65 177.049 102.285 177.854 101.553C178.695 100.785 179.116 99.779 179.116 98.5353C179.116 97.2916 178.695 96.3039 177.854 95.5723C177.049 94.8042 175.824 94.4201 174.178 94.4201H165.124V102.65H174.178ZM173.903 90.5793C175.293 90.5793 176.318 90.2683 176.976 89.6465C177.671 88.9881 178.019 88.1102 178.019 87.0128C178.019 85.9154 177.671 85.0558 176.976 84.4339C176.318 83.7755 175.293 83.4463 173.903 83.4463H165.124V90.5793H173.903ZM206.572 107.314C204.524 107.314 202.621 106.967 200.866 106.272C199.11 105.54 197.592 104.553 196.311 103.309C195.068 102.029 194.08 100.511 193.349 98.7547C192.654 96.9989 192.306 95.0968 192.306 93.0484C192.306 90.9999 192.654 89.0978 193.349 87.342C194.08 85.5862 195.068 84.0864 196.311 82.8427C197.592 81.5624 199.11 80.5748 200.866 79.8798C202.621 79.1482 204.524 78.7824 206.572 78.7824C208.62 78.7824 210.523 79.1482 212.278 79.8798C214.034 80.5748 215.534 81.5624 216.778 82.8427C218.058 84.0864 219.046 85.5862 219.741 87.342C220.472 89.0978 220.838 90.9999 220.838 93.0484C220.838 95.0968 220.472 96.9989 219.741 98.7547C219.046 100.511 218.058 102.029 216.778 103.309C215.534 104.553 214.034 105.54 212.278 106.272C210.523 106.967 208.62 107.314 206.572 107.314ZM206.572 103.199C207.999 103.199 209.315 102.961 210.523 102.486C211.73 101.974 212.772 101.279 213.65 100.401C214.528 99.4863 215.205 98.4072 215.68 97.1635C216.192 95.9198 216.448 94.5481 216.448 93.0484C216.448 91.5486 216.192 90.1769 215.68 88.9332C215.205 87.6895 214.528 86.6287 213.65 85.7508C212.772 84.8363 211.73 84.1413 210.523 83.6658C209.315 83.1536 207.999 82.8976 206.572 82.8976C205.145 82.8976 203.828 83.1536 202.621 83.6658C201.414 84.1413 200.372 84.8363 199.494 85.7508C198.616 86.6287 197.921 87.6895 197.409 88.9332C196.933 90.1769 196.696 91.5486 196.696 93.0484C196.696 94.5481 196.933 95.9198 197.409 97.1635C197.921 98.4072 198.616 99.4863 199.494 100.401C200.372 101.279 201.414 101.974 202.621 102.486C203.828 102.961 205.145 103.199 206.572 103.199ZM227.675 102.65H230.693L237.003 79.3311H248.525L254.835 102.65H257.853V113.076H253.464V106.766H232.065V113.076H227.675V102.65ZM250.446 102.65L245.233 83.4463H240.295L235.082 102.65H250.446ZM266.334 79.3311H270.724V99.907L270.669 100.456H270.779L285.538 79.3311H290.477V106.766H286.087V86.1897L286.142 85.641H286.032L271.272 106.766H266.334V79.3311ZM308.588 83.4463H298.986V79.3311H322.579V83.4463H312.977V106.766H308.588V83.4463ZM343.453 107.314C341.478 107.314 339.631 106.967 337.911 106.272C336.192 105.54 334.711 104.553 333.467 103.309C332.223 102.029 331.236 100.511 330.504 98.7547C329.809 96.9989 329.461 95.0968 329.461 93.0484C329.461 90.9999 329.809 89.0978 330.504 87.342C331.236 85.5862 332.223 84.0864 333.467 82.8427C334.711 81.5624 336.192 80.5748 337.911 79.8798C339.631 79.1482 341.478 78.7824 343.453 78.7824C345.428 78.7824 347.276 79.1482 348.995 79.8798C350.714 80.5748 352.196 81.5442 353.439 82.7879C354.683 84.0316 355.652 85.513 356.347 87.2322C357.079 88.9515 357.445 90.7987 357.445 92.774V94.4201H333.851C333.997 95.7004 334.345 96.8892 334.893 97.9866C335.442 99.0474 336.137 99.9619 336.979 100.73C337.82 101.498 338.789 102.102 339.887 102.541C341.021 102.98 342.209 103.199 343.453 103.199C345.099 103.199 346.489 102.943 347.623 102.431C348.757 101.919 349.69 101.352 350.421 100.73C351.263 100.035 351.958 99.212 352.506 98.2609H356.896C356.238 99.9802 355.305 101.498 354.098 102.815C353.037 103.949 351.647 104.992 349.928 105.943C348.208 106.857 346.05 107.314 343.453 107.314ZM352.781 90.5793C352.634 89.555 352.305 88.5857 351.793 87.6712C351.318 86.7201 350.677 85.8971 349.873 85.2021C349.068 84.5071 348.117 83.9584 347.02 83.556C345.959 83.1171 344.77 82.8976 343.453 82.8976C342.136 82.8976 340.929 83.1171 339.832 83.556C338.771 83.9584 337.82 84.5071 336.979 85.2021C336.174 85.8971 335.515 86.7201 335.003 87.6712C334.491 88.5857 334.144 89.555 333.961 90.5793H352.781ZM372.251 79.3311H383.773L391.455 106.766H386.791L380.481 83.4463H375.543L369.233 106.766H364.569L372.251 79.3311ZM400.221 79.3311H404.611V88.6588H412.292C413.865 88.6588 415.292 88.8966 416.572 89.3721C417.852 89.8477 418.95 90.5061 419.864 91.3474C420.779 92.1522 421.474 93.1032 421.949 94.2006C422.461 95.298 422.717 96.4685 422.717 97.7122C422.717 98.9559 422.461 100.126 421.949 101.224C421.474 102.321 420.779 103.291 419.864 104.132C418.95 104.937 417.852 105.577 416.572 106.052C415.292 106.528 413.865 106.766 412.292 106.766H400.221V79.3311ZM412.292 102.65C414.231 102.65 415.712 102.175 416.737 101.224C417.797 100.273 418.328 99.1022 418.328 97.7122C418.328 96.3222 417.797 95.1517 416.737 94.2006C415.712 93.2495 414.231 92.774 412.292 92.774H404.611V102.65H412.292Z" fill="white"/>
<path d="M45.4314 20.4334V25.8728C45.4314 26.0755 45.3627 26.2456 45.2253 26.3831C45.0879 26.5205 44.918 26.5889 44.7157 26.5885C44.5134 26.588 44.3435 26.5193 44.2061 26.3823C44.0687 26.2454 44 26.0755 44 25.8728V18.7157C44 18.5129 44.0687 18.3431 44.2061 18.2061C44.3435 18.0692 44.5134 18.0005 44.7157 18H51.8728C52.0755 18 52.2456 18.0687 52.3831 18.2061C52.5205 18.3435 52.5889 18.5134 52.5885 18.7157C52.588 18.918 52.5193 19.0881 52.3823 19.226C52.2454 19.3639 52.0755 19.4324 51.8728 19.4314H46.4334L52.8032 25.8012C52.9344 25.9324 53 26.0994 53 26.3022C53 26.505 52.9344 26.672 52.8032 26.8032C52.672 26.9344 52.505 27 52.3022 27C52.0994 27 51.9324 26.9344 51.8012 26.8032L45.4314 20.4334Z" fill="white"/>
</svg>
