<svg width="298" height="134" viewBox="0 0 298 134" fill="none" xmlns="http://www.w3.org/2000/svg">
<path fill-rule="evenodd" clip-rule="evenodd" d="M69.1309 35.1426H139.35V43.5385H135.993C133.721 43.5385 131.878 45.381 131.878 47.6538C131.878 49.9266 133.721 51.7691 135.993 51.7691H139.35V60.3281H69.1309V51.769H72.4891C74.7619 51.769 76.6044 49.9265 76.6044 47.6537C76.6044 45.3809 74.7619 43.5385 72.4891 43.5385H69.1309V35.1426Z" fill="white"/>
<rect x="48.832" y="0.390625" width="111.675" height="43.1472" rx="21.5736" fill="white"/>
<rect x="0.412109" y="51.9922" width="296.89" height="81.514" rx="35.1425" fill="white"/>
<path d="M74.1982 17.1922H76.3392L79.0156 22.7233H79.4616L82.138 17.1922H84.279V26.1133H82.8517V18.9764L82.8695 18.798H82.8338L80.1753 24.3291H78.3019L75.6434 18.798H75.6077L75.6256 18.9764V26.1133H74.1982V17.1922ZM91.9526 26.2917C91.3698 26.2917 90.8166 26.1787 90.2933 25.9527C89.7818 25.7148 89.3298 25.3936 88.9373 24.9892C88.5447 24.5729 88.2355 24.0793 88.0095 23.5083C87.7835 22.9374 87.6705 22.3188 87.6705 21.6527C87.6705 20.9866 87.7835 20.3681 88.0095 19.7971C88.2355 19.2262 88.5447 18.7385 88.9373 18.3341C89.3298 17.9177 89.7818 17.5966 90.2933 17.3706C90.8166 17.1327 91.3698 17.0137 91.9526 17.0137C92.5354 17.0137 93.0291 17.097 93.4335 17.2635C93.8379 17.4301 94.165 17.6144 94.4148 17.8166C94.6765 18.0188 94.8609 18.2092 94.9679 18.3876C95.0869 18.5541 95.1464 18.6374 95.1464 18.6374H95.1642V17.1922H96.5916V26.1133H95.1642V24.6859H95.1464C95.1464 24.6859 95.0869 24.7751 94.9679 24.9535C94.8609 25.1201 94.6765 25.3044 94.4148 25.5066C94.165 25.697 93.8379 25.8754 93.4335 26.0419C93.0291 26.2084 92.5354 26.2917 91.9526 26.2917ZM92.131 24.9535C92.5592 24.9535 92.9577 24.8762 93.3265 24.7216C93.6952 24.5551 94.0164 24.3291 94.2899 24.0436C94.5635 23.7462 94.7776 23.3953 94.9323 22.9909C95.0869 22.5865 95.1642 22.1404 95.1642 21.6527C95.1642 21.165 95.0869 20.719 94.9323 20.3146C94.7776 19.9101 94.5635 19.5652 94.2899 19.2797C94.0164 18.9823 93.6952 18.7563 93.3265 18.6017C92.9577 18.4352 92.5592 18.3519 92.131 18.3519C91.7028 18.3519 91.3043 18.4352 90.9356 18.6017C90.5669 18.7563 90.2457 18.9823 89.9721 19.2797C89.6985 19.5652 89.4844 19.9101 89.3298 20.3146C89.1752 20.719 89.0978 21.165 89.0978 21.6527C89.0978 22.1404 89.1752 22.5865 89.3298 22.9909C89.4844 23.3953 89.6985 23.7462 89.9721 24.0436C90.2457 24.3291 90.5669 24.5551 90.9356 24.7216C91.3043 24.8762 91.7028 24.9535 92.131 24.9535ZM100.523 17.1922H106.679V18.5303H101.951V26.1133H100.523V17.1922ZM113.277 26.2917C112.694 26.2917 112.141 26.1787 111.618 25.9527C111.106 25.7148 110.654 25.3936 110.262 24.9892C109.869 24.5729 109.56 24.0793 109.334 23.5083C109.108 22.9374 108.995 22.3188 108.995 21.6527C108.995 20.9866 109.108 20.3681 109.334 19.7971C109.56 19.2262 109.869 18.7385 110.262 18.3341C110.654 17.9177 111.106 17.5966 111.618 17.3706C112.141 17.1327 112.694 17.0137 113.277 17.0137C113.86 17.0137 114.353 17.097 114.758 17.2635C115.162 17.4301 115.489 17.6144 115.739 17.8166C116.001 18.0188 116.185 18.2092 116.292 18.3876C116.411 18.5541 116.471 18.6374 116.471 18.6374H116.488V17.1922H117.916V26.1133H116.488V24.6859H116.471C116.471 24.6859 116.411 24.7751 116.292 24.9535C116.185 25.1201 116.001 25.3044 115.739 25.5066C115.489 25.697 115.162 25.8754 114.758 26.0419C114.353 26.2084 113.86 26.2917 113.277 26.2917ZM113.455 24.9535C113.884 24.9535 114.282 24.8762 114.651 24.7216C115.019 24.5551 115.341 24.3291 115.614 24.0436C115.888 23.7462 116.102 23.3953 116.257 22.9909C116.411 22.5865 116.488 22.1404 116.488 21.6527C116.488 21.165 116.411 20.719 116.257 20.3146C116.102 19.9101 115.888 19.5652 115.614 19.2797C115.341 18.9823 115.019 18.7563 114.651 18.6017C114.282 18.4352 113.884 18.3519 113.455 18.3519C113.027 18.3519 112.629 18.4352 112.26 18.6017C111.891 18.7563 111.57 18.9823 111.296 19.2797C111.023 19.5652 110.809 19.9101 110.654 20.3146C110.499 20.719 110.422 21.165 110.422 21.6527C110.422 22.1404 110.499 22.5865 110.654 22.9909C110.809 23.3953 111.023 23.7462 111.296 24.0436C111.57 24.3291 111.891 24.5551 112.26 24.7216C112.629 24.8762 113.027 24.9535 113.455 24.9535ZM124.881 26.2917C124.429 26.2917 124.03 26.2501 123.685 26.1668C123.34 26.0835 123.031 25.9765 122.757 25.8456C122.496 25.7029 122.264 25.5423 122.062 25.3639C121.871 25.1855 121.711 25.0071 121.58 24.8286C121.271 24.4004 121.062 23.9068 120.955 23.3477H122.383C122.454 23.657 122.591 23.9246 122.793 24.1506C122.96 24.3528 123.203 24.5372 123.525 24.7037C123.858 24.8703 124.31 24.9535 124.881 24.9535C125.642 24.9535 126.201 24.8049 126.558 24.5075C126.927 24.2101 127.111 23.883 127.111 23.5262C127.111 23.1693 126.944 22.86 126.611 22.5984C126.278 22.3248 125.731 22.188 124.97 22.188H123.899V20.8498H124.97C125.684 20.8498 126.189 20.7309 126.486 20.493C126.784 20.2551 126.932 19.9577 126.932 19.6009C126.932 19.2916 126.766 19.0061 126.433 18.7444C126.112 18.4827 125.594 18.3519 124.881 18.3519C124.405 18.3519 124.024 18.4233 123.739 18.566C123.453 18.7088 123.227 18.8634 123.061 19.0299C122.87 19.2321 122.734 19.4522 122.65 19.6901H121.223C121.33 19.1905 121.538 18.7444 121.847 18.3519C121.978 18.1854 122.133 18.0248 122.311 17.8702C122.49 17.7036 122.704 17.5609 122.954 17.442C123.203 17.3111 123.483 17.21 123.792 17.1386C124.113 17.0554 124.476 17.0137 124.881 17.0137C125.463 17.0137 125.969 17.0851 126.397 17.2278C126.837 17.3587 127.2 17.5371 127.486 17.7631C127.783 17.9891 128.003 18.2567 128.146 18.566C128.288 18.8634 128.36 19.1786 128.36 19.5117C128.36 19.8923 128.288 20.2075 128.146 20.4573C128.003 20.7071 127.836 20.9093 127.646 21.0639C127.468 21.2067 127.295 21.3078 127.129 21.3672C126.974 21.4267 126.879 21.4624 126.843 21.4743V21.4921C126.867 21.4921 126.968 21.5219 127.147 21.5814C127.325 21.6408 127.515 21.7538 127.718 21.9204C127.932 22.075 128.122 22.2891 128.288 22.5627C128.455 22.8363 128.538 23.1872 128.538 23.6154C128.538 23.9722 128.461 24.3112 128.306 24.6324C128.152 24.9535 127.92 25.239 127.61 25.4888C127.301 25.7386 126.921 25.9349 126.469 26.0776C126.017 26.2203 125.487 26.2917 124.881 26.2917ZM131.935 17.1922H133.362V23.883L133.344 24.0614H133.38L138.179 17.1922H139.785V26.1133H138.358V19.4224L138.376 19.244H138.34L133.54 26.1133H131.935V17.1922ZM143.712 17.1922H145.139V20.8498H150.135V17.1922H151.562V26.1133H150.135V22.188H145.139V26.1133H143.712V17.1922Z" fill="black"/>
<path d="M30.8395 81.5753H35.2274V92.5452H40.7124L49.4883 81.5753H54.699L44.5518 94.4649L55.5217 109H50.0368L40.7124 96.6589H35.2274V109H30.8395V81.5753ZM75.5889 109.548C73.5412 109.548 71.6397 109.201 69.8845 108.506C68.1294 107.775 66.6119 106.788 65.332 105.544C64.0888 104.265 63.1015 102.747 62.3702 100.992C61.6754 99.2368 61.328 97.3354 61.328 95.2876C61.328 93.2399 61.6754 91.3385 62.3702 89.5833C63.1015 87.8281 64.0888 86.3289 65.332 85.0856C66.6119 83.8058 68.1294 82.8185 69.8845 82.1238C71.6397 81.3924 73.5412 81.0268 75.5889 81.0268C77.6366 81.0268 79.538 81.3924 81.2932 82.1238C83.0484 82.8185 84.5476 83.8058 85.7909 85.0856C87.0707 86.3289 88.058 87.8281 88.7528 89.5833C89.4841 91.3385 89.8497 93.2399 89.8497 95.2876C89.8497 97.3354 89.4841 99.2368 88.7528 100.992C88.058 102.747 87.0707 104.265 85.7909 105.544C84.5476 106.788 83.0484 107.775 81.2932 108.506C79.538 109.201 77.6366 109.548 75.5889 109.548ZM75.5889 105.435C77.015 105.435 78.3314 105.197 79.538 104.722C80.7447 104.21 81.7869 103.515 82.6645 102.637C83.5421 101.723 84.2185 100.645 84.6939 99.4013C85.2058 98.1581 85.4618 96.7869 85.4618 95.2876C85.4618 93.7884 85.2058 92.4172 84.6939 91.1739C84.2185 89.9307 83.5421 88.8703 82.6645 87.9927C81.7869 87.0785 80.7447 86.3837 79.538 85.9084C78.3314 85.3965 77.015 85.1405 75.5889 85.1405C74.1628 85.1405 72.8464 85.3965 71.6397 85.9084C70.433 86.3837 69.3909 87.0785 68.5133 87.9927C67.6357 88.8703 66.941 89.9307 66.429 91.1739C65.9537 92.4172 65.716 93.7884 65.716 95.2876C65.716 96.7869 65.9537 98.1581 66.429 99.4013C66.941 100.645 67.6357 101.723 68.5133 102.637C69.3909 103.515 70.433 104.21 71.6397 104.722C72.8464 105.197 74.1628 105.435 75.5889 105.435ZM100.25 81.5753H104.638V85.9632H104.693C104.693 85.9632 104.857 85.7073 105.186 85.1953C105.552 84.6468 106.119 84.0801 106.886 83.495C107.691 82.8734 108.715 82.3066 109.958 81.7947C111.201 81.2827 112.719 81.0268 114.511 81.0268C116.302 81.0268 117.984 81.3924 119.557 82.1238C121.166 82.8185 122.573 83.8058 123.78 85.0856C124.987 86.3289 125.938 87.8281 126.632 89.5833C127.327 91.3385 127.674 93.2399 127.674 95.2876C127.674 97.3354 127.327 99.2368 126.632 100.992C125.938 102.747 124.987 104.265 123.78 105.544C122.573 106.788 121.166 107.775 119.557 108.506C117.984 109.201 116.302 109.548 114.511 109.548C112.719 109.548 111.201 109.293 109.958 108.781C108.715 108.269 107.691 107.72 106.886 107.135C106.119 106.513 105.552 105.947 105.186 105.435C104.857 104.886 104.693 104.612 104.693 104.612H104.638V119.421H100.25V81.5753ZM113.962 105.435C115.278 105.435 116.503 105.197 117.637 104.722C118.771 104.21 119.758 103.515 120.599 102.637C121.44 101.723 122.098 100.645 122.573 99.4013C123.049 98.1581 123.286 96.7869 123.286 95.2876C123.286 93.7884 123.049 92.4172 122.573 91.1739C122.098 89.9307 121.44 88.8703 120.599 87.9927C119.758 87.0785 118.771 86.3837 117.637 85.9084C116.503 85.3965 115.278 85.1405 113.962 85.1405C112.646 85.1405 111.421 85.3965 110.287 85.9084C109.154 86.3837 108.166 87.0785 107.325 87.9927C106.484 88.8703 105.826 89.9307 105.351 91.1739C104.875 92.4172 104.638 93.7884 104.638 95.2876C104.638 96.7869 104.875 98.1581 105.351 99.4013C105.826 100.645 106.484 101.723 107.325 102.637C108.166 103.515 109.154 104.21 110.287 104.722C111.421 105.197 112.646 105.435 113.962 105.435ZM147.44 109.548C146.05 109.548 144.825 109.421 143.765 109.165C142.704 108.909 141.753 108.579 140.912 108.177C140.108 107.738 139.395 107.245 138.773 106.696C138.188 106.148 137.695 105.599 137.292 105.051C136.342 103.734 135.702 102.217 135.373 100.498H139.761C139.98 101.449 140.4 102.272 141.022 102.967C141.534 103.588 142.284 104.155 143.271 104.667C144.295 105.179 145.684 105.435 147.44 105.435C149.78 105.435 151.498 104.978 152.595 104.064C153.729 103.149 154.296 102.144 154.296 101.047C154.296 99.9498 153.784 98.9991 152.76 98.1947C151.736 97.3536 150.054 96.9331 147.714 96.9331H144.423V92.8194H147.714C149.908 92.8194 151.462 92.4538 152.376 91.7224C153.29 90.9911 153.747 90.0769 153.747 88.98C153.747 88.0292 153.235 87.1516 152.211 86.3472C151.224 85.5427 149.633 85.1405 147.44 85.1405C145.977 85.1405 144.807 85.3599 143.929 85.7987C143.052 86.2375 142.357 86.7128 141.845 87.2248C141.26 87.8464 140.839 88.5229 140.583 89.2542H136.195C136.524 87.7184 137.164 86.3472 138.115 85.1405C138.517 84.6286 138.993 84.1349 139.541 83.6596C140.09 83.1476 140.748 82.7088 141.516 82.3432C142.284 81.9409 143.143 81.6301 144.094 81.4107C145.081 81.1548 146.196 81.0268 147.44 81.0268C149.231 81.0268 150.785 81.2462 152.102 81.685C153.455 82.0872 154.57 82.6357 155.448 83.3305C156.362 84.0252 157.038 84.848 157.477 85.7987C157.916 86.7128 158.135 87.6819 158.135 88.7057C158.135 89.8758 157.916 90.8448 157.477 91.6127C157.038 92.3806 156.526 93.0022 155.941 93.4776C155.393 93.9164 154.862 94.2272 154.351 94.41C153.875 94.5929 153.583 94.7026 153.473 94.7391V94.794C153.546 94.794 153.857 94.8854 154.405 95.0682C154.954 95.2511 155.539 95.5985 156.161 96.1104C156.819 96.5857 157.404 97.2439 157.916 98.085C158.428 98.926 158.684 100.005 158.684 101.321C158.684 102.418 158.446 103.46 157.971 104.447C157.495 105.435 156.782 106.312 155.831 107.08C154.881 107.848 153.711 108.452 152.321 108.89C150.932 109.329 149.304 109.548 147.44 109.548ZM169.124 81.5753H173.512V102.144L173.457 102.692H173.567L188.322 81.5753H193.258V109H188.87V88.4315L188.925 87.883H188.815L174.061 109H169.124V81.5753ZM205.329 81.5753H209.717V92.8194H225.075V81.5753H229.463V109H225.075V96.9331H209.717V109H205.329V81.5753ZM253.053 109.548C251.261 109.548 249.56 109.201 247.952 108.506C246.379 107.775 244.99 106.788 243.783 105.544C242.576 104.265 241.626 102.747 240.931 100.992C240.236 99.2368 239.889 97.3354 239.889 95.2876C239.889 93.2399 240.236 91.3385 240.931 89.5833C241.626 87.8281 242.576 86.3289 243.783 85.0856C244.99 83.8058 246.379 82.8185 247.952 82.1238C249.56 81.3924 251.261 81.0268 253.053 81.0268C254.844 81.0268 256.362 81.2827 257.605 81.7947C258.848 82.3066 259.854 82.8734 260.622 83.495C261.426 84.1166 261.993 84.7017 262.322 85.2502C262.688 85.7621 262.871 86.0181 262.871 86.0181H262.925V81.5753H267.313V109H262.925V104.612H262.871C262.871 104.612 262.688 104.886 262.322 105.435C261.993 105.947 261.426 106.513 260.622 107.135C259.854 107.72 258.848 108.269 257.605 108.781C256.362 109.293 254.844 109.548 253.053 109.548ZM253.601 105.435C254.917 105.435 256.142 105.197 257.276 104.722C258.409 104.21 259.397 103.515 260.238 102.637C261.079 101.723 261.737 100.645 262.212 99.4013C262.688 98.1581 262.925 96.7869 262.925 95.2876C262.925 93.7884 262.688 92.4172 262.212 91.1739C261.737 89.9307 261.079 88.8703 260.238 87.9927C259.397 87.0785 258.409 86.3837 257.276 85.9084C256.142 85.3965 254.917 85.1405 253.601 85.1405C252.285 85.1405 251.06 85.3965 249.926 85.9084C248.793 86.3837 247.805 87.0785 246.964 87.9927C246.123 88.8703 245.465 89.9307 244.99 91.1739C244.514 92.4172 244.277 93.7884 244.277 95.2876C244.277 96.7869 244.514 98.1581 244.99 99.4013C245.465 100.645 246.123 101.723 246.964 102.637C247.805 103.515 248.793 104.21 249.926 104.722C251.06 105.197 252.285 105.435 253.601 105.435Z" fill="black"/>
<path d="M61.4273 19.4264V24.85C61.4273 25.0522 61.3588 25.2218 61.2218 25.3589C61.0847 25.4959 60.9154 25.5642 60.7136 25.5637C60.5119 25.5632 60.3425 25.4947 60.2055 25.3581C60.0685 25.2216 60 25.0522 60 24.85V17.7136C60 17.5114 60.0685 17.3421 60.2055 17.2055C60.3425 17.069 60.5119 17.0005 60.7136 17H67.85C68.0522 17 68.2218 17.0685 68.3589 17.2055C68.4959 17.3425 68.5642 17.5119 68.5637 17.7136C68.5632 17.9154 68.4947 18.085 68.3581 18.2225C68.2216 18.36 68.0522 18.4282 67.85 18.4273H62.4264L68.7778 24.7787C68.9086 24.9095 68.974 25.076 68.974 25.2782C68.974 25.4804 68.9086 25.6469 68.7778 25.7778C68.6469 25.9086 68.4804 25.974 68.2782 25.974C68.076 25.974 67.9095 25.9086 67.7787 25.7778L61.4273 19.4264Z" fill="black"/>
</svg>
