<svg width="736" height="1455" viewBox="0 0 736 1455" fill="none" xmlns="http://www.w3.org/2000/svg">
<path fill-rule="evenodd" clip-rule="evenodd" d="M443 84H559.691V158.671C552.188 163.823 547.267 172.463 547.267 182.252V193.385C547.267 203.174 552.188 211.814 559.691 216.965V293H443V216.961C450.499 211.809 455.418 203.171 455.418 193.385V182.252C455.418 172.465 450.499 163.828 443 158.675V84Z" fill="black"/>
<path fill-rule="evenodd" clip-rule="evenodd" d="M108 1195H224.691V1269.67C217.188 1274.82 212.267 1283.46 212.267 1293.25V1304.39C212.267 1314.17 217.188 1322.81 224.691 1327.97V1404H108V1327.96C115.499 1322.81 120.418 1314.17 120.418 1304.39V1293.25C120.418 1283.47 115.499 1274.83 108 1269.68V1195Z" fill="black"/>
<path fill-rule="evenodd" clip-rule="evenodd" d="M309 1013H425.691V1087.67C418.188 1092.82 413.267 1101.46 413.267 1111.25V1122.39C413.267 1132.17 418.188 1140.81 425.691 1145.97V1222H309V1145.96C316.499 1140.81 321.418 1132.17 321.418 1122.39V1111.25C321.418 1101.47 316.499 1092.83 309 1087.68V1013Z" fill="black"/>
<path fill-rule="evenodd" clip-rule="evenodd" d="M443 288H647.691V340.979C635.344 342.912 625.898 353.595 625.898 366.485C625.898 379.374 635.344 390.057 647.691 391.99V446H443V391.988C455.342 390.051 464.782 379.37 464.782 366.485C464.782 353.599 455.342 342.918 443 340.981V288Z" fill="black"/>
<path fill-rule="evenodd" clip-rule="evenodd" d="M224 453H300V515.864C295.055 519.984 291.908 526.188 291.908 533.127V544.744C291.908 551.683 295.055 557.887 300 562.007V626H224V562.004C228.942 557.884 232.088 551.681 232.088 544.744V533.127C232.088 526.19 228.942 519.987 224 515.867V453Z" fill="black"/>
<path fill-rule="evenodd" clip-rule="evenodd" d="M263 855H481V911.327C467.853 913.366 457.791 924.734 457.791 938.452C457.791 952.17 467.853 963.538 481 965.577V1023H263V965.576C276.142 963.532 286.199 952.167 286.199 938.452C286.199 924.737 276.142 913.371 263 911.328V855Z" fill="black"/>
<path fill-rule="evenodd" clip-rule="evenodd" d="M565 616H612V688.098C608.926 690.931 607 694.99 607 699.5V735.5C607 740.01 608.926 744.069 612 746.902V820H565V747.332C568.084 744.334 570 740.141 570 735.5V700.5C570 695.859 568.084 691.666 565 688.668V616Z" fill="black"/>
<path fill-rule="evenodd" clip-rule="evenodd" d="M66 491V415H128.864C132.984 419.945 139.188 423.092 146.127 423.092H157.744C164.683 423.092 170.887 419.945 175.007 415H239V491H175.004C170.884 486.058 164.681 482.912 157.744 482.912H146.127C139.19 482.912 132.987 486.058 128.867 491H66Z" fill="black"/>
<path fill-rule="evenodd" clip-rule="evenodd" d="M407 1245V1169H517.532C521.652 1173.94 527.856 1177.09 534.795 1177.09H593.145C600.084 1177.09 606.288 1173.94 610.408 1169H723V1245H610.405C606.285 1240.06 600.082 1236.91 593.145 1236.91H534.795C527.858 1236.91 521.655 1240.06 517.535 1245H407Z" fill="black"/>
<path d="M161 216.27H601.387C651.37 216.27 691.889 256.789 691.889 306.772V342.803H251.503C201.519 342.803 161 302.283 161 252.3V216.27Z" fill="black"/>
<path d="M243.478 253.359H253.952L267.044 280.417H269.226L282.318 253.359H292.792V297H285.809V262.087L285.897 261.215H285.722L272.717 288.272H263.553L250.548 261.215H250.373L250.46 262.087V297H243.478V253.359ZM330.33 297.873C327.478 297.873 324.773 297.32 322.213 296.214C319.71 295.051 317.499 293.48 315.579 291.501C313.659 289.465 312.146 287.05 311.04 284.257C309.935 281.464 309.382 278.438 309.382 275.18C309.382 271.921 309.935 268.895 311.04 266.102C312.146 263.309 313.659 260.924 315.579 258.945C317.499 256.909 319.71 255.338 322.213 254.232C324.773 253.068 327.478 252.486 330.33 252.486C333.181 252.486 335.596 252.894 337.574 253.708C339.552 254.523 341.153 255.425 342.375 256.414C343.655 257.403 344.557 258.334 345.08 259.207C345.662 260.022 345.953 260.429 345.953 260.429H346.04V253.359H353.023V297H346.04V290.017H345.953C345.953 290.017 345.662 290.454 345.08 291.327C344.557 292.141 343.655 293.043 342.375 294.032C341.153 294.963 339.552 295.836 337.574 296.651C335.596 297.466 333.181 297.873 330.33 297.873ZM331.203 291.327C333.297 291.327 335.247 290.948 337.05 290.192C338.854 289.377 340.425 288.272 341.764 286.875C343.102 285.421 344.149 283.704 344.906 281.726C345.662 279.747 346.04 277.565 346.04 275.18C346.04 272.794 345.662 270.612 344.906 268.634C344.149 266.655 343.102 264.968 341.764 263.571C340.425 262.117 338.854 261.011 337.05 260.255C335.247 259.44 333.297 259.033 331.203 259.033C329.108 259.033 327.158 259.44 325.355 260.255C323.551 261.011 321.98 262.117 320.641 263.571C319.303 264.968 318.256 266.655 317.499 268.634C316.743 270.612 316.365 272.794 316.365 275.18C316.365 277.565 316.743 279.747 317.499 281.726C318.256 283.704 319.303 285.421 320.641 286.875C321.98 288.272 323.551 289.377 325.355 290.192C327.158 290.948 329.108 291.327 331.203 291.327ZM389.712 297H379.674L367.891 253.359H375.31L384.911 290.454H391.457L402.804 253.359H410.223L391.894 313.583H384.475L389.712 297ZM442.507 297.873C439.423 297.873 436.543 297.32 433.866 296.214C431.247 295.051 428.949 293.48 426.971 291.501C425.05 289.465 423.509 287.05 422.345 284.257C421.239 281.464 420.686 278.438 420.686 275.18C420.686 271.921 421.239 268.895 422.345 266.102C423.509 263.309 425.05 260.924 426.971 258.945C428.949 256.909 431.247 255.338 433.866 254.232C436.543 253.068 439.423 252.486 442.507 252.486C444.66 252.486 446.609 252.719 448.355 253.185C450.158 253.592 451.759 254.174 453.155 254.93C454.552 255.629 455.774 256.443 456.821 257.374C457.868 258.305 458.77 259.236 459.527 260.167C461.33 262.437 462.64 264.968 463.454 267.761H456.472C455.774 266.131 454.813 264.677 453.591 263.397C452.544 262.291 451.119 261.302 449.315 260.429C447.511 259.498 445.242 259.033 442.507 259.033C440.412 259.033 438.463 259.44 436.659 260.255C434.855 261.011 433.284 262.117 431.946 263.571C430.607 264.968 429.56 266.655 428.804 268.634C428.047 270.612 427.669 272.794 427.669 275.18C427.669 277.624 428.076 279.835 428.891 281.813C429.705 283.791 430.782 285.479 432.12 286.875C433.459 288.272 435.03 289.377 436.833 290.192C438.637 290.948 440.528 291.327 442.507 291.327C445.358 291.327 447.685 290.832 449.489 289.843C451.351 288.854 452.835 287.748 453.941 286.526C455.221 285.13 456.21 283.53 456.908 281.726H463.891C463.076 284.81 461.738 287.515 459.876 289.843C459.061 290.832 458.13 291.821 457.083 292.81C456.035 293.741 454.784 294.585 453.33 295.342C451.933 296.098 450.333 296.709 448.529 297.175C446.725 297.64 444.718 297.873 442.507 297.873ZM479.639 253.359H517.606V297H510.624V259.905H486.621V297H479.639V253.359ZM554.718 297.873C552.449 297.873 550.412 297.64 548.608 297.175C546.863 296.709 545.262 296.098 543.808 295.342C542.411 294.585 541.16 293.741 540.055 292.81C539.007 291.821 538.105 290.832 537.349 289.843C535.487 287.515 534.149 284.81 533.334 281.726H540.317C541.015 283.53 542.004 285.13 543.284 286.526C544.39 287.748 545.844 288.854 547.648 289.843C549.51 290.832 551.867 291.327 554.718 291.327C558.675 291.327 561.904 290.134 564.406 287.748C566.908 285.362 568.537 282.191 569.294 278.234H551.227V271.688H569.207C568.508 267.964 566.908 264.939 564.406 262.611C561.904 260.225 558.675 259.033 554.718 259.033C551.925 259.033 549.627 259.498 547.823 260.429C546.077 261.302 544.681 262.291 543.633 263.397C542.411 264.677 541.451 266.131 540.753 267.761H533.77C534.585 264.968 535.894 262.437 537.698 260.167C538.454 259.236 539.356 258.305 540.404 257.374C541.451 256.443 542.673 255.629 544.07 254.93C545.466 254.174 547.037 253.592 548.783 253.185C550.528 252.719 552.507 252.486 554.718 252.486C557.744 252.486 560.595 253.068 563.272 254.232C565.948 255.338 568.247 256.909 570.167 258.945C572.145 260.924 573.687 263.309 574.793 266.102C575.956 268.895 576.538 271.921 576.538 275.18C576.538 278.438 575.956 281.464 574.793 284.257C573.687 287.05 572.145 289.465 570.167 291.501C568.247 293.48 565.948 295.051 563.272 296.214C560.595 297.32 557.744 297.873 554.718 297.873ZM587.486 290.454H592.286L602.324 253.359H620.653L630.69 290.454H635.491V307.037H628.508V297H594.468V307.037H587.486V290.454ZM623.708 290.454L615.416 259.905H607.561L599.269 290.454H623.708Z" fill="white"/>
<path d="M161 625.247C161 590.394 189.254 562.141 224.106 562.141H691.918V597.851C691.918 647.834 651.398 688.354 601.415 688.354H224.106C189.254 688.354 161 660.1 161 625.247Z" fill="black"/>
<path d="M317.045 643.873C313.961 643.873 311.081 643.32 308.404 642.214C305.786 641.051 303.487 639.48 301.509 637.501C299.589 635.465 298.047 633.05 296.883 630.257C295.777 627.464 295.225 624.438 295.225 621.18C295.225 617.921 295.777 614.895 296.883 612.102C298.047 609.309 299.589 606.924 301.509 604.945C303.487 602.909 305.786 601.338 308.404 600.232C311.081 599.068 313.961 598.486 317.045 598.486C319.198 598.486 321.147 598.719 322.893 599.185C324.697 599.592 326.297 600.174 327.693 600.93C329.09 601.629 330.312 602.443 331.359 603.374C332.407 604.305 333.308 605.236 334.065 606.167C335.869 608.437 337.178 610.968 337.993 613.761H331.01C330.312 612.131 329.352 610.677 328.13 609.397C327.082 608.291 325.657 607.302 323.853 606.429C322.049 605.498 319.78 605.033 317.045 605.033C314.95 605.033 313.001 605.44 311.197 606.255C309.393 607.011 307.822 608.117 306.484 609.571C305.146 610.968 304.098 612.655 303.342 614.634C302.585 616.612 302.207 618.794 302.207 621.18C302.207 623.624 302.614 625.835 303.429 627.813C304.244 629.791 305.32 631.479 306.659 632.875C307.997 634.272 309.568 635.377 311.372 636.192C313.176 636.948 315.067 637.327 317.045 637.327C319.896 637.327 322.224 636.832 324.028 635.843C325.89 634.854 327.373 633.748 328.479 632.526C329.759 631.13 330.748 629.53 331.446 627.726H338.429C337.614 630.81 336.276 633.515 334.414 635.843C333.599 636.832 332.668 637.821 331.621 638.81C330.574 639.741 329.323 640.585 327.868 641.342C326.471 642.098 324.871 642.709 323.067 643.175C321.264 643.64 319.256 643.873 317.045 643.873ZM354.177 599.359H361.16V616.816H369.888L383.853 599.359H392.145L375.997 619.87L393.454 643H384.726L369.888 623.362H361.16V643H354.177V599.359ZM425.386 643.873C422.128 643.873 419.102 643.32 416.309 642.214C413.516 641.051 411.101 639.48 409.065 637.501C407.086 635.465 405.515 633.05 404.352 630.257C403.246 627.464 402.693 624.438 402.693 621.18C402.693 617.921 403.246 614.895 404.352 612.102C405.515 609.309 407.086 606.924 409.065 604.945C411.101 602.909 413.516 601.338 416.309 600.232C419.102 599.068 422.128 598.486 425.386 598.486C428.645 598.486 431.671 599.068 434.464 600.232C437.257 601.338 439.642 602.909 441.621 604.945C443.657 606.924 445.228 609.309 446.334 612.102C447.498 614.895 448.08 617.921 448.08 621.18C448.08 624.438 447.498 627.464 446.334 630.257C445.228 633.05 443.657 635.465 441.621 637.501C439.642 639.48 437.257 641.051 434.464 642.214C431.671 643.32 428.645 643.873 425.386 643.873ZM425.386 637.327C427.656 637.327 429.751 636.948 431.671 636.192C433.591 635.377 435.249 634.272 436.646 632.875C438.042 631.421 439.119 629.704 439.875 627.726C440.69 625.747 441.097 623.565 441.097 621.18C441.097 618.794 440.69 616.612 439.875 614.634C439.119 612.655 438.042 610.968 436.646 609.571C435.249 608.117 433.591 607.011 431.671 606.255C429.751 605.44 427.656 605.033 425.386 605.033C423.117 605.033 421.022 605.44 419.102 606.255C417.182 607.011 415.524 608.117 414.127 609.571C412.731 610.968 411.625 612.655 410.81 614.634C410.054 616.612 409.676 618.794 409.676 621.18C409.676 623.565 410.054 625.747 410.81 627.726C411.625 629.704 412.731 631.421 414.127 632.875C415.524 634.272 417.182 635.377 419.102 636.192C421.022 636.948 423.117 637.327 425.386 637.327ZM474.23 605.905H458.956V599.359H496.487V605.905H481.212V643H474.23V605.905ZM537.983 626.853C537.052 627.493 535.975 628.075 534.753 628.599C533.706 629.064 532.368 629.471 530.739 629.821C529.167 630.17 527.364 630.344 525.327 630.344C520.032 630.344 515.93 628.977 513.02 626.242C510.169 623.449 508.744 619.725 508.744 615.07V599.359H515.726V614.634C515.726 617.485 516.57 619.725 518.257 621.354C519.945 622.983 522.447 623.798 525.763 623.798C527.742 623.798 529.488 623.653 531 623.362C532.513 623.071 533.793 622.722 534.841 622.314C536.063 621.849 537.11 621.325 537.983 620.743V599.359H544.965V643H537.983V626.853Z" fill="white"/>
<path d="M0 1052.05C0 1002.06 40.5195 961.543 90.5028 961.543H467.811C502.664 961.543 530.918 989.797 530.918 1024.65C530.918 1059.5 502.664 1087.76 467.811 1087.76H0V1052.05Z" fill="black"/>
<path d="M139.061 998.902H177.028V1042.54H170.046V1005.45H146.043V1042.54H139.061V998.902ZM214.576 1043.42C211.725 1043.42 209.019 1042.86 206.459 1041.76C203.957 1040.59 201.746 1039.02 199.826 1037.04C197.906 1035.01 196.393 1032.59 195.287 1029.8C194.182 1027.01 193.629 1023.98 193.629 1020.72C193.629 1017.46 194.182 1014.44 195.287 1011.65C196.393 1008.85 197.906 1006.47 199.826 1004.49C201.746 1002.45 203.957 1000.88 206.459 999.775C209.019 998.611 211.725 998.029 214.576 998.029C217.428 998.029 219.842 998.437 221.821 999.251C223.799 1000.07 225.399 1000.97 226.621 1001.96C227.901 1002.95 228.803 1003.88 229.327 1004.75C229.909 1005.56 230.2 1005.97 230.2 1005.97H230.287V998.902H237.27V1042.54H230.287V1035.56H230.2C230.2 1035.56 229.909 1036 229.327 1036.87C228.803 1037.68 227.901 1038.59 226.621 1039.58C225.399 1040.51 223.799 1041.38 221.821 1042.19C219.842 1043.01 217.428 1043.42 214.576 1043.42ZM215.449 1036.87C217.544 1036.87 219.493 1036.49 221.297 1035.74C223.101 1034.92 224.672 1033.81 226.01 1032.42C227.349 1030.96 228.396 1029.25 229.152 1027.27C229.909 1025.29 230.287 1023.11 230.287 1020.72C230.287 1018.34 229.909 1016.15 229.152 1014.18C228.396 1012.2 227.349 1010.51 226.01 1009.11C224.672 1007.66 223.101 1006.55 221.297 1005.8C219.493 1004.98 217.544 1004.58 215.449 1004.58C213.354 1004.58 211.405 1004.98 209.601 1005.8C207.797 1006.55 206.226 1007.66 204.888 1009.11C203.55 1010.51 202.502 1012.2 201.746 1014.18C200.99 1016.15 200.611 1018.34 200.611 1020.72C200.611 1023.11 200.99 1025.29 201.746 1027.27C202.502 1029.25 203.55 1030.96 204.888 1032.42C206.226 1033.81 207.797 1034.92 209.601 1035.74C211.405 1036.49 213.354 1036.87 215.449 1036.87ZM271.34 1043.42C269.129 1043.42 267.18 1043.21 265.492 1042.8C263.805 1042.4 262.292 1041.87 260.953 1041.23C259.673 1040.54 258.539 1039.75 257.549 1038.88C256.618 1038 255.833 1037.13 255.193 1036.26C253.68 1034.16 252.662 1031.75 252.138 1029.01H259.121C259.47 1030.53 260.139 1031.84 261.128 1032.94C261.943 1033.93 263.135 1034.83 264.707 1035.65C266.336 1036.46 268.547 1036.87 271.34 1036.87C275.064 1036.87 277.799 1036.14 279.544 1034.69C281.348 1033.23 282.25 1031.63 282.25 1029.89C282.25 1028.14 281.435 1026.63 279.806 1025.35C278.177 1024.01 275.5 1023.34 271.776 1023.34H266.539V1016.79H271.776C275.268 1016.79 277.741 1016.21 279.195 1015.05C280.65 1013.89 281.377 1012.43 281.377 1010.69C281.377 1009.17 280.563 1007.78 278.933 1006.5C277.362 1005.22 274.831 1004.58 271.34 1004.58C269.012 1004.58 267.15 1004.92 265.754 1005.62C264.357 1006.32 263.252 1007.08 262.437 1007.89C261.506 1008.88 260.837 1009.96 260.43 1011.12H253.447C253.971 1008.68 254.989 1006.5 256.502 1004.58C257.142 1003.76 257.899 1002.98 258.771 1002.22C259.644 1001.4 260.692 1000.71 261.914 1000.12C263.135 999.484 264.503 998.99 266.016 998.64C267.587 998.233 269.362 998.029 271.34 998.029C274.191 998.029 276.664 998.379 278.759 999.077C280.912 999.717 282.687 1000.59 284.083 1001.7C285.538 1002.8 286.614 1004.11 287.312 1005.62C288.011 1007.08 288.36 1008.62 288.36 1010.25C288.36 1012.11 288.011 1013.65 287.312 1014.87C286.614 1016.1 285.8 1017.09 284.869 1017.84C283.996 1018.54 283.152 1019.04 282.337 1019.33C281.581 1019.62 281.115 1019.79 280.941 1019.85V1019.94C281.057 1019.94 281.552 1020.08 282.425 1020.37C283.297 1020.66 284.228 1021.22 285.218 1022.03C286.265 1022.79 287.196 1023.84 288.011 1025.17C288.825 1026.51 289.233 1028.23 289.233 1030.32C289.233 1032.07 288.854 1033.73 288.098 1035.3C287.342 1036.87 286.207 1038.27 284.694 1039.49C283.181 1040.71 281.319 1041.67 279.108 1042.37C276.897 1043.07 274.308 1043.42 271.34 1043.42ZM320.685 1043.42C318.473 1043.42 316.524 1043.21 314.837 1042.8C313.149 1042.4 311.636 1041.87 310.298 1041.23C309.018 1040.54 307.883 1039.75 306.894 1038.88C305.963 1038 305.178 1037.13 304.538 1036.26C303.025 1034.16 302.006 1031.75 301.483 1029.01H308.465C308.814 1030.53 309.484 1031.84 310.473 1032.94C311.287 1033.93 312.48 1034.83 314.051 1035.65C315.68 1036.46 317.892 1036.87 320.685 1036.87C324.409 1036.87 327.143 1036.14 328.889 1034.69C330.693 1033.23 331.595 1031.63 331.595 1029.89C331.595 1028.14 330.78 1026.63 329.151 1025.35C327.522 1024.01 324.845 1023.34 321.121 1023.34H315.884V1016.79H321.121C324.612 1016.79 327.085 1016.21 328.54 1015.05C329.995 1013.89 330.722 1012.43 330.722 1010.69C330.722 1009.17 329.907 1007.78 328.278 1006.5C326.707 1005.22 324.176 1004.58 320.685 1004.58C318.357 1004.58 316.495 1004.92 315.099 1005.62C313.702 1006.32 312.597 1007.08 311.782 1007.89C310.851 1008.88 310.182 1009.96 309.774 1011.12H302.792C303.316 1008.68 304.334 1006.5 305.847 1004.58C306.487 1003.76 307.243 1002.98 308.116 1002.22C308.989 1001.4 310.036 1000.71 311.258 1000.12C312.48 999.484 313.848 998.99 315.36 998.64C316.932 998.233 318.706 998.029 320.685 998.029C323.536 998.029 326.009 998.379 328.104 999.077C330.256 999.717 332.031 1000.59 333.428 1001.7C334.882 1002.8 335.959 1004.11 336.657 1005.62C337.355 1007.08 337.704 1008.62 337.704 1010.25C337.704 1012.11 337.355 1013.65 336.657 1014.87C335.959 1016.1 335.144 1017.09 334.213 1017.84C333.34 1018.54 332.497 1019.04 331.682 1019.33C330.926 1019.62 330.46 1019.79 330.286 1019.85V1019.94C330.402 1019.94 330.897 1020.08 331.769 1020.37C332.642 1020.66 333.573 1021.22 334.562 1022.03C335.61 1022.79 336.541 1023.84 337.355 1025.17C338.17 1026.51 338.577 1028.23 338.577 1030.32C338.577 1032.07 338.199 1033.73 337.443 1035.3C336.686 1036.87 335.552 1038.27 334.039 1039.49C332.526 1040.71 330.664 1041.67 328.453 1042.37C326.242 1043.07 323.652 1043.42 320.685 1043.42ZM362.174 998.902H380.503L392.722 1042.54H385.304L375.266 1005.45H367.411L357.373 1042.54H349.955L362.174 998.902Z" fill="white"/>
<rect y="1144" width="530.918" height="126.213" rx="63.1065" fill="black"/>
<path d="M123.474 1181.36H130.456V1218.45H147.913V1181.36H154.895V1218.45H172.352V1181.36H179.334V1225H123.474V1181.36ZM216.889 1225.87C214.038 1225.87 211.332 1225.32 208.772 1224.21C206.27 1223.05 204.059 1221.48 202.138 1219.5C200.218 1217.46 198.705 1215.05 197.6 1212.26C196.494 1209.46 195.941 1206.44 195.941 1203.18C195.941 1199.92 196.494 1196.9 197.6 1194.1C198.705 1191.31 200.218 1188.92 202.138 1186.95C204.059 1184.91 206.27 1183.34 208.772 1182.23C211.332 1181.07 214.038 1180.49 216.889 1180.49C219.74 1180.49 222.155 1180.89 224.133 1181.71C226.112 1182.52 227.712 1183.42 228.934 1184.41C230.214 1185.4 231.116 1186.33 231.639 1187.21C232.221 1188.02 232.512 1188.43 232.512 1188.43H232.6V1181.36H239.582V1225H232.6V1218.02H232.512C232.512 1218.02 232.221 1218.45 231.639 1219.33C231.116 1220.14 230.214 1221.04 228.934 1222.03C227.712 1222.96 226.112 1223.84 224.133 1224.65C222.155 1225.47 219.74 1225.87 216.889 1225.87ZM217.762 1219.33C219.856 1219.33 221.806 1218.95 223.61 1218.19C225.413 1217.38 226.984 1216.27 228.323 1214.88C229.661 1213.42 230.708 1211.7 231.465 1209.73C232.221 1207.75 232.6 1205.57 232.6 1203.18C232.6 1200.79 232.221 1198.61 231.465 1196.63C230.708 1194.66 229.661 1192.97 228.323 1191.57C226.984 1190.12 225.413 1189.01 223.61 1188.25C221.806 1187.44 219.856 1187.03 217.762 1187.03C215.667 1187.03 213.718 1187.44 211.914 1188.25C210.11 1189.01 208.539 1190.12 207.201 1191.57C205.862 1192.97 204.815 1194.66 204.059 1196.63C203.302 1198.61 202.924 1200.79 202.924 1203.18C202.924 1205.57 203.302 1207.75 204.059 1209.73C204.815 1211.7 205.862 1213.42 207.201 1214.88C208.539 1216.27 210.11 1217.38 211.914 1218.19C213.718 1218.95 215.667 1219.33 217.762 1219.33ZM258.815 1181.36H296.782V1225H289.8V1187.91H265.797V1225H258.815V1181.36ZM316.001 1181.36H322.984V1198.82H331.712L345.677 1181.36H353.968L337.821 1201.87L355.278 1225H346.55L331.712 1205.36H322.984V1225H316.001V1181.36ZM385.465 1225.87C382.614 1225.87 379.908 1225.32 377.348 1224.21C374.846 1223.05 372.634 1221.48 370.714 1219.5C368.794 1217.46 367.281 1215.05 366.176 1212.26C365.07 1209.46 364.517 1206.44 364.517 1203.18C364.517 1199.92 365.07 1196.9 366.176 1194.1C367.281 1191.31 368.794 1188.92 370.714 1186.95C372.634 1184.91 374.846 1183.34 377.348 1182.23C379.908 1181.07 382.614 1180.49 385.465 1180.49C388.316 1180.49 390.731 1180.89 392.709 1181.71C394.688 1182.52 396.288 1183.42 397.51 1184.41C398.79 1185.4 399.692 1186.33 400.215 1187.21C400.797 1188.02 401.088 1188.43 401.088 1188.43H401.175V1181.36H408.158V1225H401.175V1218.02H401.088C401.088 1218.02 400.797 1218.45 400.215 1219.33C399.692 1220.14 398.79 1221.04 397.51 1222.03C396.288 1222.96 394.688 1223.84 392.709 1224.65C390.731 1225.47 388.316 1225.87 385.465 1225.87ZM386.338 1219.33C388.432 1219.33 390.382 1218.95 392.185 1218.19C393.989 1217.38 395.56 1216.27 396.899 1214.88C398.237 1213.42 399.284 1211.7 400.041 1209.73C400.797 1207.75 401.175 1205.57 401.175 1203.18C401.175 1200.79 400.797 1198.61 400.041 1196.63C399.284 1194.66 398.237 1192.97 396.899 1191.57C395.56 1190.12 393.989 1189.01 392.185 1188.25C390.382 1187.44 388.432 1187.03 386.338 1187.03C384.243 1187.03 382.294 1187.44 380.49 1188.25C378.686 1189.01 377.115 1190.12 375.777 1191.57C374.438 1192.97 373.391 1194.66 372.634 1196.63C371.878 1198.61 371.5 1200.79 371.5 1203.18C371.5 1205.57 371.878 1207.75 372.634 1209.73C373.391 1211.7 374.438 1213.42 375.777 1214.88C377.115 1216.27 378.686 1217.38 380.49 1218.19C382.294 1218.95 384.243 1219.33 386.338 1219.33Z" fill="white"/>
<rect y="1328.09" width="530.918" height="126.213" rx="29.9687" fill="black"/>
<path d="M135.66 1363.36H142.643V1380.82H151.371L165.336 1363.36H173.628L157.481 1383.87L174.937 1407H166.209L151.371 1387.36H142.643V1407H135.66V1363.36ZM206.433 1407.87C203.291 1407.87 200.353 1407.32 197.618 1406.21C194.883 1405.05 192.527 1403.48 190.548 1401.5C188.57 1399.46 186.999 1397.05 185.835 1394.26C184.729 1391.46 184.177 1388.44 184.177 1385.18C184.177 1381.92 184.729 1378.9 185.835 1376.1C186.999 1373.31 188.57 1370.92 190.548 1368.95C192.527 1366.91 194.883 1365.34 197.618 1364.23C200.353 1363.07 203.291 1362.49 206.433 1362.49C209.576 1362.49 212.514 1363.07 215.249 1364.23C217.984 1365.34 220.34 1366.88 222.319 1368.86C224.297 1370.84 225.839 1373.19 226.945 1375.93C228.108 1378.66 228.69 1381.6 228.69 1384.74V1387.36H191.159C191.392 1389.4 191.945 1391.29 192.818 1393.03C193.69 1394.72 194.796 1396.18 196.134 1397.4C197.473 1398.62 199.015 1399.58 200.76 1400.28C202.564 1400.98 204.455 1401.33 206.433 1401.33C209.052 1401.33 211.263 1400.92 213.067 1400.1C214.871 1399.29 216.354 1398.39 217.518 1397.4C218.856 1396.29 219.962 1394.98 220.835 1393.47H227.817C226.77 1396.21 225.286 1398.62 223.366 1400.72C221.679 1402.52 219.467 1404.18 216.733 1405.69C213.998 1407.15 210.565 1407.87 206.433 1407.87ZM221.271 1381.25C221.039 1379.62 220.515 1378.08 219.7 1376.63C218.944 1375.11 217.925 1373.8 216.645 1372.7C215.365 1371.59 213.852 1370.72 212.107 1370.08C210.419 1369.38 208.528 1369.03 206.433 1369.03C204.339 1369.03 202.418 1369.38 200.673 1370.08C198.985 1370.72 197.473 1371.59 196.134 1372.7C194.854 1373.8 193.807 1375.11 192.992 1376.63C192.177 1378.08 191.625 1379.62 191.334 1381.25H221.271ZM245.26 1363.36H283.227V1407H276.245V1369.91H252.243V1407H245.26V1363.36ZM302.446 1363.36H309.429V1380.82H318.157L332.122 1363.36H340.414L324.267 1383.87L341.723 1407H332.995L318.157 1387.36H309.429V1407H302.446V1363.36ZM371.91 1407.87C369.059 1407.87 366.353 1407.32 363.793 1406.21C361.291 1405.05 359.08 1403.48 357.16 1401.5C355.239 1399.46 353.726 1397.05 352.621 1394.26C351.515 1391.46 350.963 1388.44 350.963 1385.18C350.963 1381.92 351.515 1378.9 352.621 1376.1C353.726 1373.31 355.239 1370.92 357.16 1368.95C359.08 1366.91 361.291 1365.34 363.793 1364.23C366.353 1363.07 369.059 1362.49 371.91 1362.49C374.761 1362.49 377.176 1362.89 379.154 1363.71C381.133 1364.52 382.733 1365.42 383.955 1366.41C385.235 1367.4 386.137 1368.33 386.661 1369.21C387.243 1370.02 387.533 1370.43 387.533 1370.43H387.621V1363.36H394.603V1407H387.621V1400.02H387.533C387.533 1400.02 387.243 1400.45 386.661 1401.33C386.137 1402.14 385.235 1403.04 383.955 1404.03C382.733 1404.96 381.133 1405.84 379.154 1406.65C377.176 1407.47 374.761 1407.87 371.91 1407.87ZM372.783 1401.33C374.878 1401.33 376.827 1400.95 378.631 1400.19C380.435 1399.38 382.006 1398.27 383.344 1396.88C384.682 1395.42 385.73 1393.7 386.486 1391.73C387.243 1389.75 387.621 1387.57 387.621 1385.18C387.621 1382.79 387.243 1380.61 386.486 1378.63C385.73 1376.66 384.682 1374.97 383.344 1373.57C382.006 1372.12 380.435 1371.01 378.631 1370.25C376.827 1369.44 374.878 1369.03 372.783 1369.03C370.688 1369.03 368.739 1369.44 366.935 1370.25C365.131 1371.01 363.56 1372.12 362.222 1373.57C360.884 1374.97 359.836 1376.66 359.08 1378.63C358.323 1380.61 357.945 1382.79 357.945 1385.18C357.945 1387.57 358.323 1389.75 359.08 1391.73C359.836 1393.7 360.884 1395.42 362.222 1396.88C363.56 1398.27 365.131 1399.38 366.935 1400.19C368.739 1400.95 370.688 1401.33 372.783 1401.33Z" fill="white"/>
<rect x="161" y="389.27" width="530.889" height="126.533" rx="63.2666" fill="black"/>
<path d="M321.838 453.853C320.907 454.493 319.83 455.075 318.608 455.599C317.561 456.064 316.222 456.471 314.593 456.821C313.022 457.17 311.218 457.344 309.182 457.344C303.887 457.344 299.784 455.977 296.875 453.242C294.024 450.449 292.598 446.725 292.598 442.07V426.359H299.581V441.634C299.581 444.485 300.425 446.725 302.112 448.354C303.799 449.983 306.302 450.798 309.618 450.798C311.597 450.798 313.342 450.653 314.855 450.362C316.368 450.071 317.648 449.722 318.695 449.314C319.917 448.849 320.965 448.325 321.838 447.743V426.359H328.82V470H321.838V453.853ZM367.664 470.873C364.522 470.873 361.583 470.32 358.848 469.214C356.114 468.051 353.757 466.48 351.779 464.501C349.8 462.465 348.229 460.05 347.065 457.257C345.96 454.464 345.407 451.438 345.407 448.18C345.407 444.921 345.96 441.895 347.065 439.102C348.229 436.309 349.8 433.924 351.779 431.945C353.757 429.909 356.114 428.338 358.848 427.232C361.583 426.068 364.522 425.486 367.664 425.486C370.806 425.486 373.744 426.068 376.479 427.232C379.214 428.338 381.571 429.88 383.549 431.858C385.527 433.836 387.069 436.193 388.175 438.928C389.339 441.663 389.921 444.601 389.921 447.743V450.362H352.39C352.622 452.398 353.175 454.289 354.048 456.035C354.921 457.722 356.026 459.177 357.365 460.399C358.703 461.621 360.245 462.581 361.99 463.279C363.794 463.978 365.685 464.327 367.664 464.327C370.282 464.327 372.493 463.919 374.297 463.105C376.101 462.29 377.585 461.388 378.748 460.399C380.087 459.293 381.192 457.984 382.065 456.471H389.048C388 459.206 386.517 461.621 384.596 463.716C382.909 465.52 380.698 467.178 377.963 468.691C375.228 470.145 371.795 470.873 367.664 470.873ZM382.502 444.252C382.269 442.623 381.745 441.081 380.931 439.626C380.174 438.113 379.156 436.804 377.876 435.698C376.596 434.593 375.083 433.72 373.337 433.08C371.65 432.382 369.759 432.033 367.664 432.033C365.569 432.033 363.649 432.382 361.903 433.08C360.216 433.72 358.703 434.593 357.365 435.698C356.084 436.804 355.037 438.113 354.222 439.626C353.408 441.081 352.855 442.623 352.564 444.252H382.502ZM413.067 447.743L400.411 426.359H408.267L418.74 444.252H422.668L433.142 426.359H440.997L428.341 447.743L441.434 470H433.578L422.668 450.798H418.74L407.83 470H399.975L413.067 447.743ZM474.205 470.873C470.947 470.873 467.921 470.32 465.128 469.214C462.335 468.051 459.92 466.48 457.883 464.501C455.905 462.465 454.334 460.05 453.17 457.257C452.065 454.464 451.512 451.438 451.512 448.18C451.512 444.921 452.065 441.895 453.17 439.102C454.334 436.309 455.905 433.924 457.883 431.945C459.92 429.909 462.335 428.338 465.128 427.232C467.921 426.068 470.947 425.486 474.205 425.486C477.464 425.486 480.489 426.068 483.282 427.232C486.075 428.338 488.461 429.909 490.439 431.945C492.476 433.924 494.047 436.309 495.153 439.102C496.316 441.895 496.898 444.921 496.898 448.18C496.898 451.438 496.316 454.464 495.153 457.257C494.047 460.05 492.476 462.465 490.439 464.501C488.461 466.48 486.075 468.051 483.282 469.214C480.489 470.32 477.464 470.873 474.205 470.873ZM474.205 464.327C476.474 464.327 478.569 463.948 480.489 463.192C482.409 462.377 484.068 461.272 485.464 459.875C486.861 458.421 487.937 456.704 488.694 454.726C489.508 452.747 489.916 450.565 489.916 448.18C489.916 445.794 489.508 443.612 488.694 441.634C487.937 439.655 486.861 437.968 485.464 436.571C484.068 435.117 482.409 434.011 480.489 433.255C478.569 432.44 476.474 432.033 474.205 432.033C471.936 432.033 469.841 432.44 467.921 433.255C466.001 434.011 464.342 435.117 462.946 436.571C461.549 437.968 460.444 439.655 459.629 441.634C458.873 443.612 458.494 445.794 458.494 448.18C458.494 450.565 458.873 452.747 459.629 454.726C460.444 456.704 461.549 458.421 462.946 459.875C464.342 461.272 466.001 462.377 467.921 463.192C469.841 463.948 471.936 464.327 474.205 464.327ZM520.43 426.359H538.759L550.979 470H543.56L533.522 432.905H525.667L515.63 470H508.211L520.43 426.359Z" fill="white"/>
<rect x="2" y="688.207" width="472.207" height="128.367" rx="29.9687" transform="rotate(-90 2 688.207)" fill="black"/>
<path d="M91.2078 614.734C91.2078 617.876 90.6841 620.786 89.6367 623.462C88.5311 626.081 86.9601 628.321 84.9235 630.183C82.8288 632.045 80.2685 633.5 77.2427 634.547C74.217 635.594 70.7257 636.118 66.769 636.118C60.0192 636.118 54.2586 635.478 49.4873 634.198C44.7159 632.918 40.8464 631.056 37.8788 628.612C34.8531 626.168 32.671 623.171 31.3327 619.622C29.9362 616.014 29.238 611.912 29.238 607.315V596.841H36.6569V607.315C36.6569 610.807 37.0642 613.832 37.8788 616.393C38.6353 618.953 39.8572 621.106 41.5447 622.851C43.1739 624.597 45.2978 625.993 47.9162 627.041C50.4764 628.03 53.5604 628.728 57.168 629.136V629.048C55.8879 628.176 54.7241 627.012 53.6768 625.557C52.804 624.335 52.0184 622.793 51.3202 620.931C50.5637 619.011 50.1855 616.654 50.1855 613.861C50.1855 610.894 50.7092 608.159 51.7566 605.657C52.7458 603.155 54.1714 601.002 56.0334 599.198C57.8372 597.336 59.9901 595.91 62.4922 594.921C64.9943 593.874 67.7291 593.35 70.6966 593.35C73.6642 593.35 76.399 593.874 78.9011 594.921C81.4032 595.969 83.5852 597.423 85.4472 599.285C87.251 601.147 88.6766 603.417 89.724 606.093C90.7132 608.712 91.2078 611.592 91.2078 614.734ZM84.6617 614.734C84.6617 612.639 84.3125 610.719 83.6143 608.974C82.8579 607.228 81.8687 605.715 80.6467 604.435C79.3666 603.155 77.8828 602.166 76.1954 601.467C74.5079 600.711 72.675 600.333 70.6966 600.333C68.7183 600.333 66.8854 600.711 65.1979 601.467C63.5105 602.166 62.0558 603.155 60.8338 604.435C59.5537 605.715 58.5645 607.228 57.8663 608.974C57.1098 610.719 56.7316 612.639 56.7316 614.734C56.7316 616.829 57.1098 618.749 57.8663 620.495C58.5645 622.24 59.5537 623.753 60.8338 625.033C62.0558 626.314 63.5105 627.332 65.1979 628.088C66.8854 628.786 68.7183 629.136 70.6966 629.136C72.675 629.136 74.5079 628.786 76.1954 628.088C77.8828 627.332 79.3666 626.314 80.6467 625.033C81.8687 623.753 82.8579 622.24 83.6143 620.495C84.3125 618.749 84.6617 616.829 84.6617 614.734ZM46.6943 570.695V552.365L90.335 540.146V547.565L53.2404 557.602V565.458L90.335 575.495V582.914L46.6943 570.695ZM91.2078 506.127C91.2078 509.385 90.655 512.411 89.5494 515.204C88.3857 517.997 86.8146 520.412 84.8362 522.448C82.7997 524.427 80.3849 525.998 77.5919 527.162C74.7989 528.267 71.7731 528.82 68.5146 528.82C65.2561 528.82 62.2303 528.267 59.4373 527.162C56.6443 525.998 54.2586 524.427 52.2803 522.448C50.2437 520.412 48.6726 517.997 47.5671 515.204C46.4033 512.411 45.8214 509.385 45.8214 506.127C45.8214 502.868 46.4033 499.843 47.5671 497.05C48.6726 494.257 50.2437 491.871 52.2803 489.892C54.2586 487.856 56.6443 486.285 59.4373 485.179C62.2303 484.015 65.2561 483.434 68.5146 483.434C71.7731 483.434 74.7989 484.015 77.5919 485.179C80.3849 486.285 82.7997 487.856 84.8362 489.892C86.8146 491.871 88.3857 494.257 89.5494 497.05C90.655 499.843 91.2078 502.868 91.2078 506.127ZM84.6617 506.127C84.6617 503.857 84.2834 501.763 83.527 499.843C82.7124 497.922 81.6068 496.264 80.2103 494.867C78.7556 493.471 77.0391 492.395 75.0607 491.638C73.0823 490.823 70.9003 490.416 68.5146 490.416C66.1289 490.416 63.9469 490.823 61.9685 491.638C59.9901 492.395 58.3027 493.471 56.9062 494.867C55.4515 496.264 54.3459 497.922 53.5895 499.843C52.7749 501.763 52.3675 503.857 52.3675 506.127C52.3675 508.396 52.7749 510.491 53.5895 512.411C54.3459 514.331 55.4515 515.99 56.9062 517.386C58.3027 518.783 59.9901 519.888 61.9685 520.703C63.9469 521.459 66.1289 521.837 68.5146 521.837C70.9003 521.837 73.0823 521.459 75.0607 520.703C77.0391 519.888 78.7556 518.783 80.2103 517.386C81.6068 515.99 82.7124 514.331 83.527 512.411C84.2834 510.491 84.6617 508.396 84.6617 506.127ZM46.6943 466.884L46.6943 459.902H64.1505V451.174L46.6943 437.209V428.917L67.2054 445.064L90.335 427.608V436.336L70.6966 451.174V459.902H90.335V466.884H46.6943ZM46.6943 414.045V407.062H64.5869V382.624H46.6943V375.641H90.335V382.624H71.133V407.062H90.335V414.045H46.6943ZM91.2078 336.358C91.2078 339.616 90.655 342.642 89.5494 345.435C88.3857 348.228 86.8146 350.643 84.8362 352.679C82.7997 354.658 80.3849 356.229 77.5919 357.392C74.7989 358.498 71.7731 359.051 68.5146 359.051C65.2561 359.051 62.2303 358.498 59.4373 357.392C56.6443 356.229 54.2586 354.658 52.2803 352.679C50.2437 350.643 48.6726 348.228 47.5671 345.435C46.4033 342.642 45.8214 339.616 45.8214 336.358C45.8214 333.099 46.4033 330.073 47.5671 327.28C48.6726 324.487 50.2437 322.102 52.2803 320.123C54.2586 318.087 56.6443 316.516 59.4373 315.41C62.2303 314.246 65.2561 313.664 68.5146 313.664C71.7731 313.664 74.7989 314.246 77.5919 315.41C80.3849 316.516 82.7997 318.087 84.8362 320.123C86.8146 322.102 88.3857 324.487 89.5494 327.28C90.655 330.073 91.2078 333.099 91.2078 336.358ZM84.6617 336.358C84.6617 334.088 84.2834 331.994 83.527 330.073C82.7124 328.153 81.6068 326.495 80.2103 325.098C78.7556 323.702 77.0391 322.625 75.0607 321.869C73.0823 321.054 70.9003 320.647 68.5146 320.647C66.1289 320.647 63.9469 321.054 61.9685 321.869C59.9901 322.625 58.3027 323.702 56.9062 325.098C55.4515 326.495 54.3459 328.153 53.5895 330.073C52.7749 331.994 52.3675 334.088 52.3675 336.358C52.3675 338.627 52.7749 340.722 53.5895 342.642C54.3459 344.562 55.4515 346.22 56.9062 347.617C58.3027 349.013 59.9901 350.119 61.9685 350.934C63.9469 351.69 66.1289 352.068 68.5146 352.068C70.9003 352.068 73.0823 351.69 75.0607 350.934C77.0391 350.119 78.7556 349.013 80.2103 347.617C81.6068 346.22 82.7124 344.562 83.527 342.642C84.2834 340.722 84.6617 338.627 84.6617 336.358ZM53.2404 287.514V302.788H46.6943V265.257H53.2404V280.532H90.335V287.514H53.2404Z" fill="white"/>
<rect x="1" width="691.348" height="158.625" rx="29.9687" fill="black"/>
<path d="M132.458 105.925C129.199 105.692 126.174 104.965 123.381 103.743C120.588 102.521 118.173 100.921 116.136 98.9422C114.158 96.9056 112.587 94.6072 111.423 92.0469C110.318 89.4285 109.765 86.6355 109.765 83.6679C109.765 80.7004 110.318 77.9364 111.423 75.3762C112.587 72.7578 114.158 70.4593 116.136 68.481C118.173 66.4444 120.588 64.8151 123.381 63.5932C126.174 62.3713 129.199 61.6439 132.458 61.4112V44.3913H139.44V61.4112C142.699 61.6439 145.725 62.3713 148.518 63.5932C151.311 64.8151 153.696 66.4444 155.675 68.481C157.711 70.4593 159.282 72.7578 160.388 75.3762C161.552 77.9364 162.134 80.7004 162.134 83.6679C162.134 86.6355 161.552 89.4285 160.388 92.0469C159.282 94.6072 157.711 96.9056 155.675 98.9422C153.696 100.921 151.311 102.521 148.518 103.743C145.725 104.965 142.699 105.692 139.44 105.925V122.072H132.458V105.925ZM132.458 67.9573C130.189 68.0736 128.094 68.5391 126.174 69.3538C124.254 70.1684 122.595 71.274 121.199 72.6705C119.802 74.067 118.697 75.7253 117.882 77.6455C117.126 79.5075 116.747 81.515 116.747 83.6679C116.747 85.8791 117.126 87.9156 117.882 89.7776C118.697 91.6396 119.802 93.2689 121.199 94.6654C122.595 96.0619 124.254 97.1675 126.174 97.9821C128.094 98.7967 130.189 99.2622 132.458 99.3786V67.9573ZM139.44 99.3786C141.71 99.2622 143.805 98.7967 145.725 97.9821C147.645 97.1675 149.303 96.0619 150.7 94.6654C152.096 93.2689 153.173 91.6396 153.929 89.7776C154.744 87.9156 155.151 85.8791 155.151 83.6679C155.151 81.515 154.744 79.5075 153.929 77.6455C153.173 75.7253 152.096 74.067 150.7 72.6705C149.303 71.274 147.645 70.1684 145.725 69.3538C143.805 68.5391 141.71 68.0736 139.44 67.9573V99.3786ZM194.452 105.488H184.414L172.631 61.8476H180.05L189.651 98.9422H196.197L207.544 61.8476H214.963L196.634 122.072H189.215L194.452 105.488ZM237.646 68.3937H222.371V61.8476H259.902V68.3937H244.628V105.488H237.646V68.3937ZM292.234 106.361C289.092 106.361 286.183 105.837 283.506 104.79C280.888 103.684 278.647 102.113 276.785 100.077C274.923 97.9821 273.469 95.4218 272.421 92.3961C271.374 89.3703 270.85 85.8791 270.85 81.9223C270.85 75.1725 271.49 69.412 272.77 64.6406C274.05 59.8692 275.912 55.9997 278.356 53.0322C280.8 50.0064 283.797 47.8244 287.346 46.486C290.954 45.0895 295.056 44.3913 299.653 44.3913H310.127V51.8102H299.653C296.162 51.8102 293.136 52.2175 290.576 53.0322C288.016 53.7886 285.863 55.0105 284.117 56.698C282.371 58.3272 280.975 60.4511 279.927 63.0695C278.938 65.6298 278.24 68.7137 277.833 72.3213H277.92C278.793 71.0412 279.957 69.8775 281.411 68.8301C282.633 67.9573 284.175 67.1717 286.037 66.4735C287.957 65.7171 290.314 65.3388 293.107 65.3388C296.074 65.3388 298.809 65.8625 301.311 66.9099C303.813 67.8991 305.966 69.3247 307.77 71.1867C309.632 72.9905 311.058 75.1434 312.047 77.6455C313.094 80.1476 313.618 82.8824 313.618 85.85C313.618 88.8175 313.094 91.5523 312.047 94.0544C311 96.5565 309.545 98.7385 307.683 100.601C305.821 102.404 303.552 103.83 300.875 104.877C298.257 105.867 295.376 106.361 292.234 106.361ZM292.234 99.815C294.329 99.815 296.249 99.4659 297.995 98.7676C299.74 98.0112 301.253 97.022 302.533 95.8C303.813 94.5199 304.803 93.0361 305.501 91.3487C306.257 89.6613 306.636 87.8283 306.636 85.85C306.636 83.8716 306.257 82.0387 305.501 80.3512C304.803 78.6638 303.813 77.2091 302.533 75.9872C301.253 74.707 299.74 73.7178 297.995 73.0196C296.249 72.2632 294.329 71.8849 292.234 71.8849C290.139 71.8849 288.219 72.2632 286.474 73.0196C284.728 73.7178 283.215 74.707 281.935 75.9872C280.655 77.2091 279.636 78.6638 278.88 80.3512C278.182 82.0387 277.833 83.8716 277.833 85.85C277.833 87.8283 278.182 89.6613 278.88 91.3487C279.636 93.0361 280.655 94.5199 281.935 95.8C283.215 97.022 284.728 98.0112 286.474 98.7676C288.219 99.4659 290.139 99.815 292.234 99.815ZM349.366 106.361C346.107 106.361 343.082 105.808 340.289 104.703C337.496 103.539 335.081 101.968 333.044 99.9896C331.066 97.953 329.495 95.5382 328.331 92.7452C327.226 89.9522 326.673 86.9264 326.673 83.6679C326.673 80.4094 327.226 77.3837 328.331 74.5907C329.495 71.7977 331.066 69.412 333.044 67.4336C335.081 65.397 337.496 63.826 340.289 62.7204C343.082 61.5566 346.107 60.9748 349.366 60.9748C352.624 60.9748 355.65 61.5566 358.443 62.7204C361.236 63.826 363.622 65.397 365.6 67.4336C367.637 69.412 369.208 71.7977 370.313 74.5907C371.477 77.3837 372.059 80.4094 372.059 83.6679C372.059 86.9264 371.477 89.9522 370.313 92.7452C369.208 95.5382 367.637 97.953 365.6 99.9896C363.622 101.968 361.236 103.539 358.443 104.703C355.65 105.808 352.624 106.361 349.366 106.361ZM349.366 99.815C351.635 99.815 353.73 99.4368 355.65 98.6803C357.57 97.8657 359.229 96.7601 360.625 95.3636C362.022 93.9089 363.098 92.1924 363.855 90.214C364.669 88.2357 365.077 86.0536 365.077 83.6679C365.077 81.2822 364.669 79.1002 363.855 77.1218C363.098 75.1434 362.022 73.456 360.625 72.0595C359.229 70.6048 357.57 69.4992 355.65 68.7428C353.73 67.9282 351.635 67.5209 349.366 67.5209C347.097 67.5209 345.002 67.9282 343.082 68.7428C341.161 69.4992 339.503 70.6048 338.107 72.0595C336.71 73.456 335.605 75.1434 334.79 77.1218C334.033 79.1002 333.655 81.2822 333.655 83.6679C333.655 86.0536 334.033 88.2357 334.79 90.214C335.605 92.1924 336.71 93.9089 338.107 95.3636C339.503 96.7601 341.161 97.8657 343.082 98.6803C345.002 99.4368 347.097 99.815 349.366 99.815ZM395.591 61.8476H413.92L426.139 105.488H418.721L408.683 68.3937H400.828L390.79 105.488H383.372L395.591 61.8476ZM440.084 61.8476H447.067V79.3039H455.795L469.76 61.8476H478.051L461.904 82.3587L479.361 105.488H470.633L455.795 85.85H447.067V105.488H440.084V61.8476ZM509.548 106.361C506.697 106.361 503.991 105.808 501.431 104.703C498.929 103.539 496.717 101.968 494.797 99.9896C492.877 97.953 491.364 95.5382 490.259 92.7452C489.153 89.9522 488.6 86.9264 488.6 83.6679C488.6 80.4094 489.153 77.3837 490.259 74.5907C491.364 71.7977 492.877 69.412 494.797 67.4336C496.717 65.397 498.929 63.826 501.431 62.7204C503.991 61.5566 506.697 60.9748 509.548 60.9748C512.399 60.9748 514.814 61.3821 516.792 62.1967C518.771 63.0113 520.371 63.9132 521.593 64.9024C522.873 65.8916 523.775 66.8226 524.298 67.6954C524.88 68.5101 525.171 68.9174 525.171 68.9174H525.258V61.8476H532.241V105.488H525.258V98.5058H525.171C525.171 98.5058 524.88 98.9422 524.298 99.815C523.775 100.63 522.873 101.532 521.593 102.521C520.371 103.452 518.771 104.325 516.792 105.139C514.814 105.954 512.399 106.361 509.548 106.361ZM510.421 99.815C512.515 99.815 514.465 99.4368 516.268 98.6803C518.072 97.8657 519.643 96.7601 520.982 95.3636C522.32 93.9089 523.367 92.1924 524.124 90.214C524.88 88.2357 525.258 86.0536 525.258 83.6679C525.258 81.2822 524.88 79.1002 524.124 77.1218C523.367 75.1434 522.32 73.456 520.982 72.0595C519.643 70.6048 518.072 69.4992 516.268 68.7428C514.465 67.9282 512.515 67.5209 510.421 67.5209C508.326 67.5209 506.377 67.9282 504.573 68.7428C502.769 69.4992 501.198 70.6048 499.86 72.0595C498.521 73.456 497.474 75.1434 496.717 77.1218C495.961 79.1002 495.583 81.2822 495.583 83.6679C495.583 86.0536 495.961 88.2357 496.717 90.214C497.474 92.1924 498.521 93.9089 499.86 95.3636C501.198 96.7601 502.769 97.8657 504.573 98.6803C506.377 99.4368 508.326 99.815 510.421 99.815Z" fill="white"/>
<path d="M697.499 1419.45C647.518 1419.45 607 1378.93 607 1328.95V994H644.868C694.849 994 735.367 1034.52 735.367 1084.5V1419.45H697.499Z" fill="black"/>
<path d="M692.541 1347.15C692.541 1349.36 692.337 1351.31 691.93 1353C691.522 1354.69 690.999 1356.2 690.359 1357.54C689.66 1358.82 688.875 1359.95 688.002 1360.94C687.129 1361.87 686.257 1362.66 685.384 1363.3C683.289 1364.81 680.874 1365.83 678.139 1366.35V1359.37C679.652 1359.02 680.961 1358.35 682.067 1357.36C683.056 1356.55 683.958 1355.35 684.773 1353.78C685.587 1352.15 685.995 1349.94 685.995 1347.15C685.995 1343.43 685.267 1340.69 683.813 1338.95C682.358 1337.14 680.758 1336.24 679.012 1336.24C677.267 1336.24 675.754 1337.05 674.474 1338.68C673.135 1340.31 672.466 1342.99 672.466 1346.71V1351.95H665.92V1346.71C665.92 1343.22 665.338 1340.75 664.174 1339.29C663.011 1337.84 661.556 1337.11 659.81 1337.11C658.297 1337.11 656.901 1337.93 655.621 1339.56C654.341 1341.13 653.701 1343.66 653.701 1347.15C653.701 1349.48 654.05 1351.34 654.748 1352.74C655.446 1354.13 656.203 1355.24 657.017 1356.05C658.006 1356.98 659.083 1357.65 660.247 1358.06V1365.04C657.803 1364.52 655.621 1363.5 653.701 1361.99C652.886 1361.35 652.1 1360.59 651.344 1359.72C650.529 1358.85 649.831 1357.8 649.249 1356.58C648.609 1355.35 648.115 1353.99 647.765 1352.47C647.358 1350.9 647.154 1349.13 647.154 1347.15C647.154 1344.3 647.504 1341.83 648.202 1339.73C648.842 1337.58 649.715 1335.8 650.82 1334.41C651.926 1332.95 653.235 1331.88 654.748 1331.18C656.203 1330.48 657.745 1330.13 659.374 1330.13C661.236 1330.13 662.778 1330.48 664 1331.18C665.222 1331.88 666.211 1332.69 666.967 1333.62C667.666 1334.49 668.16 1335.34 668.451 1336.15C668.742 1336.91 668.917 1337.37 668.975 1337.55H669.062C669.062 1337.43 669.208 1336.94 669.498 1336.07C669.789 1335.19 670.342 1334.26 671.157 1333.27C671.913 1332.22 672.961 1331.29 674.299 1330.48C675.637 1329.66 677.354 1329.26 679.449 1329.26C681.194 1329.26 682.853 1329.64 684.424 1330.39C685.995 1331.15 687.391 1332.28 688.613 1333.8C689.835 1335.31 690.795 1337.17 691.493 1339.38C692.192 1341.59 692.541 1344.18 692.541 1347.15ZM648.027 1312.64V1305.66H665.92V1281.22H648.027V1274.24H691.668V1281.22H672.466V1305.66H691.668V1312.64H648.027ZM692.541 1236.7C692.541 1239.55 691.988 1242.26 690.882 1244.82C689.719 1247.32 688.148 1249.53 686.169 1251.45C684.133 1253.37 681.718 1254.89 678.925 1255.99C676.132 1257.1 673.106 1257.65 669.848 1257.65C666.589 1257.65 663.563 1257.1 660.77 1255.99C657.977 1254.89 655.592 1253.37 653.613 1251.45C651.577 1249.53 650.006 1247.32 648.9 1244.82C647.736 1242.26 647.154 1239.55 647.154 1236.7C647.154 1233.85 647.562 1231.44 648.376 1229.46C649.191 1227.48 650.093 1225.88 651.082 1224.66C652.071 1223.38 653.002 1222.47 653.875 1221.95C654.69 1221.37 655.097 1221.08 655.097 1221.08V1220.99H648.027V1214.01H691.668V1220.99H684.685V1221.08C684.685 1221.08 685.122 1221.37 685.995 1221.95C686.809 1222.47 687.711 1223.38 688.7 1224.66C689.631 1225.88 690.504 1227.48 691.319 1229.46C692.133 1231.44 692.541 1233.85 692.541 1236.7ZM685.995 1235.83C685.995 1233.73 685.616 1231.78 684.86 1229.98C684.045 1228.18 682.94 1226.61 681.543 1225.27C680.089 1223.93 678.372 1222.88 676.394 1222.13C674.415 1221.37 672.233 1220.99 669.848 1220.99C667.462 1220.99 665.28 1221.37 663.302 1222.13C661.323 1222.88 659.636 1223.93 658.239 1225.27C656.784 1226.61 655.679 1228.18 654.922 1229.98C654.108 1231.78 653.701 1233.73 653.701 1235.83C653.701 1237.92 654.108 1239.87 654.922 1241.68C655.679 1243.48 656.784 1245.05 658.239 1246.39C659.636 1247.73 661.323 1248.78 663.302 1249.53C665.28 1250.29 667.462 1250.67 669.848 1250.67C672.233 1250.67 674.415 1250.29 676.394 1249.53C678.372 1248.78 680.089 1247.73 681.543 1246.39C682.94 1245.05 684.045 1243.48 684.86 1241.68C685.616 1239.87 685.995 1237.92 685.995 1235.83ZM675.521 1166.85C676.161 1167.78 676.743 1168.85 677.267 1170.08C677.732 1171.12 678.139 1172.46 678.488 1174.09C678.838 1175.66 679.012 1177.47 679.012 1179.5C679.012 1184.8 677.645 1188.9 674.91 1191.81C672.117 1194.66 668.393 1196.09 663.738 1196.09H648.027V1189.1H663.302C666.153 1189.1 668.393 1188.26 670.022 1186.57C671.651 1184.88 672.466 1182.38 672.466 1179.07C672.466 1177.09 672.321 1175.34 672.03 1173.83C671.739 1172.32 671.39 1171.04 670.982 1169.99C670.517 1168.77 669.993 1167.72 669.411 1166.85H648.027V1159.86H691.668V1166.85H675.521ZM648.027 1140.66V1133.68H665.484V1124.95L648.027 1110.98V1102.69L668.538 1118.84L691.668 1101.38V1110.11L672.03 1124.95V1133.68H691.668V1140.66H648.027ZM648.027 1087.82V1080.84H680.758L681.631 1080.92V1080.75L648.027 1057.27V1049.41H691.668V1056.4H658.937L658.065 1056.31V1056.48L691.668 1079.96V1087.82H648.027Z" fill="white"/>
<path d="M1 747H608.743C654.582 747 691.742 784.16 691.742 829.999C691.742 875.838 654.582 912.998 608.743 912.998H91.5027C41.5194 912.998 1 872.478 1 822.495V747Z" fill="black"/>
<path d="M53.9362 818.343H38.662V811.797H76.193V818.343H60.9188V855.438H53.9362V818.343ZM109.397 856.31C106.255 856.31 103.317 855.758 100.582 854.652C97.8472 853.488 95.4906 851.917 93.5122 849.939C91.5338 847.902 89.9628 845.487 88.799 842.694C87.6935 839.901 87.1407 836.876 87.1407 833.617C87.1407 830.359 87.6935 827.333 88.799 824.54C89.9628 821.747 91.5338 819.361 93.5122 817.383C95.4906 815.346 97.8472 813.775 100.582 812.67C103.317 811.506 106.255 810.924 109.397 810.924C112.54 810.924 115.478 811.506 118.213 812.67C120.948 813.775 123.304 815.317 125.283 817.296C127.261 819.274 128.803 821.63 129.909 824.365C131.072 827.1 131.654 830.039 131.654 833.181V835.799H94.1232C94.3559 837.836 94.9087 839.727 95.7815 841.472C96.6544 843.16 97.7599 844.615 99.0982 845.837C100.437 847.058 101.979 848.019 103.724 848.717C105.528 849.415 107.419 849.764 109.397 849.764C112.016 849.764 114.227 849.357 116.031 848.542C117.835 847.728 119.318 846.826 120.482 845.837C121.82 844.731 122.926 843.422 123.799 841.909H130.781C129.734 844.644 128.25 847.058 126.33 849.153C124.643 850.957 122.431 852.615 119.697 854.128C116.962 855.583 113.529 856.31 109.397 856.31ZM124.235 829.689C124.003 828.06 123.479 826.518 122.664 825.064C121.908 823.551 120.889 822.241 119.609 821.136C118.329 820.03 116.816 819.158 115.071 818.517C113.383 817.819 111.492 817.47 109.397 817.47C107.303 817.47 105.382 817.819 103.637 818.517C101.949 819.158 100.437 820.03 99.0982 821.136C97.8181 822.241 96.7707 823.551 95.9561 825.064C95.1415 826.518 94.5887 828.06 94.2978 829.689H124.235ZM148.224 811.797H155.207V818.779H155.294C155.294 818.779 155.556 818.372 156.079 817.557C156.661 816.685 157.563 815.783 158.785 814.852C160.065 813.862 161.694 812.961 163.673 812.146C165.651 811.331 168.066 810.924 170.917 810.924C173.768 810.924 176.445 811.506 178.947 812.67C181.507 813.775 183.748 815.346 185.668 817.383C187.588 819.361 189.101 821.747 190.206 824.54C191.312 827.333 191.865 830.359 191.865 833.617C191.865 836.876 191.312 839.901 190.206 842.694C189.101 845.487 187.588 847.902 185.668 849.939C183.748 851.917 181.507 853.488 178.947 854.652C176.445 855.758 173.768 856.31 170.917 856.31C168.066 856.31 165.651 855.903 163.673 855.088C161.694 854.274 160.065 853.401 158.785 852.47C157.563 851.481 156.661 850.579 156.079 849.764C155.556 848.891 155.294 848.455 155.294 848.455H155.207V872.021H148.224V811.797ZM170.044 849.764C172.139 849.764 174.088 849.386 175.892 848.63C177.696 847.815 179.267 846.709 180.605 845.313C181.944 843.858 182.991 842.142 183.748 840.163C184.504 838.185 184.882 836.003 184.882 833.617C184.882 831.231 184.504 829.049 183.748 827.071C182.991 825.093 181.944 823.405 180.605 822.009C179.267 820.554 177.696 819.448 175.892 818.692C174.088 817.877 172.139 817.47 170.044 817.47C167.95 817.47 166 817.877 164.197 818.692C162.393 819.448 160.822 820.554 159.483 822.009C158.145 823.405 157.098 825.093 156.341 827.071C155.585 829.049 155.207 831.231 155.207 833.617C155.207 836.003 155.585 838.185 156.341 840.163C157.098 842.142 158.145 843.858 159.483 845.313C160.822 846.709 162.393 847.815 164.197 848.63C166 849.386 167.95 849.764 170.044 849.764ZM208.479 811.797H218.953L232.045 838.854H234.227L247.319 811.797H257.793V855.438H250.81V820.525L250.898 819.652H250.723L237.718 846.709H228.554L215.549 819.652H215.374L215.461 820.525V855.438H208.479V811.797ZM297.076 856.31C293.818 856.31 290.792 855.758 287.999 854.652C285.206 853.488 282.791 851.917 280.755 849.939C278.776 847.902 277.205 845.487 276.042 842.694C274.936 839.901 274.383 836.876 274.383 833.617C274.383 830.359 274.936 827.333 276.042 824.54C277.205 821.747 278.776 819.361 280.755 817.383C282.791 815.346 285.206 813.775 287.999 812.67C290.792 811.506 293.818 810.924 297.076 810.924C300.335 810.924 303.361 811.506 306.154 812.67C308.947 813.775 311.332 815.346 313.311 817.383C315.347 819.361 316.918 821.747 318.024 824.54C319.188 827.333 319.77 830.359 319.77 833.617C319.77 836.876 319.188 839.901 318.024 842.694C316.918 845.487 315.347 847.902 313.311 849.939C311.332 851.917 308.947 853.488 306.154 854.652C303.361 855.758 300.335 856.31 297.076 856.31ZM297.076 849.764C299.346 849.764 301.44 849.386 303.361 848.63C305.281 847.815 306.939 846.709 308.336 845.313C309.732 843.858 310.809 842.142 311.565 840.163C312.38 838.185 312.787 836.003 312.787 833.617C312.787 831.231 312.38 829.049 311.565 827.071C310.809 825.093 309.732 823.405 308.336 822.009C306.939 820.554 305.281 819.448 303.361 818.692C301.44 817.877 299.346 817.47 297.076 817.47C294.807 817.47 292.712 817.877 290.792 818.692C288.872 819.448 287.214 820.554 285.817 822.009C284.421 823.405 283.315 825.093 282.5 827.071C281.744 829.049 281.366 831.231 281.366 833.617C281.366 836.003 281.744 838.185 282.5 840.163C283.315 842.142 284.421 843.858 285.817 845.313C287.214 846.709 288.872 847.815 290.792 848.63C292.712 849.386 294.807 849.764 297.076 849.764ZM355.521 856.31C352.437 856.31 349.557 855.758 346.88 854.652C344.261 853.488 341.963 851.917 339.985 849.939C338.064 847.902 336.523 845.487 335.359 842.694C334.253 839.901 333.7 836.876 333.7 833.617C333.7 830.359 334.253 827.333 335.359 824.54C336.523 821.747 338.064 819.361 339.985 817.383C341.963 815.346 344.261 813.775 346.88 812.67C349.557 811.506 352.437 810.924 355.521 810.924C357.674 810.924 359.623 811.157 361.369 811.622C363.172 812.03 364.773 812.611 366.169 813.368C367.566 814.066 368.788 814.881 369.835 815.812C370.882 816.743 371.784 817.674 372.541 818.605C374.344 820.874 375.654 823.405 376.468 826.198H369.486C368.788 824.569 367.827 823.114 366.606 821.834C365.558 820.729 364.133 819.739 362.329 818.867C360.525 817.936 358.256 817.47 355.521 817.47C353.426 817.47 351.477 817.877 349.673 818.692C347.869 819.448 346.298 820.554 344.96 822.009C343.621 823.405 342.574 825.093 341.818 827.071C341.061 829.049 340.683 831.231 340.683 833.617C340.683 836.061 341.09 838.272 341.905 840.251C342.72 842.229 343.796 843.916 345.134 845.313C346.473 846.709 348.044 847.815 349.847 848.63C351.651 849.386 353.542 849.764 355.521 849.764C358.372 849.764 360.699 849.27 362.503 848.28C364.365 847.291 365.849 846.186 366.955 844.964C368.235 843.567 369.224 841.967 369.922 840.163H376.905C376.09 843.247 374.752 845.953 372.89 848.28C372.075 849.27 371.144 850.259 370.097 851.248C369.049 852.179 367.798 853.023 366.344 853.779C364.947 854.536 363.347 855.147 361.543 855.612C359.739 856.078 357.732 856.31 355.521 856.31ZM402.254 818.343H386.98V811.797H424.511V818.343H409.236V855.438H402.254V818.343ZM456.406 856.31C453.555 856.31 450.849 855.758 448.289 854.652C445.787 853.488 443.575 851.917 441.655 849.939C439.735 847.902 438.222 845.487 437.117 842.694C436.011 839.901 435.458 836.876 435.458 833.617C435.458 830.359 436.011 827.333 437.117 824.54C438.222 821.747 439.735 819.361 441.655 817.383C443.575 815.346 445.787 813.775 448.289 812.67C450.849 811.506 453.555 810.924 456.406 810.924C459.257 810.924 461.672 811.331 463.65 812.146C465.629 812.961 467.229 813.862 468.451 814.852C469.731 815.841 470.633 816.772 471.156 817.645C471.738 818.459 472.029 818.867 472.029 818.867H472.116V811.797H479.099V855.438H472.116V848.455H472.029C472.029 848.455 471.738 848.891 471.156 849.764C470.633 850.579 469.731 851.481 468.451 852.47C467.229 853.401 465.629 854.274 463.65 855.088C461.672 855.903 459.257 856.31 456.406 856.31ZM457.279 849.764C459.373 849.764 461.323 849.386 463.127 848.63C464.93 847.815 466.501 846.709 467.84 845.313C469.178 843.858 470.225 842.142 470.982 840.163C471.738 838.185 472.116 836.003 472.116 833.617C472.116 831.231 471.738 829.049 470.982 827.071C470.225 825.093 469.178 823.405 467.84 822.009C466.501 820.554 464.93 819.448 463.127 818.692C461.323 817.877 459.373 817.47 457.279 817.47C455.184 817.47 453.235 817.877 451.431 818.692C449.627 819.448 448.056 820.554 446.718 822.009C445.379 823.405 444.332 825.093 443.575 827.071C442.819 829.049 442.441 831.231 442.441 833.617C442.441 836.003 442.819 838.185 443.575 840.163C444.332 842.142 445.379 843.858 446.718 845.313C448.056 846.709 449.627 847.815 451.431 848.63C453.235 849.386 455.184 849.764 457.279 849.764ZM498.332 811.797H505.314V829.253H514.042L528.007 811.797H536.299L520.152 832.308L537.608 855.438H528.88L514.042 835.799H505.314V855.438H498.332V811.797ZM567.795 856.31C564.944 856.31 562.238 855.758 559.678 854.652C557.176 853.488 554.965 851.917 553.045 849.939C551.125 847.902 549.612 845.487 548.506 842.694C547.401 839.901 546.848 836.876 546.848 833.617C546.848 830.359 547.401 827.333 548.506 824.54C549.612 821.747 551.125 819.361 553.045 817.383C554.965 815.346 557.176 813.775 559.678 812.67C562.238 811.506 564.944 810.924 567.795 810.924C570.646 810.924 573.061 811.331 575.04 812.146C577.018 812.961 578.618 813.862 579.84 814.852C581.12 815.841 582.022 816.772 582.546 817.645C583.128 818.459 583.419 818.867 583.419 818.867H583.506V811.797H590.488V855.438H583.506V848.455H583.419C583.419 848.455 583.128 848.891 582.546 849.764C582.022 850.579 581.12 851.481 579.84 852.47C578.618 853.401 577.018 854.274 575.04 855.088C573.061 855.903 570.646 856.31 567.795 856.31ZM568.668 849.764C570.763 849.764 572.712 849.386 574.516 848.63C576.32 847.815 577.891 846.709 579.229 845.313C580.567 843.858 581.615 842.142 582.371 840.163C583.128 838.185 583.506 836.003 583.506 833.617C583.506 831.231 583.128 829.049 582.371 827.071C581.615 825.093 580.567 823.405 579.229 822.009C577.891 820.554 576.32 819.448 574.516 818.692C572.712 817.877 570.763 817.47 568.668 817.47C566.573 817.47 564.624 817.877 562.82 818.692C561.016 819.448 559.445 820.554 558.107 822.009C556.769 823.405 555.721 825.093 554.965 827.071C554.208 829.049 553.83 831.231 553.83 833.617C553.83 836.003 554.208 838.185 554.965 840.163C555.721 842.142 556.769 843.858 558.107 845.313C559.445 846.709 561.016 847.815 562.82 848.63C564.624 849.386 566.573 849.764 568.668 849.764ZM609.721 811.797H616.704V829.689H641.142V811.797H648.125V855.438H641.142V836.236H616.704V855.438H609.721V811.797Z" fill="white"/>
</svg>
