<svg width="289" height="134" viewBox="0 0 289 134" fill="none" xmlns="http://www.w3.org/2000/svg">
<path fill-rule="evenodd" clip-rule="evenodd" d="M70.435 0.40625C58.516 0.40625 48.8537 10.0685 48.8537 21.9876C48.8537 33.4814 57.8388 42.8766 69.1683 43.5323V43.569H72.527C74.8006 43.569 76.6438 45.4121 76.6438 47.6857C76.6438 49.9593 74.8006 51.8025 72.527 51.8025H69.1683V52.0253H35.575C16.1594 52.0253 0.419922 67.7648 0.419922 87.1804V98.4133C0.419922 117.829 16.1594 133.568 35.575 133.568H253.284C272.7 133.568 288.439 117.829 288.439 98.4133V87.1804C288.439 67.7648 272.7 52.0253 253.284 52.0253H139.413V51.8022H136.051C133.778 51.8022 131.935 49.9591 131.935 47.6855C131.935 45.4244 133.757 43.5891 136.014 43.5689H138.987C139.016 43.5689 139.045 43.5688 139.073 43.5687H139.413V43.5648C151.135 43.3382 160.569 33.7645 160.569 21.9876C160.569 10.0685 150.906 0.40625 138.987 0.40625H70.435Z" fill="black"/>
<path d="M74.2348 17.2046H80.3925V18.5432H75.6626V26.1289H74.2348V17.2046ZM84.3241 17.2046H88.0723L90.5711 26.1289H89.054L87.0014 18.5432H85.395L83.3424 26.1289H81.8253L84.3241 17.2046ZM97.1709 26.3074C96.5879 26.3074 96.0346 26.1944 95.511 25.9683C94.9993 25.7303 94.5472 25.409 94.1545 25.0044C93.7618 24.588 93.4525 24.0942 93.2264 23.523C93.0003 22.9519 92.8873 22.3331 92.8873 21.6668C92.8873 21.0004 93.0003 20.3816 93.2264 19.8105C93.4525 19.2393 93.7618 18.7515 94.1545 18.3469C94.5472 17.9304 94.9993 17.6092 95.511 17.3831C96.0346 17.1451 96.5879 17.0261 97.1709 17.0261C97.754 17.0261 98.2478 17.1094 98.6524 17.276C99.0569 17.4426 99.3842 17.627 99.634 17.8293C99.8958 18.0316 100.08 18.222 100.187 18.4005C100.306 18.567 100.366 18.6503 100.366 18.6503H100.384V17.2046H101.812V26.1289H100.384V24.701H100.366C100.366 24.701 100.306 24.7903 100.187 24.9687C100.08 25.1353 99.8958 25.3198 99.634 25.5221C99.3842 25.7124 99.0569 25.8909 98.6524 26.0575C98.2478 26.2241 97.754 26.3074 97.1709 26.3074ZM97.3494 24.9687C97.7778 24.9687 98.1764 24.8914 98.5453 24.7367C98.9141 24.5701 99.2354 24.344 99.5091 24.0585C99.7828 23.761 99.997 23.41 100.152 23.0054C100.306 22.6008 100.384 22.1546 100.384 21.6668C100.384 21.1789 100.306 20.7327 100.152 20.3281C99.997 19.9235 99.7828 19.5785 99.5091 19.2929C99.2354 18.9954 98.9141 18.7693 98.5453 18.6146C98.1764 18.448 97.7778 18.3648 97.3494 18.3648C96.9211 18.3648 96.5224 18.448 96.1536 18.6146C95.7847 18.7693 95.4634 18.9954 95.1897 19.2929C94.9161 19.5785 94.7019 19.9235 94.5472 20.3281C94.3925 20.7327 94.3152 21.1789 94.3152 21.6668C94.3152 22.1546 94.3925 22.6008 94.5472 23.0054C94.7019 23.41 94.9161 23.761 95.1897 24.0585C95.4634 24.344 95.7847 24.5701 96.1536 24.7367C96.5224 24.8914 96.9211 24.9687 97.3494 24.9687ZM105.745 17.2046H110.117C110.974 17.2046 111.635 17.4188 112.099 17.8471C112.563 18.2755 112.795 18.805 112.795 19.4357C112.795 19.8402 112.729 20.1675 112.598 20.4173C112.479 20.6672 112.337 20.8636 112.17 21.0064C112.015 21.1491 111.867 21.2503 111.724 21.3098C111.581 21.3574 111.492 21.3812 111.456 21.3812V21.399C111.48 21.399 111.581 21.4288 111.76 21.4883C111.938 21.5359 112.128 21.637 112.331 21.7917C112.545 21.9464 112.735 22.1665 112.902 22.4521C113.068 22.7258 113.152 23.0887 113.152 23.5409C113.152 24.3024 112.89 24.9271 112.366 25.415C111.855 25.8909 111.111 26.1289 110.135 26.1289H105.745V17.2046ZM110.117 24.7903C110.653 24.7903 111.052 24.6713 111.313 24.4333C111.587 24.1834 111.724 23.8562 111.724 23.4516C111.724 23.047 111.587 22.7258 111.313 22.4878C111.052 22.2379 110.653 22.113 110.117 22.113H107.172V24.7903H110.117ZM110.028 20.8636C110.48 20.8636 110.814 20.7624 111.028 20.5601C111.254 20.346 111.367 20.0604 111.367 19.7034C111.367 19.3464 111.254 19.0668 111.028 18.8645C110.814 18.6503 110.48 18.5432 110.028 18.5432H107.172V20.8636H110.028ZM116.55 17.2046H117.978V20.8636H122.975V17.2046H124.403V26.1289H122.975V22.2022H117.978V26.1289H116.55V17.2046ZM132.08 26.3074C131.497 26.3074 130.943 26.1944 130.42 25.9683C129.908 25.7303 129.456 25.409 129.063 25.0044C128.671 24.588 128.361 24.0942 128.135 23.523C127.909 22.9519 127.796 22.3331 127.796 21.6668C127.796 21.0004 127.909 20.3816 128.135 19.8105C128.361 19.2393 128.671 18.7515 129.063 18.3469C129.456 17.9304 129.908 17.6092 130.42 17.3831C130.943 17.1451 131.497 17.0261 132.08 17.0261C132.663 17.0261 133.156 17.1094 133.561 17.276C133.966 17.4426 134.293 17.627 134.543 17.8293C134.805 18.0316 134.989 18.222 135.096 18.4005C135.215 18.567 135.275 18.6503 135.275 18.6503H135.292V17.2046H136.72V26.1289H135.292V24.701H135.275C135.275 24.701 135.215 24.7903 135.096 24.9687C134.989 25.1353 134.805 25.3198 134.543 25.5221C134.293 25.7124 133.966 25.8909 133.561 26.0575C133.156 26.2241 132.663 26.3074 132.08 26.3074ZM132.258 24.9687C132.686 24.9687 133.085 24.8914 133.454 24.7367C133.823 24.5701 134.144 24.344 134.418 24.0585C134.691 23.761 134.906 23.41 135.06 23.0054C135.215 22.6008 135.292 22.1546 135.292 21.6668C135.292 21.1789 135.215 20.7327 135.06 20.3281C134.906 19.9235 134.691 19.5785 134.418 19.2929C134.144 18.9954 133.823 18.7693 133.454 18.6146C133.085 18.448 132.686 18.3648 132.258 18.3648C131.83 18.3648 131.431 18.448 131.062 18.6146C130.693 18.7693 130.372 18.9954 130.098 19.2929C129.825 19.5785 129.611 19.9235 129.456 20.3281C129.301 20.7327 129.224 21.1789 129.224 21.6668C129.224 22.1546 129.301 22.6008 129.456 23.0054C129.611 23.41 129.825 23.761 130.098 24.0585C130.372 24.344 130.693 24.5701 131.062 24.7367C131.431 24.8914 131.83 24.9687 132.258 24.9687ZM142.081 22.9162C141.748 22.7734 141.45 22.583 141.189 22.345C140.963 22.1427 140.754 21.875 140.564 21.5418C140.386 21.1967 140.296 20.7624 140.296 20.2389C140.296 19.8105 140.374 19.4119 140.528 19.043C140.695 18.6741 140.927 18.3529 141.224 18.0792C141.534 17.8055 141.897 17.5913 142.313 17.4366C142.742 17.2819 143.223 17.2046 143.759 17.2046H147.793V26.1289H146.365V23.2731H143.509L141.938 26.1289H140.296L142.081 22.9162ZM146.365 21.9345V18.5432H143.777C143.099 18.5432 142.587 18.7039 142.242 19.0252C141.897 19.3345 141.724 19.7391 141.724 20.2389C141.724 20.7386 141.897 21.1491 142.242 21.4704C142.587 21.7798 143.099 21.9345 143.777 21.9345H146.365Z" fill="white"/>
<path d="M25.207 78.5811H31.7913L40.0217 95.5905H41.3934L49.6238 78.5811H56.2081V106.016H51.8185V84.068L51.8734 83.5193H51.7637L43.5882 100.529H37.8269L29.6514 83.5193H29.5417L29.5966 84.068V106.016H25.207V78.5811ZM79.806 106.564C78.0136 106.564 76.3127 106.217 74.7032 105.522C73.1303 104.79 71.7403 103.803 70.5332 102.559C69.326 101.279 68.375 99.7606 67.68 98.0047C66.985 96.2489 66.6375 94.3468 66.6375 92.2984C66.6375 90.2499 66.985 88.3478 67.68 86.592C68.375 84.8362 69.326 83.3364 70.5332 82.0927C71.7403 80.8124 73.1303 79.8248 74.7032 79.1298C76.3127 78.3982 78.0136 78.0324 79.806 78.0324C81.5984 78.0324 83.1165 78.2885 84.3602 78.8006C85.6039 79.3127 86.6098 79.8797 87.378 80.5015C88.1827 81.1234 88.7497 81.7086 89.0789 82.2573C89.4447 82.7694 89.6276 83.0255 89.6276 83.0255H89.6825V78.5811H94.072V106.016H89.6825V101.626H89.6276C89.6276 101.626 89.4447 101.9 89.0789 102.449C88.7497 102.961 88.1827 103.528 87.378 104.15C86.6098 104.735 85.6039 105.284 84.3602 105.796C83.1165 106.308 81.5984 106.564 79.806 106.564ZM80.3547 102.449C81.6716 102.449 82.897 102.211 84.0309 101.736C85.1649 101.224 86.1525 100.529 86.9939 99.6508C87.8352 98.7363 88.4936 97.6572 88.9692 96.4135C89.4447 95.1698 89.6825 93.7981 89.6825 92.2984C89.6825 90.7986 89.4447 89.4269 88.9692 88.1832C88.4936 86.9395 87.8352 85.8787 86.9939 85.0008C86.1525 84.0863 85.1649 83.3913 84.0309 82.9158C82.897 82.4036 81.6716 82.1476 80.3547 82.1476C79.0379 82.1476 77.8125 82.4036 76.6785 82.9158C75.5445 83.3913 74.5569 84.0863 73.7156 85.0008C72.8742 85.8787 72.2158 86.9395 71.7403 88.1832C71.2647 89.4269 71.027 90.7986 71.027 92.2984C71.027 93.7981 71.2647 95.1698 71.7403 96.4135C72.2158 97.6572 72.8742 98.7363 73.7156 99.6508C74.5569 100.529 75.5445 101.224 76.6785 101.736C77.8125 102.211 79.0379 102.449 80.3547 102.449ZM106.162 78.5811H125.092V82.6963H110.552V106.016H106.162V78.5811ZM145.383 106.564C143.591 106.564 141.89 106.217 140.28 105.522C138.707 104.79 137.317 103.803 136.11 102.559C134.903 101.279 133.952 99.7606 133.257 98.0047C132.562 96.2489 132.215 94.3468 132.215 92.2984C132.215 90.2499 132.562 88.3478 133.257 86.592C133.952 84.8362 134.903 83.3364 136.11 82.0927C137.317 80.8124 138.707 79.8248 140.28 79.1298C141.89 78.3982 143.591 78.0324 145.383 78.0324C147.175 78.0324 148.694 78.2885 149.937 78.8006C151.181 79.3127 152.187 79.8797 152.955 80.5015C153.76 81.1234 154.327 81.7086 154.656 82.2573C155.022 82.7694 155.205 83.0255 155.205 83.0255H155.26V78.5811H159.649V106.016H155.26V101.626H155.205C155.205 101.626 155.022 101.9 154.656 102.449C154.327 102.961 153.76 103.528 152.955 104.15C152.187 104.735 151.181 105.284 149.937 105.796C148.694 106.308 147.175 106.564 145.383 106.564ZM145.932 102.449C147.249 102.449 148.474 102.211 149.608 101.736C150.742 101.224 151.73 100.529 152.571 99.6508C153.412 98.7363 154.071 97.6572 154.546 96.4135C155.022 95.1698 155.26 93.7981 155.26 92.2984C155.26 90.7986 155.022 89.4269 154.546 88.1832C154.071 86.9395 153.412 85.8787 152.571 85.0008C151.73 84.0863 150.742 83.3913 149.608 82.9158C148.474 82.4036 147.249 82.1476 145.932 82.1476C144.615 82.1476 143.39 82.4036 142.256 82.9158C141.122 83.3913 140.134 84.0863 139.293 85.0008C138.451 85.8787 137.793 86.9395 137.317 88.1832C136.842 89.4269 136.604 90.7986 136.604 92.2984C136.604 93.7981 136.842 95.1698 137.317 96.4135C137.793 97.6572 138.451 98.7363 139.293 99.6508C140.134 100.529 141.122 101.224 142.256 101.736C143.39 102.211 144.615 102.449 145.932 102.449ZM181.067 106.564C179.677 106.564 178.452 106.436 177.391 106.18C176.33 105.924 175.379 105.595 174.538 105.193C173.733 104.754 173.02 104.26 172.398 103.711C171.813 103.162 171.319 102.614 170.917 102.065C169.965 100.748 169.325 99.2302 168.996 97.5109H173.386C173.605 98.462 174.026 99.285 174.648 99.98C175.16 100.602 175.91 101.169 176.897 101.681C177.921 102.193 179.311 102.449 181.067 102.449C183.408 102.449 185.128 101.992 186.225 101.077C187.359 100.163 187.926 99.157 187.926 98.0596C187.926 96.9622 187.414 96.0112 186.39 95.2064C185.365 94.3651 183.683 93.9444 181.342 93.9444H178.049V89.8293H181.342C183.536 89.8293 185.091 89.4635 186.005 88.7319C186.92 88.0003 187.377 87.0858 187.377 85.9884C187.377 85.0374 186.865 84.1595 185.841 83.3547C184.853 82.55 183.262 82.1476 181.067 82.1476C179.604 82.1476 178.434 82.3671 177.556 82.806C176.678 83.245 175.983 83.7205 175.471 84.2326C174.885 84.8545 174.465 85.5312 174.209 86.2628H169.819C170.148 84.7264 170.788 83.3547 171.74 82.1476C172.142 81.6355 172.617 81.1417 173.166 80.6661C173.715 80.154 174.373 79.7151 175.141 79.3493C175.91 78.9469 176.769 78.636 177.72 78.4165C178.708 78.1604 179.824 78.0324 181.067 78.0324C182.86 78.0324 184.414 78.2519 185.731 78.6908C187.085 79.0932 188.2 79.6419 189.078 80.3369C189.993 81.0319 190.669 81.855 191.108 82.806C191.547 83.7205 191.767 84.6899 191.767 85.7141C191.767 86.8846 191.547 87.854 191.108 88.6221C190.669 89.3903 190.157 90.0122 189.572 90.4877C189.023 90.9266 188.493 91.2376 187.981 91.4205C187.505 91.6034 187.213 91.7131 187.103 91.7497V91.8045C187.176 91.8045 187.487 91.896 188.036 92.0789C188.584 92.2618 189.17 92.6093 189.791 93.1214C190.45 93.5969 191.035 94.2554 191.547 95.0967C192.059 95.938 192.315 97.0171 192.315 98.334C192.315 99.4313 192.078 100.474 191.602 101.461C191.127 102.449 190.413 103.327 189.462 104.095C188.511 104.863 187.341 105.467 185.951 105.906C184.561 106.345 182.933 106.564 181.067 106.564ZM202.76 78.5811H207.149V99.157L207.094 99.7057H207.204L221.964 78.5811H226.902V106.016H222.513V85.4397L222.568 84.891H222.458L207.698 106.016H202.76V78.5811ZM238.978 78.5811H243.367V89.8293H258.731V78.5811H263.12V106.016H258.731V93.9444H243.367V106.016H238.978V78.5811Z" fill="white"/>
<path d="M60.1993 20.0366V25.4622C60.1993 25.6645 60.1307 25.8342 59.9937 25.9712C59.8566 26.1083 59.6872 26.1766 59.4854 26.1761C59.2836 26.1756 59.1142 26.1071 58.9771 25.9705C58.84 25.8339 58.7715 25.6645 58.7715 25.4622V18.3233C58.7715 18.121 58.84 17.9516 58.9771 17.815C59.1142 17.6784 59.2836 17.6099 59.4854 17.6094H66.6243C66.8266 17.6094 66.9963 17.6779 67.1333 17.815C67.2704 17.952 67.3387 18.1215 67.3382 18.3233C67.3377 18.5251 67.2692 18.6947 67.1326 18.8323C66.996 18.9698 66.8266 19.0381 66.6243 19.0372H61.1987L67.5524 25.3908C67.6833 25.5217 67.7487 25.6883 67.7487 25.8906C67.7487 26.0928 67.6833 26.2594 67.5524 26.3903C67.4215 26.5212 67.2549 26.5866 67.0527 26.5866C66.8504 26.5866 66.6838 26.5212 66.5529 26.3903L60.1993 20.0366Z" fill="white"/>
</svg>
