<svg width="298" height="134" viewBox="0 0 298 134" fill="none" xmlns="http://www.w3.org/2000/svg">
<path fill-rule="evenodd" clip-rule="evenodd" d="M69.1309 35.1445H139.35V43.5405H135.993C133.721 43.5405 131.878 45.383 131.878 47.6558C131.878 49.9286 133.721 51.771 135.993 51.771H139.35V60.33H69.1309V51.771H72.4891C74.7619 51.771 76.6044 49.9285 76.6044 47.6557C76.6044 45.3829 74.7619 43.5404 72.4891 43.5404H69.1309V35.1445Z" fill="white"/>
<rect x="0.413086" y="51.9922" width="296.89" height="81.514" rx="35.1425" fill="white"/>
<rect x="48.832" y="0.390625" width="111.675" height="43.1472" rx="21.5736" fill="white"/>
<path d="M74.1982 17.1922H80.3538V18.5303H75.6256V26.1133H74.1982V17.1922ZM84.2839 17.1922H88.0308L90.5287 26.1133H89.0121L86.9603 18.5303H85.3545L83.3026 26.1133H81.786L84.2839 17.1922ZM97.1262 26.2917C96.5433 26.2917 95.9902 26.1787 95.4668 25.9527C94.9553 25.7148 94.5033 25.3936 94.1108 24.9892C93.7183 24.5729 93.409 24.0793 93.183 23.5083C92.957 22.9374 92.844 22.3188 92.844 21.6527C92.844 20.9866 92.957 20.3681 93.183 19.7971C93.409 19.2262 93.7183 18.7385 94.1108 18.3341C94.5033 17.9177 94.9553 17.5966 95.4668 17.3706C95.9902 17.1327 96.5433 17.0137 97.1262 17.0137C97.709 17.0137 98.2026 17.097 98.6071 17.2635C99.0115 17.4301 99.3386 17.6144 99.5884 17.8166C99.8501 18.0188 100.034 18.2092 100.141 18.3876C100.26 18.5541 100.32 18.6374 100.32 18.6374H100.338V17.1922H101.765V26.1133H100.338V24.6859H100.32C100.32 24.6859 100.26 24.7751 100.141 24.9535C100.034 25.1201 99.8501 25.3044 99.5884 25.5066C99.3386 25.697 99.0115 25.8754 98.6071 26.0419C98.2026 26.2084 97.709 26.2917 97.1262 26.2917ZM97.3046 24.9535C97.7328 24.9535 98.1313 24.8762 98.5 24.7216C98.8687 24.5551 99.1899 24.3291 99.4635 24.0436C99.7371 23.7462 99.9512 23.3953 100.106 22.9909C100.26 22.5865 100.338 22.1404 100.338 21.6527C100.338 21.165 100.26 20.719 100.106 20.3146C99.9512 19.9101 99.7371 19.5652 99.4635 19.2797C99.1899 18.9823 98.8687 18.7563 98.5 18.6017C98.1313 18.4352 97.7328 18.3519 97.3046 18.3519C96.8764 18.3519 96.4779 18.4352 96.1091 18.6017C95.7404 18.7563 95.4192 18.9823 95.1457 19.2797C94.8721 19.5652 94.658 19.9101 94.5033 20.3146C94.3487 20.719 94.2714 21.165 94.2714 21.6527C94.2714 22.1404 94.3487 22.5865 94.5033 22.9909C94.658 23.3953 94.8721 23.7462 95.1457 24.0436C95.4192 24.3291 95.7404 24.5551 96.1091 24.7216C96.4779 24.8762 96.8764 24.9535 97.3046 24.9535ZM105.697 17.1922H110.068C110.924 17.1922 111.585 17.4063 112.049 17.8345C112.512 18.2627 112.744 18.792 112.744 19.4224C112.744 19.8269 112.679 20.154 112.548 20.4038C112.429 20.6536 112.286 20.8498 112.12 20.9926C111.965 21.1353 111.817 21.2364 111.674 21.2959C111.531 21.3435 111.442 21.3672 111.406 21.3672V21.3851C111.43 21.3851 111.531 21.4148 111.71 21.4743C111.888 21.5219 112.078 21.623 112.28 21.7776C112.495 21.9322 112.685 22.1523 112.851 22.4378C113.018 22.7114 113.101 23.0742 113.101 23.5262C113.101 24.2874 112.84 24.9119 112.316 25.3996C111.805 25.8754 111.061 26.1133 110.086 26.1133H105.697V17.1922ZM110.068 24.7751C110.603 24.7751 111.002 24.6562 111.263 24.4183C111.537 24.1685 111.674 23.8414 111.674 23.4369C111.674 23.0325 111.537 22.7114 111.263 22.4735C111.002 22.2237 110.603 22.0988 110.068 22.0988H107.124V24.7751H110.068ZM109.979 20.8498C110.431 20.8498 110.764 20.7487 110.978 20.5465C111.204 20.3324 111.317 20.0469 111.317 19.6901C111.317 19.3332 111.204 19.0537 110.978 18.8515C110.764 18.6374 110.431 18.5303 109.979 18.5303H107.124V20.8498H109.979ZM116.498 17.1922H117.926V20.8498H122.921V17.1922H124.349V26.1133H122.921V22.188H117.926V26.1133H116.498V17.1922ZM132.022 26.2917C131.44 26.2917 130.886 26.1787 130.363 25.9527C129.852 25.7148 129.4 25.3936 129.007 24.9892C128.615 24.5729 128.305 24.0793 128.079 23.5083C127.853 22.9374 127.74 22.3188 127.74 21.6527C127.74 20.9866 127.853 20.3681 128.079 19.7971C128.305 19.2262 128.615 18.7385 129.007 18.3341C129.4 17.9177 129.852 17.5966 130.363 17.3706C130.886 17.1327 131.44 17.0137 132.022 17.0137C132.605 17.0137 133.099 17.097 133.503 17.2635C133.908 17.4301 134.235 17.6144 134.485 17.8166C134.746 18.0188 134.931 18.2092 135.038 18.3876C135.157 18.5541 135.216 18.6374 135.216 18.6374H135.234V17.1922H136.661V26.1133H135.234V24.6859H135.216C135.216 24.6859 135.157 24.7751 135.038 24.9535C134.931 25.1201 134.746 25.3044 134.485 25.5066C134.235 25.697 133.908 25.8754 133.503 26.0419C133.099 26.2084 132.605 26.2917 132.022 26.2917ZM132.201 24.9535C132.629 24.9535 133.027 24.8762 133.396 24.7216C133.765 24.5551 134.086 24.3291 134.36 24.0436C134.633 23.7462 134.847 23.3953 135.002 22.9909C135.157 22.5865 135.234 22.1404 135.234 21.6527C135.234 21.165 135.157 20.719 135.002 20.3146C134.847 19.9101 134.633 19.5652 134.36 19.2797C134.086 18.9823 133.765 18.7563 133.396 18.6017C133.027 18.4352 132.629 18.3519 132.201 18.3519C131.773 18.3519 131.374 18.4352 131.005 18.6017C130.637 18.7563 130.315 18.9823 130.042 19.2797C129.768 19.5652 129.554 19.9101 129.4 20.3146C129.245 20.719 129.168 21.165 129.168 21.6527C129.168 22.1404 129.245 22.5865 129.4 22.9909C129.554 23.3953 129.768 23.7462 130.042 24.0436C130.315 24.3291 130.637 24.5551 131.005 24.7216C131.374 24.8762 131.773 24.9535 132.201 24.9535ZM142.02 22.9017C141.687 22.7589 141.39 22.5686 141.128 22.3307C140.902 22.1285 140.694 21.8609 140.504 21.5278C140.325 21.1829 140.236 20.7487 140.236 20.2253C140.236 19.7971 140.313 19.3986 140.468 19.0299C140.635 18.6612 140.867 18.34 141.164 18.0664C141.473 17.7928 141.836 17.5787 142.252 17.4241C142.68 17.2695 143.162 17.1922 143.697 17.1922H147.73V26.1133H146.302V23.2585H143.448L141.878 26.1133H140.236L142.02 22.9017ZM146.302 21.9204V18.5303H143.715C143.037 18.5303 142.526 18.6909 142.181 19.0121C141.836 19.3213 141.663 19.7258 141.663 20.2253C141.663 20.7249 141.836 21.1353 142.181 21.4565C142.526 21.7657 143.037 21.9204 143.715 21.9204H146.302Z" fill="black"/>
<path d="M17.7096 79.3057H22.0975V90.2756H27.5825L36.3584 79.3057H41.5691L31.4219 92.1954L42.3918 106.73H36.9069L27.5825 94.3893H22.0975V106.73H17.7096V79.3057ZM62.459 107.279C60.4113 107.279 58.5098 106.932 56.7547 106.237C54.9995 105.505 53.482 104.518 52.2022 103.275C50.9589 101.995 49.9716 100.478 49.2403 98.7225C48.5455 96.9673 48.1982 95.0658 48.1982 93.0181C48.1982 90.9704 48.5455 89.0689 49.2403 87.3138C49.9716 85.5586 50.9589 84.0594 52.2022 82.8161C53.482 81.5363 54.9995 80.549 56.7547 79.8542C58.5098 79.1229 60.4113 78.7573 62.459 78.7573C64.5067 78.7573 66.4082 79.1229 68.1633 79.8542C69.9185 80.549 71.4177 81.5363 72.661 82.8161C73.9408 84.0594 74.9281 85.5586 75.6229 87.3138C76.3542 89.0689 76.7199 90.9704 76.7199 93.0181C76.7199 95.0658 76.3542 96.9673 75.6229 98.7225C74.9281 100.478 73.9408 101.995 72.661 103.275C71.4177 104.518 69.9185 105.505 68.1633 106.237C66.4082 106.932 64.5067 107.279 62.459 107.279ZM62.459 103.165C63.8851 103.165 65.2015 102.928 66.4082 102.452C67.6149 101.94 68.657 101.246 69.5346 100.368C70.4122 99.4538 71.0887 98.3751 71.564 97.1318C72.0759 95.8886 72.3319 94.5173 72.3319 93.0181C72.3319 91.5189 72.0759 90.1477 71.564 88.9044C71.0887 87.6611 70.4122 86.6007 69.5346 85.7231C68.657 84.809 67.6149 84.1142 66.4082 83.6389C65.2015 83.1269 63.8851 82.871 62.459 82.871C61.0329 82.871 59.7165 83.1269 58.5098 83.6389C57.3032 84.1142 56.261 84.809 55.3834 85.7231C54.5058 86.6007 53.8111 87.6611 53.2991 88.9044C52.8238 90.1477 52.5861 91.5189 52.5861 93.0181C52.5861 94.5173 52.8238 95.8886 53.2991 97.1318C53.8111 98.3751 54.5058 99.4538 55.3834 100.368C56.261 101.246 57.3032 101.94 58.5098 102.452C59.7165 102.928 61.0329 103.165 62.459 103.165ZM87.1198 79.3057H91.5078V90.5499H106.866V79.3057H111.254V106.73H106.866V94.6636H91.5078V106.73H87.1198V79.3057ZM129.358 83.4195H119.76V79.3057H143.345V83.4195H133.746V106.73H129.358V83.4195ZM163.388 107.279C161.597 107.279 159.896 106.932 158.287 106.237C156.715 105.505 155.326 104.518 154.119 103.275C152.912 101.995 151.961 100.478 151.267 98.7225C150.572 96.9673 150.225 95.0658 150.225 93.0181C150.225 90.9704 150.572 89.0689 151.267 87.3138C151.961 85.5586 152.912 84.0594 154.119 82.8161C155.326 81.5363 156.715 80.549 158.287 79.8542C159.896 79.1229 161.597 78.7573 163.388 78.7573C165.18 78.7573 166.698 79.0132 167.941 79.5251C169.184 80.0371 170.19 80.6039 170.958 81.2255C171.762 81.8471 172.329 82.4322 172.658 82.9807C173.024 83.4926 173.206 83.7486 173.206 83.7486H173.261V79.3057H177.649V106.73H173.261V102.343H173.206C173.206 102.343 173.024 102.617 172.658 103.165C172.329 103.677 171.762 104.244 170.958 104.866C170.19 105.451 169.184 105.999 167.941 106.511C166.698 107.023 165.18 107.279 163.388 107.279ZM163.937 103.165C165.253 103.165 166.478 102.928 167.612 102.452C168.745 101.94 169.733 101.246 170.574 100.368C171.415 99.4538 172.073 98.3751 172.548 97.1318C173.024 95.8886 173.261 94.5173 173.261 93.0181C173.261 91.5189 173.024 90.1477 172.548 88.9044C172.073 87.6611 171.415 86.6007 170.574 85.7231C169.733 84.809 168.745 84.1142 167.612 83.6389C166.478 83.1269 165.253 82.871 163.937 82.871C162.62 82.871 161.396 83.1269 160.262 83.6389C159.128 84.1142 158.141 84.809 157.3 85.7231C156.459 86.6007 155.801 87.6611 155.326 88.9044C154.85 90.1477 154.612 91.5189 154.612 93.0181C154.612 94.5173 154.85 95.8886 155.326 97.1318C155.801 98.3751 156.459 99.4538 157.3 100.368C158.141 101.246 159.128 101.94 160.262 102.452C161.396 102.928 162.62 103.165 163.937 103.165ZM189.735 79.3057H194.123V90.2756H199.608L208.384 79.3057H213.595L203.448 92.1954L214.418 106.73H208.933L199.608 94.3893H194.123V106.73H189.735V79.3057ZM228.974 83.4195H219.376V79.3057H242.961V83.4195H233.362V106.73H228.974V83.4195ZM251.486 79.3057H255.874V88.6302H262.456C264.028 88.6302 265.454 88.8678 266.734 89.3432C268.014 89.8186 269.111 90.4768 270.025 91.3178C270.939 92.1222 271.634 93.073 272.109 94.1699C272.621 95.2669 272.877 96.4371 272.877 97.6803C272.877 98.9236 272.621 100.094 272.109 101.191C271.634 102.288 270.939 103.257 270.025 104.098C269.111 104.902 268.014 105.542 266.734 106.017C265.454 106.493 264.028 106.73 262.456 106.73H251.486V79.3057ZM262.456 102.617C264.394 102.617 265.875 102.141 266.899 101.191C267.959 100.24 268.489 99.0698 268.489 97.6803C268.489 96.2908 267.959 95.1207 266.899 94.1699C265.875 93.2192 264.394 92.7439 262.456 92.7439H255.874V102.617H262.456ZM276.443 79.3057H280.83V106.73H276.443V79.3057Z" fill="black"/>
<path d="M61.4314 19.4334V24.8728C61.4314 25.0755 61.3627 25.2456 61.2253 25.3831C61.0879 25.5205 60.918 25.5889 60.7157 25.5885C60.5134 25.588 60.3435 25.5193 60.2061 25.3823C60.0687 25.2454 60 25.0755 60 24.8728V17.7157C60 17.5129 60.0687 17.3431 60.2061 17.2061C60.3435 17.0692 60.5134 17.0005 60.7157 17H67.8728C68.0755 17 68.2456 17.0687 68.3831 17.2061C68.5205 17.3435 68.5889 17.5134 68.5885 17.7157C68.588 17.918 68.5193 18.0881 68.3823 18.226C68.2454 18.3639 68.0755 18.4324 67.8728 18.4314H62.4334L68.8032 24.8012C68.9344 24.9324 69 25.0994 69 25.3022C69 25.505 68.9344 25.672 68.8032 25.8032C68.672 25.9344 68.505 26 68.3022 26C68.0994 26 67.9324 25.9344 67.8012 25.8032L61.4314 19.4334Z" fill="black"/>
</svg>
