<svg width="1374" height="397" viewBox="0 0 1374 397" fill="none" xmlns="http://www.w3.org/2000/svg">
<g clip-path="url(#clip0_268_57)">
<rect width="1374" height="397" rx="53" fill="white"/>
<path d="M422.86 48.2H429.46V60.3H433.86L442.22 48.2H449.7L439.58 62.94L450.36 79H442.66L434.08 66.46H429.46V79H422.86V48.2ZM463.969 79.66C462.532 79.66 461.182 79.3813 459.921 78.824C458.689 78.2667 457.604 77.4747 456.665 76.448C455.726 75.4213 454.978 74.1747 454.421 72.708C453.893 71.2413 453.629 69.5987 453.629 67.78C453.629 65.9613 453.893 64.3187 454.421 62.852C454.978 61.3853 455.726 60.1387 456.665 59.112C457.604 58.0853 458.689 57.2933 459.921 56.736C461.182 56.1787 462.532 55.9 463.969 55.9C465.201 55.9 466.242 56.0907 467.093 56.472C467.973 56.824 468.706 57.22 469.293 57.66C469.968 58.188 470.54 58.7747 471.009 59.42H471.229V56.56H477.389V79H471.229V76.14H471.009C470.54 76.7853 469.968 77.372 469.293 77.9C468.706 78.34 467.973 78.736 467.093 79.088C466.242 79.4693 465.201 79.66 463.969 79.66ZM465.509 74.38C467.181 74.38 468.545 73.808 469.601 72.664C470.686 71.52 471.229 69.892 471.229 67.78C471.229 65.668 470.686 64.04 469.601 62.896C468.545 61.752 467.181 61.18 465.509 61.18C463.954 61.18 462.649 61.752 461.593 62.896C460.537 64.04 460.009 65.668 460.009 67.78C460.009 69.892 460.537 71.52 461.593 72.664C462.649 73.808 463.954 74.38 465.509 74.38ZM485.749 56.56H491.909V64.92H494.549L500.489 56.56H507.309L500.049 66.9L507.969 79H500.929L495.209 70.2H491.909V79H485.749V56.56ZM527.327 73.72H529.747L534.367 56.56H546.247L550.867 73.72H553.287V83.62H547.567V79H533.047V83.62H527.327V73.72ZM544.707 73.72L541.407 61.84H539.207L535.907 73.72H544.707ZM568.67 79.66C567.233 79.66 565.883 79.3813 564.622 78.824C563.39 78.2667 562.305 77.4747 561.366 76.448C560.427 75.4213 559.679 74.1747 559.122 72.708C558.594 71.2413 558.33 69.5987 558.33 67.78C558.33 65.9613 558.594 64.3187 559.122 62.852C559.679 61.3853 560.427 60.1387 561.366 59.112C562.305 58.0853 563.39 57.2933 564.622 56.736C565.883 56.1787 567.233 55.9 568.67 55.9C569.902 55.9 570.943 56.0907 571.794 56.472C572.674 56.824 573.407 57.22 573.994 57.66C574.669 58.188 575.241 58.7747 575.71 59.42H575.93V56.56H582.09V79H575.93V76.14H575.71C575.241 76.7853 574.669 77.372 573.994 77.9C573.407 78.34 572.674 78.736 571.794 79.088C570.943 79.4693 569.902 79.66 568.67 79.66ZM570.21 74.38C571.882 74.38 573.246 73.808 574.302 72.664C575.387 71.52 575.93 69.892 575.93 67.78C575.93 65.668 575.387 64.04 574.302 62.896C573.246 61.752 571.882 61.18 570.21 61.18C568.655 61.18 567.35 61.752 566.294 62.896C565.238 64.04 564.71 65.668 564.71 67.78C564.71 69.892 565.238 71.52 566.294 72.664C567.35 73.808 568.655 74.38 570.21 74.38ZM590.45 56.56H602.77C603.973 56.56 605.029 56.7067 605.938 57C606.847 57.264 607.595 57.6453 608.182 58.144C608.798 58.6427 609.253 59.2293 609.546 59.904C609.869 60.5787 610.03 61.2973 610.03 62.06C610.03 63.116 609.825 63.9667 609.414 64.612C609.033 65.228 608.607 65.712 608.138 66.064C607.61 66.4747 606.994 66.7533 606.29 66.9V67.12C607.17 67.296 607.977 67.604 608.71 68.044C609.297 68.4547 609.839 69.012 610.338 69.716C610.866 70.42 611.13 71.388 611.13 72.62C611.13 73.5293 610.939 74.38 610.558 75.172C610.206 75.9347 609.678 76.6093 608.974 77.196C608.27 77.7533 607.39 78.1933 606.334 78.516C605.307 78.8387 604.119 79 602.77 79H590.45V56.56ZM602.33 74.38C603.093 74.38 603.723 74.1453 604.222 73.676C604.721 73.2067 604.97 72.6347 604.97 71.96C604.97 71.2853 604.721 70.7133 604.222 70.244C603.723 69.7747 603.093 69.54 602.33 69.54H596.61V74.38H602.33ZM601.89 65.14C602.565 65.14 603.093 64.9493 603.474 64.568C603.885 64.1867 604.09 63.7173 604.09 63.16C604.09 62.6027 603.885 62.1333 603.474 61.752C603.093 61.3707 602.565 61.18 601.89 61.18H596.61V65.14H601.89ZM618.376 56.56H624.536V64.92H633.996V56.56H640.156V79H633.996V70.2H624.536V79H618.376V56.56ZM659.537 79.66C657.777 79.66 656.134 79.352 654.609 78.736C653.113 78.12 651.808 77.284 650.693 76.228C649.608 75.1427 648.757 73.8813 648.141 72.444C647.525 70.9773 647.217 69.4227 647.217 67.78C647.217 66.1373 647.525 64.5973 648.141 63.16C648.757 61.6933 649.608 60.432 650.693 59.376C651.808 58.2907 653.113 57.44 654.609 56.824C656.134 56.208 657.777 55.9 659.537 55.9C661.297 55.9 662.925 56.208 664.421 56.824C665.917 57.44 667.208 58.2907 668.293 59.376C669.408 60.432 670.273 61.6933 670.889 63.16C671.534 64.5973 671.857 66.1373 671.857 67.78C671.857 69.4227 671.534 70.9773 670.889 72.444C670.273 73.8813 669.408 75.1427 668.293 76.228C667.208 77.284 665.917 78.12 664.421 78.736C662.925 79.352 661.297 79.66 659.537 79.66ZM659.537 74.38C660.358 74.38 661.121 74.2187 661.825 73.896C662.558 73.5733 663.189 73.1333 663.717 72.576C664.274 71.9893 664.7 71.3 664.993 70.508C665.316 69.6867 665.477 68.7773 665.477 67.78C665.477 66.7827 665.316 65.888 664.993 65.096C664.7 64.2747 664.274 63.5853 663.717 63.028C663.189 62.4413 662.558 61.9867 661.825 61.664C661.121 61.3413 660.358 61.18 659.537 61.18C658.716 61.18 657.938 61.3413 657.205 61.664C656.501 61.9867 655.87 62.4413 655.313 63.028C654.785 63.5853 654.36 64.2747 654.037 65.096C653.744 65.888 653.597 66.7827 653.597 67.78C653.597 68.7773 653.744 69.6867 654.037 70.508C654.36 71.3 654.785 71.9893 655.313 72.576C655.87 73.1333 656.501 73.5733 657.205 73.896C657.938 74.2187 658.716 74.38 659.537 74.38ZM694.765 56.56H707.085C708.287 56.56 709.343 56.7067 710.253 57C711.162 57.264 711.91 57.6453 712.497 58.144C713.113 58.6427 713.567 59.2293 713.861 59.904C714.183 60.5787 714.345 61.2973 714.345 62.06C714.345 63.116 714.139 63.9667 713.729 64.612C713.347 65.228 712.922 65.712 712.453 66.064C711.925 66.4747 711.309 66.7533 710.605 66.9V67.12C711.485 67.296 712.291 67.604 713.025 68.044C713.611 68.4547 714.154 69.012 714.653 69.716C715.181 70.42 715.445 71.388 715.445 72.62C715.445 73.5293 715.254 74.38 714.873 75.172C714.521 75.9347 713.993 76.6093 713.289 77.196C712.585 77.7533 711.705 78.1933 710.649 78.516C709.622 78.8387 708.434 79 707.085 79H694.765V56.56ZM706.645 74.38C707.407 74.38 708.038 74.1453 708.537 73.676C709.035 73.2067 709.285 72.6347 709.285 71.96C709.285 71.2853 709.035 70.7133 708.537 70.244C708.038 69.7747 707.407 69.54 706.645 69.54H700.925V74.38H706.645ZM706.205 65.14C706.879 65.14 707.407 64.9493 707.789 64.568C708.199 64.1867 708.405 63.7173 708.405 63.16C708.405 62.6027 708.199 62.1333 707.789 61.752C707.407 61.3707 706.879 61.18 706.205 61.18H700.925V65.14H706.205ZM722.691 56.56H728.851V63.6H733.031C734.409 63.6 735.656 63.8053 736.771 64.216C737.885 64.6267 738.824 65.184 739.587 65.888C740.379 66.592 740.98 67.4133 741.391 68.352C741.831 69.2613 742.051 70.244 742.051 71.3C742.051 72.356 741.831 73.3533 741.391 74.292C740.98 75.2013 740.379 76.008 739.587 76.712C738.824 77.416 737.885 77.9733 736.771 78.384C735.656 78.7947 734.409 79 733.031 79H722.691V56.56ZM732.591 73.94C733.588 73.94 734.351 73.6907 734.879 73.192C735.407 72.6933 735.671 72.0627 735.671 71.3C735.671 70.5373 735.407 69.9067 734.879 69.408C734.351 68.9093 733.588 68.66 732.591 68.66H728.851V73.94H732.591ZM744.251 56.56H750.411V79H744.251V56.56ZM785.413 79.66C783.712 79.66 782.113 79.352 780.617 78.736C779.15 78.12 777.874 77.284 776.789 76.228C775.704 75.1427 774.853 73.8813 774.237 72.444C773.621 70.9773 773.313 69.4227 773.313 67.78C773.313 66.1373 773.621 64.5973 774.237 63.16C774.853 61.6933 775.704 60.432 776.789 59.376C777.874 58.2907 779.15 57.44 780.617 56.824C782.113 56.208 783.712 55.9 785.413 55.9C786.616 55.9 787.701 56.032 788.669 56.296C789.637 56.5307 790.502 56.8533 791.265 57.264C792.028 57.6747 792.688 58.144 793.245 58.672C793.832 59.2 794.33 59.7427 794.741 60.3C795.709 61.5907 796.413 63.0573 796.853 64.7H790.473C790.209 64.0547 789.857 63.468 789.417 62.94C789.006 62.5 788.478 62.104 787.833 61.752C787.217 61.3707 786.41 61.18 785.413 61.18C784.65 61.18 783.917 61.3413 783.213 61.664C782.538 61.9867 781.937 62.4413 781.409 63.028C780.881 63.5853 780.456 64.2747 780.133 65.096C779.84 65.888 779.693 66.7827 779.693 67.78C779.693 68.7773 779.84 69.6867 780.133 70.508C780.456 71.3 780.881 71.9893 781.409 72.576C781.937 73.1333 782.538 73.5733 783.213 73.896C783.917 74.2187 784.65 74.38 785.413 74.38C786.41 74.38 787.217 74.204 787.833 73.852C788.478 73.4707 789.006 73.06 789.417 72.62C789.857 72.092 790.209 71.5053 790.473 70.86H796.853C796.472 72.5027 795.797 73.9693 794.829 75.26C794.418 75.8173 793.92 76.36 793.333 76.888C792.776 77.416 792.116 77.8853 791.353 78.296C790.59 78.7067 789.71 79.0293 788.713 79.264C787.745 79.528 786.645 79.66 785.413 79.66ZM819.743 56.56H825.903V64.92H835.363V56.56H841.523V79H835.363V70.2H825.903V79H819.743V56.56ZM859.144 79.66C857.707 79.66 856.357 79.3813 855.096 78.824C853.864 78.2667 852.779 77.4747 851.84 76.448C850.901 75.4213 850.153 74.1747 849.596 72.708C849.068 71.2413 848.804 69.5987 848.804 67.78C848.804 65.9613 849.068 64.3187 849.596 62.852C850.153 61.3853 850.901 60.1387 851.84 59.112C852.779 58.0853 853.864 57.2933 855.096 56.736C856.357 56.1787 857.707 55.9 859.144 55.9C860.376 55.9 861.417 56.0907 862.268 56.472C863.148 56.824 863.881 57.22 864.468 57.66C865.143 58.188 865.715 58.7747 866.184 59.42H866.404V56.56H872.564V79H866.404V76.14H866.184C865.715 76.7853 865.143 77.372 864.468 77.9C863.881 78.34 863.148 78.736 862.268 79.088C861.417 79.4693 860.376 79.66 859.144 79.66ZM860.684 74.38C862.356 74.38 863.72 73.808 864.776 72.664C865.861 71.52 866.404 69.892 866.404 67.78C866.404 65.668 865.861 64.04 864.776 62.896C863.72 61.752 862.356 61.18 860.684 61.18C859.129 61.18 857.824 61.752 856.768 62.896C855.712 64.04 855.184 65.668 855.184 67.78C855.184 69.892 855.712 71.52 856.768 72.664C857.824 73.808 859.129 74.38 860.684 74.38ZM880.924 56.56H889.284L894.564 68.66H895.224L900.504 56.56H908.864V79H902.704V67.78L902.924 63.82H902.704L897.864 74.82H891.924L887.084 63.82H886.864L887.084 67.78V79H880.924V56.56ZM917.229 56.56H923.389V66.24L923.169 70.2H923.609L932.629 56.56H939.229V79H933.069V69.32L933.289 65.36H932.849L923.829 79H917.229V56.56Z" fill="black"/>
<path d="M488.848 365.274H479.399V362.346L485.654 350.369H488.981L482.726 362.346H488.848V357.822H488.981H491.908V362.346H494.57V365.274H491.908V369H488.848V365.274ZM498.295 360.35H508.01V363.012H498.295V360.35ZM519.863 369.532C518.798 369.532 517.822 369.355 516.935 369C516.066 368.663 515.312 368.202 514.673 367.616C514.034 367.013 513.537 366.312 513.182 365.513C512.845 364.697 512.677 363.819 512.677 362.878C512.677 362.186 512.774 361.521 512.97 360.882C513.182 360.244 513.44 359.64 513.741 359.072C514.061 358.487 514.407 357.937 514.779 357.422C515.152 356.908 515.516 356.42 515.871 355.958L520.129 350.369H523.722L519.703 355.612L518.532 356.624V356.757C518.674 356.704 518.852 356.642 519.064 356.571C519.26 356.517 519.49 356.473 519.756 356.438C520.04 356.384 520.386 356.358 520.794 356.358C521.664 356.358 522.471 356.526 523.216 356.863C523.979 357.183 524.645 357.635 525.213 358.221C525.78 358.806 526.224 359.498 526.543 360.297C526.881 361.095 527.049 361.956 527.049 362.878C527.049 363.819 526.872 364.697 526.517 365.513C526.18 366.312 525.692 367.013 525.053 367.616C524.414 368.202 523.651 368.663 522.764 369C521.895 369.355 520.928 369.532 519.863 369.532ZM519.863 366.738C521.069 366.738 522.037 366.383 522.764 365.673C523.491 364.946 523.855 364.014 523.855 362.878C523.855 361.743 523.491 360.82 522.764 360.11C522.037 359.383 521.069 359.019 519.863 359.019C518.656 359.019 517.689 359.383 516.962 360.11C516.234 360.82 515.871 361.743 515.871 362.878C515.871 364.014 516.234 364.946 516.962 365.673C517.689 366.383 518.656 366.738 519.863 366.738ZM543.697 355.426H549.686L553.412 369H550.484L547.556 357.955H545.826L542.899 369H539.971L543.697 355.426ZM563.383 369.266C562.425 369.266 561.52 369.089 560.668 368.734C559.835 368.361 559.098 367.864 558.459 367.243C557.838 366.605 557.35 365.859 556.996 365.008C556.641 364.138 556.463 363.207 556.463 362.213C556.463 361.219 556.641 360.297 556.996 359.445C557.35 358.576 557.838 357.83 558.459 357.209C559.098 356.571 559.835 356.074 560.668 355.719C561.52 355.346 562.425 355.16 563.383 355.16C564.341 355.16 565.237 355.346 566.071 355.719C566.923 356.074 567.659 356.571 568.28 357.209C568.919 357.83 569.416 358.576 569.771 359.445C570.126 360.297 570.303 361.219 570.303 362.213V363.145H559.258C559.364 363.712 559.542 364.218 559.79 364.662C560.039 365.105 560.349 365.487 560.722 365.806C561.094 366.108 561.502 366.338 561.946 366.498C562.407 366.658 562.886 366.738 563.383 366.738C564.075 366.738 564.67 366.649 565.166 366.472C565.663 366.276 566.063 366.055 566.364 365.806C566.719 365.54 567.012 365.229 567.242 364.875H570.17C569.833 365.709 569.363 366.445 568.76 367.084C568.493 367.35 568.192 367.616 567.855 367.882C567.518 368.148 567.127 368.388 566.684 368.601C566.24 368.796 565.743 368.956 565.193 369.08C564.643 369.204 564.04 369.266 563.383 369.266ZM567.376 360.882C567.305 360.492 567.172 360.102 566.976 359.711C566.781 359.321 566.515 358.984 566.178 358.7C565.841 358.398 565.442 358.159 564.98 357.981C564.519 357.786 563.987 357.688 563.383 357.688C562.922 357.688 562.469 357.759 562.026 357.901C561.6 358.043 561.201 358.256 560.828 358.54C560.473 358.806 560.172 359.143 559.923 359.552C559.675 359.942 559.497 360.385 559.391 360.882H567.376ZM577.891 357.955H573.366V355.426H585.21V357.955H580.685V369H577.891V357.955Z" fill="black"/>
<path d="M140.585 369.266C139.627 369.266 138.74 369.098 137.924 368.76C137.108 368.406 136.398 367.9 135.795 367.243C135.209 366.569 134.748 365.744 134.411 364.768C134.091 363.792 133.932 362.674 133.932 361.415C133.932 359.445 134.127 357.768 134.517 356.384C134.907 354.983 135.484 353.838 136.247 352.951C137.028 352.064 137.977 351.416 139.095 351.008C140.213 350.582 141.508 350.369 142.981 350.369H146.175V352.898H143.247C141.118 352.898 139.53 353.395 138.483 354.388C137.436 355.364 136.85 356.686 136.726 358.354H136.859C137.108 358.017 137.436 357.706 137.844 357.422C138.199 357.192 138.634 356.979 139.148 356.784C139.68 356.588 140.337 356.491 141.118 356.491C141.987 356.491 142.794 356.65 143.54 356.97C144.285 357.289 144.933 357.733 145.483 358.301C146.033 358.851 146.459 359.525 146.76 360.323C147.08 361.104 147.239 361.956 147.239 362.878C147.239 363.819 147.08 364.679 146.76 365.46C146.441 366.241 145.988 366.915 145.403 367.483C144.817 368.033 144.116 368.468 143.3 368.787C142.484 369.106 141.579 369.266 140.585 369.266ZM140.585 366.738C141.118 366.738 141.606 366.649 142.049 366.472C142.511 366.276 142.91 366.01 143.247 365.673C143.584 365.318 143.841 364.91 144.019 364.449C144.214 363.97 144.312 363.446 144.312 362.878C144.312 362.311 144.214 361.796 144.019 361.335C143.841 360.856 143.584 360.448 143.247 360.11C142.91 359.756 142.511 359.489 142.049 359.312C141.606 359.117 141.118 359.019 140.585 359.019C140.053 359.019 139.556 359.117 139.095 359.312C138.651 359.489 138.261 359.756 137.924 360.11C137.587 360.448 137.321 360.856 137.125 361.335C136.948 361.796 136.859 362.311 136.859 362.878C136.859 363.446 136.948 363.97 137.125 364.449C137.321 364.91 137.587 365.318 137.924 365.673C138.261 366.01 138.651 366.276 139.095 366.472C139.556 366.649 140.053 366.738 140.585 366.738ZM157.874 369.266C156.88 369.266 155.949 369.089 155.079 368.734C154.228 368.361 153.482 367.864 152.844 367.243C152.223 366.605 151.726 365.859 151.353 365.008C150.998 364.138 150.821 363.207 150.821 362.213C150.821 361.219 150.998 360.297 151.353 359.445C151.726 358.576 152.223 357.83 152.844 357.209C153.482 356.571 154.228 356.074 155.079 355.719C155.949 355.346 156.88 355.16 157.874 355.16C158.868 355.16 159.79 355.346 160.642 355.719C161.511 356.074 162.257 356.571 162.878 357.209C163.516 357.83 164.013 358.576 164.368 359.445C164.741 360.297 164.927 361.219 164.927 362.213C164.927 363.207 164.741 364.138 164.368 365.008C164.013 365.859 163.516 366.605 162.878 367.243C162.257 367.864 161.511 368.361 160.642 368.734C159.79 369.089 158.868 369.266 157.874 369.266ZM157.874 366.738C158.477 366.738 159.027 366.631 159.524 366.418C160.039 366.205 160.473 365.904 160.828 365.513C161.201 365.123 161.485 364.653 161.68 364.103C161.893 363.535 161.999 362.905 161.999 362.213C161.999 361.521 161.893 360.9 161.68 360.35C161.485 359.782 161.201 359.303 160.828 358.913C160.473 358.522 160.039 358.221 159.524 358.008C159.027 357.795 158.477 357.688 157.874 357.688C157.271 357.688 156.712 357.795 156.197 358.008C155.7 358.221 155.266 358.522 154.893 358.913C154.538 359.303 154.254 359.782 154.041 360.35C153.846 360.9 153.749 361.521 153.749 362.213C153.749 362.905 153.846 363.535 154.041 364.103C154.254 364.653 154.538 365.123 154.893 365.513C155.266 365.904 155.7 366.205 156.197 366.418C156.712 366.631 157.271 366.738 157.874 366.738ZM171.71 355.426H177.698L181.424 369H178.497L175.569 357.955H173.839L170.911 369H167.984L171.71 355.426ZM191.396 369.266C190.438 369.266 189.533 369.089 188.681 368.734C187.847 368.361 187.111 367.864 186.472 367.243C185.851 366.605 185.363 365.859 185.008 365.008C184.653 364.138 184.476 363.207 184.476 362.213C184.476 361.219 184.653 360.297 185.008 359.445C185.363 358.576 185.851 357.83 186.472 357.209C187.111 356.571 187.847 356.074 188.681 355.719C189.533 355.346 190.438 355.16 191.396 355.16C192.354 355.16 193.25 355.346 194.084 355.719C194.936 356.074 195.672 356.571 196.293 357.209C196.932 357.83 197.429 358.576 197.784 359.445C198.138 360.297 198.316 361.219 198.316 362.213V363.145H187.27C187.377 363.712 187.554 364.218 187.803 364.662C188.051 365.105 188.362 365.487 188.734 365.806C189.107 366.108 189.515 366.338 189.959 366.498C190.42 366.658 190.899 366.738 191.396 366.738C192.088 366.738 192.682 366.649 193.179 366.472C193.676 366.276 194.075 366.055 194.377 365.806C194.732 365.54 195.024 365.229 195.255 364.875H198.183C197.846 365.709 197.375 366.445 196.772 367.084C196.506 367.35 196.204 367.616 195.867 367.882C195.53 368.148 195.14 368.388 194.696 368.601C194.253 368.796 193.756 368.956 193.206 369.08C192.656 369.204 192.052 369.266 191.396 369.266ZM195.388 360.882C195.317 360.492 195.184 360.102 194.989 359.711C194.794 359.321 194.528 358.984 194.19 358.7C193.853 358.398 193.454 358.159 192.993 357.981C192.531 357.786 191.999 357.688 191.396 357.688C190.934 357.688 190.482 357.759 190.038 357.901C189.613 358.043 189.213 358.256 188.841 358.54C188.486 358.806 188.184 359.143 187.936 359.552C187.687 359.942 187.51 360.385 187.404 360.882H195.388ZM208.964 369.266C208.006 369.266 207.101 369.089 206.249 368.734C205.415 368.361 204.679 367.864 204.04 367.243C203.419 366.605 202.931 365.859 202.576 365.008C202.221 364.138 202.044 363.207 202.044 362.213C202.044 361.219 202.221 360.297 202.576 359.445C202.931 358.576 203.419 357.83 204.04 357.209C204.679 356.571 205.415 356.074 206.249 355.719C207.101 355.346 208.006 355.16 208.964 355.16C209.922 355.16 210.818 355.346 211.652 355.719C212.504 356.074 213.24 356.571 213.861 357.209C214.5 357.83 214.997 358.576 215.352 359.445C215.707 360.297 215.884 361.219 215.884 362.213V363.145H204.839C204.945 363.712 205.123 364.218 205.371 364.662C205.619 365.105 205.93 365.487 206.303 365.806C206.675 366.108 207.083 366.338 207.527 366.498C207.988 366.658 208.467 366.738 208.964 366.738C209.656 366.738 210.25 366.649 210.747 366.472C211.244 366.276 211.643 366.055 211.945 365.806C212.3 365.54 212.593 365.229 212.823 364.875H215.751C215.414 365.709 214.944 366.445 214.34 367.084C214.074 367.35 213.773 367.616 213.435 367.882C213.098 368.148 212.708 368.388 212.264 368.601C211.821 368.796 211.324 368.956 210.774 369.08C210.224 369.204 209.621 369.266 208.964 369.266ZM212.956 360.882C212.885 360.492 212.752 360.102 212.557 359.711C212.362 359.321 212.096 358.984 211.759 358.7C211.422 358.398 211.022 358.159 210.561 357.981C210.1 357.786 209.567 357.688 208.964 357.688C208.503 357.688 208.05 357.759 207.607 357.901C207.181 358.043 206.782 358.256 206.409 358.54C206.054 358.806 205.752 359.143 205.504 359.552C205.256 359.942 205.078 360.385 204.972 360.882H212.956ZM237.851 353.563V353.297H228.669V350.369H241.311V353.297L233.859 369H230.532L237.851 353.563ZM257.418 355.426H263.406L267.132 369H264.204L261.277 357.955H259.547L256.619 369H253.691L257.418 355.426ZM277.104 369.266C276.145 369.266 275.241 369.089 274.389 368.734C273.555 368.361 272.819 367.864 272.18 367.243C271.559 366.605 271.071 365.859 270.716 365.008C270.361 364.138 270.184 363.207 270.184 362.213C270.184 361.219 270.361 360.297 270.716 359.445C271.071 358.576 271.559 357.83 272.18 357.209C272.819 356.571 273.555 356.074 274.389 355.719C275.241 355.346 276.145 355.16 277.104 355.16C278.062 355.16 278.958 355.346 279.792 355.719C280.643 356.074 281.38 356.571 282.001 357.209C282.64 357.83 283.136 358.576 283.491 359.445C283.846 360.297 284.024 361.219 284.024 362.213V363.145H272.978C273.085 363.712 273.262 364.218 273.511 364.662C273.759 365.105 274.069 365.487 274.442 365.806C274.815 366.108 275.223 366.338 275.666 366.498C276.128 366.658 276.607 366.738 277.104 366.738C277.796 366.738 278.39 366.649 278.887 366.472C279.384 366.276 279.783 366.055 280.085 365.806C280.439 365.54 280.732 365.229 280.963 364.875H283.891C283.553 365.709 283.083 366.445 282.48 367.084C282.214 367.35 281.912 367.616 281.575 367.882C281.238 368.148 280.847 368.388 280.404 368.601C279.96 368.796 279.463 368.956 278.913 369.08C278.363 369.204 277.76 369.266 277.104 369.266ZM281.096 360.882C281.025 360.492 280.892 360.102 280.697 359.711C280.501 359.321 280.235 358.984 279.898 358.7C279.561 358.398 279.162 358.159 278.701 357.981C278.239 357.786 277.707 357.688 277.104 357.688C276.642 357.688 276.19 357.759 275.746 357.901C275.32 358.043 274.921 358.256 274.549 358.54C274.194 358.806 273.892 359.143 273.644 359.552C273.395 359.942 273.218 360.385 273.111 360.882H281.096ZM291.611 357.955H287.086V355.426H298.93V357.955H294.406V369H291.611V357.955Z" fill="black"/>
<path d="M780.798 366.072L787.16 361.574C788.561 360.581 789.555 359.658 790.14 358.806C790.744 357.937 791.045 357.032 791.045 356.092C791.045 355.08 790.735 354.273 790.114 353.67C789.493 353.066 788.65 352.765 787.585 352.765C786.805 352.765 786.175 352.933 785.696 353.27C785.234 353.59 784.879 353.953 784.631 354.362C784.329 354.823 784.117 355.355 783.992 355.958H780.798C780.958 354.823 781.304 353.803 781.836 352.898C782.067 352.525 782.342 352.152 782.662 351.78C782.999 351.407 783.398 351.079 783.859 350.795C784.338 350.511 784.879 350.281 785.483 350.103C786.104 349.926 786.805 349.837 787.585 349.837C788.579 349.837 789.484 349.997 790.3 350.316C791.116 350.618 791.817 351.043 792.403 351.594C792.988 352.144 793.441 352.791 793.76 353.536C794.08 354.282 794.239 355.089 794.239 355.958C794.239 357.484 793.84 358.86 793.042 360.084C792.261 361.29 791.019 362.488 789.315 363.677L786.654 365.54L785.456 366.072V366.205L787.053 366.072H794.239V369H780.798V366.072ZM799.035 360.35H808.75V363.012H799.035V360.35ZM820.603 369.532C819.787 369.532 819.05 369.444 818.394 369.266C817.755 369.106 817.187 368.894 816.691 368.627C816.211 368.343 815.786 368.033 815.413 367.696C815.058 367.341 814.757 366.977 814.508 366.605C813.923 365.753 813.514 364.777 813.284 363.677H816.478C816.62 364.227 816.859 364.715 817.196 365.141C817.498 365.513 817.915 365.851 818.447 366.152C818.979 366.454 819.698 366.605 820.603 366.605C821.242 366.605 821.801 366.525 822.28 366.365C822.777 366.188 823.194 365.957 823.531 365.673C823.886 365.371 824.152 365.025 824.329 364.635C824.507 364.245 824.595 363.837 824.595 363.411C824.595 362.399 824.276 361.592 823.637 360.989C822.998 360.385 822.076 360.084 820.869 360.084H816.345V357.422L821.934 353.43V353.297H814.215V350.369H826.458V353.27L821.668 356.757L820.337 357.289V357.422C820.461 357.405 820.603 357.387 820.763 357.369C820.905 357.351 821.064 357.334 821.242 357.316C821.419 357.298 821.606 357.289 821.801 357.289C822.635 357.289 823.407 357.44 824.116 357.742C824.826 358.043 825.438 358.469 825.953 359.019C826.485 359.552 826.902 360.19 827.204 360.936C827.505 361.681 827.656 362.506 827.656 363.411C827.656 364.245 827.488 365.034 827.15 365.78C826.813 366.507 826.334 367.155 825.713 367.722C825.11 368.273 824.374 368.707 823.504 369.027C822.635 369.364 821.668 369.532 820.603 369.532ZM841.915 355.426H851.497V357.955H844.71V369H841.915V355.426ZM861.735 369.266C860.742 369.266 859.81 369.089 858.941 368.734C858.089 368.361 857.344 367.864 856.705 367.243C856.084 366.605 855.587 365.859 855.214 365.008C854.86 364.138 854.682 363.207 854.682 362.213C854.682 361.219 854.86 360.297 855.214 359.445C855.587 358.576 856.084 357.83 856.705 357.209C857.344 356.571 858.089 356.074 858.941 355.719C859.81 355.346 860.742 355.16 861.735 355.16C862.729 355.16 863.652 355.346 864.503 355.719C865.373 356.074 866.118 356.571 866.739 357.209C867.378 357.83 867.875 358.576 868.229 359.445C868.602 360.297 868.788 361.219 868.788 362.213C868.788 363.207 868.602 364.138 868.229 365.008C867.875 365.859 867.378 366.605 866.739 367.243C866.118 367.864 865.373 368.361 864.503 368.734C863.652 369.089 862.729 369.266 861.735 369.266ZM861.735 366.738C862.339 366.738 862.889 366.631 863.385 366.418C863.9 366.205 864.335 365.904 864.69 365.513C865.062 365.123 865.346 364.653 865.541 364.103C865.754 363.535 865.861 362.905 865.861 362.213C865.861 361.521 865.754 360.9 865.541 360.35C865.346 359.782 865.062 359.303 864.69 358.913C864.335 358.522 863.9 358.221 863.385 358.008C862.889 357.795 862.339 357.688 861.735 357.688C861.132 357.688 860.573 357.795 860.058 358.008C859.562 358.221 859.127 358.522 858.754 358.913C858.399 359.303 858.116 359.782 857.903 360.35C857.707 360.9 857.61 361.521 857.61 362.213C857.61 362.905 857.707 363.535 857.903 364.103C858.116 364.653 858.399 365.123 858.754 365.513C859.127 365.904 859.562 366.205 860.058 366.418C860.573 366.631 861.132 366.738 861.735 366.738ZM871.845 366.472H873.176L876.236 355.426H882.225L885.286 366.472H886.616V371.928H884.088V369H874.373V371.928H871.845V366.472ZM882.358 366.472L880.096 357.955H878.366L876.103 366.472H882.358ZM896.076 369.266C895.171 369.266 894.329 369.098 893.548 368.76C892.785 368.423 892.111 367.953 891.525 367.35C890.957 366.729 890.505 365.984 890.168 365.114C889.848 364.245 889.689 363.278 889.689 362.213C889.689 361.148 889.848 360.181 890.168 359.312C890.505 358.443 890.957 357.706 891.525 357.103C892.111 356.482 892.785 356.003 893.548 355.666C894.329 355.329 895.171 355.16 896.076 355.16C896.768 355.16 897.381 355.266 897.913 355.479C898.445 355.692 898.889 355.923 899.244 356.171C899.669 356.473 900.033 356.801 900.335 357.156H900.468V355.426H903.263V369H900.468V367.137H900.335C900.033 367.527 899.669 367.882 899.244 368.202C898.889 368.468 898.445 368.716 897.913 368.947C897.381 369.16 896.768 369.266 896.076 369.266ZM896.609 366.738C897.744 366.738 898.667 366.356 899.377 365.593C900.104 364.813 900.468 363.686 900.468 362.213C900.468 360.74 900.104 359.623 899.377 358.86C898.667 358.079 897.744 357.688 896.609 357.688C895.402 357.688 894.435 358.079 893.708 358.86C892.98 359.623 892.616 360.74 892.616 362.213C892.616 363.686 892.98 364.813 893.708 365.593C894.435 366.356 895.402 366.738 896.609 366.738Z" fill="black"/>
<path d="M1054.6 355.426H1066.71V369H1063.91V357.955H1057.39V369H1054.6V355.426ZM1078.16 369.266C1077.2 369.266 1076.29 369.089 1075.44 368.734C1074.61 368.361 1073.87 367.864 1073.23 367.243C1072.61 366.605 1072.12 365.859 1071.77 365.008C1071.41 364.138 1071.24 363.207 1071.24 362.213C1071.24 361.219 1071.41 360.297 1071.77 359.445C1072.12 358.576 1072.61 357.83 1073.23 357.209C1073.87 356.571 1074.61 356.074 1075.44 355.719C1076.29 355.346 1077.2 355.16 1078.16 355.16C1079.11 355.16 1080.01 355.346 1080.84 355.719C1081.7 356.074 1082.43 356.571 1083.05 357.209C1083.69 357.83 1084.19 358.576 1084.54 359.445C1084.9 360.297 1085.08 361.219 1085.08 362.213V363.145H1074.03C1074.14 363.712 1074.32 364.218 1074.56 364.662C1074.81 365.105 1075.12 365.487 1075.5 365.806C1075.87 366.108 1076.28 366.338 1076.72 366.498C1077.18 366.658 1077.66 366.738 1078.16 366.738C1078.85 366.738 1079.44 366.649 1079.94 366.472C1080.44 366.276 1080.84 366.055 1081.14 365.806C1081.49 365.54 1081.79 365.229 1082.02 364.875H1084.94C1084.61 365.709 1084.14 366.445 1083.53 367.084C1083.27 367.35 1082.97 367.616 1082.63 367.882C1082.29 368.148 1081.9 368.388 1081.46 368.601C1081.01 368.796 1080.52 368.956 1079.97 369.08C1079.42 369.204 1078.81 369.266 1078.16 369.266ZM1082.15 360.882C1082.08 360.492 1081.94 360.102 1081.75 359.711C1081.55 359.321 1081.29 358.984 1080.95 358.7C1080.61 358.398 1080.21 358.159 1079.75 357.981C1079.29 357.786 1078.76 357.688 1078.16 357.688C1077.7 357.688 1077.24 357.759 1076.8 357.901C1076.37 358.043 1075.97 358.256 1075.6 358.54C1075.25 358.806 1074.95 359.143 1074.7 359.552C1074.45 359.942 1074.27 360.385 1074.16 360.882H1082.15ZM1089.6 355.426H1092.4V357.156H1092.53C1092.83 356.801 1093.2 356.473 1093.62 356.171C1093.98 355.923 1094.41 355.692 1094.93 355.479C1095.46 355.266 1096.08 355.16 1096.79 355.16C1097.69 355.16 1098.53 355.329 1099.29 355.666C1100.07 356.003 1100.75 356.482 1101.31 357.103C1101.9 357.706 1102.35 358.443 1102.67 359.312C1103.01 360.181 1103.18 361.148 1103.18 362.213C1103.18 363.278 1103.01 364.245 1102.67 365.114C1102.35 365.984 1101.9 366.729 1101.31 367.35C1100.75 367.953 1100.07 368.423 1099.29 368.76C1098.53 369.098 1097.69 369.266 1096.79 369.266C1096.08 369.266 1095.46 369.169 1094.93 368.973C1094.41 368.76 1093.98 368.53 1093.62 368.281C1093.2 367.98 1092.83 367.643 1092.53 367.27H1092.4V374.057H1089.6V355.426ZM1096.26 366.738C1097.46 366.738 1098.43 366.356 1099.16 365.593C1099.89 364.813 1100.25 363.686 1100.25 362.213C1100.25 360.74 1099.89 359.623 1099.16 358.86C1098.43 358.079 1097.46 357.688 1096.26 357.688C1095.12 357.688 1094.19 358.079 1093.46 358.86C1092.75 359.623 1092.4 360.74 1092.4 362.213C1092.4 363.686 1092.75 364.813 1093.46 365.593C1094.19 366.356 1095.12 366.738 1096.26 366.738ZM1107.69 355.426H1114.48C1115.81 355.426 1116.83 355.746 1117.54 356.384C1118.25 357.023 1118.6 357.813 1118.6 358.753C1118.6 359.392 1118.49 359.906 1118.26 360.297C1118.04 360.669 1117.81 360.962 1117.54 361.175C1117.22 361.423 1116.86 361.592 1116.47 361.681V361.787C1116.97 361.876 1117.41 362.053 1117.81 362.32C1118.14 362.55 1118.44 362.887 1118.71 363.331C1118.99 363.757 1119.14 364.351 1119.14 365.114C1119.14 365.646 1119.03 366.152 1118.82 366.631C1118.6 367.11 1118.3 367.527 1117.91 367.882C1117.52 368.219 1117.04 368.494 1116.47 368.707C1115.92 368.902 1115.3 369 1114.61 369H1107.69V355.426ZM1114.48 366.472C1115.08 366.472 1115.54 366.321 1115.86 366.019C1116.18 365.7 1116.34 365.274 1116.34 364.742C1116.34 364.28 1116.18 363.899 1115.86 363.597C1115.54 363.295 1115.08 363.145 1114.48 363.145H1110.49V366.472H1114.48ZM1114.21 360.749C1115.28 360.749 1115.81 360.261 1115.81 359.285C1115.81 358.877 1115.68 358.558 1115.41 358.327C1115.14 358.079 1114.74 357.955 1114.21 357.955H1110.49V360.749H1114.21ZM1123.8 355.426H1126.6V359.951H1129.39C1130.19 359.951 1130.91 360.066 1131.55 360.297C1132.19 360.527 1132.73 360.847 1133.17 361.255C1133.63 361.663 1133.98 362.142 1134.21 362.692C1134.46 363.242 1134.58 363.837 1134.58 364.475C1134.58 365.114 1134.46 365.709 1134.21 366.259C1133.98 366.809 1133.63 367.288 1133.17 367.696C1132.73 368.104 1132.19 368.423 1131.55 368.654C1130.91 368.885 1130.19 369 1129.39 369H1123.8V355.426ZM1129.39 366.472C1130.14 366.472 1130.7 366.294 1131.07 365.939C1131.46 365.567 1131.66 365.079 1131.66 364.475C1131.66 363.872 1131.46 363.393 1131.07 363.038C1130.7 362.666 1130.14 362.479 1129.39 362.479H1126.6V366.472H1129.39ZM1136.05 355.426H1138.84V369H1136.05V355.426ZM1144.15 355.426H1146.95V364.475L1146.92 364.742H1147.19L1153.34 355.426H1156.4V369H1153.6V359.951L1153.63 359.685H1153.36L1147.21 369H1144.15V355.426ZM1150.28 352.498C1148.87 352.498 1147.84 352.179 1147.16 351.54C1146.49 350.884 1146.15 350.05 1146.15 349.038H1148.41C1148.41 349.5 1148.55 349.864 1148.84 350.13C1149.12 350.378 1149.6 350.502 1150.28 350.502C1150.95 350.502 1151.43 350.378 1151.71 350.13C1152 349.864 1152.14 349.5 1152.14 349.038H1154.4C1154.4 350.05 1154.06 350.884 1153.39 351.54C1152.71 352.179 1151.68 352.498 1150.28 352.498ZM1171.31 355.426H1174.11V357.156H1174.24C1174.54 356.801 1174.9 356.473 1175.33 356.171C1175.68 355.923 1176.12 355.692 1176.63 355.479C1177.17 355.266 1177.79 355.16 1178.5 355.16C1179.4 355.16 1180.24 355.329 1181 355.666C1181.78 356.003 1182.45 356.482 1183.02 357.103C1183.61 357.706 1184.06 358.443 1184.38 359.312C1184.72 360.181 1184.88 361.148 1184.88 362.213C1184.88 363.278 1184.72 364.245 1184.38 365.114C1184.06 365.984 1183.61 366.729 1183.02 367.35C1182.45 367.953 1181.78 368.423 1181 368.76C1180.24 369.098 1179.4 369.266 1178.5 369.266C1177.79 369.266 1177.17 369.169 1176.63 368.973C1176.12 368.76 1175.68 368.53 1175.33 368.281C1174.9 367.98 1174.54 367.643 1174.24 367.27H1174.11V374.057H1171.31V355.426ZM1177.96 366.738C1179.17 366.738 1180.14 366.356 1180.87 365.593C1181.59 364.813 1181.96 363.686 1181.96 362.213C1181.96 360.74 1181.59 359.623 1180.87 358.86C1180.14 358.079 1179.17 357.688 1177.96 357.688C1176.83 357.688 1175.9 358.079 1175.17 358.86C1174.46 359.623 1174.11 360.74 1174.11 362.213C1174.11 363.686 1174.46 364.813 1175.17 365.593C1175.9 366.356 1176.83 366.738 1177.96 366.738ZM1194.99 369.266C1194.08 369.266 1193.24 369.098 1192.46 368.76C1191.7 368.423 1191.02 367.953 1190.44 367.35C1189.87 366.729 1189.42 365.984 1189.08 365.114C1188.76 364.245 1188.6 363.278 1188.6 362.213C1188.6 361.148 1188.76 360.181 1189.08 359.312C1189.42 358.443 1189.87 357.706 1190.44 357.103C1191.02 356.482 1191.7 356.003 1192.46 355.666C1193.24 355.329 1194.08 355.16 1194.99 355.16C1195.68 355.16 1196.29 355.266 1196.82 355.479C1197.36 355.692 1197.8 355.923 1198.16 356.171C1198.58 356.473 1198.94 356.801 1199.25 357.156H1199.38V355.426H1202.17V369H1199.38V367.137H1199.25C1198.94 367.527 1198.58 367.882 1198.16 368.202C1197.8 368.468 1197.36 368.716 1196.82 368.947C1196.29 369.16 1195.68 369.266 1194.99 369.266ZM1195.52 366.738C1196.66 366.738 1197.58 366.356 1198.29 365.593C1199.02 364.813 1199.38 363.686 1199.38 362.213C1199.38 360.74 1199.02 359.623 1198.29 358.86C1197.58 358.079 1196.66 357.688 1195.52 357.688C1194.31 357.688 1193.35 358.079 1192.62 358.86C1191.89 359.623 1191.53 360.74 1191.53 362.213C1191.53 363.686 1191.89 364.813 1192.62 365.593C1193.35 366.356 1194.31 366.738 1195.52 366.738ZM1212.41 369.266C1211.72 369.266 1211.1 369.195 1210.55 369.053C1210.02 368.929 1209.54 368.76 1209.11 368.548C1208.7 368.335 1208.35 368.095 1208.05 367.829C1207.76 367.545 1207.52 367.252 1207.33 366.951C1206.87 366.259 1206.56 365.478 1206.42 364.608H1209.22C1209.31 364.999 1209.47 365.354 1209.72 365.673C1209.94 365.939 1210.25 366.188 1210.65 366.418C1211.08 366.631 1211.67 366.738 1212.41 366.738C1213.42 366.738 1214.14 366.569 1214.57 366.232C1214.99 365.877 1215.21 365.469 1215.21 365.008C1215.21 364.546 1214.99 364.147 1214.57 363.81C1214.14 363.455 1213.42 363.278 1212.41 363.278H1210.95V360.882H1212.41C1213.35 360.882 1214.01 360.731 1214.38 360.43C1214.75 360.128 1214.94 359.747 1214.94 359.285C1214.94 358.877 1214.73 358.514 1214.3 358.194C1213.89 357.857 1213.22 357.688 1212.28 357.688C1211.67 357.688 1211.2 357.786 1210.84 357.981C1210.5 358.159 1210.24 358.354 1210.04 358.567C1209.83 358.815 1209.69 359.099 1209.62 359.418H1206.82C1207 358.62 1207.32 357.91 1207.78 357.289C1207.97 357.023 1208.21 356.766 1208.47 356.517C1208.76 356.251 1209.08 356.021 1209.46 355.825C1209.83 355.63 1210.25 355.471 1210.73 355.346C1211.23 355.222 1211.79 355.16 1212.41 355.16C1213.32 355.16 1214.1 355.266 1214.75 355.479C1215.43 355.675 1215.98 355.941 1216.4 356.278C1216.85 356.615 1217.17 357.014 1217.39 357.476C1217.62 357.919 1217.73 358.389 1217.73 358.886C1217.73 359.472 1217.61 359.96 1217.36 360.35C1217.11 360.723 1216.84 361.015 1216.54 361.228C1216.18 361.494 1215.78 361.69 1215.34 361.814V361.92C1215.84 362.027 1216.28 362.213 1216.67 362.479C1217.01 362.71 1217.31 363.038 1217.57 363.464C1217.86 363.89 1218 364.449 1218 365.141C1218 365.709 1217.88 366.241 1217.65 366.738C1217.42 367.235 1217.07 367.669 1216.59 368.042C1216.13 368.414 1215.54 368.716 1214.83 368.947C1214.14 369.16 1213.33 369.266 1212.41 369.266Z" fill="black"/>
<path d="M103 148C103 125.909 120.909 108 143 108H326C348.091 108 366 125.909 366 148V332H103V148Z" fill="#C9C9C9"/>
<path d="M405 226C405 203.909 422.909 186 445 186H628C650.091 186 668 203.909 668 226V332H405V226Z" fill="#C9C9C9"/>
<path d="M707 251C707 228.909 724.909 211 747 211H930C952.091 211 970 228.909 970 251V332H707V251Z" fill="#C9C9C9"/>
<path d="M1009 295C1009 272.909 1026.91 255 1049 255H1232C1254.09 255 1272 272.909 1272 295V332H1009V295Z" fill="#C9C9C9"/>
<path d="M190.6 238.1C188.18 238.1 185.98 237.733 184 237C182.057 236.267 180.388 235.258 178.995 233.975C177.602 232.692 176.52 231.188 175.75 229.465C175.017 227.742 174.65 225.908 174.65 223.965C174.65 222.608 174.833 221.307 175.2 220.06C175.603 218.777 176.098 217.53 176.685 216.32C177.308 215.11 178.005 213.937 178.775 212.8C179.582 211.663 180.407 210.563 181.25 209.5L189.775 198.5H199.125L190.6 209.5L188.125 211.425V211.7C188.455 211.48 188.858 211.297 189.335 211.15C189.738 211.003 190.252 210.875 190.875 210.765C191.498 210.655 192.232 210.6 193.075 210.6C194.908 210.6 196.632 210.948 198.245 211.645C199.895 212.342 201.325 213.295 202.535 214.505C203.782 215.715 204.753 217.145 205.45 218.795C206.183 220.408 206.55 222.168 206.55 224.075C206.55 226.018 206.165 227.833 205.395 229.52C204.662 231.207 203.598 232.692 202.205 233.975C200.812 235.258 199.125 236.267 197.145 237C195.202 237.733 193.02 238.1 190.6 238.1ZM190.6 230.4C192.8 230.4 194.542 229.795 195.825 228.585C197.108 227.375 197.75 225.872 197.75 224.075C197.75 222.278 197.108 220.775 195.825 219.565C194.542 218.355 192.8 217.75 190.6 217.75C188.4 217.75 186.658 218.355 185.375 219.565C184.092 220.775 183.45 222.278 183.45 224.075C183.45 225.872 184.092 227.375 185.375 228.585C186.658 229.795 188.4 230.4 190.6 230.4ZM233.749 229.85H213.949V222.425L226.874 198.5H235.949L223.024 222.15H233.749V213.35H234.299H241.999V222.15H247.224V229.85H241.999V237H233.749V229.85ZM282.143 198.5H288.468L265.368 237H259.043L282.143 198.5ZM284.343 237.55C283.023 237.55 281.794 237.312 280.658 236.835C279.521 236.358 278.531 235.698 277.688 234.855C276.844 234.012 276.184 233.022 275.708 231.885C275.231 230.748 274.993 229.52 274.993 228.2C274.993 226.88 275.231 225.652 275.708 224.515C276.184 223.378 276.844 222.388 277.688 221.545C278.531 220.702 279.521 220.042 280.658 219.565C281.794 219.088 283.023 218.85 284.343 218.85C285.663 218.85 286.891 219.088 288.028 219.565C289.164 220.042 290.154 220.702 290.998 221.545C291.841 222.388 292.501 223.378 292.978 224.515C293.454 225.652 293.693 226.88 293.693 228.2C293.693 229.52 293.454 230.748 292.978 231.885C292.501 233.022 291.841 234.012 290.998 234.855C290.154 235.698 289.164 236.358 288.028 236.835C286.891 237.312 285.663 237.55 284.343 237.55ZM284.343 232.05C285.443 232.05 286.359 231.683 287.093 230.95C287.826 230.217 288.193 229.3 288.193 228.2C288.193 227.1 287.826 226.183 287.093 225.45C286.359 224.717 285.443 224.35 284.343 224.35C283.243 224.35 282.326 224.717 281.593 225.45C280.859 226.183 280.493 227.1 280.493 228.2C280.493 229.3 280.859 230.217 281.593 230.95C282.326 231.683 283.243 232.05 284.343 232.05ZM263.168 216.65C261.848 216.65 260.619 216.412 259.483 215.935C258.346 215.458 257.356 214.798 256.513 213.955C255.669 213.112 255.009 212.122 254.533 210.985C254.056 209.848 253.818 208.62 253.818 207.3C253.818 205.98 254.056 204.752 254.533 203.615C255.009 202.478 255.669 201.488 256.513 200.645C257.356 199.802 258.346 199.142 259.483 198.665C260.619 198.188 261.848 197.95 263.168 197.95C264.488 197.95 265.716 198.188 266.853 198.665C267.989 199.142 268.979 199.802 269.823 200.645C270.666 201.488 271.326 202.478 271.803 203.615C272.279 204.752 272.518 205.98 272.518 207.3C272.518 208.62 272.279 209.848 271.803 210.985C271.326 212.122 270.666 213.112 269.823 213.955C268.979 214.798 267.989 215.458 266.853 215.935C265.716 216.412 264.488 216.65 263.168 216.65ZM263.168 211.15C264.268 211.15 265.184 210.783 265.918 210.05C266.651 209.317 267.018 208.4 267.018 207.3C267.018 206.2 266.651 205.283 265.918 204.55C265.184 203.817 264.268 203.45 263.168 203.45C262.068 203.45 261.151 203.817 260.418 204.55C259.684 205.283 259.318 206.2 259.318 207.3C259.318 208.4 259.684 209.317 260.418 210.05C261.151 210.783 262.068 211.15 263.168 211.15Z" fill="black"/>
<path d="M487.25 259.125L480.65 264.075V255L488.075 249.5H495.5V288H487.25V259.125ZM524.656 289.1C522.053 289.1 519.615 288.605 517.341 287.615C515.068 286.625 513.088 285.25 511.401 283.49C509.715 281.693 508.376 279.548 507.386 277.055C506.433 274.562 505.956 271.793 505.956 268.75C505.956 265.743 506.433 262.993 507.386 260.5C508.376 257.97 509.715 255.825 511.401 254.065C513.088 252.268 515.068 250.875 517.341 249.885C519.615 248.895 522.053 248.4 524.656 248.4C527.26 248.4 529.698 248.895 531.971 249.885C534.245 250.875 536.225 252.268 537.911 254.065C539.598 255.825 540.918 257.97 541.871 260.5C542.861 262.993 543.356 265.743 543.356 268.75C543.356 271.793 542.861 274.562 541.871 277.055C540.918 279.548 539.598 281.693 537.911 283.49C536.225 285.25 534.245 286.625 531.971 287.615C529.698 288.605 527.26 289.1 524.656 289.1ZM524.656 281.4C526.086 281.4 527.406 281.143 528.616 280.63C529.826 280.117 530.871 279.347 531.751 278.32C532.631 277.257 533.31 275.937 533.786 274.36C534.3 272.747 534.556 270.877 534.556 268.75C534.556 266.623 534.3 264.772 533.786 263.195C533.31 261.582 532.631 260.262 531.751 259.235C530.871 258.172 529.826 257.383 528.616 256.87C527.406 256.357 526.086 256.1 524.656 256.1C523.226 256.1 521.906 256.357 520.696 256.87C519.486 257.383 518.441 258.172 517.561 259.235C516.681 260.262 515.985 261.582 515.471 263.195C514.995 264.772 514.756 266.623 514.756 268.75C514.756 270.877 514.995 272.747 515.471 274.36C515.985 275.937 516.681 277.257 517.561 278.32C518.441 279.347 519.486 280.117 520.696 280.63C521.906 281.143 523.226 281.4 524.656 281.4ZM580.194 249.5H586.519L563.419 288H557.094L580.194 249.5ZM582.394 288.55C581.074 288.55 579.845 288.312 578.709 287.835C577.572 287.358 576.582 286.698 575.739 285.855C574.895 285.012 574.235 284.022 573.759 282.885C573.282 281.748 573.044 280.52 573.044 279.2C573.044 277.88 573.282 276.652 573.759 275.515C574.235 274.378 574.895 273.388 575.739 272.545C576.582 271.702 577.572 271.042 578.709 270.565C579.845 270.088 581.074 269.85 582.394 269.85C583.714 269.85 584.942 270.088 586.079 270.565C587.215 271.042 588.205 271.702 589.049 272.545C589.892 273.388 590.552 274.378 591.029 275.515C591.505 276.652 591.744 277.88 591.744 279.2C591.744 280.52 591.505 281.748 591.029 282.885C590.552 284.022 589.892 285.012 589.049 285.855C588.205 286.698 587.215 287.358 586.079 287.835C584.942 288.312 583.714 288.55 582.394 288.55ZM582.394 283.05C583.494 283.05 584.41 282.683 585.144 281.95C585.877 281.217 586.244 280.3 586.244 279.2C586.244 278.1 585.877 277.183 585.144 276.45C584.41 275.717 583.494 275.35 582.394 275.35C581.294 275.35 580.377 275.717 579.644 276.45C578.91 277.183 578.544 278.1 578.544 279.2C578.544 280.3 578.91 281.217 579.644 281.95C580.377 282.683 581.294 283.05 582.394 283.05ZM561.219 267.65C559.899 267.65 558.67 267.412 557.534 266.935C556.397 266.458 555.407 265.798 554.564 264.955C553.72 264.112 553.06 263.122 552.584 261.985C552.107 260.848 551.869 259.62 551.869 258.3C551.869 256.98 552.107 255.752 552.584 254.615C553.06 253.478 553.72 252.488 554.564 251.645C555.407 250.802 556.397 250.142 557.534 249.665C558.67 249.188 559.899 248.95 561.219 248.95C562.539 248.95 563.767 249.188 564.904 249.665C566.04 250.142 567.03 250.802 567.874 251.645C568.717 252.488 569.377 253.478 569.854 254.615C570.33 255.752 570.569 256.98 570.569 258.3C570.569 259.62 570.33 260.848 569.854 261.985C569.377 263.122 568.717 264.112 567.874 264.955C567.03 265.798 566.04 266.458 564.904 266.935C563.767 267.412 562.539 267.65 561.219 267.65ZM561.219 262.15C562.319 262.15 563.235 261.783 563.969 261.05C564.702 260.317 565.069 259.4 565.069 258.3C565.069 257.2 564.702 256.283 563.969 255.55C563.235 254.817 562.319 254.45 561.219 254.45C560.119 254.45 559.202 254.817 558.469 255.55C557.735 256.283 557.369 257.2 557.369 258.3C557.369 259.4 557.735 260.317 558.469 261.05C559.202 261.783 560.119 262.15 561.219 262.15Z" fill="black"/>
<path d="M814.425 294.1C811.748 294.1 809.383 293.77 807.33 293.11C805.277 292.45 803.553 291.57 802.16 290.47C800.767 289.37 799.703 288.105 798.97 286.675C798.273 285.245 797.925 283.778 797.925 282.275C797.925 280.295 798.328 278.7 799.135 277.49C799.978 276.243 800.895 275.29 801.885 274.63C803.058 273.86 804.397 273.292 805.9 272.925V272.375C804.727 271.935 803.663 271.348 802.71 270.615C801.903 269.992 801.17 269.167 800.51 268.14C799.887 267.077 799.575 265.738 799.575 264.125C799.575 262.768 799.887 261.448 800.51 260.165C801.17 258.845 802.123 257.69 803.37 256.7C804.653 255.71 806.212 254.922 808.045 254.335C809.878 253.712 812.005 253.4 814.425 253.4C816.845 253.4 818.972 253.712 820.805 254.335C822.638 254.922 824.178 255.71 825.425 256.7C826.708 257.69 827.662 258.845 828.285 260.165C828.945 261.448 829.275 262.768 829.275 264.125C829.275 265.738 828.945 267.077 828.285 268.14C827.625 269.167 826.892 269.992 826.085 270.615C825.132 271.348 824.087 271.935 822.95 272.375V272.925C824.417 273.292 825.737 273.86 826.91 274.63C827.9 275.29 828.817 276.243 829.66 277.49C830.503 278.7 830.925 280.295 830.925 282.275C830.925 283.778 830.558 285.245 829.825 286.675C829.128 288.105 828.083 289.37 826.69 290.47C825.297 291.57 823.573 292.45 821.52 293.11C819.467 293.77 817.102 294.1 814.425 294.1ZM814.425 286.4C817.175 286.4 819.137 285.923 820.31 284.97C821.52 284.017 822.125 282.843 822.125 281.45C822.125 280.057 821.52 278.883 820.31 277.93C819.137 276.977 817.175 276.5 814.425 276.5C811.675 276.5 809.695 276.977 808.485 277.93C807.312 278.883 806.725 280.057 806.725 281.45C806.725 282.843 807.312 284.017 808.485 284.97C809.695 285.923 811.675 286.4 814.425 286.4ZM814.425 269.35C816.515 269.35 818.037 268.947 818.99 268.14C819.98 267.297 820.475 266.325 820.475 265.225C820.475 264.125 819.98 263.172 818.99 262.365C818.037 261.522 816.515 261.1 814.425 261.1C812.335 261.1 810.795 261.522 809.805 262.365C808.852 263.172 808.375 264.125 808.375 265.225C808.375 266.325 808.852 267.297 809.805 268.14C810.795 268.947 812.335 269.35 814.425 269.35ZM867.496 254.5H873.821L850.721 293H844.396L867.496 254.5ZM869.696 293.55C868.376 293.55 867.147 293.312 866.011 292.835C864.874 292.358 863.884 291.698 863.041 290.855C862.197 290.012 861.537 289.022 861.061 287.885C860.584 286.748 860.346 285.52 860.346 284.2C860.346 282.88 860.584 281.652 861.061 280.515C861.537 279.378 862.197 278.388 863.041 277.545C863.884 276.702 864.874 276.042 866.011 275.565C867.147 275.088 868.376 274.85 869.696 274.85C871.016 274.85 872.244 275.088 873.381 275.565C874.517 276.042 875.507 276.702 876.351 277.545C877.194 278.388 877.854 279.378 878.331 280.515C878.807 281.652 879.046 282.88 879.046 284.2C879.046 285.52 878.807 286.748 878.331 287.885C877.854 289.022 877.194 290.012 876.351 290.855C875.507 291.698 874.517 292.358 873.381 292.835C872.244 293.312 871.016 293.55 869.696 293.55ZM869.696 288.05C870.796 288.05 871.712 287.683 872.446 286.95C873.179 286.217 873.546 285.3 873.546 284.2C873.546 283.1 873.179 282.183 872.446 281.45C871.712 280.717 870.796 280.35 869.696 280.35C868.596 280.35 867.679 280.717 866.946 281.45C866.212 282.183 865.846 283.1 865.846 284.2C865.846 285.3 866.212 286.217 866.946 286.95C867.679 287.683 868.596 288.05 869.696 288.05ZM848.521 272.65C847.201 272.65 845.972 272.412 844.836 271.935C843.699 271.458 842.709 270.798 841.866 269.955C841.022 269.112 840.362 268.122 839.886 266.985C839.409 265.848 839.171 264.62 839.171 263.3C839.171 261.98 839.409 260.752 839.886 259.615C840.362 258.478 841.022 257.488 841.866 256.645C842.709 255.802 843.699 255.142 844.836 254.665C845.972 254.188 847.201 253.95 848.521 253.95C849.841 253.95 851.069 254.188 852.206 254.665C853.342 255.142 854.332 255.802 855.176 256.645C856.019 257.488 856.679 258.478 857.156 259.615C857.632 260.752 857.871 261.98 857.871 263.3C857.871 264.62 857.632 265.848 857.156 266.985C856.679 268.122 856.019 269.112 855.176 269.955C854.332 270.798 853.342 271.458 852.206 271.935C851.069 272.412 849.841 272.65 848.521 272.65ZM848.521 267.15C849.621 267.15 850.537 266.783 851.271 266.05C852.004 265.317 852.371 264.4 852.371 263.3C852.371 262.2 852.004 261.283 851.271 260.55C850.537 259.817 849.621 259.45 848.521 259.45C847.421 259.45 846.504 259.817 845.771 260.55C845.037 261.283 844.671 262.2 844.671 263.3C844.671 264.4 845.037 265.317 845.771 266.05C846.504 266.783 847.421 267.15 848.521 267.15Z" fill="black"/>
<path d="M1119.9 306.85H1100.1V299.425L1113.03 275.5H1122.1L1109.18 299.15H1119.9V290.35H1120.45H1128.15V299.15H1133.38V306.85H1128.15V314H1119.9V306.85ZM1168.29 275.5H1174.62L1151.52 314H1145.19L1168.29 275.5ZM1170.49 314.55C1169.17 314.55 1167.95 314.312 1166.81 313.835C1165.67 313.358 1164.68 312.698 1163.84 311.855C1163 311.012 1162.34 310.022 1161.86 308.885C1161.38 307.748 1161.14 306.52 1161.14 305.2C1161.14 303.88 1161.38 302.652 1161.86 301.515C1162.34 300.378 1163 299.388 1163.84 298.545C1164.68 297.702 1165.67 297.042 1166.81 296.565C1167.95 296.088 1169.17 295.85 1170.49 295.85C1171.81 295.85 1173.04 296.088 1174.18 296.565C1175.32 297.042 1176.31 297.702 1177.15 298.545C1177.99 299.388 1178.65 300.378 1179.13 301.515C1179.61 302.652 1179.84 303.88 1179.84 305.2C1179.84 306.52 1179.61 307.748 1179.13 308.885C1178.65 310.022 1177.99 311.012 1177.15 311.855C1176.31 312.698 1175.32 313.358 1174.18 313.835C1173.04 314.312 1171.81 314.55 1170.49 314.55ZM1170.49 309.05C1171.59 309.05 1172.51 308.683 1173.24 307.95C1173.98 307.217 1174.34 306.3 1174.34 305.2C1174.34 304.1 1173.98 303.183 1173.24 302.45C1172.51 301.717 1171.59 301.35 1170.49 301.35C1169.39 301.35 1168.48 301.717 1167.74 302.45C1167.01 303.183 1166.64 304.1 1166.64 305.2C1166.64 306.3 1167.01 307.217 1167.74 307.95C1168.48 308.683 1169.39 309.05 1170.49 309.05ZM1149.32 293.65C1148 293.65 1146.77 293.412 1145.63 292.935C1144.5 292.458 1143.51 291.798 1142.66 290.955C1141.82 290.112 1141.16 289.122 1140.68 287.985C1140.21 286.848 1139.97 285.62 1139.97 284.3C1139.97 282.98 1140.21 281.752 1140.68 280.615C1141.16 279.478 1141.82 278.488 1142.66 277.645C1143.51 276.802 1144.5 276.142 1145.63 275.665C1146.77 275.188 1148 274.95 1149.32 274.95C1150.64 274.95 1151.87 275.188 1153 275.665C1154.14 276.142 1155.13 276.802 1155.97 277.645C1156.82 278.488 1157.48 279.478 1157.95 280.615C1158.43 281.752 1158.67 282.98 1158.67 284.3C1158.67 285.62 1158.43 286.848 1157.95 287.985C1157.48 289.122 1156.82 290.112 1155.97 290.955C1155.13 291.798 1154.14 292.458 1153 292.935C1151.87 293.412 1150.64 293.65 1149.32 293.65ZM1149.32 288.15C1150.42 288.15 1151.34 287.783 1152.07 287.05C1152.8 286.317 1153.17 285.4 1153.17 284.3C1153.17 283.2 1152.8 282.283 1152.07 281.55C1151.34 280.817 1150.42 280.45 1149.32 280.45C1148.22 280.45 1147.3 280.817 1146.57 281.55C1145.84 282.283 1145.47 283.2 1145.47 284.3C1145.47 285.4 1145.84 286.317 1146.57 287.05C1147.3 287.783 1148.22 288.15 1149.32 288.15Z" fill="black"/>
</g>
<defs>
<clipPath id="clip0_268_57">
<rect width="1374" height="397" rx="53" fill="white"/>
</clipPath>
</defs>
</svg>
