<svg width="680" height="397" viewBox="0 0 680 397" fill="none" xmlns="http://www.w3.org/2000/svg">
<rect width="680" height="397" rx="53" fill="#FFD951"/>
<path fill-rule="evenodd" clip-rule="evenodd" d="M46 170C46 147.909 63.9086 130 86 130H172C194.091 130 212 147.909 212 170V323C212 345.091 194.091 363 172 363H86C63.9086 363 46 345.091 46 323V170ZM257 170C257 147.909 274.909 130 297 130H384C406.091 130 424 147.909 424 170V323C424 345.091 406.091 363 384 363H297C274.909 363 257 345.091 257 323V170ZM509 130C486.909 130 469 147.909 469 170V323C469 345.091 486.909 363 509 363H595C617.091 363 635 345.091 635 323V170C635 147.909 617.091 130 595 130H509Z" fill="#FFF2C3"/>
<path d="M128.076 303.274C127.863 303.753 127.579 304.179 127.224 304.551C126.923 304.871 126.524 305.164 126.027 305.43C125.512 305.678 124.865 305.802 124.084 305.802C123.427 305.802 122.815 305.687 122.247 305.456C121.662 305.208 121.165 304.853 120.757 304.392C120.349 303.93 120.029 303.371 119.799 302.715C119.55 302.058 119.426 301.313 119.426 300.479V294.358H133V297.152H128.875V300.612L133 302.742V305.935L128.076 303.274ZM126.346 297.152H121.955V300.346C121.955 301.145 122.159 301.766 122.567 302.209C122.975 302.653 123.481 302.875 124.084 302.875C124.758 302.875 125.308 302.671 125.734 302.262C126.142 301.854 126.346 301.216 126.346 300.346V297.152ZM119.426 289.03V286.236H121.156V286.103C120.801 285.801 120.473 285.437 120.171 285.012C119.923 284.657 119.692 284.222 119.479 283.707C119.266 283.175 119.16 282.554 119.16 281.844C119.16 280.939 119.329 280.105 119.666 279.342C120.003 278.562 120.482 277.887 121.103 277.32C121.706 276.734 122.443 276.282 123.312 275.962C124.181 275.625 125.148 275.457 126.213 275.457C127.278 275.457 128.245 275.625 129.114 275.962C129.984 276.282 130.729 276.734 131.35 277.32C131.953 277.887 132.423 278.562 132.76 279.342C133.098 280.105 133.266 280.939 133.266 281.844C133.266 282.554 133.169 283.175 132.973 283.707C132.76 284.222 132.53 284.657 132.281 285.012C131.98 285.437 131.643 285.801 131.27 286.103V286.236H138.057V289.03H119.426ZM130.738 282.377C130.738 281.17 130.356 280.203 129.593 279.476C128.813 278.748 127.686 278.384 126.213 278.384C124.74 278.384 123.623 278.748 122.86 279.476C122.079 280.203 121.688 281.17 121.688 282.377C121.688 283.512 122.079 284.444 122.86 285.171C123.623 285.881 124.74 286.236 126.213 286.236C127.686 286.236 128.813 285.881 129.593 285.171C130.356 284.444 130.738 283.512 130.738 282.377ZM119.426 270.942V266.95L127.544 263.357V262.825L119.426 259.232V255.239H133V258.034H123.418L123.152 258.007V258.14L130.605 261.494V264.688L123.152 268.041V268.174L123.418 268.148H133V270.942H119.426ZM133.266 244.328C133.266 245.233 133.098 246.076 132.76 246.857C132.423 247.619 131.953 248.294 131.35 248.879C130.729 249.447 129.984 249.9 129.114 250.237C128.245 250.556 127.278 250.716 126.213 250.716C125.148 250.716 124.181 250.556 123.312 250.237C122.443 249.9 121.706 249.447 121.103 248.879C120.482 248.294 120.003 247.619 119.666 246.857C119.329 246.076 119.16 245.233 119.16 244.328C119.16 243.636 119.266 243.024 119.479 242.492C119.692 241.959 119.923 241.516 120.171 241.161C120.473 240.735 120.801 240.371 121.156 240.07V239.937H119.426V237.142H133V239.937H131.137V240.07C131.527 240.371 131.882 240.735 132.202 241.161C132.468 241.516 132.716 241.959 132.947 242.492C133.16 243.024 133.266 243.636 133.266 244.328ZM130.738 243.796C130.738 242.66 130.356 241.737 129.593 241.028C128.813 240.3 127.686 239.937 126.213 239.937C124.74 239.937 123.623 240.3 122.86 241.028C122.079 241.737 121.688 242.66 121.688 243.796C121.688 245.002 122.079 245.969 122.86 246.697C123.623 247.424 124.74 247.788 126.213 247.788C127.686 247.788 128.813 247.424 129.593 246.697C130.356 245.969 130.738 245.002 130.738 243.796ZM119.426 231.829V229.035H121.156V228.902C120.801 228.6 120.473 228.236 120.171 227.81C119.923 227.455 119.692 227.021 119.479 226.506C119.266 225.974 119.16 225.353 119.16 224.643C119.16 223.738 119.329 222.904 119.666 222.141C120.003 221.36 120.482 220.686 121.103 220.118C121.706 219.533 122.443 219.08 123.312 218.761C124.181 218.424 125.148 218.255 126.213 218.255C127.278 218.255 128.245 218.424 129.114 218.761C129.984 219.08 130.729 219.533 131.35 220.118C131.953 220.686 132.423 221.36 132.76 222.141C133.098 222.904 133.266 223.738 133.266 224.643C133.266 225.353 133.169 225.974 132.973 226.506C132.76 227.021 132.53 227.455 132.281 227.81C131.98 228.236 131.643 228.6 131.27 228.902V229.035H138.057V231.829H119.426ZM130.738 225.175C130.738 223.969 130.356 223.002 129.593 222.274C128.813 221.547 127.686 221.183 126.213 221.183C124.74 221.183 123.623 221.547 122.86 222.274C122.079 223.002 121.688 223.969 121.688 225.175C121.688 226.311 122.079 227.242 122.86 227.97C123.623 228.68 124.74 229.035 126.213 229.035C127.686 229.035 128.813 228.68 129.593 227.97C130.356 227.242 130.738 226.311 130.738 225.175ZM119.426 213.741V210.947H124.749V208.95L119.426 204.825V201.631L125.681 206.555L133 201.232V204.692L127.278 208.817V210.947H133V213.741H119.426ZM133.266 192.429C133.266 193.334 133.098 194.177 132.76 194.958C132.423 195.721 131.953 196.395 131.35 196.98C130.729 197.548 129.984 198.001 129.114 198.338C128.245 198.657 127.278 198.817 126.213 198.817C125.148 198.817 124.181 198.657 123.312 198.338C122.443 198.001 121.706 197.548 121.103 196.98C120.482 196.395 120.003 195.721 119.666 194.958C119.329 194.177 119.16 193.334 119.16 192.429C119.16 191.737 119.266 191.125 119.479 190.593C119.692 190.06 119.923 189.617 120.171 189.262C120.473 188.836 120.801 188.472 121.156 188.171V188.038H119.426V185.243H133V188.038H131.137V188.171C131.527 188.472 131.882 188.836 132.202 189.262C132.468 189.617 132.716 190.06 132.947 190.593C133.16 191.125 133.266 191.737 133.266 192.429ZM130.738 191.897C130.738 190.761 130.356 189.839 129.593 189.129C128.813 188.401 127.686 188.038 126.213 188.038C124.74 188.038 123.623 188.401 122.86 189.129C122.079 189.839 121.688 190.761 121.688 191.897C121.688 193.103 122.079 194.07 122.86 194.798C123.623 195.525 124.74 195.889 126.213 195.889C127.686 195.889 128.813 195.525 129.593 194.798C130.356 194.07 130.738 193.103 130.738 191.897Z" fill="black"/>
<path d="M349.266 283.415C349.266 284.373 349.098 285.269 348.76 286.103C348.406 286.937 347.918 287.655 347.297 288.259C346.658 288.862 345.913 289.341 345.061 289.696C344.191 290.033 343.242 290.202 342.213 290.202C341.184 290.202 340.244 290.033 339.392 289.696C338.522 289.341 337.777 288.862 337.156 288.259C336.517 287.655 336.029 286.937 335.692 286.103C335.337 285.269 335.16 284.373 335.16 283.415C335.16 282.74 335.231 282.128 335.373 281.578C335.515 281.028 335.701 280.54 335.932 280.114C336.163 279.671 336.429 279.289 336.73 278.97C337.032 278.65 337.334 278.367 337.635 278.118C338.345 277.55 339.161 277.142 340.084 276.894V279.822C339.64 279.963 339.241 280.194 338.886 280.514C338.585 280.78 338.309 281.143 338.061 281.605C337.813 282.066 337.688 282.669 337.688 283.415C337.688 283.947 337.795 284.453 338.008 284.932C338.221 285.393 338.522 285.801 338.913 286.156C339.303 286.493 339.782 286.768 340.35 286.981C340.9 287.176 341.521 287.274 342.213 287.274C342.905 287.274 343.535 287.176 344.103 286.981C344.653 286.768 345.123 286.493 345.513 286.156C345.904 285.801 346.205 285.393 346.418 284.932C346.631 284.453 346.738 283.947 346.738 283.415C346.738 282.652 346.613 282.031 346.365 281.552C346.117 281.072 345.842 280.691 345.54 280.407C345.203 280.088 344.804 279.848 344.342 279.688V276.894C345.283 277.142 346.108 277.55 346.818 278.118C347.119 278.367 347.421 278.65 347.722 278.97C348.006 279.289 348.264 279.671 348.494 280.114C348.725 280.54 348.911 281.028 349.053 281.578C349.195 282.128 349.266 282.74 349.266 283.415ZM349 261.731V272.511H335.426V269.716H346.472V263.728H335.426V260.933H346.472V259.07H351.928V261.731H349ZM349.266 248.691C349.266 249.649 349.089 250.554 348.734 251.406C348.361 252.24 347.864 252.976 347.243 253.615C346.605 254.236 345.859 254.724 345.008 255.079C344.138 255.433 343.207 255.611 342.213 255.611C341.219 255.611 340.297 255.433 339.445 255.079C338.576 254.724 337.83 254.236 337.209 253.615C336.571 252.976 336.074 252.24 335.719 251.406C335.346 250.554 335.16 249.649 335.16 248.691C335.16 247.733 335.346 246.837 335.719 246.003C336.074 245.151 336.571 244.415 337.209 243.794C337.83 243.155 338.576 242.658 339.445 242.303C340.297 241.948 341.219 241.771 342.213 241.771H343.145V252.816C343.712 252.71 344.218 252.532 344.662 252.284C345.105 252.036 345.487 251.725 345.806 251.352C346.108 250.98 346.338 250.572 346.498 250.128C346.658 249.667 346.738 249.188 346.738 248.691C346.738 247.999 346.649 247.404 346.472 246.908C346.276 246.411 346.055 246.012 345.806 245.71C345.54 245.355 345.229 245.062 344.875 244.832V241.904C345.709 242.241 346.445 242.711 347.084 243.315C347.35 243.581 347.616 243.882 347.882 244.22C348.148 244.557 348.388 244.947 348.601 245.391C348.796 245.834 348.956 246.331 349.08 246.881C349.204 247.431 349.266 248.034 349.266 248.691ZM340.882 244.699C340.492 244.77 340.102 244.903 339.711 245.098C339.321 245.293 338.984 245.559 338.7 245.896C338.398 246.233 338.159 246.633 337.981 247.094C337.786 247.555 337.688 248.088 337.688 248.691C337.688 249.152 337.759 249.605 337.901 250.048C338.043 250.474 338.256 250.873 338.54 251.246C338.806 251.601 339.143 251.902 339.552 252.151C339.942 252.399 340.385 252.577 340.882 252.683V244.699ZM335.426 237.244V234.45H340.882V227.796H335.426V225.001H349V227.796H343.411V234.45H349V237.244H335.426ZM349.266 214.087C349.266 214.992 349.098 215.834 348.76 216.615C348.423 217.378 347.953 218.052 347.35 218.638C346.729 219.206 345.984 219.658 345.114 219.995C344.245 220.315 343.278 220.474 342.213 220.474C341.148 220.474 340.181 220.315 339.312 219.995C338.443 219.658 337.706 219.206 337.103 218.638C336.482 218.052 336.003 217.378 335.666 216.615C335.329 215.834 335.16 214.992 335.16 214.087C335.16 213.395 335.266 212.783 335.479 212.25C335.692 211.718 335.923 211.274 336.171 210.92C336.473 210.494 336.801 210.13 337.156 209.828V209.695H335.426V206.901H349V209.695H347.137V209.828C347.527 210.13 347.882 210.494 348.202 210.92C348.468 211.274 348.716 211.718 348.947 212.25C349.16 212.783 349.266 213.395 349.266 214.087ZM346.738 213.554C346.738 212.419 346.356 211.496 345.593 210.786C344.813 210.059 343.686 209.695 342.213 209.695C340.74 209.695 339.623 210.059 338.86 210.786C338.079 211.496 337.688 212.419 337.688 213.554C337.688 214.761 338.079 215.728 338.86 216.456C339.623 217.183 340.74 217.547 342.213 217.547C343.686 217.547 344.813 217.183 345.593 216.456C346.356 215.728 346.738 214.761 346.738 213.554Z" fill="black"/>
<path d="M561.266 280.415C561.266 281.373 561.098 282.26 560.76 283.076C560.406 283.892 559.9 284.602 559.243 285.205C558.569 285.791 557.744 286.252 556.768 286.589C555.792 286.909 554.674 287.068 553.415 287.068C551.445 287.068 549.768 286.873 548.384 286.483C546.983 286.093 545.838 285.516 544.951 284.753C544.064 283.972 543.416 283.023 543.008 281.905C542.582 280.787 542.369 279.492 542.369 278.019V274.825H544.898V277.753C544.898 279.882 545.395 281.47 546.388 282.517C547.364 283.564 548.686 284.15 550.354 284.274V284.141C550.017 283.892 549.706 283.564 549.422 283.156C549.192 282.801 548.979 282.366 548.784 281.852C548.588 281.32 548.491 280.663 548.491 279.882C548.491 279.013 548.65 278.206 548.97 277.46C549.289 276.715 549.733 276.067 550.301 275.517C550.851 274.967 551.525 274.541 552.323 274.24C553.104 273.92 553.956 273.761 554.878 273.761C555.819 273.761 556.679 273.92 557.46 274.24C558.241 274.559 558.915 275.012 559.483 275.597C560.033 276.183 560.468 276.884 560.787 277.7C561.106 278.516 561.266 279.421 561.266 280.415ZM558.738 280.415C558.738 279.882 558.649 279.394 558.472 278.951C558.276 278.489 558.01 278.09 557.673 277.753C557.318 277.416 556.91 277.159 556.449 276.981C555.97 276.786 555.446 276.688 554.878 276.688C554.311 276.688 553.796 276.786 553.335 276.981C552.856 277.159 552.448 277.416 552.11 277.753C551.756 278.09 551.489 278.489 551.312 278.951C551.117 279.394 551.019 279.882 551.019 280.415C551.019 280.947 551.117 281.444 551.312 281.905C551.489 282.349 551.756 282.739 552.11 283.076C552.448 283.413 552.856 283.679 553.335 283.875C553.796 284.052 554.311 284.141 554.878 284.141C555.446 284.141 555.97 284.052 556.449 283.875C556.91 283.679 557.318 283.413 557.673 283.076C558.01 282.739 558.276 282.349 558.472 281.905C558.649 281.444 558.738 280.947 558.738 280.415ZM561.266 263.791C561.266 264.696 561.098 265.539 560.76 266.32C560.423 267.083 559.953 267.757 559.35 268.343C558.729 268.91 557.984 269.363 557.114 269.7C556.245 270.019 555.278 270.179 554.213 270.179C553.148 270.179 552.181 270.019 551.312 269.7C550.443 269.363 549.706 268.91 549.103 268.343C548.482 267.757 548.003 267.083 547.666 266.32C547.329 265.539 547.16 264.696 547.16 263.791C547.16 263.099 547.266 262.487 547.479 261.955C547.692 261.423 547.923 260.979 548.171 260.624C548.473 260.198 548.801 259.835 549.156 259.533V259.4H547.426V256.605H561V259.4H559.137V259.533C559.527 259.835 559.882 260.198 560.202 260.624C560.468 260.979 560.716 261.423 560.947 261.955C561.16 262.487 561.266 263.099 561.266 263.791ZM558.738 263.259C558.738 262.124 558.356 261.201 557.593 260.491C556.813 259.764 555.686 259.4 554.213 259.4C552.74 259.4 551.623 259.764 550.86 260.491C550.079 261.201 549.688 262.124 549.688 263.259C549.688 264.466 550.079 265.433 550.86 266.16C551.623 266.888 552.74 267.251 554.213 267.251C555.686 267.251 556.813 266.888 557.593 266.16C558.356 265.433 558.738 264.466 558.738 263.259ZM549.955 248.232V252.756H547.426V240.913H549.955V245.437H561V248.232H549.955ZM561 231.861V234.656L547.426 238.382V235.454L558.338 232.527V231.063L547.426 227.869V224.941L566.057 230.531V233.458L561 231.861ZM549.955 218.294V222.818H547.426V210.974H549.955V215.499H561V218.294H549.955Z" fill="black"/>
<path d="M163.7 66.84H156.22V61.56H177.34V66.84H169.86V84H163.7V66.84ZM194.51 84.66C192.75 84.66 191.108 84.352 189.582 83.736C188.086 83.12 186.781 82.284 185.666 81.228C184.581 80.1427 183.73 78.8813 183.114 77.444C182.498 75.9773 182.19 74.4227 182.19 72.78C182.19 71.1373 182.498 69.5973 183.114 68.16C183.73 66.6933 184.581 65.432 185.666 64.376C186.781 63.2907 188.086 62.44 189.582 61.824C191.108 61.208 192.75 60.9 194.51 60.9C196.27 60.9 197.898 61.208 199.394 61.824C200.89 62.44 202.181 63.2907 203.266 64.376C204.381 65.432 205.246 66.6933 205.862 68.16C206.508 69.5973 206.83 71.1373 206.83 72.78C206.83 74.4227 206.508 75.9773 205.862 77.444C205.246 78.8813 204.381 80.1427 203.266 81.228C202.181 82.284 200.89 83.12 199.394 83.736C197.898 84.352 196.27 84.66 194.51 84.66ZM194.51 79.38C195.332 79.38 196.094 79.2187 196.798 78.896C197.532 78.5733 198.162 78.1333 198.69 77.576C199.248 76.9893 199.673 76.3 199.966 75.508C200.289 74.6867 200.45 73.7773 200.45 72.78C200.45 71.7827 200.289 70.888 199.966 70.096C199.673 69.2747 199.248 68.5853 198.69 68.028C198.162 67.4413 197.532 66.9867 196.798 66.664C196.094 66.3413 195.332 66.18 194.51 66.18C193.689 66.18 192.912 66.3413 192.178 66.664C191.474 66.9867 190.844 67.4413 190.286 68.028C189.758 68.5853 189.333 69.2747 189.01 70.096C188.717 70.888 188.57 71.7827 188.57 72.78C188.57 73.7773 188.717 74.6867 189.01 75.508C189.333 76.3 189.758 76.9893 190.286 77.576C190.844 78.1333 191.474 78.5733 192.178 78.896C192.912 79.2187 193.689 79.38 194.51 79.38ZM213.886 61.56H235.446V84H229.286V66.84H220.046V84H213.886V61.56ZM243.789 69.48H260.289V74.76H243.789V69.48ZM280.104 84.88C278.667 84.88 277.376 84.7333 276.232 84.44C275.117 84.1467 274.12 83.7653 273.24 83.296C272.389 82.8267 271.641 82.2987 270.996 81.712C270.38 81.096 269.852 80.4653 269.412 79.82C268.385 78.3533 267.696 76.6667 267.344 74.76H274.164C274.369 75.5227 274.721 76.1827 275.22 76.74C275.631 77.2387 276.217 77.6933 276.98 78.104C277.772 78.5147 278.813 78.72 280.104 78.72C281.981 78.72 283.404 78.2947 284.372 77.444C285.34 76.5933 285.824 75.552 285.824 74.32C285.824 73 285.384 71.944 284.504 71.152C283.624 70.3307 282.304 69.92 280.544 69.92H273.064V65.08L281.204 59.58V59.36H268.884V53.2H290.664V59.36L282.524 64.42L282.084 64.596V64.86H283.184C284.504 64.86 285.736 65.1093 286.88 65.608C288.024 66.0773 289.021 66.752 289.872 67.632C290.752 68.4827 291.427 69.48 291.896 70.624C292.395 71.768 292.644 73 292.644 74.32C292.644 75.7573 292.351 77.1213 291.764 78.412C291.177 79.6733 290.341 80.788 289.256 81.756C288.171 82.724 286.851 83.4867 285.296 84.044C283.771 84.6013 282.04 84.88 280.104 84.88ZM319.271 61.56H331.151L337.091 84H330.931L326.311 66.84H324.111L319.491 84H313.331L319.271 61.56ZM354.033 84.66C352.273 84.66 350.63 84.352 349.105 83.736C347.609 83.12 346.303 82.284 345.189 81.228C344.103 80.1427 343.253 78.8813 342.637 77.444C342.021 75.9773 341.713 74.4227 341.713 72.78C341.713 71.1373 342.021 69.5973 342.637 68.16C343.253 66.6933 344.103 65.432 345.189 64.376C346.303 63.2907 347.609 62.44 349.105 61.824C350.63 61.208 352.273 60.9 354.033 60.9C355.793 60.9 357.421 61.208 358.917 61.824C360.413 62.44 361.703 63.2907 362.789 64.376C363.903 65.432 364.769 66.6933 365.385 68.16C366.03 69.5973 366.353 71.1373 366.353 72.78C366.353 74.4227 366.03 75.9773 365.385 77.444C364.769 78.8813 363.903 80.1427 362.789 81.228C361.703 82.284 360.413 83.12 358.917 83.736C357.421 84.352 355.793 84.66 354.033 84.66ZM354.033 79.38C354.854 79.38 355.617 79.2187 356.321 78.896C357.054 78.5733 357.685 78.1333 358.213 77.576C358.77 76.9893 359.195 76.3 359.489 75.508C359.811 74.6867 359.973 73.7773 359.973 72.78C359.973 71.7827 359.811 70.888 359.489 70.096C359.195 69.2747 358.77 68.5853 358.213 68.028C357.685 67.4413 357.054 66.9867 356.321 66.664C355.617 66.3413 354.854 66.18 354.033 66.18C353.211 66.18 352.434 66.3413 351.701 66.664C350.997 66.9867 350.366 67.4413 349.809 68.028C349.281 68.5853 348.855 69.2747 348.533 70.096C348.239 70.888 348.093 71.7827 348.093 72.78C348.093 73.7773 348.239 74.6867 348.533 75.508C348.855 76.3 349.281 76.9893 349.809 77.576C350.366 78.1333 350.997 78.5733 351.701 78.896C352.434 79.2187 353.211 79.38 354.033 79.38ZM373.408 61.56H379.568V69.92H382.208L388.148 61.56H394.968L387.708 71.9L395.628 84H388.588L382.868 75.2H379.568V84H373.408V61.56ZM409.715 84.66C408.278 84.66 406.928 84.3813 405.667 83.824C404.435 83.2667 403.35 82.4747 402.411 81.448C401.472 80.4213 400.724 79.1747 400.167 77.708C399.639 76.2413 399.375 74.5987 399.375 72.78C399.375 70.9613 399.639 69.3187 400.167 67.852C400.724 66.3853 401.472 65.1387 402.411 64.112C403.35 63.0853 404.435 62.2933 405.667 61.736C406.928 61.1787 408.278 60.9 409.715 60.9C410.947 60.9 411.988 61.0907 412.839 61.472C413.719 61.824 414.452 62.22 415.039 62.66C415.714 63.188 416.286 63.7747 416.755 64.42H416.975V61.56H423.135V84H416.975V81.14H416.755C416.286 81.7853 415.714 82.372 415.039 82.9C414.452 83.34 413.719 83.736 412.839 84.088C411.988 84.4693 410.947 84.66 409.715 84.66ZM411.255 79.38C412.927 79.38 414.291 78.808 415.347 77.664C416.432 76.52 416.975 74.892 416.975 72.78C416.975 70.668 416.432 69.04 415.347 67.896C414.291 66.752 412.927 66.18 411.255 66.18C409.7 66.18 408.395 66.752 407.339 67.896C406.283 69.04 405.755 70.668 405.755 72.78C405.755 74.892 406.283 76.52 407.339 77.664C408.395 78.808 409.7 79.38 411.255 79.38ZM449.315 84H431.495V61.56H437.655V78.72H446.015V61.56H452.175V78.72H455.255V88.62H449.315V84ZM461.656 61.56H467.816V71.24L467.596 75.2H468.036L477.056 61.56H483.656V84H477.496V74.32L477.716 70.36H477.276L468.256 84H461.656V61.56ZM492.031 61.56H498.191V71.24L497.971 75.2H498.411L507.431 61.56H514.031V84H507.871V74.32L508.091 70.36H507.651L498.631 84H492.031V61.56ZM503.031 56.72C500.714 56.72 498.954 56.1773 497.751 55.092C496.578 53.9773 495.991 52.54 495.991 50.78H500.171C500.171 51.4547 500.391 51.9973 500.831 52.408C501.3 52.7893 502.034 52.98 503.031 52.98C504.028 52.98 504.747 52.7893 505.187 52.408C505.656 51.9973 505.891 51.4547 505.891 50.78H510.071C510.071 52.54 509.47 53.9773 508.267 55.092C507.094 56.1773 505.348 56.72 503.031 56.72Z" fill="black"/>
</svg>
