<svg width="1138" height="497" viewBox="0 0 1138 497" fill="none" xmlns="http://www.w3.org/2000/svg">
<g filter="url(#filter0_b_2284_2)">
<path d="M0 72C0 32.2355 32.2355 0 72 0H531.826C571.591 0 603.826 32.2355 603.826 72V135.945C603.826 175.71 636.062 207.945 675.826 207.945H1066C1105.76 207.945 1138 240.181 1138 279.945V425C1138 464.764 1105.76 497 1066 497H72C32.2355 497 0 464.764 0 425V72Z" fill="#FC5812" fill-opacity="0.5"/>
</g>
<path d="M34.7276 43.3837H60.5876V76H56.3941V47.3443H38.9211V76H34.7276V43.3837ZM82.0139 76.4659C80.2743 76.4659 78.6591 76.1708 77.168 75.5806C75.677 74.9594 74.3879 74.1207 73.3007 73.0645C72.2445 71.9773 71.4058 70.6882 70.7846 69.1972C70.1944 67.7061 69.8993 66.0909 69.8993 64.3513C69.8993 62.6118 70.1944 60.9965 70.7846 59.5055C71.4058 58.0145 72.2445 56.7409 73.3007 55.6847C74.3879 54.5975 75.677 53.7588 77.168 53.1686C78.6591 52.5473 80.2743 52.2367 82.0139 52.2367C83.7534 52.2367 85.3687 52.5473 86.8597 53.1686C88.3508 53.7588 89.6243 54.5975 90.6805 55.6847C91.7677 56.7409 92.6064 58.0145 93.1966 59.5055C93.8179 60.9965 94.1285 62.6118 94.1285 64.3513C94.1285 66.0909 93.8179 67.7061 93.1966 69.1972C92.6064 70.6882 91.7677 71.9773 90.6805 73.0645C89.6243 74.1207 88.3508 74.9594 86.8597 75.5806C85.3687 76.1708 83.7534 76.4659 82.0139 76.4659ZM82.0139 72.9713C83.2253 72.9713 84.3436 72.7694 85.3687 72.3656C86.3938 71.9307 87.2791 71.3405 88.0246 70.595C88.7701 69.8184 89.3448 68.9021 89.7486 67.8459C90.1835 66.7898 90.4009 65.6249 90.4009 64.3513C90.4009 63.0777 90.1835 61.9129 89.7486 60.8567C89.3448 59.8006 88.7701 58.8998 88.0246 58.1542C87.2791 57.3777 86.3938 56.7875 85.3687 56.3836C84.3436 55.9488 83.2253 55.7313 82.0139 55.7313C80.8024 55.7313 79.6841 55.9488 78.6591 56.3836C77.634 56.7875 76.7487 57.3777 76.0032 58.1542C75.2577 58.8998 74.6675 59.8006 74.2326 60.8567C73.8288 61.9129 73.6268 63.0777 73.6268 64.3513C73.6268 65.6249 73.8288 66.7898 74.2326 67.8459C74.6675 68.9021 75.2577 69.8184 76.0032 70.595C76.7487 71.3405 77.634 71.9307 78.6591 72.3656C79.6841 72.7694 80.8024 72.9713 82.0139 72.9713ZM113.214 76.4659C111.568 76.4659 110.03 76.1708 108.601 75.5806C107.203 74.9594 105.976 74.1207 104.92 73.0645C103.895 71.9773 103.072 70.6882 102.451 69.1972C101.861 67.7061 101.565 66.0909 101.565 64.3513C101.565 62.6118 101.861 60.9965 102.451 59.5055C103.072 58.0145 103.895 56.7409 104.92 55.6847C105.976 54.5975 107.203 53.7588 108.601 53.1686C110.03 52.5473 111.568 52.2367 113.214 52.2367C114.363 52.2367 115.404 52.361 116.336 52.6095C117.299 52.8269 118.153 53.1375 118.899 53.5414C119.644 53.9141 120.296 54.349 120.856 54.846C121.415 55.343 121.896 55.84 122.3 56.337C123.263 57.5485 123.962 58.8998 124.397 60.3908H120.669C120.296 59.521 119.784 58.7444 119.132 58.0611C118.572 57.4709 117.811 56.9428 116.848 56.4768C115.886 55.9798 114.674 55.7313 113.214 55.7313C112.096 55.7313 111.055 55.9488 110.092 56.3836C109.129 56.7875 108.291 57.3777 107.576 58.1542C106.862 58.8998 106.303 59.8006 105.899 60.8567C105.495 61.9129 105.293 63.0777 105.293 64.3513C105.293 65.656 105.51 66.8364 105.945 67.8925C106.38 68.9487 106.955 69.8495 107.669 70.595C108.384 71.3405 109.222 71.9307 110.185 72.3656C111.148 72.7694 112.158 72.9713 113.214 72.9713C114.736 72.9713 115.979 72.7073 116.942 72.1792C117.936 71.6512 118.728 71.061 119.318 70.4086C120.001 69.6631 120.529 68.8089 120.902 67.8459H124.63C124.195 69.4923 123.48 70.9367 122.486 72.1792C122.052 72.7073 121.555 73.2354 120.995 73.7635C120.436 74.2605 119.768 74.7109 118.992 75.1147C118.246 75.5185 117.392 75.8447 116.429 76.0932C115.466 76.3417 114.395 76.4659 113.214 76.4659ZM143.521 76.4659C141.843 76.4659 140.275 76.1708 138.815 75.5806C137.355 74.9594 136.097 74.1207 135.04 73.0645C133.984 71.9773 133.146 70.6882 132.524 69.1972C131.934 67.7061 131.639 66.0909 131.639 64.3513C131.639 62.6118 131.934 60.9965 132.524 59.5055C133.146 58.0145 133.984 56.7409 135.04 55.6847C136.097 54.5975 137.355 53.7588 138.815 53.1686C140.275 52.5473 141.843 52.2367 143.521 52.2367C145.198 52.2367 146.767 52.5473 148.227 53.1686C149.687 53.7588 150.945 54.582 152.001 55.6381C153.057 56.6943 153.88 57.9523 154.47 59.4123C155.092 60.8723 155.402 62.441 155.402 64.1184V65.5162H135.367C135.491 66.6034 135.786 67.613 136.252 68.5449C136.718 69.4457 137.308 70.2223 138.022 70.8746C138.737 71.5269 139.56 72.0395 140.492 72.4122C141.455 72.785 142.465 72.9713 143.521 72.9713C144.919 72.9713 146.099 72.7539 147.062 72.319C148.025 71.8841 148.817 71.4027 149.438 70.8746C150.153 70.2844 150.743 69.5855 151.209 68.7778H154.936C154.377 70.2378 153.585 71.5269 152.56 72.6452C151.659 73.6081 150.479 74.4934 149.019 75.3011C147.559 76.0777 145.726 76.4659 143.521 76.4659ZM151.442 62.2546C151.318 61.3848 151.038 60.5616 150.603 59.7851C150.199 58.9774 149.656 58.2785 148.972 57.6883C148.289 57.0981 147.481 56.6321 146.549 56.2905C145.648 55.9177 144.639 55.7313 143.521 55.7313C142.402 55.7313 141.377 55.9177 140.445 56.2905C139.545 56.6321 138.737 57.0981 138.022 57.6883C137.339 58.2785 136.78 58.9774 136.345 59.7851C135.91 60.5616 135.615 61.3848 135.46 62.2546H151.442ZM193.603 76H164.248V52.7027H167.976V72.5054H177.295V52.7027H181.022V72.5054H190.341V52.7027H194.069V72.5054H197.33V81.3584H193.603V76ZM214.8 76.4659C213.277 76.4659 211.833 76.1708 210.466 75.5806C209.131 74.9594 207.95 74.1207 206.925 73.0645C205.9 71.9773 205.092 70.6882 204.502 69.1972C203.912 67.7061 203.617 66.0909 203.617 64.3513C203.617 62.6118 203.912 60.9965 204.502 59.5055C205.092 58.0145 205.9 56.7409 206.925 55.6847C207.95 54.5975 209.131 53.7588 210.466 53.1686C211.833 52.5473 213.277 52.2367 214.8 52.2367C216.322 52.2367 217.611 52.4542 218.667 52.889C219.723 53.3239 220.577 53.8054 221.23 54.3335C221.913 54.8616 222.395 55.3586 222.674 55.8245C222.985 56.2594 223.14 56.4768 223.14 56.4768H223.187V52.7027H226.914V76H223.187V72.2724H223.14C223.14 72.2724 222.985 72.5054 222.674 72.9713C222.395 73.4062 221.913 73.8877 221.23 74.4158C220.577 74.9128 219.723 75.3787 218.667 75.8136C217.611 76.2485 216.322 76.4659 214.8 76.4659ZM215.266 72.9713C216.384 72.9713 217.424 72.7694 218.387 72.3656C219.35 71.9307 220.189 71.3405 220.903 70.595C221.618 69.8184 222.177 68.9021 222.581 67.8459C222.985 66.7898 223.187 65.6249 223.187 64.3513C223.187 63.0777 222.985 61.9129 222.581 60.8567C222.177 59.8006 221.618 58.8998 220.903 58.1542C220.189 57.3777 219.35 56.7875 218.387 56.3836C217.424 55.9488 216.384 55.7313 215.266 55.7313C214.147 55.7313 213.107 55.9488 212.144 56.3836C211.181 56.7875 210.342 57.3777 209.628 58.1542C208.913 58.8998 208.354 59.8006 207.95 60.8567C207.546 61.9129 207.344 63.0777 207.344 64.3513C207.344 65.6249 207.546 66.7898 207.95 67.8459C208.354 68.9021 208.913 69.8184 209.628 70.595C210.342 71.3405 211.181 71.9307 212.144 72.3656C213.107 72.7694 214.147 72.9713 215.266 72.9713ZM240.909 52.7027H250.694L257.217 76H253.257L247.898 56.1973H243.705L238.346 76H234.386L240.909 52.7027ZM264.661 52.7027H268.389V70.1757L268.342 70.6416H268.436L280.969 52.7027H285.163V76H281.435V58.527L281.482 58.0611H281.389L268.855 76H264.661V52.7027ZM44.5125 139.466C42.8661 139.466 41.3285 139.171 39.8996 138.581C38.5017 137.959 37.2747 137.121 36.2186 136.065C35.1935 134.977 34.3703 133.688 33.7491 132.197C33.1589 130.706 32.8638 129.091 32.8638 127.351C32.8638 125.612 33.1589 123.997 33.7491 122.505C34.3703 121.014 35.1935 119.741 36.2186 118.685C37.2747 117.598 38.5017 116.759 39.8996 116.169C41.3285 115.547 42.8661 115.237 44.5125 115.237C45.6618 115.237 46.7024 115.361 47.6343 115.609C48.5973 115.827 49.4515 116.138 50.197 116.541C50.9425 116.914 51.5948 117.349 52.154 117.846C52.7131 118.343 53.1946 118.84 53.5984 119.337C54.5614 120.549 55.2603 121.9 55.6952 123.391H51.9676C51.5948 122.521 51.0823 121.744 50.43 121.061C49.8708 120.471 49.1098 119.943 48.1468 119.477C47.1839 118.98 45.9724 118.731 44.5125 118.731C43.3942 118.731 42.3536 118.949 41.3906 119.384C40.4277 119.787 39.589 120.378 38.8745 121.154C38.16 121.9 37.6009 122.801 37.1971 123.857C36.7933 124.913 36.5914 126.078 36.5914 127.351C36.5914 128.656 36.8088 129.836 37.2437 130.893C37.6786 131.949 38.2532 132.85 38.9677 133.595C39.6821 134.341 40.5208 134.931 41.4838 135.366C42.4468 135.769 43.4563 135.971 44.5125 135.971C46.0345 135.971 47.2771 135.707 48.24 135.179C49.234 134.651 50.0262 134.061 50.6164 133.409C51.2997 132.663 51.8278 131.809 52.2006 130.846H55.9281C55.4933 132.492 54.7788 133.937 53.7848 135.179C53.3499 135.707 52.8529 136.235 52.2938 136.763C51.7346 137.26 51.0668 137.711 50.2902 138.115C49.5447 138.519 48.6904 138.845 47.7275 139.093C46.7645 139.342 45.6929 139.466 44.5125 139.466ZM78.0934 135.505H80.6561L86.0145 115.703H95.7994L101.158 135.505H103.72V144.358H99.9929V139H81.821V144.358H78.0934V135.505ZM97.4302 135.505L93.0037 119.197H88.8102L84.3837 135.505H97.4302ZM121.406 139.466C119.729 139.466 118.16 139.171 116.7 138.581C115.24 137.959 113.982 137.121 112.926 136.065C111.87 134.977 111.031 133.688 110.41 132.197C109.82 130.706 109.525 129.091 109.525 127.351C109.525 125.612 109.82 123.997 110.41 122.505C111.031 121.014 111.87 119.741 112.926 118.685C113.982 117.598 115.24 116.759 116.7 116.169C118.16 115.547 119.729 115.237 121.406 115.237C123.084 115.237 124.652 115.547 126.112 116.169C127.572 116.759 128.83 117.582 129.887 118.638C130.943 119.694 131.766 120.952 132.356 122.412C132.977 123.872 133.288 125.441 133.288 127.118V128.516H113.252C113.377 129.603 113.672 130.613 114.138 131.545C114.604 132.446 115.194 133.222 115.908 133.875C116.623 134.527 117.446 135.039 118.378 135.412C119.341 135.785 120.35 135.971 121.406 135.971C122.804 135.971 123.985 135.754 124.948 135.319C125.911 134.884 126.703 134.403 127.324 133.875C128.038 133.284 128.629 132.585 129.095 131.778H132.822C132.263 133.238 131.471 134.527 130.446 135.645C129.545 136.608 128.365 137.493 126.905 138.301C125.445 139.078 123.612 139.466 121.406 139.466ZM129.327 125.255C129.203 124.385 128.924 123.562 128.489 122.785C128.085 121.977 127.541 121.278 126.858 120.688C126.175 120.098 125.367 119.632 124.435 119.29C123.534 118.918 122.525 118.731 121.406 118.731C120.288 118.731 119.263 118.918 118.331 119.29C117.43 119.632 116.623 120.098 115.908 120.688C115.225 121.278 114.666 121.977 114.231 122.785C113.796 123.562 113.501 124.385 113.346 125.255H129.327ZM147.259 119.197H139.105V115.703H159.141V119.197H150.987V139H147.259V119.197ZM166.383 115.703H170.111V123.624H176.634C177.97 123.624 179.181 123.826 180.268 124.229C181.355 124.633 182.287 125.192 183.064 125.907C183.84 126.59 184.431 127.398 184.834 128.33C185.269 129.262 185.487 130.256 185.487 131.312C185.487 132.368 185.269 133.362 184.834 134.294C184.431 135.226 183.84 136.049 183.064 136.763C182.287 137.447 181.355 137.99 180.268 138.394C179.181 138.798 177.97 139 176.634 139H166.383V115.703ZM176.634 135.505C178.28 135.505 179.538 135.102 180.408 134.294C181.309 133.486 181.759 132.492 181.759 131.312C181.759 130.131 181.309 129.137 180.408 128.33C179.538 127.522 178.28 127.118 176.634 127.118H170.111V135.505H176.634ZM193.635 115.703H199.227L206.216 130.147H207.381L214.37 115.703H219.961V139H216.234V120.362L216.28 119.896H216.187L209.245 134.341H204.352L197.41 119.896H197.316L197.363 120.362V139H193.635V115.703ZM230.216 115.703H233.943V133.176L233.897 133.642H233.99L246.524 115.703H250.718V139H246.99V121.527L247.037 121.061H246.943L234.409 139H230.216V115.703ZM288.942 147.154C286.86 145.601 284.997 143.737 283.35 141.563C282.636 140.631 281.937 139.606 281.253 138.487C280.601 137.338 280.011 136.096 279.483 134.76C278.986 133.424 278.566 131.98 278.225 130.427C277.914 128.873 277.759 127.227 277.759 125.488C277.759 123.748 277.914 122.102 278.225 120.549C278.566 118.995 278.986 117.551 279.483 116.215C280.011 114.879 280.601 113.652 281.253 112.534C281.937 111.385 282.636 110.344 283.35 109.412C284.997 107.238 286.86 105.374 288.942 103.821L290.805 106.617C289.097 108.046 287.575 109.707 286.239 111.602C285.68 112.41 285.121 113.311 284.562 114.305C284.034 115.299 283.552 116.386 283.117 117.566C282.713 118.716 282.372 119.958 282.092 121.294C281.844 122.599 281.719 123.997 281.719 125.488C281.719 126.979 281.844 128.392 282.092 129.728C282.372 131.063 282.713 132.321 283.117 133.502C283.552 134.651 284.034 135.723 284.562 136.717C285.121 137.68 285.68 138.565 286.239 139.373C287.575 141.268 289.097 142.929 290.805 144.358L288.942 147.154ZM309.682 139.932C307.88 139.932 306.218 139.621 304.696 139C303.205 138.41 301.9 137.602 300.782 136.577C299.695 135.552 298.841 134.356 298.219 132.989C297.629 131.591 297.334 130.1 297.334 128.516C297.334 127.305 297.474 126.186 297.753 125.161C298.033 124.105 298.421 123.111 298.918 122.179C299.415 121.216 299.99 120.284 300.642 119.384C301.295 118.483 301.978 117.566 302.692 116.635L310.614 106.384H315.506L306.886 117.287L306.7 117.52L306.653 117.566C306.715 117.535 306.995 117.458 307.492 117.333C307.989 117.178 308.796 117.101 309.915 117.101C311.654 117.101 313.269 117.411 314.76 118.032C316.251 118.623 317.525 119.43 318.581 120.455C319.668 121.48 320.507 122.692 321.097 124.09C321.719 125.456 322.029 126.932 322.029 128.516C322.029 130.1 321.719 131.591 321.097 132.989C320.507 134.356 319.653 135.552 318.535 136.577C317.447 137.602 316.143 138.41 314.621 139C313.13 139.621 311.483 139.932 309.682 139.932ZM309.682 135.971C310.893 135.971 311.996 135.785 312.99 135.412C314.015 135.008 314.885 134.48 315.599 133.828C316.314 133.145 316.857 132.352 317.23 131.452C317.634 130.551 317.836 129.572 317.836 128.516C317.836 127.46 317.634 126.482 317.23 125.581C316.857 124.68 316.314 123.903 315.599 123.251C314.885 122.568 314.015 122.04 312.99 121.667C311.996 121.263 310.893 121.061 309.682 121.061C308.47 121.061 307.352 121.263 306.327 121.667C305.333 122.04 304.479 122.568 303.764 123.251C303.05 123.903 302.491 124.68 302.087 125.581C301.714 126.482 301.528 127.46 301.528 128.516C301.528 129.572 301.714 130.551 302.087 131.452C302.491 132.352 303.05 133.145 303.764 133.828C304.479 134.48 305.333 135.008 306.327 135.412C307.352 135.785 308.47 135.971 309.682 135.971ZM347.685 115.703H351.413V133.176L351.366 133.642H351.46L363.994 115.703H368.187V139H364.459V121.527L364.506 121.061H364.413L351.879 139H347.685V115.703ZM398.956 111.509L393.132 115.936V111.276L399.422 106.384H403.149V139H398.956V111.509ZM428.558 132.011H411.551V128.05L422.967 106.384H427.626L416.211 128.05H428.558V119.663H428.791H432.752V128.05H437.644V132.011H432.752V139H428.558V132.011ZM465.379 115.703H475.164L481.687 139H477.726L472.368 119.197H468.174L462.816 139H458.856L465.379 115.703ZM499.615 139.466C497.938 139.466 496.369 139.171 494.909 138.581C493.449 137.959 492.191 137.121 491.135 136.065C490.079 134.977 489.24 133.688 488.619 132.197C488.028 130.706 487.733 129.091 487.733 127.351C487.733 125.612 488.028 123.997 488.619 122.505C489.24 121.014 490.079 119.741 491.135 118.685C492.191 117.598 493.449 116.759 494.909 116.169C496.369 115.547 497.938 115.237 499.615 115.237C501.292 115.237 502.861 115.547 504.321 116.169C505.781 116.759 507.039 117.582 508.095 118.638C509.151 119.694 509.975 120.952 510.565 122.412C511.186 123.872 511.497 125.441 511.497 127.118V128.516H491.461C491.585 129.603 491.88 130.613 492.346 131.545C492.812 132.446 493.402 133.222 494.117 133.875C494.831 134.527 495.654 135.039 496.586 135.412C497.549 135.785 498.559 135.971 499.615 135.971C501.013 135.971 502.193 135.754 503.156 135.319C504.119 134.884 504.911 134.403 505.532 133.875C506.247 133.284 506.837 132.585 507.303 131.778H511.031C510.472 133.238 509.679 134.527 508.654 135.645C507.754 136.608 506.573 137.493 505.113 138.301C503.653 139.078 501.82 139.466 499.615 139.466ZM507.536 125.255C507.412 124.385 507.132 123.562 506.697 122.785C506.294 121.977 505.75 121.278 505.067 120.688C504.383 120.098 503.576 119.632 502.644 119.29C501.743 118.918 500.733 118.731 499.615 118.731C498.497 118.731 497.472 118.918 496.54 119.29C495.639 119.632 494.831 120.098 494.117 120.688C493.433 121.278 492.874 121.977 492.439 122.785C492.005 123.562 491.709 124.385 491.554 125.255H507.536ZM525.468 119.197H517.314V115.703H537.349V119.197H529.195V139H525.468V119.197ZM542.262 144.358C543.939 142.929 545.446 141.268 546.782 139.373C547.341 138.565 547.9 137.68 548.459 136.717C549.018 135.723 549.5 134.651 549.903 133.502C550.338 132.321 550.68 131.063 550.928 129.728C551.208 128.392 551.348 126.979 551.348 125.488C551.348 123.997 551.208 122.599 550.928 121.294C550.68 119.958 550.338 118.716 549.903 117.566C549.5 116.386 549.018 115.299 548.459 114.305C547.9 113.311 547.341 112.41 546.782 111.602C545.446 109.707 543.939 108.046 542.262 106.617L544.126 103.821C546.207 105.374 548.071 107.238 549.717 109.412C550.4 110.344 551.084 111.385 551.767 112.534C552.451 113.652 553.041 114.879 553.538 116.215C554.066 117.551 554.485 118.995 554.796 120.549C555.137 122.102 555.308 123.748 555.308 125.488C555.308 127.227 555.137 128.873 554.796 130.427C554.485 131.98 554.066 133.424 553.538 134.76C553.041 136.096 552.451 137.338 551.767 138.487C551.084 139.606 550.4 140.631 549.717 141.563C548.071 143.737 546.207 145.601 544.126 147.154L542.262 144.358ZM564.633 142.961C566.496 142.743 567.428 141.734 567.428 139.932V139.233C567.366 139.295 567.273 139.342 567.149 139.373C566.9 139.435 566.683 139.466 566.496 139.466C565.906 139.466 565.409 139.249 565.005 138.814C564.602 138.379 564.4 137.789 564.4 137.043C564.4 136.142 564.664 135.428 565.192 134.9C565.72 134.372 566.388 134.108 567.195 134.108C568.003 134.108 568.671 134.434 569.199 135.086C569.727 135.707 569.991 136.779 569.991 138.301C569.991 140.413 569.51 141.998 568.547 143.054C567.584 144.11 566.279 144.7 564.633 144.824V142.961ZM34.2616 178.703H54.5303V202H50.8027V182.197H37.9892V202H34.2616V178.703ZM75.507 202.466C73.7675 202.466 72.1522 202.171 70.6612 201.581C69.1701 200.959 67.881 200.121 66.7938 199.065C65.7377 197.977 64.899 196.688 64.2777 195.197C63.6875 193.706 63.3924 192.091 63.3924 190.351C63.3924 188.612 63.6875 186.997 64.2777 185.505C64.899 184.014 65.7377 182.741 66.7938 181.685C67.881 180.598 69.1701 179.759 70.6612 179.169C72.1522 178.547 73.7675 178.237 75.507 178.237C77.2465 178.237 78.8618 178.547 80.3529 179.169C81.8439 179.759 83.1175 180.598 84.1736 181.685C85.2608 182.741 86.0995 184.014 86.6897 185.505C87.311 186.997 87.6216 188.612 87.6216 190.351C87.6216 192.091 87.311 193.706 86.6897 195.197C86.0995 196.688 85.2608 197.977 84.1736 199.065C83.1175 200.121 81.8439 200.959 80.3529 201.581C78.8618 202.171 77.2465 202.466 75.507 202.466ZM75.507 198.971C76.7185 198.971 77.8367 198.769 78.8618 198.366C79.8869 197.931 80.7722 197.341 81.5177 196.595C82.2632 195.818 82.8379 194.902 83.2417 193.846C83.6766 192.79 83.8941 191.625 83.8941 190.351C83.8941 189.078 83.6766 187.913 83.2417 186.857C82.8379 185.801 82.2632 184.9 81.5177 184.154C80.7722 183.378 79.8869 182.787 78.8618 182.384C77.8367 181.949 76.7185 181.731 75.507 181.731C74.2955 181.731 73.1773 181.949 72.1522 182.384C71.1271 182.787 70.2418 183.378 69.4963 184.154C68.7508 184.9 68.1606 185.801 67.7257 186.857C67.3219 187.913 67.12 189.078 67.12 190.351C67.12 191.625 67.3219 192.79 67.7257 193.846C68.1606 194.902 68.7508 195.818 69.4963 196.595C70.2418 197.341 71.1271 197.931 72.1522 198.366C73.1773 198.769 74.2955 198.971 75.507 198.971ZM96.4564 178.703H100.184V188.255H113.23V178.703H116.958V202H113.23V191.749H100.184V202H96.4564V178.703ZM127.213 178.703H130.94V182.43H130.987C130.987 182.43 131.126 182.213 131.406 181.778C131.717 181.312 132.198 180.83 132.85 180.333C133.534 179.805 134.404 179.324 135.46 178.889C136.516 178.454 137.805 178.237 139.327 178.237C140.849 178.237 142.278 178.547 143.614 179.169C144.981 179.759 146.177 180.598 147.202 181.685C148.227 182.741 149.034 184.014 149.625 185.505C150.215 186.997 150.51 188.612 150.51 190.351C150.51 192.091 150.215 193.706 149.625 195.197C149.034 196.688 148.227 197.977 147.202 199.065C146.177 200.121 144.981 200.959 143.614 201.581C142.278 202.171 140.849 202.466 139.327 202.466C137.805 202.466 136.516 202.249 135.46 201.814C134.404 201.379 133.534 200.913 132.85 200.416C132.198 199.888 131.717 199.406 131.406 198.971C131.126 198.505 130.987 198.272 130.987 198.272H130.94V210.853H127.213V178.703ZM138.861 198.971C139.979 198.971 141.02 198.769 141.983 198.366C142.946 197.931 143.785 197.341 144.499 196.595C145.214 195.818 145.773 194.902 146.177 193.846C146.58 192.79 146.782 191.625 146.782 190.351C146.782 189.078 146.58 187.913 146.177 186.857C145.773 185.801 145.214 184.9 144.499 184.154C143.785 183.378 142.946 182.787 141.983 182.384C141.02 181.949 139.979 181.731 138.861 181.731C137.743 181.731 136.702 181.949 135.739 182.384C134.776 182.787 133.938 183.378 133.223 184.154C132.509 184.9 131.95 185.801 131.546 186.857C131.142 187.913 130.94 189.078 130.94 190.351C130.94 191.625 131.142 192.79 131.546 193.846C131.95 194.902 132.509 195.818 133.223 196.595C133.938 197.341 134.776 197.931 135.739 198.366C136.702 198.769 137.743 198.971 138.861 198.971ZM169.164 202.466C167.642 202.466 166.198 202.171 164.831 201.581C163.495 200.959 162.315 200.121 161.29 199.065C160.265 197.977 159.457 196.688 158.867 195.197C158.276 193.706 157.981 192.091 157.981 190.351C157.981 188.612 158.276 186.997 158.867 185.505C159.457 184.014 160.265 182.741 161.29 181.685C162.315 180.598 163.495 179.759 164.831 179.169C166.198 178.547 167.642 178.237 169.164 178.237C170.686 178.237 171.975 178.454 173.031 178.889C174.088 179.324 174.942 179.805 175.594 180.333C176.278 180.862 176.759 181.359 177.039 181.825C177.349 182.259 177.505 182.477 177.505 182.477H177.551V178.703H181.279V202H177.551V198.272H177.505C177.505 198.272 177.349 198.505 177.039 198.971C176.759 199.406 176.278 199.888 175.594 200.416C174.942 200.913 174.088 201.379 173.031 201.814C171.975 202.249 170.686 202.466 169.164 202.466ZM169.63 198.971C170.748 198.971 171.789 198.769 172.752 198.366C173.715 197.931 174.554 197.341 175.268 196.595C175.982 195.818 176.542 194.902 176.945 193.846C177.349 192.79 177.551 191.625 177.551 190.351C177.551 189.078 177.349 187.913 176.945 186.857C176.542 185.801 175.982 184.9 175.268 184.154C174.554 183.378 173.715 182.787 172.752 182.384C171.789 181.949 170.748 181.731 169.63 181.731C168.512 181.731 167.471 181.949 166.508 182.384C165.545 182.787 164.707 183.378 163.992 184.154C163.278 184.9 162.719 185.801 162.315 186.857C161.911 187.913 161.709 189.078 161.709 190.351C161.709 191.625 161.911 192.79 162.315 193.846C162.719 194.902 163.278 195.818 163.992 196.595C164.707 197.341 165.545 197.931 166.508 198.366C167.471 198.769 168.512 198.971 169.63 198.971ZM191.546 178.703H202.962C205.198 178.703 206.922 179.262 208.134 180.38C209.345 181.498 209.951 182.881 209.951 184.527C209.951 185.583 209.78 186.437 209.438 187.09C209.128 187.742 208.755 188.255 208.32 188.627C207.916 189 207.528 189.264 207.155 189.419C206.782 189.544 206.549 189.606 206.456 189.606V189.652C206.518 189.652 206.782 189.73 207.248 189.885C207.714 190.01 208.211 190.274 208.739 190.677C209.299 191.081 209.796 191.656 210.23 192.401C210.665 193.116 210.883 194.063 210.883 195.244C210.883 197.232 210.199 198.863 208.833 200.136C207.497 201.379 205.555 202 203.008 202H191.546V178.703ZM202.962 198.505C204.359 198.505 205.4 198.195 206.083 197.574C206.798 196.921 207.155 196.067 207.155 195.011C207.155 193.955 206.798 193.116 206.083 192.495C205.4 191.842 204.359 191.516 202.962 191.516H195.274V198.505H202.962ZM202.729 188.255C203.909 188.255 204.779 187.991 205.338 187.462C205.928 186.903 206.223 186.158 206.223 185.226C206.223 184.294 205.928 183.564 205.338 183.036C204.779 182.477 203.909 182.197 202.729 182.197H195.274V188.255H202.729ZM219.754 178.703H223.481V196.176L223.435 196.642H223.528L236.062 178.703H240.256V202H236.528V184.527L236.575 184.061H236.481L223.947 202H219.754V178.703ZM254.238 178.703H264.022L270.546 202H266.585L261.227 182.197H257.033L251.675 202H247.714L254.238 178.703ZM288.707 202.466C286.967 202.466 285.352 202.171 283.861 201.581C282.37 200.959 281.081 200.121 279.994 199.065C278.937 197.977 278.099 196.688 277.477 195.197C276.887 193.706 276.592 192.091 276.592 190.351C276.592 188.612 276.887 186.997 277.477 185.505C278.099 184.014 278.937 182.741 279.994 181.685C281.081 180.598 282.37 179.759 283.861 179.169C285.352 178.547 286.967 178.237 288.707 178.237C290.446 178.237 292.062 178.547 293.553 179.169C295.044 179.759 296.317 180.598 297.373 181.685C298.461 182.741 299.299 184.014 299.889 185.505C300.511 186.997 300.821 188.612 300.821 190.351C300.821 192.091 300.511 193.706 299.889 195.197C299.299 196.688 298.461 197.977 297.373 199.065C296.317 200.121 295.044 200.959 293.553 201.581C292.062 202.171 290.446 202.466 288.707 202.466ZM288.707 198.971C289.918 198.971 291.036 198.769 292.062 198.366C293.087 197.931 293.972 197.341 294.717 196.595C295.463 195.818 296.038 194.902 296.441 193.846C296.876 192.79 297.094 191.625 297.094 190.351C297.094 189.078 296.876 187.913 296.441 186.857C296.038 185.801 295.463 184.9 294.717 184.154C293.972 183.378 293.087 182.787 292.062 182.384C291.036 181.949 289.918 181.731 288.707 181.731C287.495 181.731 286.377 181.949 285.352 182.384C284.327 182.787 283.442 183.378 282.696 184.154C281.951 184.9 281.36 185.801 280.925 186.857C280.522 187.913 280.32 189.078 280.32 190.351C280.32 191.625 280.522 192.79 280.925 193.846C281.36 194.902 281.951 195.818 282.696 196.595C283.442 197.341 284.327 197.931 285.352 198.366C286.377 198.769 287.495 198.971 288.707 198.971ZM319.907 202.466C318.261 202.466 316.723 202.171 315.294 201.581C313.896 200.959 312.669 200.121 311.613 199.065C310.588 197.977 309.765 196.688 309.144 195.197C308.553 193.706 308.258 192.091 308.258 190.351C308.258 188.612 308.553 186.997 309.144 185.505C309.765 184.014 310.588 182.741 311.613 181.685C312.669 180.598 313.896 179.759 315.294 179.169C316.723 178.547 318.261 178.237 319.907 178.237C321.056 178.237 322.097 178.361 323.029 178.609C323.992 178.827 324.846 179.138 325.592 179.541C326.337 179.914 326.989 180.349 327.549 180.846C328.108 181.343 328.589 181.84 328.993 182.337C329.956 183.549 330.655 184.9 331.09 186.391H327.362C326.989 185.521 326.477 184.744 325.825 184.061C325.265 183.471 324.504 182.943 323.541 182.477C322.578 181.98 321.367 181.731 319.907 181.731C318.789 181.731 317.748 181.949 316.785 182.384C315.822 182.787 314.983 183.378 314.269 184.154C313.555 184.9 312.995 185.801 312.592 186.857C312.188 187.913 311.986 189.078 311.986 190.351C311.986 191.656 312.203 192.836 312.638 193.893C313.073 194.949 313.648 195.85 314.362 196.595C315.077 197.341 315.915 197.931 316.878 198.366C317.841 198.769 318.851 198.971 319.907 198.971C321.429 198.971 322.672 198.707 323.635 198.179C324.629 197.651 325.421 197.061 326.011 196.409C326.694 195.663 327.222 194.809 327.595 193.846H331.323C330.888 195.492 330.173 196.937 329.179 198.179C328.744 198.707 328.247 199.235 327.688 199.763C327.129 200.26 326.461 200.711 325.685 201.115C324.939 201.519 324.085 201.845 323.122 202.093C322.159 202.342 321.087 202.466 319.907 202.466ZM339.73 178.703H343.457V186.624H349.981C351.316 186.624 352.528 186.826 353.615 187.229C354.702 187.633 355.634 188.192 356.411 188.907C357.187 189.59 357.777 190.398 358.181 191.33C358.616 192.262 358.834 193.256 358.834 194.312C358.834 195.368 358.616 196.362 358.181 197.294C357.777 198.226 357.187 199.049 356.411 199.763C355.634 200.447 354.702 200.99 353.615 201.394C352.528 201.798 351.316 202 349.981 202H339.73V178.703ZM349.981 198.505C351.627 198.505 352.885 198.102 353.755 197.294C354.656 196.486 355.106 195.492 355.106 194.312C355.106 193.131 354.656 192.137 353.755 191.33C352.885 190.522 351.627 190.118 349.981 190.118H343.457V198.505H349.981ZM383.769 178.703H395.185C397.421 178.703 399.145 179.262 400.357 180.38C401.568 181.498 402.174 182.881 402.174 184.527C402.174 185.583 402.003 186.437 401.661 187.09C401.351 187.742 400.978 188.255 400.543 188.627C400.139 189 399.751 189.264 399.378 189.419C399.005 189.544 398.772 189.606 398.679 189.606V189.652C398.741 189.652 399.005 189.73 399.471 189.885C399.937 190.01 400.434 190.274 400.962 190.677C401.522 191.081 402.019 191.656 402.453 192.401C402.888 193.116 403.106 194.063 403.106 195.244C403.106 197.232 402.422 198.863 401.056 200.136C399.72 201.379 397.778 202 395.231 202H383.769V178.703ZM395.185 198.505C396.583 198.505 397.623 198.195 398.307 197.574C399.021 196.921 399.378 196.067 399.378 195.011C399.378 193.955 399.021 193.116 398.307 192.495C397.623 191.842 396.583 191.516 395.185 191.516H387.497V198.505H395.185ZM394.952 188.255C396.132 188.255 397.002 187.991 397.561 187.462C398.151 186.903 398.446 186.158 398.446 185.226C398.446 184.294 398.151 183.564 397.561 183.036C397.002 182.477 396.132 182.197 394.952 182.197H387.497V188.255H394.952ZM422.228 202.466C420.581 202.466 419.044 202.171 417.615 201.581C416.217 200.959 414.99 200.121 413.934 199.065C412.909 197.977 412.086 196.688 411.464 195.197C410.874 193.706 410.579 192.091 410.579 190.351C410.579 188.612 410.874 186.997 411.464 185.505C412.086 184.014 412.909 182.741 413.934 181.685C414.99 180.598 416.217 179.759 417.615 179.169C419.044 178.547 420.581 178.237 422.228 178.237C423.377 178.237 424.418 178.361 425.35 178.609C426.313 178.827 427.167 179.138 427.912 179.541C428.658 179.914 429.31 180.349 429.869 180.846C430.428 181.343 430.91 181.84 431.314 182.337C432.277 183.549 432.976 184.9 433.411 186.391H429.683C429.31 185.521 428.798 184.744 428.145 184.061C427.586 183.471 426.825 182.943 425.862 182.477C424.899 181.98 423.688 181.731 422.228 181.731C421.11 181.731 420.069 181.949 419.106 182.384C418.143 182.787 417.304 183.378 416.59 184.154C415.875 184.9 415.316 185.801 414.912 186.857C414.509 187.913 414.307 189.078 414.307 190.351C414.307 191.656 414.524 192.836 414.959 193.893C415.394 194.949 415.969 195.85 416.683 196.595C417.397 197.341 418.236 197.931 419.199 198.366C420.162 198.769 421.172 198.971 422.228 198.971C423.75 198.971 424.992 198.707 425.955 198.179C426.949 197.651 427.741 197.061 428.332 196.409C429.015 195.663 429.543 194.809 429.916 193.846H433.643C433.209 195.492 432.494 196.937 431.5 198.179C431.065 198.707 430.568 199.235 430.009 199.763C429.45 200.26 428.782 200.711 428.006 201.115C427.26 201.519 426.406 201.845 425.443 202.093C424.48 202.342 423.408 202.466 422.228 202.466ZM452.534 202.466C450.857 202.466 449.288 202.171 447.828 201.581C446.368 200.959 445.11 200.121 444.054 199.065C442.998 197.977 442.159 196.688 441.538 195.197C440.948 193.706 440.653 192.091 440.653 190.351C440.653 188.612 440.948 186.997 441.538 185.505C442.159 184.014 442.998 182.741 444.054 181.685C445.11 180.598 446.368 179.759 447.828 179.169C449.288 178.547 450.857 178.237 452.534 178.237C454.212 178.237 455.78 178.547 457.24 179.169C458.7 179.759 459.958 180.582 461.015 181.638C462.071 182.694 462.894 183.952 463.484 185.412C464.105 186.872 464.416 188.441 464.416 190.118V191.516H444.38C444.505 192.603 444.8 193.613 445.266 194.545C445.732 195.446 446.322 196.222 447.036 196.875C447.751 197.527 448.574 198.039 449.506 198.412C450.469 198.785 451.478 198.971 452.534 198.971C453.932 198.971 455.113 198.754 456.076 198.319C457.038 197.884 457.831 197.403 458.452 196.875C459.166 196.284 459.757 195.585 460.222 194.778H463.95C463.391 196.238 462.599 197.527 461.574 198.645C460.673 199.608 459.492 200.493 458.033 201.301C456.573 202.078 454.74 202.466 452.534 202.466ZM460.455 188.255C460.331 187.385 460.052 186.562 459.617 185.785C459.213 184.977 458.669 184.278 457.986 183.688C457.303 183.098 456.495 182.632 455.563 182.29C454.662 181.918 453.653 181.731 452.534 181.731C451.416 181.731 450.391 181.918 449.459 182.29C448.558 182.632 447.751 183.098 447.036 183.688C446.353 184.278 445.794 184.977 445.359 185.785C444.924 186.562 444.629 187.385 444.473 188.255H460.455ZM473.262 178.703H478.853L485.842 193.147H487.007L493.996 178.703H499.588V202H495.86V183.362L495.907 182.896H495.814L488.871 197.341H483.978L477.036 182.896H476.943L476.989 183.362V202H473.262V178.703ZM511.473 183.595C510.665 183.595 509.997 183.331 509.469 182.803C508.941 182.275 508.677 181.607 508.677 180.799C508.677 179.992 508.941 179.324 509.469 178.796C509.997 178.268 510.665 178.004 511.473 178.004C512.281 178.004 512.948 178.268 513.477 178.796C514.005 179.324 514.269 179.992 514.269 180.799C514.269 181.607 514.005 182.275 513.477 182.803C512.948 183.331 512.281 183.595 511.473 183.595ZM511.473 202.699C510.665 202.699 509.997 202.435 509.469 201.907C508.941 201.379 508.677 200.711 508.677 199.903C508.677 199.096 508.941 198.428 509.469 197.9C509.997 197.372 510.665 197.108 511.473 197.108C512.281 197.108 512.948 197.372 513.477 197.9C514.005 198.428 514.269 199.096 514.269 199.903C514.269 200.711 514.005 201.379 513.477 201.907C512.948 202.435 512.281 202.699 511.473 202.699ZM44.9784 265.466C43.2389 265.466 41.6236 265.171 40.1326 264.581C38.6415 263.959 37.3524 263.121 36.2652 262.065C35.2091 260.977 34.3703 259.688 33.7491 258.197C33.1589 256.706 32.8638 255.091 32.8638 253.351C32.8638 251.612 33.1589 249.997 33.7491 248.505C34.3703 247.014 35.2091 245.741 36.2652 244.685C37.3524 243.598 38.6415 242.759 40.1326 242.169C41.6236 241.547 43.2389 241.237 44.9784 241.237C46.7179 241.237 48.3332 241.547 49.8242 242.169C51.3153 242.759 52.5889 243.598 53.645 244.685C54.7322 245.741 55.5709 247.014 56.1611 248.505C56.7824 249.997 57.093 251.612 57.093 253.351C57.093 255.091 56.7824 256.706 56.1611 258.197C55.5709 259.688 54.7322 260.977 53.645 262.065C52.5889 263.121 51.3153 263.959 49.8242 264.581C48.3332 265.171 46.7179 265.466 44.9784 265.466ZM44.9784 261.971C46.1899 261.971 47.3081 261.769 48.3332 261.366C49.3583 260.931 50.2436 260.341 50.9891 259.595C51.7346 258.818 52.3093 257.902 52.7131 256.846C53.148 255.79 53.3654 254.625 53.3654 253.351C53.3654 252.078 53.148 250.913 52.7131 249.857C52.3093 248.801 51.7346 247.9 50.9891 247.154C50.2436 246.378 49.3583 245.787 48.3332 245.384C47.3081 244.949 46.1899 244.731 44.9784 244.731C43.7669 244.731 42.6487 244.949 41.6236 245.384C40.5985 245.787 39.7132 246.378 38.9677 247.154C38.2222 247.9 37.632 248.801 37.1971 249.857C36.7933 250.913 36.5914 252.078 36.5914 253.351C36.5914 254.625 36.7933 255.79 37.1971 256.846C37.632 257.902 38.2222 258.818 38.9677 259.595C39.7132 260.341 40.5985 260.931 41.6236 261.366C42.6487 261.769 43.7669 261.971 44.9784 261.971ZM62.8991 261.505H65.4619L70.8202 241.703H80.6051L85.9635 261.505H88.5262V270.358H84.7986V265H66.6267V270.358H62.8991V261.505ZM82.2359 261.505L77.8094 245.197H73.6159L69.1894 261.505H82.2359ZM95.7284 241.703H99.4559V251.255H112.502V241.703H116.23V265H112.502V254.749H99.4559V265H95.7284V241.703ZM137.201 265.466C135.462 265.466 133.846 265.171 132.355 264.581C130.864 263.959 129.575 263.121 128.488 262.065C127.432 260.977 126.593 259.688 125.972 258.197C125.382 256.706 125.087 255.091 125.087 253.351C125.087 251.612 125.382 249.997 125.972 248.505C126.593 247.014 127.432 245.741 128.488 244.685C129.575 243.598 130.864 242.759 132.355 242.169C133.846 241.547 135.462 241.237 137.201 241.237C138.941 241.237 140.556 241.547 142.047 242.169C143.538 242.759 144.812 243.598 145.868 244.685C146.955 245.741 147.794 247.014 148.384 248.505C149.005 249.997 149.316 251.612 149.316 253.351C149.316 255.091 149.005 256.706 148.384 258.197C147.794 259.688 146.955 260.977 145.868 262.065C144.812 263.121 143.538 263.959 142.047 264.581C140.556 265.171 138.941 265.466 137.201 265.466ZM137.201 261.971C138.413 261.971 139.531 261.769 140.556 261.366C141.581 260.931 142.466 260.341 143.212 259.595C143.957 258.818 144.532 257.902 144.936 256.846C145.371 255.79 145.588 254.625 145.588 253.351C145.588 252.078 145.371 250.913 144.936 249.857C144.532 248.801 143.957 247.9 143.212 247.154C142.466 246.378 141.581 245.787 140.556 245.384C139.531 244.949 138.413 244.731 137.201 244.731C135.99 244.731 134.872 244.949 133.846 245.384C132.821 245.787 131.936 246.378 131.191 247.154C130.445 247.9 129.855 248.801 129.42 249.857C129.016 250.913 128.814 252.078 128.814 253.351C128.814 254.625 129.016 255.79 129.42 256.846C129.855 257.902 130.445 258.818 131.191 259.595C131.936 260.341 132.821 260.931 133.846 261.366C134.872 261.769 135.99 261.971 137.201 261.971ZM158.151 241.703H169.566C171.803 241.703 173.527 242.262 174.738 243.38C175.95 244.498 176.556 245.881 176.556 247.527C176.556 248.583 176.385 249.437 176.043 250.09C175.732 250.742 175.36 251.255 174.925 251.627C174.521 252 174.133 252.264 173.76 252.419C173.387 252.544 173.154 252.606 173.061 252.606V252.652C173.123 252.652 173.387 252.73 173.853 252.885C174.319 253.01 174.816 253.274 175.344 253.677C175.903 254.081 176.4 254.656 176.835 255.401C177.27 256.116 177.487 257.063 177.487 258.244C177.487 260.232 176.804 261.863 175.437 263.136C174.102 264.379 172.16 265 169.613 265H158.151V241.703ZM169.566 261.505C170.964 261.505 172.005 261.195 172.688 260.574C173.403 259.921 173.76 259.067 173.76 258.011C173.76 256.955 173.403 256.116 172.688 255.495C172.005 254.842 170.964 254.516 169.566 254.516H161.878V261.505H169.566ZM169.333 251.255C170.514 251.255 171.384 250.991 171.943 250.462C172.533 249.903 172.828 249.158 172.828 248.226C172.828 247.294 172.533 246.564 171.943 246.036C171.384 245.477 170.514 245.197 169.333 245.197H161.878V251.255H169.333ZM186.359 241.703H190.086V245.43H190.133C190.133 245.43 190.273 245.213 190.552 244.778C190.863 244.312 191.344 243.83 191.997 243.333C192.68 242.805 193.55 242.324 194.606 241.889C195.662 241.454 196.951 241.237 198.473 241.237C199.995 241.237 201.424 241.547 202.76 242.169C204.127 242.759 205.323 243.598 206.348 244.685C207.373 245.741 208.18 247.014 208.771 248.505C209.361 249.997 209.656 251.612 209.656 253.351C209.656 255.091 209.361 256.706 208.771 258.197C208.18 259.688 207.373 260.977 206.348 262.065C205.323 263.121 204.127 263.959 202.76 264.581C201.424 265.171 199.995 265.466 198.473 265.466C196.951 265.466 195.662 265.249 194.606 264.814C193.55 264.379 192.68 263.913 191.997 263.416C191.344 262.888 190.863 262.406 190.552 261.971C190.273 261.505 190.133 261.272 190.133 261.272H190.086V273.853H186.359V241.703ZM198.007 261.971C199.126 261.971 200.166 261.769 201.129 261.366C202.092 260.931 202.931 260.341 203.645 259.595C204.36 258.818 204.919 257.902 205.323 256.846C205.726 255.79 205.928 254.625 205.928 253.351C205.928 252.078 205.726 250.913 205.323 249.857C204.919 248.801 204.36 247.9 203.645 247.154C202.931 246.378 202.092 245.787 201.129 245.384C200.166 244.949 199.126 244.731 198.007 244.731C196.889 244.731 195.848 244.949 194.885 245.384C193.923 245.787 193.084 246.378 192.369 247.154C191.655 247.9 191.096 248.801 190.692 249.857C190.288 250.913 190.086 252.078 190.086 253.351C190.086 254.625 190.288 255.79 190.692 256.846C191.096 257.902 191.655 258.818 192.369 259.595C193.084 260.341 193.923 260.931 194.885 261.366C195.848 261.769 196.889 261.971 198.007 261.971ZM229.009 265.466C227.332 265.466 225.763 265.171 224.303 264.581C222.843 263.959 221.585 263.121 220.529 262.065C219.473 260.977 218.634 259.688 218.013 258.197C217.423 256.706 217.128 255.091 217.128 253.351C217.128 251.612 217.423 249.997 218.013 248.505C218.634 247.014 219.473 245.741 220.529 244.685C221.585 243.598 222.843 242.759 224.303 242.169C225.763 241.547 227.332 241.237 229.009 241.237C230.687 241.237 232.255 241.547 233.715 242.169C235.175 242.759 236.433 243.582 237.489 244.638C238.546 245.694 239.369 246.952 239.959 248.412C240.58 249.872 240.891 251.441 240.891 253.118V254.516H220.855C220.979 255.603 221.274 256.613 221.74 257.545C222.206 258.446 222.797 259.222 223.511 259.875C224.225 260.527 225.049 261.039 225.98 261.412C226.943 261.785 227.953 261.971 229.009 261.971C230.407 261.971 231.587 261.754 232.55 261.319C233.513 260.884 234.305 260.403 234.927 259.875C235.641 259.284 236.231 258.585 236.697 257.778H240.425C239.866 259.238 239.074 260.527 238.049 261.645C237.148 262.608 235.967 263.493 234.507 264.301C233.047 265.078 231.215 265.466 229.009 265.466ZM236.93 251.255C236.806 250.385 236.526 249.562 236.092 248.785C235.688 247.977 235.144 247.278 234.461 246.688C233.777 246.098 232.97 245.632 232.038 245.29C231.137 244.918 230.127 244.731 229.009 244.731C227.891 244.731 226.866 244.918 225.934 245.29C225.033 245.632 224.225 246.098 223.511 246.688C222.828 247.278 222.268 247.977 221.834 248.785C221.399 249.562 221.104 250.385 220.948 251.255H236.93ZM249.736 241.703H255.328L262.317 256.147H263.482L270.471 241.703H276.062V265H272.335V246.362L272.382 245.896H272.288L265.346 260.341H260.453L253.511 245.896H253.417L253.464 246.362V265H249.736V241.703ZM296.801 265.466C295.123 265.466 293.555 265.171 292.095 264.581C290.635 263.959 289.377 263.121 288.321 262.065C287.264 260.977 286.426 259.688 285.804 258.197C285.214 256.706 284.919 255.091 284.919 253.351C284.919 251.612 285.214 249.997 285.804 248.505C286.426 247.014 287.264 245.741 288.321 244.685C289.377 243.598 290.635 242.759 292.095 242.169C293.555 241.547 295.123 241.237 296.801 241.237C298.478 241.237 300.047 241.547 301.507 242.169C302.967 242.759 304.225 243.582 305.281 244.638C306.337 245.694 307.16 246.952 307.751 248.412C308.372 249.872 308.682 251.441 308.682 253.118V254.516H288.647C288.771 255.603 289.066 256.613 289.532 257.545C289.998 258.446 290.588 259.222 291.303 259.875C292.017 260.527 292.84 261.039 293.772 261.412C294.735 261.785 295.745 261.971 296.801 261.971C298.199 261.971 299.379 261.754 300.342 261.319C301.305 260.884 302.097 260.403 302.718 259.875C303.433 259.284 304.023 258.585 304.489 257.778H308.216C307.657 259.238 306.865 260.527 305.84 261.645C304.939 262.608 303.759 263.493 302.299 264.301C300.839 265.078 299.006 265.466 296.801 265.466ZM304.722 251.255C304.598 250.385 304.318 249.562 303.883 248.785C303.479 247.977 302.936 247.278 302.252 246.688C301.569 246.098 300.761 245.632 299.829 245.29C298.929 244.918 297.919 244.731 296.801 244.731C295.682 244.731 294.657 244.918 293.726 245.29C292.825 245.632 292.017 246.098 291.303 246.688C290.619 247.278 290.06 247.977 289.625 248.785C289.19 249.562 288.895 250.385 288.74 251.255H304.722ZM317.528 241.703H321.256V251.255H334.302V241.703H338.03V265H334.302V254.749H321.256V265H317.528V241.703ZM348.284 241.703H352.012V251.255H365.058V241.703H368.786V265H365.058V254.749H352.012V265H348.284V241.703ZM389.757 265.466C388.018 265.466 386.402 265.171 384.911 264.581C383.42 263.959 382.131 263.121 381.044 262.065C379.988 260.977 379.149 259.688 378.528 258.197C377.938 256.706 377.643 255.091 377.643 253.351C377.643 251.612 377.938 249.997 378.528 248.505C379.149 247.014 379.988 245.741 381.044 244.685C382.131 243.598 383.42 242.759 384.911 242.169C386.402 241.547 388.018 241.237 389.757 241.237C391.497 241.237 393.112 241.547 394.603 242.169C396.094 242.759 397.368 243.598 398.424 244.685C399.511 245.741 400.35 247.014 400.94 248.505C401.561 249.997 401.872 251.612 401.872 253.351C401.872 255.091 401.561 256.706 400.94 258.197C400.35 259.688 399.511 260.977 398.424 262.065C397.368 263.121 396.094 263.959 394.603 264.581C393.112 265.171 391.497 265.466 389.757 265.466ZM389.757 261.971C390.969 261.971 392.087 261.769 393.112 261.366C394.137 260.931 395.022 260.341 395.768 259.595C396.513 258.818 397.088 257.902 397.492 256.846C397.927 255.79 398.144 254.625 398.144 253.351C398.144 252.078 397.927 250.913 397.492 249.857C397.088 248.801 396.513 247.9 395.768 247.154C395.022 246.378 394.137 245.787 393.112 245.384C392.087 244.949 390.969 244.731 389.757 244.731C388.546 244.731 387.427 244.949 386.402 245.384C385.377 245.787 384.492 246.378 383.746 247.154C383.001 247.9 382.411 248.801 381.976 249.857C381.572 250.913 381.37 252.078 381.37 253.351C381.37 254.625 381.572 255.79 381.976 256.846C382.411 257.902 383.001 258.818 383.746 259.595C384.492 260.341 385.377 260.931 386.402 261.366C387.427 261.769 388.546 261.971 389.757 261.971ZM427.493 241.703H431.221V259.176L431.174 259.642H431.268L443.801 241.703H447.995V265H444.267V247.527L444.314 247.061H444.221L431.687 265H427.493V241.703ZM485.52 265.233C483.781 265.109 482.165 264.72 480.674 264.068C479.183 263.416 477.894 262.562 476.807 261.505C475.751 260.418 474.912 259.191 474.291 257.824C473.701 256.427 473.405 254.936 473.405 253.351C473.405 251.767 473.701 250.292 474.291 248.925C474.912 247.527 475.751 246.3 476.807 245.244C477.894 244.157 479.183 243.287 480.674 242.635C482.165 241.982 483.781 241.594 485.52 241.47V232.384H489.248V241.47C490.987 241.594 492.602 241.982 494.094 242.635C495.585 243.287 496.858 244.157 497.914 245.244C499.001 246.3 499.84 247.527 500.43 248.925C501.052 250.292 501.362 251.767 501.362 253.351C501.362 254.936 501.052 256.427 500.43 257.824C499.84 259.191 499.001 260.418 497.914 261.505C496.858 262.562 495.585 263.416 494.094 264.068C492.602 264.72 490.987 265.109 489.248 265.233V273.853H485.52V265.233ZM485.52 244.964C484.309 245.026 483.19 245.275 482.165 245.71C481.14 246.145 480.255 246.735 479.509 247.48C478.764 248.226 478.174 249.111 477.739 250.136C477.335 251.13 477.133 252.202 477.133 253.351C477.133 254.532 477.335 255.619 477.739 256.613C478.174 257.607 478.764 258.477 479.509 259.222C480.255 259.968 481.14 260.558 482.165 260.993C483.19 261.428 484.309 261.676 485.52 261.738V244.964ZM489.248 261.738C490.459 261.676 491.577 261.428 492.602 260.993C493.628 260.558 494.513 259.968 495.258 259.222C496.004 258.477 496.579 257.607 496.982 256.613C497.417 255.619 497.635 254.532 497.635 253.351C497.635 252.202 497.417 251.13 496.982 250.136C496.579 249.111 496.004 248.226 495.258 247.48C494.513 246.735 493.628 246.145 492.602 245.71C491.577 245.275 490.459 245.026 489.248 244.964V261.738ZM509.979 241.703H513.706V259.176L513.66 259.642H513.753L526.287 241.703H530.48V265H526.753V247.527L526.799 247.061H526.706L514.172 265H509.979V241.703ZM548.656 265.466C547.475 265.466 546.435 265.357 545.534 265.14C544.633 264.922 543.826 264.643 543.111 264.301C542.428 263.928 541.822 263.509 541.294 263.043C540.797 262.577 540.378 262.111 540.036 261.645C539.228 260.527 538.685 259.238 538.405 257.778H542.133C542.319 258.585 542.676 259.284 543.204 259.875C543.639 260.403 544.276 260.884 545.115 261.319C545.984 261.754 547.165 261.971 548.656 261.971C550.644 261.971 552.104 261.583 553.036 260.806C553.999 260.03 554.48 259.176 554.48 258.244C554.48 257.312 554.045 256.504 553.176 255.821C552.306 255.106 550.877 254.749 548.889 254.749H546.093V251.255H548.889C550.753 251.255 552.073 250.944 552.849 250.323C553.626 249.701 554.014 248.925 554.014 247.993C554.014 247.185 553.579 246.44 552.71 245.756C551.871 245.073 550.52 244.731 548.656 244.731C547.413 244.731 546.419 244.918 545.674 245.29C544.928 245.663 544.338 246.067 543.903 246.502C543.406 247.03 543.049 247.605 542.832 248.226H539.104C539.384 246.921 539.927 245.756 540.735 244.731C541.076 244.296 541.48 243.877 541.946 243.473C542.412 243.038 542.971 242.666 543.624 242.355C544.276 242.013 545.006 241.749 545.814 241.563C546.652 241.345 547.6 241.237 548.656 241.237C550.178 241.237 551.498 241.423 552.616 241.796C553.766 242.138 554.713 242.603 555.459 243.194C556.235 243.784 556.81 244.483 557.183 245.29C557.555 246.067 557.742 246.89 557.742 247.76C557.742 248.754 557.555 249.577 557.183 250.229C556.81 250.882 556.375 251.41 555.878 251.814C555.412 252.186 554.962 252.451 554.527 252.606C554.123 252.761 553.874 252.854 553.781 252.885V252.932C553.843 252.932 554.107 253.01 554.573 253.165C555.039 253.32 555.536 253.615 556.064 254.05C556.624 254.454 557.121 255.013 557.555 255.728C557.99 256.442 558.208 257.358 558.208 258.477C558.208 259.409 558.006 260.294 557.602 261.133C557.198 261.971 556.592 262.717 555.785 263.369C554.977 264.022 553.983 264.534 552.803 264.907C551.622 265.28 550.24 265.466 548.656 265.466ZM567.077 241.703H570.805V259.176L570.758 259.642H570.851L583.385 241.703H587.579V265H583.851V247.527L583.898 247.061H583.805L571.271 265H567.077V241.703ZM612.744 256.38C612.247 256.722 611.672 257.032 611.02 257.312C610.46 257.56 609.746 257.778 608.876 257.964C608.038 258.151 607.075 258.244 605.987 258.244C603.161 258.244 600.971 257.514 599.418 256.054C597.895 254.563 597.134 252.575 597.134 250.09V241.703H600.862V249.857C600.862 251.379 601.312 252.575 602.213 253.445C603.114 254.314 604.45 254.749 606.22 254.749C607.276 254.749 608.208 254.672 609.016 254.516C609.824 254.361 610.507 254.175 611.066 253.957C611.718 253.709 612.278 253.429 612.744 253.118V241.703H616.471V265H612.744V256.38ZM637.208 265.466C635.53 265.466 633.961 265.171 632.502 264.581C631.042 263.959 629.784 263.121 628.727 262.065C627.671 260.977 626.833 259.688 626.211 258.197C625.621 256.706 625.326 255.091 625.326 253.351C625.326 251.612 625.621 249.997 626.211 248.505C626.833 247.014 627.671 245.741 628.727 244.685C629.784 243.598 631.042 242.759 632.502 242.169C633.961 241.547 635.53 241.237 637.208 241.237C638.885 241.237 640.454 241.547 641.914 242.169C643.374 242.759 644.632 243.582 645.688 244.638C646.744 245.694 647.567 246.952 648.157 248.412C648.779 249.872 649.089 251.441 649.089 253.118V254.516H629.054C629.178 255.603 629.473 256.613 629.939 257.545C630.405 258.446 630.995 259.222 631.709 259.875C632.424 260.527 633.247 261.039 634.179 261.412C635.142 261.785 636.151 261.971 637.208 261.971C638.605 261.971 639.786 261.754 640.749 261.319C641.712 260.884 642.504 260.403 643.125 259.875C643.84 259.284 644.43 258.585 644.896 257.778H648.623C648.064 259.238 647.272 260.527 646.247 261.645C645.346 262.608 644.166 263.493 642.706 264.301C641.246 265.078 639.413 265.466 637.208 265.466ZM645.129 251.255C645.004 250.385 644.725 249.562 644.29 248.785C643.886 247.977 643.343 247.278 642.659 246.688C641.976 246.098 641.168 245.632 640.236 245.29C639.335 244.918 638.326 244.731 637.208 244.731C636.089 244.731 635.064 244.918 634.132 245.29C633.232 245.632 632.424 246.098 631.709 246.688C631.026 247.278 630.467 247.977 630.032 248.785C629.597 249.562 629.302 250.385 629.147 251.255H645.129ZM668.186 265.466C666.539 265.466 665.002 265.171 663.573 264.581C662.175 263.959 660.948 263.121 659.892 262.065C658.867 260.977 658.044 259.688 657.422 258.197C656.832 256.706 656.537 255.091 656.537 253.351C656.537 251.612 656.832 249.997 657.422 248.505C658.044 247.014 658.867 245.741 659.892 244.685C660.948 243.598 662.175 242.759 663.573 242.169C665.002 241.547 666.539 241.237 668.186 241.237C669.335 241.237 670.376 241.361 671.308 241.609C672.271 241.827 673.125 242.138 673.87 242.541C674.616 242.914 675.268 243.349 675.827 243.846C676.386 244.343 676.868 244.84 677.272 245.337C678.235 246.549 678.934 247.9 679.368 249.391H675.641C675.268 248.521 674.756 247.744 674.103 247.061C673.544 246.471 672.783 245.943 671.82 245.477C670.857 244.98 669.646 244.731 668.186 244.731C667.067 244.731 666.027 244.949 665.064 245.384C664.101 245.787 663.262 246.378 662.548 247.154C661.833 247.9 661.274 248.801 660.87 249.857C660.467 250.913 660.265 252.078 660.265 253.351C660.265 254.656 660.482 255.836 660.917 256.893C661.352 257.949 661.927 258.85 662.641 259.595C663.355 260.341 664.194 260.931 665.157 261.366C666.12 261.769 667.13 261.971 668.186 261.971C669.708 261.971 670.95 261.707 671.913 261.179C672.907 260.651 673.699 260.061 674.29 259.409C674.973 258.663 675.501 257.809 675.874 256.846H679.601C679.167 258.492 678.452 259.937 677.458 261.179C677.023 261.707 676.526 262.235 675.967 262.763C675.408 263.26 674.74 263.711 673.963 264.115C673.218 264.519 672.364 264.845 671.401 265.093C670.438 265.342 669.366 265.466 668.186 265.466ZM688.009 241.703H691.736V251.022H696.396L703.851 241.703H708.277L699.657 252.652L708.976 265H704.317L696.396 254.516H691.736V265H688.009V241.703ZM725.091 265.466C723.569 265.466 722.125 265.171 720.758 264.581C719.422 263.959 718.242 263.121 717.217 262.065C716.192 260.977 715.384 259.688 714.794 258.197C714.204 256.706 713.909 255.091 713.909 253.351C713.909 251.612 714.204 249.997 714.794 248.505C715.384 247.014 716.192 245.741 717.217 244.685C718.242 243.598 719.422 242.759 720.758 242.169C722.125 241.547 723.569 241.237 725.091 241.237C726.613 241.237 727.903 241.454 728.959 241.889C730.015 242.324 730.869 242.805 731.521 243.333C732.205 243.862 732.686 244.359 732.966 244.825C733.276 245.259 733.432 245.477 733.432 245.477H733.478V241.703H737.206V265H733.478V261.272H733.432C733.432 261.272 733.276 261.505 732.966 261.971C732.686 262.406 732.205 262.888 731.521 263.416C730.869 263.913 730.015 264.379 728.959 264.814C727.903 265.249 726.613 265.466 725.091 265.466ZM725.557 261.971C726.676 261.971 727.716 261.769 728.679 261.366C729.642 260.931 730.481 260.341 731.195 259.595C731.91 258.818 732.469 257.902 732.873 256.846C733.276 255.79 733.478 254.625 733.478 253.351C733.478 252.078 733.276 250.913 732.873 249.857C732.469 248.801 731.91 247.9 731.195 247.154C730.481 246.378 729.642 245.787 728.679 245.384C727.716 244.949 726.676 244.731 725.557 244.731C724.439 244.731 723.398 244.949 722.435 245.384C721.472 245.787 720.634 246.378 719.919 247.154C719.205 247.9 718.646 248.801 718.242 249.857C717.838 250.913 717.636 252.078 717.636 253.351C717.636 254.625 717.838 255.79 718.242 256.846C718.646 257.902 719.205 258.818 719.919 259.595C720.634 260.341 721.472 260.931 722.435 261.366C723.398 261.769 724.439 261.971 725.557 261.971ZM751.201 256.613C750.331 256.24 749.554 255.743 748.871 255.122C748.281 254.594 747.737 253.895 747.24 253.025C746.774 252.124 746.541 250.991 746.541 249.624C746.541 248.505 746.743 247.465 747.147 246.502C747.582 245.539 748.188 244.7 748.964 243.986C749.772 243.271 750.719 242.712 751.806 242.308C752.925 241.905 754.183 241.703 755.581 241.703H766.111V265H762.383V257.545H754.928L750.828 265H746.541L751.201 256.613ZM762.383 254.05V245.197H755.627C753.857 245.197 752.521 245.617 751.62 246.455C750.719 247.263 750.269 248.319 750.269 249.624C750.269 250.928 750.719 252 751.62 252.839C752.521 253.646 753.857 254.05 755.627 254.05H762.383ZM802.935 265.466C801.413 265.466 799.969 265.171 798.602 264.581C797.266 263.959 796.086 263.121 795.061 262.065C794.036 260.977 793.228 259.688 792.638 258.197C792.048 256.706 791.753 255.091 791.753 253.351C791.753 251.612 792.048 249.997 792.638 248.505C793.228 247.014 794.036 245.741 795.061 244.685C796.086 243.598 797.266 242.759 798.602 242.169C799.969 241.547 801.413 241.237 802.935 241.237C804.457 241.237 805.747 241.454 806.803 241.889C807.859 242.324 808.713 242.805 809.365 243.333C810.049 243.862 810.53 244.359 810.81 244.825C811.12 245.259 811.276 245.477 811.276 245.477H811.322V241.703H815.05V265H811.322V261.272H811.276C811.276 261.272 811.12 261.505 810.81 261.971C810.53 262.406 810.049 262.888 809.365 263.416C808.713 263.913 807.859 264.379 806.803 264.814C805.747 265.249 804.457 265.466 802.935 265.466ZM803.401 261.971C804.52 261.971 805.56 261.769 806.523 261.366C807.486 260.931 808.325 260.341 809.039 259.595C809.754 258.818 810.313 257.902 810.717 256.846C811.12 255.79 811.322 254.625 811.322 253.351C811.322 252.078 811.12 250.913 810.717 249.857C810.313 248.801 809.754 247.9 809.039 247.154C808.325 246.378 807.486 245.787 806.523 245.384C805.56 244.949 804.52 244.731 803.401 244.731C802.283 244.731 801.242 244.949 800.279 245.384C799.317 245.787 798.478 246.378 797.763 247.154C797.049 247.9 796.49 248.801 796.086 249.857C795.682 250.913 795.48 252.078 795.48 253.351C795.48 254.625 795.682 255.79 796.086 256.846C796.49 257.902 797.049 258.818 797.763 259.595C798.478 260.341 799.317 260.931 800.279 261.366C801.242 261.769 802.283 261.971 803.401 261.971ZM825.317 241.703H829.045V251.022H833.704L841.159 241.703H845.586L836.966 252.652L846.285 265H841.625L833.704 254.516H829.045V265H825.317V241.703ZM858.651 245.197H850.496V241.703H870.532V245.197H862.378V265H858.651V245.197ZM877.774 241.703H881.502V259.176L881.455 259.642H881.549L894.083 241.703H898.276V265H894.548V247.527L894.595 247.061H894.502L881.968 265H877.774V241.703ZM908.53 241.703H919.946C922.183 241.703 923.907 242.262 925.118 243.38C926.33 244.498 926.935 245.881 926.935 247.527C926.935 248.583 926.765 249.437 926.423 250.09C926.112 250.742 925.739 251.255 925.305 251.627C924.901 252 924.512 252.264 924.14 252.419C923.767 252.544 923.534 252.606 923.441 252.606V252.652C923.503 252.652 923.767 252.73 924.233 252.885C924.699 253.01 925.196 253.274 925.724 253.677C926.283 254.081 926.78 254.656 927.215 255.401C927.65 256.116 927.867 257.063 927.867 258.244C927.867 260.232 927.184 261.863 925.817 263.136C924.481 264.379 922.54 265 919.993 265H908.53V241.703ZM919.946 261.505C921.344 261.505 922.385 261.195 923.068 260.574C923.782 259.921 924.14 259.067 924.14 258.011C924.14 256.955 923.782 256.116 923.068 255.495C922.385 254.842 921.344 254.516 919.946 254.516H912.258V261.505H919.946ZM919.713 251.255C920.894 251.255 921.763 250.991 922.323 250.462C922.913 249.903 923.208 249.158 923.208 248.226C923.208 247.294 922.913 246.564 922.323 246.036C921.763 245.477 920.894 245.197 919.713 245.197H912.258V251.255H919.713ZM936.738 241.703H940.466V251.255H953.513V241.703H957.24V265H953.513V254.749H940.466V265H936.738V241.703ZM978.211 265.466C976.472 265.466 974.857 265.171 973.366 264.581C971.874 263.959 970.585 263.121 969.498 262.065C968.442 260.977 967.603 259.688 966.982 258.197C966.392 256.706 966.097 255.091 966.097 253.351C966.097 251.612 966.392 249.997 966.982 248.505C967.603 247.014 968.442 245.741 969.498 244.685C970.585 243.598 971.874 242.759 973.366 242.169C974.857 241.547 976.472 241.237 978.211 241.237C979.951 241.237 981.566 241.547 983.057 242.169C984.548 242.759 985.822 243.598 986.878 244.685C987.965 245.741 988.804 247.014 989.394 248.505C990.015 249.997 990.326 251.612 990.326 253.351C990.326 255.091 990.015 256.706 989.394 258.197C988.804 259.688 987.965 260.977 986.878 262.065C985.822 263.121 984.548 263.959 983.057 264.581C981.566 265.171 979.951 265.466 978.211 265.466ZM978.211 261.971C979.423 261.971 980.541 261.769 981.566 261.366C982.591 260.931 983.477 260.341 984.222 259.595C984.968 258.818 985.542 257.902 985.946 256.846C986.381 255.79 986.598 254.625 986.598 253.351C986.598 252.078 986.381 250.913 985.946 249.857C985.542 248.801 984.968 247.9 984.222 247.154C983.477 246.378 982.591 245.787 981.566 245.384C980.541 244.949 979.423 244.731 978.211 244.731C977 244.731 975.882 244.949 974.857 245.384C973.831 245.787 972.946 246.378 972.201 247.154C971.455 247.9 970.865 248.801 970.43 249.857C970.026 250.913 969.824 252.078 969.824 253.351C969.824 254.625 970.026 255.79 970.43 256.846C970.865 257.902 971.455 258.818 972.201 259.595C972.946 260.341 973.831 260.931 974.857 261.366C975.882 261.769 977 261.971 978.211 261.971ZM1009.41 265.466C1007.77 265.466 1006.23 265.171 1004.8 264.581C1003.4 263.959 1002.17 263.121 1001.12 262.065C1000.09 260.977 999.27 259.688 998.648 258.197C998.058 256.706 997.763 255.091 997.763 253.351C997.763 251.612 998.058 249.997 998.648 248.505C999.27 247.014 1000.09 245.741 1001.12 244.685C1002.17 243.598 1003.4 242.759 1004.8 242.169C1006.23 241.547 1007.77 241.237 1009.41 241.237C1010.56 241.237 1011.6 241.361 1012.53 241.609C1013.5 241.827 1014.35 242.138 1015.1 242.541C1015.84 242.914 1016.49 243.349 1017.05 243.846C1017.61 244.343 1018.09 244.84 1018.5 245.337C1019.46 246.549 1020.16 247.9 1020.59 249.391H1016.87C1016.49 248.521 1015.98 247.744 1015.33 247.061C1014.77 246.471 1014.01 245.943 1013.05 245.477C1012.08 244.98 1010.87 244.731 1009.41 244.731C1008.29 244.731 1007.25 244.949 1006.29 245.384C1005.33 245.787 1004.49 246.378 1003.77 247.154C1003.06 247.9 1002.5 248.801 1002.1 249.857C1001.69 250.913 1001.49 252.078 1001.49 253.351C1001.49 254.656 1001.71 255.836 1002.14 256.893C1002.58 257.949 1003.15 258.85 1003.87 259.595C1004.58 260.341 1005.42 260.931 1006.38 261.366C1007.35 261.769 1008.36 261.971 1009.41 261.971C1010.93 261.971 1012.18 261.707 1013.14 261.179C1014.13 260.651 1014.93 260.061 1015.52 259.409C1016.2 258.663 1016.73 257.809 1017.1 256.846H1020.83C1020.39 258.492 1019.68 259.937 1018.68 261.179C1018.25 261.707 1017.75 262.235 1017.19 262.763C1016.63 263.26 1015.97 263.711 1015.19 264.115C1014.44 264.519 1013.59 264.845 1012.63 265.093C1011.66 265.342 1010.59 265.466 1009.41 265.466ZM1034.36 245.197H1026.21V241.703H1046.24V245.197H1038.09V265H1034.36V245.197ZM1053.48 241.703H1057.21V249.624H1063.73C1065.07 249.624 1066.28 249.826 1067.37 250.229C1068.46 250.633 1069.39 251.192 1070.16 251.907C1070.94 252.59 1071.53 253.398 1071.94 254.33C1072.37 255.262 1072.59 256.256 1072.59 257.312C1072.59 258.368 1072.37 259.362 1071.94 260.294C1071.53 261.226 1070.94 262.049 1070.16 262.763C1069.39 263.447 1068.46 263.99 1067.37 264.394C1066.28 264.798 1065.07 265 1063.73 265H1053.48V241.703ZM1063.73 261.505C1065.38 261.505 1066.64 261.102 1067.51 260.294C1068.41 259.486 1068.86 258.492 1068.86 257.312C1068.86 256.131 1068.41 255.137 1067.51 254.33C1066.64 253.522 1065.38 253.118 1063.73 253.118H1057.21V261.505H1063.73ZM1079.8 268.961C1081.67 268.743 1082.6 267.734 1082.6 265.932V265.233C1082.54 265.295 1082.44 265.342 1082.32 265.373C1082.07 265.435 1081.85 265.466 1081.67 265.466C1081.08 265.466 1080.58 265.249 1080.18 264.814C1079.77 264.379 1079.57 263.789 1079.57 263.043C1079.57 262.142 1079.84 261.428 1080.36 260.9C1080.89 260.372 1081.56 260.108 1082.37 260.108C1083.17 260.108 1083.84 260.434 1084.37 261.086C1084.9 261.707 1085.16 262.779 1085.16 264.301C1085.16 266.413 1084.68 267.998 1083.72 269.054C1082.76 270.11 1081.45 270.7 1079.8 270.824V268.961ZM34.2616 299.703H37.9892V317.176L37.9426 317.642H38.0358L50.5698 299.703H54.7633V323H51.0357V305.527L51.0823 305.061H50.9891L38.4551 323H34.2616V299.703ZM78.7759 319.505H81.3386L86.697 299.703H96.4819L101.84 319.505H104.403V328.358H100.675V323H82.5035V328.358H78.7759V319.505ZM98.1127 319.505L93.6862 303.197H89.4927L85.0662 319.505H98.1127ZM115.333 299.703H125.118L131.641 323H127.68L122.322 303.197H118.128L112.77 323H108.809L115.333 299.703ZM142.813 314.613C141.943 314.24 141.166 313.743 140.483 313.122C139.893 312.594 139.349 311.895 138.852 311.025C138.386 310.124 138.153 308.991 138.153 307.624C138.153 306.505 138.355 305.465 138.759 304.502C139.194 303.539 139.8 302.7 140.576 301.986C141.384 301.271 142.331 300.712 143.418 300.308C144.537 299.905 145.795 299.703 147.193 299.703H157.723V323H153.995V315.545H146.54L142.44 323H138.153L142.813 314.613ZM153.995 312.05V303.197H147.239C145.469 303.197 144.133 303.617 143.232 304.455C142.331 305.263 141.881 306.319 141.881 307.624C141.881 308.928 142.331 310 143.232 310.839C144.133 311.646 145.469 312.05 147.239 312.05H153.995ZM184.762 299.703H190.354L197.343 314.147H198.508L205.497 299.703H211.088V323H207.361V304.362L207.407 303.896H207.314L200.372 318.341H195.479L188.537 303.896H188.443L188.49 304.362V323H184.762V299.703ZM232.06 323.466C230.32 323.466 228.705 323.171 227.214 322.581C225.723 321.959 224.434 321.121 223.346 320.065C222.29 318.977 221.452 317.688 220.83 316.197C220.24 314.706 219.945 313.091 219.945 311.351C219.945 309.612 220.24 307.997 220.83 306.505C221.452 305.014 222.29 303.741 223.346 302.685C224.434 301.598 225.723 300.759 227.214 300.169C228.705 299.547 230.32 299.237 232.06 299.237C233.799 299.237 235.414 299.547 236.905 300.169C238.397 300.759 239.67 301.598 240.726 302.685C241.813 303.741 242.652 305.014 243.242 306.505C243.864 307.997 244.174 309.612 244.174 311.351C244.174 313.091 243.864 314.706 243.242 316.197C242.652 317.688 241.813 318.977 240.726 320.065C239.67 321.121 238.397 321.959 236.905 322.581C235.414 323.171 233.799 323.466 232.06 323.466ZM232.06 319.971C233.271 319.971 234.389 319.769 235.414 319.366C236.44 318.931 237.325 318.341 238.07 317.595C238.816 316.818 239.391 315.902 239.794 314.846C240.229 313.79 240.447 312.625 240.447 311.351C240.447 310.078 240.229 308.913 239.794 307.857C239.391 306.801 238.816 305.9 238.07 305.154C237.325 304.378 236.44 303.787 235.414 303.384C234.389 302.949 233.271 302.731 232.06 302.731C230.848 302.731 229.73 302.949 228.705 303.384C227.68 303.787 226.794 304.378 226.049 305.154C225.303 305.9 224.713 306.801 224.278 307.857C223.875 308.913 223.673 310.078 223.673 311.351C223.673 312.625 223.875 313.79 224.278 314.846C224.713 315.902 225.303 316.818 226.049 317.595C226.794 318.341 227.68 318.931 228.705 319.366C229.73 319.769 230.848 319.971 232.06 319.971ZM260.93 323.466C259.75 323.466 258.709 323.357 257.808 323.14C256.907 322.922 256.1 322.643 255.385 322.301C254.702 321.928 254.096 321.509 253.568 321.043C253.071 320.577 252.652 320.111 252.31 319.645C251.502 318.527 250.959 317.238 250.679 315.778H254.407C254.593 316.585 254.95 317.284 255.479 317.875C255.913 318.403 256.55 318.884 257.389 319.319C258.259 319.754 259.439 319.971 260.93 319.971C262.918 319.971 264.378 319.583 265.31 318.806C266.273 318.03 266.754 317.176 266.754 316.244C266.754 315.312 266.32 314.504 265.45 313.821C264.58 313.106 263.151 312.749 261.163 312.749H258.367V309.255H261.163C263.027 309.255 264.347 308.944 265.124 308.323C265.9 307.701 266.289 306.925 266.289 305.993C266.289 305.185 265.854 304.44 264.984 303.756C264.145 303.073 262.794 302.731 260.93 302.731C259.688 302.731 258.694 302.918 257.948 303.29C257.203 303.663 256.612 304.067 256.177 304.502C255.68 305.03 255.323 305.605 255.106 306.226H251.378C251.658 304.921 252.201 303.756 253.009 302.731C253.351 302.296 253.755 301.877 254.22 301.473C254.686 301.038 255.246 300.666 255.898 300.355C256.55 300.013 257.28 299.749 258.088 299.563C258.927 299.345 259.874 299.237 260.93 299.237C262.452 299.237 263.772 299.423 264.891 299.796C266.04 300.138 266.987 300.603 267.733 301.194C268.51 301.784 269.084 302.483 269.457 303.29C269.83 304.067 270.016 304.89 270.016 305.76C270.016 306.754 269.83 307.577 269.457 308.229C269.084 308.882 268.649 309.41 268.152 309.814C267.686 310.186 267.236 310.451 266.801 310.606C266.397 310.761 266.149 310.854 266.056 310.885V310.932C266.118 310.932 266.382 311.01 266.848 311.165C267.314 311.32 267.811 311.615 268.339 312.05C268.898 312.454 269.395 313.013 269.83 313.728C270.265 314.442 270.482 315.358 270.482 316.477C270.482 317.409 270.28 318.294 269.876 319.133C269.472 319.971 268.867 320.717 268.059 321.369C267.251 322.022 266.257 322.534 265.077 322.907C263.897 323.28 262.514 323.466 260.93 323.466ZM279.351 299.703H295.427V303.197H283.079V323H279.351V299.703ZM312.657 323.466C311.135 323.466 309.691 323.171 308.324 322.581C306.988 321.959 305.808 321.121 304.783 320.065C303.758 318.977 302.95 317.688 302.36 316.197C301.77 314.706 301.475 313.091 301.475 311.351C301.475 309.612 301.77 307.997 302.36 306.505C302.95 305.014 303.758 303.741 304.783 302.685C305.808 301.598 306.988 300.759 308.324 300.169C309.691 299.547 311.135 299.237 312.657 299.237C314.18 299.237 315.469 299.454 316.525 299.889C317.581 300.324 318.435 300.805 319.088 301.333C319.771 301.862 320.252 302.359 320.532 302.825C320.843 303.259 320.998 303.477 320.998 303.477H321.045V299.703H324.772V323H321.045V319.272H320.998C320.998 319.272 320.843 319.505 320.532 319.971C320.252 320.406 319.771 320.888 319.088 321.416C318.435 321.913 317.581 322.379 316.525 322.814C315.469 323.249 314.18 323.466 312.657 323.466ZM313.123 319.971C314.242 319.971 315.282 319.769 316.245 319.366C317.208 318.931 318.047 318.341 318.761 317.595C319.476 316.818 320.035 315.902 320.439 314.846C320.843 313.79 321.045 312.625 321.045 311.351C321.045 310.078 320.843 308.913 320.439 307.857C320.035 306.801 319.476 305.9 318.761 305.154C318.047 304.378 317.208 303.787 316.245 303.384C315.282 302.949 314.242 302.731 313.123 302.731C312.005 302.731 310.965 302.949 310.002 303.384C309.039 303.787 308.2 304.378 307.485 305.154C306.771 305.9 306.212 306.801 305.808 307.857C305.404 308.913 305.202 310.078 305.202 311.351C305.202 312.625 305.404 313.79 305.808 314.846C306.212 315.902 306.771 316.818 307.485 317.595C308.2 318.341 309.039 318.931 310.002 319.366C310.965 319.769 312.005 319.971 313.123 319.971ZM351.826 299.703H355.554V303.43H355.6C355.6 303.43 355.74 303.213 356.02 302.778C356.33 302.312 356.812 301.83 357.464 301.333C358.147 300.805 359.017 300.324 360.073 299.889C361.13 299.454 362.419 299.237 363.941 299.237C365.463 299.237 366.892 299.547 368.227 300.169C369.594 300.759 370.79 301.598 371.815 302.685C372.84 303.741 373.648 305.014 374.238 306.505C374.828 307.997 375.123 309.612 375.123 311.351C375.123 313.091 374.828 314.706 374.238 316.197C373.648 317.688 372.84 318.977 371.815 320.065C370.79 321.121 369.594 321.959 368.227 322.581C366.892 323.171 365.463 323.466 363.941 323.466C362.419 323.466 361.13 323.249 360.073 322.814C359.017 322.379 358.147 321.913 357.464 321.416C356.812 320.888 356.33 320.406 356.02 319.971C355.74 319.505 355.6 319.272 355.6 319.272H355.554V331.853H351.826V299.703ZM363.475 319.971C364.593 319.971 365.634 319.769 366.597 319.366C367.56 318.931 368.398 318.341 369.113 317.595C369.827 316.818 370.386 315.902 370.79 314.846C371.194 313.79 371.396 312.625 371.396 311.351C371.396 310.078 371.194 308.913 370.79 307.857C370.386 306.801 369.827 305.9 369.113 305.154C368.398 304.378 367.56 303.787 366.597 303.384C365.634 302.949 364.593 302.731 363.475 302.731C362.357 302.731 361.316 302.949 360.353 303.384C359.39 303.787 358.551 304.378 357.837 305.154C357.122 305.9 356.563 306.801 356.159 307.857C355.756 308.913 355.554 310.078 355.554 311.351C355.554 312.625 355.756 313.79 356.159 314.846C356.563 315.902 357.122 316.818 357.837 317.595C358.551 318.341 359.39 318.931 360.353 319.366C361.316 319.769 362.357 319.971 363.475 319.971ZM393.778 323.466C392.256 323.466 390.811 323.171 389.444 322.581C388.109 321.959 386.928 321.121 385.903 320.065C384.878 318.977 384.071 317.688 383.48 316.197C382.89 314.706 382.595 313.091 382.595 311.351C382.595 309.612 382.89 307.997 383.48 306.505C384.071 305.014 384.878 303.741 385.903 302.685C386.928 301.598 388.109 300.759 389.444 300.169C390.811 299.547 392.256 299.237 393.778 299.237C395.3 299.237 396.589 299.454 397.645 299.889C398.701 300.324 399.555 300.805 400.208 301.333C400.891 301.862 401.373 302.359 401.652 302.825C401.963 303.259 402.118 303.477 402.118 303.477H402.165V299.703H405.892V323H402.165V319.272H402.118C402.118 319.272 401.963 319.505 401.652 319.971C401.373 320.406 400.891 320.888 400.208 321.416C399.555 321.913 398.701 322.379 397.645 322.814C396.589 323.249 395.3 323.466 393.778 323.466ZM394.244 319.971C395.362 319.971 396.403 319.769 397.366 319.366C398.328 318.931 399.167 318.341 399.882 317.595C400.596 316.818 401.155 315.902 401.559 314.846C401.963 313.79 402.165 312.625 402.165 311.351C402.165 310.078 401.963 308.913 401.559 307.857C401.155 306.801 400.596 305.9 399.882 305.154C399.167 304.378 398.328 303.787 397.366 303.384C396.403 302.949 395.362 302.731 394.244 302.731C393.125 302.731 392.085 302.949 391.122 303.384C390.159 303.787 389.32 304.378 388.606 305.154C387.891 305.9 387.332 306.801 386.928 307.857C386.525 308.913 386.323 310.078 386.323 311.351C386.323 312.625 386.525 313.79 386.928 314.846C387.332 315.902 387.891 316.818 388.606 317.595C389.32 318.341 390.159 318.931 391.122 319.366C392.085 319.769 393.125 319.971 394.244 319.971ZM424.081 323.466C422.9 323.466 421.86 323.357 420.959 323.14C420.058 322.922 419.25 322.643 418.536 322.301C417.852 321.928 417.247 321.509 416.719 321.043C416.222 320.577 415.802 320.111 415.461 319.645C414.653 318.527 414.109 317.238 413.83 315.778H417.557C417.744 316.585 418.101 317.284 418.629 317.875C419.064 318.403 419.701 318.884 420.539 319.319C421.409 319.754 422.59 319.971 424.081 319.971C426.069 319.971 427.529 319.583 428.461 318.806C429.423 318.03 429.905 317.176 429.905 316.244C429.905 315.312 429.47 314.504 428.6 313.821C427.731 313.106 426.302 312.749 424.314 312.749H421.518V309.255H424.314C426.177 309.255 427.498 308.944 428.274 308.323C429.051 307.701 429.439 306.925 429.439 305.993C429.439 305.185 429.004 304.44 428.134 303.756C427.296 303.073 425.944 302.731 424.081 302.731C422.838 302.731 421.844 302.918 421.099 303.29C420.353 303.663 419.763 304.067 419.328 304.502C418.831 305.03 418.474 305.605 418.256 306.226H414.529C414.808 304.921 415.352 303.756 416.16 302.731C416.501 302.296 416.905 301.877 417.371 301.473C417.837 301.038 418.396 300.666 419.048 300.355C419.701 300.013 420.431 299.749 421.238 299.563C422.077 299.345 423.024 299.237 424.081 299.237C425.603 299.237 426.923 299.423 428.041 299.796C429.191 300.138 430.138 300.603 430.883 301.194C431.66 301.784 432.235 302.483 432.607 303.29C432.98 304.067 433.167 304.89 433.167 305.76C433.167 306.754 432.98 307.577 432.607 308.229C432.235 308.882 431.8 309.41 431.303 309.814C430.837 310.186 430.386 310.451 429.952 310.606C429.548 310.761 429.299 310.854 429.206 310.885V310.932C429.268 310.932 429.532 311.01 429.998 311.165C430.464 311.32 430.961 311.615 431.489 312.05C432.048 312.454 432.545 313.013 432.98 313.728C433.415 314.442 433.633 315.358 433.633 316.477C433.633 317.409 433.431 318.294 433.027 319.133C432.623 319.971 432.017 320.717 431.21 321.369C430.402 322.022 429.408 322.534 428.228 322.907C427.047 323.28 425.665 323.466 424.081 323.466ZM442.502 299.703H448.093L455.082 314.147H456.247L463.237 299.703H468.828V323H465.1V304.362L465.147 303.896H465.054L458.111 318.341H453.219L446.276 303.896H446.183L446.229 304.362V323H442.502V299.703ZM479.082 299.703H482.81V317.176L482.763 317.642H482.857L495.391 299.703H499.584V323H495.856V305.527L495.903 305.061H495.81L483.276 323H479.082V299.703ZM509.839 299.703H513.566V309.255H526.613V299.703H530.34V323H526.613V312.749H513.566V323H509.839V299.703ZM540.595 299.703H544.322V309.022H548.982L556.437 299.703H560.863L552.243 310.652L561.562 323H556.903L548.982 312.516H544.322V323H540.595V299.703ZM577.677 323.466C576.155 323.466 574.711 323.171 573.344 322.581C572.008 321.959 570.828 321.121 569.803 320.065C568.778 318.977 567.97 317.688 567.38 316.197C566.79 314.706 566.495 313.091 566.495 311.351C566.495 309.612 566.79 307.997 567.38 306.505C567.97 305.014 568.778 303.741 569.803 302.685C570.828 301.598 572.008 300.759 573.344 300.169C574.711 299.547 576.155 299.237 577.677 299.237C579.2 299.237 580.489 299.454 581.545 299.889C582.601 300.324 583.455 300.805 584.107 301.333C584.791 301.862 585.272 302.359 585.552 302.825C585.863 303.259 586.018 303.477 586.018 303.477H586.064V299.703H589.792V323H586.064V319.272H586.018C586.018 319.272 585.863 319.505 585.552 319.971C585.272 320.406 584.791 320.888 584.107 321.416C583.455 321.913 582.601 322.379 581.545 322.814C580.489 323.249 579.2 323.466 577.677 323.466ZM578.143 319.971C579.262 319.971 580.302 319.769 581.265 319.366C582.228 318.931 583.067 318.341 583.781 317.595C584.496 316.818 585.055 315.902 585.459 314.846C585.863 313.79 586.064 312.625 586.064 311.351C586.064 310.078 585.863 308.913 585.459 307.857C585.055 306.801 584.496 305.9 583.781 305.154C583.067 304.378 582.228 303.787 581.265 303.384C580.302 302.949 579.262 302.731 578.143 302.731C577.025 302.731 575.984 302.949 575.022 303.384C574.059 303.787 573.22 304.378 572.505 305.154C571.791 305.9 571.232 306.801 570.828 307.857C570.424 308.913 570.222 310.078 570.222 311.351C570.222 312.625 570.424 313.79 570.828 314.846C571.232 315.902 571.791 316.818 572.505 317.595C573.22 318.341 574.059 318.931 575.022 319.366C575.984 319.769 577.025 319.971 578.143 319.971ZM614.516 328.358C616.194 326.929 617.7 325.268 619.036 323.373C619.595 322.565 620.154 321.68 620.713 320.717C621.273 319.723 621.754 318.651 622.158 317.502C622.593 316.321 622.934 315.063 623.183 313.728C623.462 312.392 623.602 310.979 623.602 309.488C623.602 307.997 623.462 306.599 623.183 305.294C622.934 303.958 622.593 302.716 622.158 301.566C621.754 300.386 621.273 299.299 620.713 298.305C620.154 297.311 619.595 296.41 619.036 295.602C617.7 293.707 616.194 292.046 614.516 290.617L616.38 287.821C618.461 289.374 620.325 291.238 621.971 293.412C622.655 294.344 623.338 295.385 624.022 296.534C624.705 297.652 625.295 298.879 625.792 300.215C626.32 301.551 626.74 302.995 627.05 304.549C627.392 306.102 627.563 307.748 627.563 309.488C627.563 311.227 627.392 312.873 627.05 314.427C626.74 315.98 626.32 317.424 625.792 318.76C625.295 320.096 624.705 321.338 624.022 322.487C623.338 323.606 622.655 324.631 621.971 325.563C620.325 327.737 618.461 329.601 616.38 331.154L614.516 328.358ZM655.072 290.384H668.817C670.681 290.384 672.358 290.663 673.85 291.222C675.341 291.751 676.614 292.496 677.67 293.459C678.726 294.422 679.534 295.556 680.093 296.86C680.652 298.165 680.932 299.578 680.932 301.101C680.932 302.623 680.652 304.036 680.093 305.341C679.534 306.645 678.726 307.779 677.67 308.742C676.614 309.705 675.341 310.466 673.85 311.025C672.358 311.553 670.681 311.817 668.817 311.817H659.265V323H655.072V290.384ZM668.817 307.857C671.396 307.857 673.353 307.235 674.688 305.993C676.055 304.719 676.738 303.089 676.738 301.101C676.738 299.112 676.055 297.497 674.688 296.255C673.353 294.981 671.396 294.344 668.817 294.344H659.265V307.857H668.817ZM699.35 323.466C697.672 323.466 696.103 323.171 694.643 322.581C693.184 321.959 691.925 321.121 690.869 320.065C689.813 318.977 688.974 317.688 688.353 316.197C687.763 314.706 687.468 313.091 687.468 311.351C687.468 309.612 687.763 307.997 688.353 306.505C688.974 305.014 689.813 303.741 690.869 302.685C691.925 301.598 693.184 300.759 694.643 300.169C696.103 299.547 697.672 299.237 699.35 299.237C701.027 299.237 702.596 299.547 704.056 300.169C705.516 300.759 706.774 301.582 707.83 302.638C708.886 303.694 709.709 304.952 710.299 306.412C710.921 307.872 711.231 309.441 711.231 311.118V312.516H691.195C691.32 313.603 691.615 314.613 692.081 315.545C692.547 316.446 693.137 317.222 693.851 317.875C694.566 318.527 695.389 319.039 696.321 319.412C697.284 319.785 698.293 319.971 699.35 319.971C700.747 319.971 701.928 319.754 702.891 319.319C703.854 318.884 704.646 318.403 705.267 317.875C705.982 317.284 706.572 316.585 707.038 315.778H710.765C710.206 317.238 709.414 318.527 708.389 319.645C707.488 320.608 706.308 321.493 704.848 322.301C703.388 323.078 701.555 323.466 699.35 323.466ZM707.271 309.255C707.146 308.385 706.867 307.562 706.432 306.785C706.028 305.977 705.485 305.278 704.801 304.688C704.118 304.098 703.31 303.632 702.378 303.29C701.477 302.918 700.468 302.731 699.35 302.731C698.231 302.731 697.206 302.918 696.274 303.29C695.373 303.632 694.566 304.098 693.851 304.688C693.168 305.278 692.609 305.977 692.174 306.785C691.739 307.562 691.444 308.385 691.289 309.255H707.271ZM720.077 299.703H723.805V309.022H728.464L735.919 299.703H740.346L731.726 310.652L741.045 323H736.385L728.464 312.516H723.805V323H720.077V299.703ZM758.092 323.466C756.352 323.466 754.737 323.171 753.246 322.581C751.755 321.959 750.466 321.121 749.378 320.065C748.322 318.977 747.484 317.688 746.862 316.197C746.272 314.706 745.977 313.091 745.977 311.351C745.977 309.612 746.272 307.997 746.862 306.505C747.484 305.014 748.322 303.741 749.378 302.685C750.466 301.598 751.755 300.759 753.246 300.169C754.737 299.547 756.352 299.237 758.092 299.237C759.831 299.237 761.446 299.547 762.937 300.169C764.428 300.759 765.702 301.598 766.758 302.685C767.845 303.741 768.684 305.014 769.274 306.505C769.896 307.997 770.206 309.612 770.206 311.351C770.206 313.091 769.896 314.706 769.274 316.197C768.684 317.688 767.845 318.977 766.758 320.065C765.702 321.121 764.428 321.959 762.937 322.581C761.446 323.171 759.831 323.466 758.092 323.466ZM758.092 319.971C759.303 319.971 760.421 319.769 761.446 319.366C762.472 318.931 763.357 318.341 764.102 317.595C764.848 316.818 765.423 315.902 765.826 314.846C766.261 313.79 766.479 312.625 766.479 311.351C766.479 310.078 766.261 308.913 765.826 307.857C765.423 306.801 764.848 305.9 764.102 305.154C763.357 304.378 762.472 303.787 761.446 303.384C760.421 302.949 759.303 302.731 758.092 302.731C756.88 302.731 755.762 302.949 754.737 303.384C753.712 303.787 752.826 304.378 752.081 305.154C751.335 305.9 750.745 306.801 750.31 307.857C749.906 308.913 749.705 310.078 749.705 311.351C749.705 312.625 749.906 313.79 750.31 314.846C750.745 315.902 751.335 316.818 752.081 317.595C752.826 318.341 753.712 318.931 754.737 319.366C755.762 319.769 756.88 319.971 758.092 319.971ZM779.041 299.703H784.632L791.622 314.147H792.786L799.776 299.703H805.367V323H801.639V304.362L801.686 303.896H801.593L794.65 318.341H789.758L782.815 303.896H782.722L782.769 304.362V323H779.041V299.703ZM826.105 323.466C824.428 323.466 822.859 323.171 821.399 322.581C819.939 321.959 818.681 321.121 817.625 320.065C816.569 318.977 815.73 317.688 815.109 316.197C814.519 314.706 814.224 313.091 814.224 311.351C814.224 309.612 814.519 307.997 815.109 306.505C815.73 305.014 816.569 303.741 817.625 302.685C818.681 301.598 819.939 300.759 821.399 300.169C822.859 299.547 824.428 299.237 826.105 299.237C827.783 299.237 829.351 299.547 830.811 300.169C832.271 300.759 833.529 301.582 834.586 302.638C835.642 303.694 836.465 304.952 837.055 306.412C837.676 307.872 837.987 309.441 837.987 311.118V312.516H817.951C818.075 313.603 818.371 314.613 818.837 315.545C819.302 316.446 819.893 317.222 820.607 317.875C821.322 318.527 822.145 319.039 823.077 319.412C824.04 319.785 825.049 319.971 826.105 319.971C827.503 319.971 828.684 319.754 829.646 319.319C830.609 318.884 831.402 318.403 832.023 317.875C832.737 317.284 833.327 316.585 833.793 315.778H837.521C836.962 317.238 836.17 318.527 835.145 319.645C834.244 320.608 833.063 321.493 831.603 322.301C830.143 323.078 828.311 323.466 826.105 323.466ZM834.026 309.255C833.902 308.385 833.623 307.562 833.188 306.785C832.784 305.977 832.24 305.278 831.557 304.688C830.873 304.098 830.066 303.632 829.134 303.29C828.233 302.918 827.224 302.731 826.105 302.731C824.987 302.731 823.962 302.918 823.03 303.29C822.129 303.632 821.322 304.098 820.607 304.688C819.924 305.278 819.365 305.977 818.93 306.785C818.495 307.562 818.2 308.385 818.044 309.255H834.026ZM846.833 299.703H850.56V309.255H863.607V299.703H867.334V323H863.607V312.749H850.56V323H846.833V299.703ZM874.56 319.505H877.123L882.481 299.703H892.266L897.624 319.505H900.187V328.358H896.46V323H878.288V328.358H874.56V319.505ZM893.897 319.505L889.47 303.197H885.277L880.85 319.505H893.897ZM916.026 323H910.667L904.377 299.703H908.338L913.463 319.505H916.958L923.015 299.703H926.975L917.191 331.853H913.23L916.026 323ZM953.063 323.466C951.541 323.466 950.128 323.202 948.823 322.674C947.518 322.146 946.353 321.416 945.328 320.484C944.303 319.552 943.449 318.449 942.766 317.176C942.082 315.902 941.632 314.504 941.414 312.982H937.687V323H933.959V299.703H937.687V309.488H941.414C941.694 307.965 942.175 306.583 942.859 305.341C943.542 304.067 944.381 302.98 945.375 302.079C946.4 301.178 947.549 300.479 948.823 299.982C950.128 299.485 951.541 299.237 953.063 299.237C954.678 299.237 956.2 299.547 957.629 300.169C959.058 300.759 960.285 301.598 961.31 302.685C962.366 303.741 963.19 305.014 963.78 306.505C964.401 307.997 964.712 309.612 964.712 311.351C964.712 313.091 964.401 314.706 963.78 316.197C963.19 317.688 962.366 318.977 961.31 320.065C960.285 321.121 959.058 321.959 957.629 322.581C956.2 323.171 954.678 323.466 953.063 323.466ZM953.063 319.971C954.181 319.971 955.222 319.769 956.185 319.366C957.148 318.931 957.987 318.341 958.701 317.595C959.415 316.818 959.975 315.902 960.378 314.846C960.782 313.79 960.984 312.625 960.984 311.351C960.984 310.078 960.782 308.913 960.378 307.857C959.975 306.801 959.415 305.9 958.701 305.154C957.987 304.378 957.148 303.787 956.185 303.384C955.222 302.949 954.181 302.731 953.063 302.731C951.945 302.731 950.904 302.949 949.941 303.384C948.978 303.787 948.14 304.378 947.425 305.154C946.711 305.9 946.151 306.801 945.748 307.857C945.344 308.913 945.142 310.078 945.142 311.351C945.142 312.625 945.344 313.79 945.748 314.846C946.151 315.902 946.711 316.818 947.425 317.595C948.14 318.341 948.978 318.931 949.941 319.366C950.904 319.769 951.945 319.971 953.063 319.971ZM31.233 445.039H34.9605L42.1827 416.384H54.5303L61.7525 445.039H65.4801V455.29H61.2865V449H35.4265V455.29H31.233V445.039ZM57.559 445.039L51.2687 420.344H45.4443L39.1541 445.039H57.559ZM82.4926 449.466C80.9705 449.466 79.526 449.171 78.1593 448.581C76.8236 447.959 75.6432 447.121 74.6181 446.065C73.593 444.977 72.7853 443.688 72.1951 442.197C71.605 440.706 71.3099 439.091 71.3099 437.351C71.3099 435.612 71.605 433.997 72.1951 432.505C72.7853 431.014 73.593 429.741 74.6181 428.685C75.6432 427.598 76.8236 426.759 78.1593 426.169C79.526 425.547 80.9705 425.237 82.4926 425.237C84.0147 425.237 85.3038 425.454 86.3599 425.889C87.4161 426.324 88.2703 426.805 88.9226 427.333C89.606 427.862 90.0875 428.359 90.3671 428.825C90.6777 429.259 90.833 429.477 90.833 429.477H90.8796V425.703H94.6072V449H90.8796V445.272H90.833C90.833 445.272 90.6777 445.505 90.3671 445.971C90.0875 446.406 89.606 446.888 88.9226 447.416C88.2703 447.913 87.4161 448.379 86.3599 448.814C85.3038 449.249 84.0147 449.466 82.4926 449.466ZM82.9585 445.971C84.0768 445.971 85.1174 445.769 86.0804 445.366C87.0433 444.931 87.882 444.341 88.5965 443.595C89.3109 442.818 89.8701 441.902 90.2739 440.846C90.6777 439.79 90.8796 438.625 90.8796 437.351C90.8796 436.078 90.6777 434.913 90.2739 433.857C89.8701 432.801 89.3109 431.9 88.5965 431.154C87.882 430.378 87.0433 429.787 86.0804 429.384C85.1174 428.949 84.0768 428.731 82.9585 428.731C81.8402 428.731 80.7996 428.949 79.8367 429.384C78.8737 429.787 78.035 430.378 77.3206 431.154C76.6061 431.9 76.047 432.801 75.6432 433.857C75.2393 434.913 75.0374 436.078 75.0374 437.351C75.0374 438.625 75.2393 439.79 75.6432 440.846C76.047 441.902 76.6061 442.818 77.3206 443.595C78.035 444.341 78.8737 444.931 79.8367 445.366C80.7996 445.769 81.8402 445.971 82.9585 445.971ZM104.874 425.703H108.602V429.43H108.649C108.649 429.43 108.788 429.213 109.068 428.778C109.379 428.312 109.86 427.83 110.512 427.333C111.196 426.805 112.066 426.324 113.122 425.889C114.178 425.454 115.467 425.237 116.989 425.237C118.511 425.237 119.94 425.547 121.276 426.169C122.642 426.759 123.838 427.598 124.864 428.685C125.889 429.741 126.696 431.014 127.286 432.505C127.877 433.997 128.172 435.612 128.172 437.351C128.172 439.091 127.877 440.706 127.286 442.197C126.696 443.688 125.889 444.977 124.864 446.065C123.838 447.121 122.642 447.959 121.276 448.581C119.94 449.171 118.511 449.466 116.989 449.466C115.467 449.466 114.178 449.249 113.122 448.814C112.066 448.379 111.196 447.913 110.512 447.416C109.86 446.888 109.379 446.406 109.068 445.971C108.788 445.505 108.649 445.272 108.649 445.272H108.602V457.853H104.874V425.703ZM116.523 445.971C117.641 445.971 118.682 445.769 119.645 445.366C120.608 444.931 121.447 444.341 122.161 443.595C122.875 442.818 123.435 441.902 123.838 440.846C124.242 439.79 124.444 438.625 124.444 437.351C124.444 436.078 124.242 434.913 123.838 433.857C123.435 432.801 122.875 431.9 122.161 431.154C121.447 430.378 120.608 429.787 119.645 429.384C118.682 428.949 117.641 428.731 116.523 428.731C115.405 428.731 114.364 428.949 113.401 429.384C112.438 429.787 111.6 430.378 110.885 431.154C110.171 431.9 109.612 432.801 109.208 433.857C108.804 434.913 108.602 436.078 108.602 437.351C108.602 438.625 108.804 439.79 109.208 440.846C109.612 441.902 110.171 442.818 110.885 443.595C111.6 444.341 112.438 444.931 113.401 445.366C114.364 445.769 115.405 445.971 116.523 445.971ZM137.041 425.703H140.769V433.624H147.292C148.628 433.624 149.839 433.826 150.926 434.229C152.014 434.633 152.945 435.192 153.722 435.907C154.499 436.59 155.089 437.398 155.493 438.33C155.927 439.262 156.145 440.256 156.145 441.312C156.145 442.368 155.927 443.362 155.493 444.294C155.089 445.226 154.499 446.049 153.722 446.763C152.945 447.447 152.014 447.99 150.926 448.394C149.839 448.798 148.628 449 147.292 449H137.041V425.703ZM147.292 445.505C148.938 445.505 150.196 445.102 151.066 444.294C151.967 443.486 152.417 442.492 152.417 441.312C152.417 440.131 151.967 439.137 151.066 438.33C150.196 437.522 148.938 437.118 147.292 437.118H140.769V445.505H147.292ZM168.021 440.613C167.151 440.24 166.375 439.743 165.691 439.122C165.101 438.594 164.558 437.895 164.061 437.025C163.595 436.124 163.362 434.991 163.362 433.624C163.362 432.505 163.564 431.465 163.967 430.502C164.402 429.539 165.008 428.7 165.785 427.986C166.592 427.271 167.54 426.712 168.627 426.308C169.745 425.905 171.003 425.703 172.401 425.703H182.931V449H179.204V441.545H171.749L167.648 449H163.362L168.021 440.613ZM179.204 438.05V429.197H172.448C170.677 429.197 169.341 429.617 168.44 430.455C167.54 431.263 167.089 432.319 167.089 433.624C167.089 434.928 167.54 436 168.44 436.839C169.341 437.646 170.677 438.05 172.448 438.05H179.204Z" fill="white"/>
<defs>
<filter id="filter0_b_2284_2" x="-30" y="-30" width="1198" height="557" filterUnits="userSpaceOnUse" color-interpolation-filters="sRGB">
<feFlood flood-opacity="0" result="BackgroundImageFix"/>
<feGaussianBlur in="BackgroundImageFix" stdDeviation="15"/>
<feComposite in2="SourceAlpha" operator="in" result="effect1_backgroundBlur_2284_2"/>
<feBlend mode="normal" in="SourceGraphic" in2="effect1_backgroundBlur_2284_2" result="shape"/>
</filter>
</defs>
</svg>
