<svg width="663" height="858" viewBox="0 0 663 858" fill="none" xmlns="http://www.w3.org/2000/svg">
<rect width="663" height="858" rx="53" fill="#FFD951"/>
<rect x="38" y="297" width="134" height="520" rx="62" fill="#FFF2C3"/>
<rect x="189" y="464" width="134" height="353" rx="62" fill="#FFF2C3"/>
<rect x="340" y="550" width="134" height="267" rx="62" fill="#FFF2C3"/>
<rect x="491" y="617" width="134" height="200" rx="62" fill="#FFF2C3"/>
<path d="M79.2 264.8H64.8V259.4L74.2 242H80.8L71.4 259.2H79.2V252.8H79.6H85.2V259.2H89V264.8H85.2V270H79.2V264.8ZM107.595 270.8C105.702 270.8 103.929 270.44 102.275 269.72C100.622 269 99.182 268 97.9553 266.72C96.7286 265.413 95.7553 263.853 95.0353 262.04C94.342 260.227 93.9953 258.213 93.9953 256C93.9953 253.813 94.342 251.813 95.0353 250C95.7553 248.16 96.7286 246.6 97.9553 245.32C99.182 244.013 100.622 243 102.275 242.28C103.929 241.56 105.702 241.2 107.595 241.2C109.489 241.2 111.262 241.56 112.915 242.28C114.569 243 116.009 244.013 117.235 245.32C118.462 246.6 119.422 248.16 120.115 250C120.835 251.813 121.195 253.813 121.195 256C121.195 258.213 120.835 260.227 120.115 262.04C119.422 263.853 118.462 265.413 117.235 266.72C116.009 268 114.569 269 112.915 269.72C111.262 270.44 109.489 270.8 107.595 270.8ZM107.595 265.2C108.635 265.2 109.595 265.013 110.475 264.64C111.355 264.267 112.115 263.707 112.755 262.96C113.395 262.187 113.889 261.227 114.235 260.08C114.609 258.907 114.795 257.547 114.795 256C114.795 254.453 114.609 253.107 114.235 251.96C113.889 250.787 113.395 249.827 112.755 249.08C112.115 248.307 111.355 247.733 110.475 247.36C109.595 246.987 108.635 246.8 107.595 246.8C106.555 246.8 105.595 246.987 104.715 247.36C103.835 247.733 103.075 248.307 102.435 249.08C101.795 249.827 101.289 250.787 100.915 251.96C100.569 253.107 100.395 254.453 100.395 256C100.395 257.547 100.569 258.907 100.915 260.08C101.289 261.227 101.795 262.187 102.435 262.96C103.075 263.707 103.835 264.267 104.715 264.64C105.595 265.013 106.555 265.2 107.595 265.2ZM147.986 242H152.586L135.786 270H131.186L147.986 242ZM149.586 270.4C148.626 270.4 147.733 270.227 146.906 269.88C146.079 269.533 145.359 269.053 144.746 268.44C144.133 267.827 143.653 267.107 143.306 266.28C142.959 265.453 142.786 264.56 142.786 263.6C142.786 262.64 142.959 261.747 143.306 260.92C143.653 260.093 144.133 259.373 144.746 258.76C145.359 258.147 146.079 257.667 146.906 257.32C147.733 256.973 148.626 256.8 149.586 256.8C150.546 256.8 151.439 256.973 152.266 257.32C153.093 257.667 153.813 258.147 154.426 258.76C155.039 259.373 155.519 260.093 155.866 260.92C156.213 261.747 156.386 262.64 156.386 263.6C156.386 264.56 156.213 265.453 155.866 266.28C155.519 267.107 155.039 267.827 154.426 268.44C153.813 269.053 153.093 269.533 152.266 269.88C151.439 270.227 150.546 270.4 149.586 270.4ZM149.586 266.4C150.386 266.4 151.053 266.133 151.586 265.6C152.119 265.067 152.386 264.4 152.386 263.6C152.386 262.8 152.119 262.133 151.586 261.6C151.053 261.067 150.386 260.8 149.586 260.8C148.786 260.8 148.119 261.067 147.586 261.6C147.053 262.133 146.786 262.8 146.786 263.6C146.786 264.4 147.053 265.067 147.586 265.6C148.119 266.133 148.786 266.4 149.586 266.4ZM134.186 255.2C133.226 255.2 132.333 255.027 131.506 254.68C130.679 254.333 129.959 253.853 129.346 253.24C128.733 252.627 128.253 251.907 127.906 251.08C127.559 250.253 127.386 249.36 127.386 248.4C127.386 247.44 127.559 246.547 127.906 245.72C128.253 244.893 128.733 244.173 129.346 243.56C129.959 242.947 130.679 242.467 131.506 242.12C132.333 241.773 133.226 241.6 134.186 241.6C135.146 241.6 136.039 241.773 136.866 242.12C137.693 242.467 138.413 242.947 139.026 243.56C139.639 244.173 140.119 244.893 140.466 245.72C140.813 246.547 140.986 247.44 140.986 248.4C140.986 249.36 140.813 250.253 140.466 251.08C140.119 251.907 139.639 252.627 139.026 253.24C138.413 253.853 137.693 254.333 136.866 254.68C136.039 255.027 135.146 255.2 134.186 255.2ZM134.186 251.2C134.986 251.2 135.653 250.933 136.186 250.4C136.719 249.867 136.986 249.2 136.986 248.4C136.986 247.6 136.719 246.933 136.186 246.4C135.653 245.867 134.986 245.6 134.186 245.6C133.386 245.6 132.719 245.867 132.186 246.4C131.653 246.933 131.386 247.6 131.386 248.4C131.386 249.2 131.653 249.867 132.186 250.4C132.719 250.933 133.386 251.2 134.186 251.2Z" fill="black"/>
<path d="M213.4 435.4L222.8 429.2C223.893 428.48 224.813 427.827 225.56 427.24C226.333 426.627 226.96 426.04 227.44 425.48C227.92 424.893 228.267 424.307 228.48 423.72C228.693 423.133 228.8 422.493 228.8 421.8C228.8 420.6 228.413 419.64 227.64 418.92C226.893 418.173 225.813 417.8 224.4 417.8C223.28 417.8 222.4 418.013 221.76 418.44C221.12 418.84 220.627 419.293 220.28 419.8C219.88 420.387 219.6 421.053 219.44 421.8H213.2C213.493 420.013 214.08 418.413 214.96 417C215.333 416.413 215.8 415.827 216.36 415.24C216.92 414.653 217.573 414.147 218.32 413.72C219.093 413.267 219.973 412.907 220.96 412.64C221.973 412.347 223.12 412.2 224.4 412.2C226.053 412.2 227.547 412.453 228.88 412.96C230.213 413.44 231.347 414.107 232.28 414.96C233.213 415.813 233.933 416.813 234.44 417.96C234.947 419.08 235.2 420.293 235.2 421.6C235.2 422.853 235.04 423.96 234.72 424.92C234.427 425.88 233.96 426.787 233.32 427.64C232.707 428.467 231.907 429.267 230.92 430.04C229.96 430.813 228.827 431.64 227.52 432.52L224.4 434.6L222.4 435.4V435.6L225 435.4H235.2V441H213.4V435.4ZM252.805 441.8C251.045 441.8 249.445 441.533 248.005 441C246.591 440.467 245.378 439.733 244.365 438.8C243.351 437.867 242.565 436.773 242.005 435.52C241.471 434.267 241.205 432.933 241.205 431.52C241.205 430.533 241.338 429.587 241.605 428.68C241.898 427.747 242.258 426.84 242.685 425.96C243.138 425.08 243.645 424.227 244.205 423.4C244.791 422.573 245.391 421.773 246.005 421L252.205 413H259.005L252.805 421L251.005 422.4V422.6C251.245 422.44 251.538 422.307 251.885 422.2C252.178 422.093 252.551 422 253.005 421.92C253.458 421.84 253.991 421.8 254.605 421.8C255.938 421.8 257.191 422.053 258.365 422.56C259.565 423.067 260.605 423.76 261.485 424.64C262.391 425.52 263.098 426.56 263.605 427.76C264.138 428.933 264.405 430.213 264.405 431.6C264.405 433.013 264.125 434.333 263.565 435.56C263.031 436.787 262.258 437.867 261.245 438.8C260.231 439.733 259.005 440.467 257.565 441C256.151 441.533 254.565 441.8 252.805 441.8ZM252.805 436.2C254.405 436.2 255.671 435.76 256.605 434.88C257.538 434 258.005 432.907 258.005 431.6C258.005 430.293 257.538 429.2 256.605 428.32C255.671 427.44 254.405 427 252.805 427C251.205 427 249.938 427.44 249.005 428.32C248.071 429.2 247.605 430.293 247.605 431.6C247.605 432.907 248.071 434 249.005 434.88C249.938 435.76 251.205 436.2 252.805 436.2ZM290.986 413H295.586L278.786 441H274.186L290.986 413ZM292.586 441.4C291.626 441.4 290.733 441.227 289.906 440.88C289.079 440.533 288.359 440.053 287.746 439.44C287.133 438.827 286.653 438.107 286.306 437.28C285.959 436.453 285.786 435.56 285.786 434.6C285.786 433.64 285.959 432.747 286.306 431.92C286.653 431.093 287.133 430.373 287.746 429.76C288.359 429.147 289.079 428.667 289.906 428.32C290.733 427.973 291.626 427.8 292.586 427.8C293.546 427.8 294.439 427.973 295.266 428.32C296.093 428.667 296.813 429.147 297.426 429.76C298.039 430.373 298.519 431.093 298.866 431.92C299.213 432.747 299.386 433.64 299.386 434.6C299.386 435.56 299.213 436.453 298.866 437.28C298.519 438.107 298.039 438.827 297.426 439.44C296.813 440.053 296.093 440.533 295.266 440.88C294.439 441.227 293.546 441.4 292.586 441.4ZM292.586 437.4C293.386 437.4 294.053 437.133 294.586 436.6C295.119 436.067 295.386 435.4 295.386 434.6C295.386 433.8 295.119 433.133 294.586 432.6C294.053 432.067 293.386 431.8 292.586 431.8C291.786 431.8 291.119 432.067 290.586 432.6C290.053 433.133 289.786 433.8 289.786 434.6C289.786 435.4 290.053 436.067 290.586 436.6C291.119 437.133 291.786 437.4 292.586 437.4ZM277.186 426.2C276.226 426.2 275.333 426.027 274.506 425.68C273.679 425.333 272.959 424.853 272.346 424.24C271.733 423.627 271.253 422.907 270.906 422.08C270.559 421.253 270.386 420.36 270.386 419.4C270.386 418.44 270.559 417.547 270.906 416.72C271.253 415.893 271.733 415.173 272.346 414.56C272.959 413.947 273.679 413.467 274.506 413.12C275.333 412.773 276.226 412.6 277.186 412.6C278.146 412.6 279.039 412.773 279.866 413.12C280.693 413.467 281.413 413.947 282.026 414.56C282.639 415.173 283.119 415.893 283.466 416.72C283.813 417.547 283.986 418.44 283.986 419.4C283.986 420.36 283.813 421.253 283.466 422.08C283.119 422.907 282.639 423.627 282.026 424.24C281.413 424.853 280.693 425.333 279.866 425.68C279.039 426.027 278.146 426.2 277.186 426.2ZM277.186 422.2C277.986 422.2 278.653 421.933 279.186 421.4C279.719 420.867 279.986 420.2 279.986 419.4C279.986 418.6 279.719 417.933 279.186 417.4C278.653 416.867 277.986 416.6 277.186 416.6C276.386 416.6 275.719 416.867 275.186 417.4C274.653 417.933 274.386 418.6 274.386 419.4C274.386 420.2 274.653 420.867 275.186 421.4C275.719 421.933 276.386 422.2 277.186 422.2Z" fill="black"/>
<path d="M369.4 516.4L378.8 510.2C379.893 509.48 380.813 508.827 381.56 508.24C382.333 507.627 382.96 507.04 383.44 506.48C383.92 505.893 384.267 505.307 384.48 504.72C384.693 504.133 384.8 503.493 384.8 502.8C384.8 501.6 384.413 500.64 383.64 499.92C382.893 499.173 381.813 498.8 380.4 498.8C379.28 498.8 378.4 499.013 377.76 499.44C377.12 499.84 376.627 500.293 376.28 500.8C375.88 501.387 375.6 502.053 375.44 502.8H369.2C369.493 501.013 370.08 499.413 370.96 498C371.333 497.413 371.8 496.827 372.36 496.24C372.92 495.653 373.573 495.147 374.32 494.72C375.093 494.267 375.973 493.907 376.96 493.64C377.973 493.347 379.12 493.2 380.4 493.2C382.053 493.2 383.547 493.453 384.88 493.96C386.213 494.44 387.347 495.107 388.28 495.96C389.213 496.813 389.933 497.813 390.44 498.96C390.947 500.08 391.2 501.293 391.2 502.6C391.2 503.853 391.04 504.96 390.72 505.92C390.427 506.88 389.96 507.787 389.32 508.64C388.707 509.467 387.907 510.267 386.92 511.04C385.96 511.813 384.827 512.64 383.52 513.52L380.4 515.6L378.4 516.4V516.6L381 516.4H391.2V522H369.4V516.4ZM402.005 501L397.205 504.6V498L402.605 494H408.005V522H402.005V501ZM436.009 494H440.609L423.809 522H419.209L436.009 494ZM437.609 522.4C436.649 522.4 435.756 522.227 434.929 521.88C434.103 521.533 433.383 521.053 432.769 520.44C432.156 519.827 431.676 519.107 431.329 518.28C430.983 517.453 430.809 516.56 430.809 515.6C430.809 514.64 430.983 513.747 431.329 512.92C431.676 512.093 432.156 511.373 432.769 510.76C433.383 510.147 434.103 509.667 434.929 509.32C435.756 508.973 436.649 508.8 437.609 508.8C438.569 508.8 439.463 508.973 440.289 509.32C441.116 509.667 441.836 510.147 442.449 510.76C443.063 511.373 443.543 512.093 443.889 512.92C444.236 513.747 444.409 514.64 444.409 515.6C444.409 516.56 444.236 517.453 443.889 518.28C443.543 519.107 443.063 519.827 442.449 520.44C441.836 521.053 441.116 521.533 440.289 521.88C439.463 522.227 438.569 522.4 437.609 522.4ZM437.609 518.4C438.409 518.4 439.076 518.133 439.609 517.6C440.143 517.067 440.409 516.4 440.409 515.6C440.409 514.8 440.143 514.133 439.609 513.6C439.076 513.067 438.409 512.8 437.609 512.8C436.809 512.8 436.143 513.067 435.609 513.6C435.076 514.133 434.809 514.8 434.809 515.6C434.809 516.4 435.076 517.067 435.609 517.6C436.143 518.133 436.809 518.4 437.609 518.4ZM422.209 507.2C421.249 507.2 420.356 507.027 419.529 506.68C418.703 506.333 417.983 505.853 417.369 505.24C416.756 504.627 416.276 503.907 415.929 503.08C415.583 502.253 415.409 501.36 415.409 500.4C415.409 499.44 415.583 498.547 415.929 497.72C416.276 496.893 416.756 496.173 417.369 495.56C417.983 494.947 418.703 494.467 419.529 494.12C420.356 493.773 421.249 493.6 422.209 493.6C423.169 493.6 424.063 493.773 424.889 494.12C425.716 494.467 426.436 494.947 427.049 495.56C427.663 496.173 428.143 496.893 428.489 497.72C428.836 498.547 429.009 499.44 429.009 500.4C429.009 501.36 428.836 502.253 428.489 503.08C428.143 503.907 427.663 504.627 427.049 505.24C426.436 505.853 425.716 506.333 424.889 506.68C424.063 507.027 423.169 507.2 422.209 507.2ZM422.209 503.2C423.009 503.2 423.676 502.933 424.209 502.4C424.743 501.867 425.009 501.2 425.009 500.4C425.009 499.6 424.743 498.933 424.209 498.4C423.676 497.867 423.009 497.6 422.209 497.6C421.409 497.6 420.743 497.867 420.209 498.4C419.676 498.933 419.409 499.6 419.409 500.4C419.409 501.2 419.676 501.867 420.209 502.4C420.743 502.933 421.409 503.2 422.209 503.2Z" fill="black"/>
<path d="M525 576L520.2 579.6V573L525.6 569H531V597H525V576ZM549.605 597.8C548.298 597.8 547.125 597.667 546.085 597.4C545.071 597.133 544.165 596.787 543.365 596.36C542.591 595.933 541.911 595.453 541.325 594.92C540.765 594.36 540.285 593.787 539.885 593.2C538.951 591.867 538.325 590.333 538.005 588.6H544.205C544.391 589.293 544.711 589.893 545.165 590.4C545.538 590.853 546.071 591.267 546.765 591.64C547.485 592.013 548.431 592.2 549.605 592.2C551.311 592.2 552.605 591.813 553.485 591.04C554.365 590.267 554.805 589.32 554.805 588.2C554.805 587 554.405 586.04 553.605 585.32C552.805 584.573 551.605 584.2 550.005 584.2H543.205V579.8L550.605 574.8V574.6H539.405V569H559.205V574.6L551.805 579.2L551.405 579.36V579.6H552.405C553.605 579.6 554.725 579.827 555.765 580.28C556.805 580.707 557.711 581.32 558.485 582.12C559.285 582.893 559.898 583.8 560.325 584.84C560.778 585.88 561.005 587 561.005 588.2C561.005 589.507 560.738 590.747 560.205 591.92C559.671 593.067 558.911 594.08 557.925 594.96C556.938 595.84 555.738 596.533 554.325 597.04C552.938 597.547 551.365 597.8 549.605 597.8ZM587.4 569H592L575.2 597H570.6L587.4 569ZM589 597.4C588.04 597.4 587.147 597.227 586.32 596.88C585.493 596.533 584.773 596.053 584.16 595.44C583.547 594.827 583.067 594.107 582.72 593.28C582.373 592.453 582.2 591.56 582.2 590.6C582.2 589.64 582.373 588.747 582.72 587.92C583.067 587.093 583.547 586.373 584.16 585.76C584.773 585.147 585.493 584.667 586.32 584.32C587.147 583.973 588.04 583.8 589 583.8C589.96 583.8 590.853 583.973 591.68 584.32C592.507 584.667 593.227 585.147 593.84 585.76C594.453 586.373 594.933 587.093 595.28 587.92C595.627 588.747 595.8 589.64 595.8 590.6C595.8 591.56 595.627 592.453 595.28 593.28C594.933 594.107 594.453 594.827 593.84 595.44C593.227 596.053 592.507 596.533 591.68 596.88C590.853 597.227 589.96 597.4 589 597.4ZM589 593.4C589.8 593.4 590.467 593.133 591 592.6C591.533 592.067 591.8 591.4 591.8 590.6C591.8 589.8 591.533 589.133 591 588.6C590.467 588.067 589.8 587.8 589 587.8C588.2 587.8 587.533 588.067 587 588.6C586.467 589.133 586.2 589.8 586.2 590.6C586.2 591.4 586.467 592.067 587 592.6C587.533 593.133 588.2 593.4 589 593.4ZM573.6 582.2C572.64 582.2 571.747 582.027 570.92 581.68C570.093 581.333 569.373 580.853 568.76 580.24C568.147 579.627 567.667 578.907 567.32 578.08C566.973 577.253 566.8 576.36 566.8 575.4C566.8 574.44 566.973 573.547 567.32 572.72C567.667 571.893 568.147 571.173 568.76 570.56C569.373 569.947 570.093 569.467 570.92 569.12C571.747 568.773 572.64 568.6 573.6 568.6C574.56 568.6 575.453 568.773 576.28 569.12C577.107 569.467 577.827 569.947 578.44 570.56C579.053 571.173 579.533 571.893 579.88 572.72C580.227 573.547 580.4 574.44 580.4 575.4C580.4 576.36 580.227 577.253 579.88 578.08C579.533 578.907 579.053 579.627 578.44 580.24C577.827 580.853 577.107 581.333 576.28 581.68C575.453 582.027 574.56 582.2 573.6 582.2ZM573.6 578.2C574.4 578.2 575.067 577.933 575.6 577.4C576.133 576.867 576.4 576.2 576.4 575.4C576.4 574.6 576.133 573.933 575.6 573.4C575.067 572.867 574.4 572.6 573.6 572.6C572.8 572.6 572.133 572.867 571.6 573.4C571.067 573.933 570.8 574.6 570.8 575.4C570.8 576.2 571.067 576.867 571.6 577.4C572.133 577.933 572.8 578.2 573.6 578.2Z" fill="black"/>
<path d="M83.86 51.2H90.46V63.3H94.86L103.22 51.2H110.7L100.58 65.94L111.36 82H103.66L95.08 69.46H90.46V82H83.86V51.2ZM124.969 82.66C123.532 82.66 122.182 82.3813 120.921 81.824C119.689 81.2667 118.604 80.4747 117.665 79.448C116.726 78.4213 115.978 77.1747 115.421 75.708C114.893 74.2413 114.629 72.5987 114.629 70.78C114.629 68.9613 114.893 67.3187 115.421 65.852C115.978 64.3853 116.726 63.1387 117.665 62.112C118.604 61.0853 119.689 60.2933 120.921 59.736C122.182 59.1787 123.532 58.9 124.969 58.9C126.201 58.9 127.242 59.0907 128.093 59.472C128.973 59.824 129.706 60.22 130.293 60.66C130.968 61.188 131.54 61.7747 132.009 62.42H132.229V59.56H138.389V82H132.229V79.14H132.009C131.54 79.7853 130.968 80.372 130.293 80.9C129.706 81.34 128.973 81.736 128.093 82.088C127.242 82.4693 126.201 82.66 124.969 82.66ZM126.509 77.38C128.181 77.38 129.545 76.808 130.601 75.664C131.686 74.52 132.229 72.892 132.229 70.78C132.229 68.668 131.686 67.04 130.601 65.896C129.545 64.752 128.181 64.18 126.509 64.18C124.954 64.18 123.649 64.752 122.593 65.896C121.537 67.04 121.009 68.668 121.009 70.78C121.009 72.892 121.537 74.52 122.593 75.664C123.649 76.808 124.954 77.38 126.509 77.38ZM146.749 59.56H152.909V67.92H155.549L161.489 59.56H168.309L161.049 69.9L168.969 82H161.929L156.209 73.2H152.909V82H146.749V59.56ZM190.527 59.56H212.087V82H205.927V64.84H196.687V82H190.527V59.56ZM231.43 82.66C229.67 82.66 228.027 82.352 226.502 81.736C225.006 81.12 223.701 80.284 222.586 79.228C221.501 78.1427 220.65 76.8813 220.034 75.444C219.418 73.9773 219.11 72.4227 219.11 70.78C219.11 69.1373 219.418 67.5973 220.034 66.16C220.65 64.6933 221.501 63.432 222.586 62.376C223.701 61.2907 225.006 60.44 226.502 59.824C228.027 59.208 229.67 58.9 231.43 58.9C233.19 58.9 234.818 59.208 236.314 59.824C237.81 60.44 239.101 61.2907 240.186 62.376C241.301 63.432 242.166 64.6933 242.782 66.16C243.427 67.5973 243.75 69.1373 243.75 70.78C243.75 72.4227 243.427 73.9773 242.782 75.444C242.166 76.8813 241.301 78.1427 240.186 79.228C239.101 80.284 237.81 81.12 236.314 81.736C234.818 82.352 233.19 82.66 231.43 82.66ZM231.43 77.38C232.251 77.38 233.014 77.2187 233.718 76.896C234.451 76.5733 235.082 76.1333 235.61 75.576C236.167 74.9893 236.593 74.3 236.886 73.508C237.209 72.6867 237.37 71.7773 237.37 70.78C237.37 69.7827 237.209 68.888 236.886 68.096C236.593 67.2747 236.167 66.5853 235.61 66.028C235.082 65.4413 234.451 64.9867 233.718 64.664C233.014 64.3413 232.251 64.18 231.43 64.18C230.609 64.18 229.831 64.3413 229.098 64.664C228.394 64.9867 227.763 65.4413 227.206 66.028C226.678 66.5853 226.253 67.2747 225.93 68.096C225.637 68.888 225.49 69.7827 225.49 70.78C225.49 71.7773 225.637 72.6867 225.93 73.508C226.253 74.3 226.678 74.9893 227.206 75.576C227.763 76.1333 228.394 76.5733 229.098 76.896C229.831 77.2187 230.609 77.38 231.43 77.38ZM254.326 59.56H266.206L272.146 82H265.986L261.366 64.84H259.166L254.546 82H248.386L254.326 59.56ZM286.243 82H281.403L275.463 59.56H281.843L286.243 76.72H288.003L292.843 59.56H299.223L290.203 90.36H283.823L286.243 82ZM319.014 74.74C318.604 75.0333 318.12 75.2973 317.562 75.532C317.064 75.7373 316.462 75.9133 315.758 76.06C315.054 76.2067 314.233 76.28 313.294 76.28C310.537 76.28 308.381 75.532 306.826 74.036C305.272 72.5107 304.494 70.472 304.494 67.92V59.56H310.654V67.48C310.654 68.5947 310.962 69.46 311.578 70.076C312.224 70.692 313.162 71 314.394 71C315.157 71 315.817 70.9413 316.374 70.824C316.961 70.6773 317.46 70.5307 317.87 70.384C318.31 70.208 318.692 70.0027 319.014 69.768V59.56H325.174V82H319.014V74.74ZM333.553 59.56H339.713V69.24L339.493 73.2H339.933L348.953 59.56H355.553V82H349.393V72.32L349.613 68.36H349.173L340.153 82H333.553V59.56ZM369.209 64.84H361.729V59.56H382.849V64.84H375.369V82H369.209V64.84ZM389.019 59.56H395.179V66.6H400.239C401.618 66.6 402.864 66.8053 403.979 67.216C405.094 67.6267 406.032 68.184 406.795 68.888C407.587 69.592 408.188 70.4133 408.599 71.352C409.039 72.2613 409.259 73.244 409.259 74.3C409.259 75.356 409.039 76.3533 408.599 77.292C408.188 78.2013 407.587 79.008 406.795 79.712C406.032 80.416 405.094 80.9733 403.979 81.384C402.864 81.7947 401.618 82 400.239 82H389.019V59.56ZM399.799 76.94C400.796 76.94 401.559 76.6907 402.087 76.192C402.615 75.6933 402.879 75.0627 402.879 74.3C402.879 73.5373 402.615 72.9067 402.087 72.408C401.559 71.9093 400.796 71.66 399.799 71.66H395.179V76.94H399.799ZM442.718 82.66C441.075 82.66 439.535 82.352 438.098 81.736C436.69 81.12 435.458 80.24 434.402 79.096C433.375 77.9227 432.554 76.5147 431.938 74.872C431.351 73.2 431.058 71.3227 431.058 69.24C431.058 63.08 432.334 58.5333 434.886 55.6C437.467 52.6667 441.178 51.2 446.018 51.2H452.398V56.48H446.678C443.568 56.48 441.236 57.1987 439.682 58.636C438.156 60.044 437.335 61.9653 437.218 64.4H437.438C437.848 63.8427 438.376 63.3293 439.022 62.86C439.579 62.4787 440.283 62.1267 441.134 61.804C441.984 61.4813 443.026 61.32 444.258 61.32C445.695 61.32 447.03 61.584 448.262 62.112C449.494 62.6107 450.564 63.3293 451.474 64.268C452.383 65.1773 453.087 66.2627 453.586 67.524C454.114 68.7853 454.378 70.164 454.378 71.66C454.378 73.2147 454.099 74.6667 453.542 76.016C452.984 77.336 452.192 78.4947 451.166 79.492C450.168 80.46 448.951 81.2373 447.514 81.824C446.076 82.3813 444.478 82.66 442.718 82.66ZM442.718 77.38C444.272 77.38 445.534 76.8667 446.502 75.84C447.499 74.8133 447.998 73.42 447.998 71.66C447.998 69.988 447.499 68.6533 446.502 67.656C445.534 66.6587 444.272 66.16 442.718 66.16C441.163 66.16 439.887 66.6587 438.89 67.656C437.922 68.6533 437.438 69.988 437.438 71.66C437.438 73.42 437.922 74.8133 438.89 75.84C439.887 76.8667 441.163 77.38 442.718 77.38ZM461.411 59.56H467.571V69.24L467.351 73.2H467.791L476.811 59.56H483.411V82H477.251V72.32L477.471 68.36H477.031L468.011 82H461.411V59.56ZM495.306 59.56H507.186L513.126 82H506.966L502.346 64.84H500.146L495.526 82H489.366L495.306 59.56ZM529.848 82.66C528.147 82.66 526.548 82.352 525.052 81.736C523.585 81.12 522.309 80.284 521.224 79.228C520.139 78.1427 519.288 76.8813 518.672 75.444C518.056 73.9773 517.748 72.4227 517.748 70.78C517.748 69.1373 518.056 67.5973 518.672 66.16C519.288 64.6933 520.139 63.432 521.224 62.376C522.309 61.2907 523.585 60.44 525.052 59.824C526.548 59.208 528.147 58.9 529.848 58.9C531.608 58.9 533.207 59.208 534.644 59.824C536.111 60.44 537.372 61.2907 538.428 62.376C539.484 63.4613 540.291 64.7227 540.848 66.16C541.435 67.5973 541.728 69.1373 541.728 70.78V72.1H524.128C524.245 72.804 524.465 73.4787 524.788 74.124C525.14 74.7693 525.565 75.3413 526.064 75.84C526.592 76.3093 527.179 76.6907 527.824 76.984C528.469 77.248 529.144 77.38 529.848 77.38C530.845 77.38 531.652 77.248 532.268 76.984C532.913 76.6907 533.441 76.3827 533.852 76.06C534.292 75.6787 534.644 75.2387 534.908 74.74H541.508C541.039 76.2067 540.305 77.5267 539.308 78.7C538.868 79.1987 538.355 79.6827 537.768 80.152C537.181 80.6213 536.507 81.0467 535.744 81.428C534.981 81.8093 534.101 82.1027 533.104 82.308C532.136 82.5427 531.051 82.66 529.848 82.66ZM535.128 68.36C535.011 67.8027 534.805 67.2747 534.512 66.776C534.219 66.2773 533.837 65.8373 533.368 65.456C532.928 65.0747 532.4 64.7667 531.784 64.532C531.197 64.2973 530.552 64.18 529.848 64.18C528.411 64.18 527.208 64.6053 526.24 65.456C525.301 66.2773 524.671 67.2453 524.348 68.36H535.128ZM554.251 64.84H546.771V59.56H567.891V64.84H560.411V82H554.251V64.84Z" fill="black"/>
<path d="M550.426 788.403V781.616C550.426 780.285 550.746 779.265 551.384 778.555C552.023 777.846 552.813 777.491 553.753 777.491C554.392 777.491 554.906 777.606 555.297 777.837C555.669 778.05 555.962 778.289 556.175 778.555C556.423 778.875 556.592 779.23 556.681 779.62H556.787C556.876 779.123 557.053 778.68 557.32 778.289C557.55 777.952 557.887 777.65 558.331 777.384C558.757 777.1 559.351 776.958 560.114 776.958C560.646 776.958 561.152 777.065 561.631 777.278C562.11 777.491 562.527 777.792 562.882 778.183C563.219 778.573 563.494 779.052 563.707 779.62C563.902 780.17 564 780.791 564 781.483V788.403H550.426ZM561.472 781.616C561.472 781.013 561.321 780.552 561.019 780.232C560.7 779.913 560.274 779.753 559.742 779.753C559.28 779.753 558.899 779.913 558.597 780.232C558.295 780.552 558.145 781.013 558.145 781.616V785.608H561.472V781.616ZM555.749 781.882C555.749 780.818 555.261 780.285 554.285 780.285C553.877 780.285 553.558 780.418 553.327 780.685C553.079 780.951 552.955 781.35 552.955 781.882V785.608H555.749V781.882ZM550.426 772.29V769.496H554.951V766.701C554.951 765.903 555.066 765.184 555.297 764.545C555.527 763.907 555.847 763.365 556.255 762.922C556.663 762.46 557.142 762.114 557.692 761.884C558.242 761.635 558.837 761.511 559.475 761.511C560.114 761.511 560.709 761.635 561.259 761.884C561.809 762.114 562.288 762.46 562.696 762.922C563.104 763.365 563.423 763.907 563.654 764.545C563.885 765.184 564 765.903 564 766.701V772.29H550.426ZM561.472 766.701C561.472 765.956 561.294 765.397 560.939 765.024C560.567 764.634 560.079 764.439 559.475 764.439C558.872 764.439 558.393 764.634 558.038 765.024C557.666 765.397 557.479 765.956 557.479 766.701V769.496H561.472V766.701ZM550.426 760.047V757.253H564V760.047H550.426ZM550.426 751.941V749.146H559.475L559.742 749.173V748.907L550.426 742.759V739.698H564V742.493H554.951L554.685 742.466V742.732L564 748.88V751.941H550.426ZM550.426 734.373V724.791H552.955V731.578H564V734.373H550.426ZM550.426 720.807V718.013H552.156V717.88C551.801 717.578 551.473 717.214 551.171 716.788C550.923 716.433 550.692 715.999 550.479 715.484C550.266 714.952 550.16 714.331 550.16 713.621C550.16 712.716 550.329 711.882 550.666 711.119C551.003 710.339 551.482 709.664 552.103 709.097C552.706 708.511 553.443 708.059 554.312 707.739C555.181 707.402 556.148 707.233 557.213 707.233C558.278 707.233 559.245 707.402 560.114 707.739C560.984 708.059 561.729 708.511 562.35 709.097C562.953 709.664 563.423 710.339 563.76 711.119C564.098 711.882 564.266 712.716 564.266 713.621C564.266 714.331 564.169 714.952 563.973 715.484C563.76 715.999 563.53 716.433 563.281 716.788C562.98 717.214 562.643 717.578 562.27 717.88V718.013H569.057V720.807H550.426ZM561.738 714.153C561.738 712.947 561.356 711.98 560.593 711.252C559.813 710.525 558.686 710.161 557.213 710.161C555.74 710.161 554.623 710.525 553.86 711.252C553.079 711.98 552.688 712.947 552.688 714.153C552.688 715.289 553.079 716.221 553.86 716.948C554.623 717.658 555.74 718.013 557.213 718.013C558.686 718.013 559.813 717.658 560.593 716.948C561.356 716.221 561.738 715.289 561.738 714.153ZM564.266 697.13C564.266 698.035 564.098 698.878 563.76 699.658C563.423 700.421 562.953 701.096 562.35 701.681C561.729 702.249 560.984 702.701 560.114 703.039C559.245 703.358 558.278 703.518 557.213 703.518C556.148 703.518 555.181 703.358 554.312 703.039C553.443 702.701 552.706 702.249 552.103 701.681C551.482 701.096 551.003 700.421 550.666 699.658C550.329 698.878 550.16 698.035 550.16 697.13C550.16 696.438 550.266 695.826 550.479 695.294C550.692 694.761 550.923 694.318 551.171 693.963C551.473 693.537 551.801 693.173 552.156 692.872V692.738H550.426V689.944H564V692.738H562.137V692.872C562.527 693.173 562.882 693.537 563.202 693.963C563.468 694.318 563.716 694.761 563.947 695.294C564.16 695.826 564.266 696.438 564.266 697.13ZM561.738 696.598C561.738 695.462 561.356 694.539 560.593 693.83C559.813 693.102 558.686 692.738 557.213 692.738C555.74 692.738 554.623 693.102 553.86 693.83C553.079 694.539 552.688 695.462 552.688 696.598C552.688 697.804 553.079 698.771 553.86 699.499C554.623 700.226 555.74 700.59 557.213 700.59C558.686 700.59 559.813 700.226 560.593 699.499C561.356 698.771 561.738 697.804 561.738 696.598ZM552.955 681.57V686.095H550.426V674.251H552.955V678.776H564V681.57H552.955ZM550.426 670.39V667.595H554.951V664.268C554.951 663.47 555.066 662.751 555.297 662.112C555.527 661.474 555.847 660.932 556.255 660.489C556.663 660.028 557.142 659.682 557.692 659.451C558.242 659.202 558.837 659.078 559.475 659.078C560.114 659.078 560.709 659.202 561.259 659.451C561.809 659.682 562.288 660.028 562.696 660.489C563.104 660.932 563.423 661.474 563.654 662.112C563.885 662.751 564 663.47 564 664.268V670.39H550.426ZM561.472 664.268C561.472 663.523 561.294 662.964 560.939 662.592C560.567 662.201 560.079 662.006 559.475 662.006C558.872 662.006 558.393 662.201 558.038 662.592C557.666 662.964 557.479 663.523 557.479 664.268V667.595H561.472V664.268Z" fill="black"/>
<path d="M87.4262 788.403V785.608H92.7492V783.612L87.4262 779.487V776.293L93.6808 781.217L101 775.894V779.354L95.2777 783.479V785.608H101V788.403H87.4262ZM101 766.97V769.765L87.4262 773.491V770.563L98.3385 767.636V766.172L87.4262 762.978V760.05L106.057 765.64V768.567L101 766.97ZM87.4262 756.464V744.354H101V747.148H89.9546V753.669H101V756.464H87.4262ZM87.4262 739.025V736.231H96.4754L96.7415 736.257V735.991L87.4262 729.843V726.782H101V729.577H91.9508L91.6846 729.55V729.816L101 735.965V739.025H87.4262ZM89.9546 718.396V722.921H87.4262V711.077H89.9546V715.602H101V718.396H89.9546ZM87.4262 707.216V704.421H91.9508V701.094C91.9508 700.296 92.0661 699.577 92.2968 698.938C92.5274 698.3 92.8468 697.758 93.2549 697.315C93.663 696.853 94.1421 696.507 94.6922 696.277C95.2422 696.028 95.8366 695.904 96.4754 695.904C97.1142 695.904 97.7086 696.028 98.2586 696.277C98.8087 696.507 99.2877 696.853 99.6958 697.315C100.104 697.758 100.423 698.3 100.654 698.938C100.885 699.577 101 700.296 101 701.094V707.216H87.4262ZM98.4715 701.094C98.4715 700.349 98.2941 699.79 97.9392 699.417C97.5666 699.027 97.0787 698.832 96.4754 698.832C95.8721 698.832 95.393 699.027 95.0382 699.417C94.6655 699.79 94.4792 700.349 94.4792 701.094V704.421H98.4715L98.4715 701.094ZM125.266 782.415C125.266 783.373 125.098 784.269 124.76 785.103C124.406 785.937 123.918 786.655 123.297 787.259C122.658 787.862 121.913 788.341 121.061 788.696C120.191 789.033 119.242 789.202 118.213 789.202C117.184 789.202 116.244 789.033 115.392 788.696C114.522 788.341 113.777 787.862 113.156 787.259C112.517 786.655 112.029 785.937 111.692 785.103C111.337 784.269 111.16 783.373 111.16 782.415C111.16 781.74 111.231 781.128 111.373 780.578C111.515 780.028 111.701 779.54 111.932 779.114C112.163 778.671 112.429 778.289 112.73 777.97C113.032 777.65 113.334 777.367 113.635 777.118C114.345 776.55 115.161 776.142 116.084 775.894V778.822C115.64 778.963 115.241 779.194 114.886 779.514C114.585 779.78 114.309 780.143 114.061 780.605C113.813 781.066 113.688 781.669 113.688 782.415C113.688 782.947 113.795 783.453 114.008 783.932C114.221 784.393 114.522 784.801 114.913 785.156C115.303 785.493 115.782 785.768 116.35 785.981C116.9 786.176 117.521 786.274 118.213 786.274C118.905 786.274 119.535 786.176 120.103 785.981C120.653 785.768 121.123 785.493 121.513 785.156C121.904 784.801 122.205 784.393 122.418 783.932C122.631 783.453 122.738 782.947 122.738 782.415C122.738 781.652 122.613 781.031 122.365 780.552C122.117 780.072 121.842 779.691 121.54 779.407C121.203 779.088 120.804 778.848 120.342 778.688V775.894C121.283 776.142 122.108 776.55 122.818 777.118C123.119 777.367 123.421 777.65 123.722 777.97C124.006 778.289 124.264 778.671 124.494 779.114C124.725 779.54 124.911 780.028 125.053 780.578C125.195 781.128 125.266 781.74 125.266 782.415ZM125.266 765.256C125.266 766.25 125.089 767.181 124.734 768.051C124.361 768.902 123.864 769.648 123.243 770.286C122.605 770.907 121.859 771.404 121.008 771.777C120.138 772.132 119.207 772.309 118.213 772.309C117.219 772.309 116.297 772.132 115.445 771.777C114.576 771.404 113.83 770.907 113.209 770.286C112.571 769.648 112.074 768.902 111.719 768.051C111.346 767.181 111.16 766.25 111.16 765.256C111.16 764.262 111.346 763.34 111.719 762.488C112.074 761.619 112.571 760.873 113.209 760.252C113.83 759.614 114.576 759.117 115.445 758.762C116.297 758.389 117.219 758.203 118.213 758.203C119.207 758.203 120.138 758.389 121.008 758.762C121.859 759.117 122.605 759.614 123.243 760.252C123.864 760.873 124.361 761.619 124.734 762.488C125.089 763.34 125.266 764.262 125.266 765.256ZM122.738 765.256C122.738 764.653 122.631 764.103 122.418 763.606C122.205 763.091 121.904 762.657 121.513 762.302C121.123 761.929 120.653 761.645 120.103 761.45C119.535 761.237 118.905 761.131 118.213 761.131C117.521 761.131 116.9 761.237 116.35 761.45C115.782 761.645 115.303 761.929 114.913 762.302C114.522 762.657 114.221 763.091 114.008 763.606C113.795 764.103 113.688 764.653 113.688 765.256C113.688 765.859 113.795 766.418 114.008 766.933C114.221 767.43 114.522 767.864 114.913 768.237C115.303 768.592 115.782 768.876 116.35 769.089C116.9 769.284 117.521 769.381 118.213 769.381C118.905 769.381 119.535 769.284 120.103 769.089C120.653 768.876 121.123 768.592 121.513 768.237C121.904 767.864 122.205 767.43 122.418 766.933C122.631 766.418 122.738 765.859 122.738 765.256ZM125.266 738.105C125.266 739.063 125.098 739.959 124.76 740.793C124.406 741.627 123.918 742.346 123.297 742.949C122.658 743.552 121.913 744.032 121.061 744.386C120.191 744.724 119.242 744.892 118.213 744.892C117.184 744.892 116.244 744.724 115.392 744.386C114.522 744.032 113.777 743.552 113.156 742.949C112.517 742.346 112.029 741.627 111.692 740.793C111.337 739.959 111.16 739.063 111.16 738.105C111.16 737.431 111.231 736.819 111.373 736.269C111.515 735.719 111.701 735.231 111.932 734.805C112.163 734.361 112.429 733.98 112.73 733.66C113.032 733.341 113.334 733.057 113.635 732.809C114.345 732.241 115.161 731.833 116.084 731.584V734.512C115.64 734.654 115.241 734.885 114.886 735.204C114.585 735.47 114.309 735.834 114.061 736.295C113.813 736.757 113.688 737.36 113.688 738.105C113.688 738.638 113.795 739.143 114.008 739.622C114.221 740.084 114.522 740.492 114.913 740.847C115.303 741.184 115.782 741.459 116.35 741.672C116.9 741.867 117.521 741.964 118.213 741.964C118.905 741.964 119.535 741.867 120.103 741.672C120.653 741.459 121.123 741.184 121.513 740.847C121.904 740.492 122.205 740.084 122.418 739.622C122.631 739.143 122.738 738.638 122.738 738.105C122.738 737.342 122.613 736.721 122.365 736.242C122.117 735.763 121.842 735.382 121.54 735.098C121.203 734.778 120.804 734.539 120.342 734.379V731.584C121.283 731.833 122.108 732.241 122.818 732.809C123.119 733.057 123.421 733.341 123.722 733.66C124.006 733.98 124.264 734.361 124.494 734.805C124.725 735.231 124.911 735.719 125.053 736.269C125.195 736.819 125.266 737.431 125.266 738.105ZM111.426 727.201V724.407H116.749V722.41L111.426 718.285V715.091L117.681 720.015L125 714.692V718.152L119.278 722.277V724.407H125V727.201H111.426ZM111.426 710.959V708.164H120.475L120.742 708.191V707.924L111.426 701.776V698.715H125V701.51H115.951L115.685 701.483V701.75L125 707.898V710.959H111.426ZM122.472 694.854V693.523L111.426 690.463V684.474L122.472 681.413V680.083H127.928V682.611H125V692.326H127.928V694.854H122.472ZM122.472 684.341L113.955 686.603V688.333L122.472 690.596V684.341ZM111.426 676.212V673.417H116.749V671.421L111.426 667.296V664.102L117.681 669.026L125 663.703V667.163L119.278 671.288V673.417H125V676.212H111.426ZM125.266 654.235C125.266 655.228 125.089 656.16 124.734 657.029C124.361 657.881 123.864 658.626 123.243 659.265C122.605 659.886 121.859 660.383 121.008 660.755C120.138 661.11 119.207 661.288 118.213 661.288C117.219 661.288 116.297 661.11 115.445 660.755C114.576 660.383 113.83 659.886 113.209 659.265C112.571 658.626 112.074 657.881 111.719 657.029C111.346 656.16 111.16 655.228 111.16 654.235C111.16 653.241 111.346 652.318 111.719 651.467C112.074 650.597 112.571 649.852 113.209 649.231C113.83 648.592 114.576 648.095 115.445 647.74C116.297 647.368 117.219 647.181 118.213 647.181C119.207 647.181 120.138 647.368 121.008 647.74C121.859 648.095 122.605 648.592 123.243 649.231C123.864 649.852 124.361 650.597 124.734 651.467C125.089 652.318 125.266 653.241 125.266 654.235ZM122.738 654.235C122.738 653.631 122.631 653.081 122.418 652.584C122.205 652.07 121.904 651.635 121.513 651.28C121.123 650.908 120.653 650.624 120.103 650.429C119.535 650.216 118.905 650.109 118.213 650.109C117.521 650.109 116.9 650.216 116.35 650.429C115.782 650.624 115.303 650.908 114.913 651.28C114.522 651.635 114.221 652.07 114.008 652.584C113.795 653.081 113.688 653.631 113.688 654.235C113.688 654.838 113.795 655.397 114.008 655.911C114.221 656.408 114.522 656.843 114.913 657.215C115.303 657.57 115.782 657.854 116.35 658.067C116.9 658.262 117.521 658.36 118.213 658.36C118.905 658.36 119.535 658.262 120.103 658.067C120.653 657.854 121.123 657.57 121.513 657.215C121.904 656.843 122.205 656.408 122.418 655.911C122.631 655.397 122.738 654.838 122.738 654.235ZM111.426 642.661V639.866H120.475L120.742 639.893V639.627L111.426 633.479V630.418H125V633.213H115.951L115.685 633.186V633.452L125 639.6V642.661H111.426ZM108.498 636.539C108.498 637.941 108.179 638.979 107.54 639.653C106.884 640.328 106.05 640.665 105.038 640.665V638.403C105.5 638.403 105.864 638.261 106.13 637.977C106.378 637.693 106.502 637.214 106.502 636.539C106.502 635.865 106.378 635.386 106.13 635.102C105.864 634.818 105.5 634.676 105.038 634.676V632.414C106.05 632.414 106.884 632.751 107.54 633.425C108.179 634.1 108.498 635.138 108.498 636.539Z" fill="black"/>
<path d="M252.266 783.479C252.266 784.171 252.195 784.792 252.053 785.342C251.929 785.875 251.76 786.354 251.548 786.78C251.335 787.188 251.095 787.543 250.829 787.844C250.545 788.128 250.252 788.368 249.951 788.563C249.259 789.024 248.478 789.326 247.608 789.468V786.673C247.999 786.584 248.354 786.416 248.673 786.167C248.939 785.954 249.188 785.644 249.418 785.236C249.631 784.81 249.738 784.224 249.738 783.479C249.738 782.468 249.569 781.749 249.232 781.323C248.877 780.898 248.469 780.685 248.008 780.685C247.546 780.685 247.147 780.898 246.81 781.323C246.455 781.749 246.278 782.468 246.278 783.479V784.943H243.882V783.479C243.882 782.539 243.731 781.882 243.43 781.51C243.128 781.137 242.747 780.951 242.285 780.951C241.877 780.951 241.514 781.164 241.194 781.59C240.857 781.998 240.688 782.672 240.688 783.612C240.688 784.216 240.786 784.695 240.981 785.05C241.159 785.387 241.354 785.653 241.567 785.848C241.815 786.061 242.099 786.203 242.418 786.274V789.068C241.62 788.891 240.91 788.572 240.289 788.11C240.023 787.915 239.766 787.684 239.517 787.418C239.251 787.134 239.021 786.806 238.825 786.434C238.63 786.061 238.471 785.635 238.346 785.156C238.222 784.659 238.16 784.1 238.16 783.479C238.16 782.574 238.266 781.794 238.479 781.137C238.675 780.463 238.941 779.913 239.278 779.487C239.615 779.043 240.014 778.715 240.476 778.502C240.919 778.271 241.389 778.156 241.886 778.156C242.472 778.156 242.96 778.28 243.35 778.529C243.723 778.777 244.015 779.052 244.228 779.354C244.494 779.709 244.69 780.108 244.814 780.552H244.92C245.027 780.055 245.213 779.611 245.479 779.221C245.71 778.884 246.038 778.582 246.464 778.316C246.89 778.032 247.449 777.89 248.141 777.89C248.709 777.89 249.241 778.005 249.738 778.236C250.235 778.467 250.669 778.822 251.042 779.301C251.414 779.762 251.716 780.347 251.947 781.057C252.16 781.749 252.266 782.557 252.266 783.479ZM252.266 767.637C252.266 768.542 252.098 769.385 251.76 770.165C251.423 770.928 250.953 771.603 250.35 772.188C249.729 772.756 248.984 773.208 248.114 773.545C247.245 773.865 246.278 774.025 245.213 774.025C244.148 774.025 243.181 773.865 242.312 773.545C241.443 773.208 240.706 772.756 240.103 772.188C239.482 771.603 239.003 770.928 238.666 770.165C238.329 769.385 238.16 768.542 238.16 767.637C238.16 766.945 238.266 766.333 238.479 765.8C238.692 765.268 238.923 764.824 239.171 764.47C239.473 764.044 239.801 763.68 240.156 763.378V763.245H238.426V760.451H252V763.245H250.137V763.378C250.527 763.68 250.882 764.044 251.202 764.47C251.468 764.824 251.716 765.268 251.947 765.8C252.16 766.333 252.266 766.945 252.266 767.637ZM249.738 767.105C249.738 765.969 249.356 765.046 248.593 764.337C247.813 763.609 246.686 763.245 245.213 763.245C243.74 763.245 242.623 763.609 241.86 764.337C241.079 765.046 240.688 765.969 240.688 767.105C240.688 768.311 241.079 769.278 241.86 770.006C242.623 770.733 243.74 771.097 245.213 771.097C246.686 771.097 247.813 770.733 248.593 770.006C249.356 769.278 249.738 768.311 249.738 767.105ZM238.426 755.138V752.343H243.749V750.347L238.426 746.222V743.028L244.681 747.952L252 742.629V746.089L246.278 750.214V752.343H252V755.138H238.426ZM238.426 738.895V736.101H240.156V735.968C239.801 735.666 239.473 735.302 239.171 734.876C238.923 734.522 238.692 734.087 238.479 733.572C238.266 733.04 238.16 732.419 238.16 731.709C238.16 730.804 238.329 729.97 238.666 729.207C239.003 728.427 239.482 727.752 240.103 727.185C240.706 726.599 241.443 726.147 242.312 725.827C243.181 725.49 244.148 725.321 245.213 725.321C246.278 725.321 247.245 725.49 248.114 725.827C248.984 726.147 249.729 726.599 250.35 727.185C250.953 727.752 251.423 728.427 251.76 729.207C252.098 729.97 252.266 730.804 252.266 731.709C252.266 732.419 252.169 733.04 251.973 733.572C251.76 734.087 251.53 734.522 251.281 734.876C250.98 735.302 250.643 735.666 250.27 735.968V736.101H257.057V738.895H238.426ZM249.738 732.241C249.738 731.035 249.356 730.068 248.593 729.34C247.813 728.613 246.686 728.249 245.213 728.249C243.74 728.249 242.623 728.613 241.86 729.34C241.079 730.068 240.688 731.035 240.688 732.241C240.688 733.377 241.079 734.309 241.86 735.036C242.623 735.746 243.74 736.101 245.213 736.101C246.686 736.101 247.813 735.746 248.593 735.036C249.356 734.309 249.738 733.377 249.738 732.241ZM238.426 720.807V718.013H242.951V715.218C242.951 714.42 243.066 713.701 243.297 713.062C243.527 712.423 243.847 711.882 244.255 711.439C244.663 710.977 245.142 710.631 245.692 710.401C246.242 710.152 246.837 710.028 247.475 710.028C248.114 710.028 248.709 710.152 249.259 710.401C249.809 710.631 250.288 710.977 250.696 711.439C251.104 711.882 251.423 712.423 251.654 713.062C251.885 713.701 252 714.42 252 715.218V720.807H238.426ZM249.472 715.218C249.472 714.473 249.294 713.914 248.939 713.541C248.567 713.151 248.079 712.956 247.475 712.956C246.872 712.956 246.393 713.151 246.038 713.541C245.666 713.914 245.479 714.473 245.479 715.218V718.013H249.472V715.218ZM238.426 708.564V705.77H252V708.564H238.426ZM240.955 697.397V701.922H238.426V690.078H240.955V694.603H252V697.397H240.955ZM252.266 680.627C252.266 681.532 252.098 682.375 251.76 683.156C251.423 683.919 250.953 684.593 250.35 685.179C249.729 685.746 248.984 686.199 248.114 686.536C247.245 686.855 246.278 687.015 245.213 687.015C244.148 687.015 243.181 686.855 242.312 686.536C241.443 686.199 240.706 685.746 240.103 685.179C239.482 684.593 239.003 683.919 238.666 683.156C238.329 682.375 238.16 681.532 238.16 680.627C238.16 679.935 238.266 679.323 238.479 678.791C238.692 678.259 238.923 677.815 239.171 677.46C239.473 677.034 239.801 676.671 240.156 676.369V676.236H238.426V673.441H252V676.236H250.137V676.369C250.527 676.671 250.882 677.034 251.202 677.46C251.468 677.815 251.716 678.259 251.947 678.791C252.16 679.323 252.266 679.935 252.266 680.627ZM249.738 680.095C249.738 678.96 249.356 678.037 248.593 677.327C247.813 676.6 246.686 676.236 245.213 676.236C243.74 676.236 242.623 676.6 241.86 677.327C241.079 678.037 240.688 678.96 240.688 680.095C240.688 681.302 241.079 682.269 241.86 682.996C242.623 683.724 243.74 684.087 245.213 684.087C246.686 684.087 247.813 683.724 248.593 682.996C249.356 682.269 249.738 681.302 249.738 680.095ZM247.076 665.999C246.863 666.478 246.579 666.904 246.224 667.277C245.923 667.596 245.524 667.889 245.027 668.155C244.512 668.404 243.865 668.528 243.084 668.528C242.427 668.528 241.815 668.412 241.247 668.182C240.662 667.933 240.165 667.579 239.757 667.117C239.349 666.656 239.029 666.097 238.799 665.44C238.55 664.784 238.426 664.039 238.426 663.205V657.083H252V659.878H247.875V663.338L252 665.467V668.661L247.076 665.999ZM245.346 659.878H240.955V663.072C240.955 663.87 241.159 664.491 241.567 664.935C241.975 665.378 242.481 665.6 243.084 665.6C243.758 665.6 244.308 665.396 244.734 664.988C245.142 664.58 245.346 663.941 245.346 663.072V659.878ZM262.426 788.403V776.293H276V779.088H264.955V785.608H276V788.403H262.426ZM262.426 770.965V768.17H264.156V768.037C263.801 767.735 263.473 767.372 263.171 766.946C262.923 766.591 262.692 766.156 262.479 765.642C262.266 765.109 262.16 764.488 262.16 763.779C262.16 762.874 262.329 762.04 262.666 761.277C263.003 760.496 263.482 759.822 264.103 759.254C264.706 758.668 265.443 758.216 266.312 757.897C267.181 757.56 268.148 757.391 269.213 757.391C270.278 757.391 271.245 757.56 272.114 757.897C272.984 758.216 273.729 758.668 274.35 759.254C274.953 759.822 275.423 760.496 275.76 761.277C276.098 762.04 276.266 762.874 276.266 763.779C276.266 764.488 276.169 765.109 275.973 765.642C275.76 766.156 275.53 766.591 275.281 766.946C274.98 767.372 274.643 767.735 274.27 768.037V768.17H281.057V770.965H262.426ZM273.738 764.311C273.738 763.104 273.356 762.137 272.593 761.41C271.813 760.682 270.686 760.319 269.213 760.319C267.74 760.319 266.623 760.682 265.86 761.41C265.079 762.137 264.688 763.104 264.688 764.311C264.688 765.447 265.079 766.378 265.86 767.106C266.623 767.815 267.74 768.17 269.213 768.17C270.686 768.17 271.813 767.815 272.593 767.106C273.356 766.378 273.738 765.447 273.738 764.311ZM276.266 746.755C276.266 747.713 276.089 748.618 275.734 749.47C275.361 750.304 274.864 751.04 274.243 751.679C273.605 752.3 272.859 752.788 272.008 753.143C271.138 753.498 270.207 753.675 269.213 753.675C268.219 753.675 267.297 753.498 266.445 753.143C265.576 752.788 264.83 752.3 264.209 751.679C263.571 751.04 263.074 750.304 262.719 749.47C262.346 748.618 262.16 747.713 262.16 746.755C262.16 745.797 262.346 744.901 262.719 744.067C263.074 743.215 263.571 742.479 264.209 741.858C264.83 741.219 265.576 740.722 266.445 740.368C267.297 740.013 268.219 739.835 269.213 739.835H270.145V750.881C270.712 750.774 271.218 750.597 271.662 750.348C272.105 750.1 272.487 749.789 272.806 749.417C273.108 749.044 273.338 748.636 273.498 748.192C273.658 747.731 273.738 747.252 273.738 746.755C273.738 746.063 273.649 745.469 273.472 744.972C273.276 744.475 273.055 744.076 272.806 743.774C272.54 743.419 272.229 743.127 271.875 742.896V739.968C272.709 740.305 273.445 740.776 274.084 741.379C274.35 741.645 274.616 741.947 274.882 742.284C275.148 742.621 275.388 743.011 275.601 743.455C275.796 743.898 275.956 744.395 276.08 744.945C276.204 745.495 276.266 746.099 276.266 746.755ZM267.882 742.763C267.492 742.834 267.102 742.967 266.711 743.162C266.321 743.357 265.984 743.623 265.7 743.961C265.398 744.298 265.159 744.697 264.981 745.158C264.786 745.62 264.688 746.152 264.688 746.755C264.688 747.217 264.759 747.669 264.901 748.113C265.043 748.538 265.256 748.938 265.54 749.31C265.806 749.665 266.143 749.967 266.552 750.215C266.942 750.464 267.385 750.641 267.882 750.748V742.763ZM273.472 736.772V735.442L262.426 732.381V726.392L273.472 723.332V722.001H278.928V724.529H276V734.244H278.928V736.772H273.472ZM273.472 726.259L264.955 728.522V730.252L273.472 732.514V726.259ZM262.426 718.13V706.02H276V708.815H264.955V715.336H276V718.13H262.426ZM262.426 700.692V697.897H264.156V697.764C263.801 697.463 263.473 697.099 263.171 696.673C262.923 696.318 262.692 695.883 262.479 695.369C262.266 694.836 262.16 694.215 262.16 693.506C262.16 692.601 262.329 691.767 262.666 691.004C263.003 690.223 263.482 689.549 264.103 688.981C264.706 688.396 265.443 687.943 266.312 687.624C267.181 687.287 268.148 687.118 269.213 687.118C270.278 687.118 271.245 687.287 272.114 687.624C272.984 687.943 273.729 688.396 274.35 688.981C274.953 689.549 275.423 690.223 275.76 691.004C276.098 691.767 276.266 692.601 276.266 693.506C276.266 694.215 276.169 694.836 275.973 695.369C275.76 695.883 275.53 696.318 275.281 696.673C274.98 697.099 274.643 697.463 274.27 697.764V697.897H281.057V700.692H262.426ZM273.738 694.038C273.738 692.831 273.356 691.864 272.593 691.137C271.813 690.409 270.686 690.046 269.213 690.046C267.74 690.046 266.623 690.409 265.86 691.137C265.079 691.864 264.688 692.831 264.688 694.038C264.688 695.174 265.079 696.105 265.86 696.833C266.623 697.542 267.74 697.897 269.213 697.897C270.686 697.897 271.813 697.542 272.593 696.833C273.356 696.105 273.738 695.174 273.738 694.038ZM276.266 676.349C276.266 677.343 276.089 678.274 275.734 679.144C275.361 679.995 274.864 680.741 274.243 681.379C273.605 682.001 272.859 682.497 272.008 682.87C271.138 683.225 270.207 683.402 269.213 683.402C268.219 683.402 267.297 683.225 266.445 682.87C265.576 682.497 264.83 682.001 264.209 681.379C263.571 680.741 263.074 679.995 262.719 679.144C262.346 678.274 262.16 677.343 262.16 676.349C262.16 675.356 262.346 674.433 262.719 673.581C263.074 672.712 263.571 671.967 264.209 671.345C264.83 670.707 265.576 670.21 266.445 669.855C267.297 669.482 268.219 669.296 269.213 669.296C270.207 669.296 271.138 669.482 272.008 669.855C272.859 670.21 273.605 670.707 274.243 671.345C274.864 671.967 275.361 672.712 275.734 673.581C276.089 674.433 276.266 675.356 276.266 676.349ZM273.738 676.349C273.738 675.746 273.631 675.196 273.418 674.699C273.205 674.184 272.904 673.75 272.513 673.395C272.123 673.022 271.653 672.738 271.103 672.543C270.535 672.33 269.905 672.224 269.213 672.224C268.521 672.224 267.9 672.33 267.35 672.543C266.782 672.738 266.303 673.022 265.913 673.395C265.522 673.75 265.221 674.184 265.008 674.699C264.795 675.196 264.688 675.746 264.688 676.349C264.688 676.952 264.795 677.511 265.008 678.026C265.221 678.523 265.522 678.957 265.913 679.33C266.303 679.685 266.782 679.969 267.35 680.182C267.9 680.377 268.521 680.475 269.213 680.475C269.905 680.475 270.535 680.377 271.103 680.182C271.653 679.969 272.123 679.685 272.513 679.33C272.904 678.957 273.205 678.523 273.418 678.026C273.631 677.511 273.738 676.952 273.738 676.349ZM273.472 666.239V664.909L262.426 661.848V655.859L273.472 652.799V651.468H278.928V653.996H276V663.711H278.928V666.239H273.472ZM273.472 655.726L264.955 657.989V659.719L273.472 661.981V655.726ZM276.266 642.008C276.266 642.913 276.098 643.756 275.76 644.537C275.423 645.299 274.953 645.974 274.35 646.559C273.729 647.127 272.984 647.58 272.114 647.917C271.245 648.236 270.278 648.396 269.213 648.396C268.148 648.396 267.181 648.236 266.312 647.917C265.443 647.58 264.706 647.127 264.103 646.559C263.482 645.974 263.003 645.299 262.666 644.537C262.329 643.756 262.16 642.913 262.16 642.008C262.16 641.316 262.266 640.704 262.479 640.172C262.692 639.639 262.923 639.196 263.171 638.841C263.473 638.415 263.801 638.051 264.156 637.75V637.617H262.426V634.822H276V637.617H274.137V637.75C274.527 638.051 274.882 638.415 275.202 638.841C275.468 639.196 275.716 639.639 275.947 640.172C276.16 640.704 276.266 641.316 276.266 642.008ZM273.738 641.476C273.738 640.34 273.356 639.417 272.593 638.708C271.813 637.98 270.686 637.617 269.213 637.617C267.74 637.617 266.623 637.98 265.86 638.708C265.079 639.417 264.688 640.34 264.688 641.476C264.688 642.682 265.079 643.649 265.86 644.377C266.623 645.104 267.74 645.468 269.213 645.468C270.686 645.468 271.813 645.104 272.593 644.377C273.356 643.649 273.738 642.682 273.738 641.476ZM268.681 625.916L262.426 630.574V627.38L267.749 623.521V621.791H262.426V618.996H267.749V617.266L262.426 613.407V610.213L268.681 614.871L276 609.814V613.141L270.278 617.133V618.996H276V621.791H270.278V623.654L276 627.646V630.973L268.681 625.916ZM276.266 600.894C276.266 601.798 276.098 602.641 275.76 603.422C275.423 604.185 274.953 604.859 274.35 605.445C273.729 606.013 272.984 606.465 272.114 606.802C271.245 607.122 270.278 607.281 269.213 607.281C268.148 607.281 267.181 607.122 266.312 606.802C265.443 606.465 264.706 606.013 264.103 605.445C263.482 604.859 263.003 604.185 262.666 603.422C262.329 602.641 262.16 601.798 262.16 600.894C262.16 600.202 262.266 599.589 262.479 599.057C262.692 598.525 262.923 598.081 263.171 597.726C263.473 597.3 263.801 596.937 264.156 596.635V596.502H262.426V593.707H276V596.502H274.137V596.635C274.527 596.937 274.882 597.3 275.202 597.726C275.468 598.081 275.716 598.525 275.947 599.057C276.16 599.589 276.266 600.202 276.266 600.894ZM273.738 600.361C273.738 599.226 273.356 598.303 272.593 597.593C271.813 596.866 270.686 596.502 269.213 596.502C267.74 596.502 266.623 596.866 265.86 597.593C265.079 598.303 264.688 599.226 264.688 600.361C264.688 601.568 265.079 602.535 265.86 603.262C266.623 603.99 267.74 604.354 269.213 604.354C270.686 604.354 271.813 603.99 272.593 603.262C273.356 602.535 273.738 601.568 273.738 600.361Z" fill="black"/>
<path d="M385.426 788.403V776.293H399V779.088H387.955V785.608H399V788.403H385.426ZM399.266 764.71C399.266 765.704 399.089 766.635 398.734 767.505C398.361 768.356 397.864 769.102 397.243 769.74C396.605 770.362 395.859 770.858 395.008 771.231C394.138 771.586 393.207 771.763 392.213 771.763C391.219 771.763 390.297 771.586 389.445 771.231C388.576 770.858 387.83 770.362 387.209 769.74C386.571 769.102 386.074 768.356 385.719 767.505C385.346 766.635 385.16 765.704 385.16 764.71C385.16 763.717 385.346 762.794 385.719 761.942C386.074 761.073 386.571 760.328 387.209 759.706C387.83 759.068 388.576 758.571 389.445 758.216C390.297 757.843 391.219 757.657 392.213 757.657C393.207 757.657 394.138 757.843 395.008 758.216C395.859 758.571 396.605 759.068 397.243 759.706C397.864 760.328 398.361 761.073 398.734 761.942C399.089 762.794 399.266 763.717 399.266 764.71ZM396.738 764.71C396.738 764.107 396.631 763.557 396.418 763.06C396.205 762.545 395.904 762.111 395.513 761.756C395.123 761.383 394.653 761.099 394.103 760.904C393.535 760.691 392.905 760.585 392.213 760.585C391.521 760.585 390.9 760.691 390.35 760.904C389.782 761.099 389.303 761.383 388.913 761.756C388.522 762.111 388.221 762.545 388.008 763.06C387.795 763.557 387.688 764.107 387.688 764.71C387.688 765.313 387.795 765.872 388.008 766.387C388.221 766.884 388.522 767.318 388.913 767.691C389.303 768.046 389.782 768.33 390.35 768.543C390.9 768.738 391.521 768.836 392.213 768.836C392.905 768.836 393.535 768.738 394.103 768.543C394.653 768.33 395.123 768.046 395.513 767.691C395.904 767.318 396.205 766.884 396.418 766.387C396.631 765.872 396.738 765.313 396.738 764.71ZM385.426 750.874V744.886L399 741.16V744.087L387.955 747.015V748.745L399 751.673V754.6L385.426 750.874ZM385.426 737.31V734.515H390.882V727.861H385.426V725.067H399V727.861H393.411V734.515H399V737.31H385.426ZM399.266 714.152C399.266 715.057 399.098 715.9 398.76 716.681C398.423 717.444 397.953 718.118 397.35 718.704C396.729 719.271 395.984 719.724 395.114 720.061C394.245 720.38 393.278 720.54 392.213 720.54C391.148 720.54 390.181 720.38 389.312 720.061C388.443 719.724 387.706 719.271 387.103 718.704C386.482 718.118 386.003 717.444 385.666 716.681C385.329 715.9 385.16 715.057 385.16 714.152C385.16 713.46 385.266 712.848 385.479 712.316C385.692 711.784 385.923 711.34 386.171 710.985C386.473 710.559 386.801 710.196 387.156 709.894V709.761H385.426V706.966H399V709.761H397.137V709.894C397.527 710.196 397.882 710.559 398.202 710.985C398.468 711.34 398.716 711.784 398.947 712.316C399.16 712.848 399.266 713.46 399.266 714.152ZM396.738 713.62C396.738 712.484 396.356 711.562 395.593 710.852C394.813 710.125 393.686 709.761 392.213 709.761C390.74 709.761 389.623 710.125 388.86 710.852C388.079 711.562 387.688 712.484 387.688 713.62C387.688 714.827 388.079 715.794 388.86 716.521C389.623 717.249 390.74 717.612 392.213 717.612C393.686 717.612 394.813 717.249 395.593 716.521C396.356 715.794 396.738 714.827 396.738 713.62ZM394.076 699.524C393.863 700.003 393.579 700.429 393.224 700.802C392.923 701.121 392.524 701.414 392.027 701.68C391.512 701.929 390.865 702.053 390.084 702.053C389.427 702.053 388.815 701.937 388.247 701.707C387.662 701.458 387.165 701.104 386.757 700.642C386.349 700.181 386.029 699.622 385.799 698.965C385.55 698.309 385.426 697.564 385.426 696.73V690.608H399V693.403H394.875V696.863L399 698.992V702.186L394.076 699.524ZM392.346 693.403H387.955V696.597C387.955 697.395 388.159 698.016 388.567 698.46C388.975 698.903 389.481 699.125 390.084 699.125C390.758 699.125 391.308 698.921 391.734 698.513C392.142 698.105 392.346 697.466 392.346 696.597V693.403ZM423.266 782.415C423.266 783.373 423.098 784.269 422.76 785.103C422.406 785.937 421.918 786.655 421.297 787.259C420.658 787.862 419.913 788.341 419.061 788.696C418.191 789.033 417.242 789.202 416.213 789.202C415.184 789.202 414.244 789.033 413.392 788.696C412.522 788.341 411.777 787.862 411.156 787.259C410.517 786.655 410.029 785.937 409.692 785.103C409.337 784.269 409.16 783.373 409.16 782.415C409.16 781.74 409.231 781.128 409.373 780.578C409.515 780.028 409.701 779.54 409.932 779.114C410.163 778.671 410.429 778.289 410.73 777.97C411.032 777.65 411.334 777.367 411.635 777.118C412.345 776.55 413.161 776.142 414.084 775.894V778.822C413.64 778.963 413.241 779.194 412.886 779.514C412.585 779.78 412.309 780.143 412.061 780.605C411.813 781.066 411.688 781.669 411.688 782.415C411.688 782.947 411.795 783.453 412.008 783.932C412.221 784.393 412.522 784.801 412.913 785.156C413.303 785.493 413.782 785.768 414.35 785.981C414.9 786.176 415.521 786.274 416.213 786.274C416.905 786.274 417.535 786.176 418.103 785.981C418.653 785.768 419.123 785.493 419.513 785.156C419.904 784.801 420.205 784.393 420.418 783.932C420.631 783.453 420.738 782.947 420.738 782.415C420.738 781.652 420.613 781.031 420.365 780.552C420.117 780.072 419.842 779.691 419.54 779.407C419.203 779.088 418.804 778.848 418.342 778.688V775.894C419.283 776.142 420.108 776.55 420.818 777.118C421.119 777.367 421.421 777.65 421.722 777.97C422.006 778.289 422.264 778.671 422.494 779.114C422.725 779.54 422.911 780.028 423.053 780.578C423.195 781.128 423.266 781.74 423.266 782.415ZM411.955 768.45V772.974H409.426V761.131H411.955V765.655H423V768.45H411.955ZM423.266 751.015C423.266 752.008 423.089 752.94 422.734 753.809C422.361 754.661 421.864 755.406 421.243 756.045C420.605 756.666 419.859 757.163 419.008 757.535C418.138 757.89 417.207 758.068 416.213 758.068C415.219 758.068 414.297 757.89 413.445 757.535C412.576 757.163 411.83 756.666 411.209 756.045C410.571 755.406 410.074 754.661 409.719 753.809C409.346 752.94 409.16 752.008 409.16 751.015C409.16 750.021 409.346 749.098 409.719 748.247C410.074 747.377 410.571 746.632 411.209 746.011C411.83 745.372 412.576 744.875 413.445 744.521C414.297 744.148 415.219 743.962 416.213 743.962C417.207 743.962 418.138 744.148 419.008 744.521C419.859 744.875 420.605 745.372 421.243 746.011C421.864 746.632 422.361 747.377 422.734 748.247C423.089 749.098 423.266 750.021 423.266 751.015ZM420.738 751.015C420.738 750.411 420.631 749.861 420.418 749.365C420.205 748.85 419.904 748.415 419.513 748.06C419.123 747.688 418.653 747.404 418.103 747.209C417.535 746.996 416.905 746.889 416.213 746.889C415.521 746.889 414.9 746.996 414.35 747.209C413.782 747.404 413.303 747.688 412.913 748.06C412.522 748.415 412.221 748.85 412.008 749.365C411.795 749.861 411.688 750.411 411.688 751.015C411.688 751.618 411.795 752.177 412.008 752.691C412.221 753.188 412.522 753.623 412.913 753.996C413.303 754.35 413.782 754.634 414.35 754.847C414.9 755.042 415.521 755.14 416.213 755.14C416.905 755.14 417.535 755.042 418.103 754.847C418.653 754.634 419.123 754.35 419.513 753.996C419.904 753.623 420.205 753.188 420.418 752.691C420.631 752.177 420.738 751.618 420.738 751.015ZM409.426 739.441V736.647H418.475L418.742 736.673V736.407L409.426 730.259V727.198H423V729.993H413.951L413.685 729.966V730.232L423 736.38V739.441H409.426ZM409.426 721.873V717.881L417.544 714.288V713.755L409.426 710.162V706.17H423V708.964H413.418L413.152 708.938V709.071L420.605 712.424V715.618L413.152 718.972V719.105L413.418 719.078H423V721.873H409.426ZM423.266 694.593C423.266 695.587 423.089 696.518 422.734 697.388C422.361 698.24 421.864 698.985 421.243 699.624C420.605 700.245 419.859 700.741 419.008 701.114C418.138 701.469 417.207 701.646 416.213 701.646C415.219 701.646 414.297 701.469 413.445 701.114C412.576 700.741 411.83 700.245 411.209 699.624C410.571 698.985 410.074 698.24 409.719 697.388C409.346 696.518 409.16 695.587 409.16 694.593C409.16 693.6 409.346 692.677 409.719 691.825C410.074 690.956 410.571 690.211 411.209 689.59C411.83 688.951 412.576 688.454 413.445 688.099C414.297 687.726 415.219 687.54 416.213 687.54C417.207 687.54 418.138 687.726 419.008 688.099C419.859 688.454 420.605 688.951 421.243 689.59C421.864 690.211 422.361 690.956 422.734 691.825C423.089 692.677 423.266 693.6 423.266 694.593ZM420.738 694.593C420.738 693.99 420.631 693.44 420.418 692.943C420.205 692.428 419.904 691.994 419.513 691.639C419.123 691.266 418.653 690.982 418.103 690.787C417.535 690.574 416.905 690.468 416.213 690.468C415.521 690.468 414.9 690.574 414.35 690.787C413.782 690.982 413.303 691.266 412.913 691.639C412.522 691.994 412.221 692.428 412.008 692.943C411.795 693.44 411.688 693.99 411.688 694.593C411.688 695.196 411.795 695.755 412.008 696.27C412.221 696.767 412.522 697.202 412.913 697.574C413.303 697.929 413.782 698.213 414.35 698.426C414.9 698.621 415.521 698.719 416.213 698.719C416.905 698.719 417.535 698.621 418.103 698.426C418.653 698.213 419.123 697.929 419.513 697.574C419.904 697.202 420.205 696.767 420.418 696.27C420.631 695.755 420.738 695.196 420.738 694.593ZM423.266 677.031C423.266 677.989 423.098 678.885 422.76 679.719C422.406 680.553 421.918 681.272 421.297 681.875C420.658 682.478 419.913 682.958 419.061 683.312C418.191 683.65 417.242 683.818 416.213 683.818C415.184 683.818 414.244 683.65 413.392 683.312C412.522 682.958 411.777 682.478 411.156 681.875C410.517 681.272 410.029 680.553 409.692 679.719C409.337 678.885 409.16 677.989 409.16 677.031C409.16 676.357 409.231 675.745 409.373 675.195C409.515 674.645 409.701 674.157 409.932 673.731C410.163 673.287 410.429 672.906 410.73 672.586C411.032 672.267 411.334 671.983 411.635 671.735C412.345 671.167 413.161 670.759 414.084 670.51V673.438C413.64 673.58 413.241 673.811 412.886 674.13C412.585 674.396 412.309 674.76 412.061 675.221C411.813 675.683 411.688 676.286 411.688 677.031C411.688 677.564 411.795 678.069 412.008 678.548C412.221 679.01 412.522 679.418 412.913 679.773C413.303 680.11 413.782 680.385 414.35 680.598C414.9 680.793 415.521 680.89 416.213 680.89C416.905 680.89 417.535 680.793 418.103 680.598C418.653 680.385 419.123 680.11 419.513 679.773C419.904 679.418 420.205 679.01 420.418 678.548C420.631 678.069 420.738 677.564 420.738 677.031C420.738 676.268 420.613 675.647 420.365 675.168C420.117 674.689 419.842 674.308 419.54 674.024C419.203 673.704 418.804 673.465 418.342 673.305V670.51C419.283 670.759 420.108 671.167 420.818 671.735C421.119 671.983 421.421 672.267 421.722 672.586C422.006 672.906 422.264 673.287 422.494 673.731C422.725 674.157 422.911 674.645 423.053 675.195C423.195 675.745 423.266 676.357 423.266 677.031ZM411.955 663.066V667.591H409.426V655.747H411.955V660.272H423V663.066H411.955ZM409.426 651.886V649.091H413.951V645.764C413.951 644.966 414.066 644.247 414.297 643.609C414.527 642.97 414.847 642.429 415.255 641.985C415.663 641.524 416.142 641.178 416.692 640.947C417.242 640.699 417.837 640.574 418.475 640.574C419.114 640.574 419.709 640.699 420.259 640.947C420.809 641.178 421.288 641.524 421.696 641.985C422.104 642.429 422.423 642.97 422.654 643.609C422.885 644.247 423 644.966 423 645.764V651.886H409.426ZM420.472 645.764C420.472 645.019 420.294 644.46 419.939 644.088C419.567 643.697 419.079 643.502 418.475 643.502C417.872 643.502 417.393 643.697 417.038 644.088C416.666 644.46 416.479 645.019 416.479 645.764V649.091H420.472V645.764Z" fill="black"/>
</svg>
