<svg width="1151" height="408" viewBox="0 0 1151 408" fill="none" xmlns="http://www.w3.org/2000/svg">
<g clip-path="url(#clip0_268_71)">
<rect width="1151" height="408" rx="53" fill="#8F00FF"/>
<g clip-path="url(#clip1_268_71)">
<rect x="40" y="204" width="251" height="128" rx="44" fill="#B276E1"/>
<rect x="39" y="264" width="274" height="82" fill="#E7C8FF"/>
<path d="M136.448 244.715H121.813V239.227L131.366 221.543H138.074L128.521 239.024H136.448V232.52H136.854H142.546V239.024H146.408V244.715H142.546V250H136.448V244.715ZM163.07 241.87L164.9 240.447V240.243C164.656 240.406 164.358 240.542 164.005 240.65C163.707 240.758 163.328 240.853 162.867 240.935C162.406 241.016 161.864 241.057 161.241 241.057C159.886 241.057 158.599 240.799 157.379 240.284C156.186 239.769 155.13 239.065 154.208 238.17C153.314 237.276 152.596 236.232 152.053 235.04C151.539 233.82 151.281 232.506 151.281 231.097C151.281 229.687 151.552 228.359 152.094 227.113C152.663 225.839 153.463 224.728 154.493 223.779C155.522 222.831 156.756 222.086 158.192 221.543C159.655 221.001 161.282 220.73 163.07 220.73C164.859 220.73 166.471 221.001 167.908 221.543C169.371 222.086 170.618 222.831 171.648 223.779C172.678 224.728 173.464 225.839 174.006 227.113C174.575 228.387 174.859 229.742 174.859 231.178C174.859 232.181 174.71 233.156 174.412 234.105C174.141 235.026 173.775 235.934 173.315 236.829C172.881 237.723 172.366 238.59 171.77 239.43C171.174 240.271 170.577 241.084 169.981 241.87L163.68 250H156.769L163.07 241.87ZM163.07 235.772C164.696 235.772 165.984 235.325 166.932 234.43C167.881 233.536 168.355 232.425 168.355 231.097C168.355 229.769 167.881 228.658 166.932 227.763C165.984 226.869 164.696 226.422 163.07 226.422C161.444 226.422 160.157 226.869 159.208 227.763C158.26 228.658 157.785 229.769 157.785 231.097C157.785 232.425 158.26 233.536 159.208 234.43C160.157 235.325 161.444 235.772 163.07 235.772ZM201.671 221.543H206.346L189.272 250H184.597L201.671 221.543ZM203.297 250.407C202.321 250.407 201.413 250.23 200.573 249.878C199.733 249.526 199.001 249.038 198.378 248.415C197.755 247.791 197.267 247.059 196.914 246.219C196.562 245.379 196.386 244.471 196.386 243.496C196.386 242.52 196.562 241.612 196.914 240.772C197.267 239.932 197.755 239.2 198.378 238.577C199.001 237.953 199.733 237.466 200.573 237.113C201.413 236.761 202.321 236.585 203.297 236.585C204.272 236.585 205.18 236.761 206.021 237.113C206.861 237.466 207.592 237.953 208.216 238.577C208.839 239.2 209.327 239.932 209.679 240.772C210.032 241.612 210.208 242.52 210.208 243.496C210.208 244.471 210.032 245.379 209.679 246.219C209.327 247.059 208.839 247.791 208.216 248.415C207.592 249.038 206.861 249.526 206.021 249.878C205.18 250.23 204.272 250.407 203.297 250.407ZM203.297 246.341C204.11 246.341 204.787 246.07 205.329 245.528C205.871 244.986 206.142 244.309 206.142 243.496C206.142 242.683 205.871 242.005 205.329 241.463C204.787 240.921 204.11 240.65 203.297 240.65C202.484 240.65 201.806 240.921 201.264 241.463C200.722 242.005 200.451 242.683 200.451 243.496C200.451 244.309 200.722 244.986 201.264 245.528C201.806 246.07 202.484 246.341 203.297 246.341ZM187.646 234.959C186.67 234.959 185.762 234.783 184.922 234.43C184.082 234.078 183.35 233.59 182.727 232.967C182.104 232.343 181.616 231.612 181.263 230.772C180.911 229.931 180.735 229.023 180.735 228.048C180.735 227.072 180.911 226.164 181.263 225.324C181.616 224.484 182.104 223.752 182.727 223.129C183.35 222.506 184.082 222.018 184.922 221.665C185.762 221.313 186.67 221.137 187.646 221.137C188.621 221.137 189.529 221.313 190.369 221.665C191.21 222.018 191.941 222.506 192.565 223.129C193.188 223.752 193.676 224.484 194.028 225.324C194.38 226.164 194.557 227.072 194.557 228.048C194.557 229.023 194.38 229.931 194.028 230.772C193.676 231.612 193.188 232.343 192.565 232.967C191.941 233.59 191.21 234.078 190.369 234.43C189.529 234.783 188.621 234.959 187.646 234.959ZM187.646 230.893C188.459 230.893 189.136 230.622 189.678 230.08C190.22 229.538 190.491 228.861 190.491 228.048C190.491 227.235 190.22 226.557 189.678 226.015C189.136 225.473 188.459 225.202 187.646 225.202C186.833 225.202 186.155 225.473 185.613 226.015C185.071 226.557 184.8 227.235 184.8 228.048C184.8 228.861 185.071 229.538 185.613 230.08C186.155 230.622 186.833 230.893 187.646 230.893Z" fill="white"/>
</g>
<g clip-path="url(#clip2_268_71)">
<rect x="313" y="204" width="251" height="128" rx="44" fill="#B276E1"/>
<rect x="312" y="285" width="274" height="61" fill="#E7C8FF"/>
<path d="M405.805 272.813C404.477 272.813 403.285 272.678 402.228 272.407C401.198 272.136 400.277 271.783 399.464 271.35C398.678 270.916 397.987 270.428 397.39 269.886C396.821 269.317 396.333 268.734 395.927 268.138C394.978 266.783 394.342 265.225 394.016 263.463H400.317C400.507 264.168 400.832 264.777 401.293 265.292C401.672 265.753 402.214 266.173 402.919 266.553C403.651 266.932 404.613 267.122 405.805 267.122C407.54 267.122 408.854 266.729 409.749 265.943C410.643 265.157 411.09 264.195 411.09 263.057C411.09 261.837 410.684 260.861 409.871 260.13C409.058 259.371 407.838 258.991 406.212 258.991H399.301V254.52L406.822 249.438V249.235H395.439V243.543H415.562V249.235L408.041 253.91L407.635 254.072V254.316H408.651C409.871 254.316 411.009 254.547 412.066 255.007C413.123 255.441 414.044 256.064 414.83 256.877C415.643 257.663 416.267 258.585 416.7 259.642C417.161 260.699 417.391 261.837 417.391 263.057C417.391 264.384 417.12 265.645 416.578 266.837C416.036 268.003 415.264 269.032 414.261 269.927C413.258 270.821 412.039 271.526 410.602 272.041C409.193 272.556 407.594 272.813 405.805 272.813ZM437.306 272.813C435.382 272.813 433.58 272.447 431.899 271.715C430.219 270.984 428.756 269.967 427.509 268.667C426.262 267.339 425.273 265.753 424.541 263.91C423.837 262.067 423.484 260.021 423.484 257.772C423.484 255.549 423.837 253.517 424.541 251.674C425.273 249.804 426.262 248.218 427.509 246.918C428.756 245.59 430.219 244.56 431.899 243.828C433.58 243.096 435.382 242.73 437.306 242.73C439.23 242.73 441.033 243.096 442.713 243.828C444.393 244.56 445.857 245.59 447.103 246.918C448.35 248.218 449.326 249.804 450.03 251.674C450.762 253.517 451.128 255.549 451.128 257.772C451.128 260.021 450.762 262.067 450.03 263.91C449.326 265.753 448.35 267.339 447.103 268.667C445.857 269.967 444.393 270.984 442.713 271.715C441.033 272.447 439.23 272.813 437.306 272.813ZM437.306 267.122C438.363 267.122 439.339 266.932 440.233 266.553C441.127 266.173 441.9 265.604 442.55 264.845C443.201 264.059 443.702 263.084 444.054 261.918C444.434 260.726 444.624 259.344 444.624 257.772C444.624 256.2 444.434 254.831 444.054 253.666C443.702 252.473 443.201 251.498 442.55 250.739C441.9 249.953 441.127 249.37 440.233 248.991C439.339 248.611 438.363 248.422 437.306 248.422C436.249 248.422 435.274 248.611 434.379 248.991C433.485 249.37 432.712 249.953 432.062 250.739C431.412 251.498 430.897 252.473 430.517 253.666C430.165 254.831 429.989 256.2 429.989 257.772C429.989 259.344 430.165 260.726 430.517 261.918C430.897 263.084 431.412 264.059 432.062 264.845C432.712 265.604 433.485 266.173 434.379 266.553C435.274 266.932 436.249 267.122 437.306 267.122ZM478.355 243.543H483.03L465.956 272H461.281L478.355 243.543ZM479.981 272.407C479.006 272.407 478.098 272.23 477.258 271.878C476.418 271.526 475.686 271.038 475.062 270.415C474.439 269.791 473.951 269.059 473.599 268.219C473.247 267.379 473.07 266.471 473.07 265.496C473.07 264.52 473.247 263.612 473.599 262.772C473.951 261.932 474.439 261.2 475.062 260.577C475.686 259.953 476.418 259.466 477.258 259.113C478.098 258.761 479.006 258.585 479.981 258.585C480.957 258.585 481.865 258.761 482.705 259.113C483.545 259.466 484.277 259.953 484.9 260.577C485.524 261.2 486.011 261.932 486.364 262.772C486.716 263.612 486.892 264.52 486.892 265.496C486.892 266.471 486.716 267.379 486.364 268.219C486.011 269.059 485.524 269.791 484.9 270.415C484.277 271.038 483.545 271.526 482.705 271.878C481.865 272.23 480.957 272.407 479.981 272.407ZM479.981 268.341C480.794 268.341 481.472 268.07 482.014 267.528C482.556 266.986 482.827 266.309 482.827 265.496C482.827 264.683 482.556 264.005 482.014 263.463C481.472 262.921 480.794 262.65 479.981 262.65C479.168 262.65 478.491 262.921 477.949 263.463C477.407 264.005 477.136 264.683 477.136 265.496C477.136 266.309 477.407 266.986 477.949 267.528C478.491 268.07 479.168 268.341 479.981 268.341ZM464.33 256.959C463.355 256.959 462.447 256.783 461.607 256.43C460.766 256.078 460.035 255.59 459.411 254.967C458.788 254.343 458.3 253.612 457.948 252.772C457.596 251.931 457.419 251.023 457.419 250.048C457.419 249.072 457.596 248.164 457.948 247.324C458.3 246.484 458.788 245.752 459.411 245.129C460.035 244.506 460.766 244.018 461.607 243.665C462.447 243.313 463.355 243.137 464.33 243.137C465.306 243.137 466.214 243.313 467.054 243.665C467.894 244.018 468.626 244.506 469.249 245.129C469.873 245.752 470.36 246.484 470.713 247.324C471.065 248.164 471.241 249.072 471.241 250.048C471.241 251.023 471.065 251.931 470.713 252.772C470.36 253.612 469.873 254.343 469.249 254.967C468.626 255.59 467.894 256.078 467.054 256.43C466.214 256.783 465.306 256.959 464.33 256.959ZM464.33 252.893C465.143 252.893 465.821 252.622 466.363 252.08C466.905 251.538 467.176 250.861 467.176 250.048C467.176 249.235 466.905 248.557 466.363 248.015C465.821 247.473 465.143 247.202 464.33 247.202C463.517 247.202 462.84 247.473 462.298 248.015C461.756 248.557 461.485 249.235 461.485 250.048C461.485 250.861 461.756 251.538 462.298 252.08C462.84 252.622 463.517 252.893 464.33 252.893Z" fill="white"/>
</g>
<g clip-path="url(#clip3_268_71)">
<rect x="586" y="204" width="251" height="128" rx="44" fill="#B276E1"/>
<rect x="585" y="304" width="274" height="42" fill="#E7C8FF"/>
<path d="M677.098 269.658L672.22 273.316V266.609L677.708 262.543H683.196V291H677.098V269.658ZM702.713 291.813C701.385 291.813 700.193 291.678 699.136 291.407C698.106 291.163 697.185 290.824 696.372 290.39C695.586 289.957 694.895 289.469 694.298 288.927C693.729 288.385 693.242 287.829 692.835 287.26C691.886 285.932 691.25 284.401 690.924 282.666H697.225C697.415 283.344 697.74 283.927 698.201 284.414C698.58 284.848 699.123 285.241 699.827 285.593C700.559 285.946 701.521 286.122 702.713 286.122C704.34 286.122 705.586 285.715 706.453 284.902C707.348 284.089 707.795 283.073 707.795 281.853C707.795 280.525 707.348 279.455 706.453 278.642C705.586 277.802 704.34 277.382 702.713 277.382C701.846 277.382 701.128 277.49 700.559 277.707C699.99 277.896 699.529 278.1 699.177 278.317C698.77 278.588 698.459 278.886 698.242 279.211H691.941L693.16 262.543H711.86V268.235H698.445L698.038 273.926H698.242C698.621 273.547 699.082 273.208 699.624 272.91C700.085 272.666 700.667 272.436 701.372 272.219C702.104 272.002 702.957 271.893 703.933 271.893C705.397 271.893 706.765 272.164 708.039 272.707C709.313 273.221 710.41 273.926 711.332 274.82C712.253 275.715 712.971 276.772 713.486 277.991C714.028 279.184 714.299 280.471 714.299 281.853C714.299 283.235 714.028 284.536 713.486 285.756C712.944 286.948 712.172 287.992 711.169 288.886C710.166 289.78 708.947 290.485 707.51 291C706.101 291.542 704.502 291.813 702.713 291.813ZM741.111 262.543H745.786L728.712 291H724.037L741.111 262.543ZM742.737 291.407C741.761 291.407 740.853 291.23 740.013 290.878C739.173 290.526 738.441 290.038 737.818 289.415C737.195 288.791 736.707 288.059 736.354 287.219C736.002 286.379 735.826 285.471 735.826 284.496C735.826 283.52 736.002 282.612 736.354 281.772C736.707 280.932 737.195 280.2 737.818 279.577C738.441 278.953 739.173 278.466 740.013 278.113C740.853 277.761 741.761 277.585 742.737 277.585C743.712 277.585 744.62 277.761 745.46 278.113C746.301 278.466 747.032 278.953 747.656 279.577C748.279 280.2 748.767 280.932 749.119 281.772C749.472 282.612 749.648 283.52 749.648 284.496C749.648 285.471 749.472 286.379 749.119 287.219C748.767 288.059 748.279 288.791 747.656 289.415C747.032 290.038 746.301 290.526 745.46 290.878C744.62 291.23 743.712 291.407 742.737 291.407ZM742.737 287.341C743.55 287.341 744.227 287.07 744.769 286.528C745.311 285.986 745.582 285.309 745.582 284.496C745.582 283.683 745.311 283.005 744.769 282.463C744.227 281.921 743.55 281.65 742.737 281.65C741.924 281.65 741.246 281.921 740.704 282.463C740.162 283.005 739.891 283.683 739.891 284.496C739.891 285.309 740.162 285.986 740.704 286.528C741.246 287.07 741.924 287.341 742.737 287.341ZM727.086 275.959C726.11 275.959 725.202 275.783 724.362 275.43C723.522 275.078 722.79 274.59 722.167 273.967C721.543 273.343 721.056 272.612 720.703 271.772C720.351 270.931 720.175 270.023 720.175 269.048C720.175 268.072 720.351 267.164 720.703 266.324C721.056 265.484 721.543 264.752 722.167 264.129C722.79 263.506 723.522 263.018 724.362 262.665C725.202 262.313 726.11 262.137 727.086 262.137C728.061 262.137 728.969 262.313 729.809 262.665C730.65 263.018 731.381 263.506 732.005 264.129C732.628 264.752 733.116 265.484 733.468 266.324C733.82 267.164 733.997 268.072 733.997 269.048C733.997 270.023 733.82 270.931 733.468 271.772C733.116 272.612 732.628 273.343 732.005 273.967C731.381 274.59 730.65 275.078 729.809 275.43C728.969 275.783 728.061 275.959 727.086 275.959ZM727.086 271.893C727.899 271.893 728.576 271.622 729.118 271.08C729.66 270.538 729.931 269.861 729.931 269.048C729.931 268.235 729.66 267.557 729.118 267.015C728.576 266.473 727.899 266.202 727.086 266.202C726.273 266.202 725.595 266.473 725.053 267.015C724.511 267.557 724.24 268.235 724.24 269.048C724.24 269.861 724.511 270.538 725.053 271.08C725.595 271.622 726.273 271.893 727.086 271.893Z" fill="white"/>
</g>
<g clip-path="url(#clip4_268_71)">
<rect x="859" y="204" width="251" height="128" rx="44" fill="#B276E1"/>
<rect x="858" y="319" width="274" height="27" fill="#E7C8FF"/>
<path d="M966.009 306.813C964.22 306.813 962.594 306.542 961.13 306C959.694 305.458 958.461 304.713 957.431 303.764C956.401 302.816 955.602 301.704 955.033 300.431C954.491 299.157 954.22 297.802 954.22 296.365C954.22 295.363 954.355 294.401 954.626 293.479C954.924 292.531 955.29 291.609 955.724 290.715C956.184 289.82 956.699 288.953 957.268 288.113C957.865 287.273 958.474 286.46 959.098 285.674L965.399 277.543H972.31L966.009 285.674L964.179 287.097V287.3C964.423 287.137 964.721 287.002 965.074 286.893C965.372 286.785 965.751 286.69 966.212 286.609C966.673 286.528 967.215 286.487 967.838 286.487C969.193 286.487 970.467 286.744 971.659 287.259C972.879 287.774 973.936 288.479 974.83 289.373C975.752 290.268 976.47 291.325 976.985 292.544C977.527 293.737 977.798 295.037 977.798 296.447C977.798 297.883 977.513 299.225 976.944 300.471C976.402 301.718 975.616 302.816 974.586 303.764C973.556 304.713 972.31 305.458 970.846 306C969.41 306.542 967.797 306.813 966.009 306.813ZM966.009 301.122C967.635 301.122 968.922 300.675 969.871 299.78C970.819 298.886 971.293 297.775 971.293 296.447C971.293 295.119 970.819 294.008 969.871 293.113C968.922 292.219 967.635 291.772 966.009 291.772C964.383 291.772 963.095 292.219 962.147 293.113C961.198 294.008 960.724 295.119 960.724 296.447C960.724 297.775 961.198 298.886 962.147 299.78C963.095 300.675 964.383 301.122 966.009 301.122ZM1004.81 277.543H1009.49L992.414 306H987.739L1004.81 277.543ZM1006.44 306.407C1005.46 306.407 1004.56 306.23 1003.71 305.878C1002.87 305.526 1002.14 305.038 1001.52 304.415C1000.9 303.791 1000.41 303.059 1000.06 302.219C999.704 301.379 999.528 300.471 999.528 299.496C999.528 298.52 999.704 297.612 1000.06 296.772C1000.41 295.932 1000.9 295.2 1001.52 294.577C1002.14 293.953 1002.87 293.466 1003.71 293.113C1004.56 292.761 1005.46 292.585 1006.44 292.585C1007.41 292.585 1008.32 292.761 1009.16 293.113C1010 293.466 1010.73 293.953 1011.36 294.577C1011.98 295.2 1012.47 295.932 1012.82 296.772C1013.17 297.612 1013.35 298.52 1013.35 299.496C1013.35 300.471 1013.17 301.379 1012.82 302.219C1012.47 303.059 1011.98 303.791 1011.36 304.415C1010.73 305.038 1010 305.526 1009.16 305.878C1008.32 306.23 1007.41 306.407 1006.44 306.407ZM1006.44 302.341C1007.25 302.341 1007.93 302.07 1008.47 301.528C1009.01 300.986 1009.28 300.309 1009.28 299.496C1009.28 298.683 1009.01 298.005 1008.47 297.463C1007.93 296.921 1007.25 296.65 1006.44 296.65C1005.63 296.65 1004.95 296.921 1004.41 297.463C1003.86 298.005 1003.59 298.683 1003.59 299.496C1003.59 300.309 1003.86 300.986 1004.41 301.528C1004.95 302.07 1005.63 302.341 1006.44 302.341ZM990.787 290.959C989.812 290.959 988.904 290.783 988.064 290.43C987.224 290.078 986.492 289.59 985.869 288.967C985.245 288.343 984.757 287.612 984.405 286.772C984.053 285.931 983.877 285.023 983.877 284.048C983.877 283.072 984.053 282.164 984.405 281.324C984.757 280.484 985.245 279.752 985.869 279.129C986.492 278.506 987.224 278.018 988.064 277.665C988.904 277.313 989.812 277.137 990.787 277.137C991.763 277.137 992.671 277.313 993.511 277.665C994.351 278.018 995.083 278.506 995.706 279.129C996.33 279.752 996.818 280.484 997.17 281.324C997.522 282.164 997.698 283.072 997.698 284.048C997.698 285.023 997.522 285.931 997.17 286.772C996.818 287.612 996.33 288.343 995.706 288.967C995.083 289.59 994.351 290.078 993.511 290.43C992.671 290.783 991.763 290.959 990.787 290.959ZM990.787 286.893C991.601 286.893 992.278 286.622 992.82 286.08C993.362 285.538 993.633 284.861 993.633 284.048C993.633 283.235 993.362 282.557 992.82 282.015C992.278 281.473 991.601 281.202 990.787 281.202C989.974 281.202 989.297 281.473 988.755 282.015C988.213 282.557 987.942 283.235 987.942 284.048C987.942 284.861 988.213 285.538 988.755 286.08C989.297 286.622 989.974 286.893 990.787 286.893Z" fill="white"/>
</g>
<path d="M373.14 59.2H387L394.92 90H388.32L381.94 65.36H378.2L371.82 90H365.22L373.14 59.2ZM409.002 90H404.162L398.222 67.56H404.602L409.002 84.72H410.762L415.602 67.56H421.982L412.962 98.36H406.582L409.002 90ZM441.773 82.74C441.362 83.0333 440.878 83.2973 440.321 83.532C439.822 83.7373 439.221 83.9133 438.517 84.06C437.813 84.2067 436.992 84.28 436.053 84.28C433.296 84.28 431.14 83.532 429.585 82.036C428.03 80.5107 427.253 78.472 427.253 75.92V67.56H433.413V75.48C433.413 76.5947 433.721 77.46 434.337 78.076C434.982 78.692 435.921 79 437.153 79C437.916 79 438.576 78.9413 439.133 78.824C439.72 78.6773 440.218 78.5307 440.629 78.384C441.069 78.208 441.45 78.0027 441.773 77.768V67.56H447.933V90H441.773V82.74ZM456.312 67.56H462.472V84.72H468.632V67.56H474.792V84.72H480.952V67.56H487.112V90H456.312V67.56ZM504.693 90.66C503.256 90.66 501.906 90.3813 500.645 89.824C499.413 89.2667 498.328 88.4747 497.389 87.448C496.45 86.4213 495.702 85.1747 495.145 83.708C494.617 82.2413 494.353 80.5987 494.353 78.78C494.353 76.9613 494.617 75.3187 495.145 73.852C495.702 72.3853 496.45 71.1387 497.389 70.112C498.328 69.0853 499.413 68.2933 500.645 67.736C501.906 67.1787 503.256 66.9 504.693 66.9C505.925 66.9 506.966 67.0907 507.817 67.472C508.697 67.824 509.43 68.22 510.017 68.66C510.692 69.188 511.264 69.7747 511.733 70.42H511.953V67.56H518.113V90H511.953V87.14H511.733C511.264 87.7853 510.692 88.372 510.017 88.9C509.43 89.34 508.697 89.736 507.817 90.088C506.966 90.4693 505.925 90.66 504.693 90.66ZM506.233 85.38C507.905 85.38 509.269 84.808 510.325 83.664C511.41 82.52 511.953 80.892 511.953 78.78C511.953 76.668 511.41 75.04 510.325 73.896C509.269 72.752 507.905 72.18 506.233 72.18C504.678 72.18 503.373 72.752 502.317 73.896C501.261 75.04 500.733 76.668 500.733 78.78C500.733 80.892 501.261 82.52 502.317 83.664C503.373 84.808 504.678 85.38 506.233 85.38ZM529.993 81.86C529.23 81.508 528.57 81.0387 528.013 80.452C527.514 79.9533 527.06 79.2933 526.649 78.472C526.238 77.6213 526.033 76.5507 526.033 75.26C526.033 74.1747 526.224 73.1627 526.605 72.224C527.016 71.256 527.602 70.4347 528.365 69.76C529.157 69.0853 530.11 68.5573 531.225 68.176C532.34 67.7653 533.616 67.56 535.053 67.56H546.273V90H540.113V83.18H535.713L532.193 90H525.373L529.993 81.86ZM540.113 78.12V72.84H535.669C534.584 72.84 533.762 73.0747 533.205 73.544C532.677 74.0133 532.413 74.5853 532.413 75.26C532.413 76.14 532.677 76.844 533.205 77.372C533.762 77.8707 534.584 78.12 535.669 78.12H540.113ZM570.466 67.56H576.626V75.92H579.266L585.206 67.56H592.026L584.766 77.9L592.686 90H585.646L579.926 81.2H576.626V90H570.466V67.56ZM608.533 90.66C606.773 90.66 605.13 90.352 603.605 89.736C602.109 89.12 600.804 88.284 599.689 87.228C598.604 86.1427 597.753 84.8813 597.137 83.444C596.521 81.9773 596.213 80.4227 596.213 78.78C596.213 77.1373 596.521 75.5973 597.137 74.16C597.753 72.6933 598.604 71.432 599.689 70.376C600.804 69.2907 602.109 68.44 603.605 67.824C605.13 67.208 606.773 66.9 608.533 66.9C610.293 66.9 611.921 67.208 613.417 67.824C614.913 68.44 616.204 69.2907 617.289 70.376C618.404 71.432 619.269 72.6933 619.885 74.16C620.53 75.5973 620.853 77.1373 620.853 78.78C620.853 80.4227 620.53 81.9773 619.885 83.444C619.269 84.8813 618.404 86.1427 617.289 87.228C616.204 88.284 614.913 89.12 613.417 89.736C611.921 90.352 610.293 90.66 608.533 90.66ZM608.533 85.38C609.354 85.38 610.117 85.2187 610.821 84.896C611.554 84.5733 612.185 84.1333 612.713 83.576C613.27 82.9893 613.696 82.3 613.989 81.508C614.312 80.6867 614.473 79.7773 614.473 78.78C614.473 77.7827 614.312 76.888 613.989 76.096C613.696 75.2747 613.27 74.5853 612.713 74.028C612.185 73.4413 611.554 72.9867 610.821 72.664C610.117 72.3413 609.354 72.18 608.533 72.18C607.712 72.18 606.934 72.3413 606.201 72.664C605.497 72.9867 604.866 73.4413 604.309 74.028C603.781 74.5853 603.356 75.2747 603.033 76.096C602.74 76.888 602.593 77.7827 602.593 78.78C602.593 79.7773 602.74 80.6867 603.033 81.508C603.356 82.3 603.781 82.9893 604.309 83.576C604.866 84.1333 605.497 84.5733 606.201 84.896C606.934 85.2187 607.712 85.38 608.533 85.38ZM627.909 67.56H636.269L641.549 79.66H642.209L647.489 67.56H655.849V90H649.689V78.78L649.909 74.82H649.689L644.849 85.82H638.909L634.069 74.82H633.849L634.069 78.78V90H627.909V67.56ZM664.214 67.56H685.774V90H679.614V72.84H670.374V90H664.214V67.56ZM703.357 90.66C701.919 90.66 700.57 90.3813 699.309 89.824C698.077 89.2667 696.991 88.4747 696.053 87.448C695.114 86.4213 694.366 85.1747 693.809 83.708C693.281 82.2413 693.017 80.5987 693.017 78.78C693.017 76.9613 693.281 75.3187 693.809 73.852C694.366 72.3853 695.114 71.1387 696.053 70.112C696.991 69.0853 698.077 68.2933 699.309 67.736C700.57 67.1787 701.919 66.9 703.357 66.9C704.589 66.9 705.63 67.0907 706.481 67.472C707.361 67.824 708.094 68.22 708.681 68.66C709.355 69.188 709.927 69.7747 710.397 70.42H710.617V67.56H716.777V90H710.617V87.14H710.397C709.927 87.7853 709.355 88.372 708.681 88.9C708.094 89.34 707.361 89.736 706.481 90.088C705.63 90.4693 704.589 90.66 703.357 90.66ZM704.897 85.38C706.569 85.38 707.933 84.808 708.989 83.664C710.074 82.52 710.617 80.892 710.617 78.78C710.617 76.668 710.074 75.04 708.989 73.896C707.933 72.752 706.569 72.18 704.897 72.18C703.342 72.18 702.037 72.752 700.981 73.896C699.925 75.04 699.397 76.668 699.397 78.78C699.397 80.892 699.925 82.52 700.981 83.664C702.037 84.808 703.342 85.38 704.897 85.38ZM725.137 67.56H731.297V75.92H740.757V67.56H746.917V90H740.757V81.2H731.297V90H725.137V67.56ZM755.297 67.56H761.457V77.24L761.237 81.2H761.677L770.697 67.56H777.297V90H771.137V80.32L771.357 76.36H770.917L761.897 90H755.297V67.56ZM789.193 81.86C788.43 81.508 787.77 81.0387 787.213 80.452C786.714 79.9533 786.259 79.2933 785.849 78.472C785.438 77.6213 785.233 76.5507 785.233 75.26C785.233 74.1747 785.423 73.1627 785.805 72.224C786.215 71.256 786.802 70.4347 787.565 69.76C788.357 69.0853 789.31 68.5573 790.425 68.176C791.539 67.7653 792.815 67.56 794.253 67.56H805.473V90H799.313V83.18H794.913L791.393 90H784.573L789.193 81.86ZM799.313 78.12V72.84H794.869C793.783 72.84 792.962 73.0747 792.405 73.544C791.877 74.0133 791.613 74.5853 791.613 75.26C791.613 76.14 791.877 76.844 792.405 77.372C792.962 77.8707 793.783 78.12 794.869 78.12H799.313ZM367.42 125.56H373.58V133.92H383.04V125.56H389.2V148H383.04V139.2H373.58V148H367.42V125.56ZM406.821 148.66C405.383 148.66 404.034 148.381 402.773 147.824C401.541 147.267 400.455 146.475 399.517 145.448C398.578 144.421 397.83 143.175 397.273 141.708C396.745 140.241 396.481 138.599 396.481 136.78C396.481 134.961 396.745 133.319 397.273 131.852C397.83 130.385 398.578 129.139 399.517 128.112C400.455 127.085 401.541 126.293 402.773 125.736C404.034 125.179 405.383 124.9 406.821 124.9C408.053 124.9 409.094 125.091 409.945 125.472C410.825 125.824 411.558 126.22 412.145 126.66C412.819 127.188 413.391 127.775 413.861 128.42H414.081V125.56H420.241V148H414.081V145.14H413.861C413.391 145.785 412.819 146.372 412.145 146.9C411.558 147.34 410.825 147.736 409.945 148.088C409.094 148.469 408.053 148.66 406.821 148.66ZM408.361 143.38C410.033 143.38 411.397 142.808 412.453 141.664C413.538 140.52 414.081 138.892 414.081 136.78C414.081 134.668 413.538 133.04 412.453 131.896C411.397 130.752 410.033 130.18 408.361 130.18C406.806 130.18 405.501 130.752 404.445 131.896C403.389 133.04 402.861 134.668 402.861 136.78C402.861 138.892 403.389 140.52 404.445 141.664C405.501 142.808 406.806 143.38 408.361 143.38ZM454.793 148.44C453.15 148.323 451.61 147.941 450.173 147.296C448.765 146.651 447.533 145.815 446.477 144.788C445.45 143.732 444.629 142.529 444.013 141.18C443.426 139.801 443.133 138.335 443.133 136.78C443.133 135.255 443.426 133.803 444.013 132.424C444.629 131.045 445.45 129.843 446.477 128.816C447.533 127.76 448.765 126.909 450.173 126.264C451.61 125.619 453.15 125.237 454.793 125.12V117.2H460.953V125.12C462.595 125.237 464.121 125.619 465.529 126.264C466.966 126.909 468.198 127.76 469.225 128.816C470.281 129.843 471.102 131.045 471.689 132.424C472.305 133.803 472.613 135.255 472.613 136.78C472.613 138.335 472.305 139.801 471.689 141.18C471.102 142.529 470.281 143.732 469.225 144.788C468.198 145.815 466.966 146.651 465.529 147.296C464.121 147.941 462.595 148.323 460.953 148.44V156.272H454.793V148.44ZM454.793 130.4C453.238 130.635 451.962 131.295 450.965 132.38C449.997 133.436 449.513 134.903 449.513 136.78C449.513 138.657 449.997 140.139 450.965 141.224C451.962 142.28 453.238 142.925 454.793 143.16V130.4ZM460.953 143.16C462.507 142.925 463.769 142.28 464.737 141.224C465.734 140.139 466.233 138.657 466.233 136.78C466.233 134.903 465.734 133.436 464.737 132.38C463.769 131.295 462.507 130.635 460.953 130.4V143.16ZM490.421 148.66C488.719 148.66 487.121 148.352 485.625 147.736C484.158 147.12 482.882 146.284 481.797 145.228C480.711 144.143 479.861 142.881 479.245 141.444C478.629 139.977 478.321 138.423 478.321 136.78C478.321 135.137 478.629 133.597 479.245 132.16C479.861 130.693 480.711 129.432 481.797 128.376C482.882 127.291 484.158 126.44 485.625 125.824C487.121 125.208 488.719 124.9 490.421 124.9C492.181 124.9 493.779 125.208 495.217 125.824C496.683 126.44 497.945 127.291 499.001 128.376C500.057 129.461 500.863 130.723 501.421 132.16C502.007 133.597 502.301 135.137 502.301 136.78V138.1H484.701C484.818 138.804 485.038 139.479 485.361 140.124C485.713 140.769 486.138 141.341 486.637 141.84C487.165 142.309 487.751 142.691 488.397 142.984C489.042 143.248 489.717 143.38 490.421 143.38C491.418 143.38 492.225 143.248 492.841 142.984C493.486 142.691 494.014 142.383 494.425 142.06C494.865 141.679 495.217 141.239 495.481 140.74H502.081C501.611 142.207 500.878 143.527 499.881 144.7C499.441 145.199 498.927 145.683 498.341 146.152C497.754 146.621 497.079 147.047 496.317 147.428C495.554 147.809 494.674 148.103 493.677 148.308C492.709 148.543 491.623 148.66 490.421 148.66ZM495.701 134.36C495.583 133.803 495.378 133.275 495.085 132.776C494.791 132.277 494.41 131.837 493.941 131.456C493.501 131.075 492.973 130.767 492.357 130.532C491.77 130.297 491.125 130.18 490.421 130.18C488.983 130.18 487.781 130.605 486.813 131.456C485.874 132.277 485.243 133.245 484.921 134.36H495.701ZM520.323 148.66C518.622 148.66 517.023 148.352 515.527 147.736C514.061 147.12 512.785 146.284 511.699 145.228C510.614 144.143 509.763 142.881 509.147 141.444C508.531 139.977 508.223 138.423 508.223 136.78C508.223 135.137 508.531 133.597 509.147 132.16C509.763 130.693 510.614 129.432 511.699 128.376C512.785 127.291 514.061 126.44 515.527 125.824C517.023 125.208 518.622 124.9 520.323 124.9C521.526 124.9 522.611 125.032 523.579 125.296C524.547 125.531 525.413 125.853 526.175 126.264C526.938 126.675 527.598 127.144 528.155 127.672C528.742 128.2 529.241 128.743 529.651 129.3C530.619 130.591 531.323 132.057 531.763 133.7H525.383C525.119 133.055 524.767 132.468 524.327 131.94C523.917 131.5 523.389 131.104 522.743 130.752C522.127 130.371 521.321 130.18 520.323 130.18C519.561 130.18 518.827 130.341 518.123 130.664C517.449 130.987 516.847 131.441 516.319 132.028C515.791 132.585 515.366 133.275 515.043 134.096C514.75 134.888 514.603 135.783 514.603 136.78C514.603 137.777 514.75 138.687 515.043 139.508C515.366 140.3 515.791 140.989 516.319 141.576C516.847 142.133 517.449 142.573 518.123 142.896C518.827 143.219 519.561 143.38 520.323 143.38C521.321 143.38 522.127 143.204 522.743 142.852C523.389 142.471 523.917 142.06 524.327 141.62C524.767 141.092 525.119 140.505 525.383 139.86H531.763C531.382 141.503 530.707 142.969 529.739 144.26C529.329 144.817 528.83 145.36 528.243 145.888C527.686 146.416 527.026 146.885 526.263 147.296C525.501 147.707 524.621 148.029 523.623 148.264C522.655 148.528 521.555 148.66 520.323 148.66ZM544.082 130.84H536.602V125.56H557.722V130.84H550.242V148H544.082V130.84ZM563.892 125.56H570.052V135.24L569.832 139.2H570.272L579.292 125.56H585.892V148H579.732V138.32L579.952 134.36H579.512L570.492 148H563.892V125.56ZM594.268 125.56H606.588C607.79 125.56 608.846 125.707 609.756 126C610.665 126.264 611.413 126.645 612 127.144C612.616 127.643 613.07 128.229 613.364 128.904C613.686 129.579 613.848 130.297 613.848 131.06C613.848 132.116 613.642 132.967 613.232 133.612C612.85 134.228 612.425 134.712 611.956 135.064C611.428 135.475 610.812 135.753 610.108 135.9V136.12C610.988 136.296 611.794 136.604 612.528 137.044C613.114 137.455 613.657 138.012 614.156 138.716C614.684 139.42 614.948 140.388 614.948 141.62C614.948 142.529 614.757 143.38 614.376 144.172C614.024 144.935 613.496 145.609 612.792 146.196C612.088 146.753 611.208 147.193 610.152 147.516C609.125 147.839 607.937 148 606.588 148H594.268V125.56ZM606.148 143.38C606.91 143.38 607.541 143.145 608.04 142.676C608.538 142.207 608.788 141.635 608.788 140.96C608.788 140.285 608.538 139.713 608.04 139.244C607.541 138.775 606.91 138.54 606.148 138.54H600.428V143.38H606.148ZM605.708 134.14C606.382 134.14 606.91 133.949 607.292 133.568C607.702 133.187 607.908 132.717 607.908 132.16C607.908 131.603 607.702 131.133 607.292 130.752C606.91 130.371 606.382 130.18 605.708 130.18H600.428V134.14H605.708ZM631.434 148.66C629.996 148.66 628.647 148.381 627.386 147.824C626.154 147.267 625.068 146.475 624.13 145.448C623.191 144.421 622.443 143.175 621.886 141.708C621.358 140.241 621.094 138.599 621.094 136.78C621.094 134.961 621.358 133.319 621.886 131.852C622.443 130.385 623.191 129.139 624.13 128.112C625.068 127.085 626.154 126.293 627.386 125.736C628.647 125.179 629.996 124.9 631.434 124.9C632.666 124.9 633.707 125.091 634.558 125.472C635.438 125.824 636.171 126.22 636.758 126.66C637.432 127.188 638.004 127.775 638.474 128.42H638.694V125.56H644.854V148H638.694V145.14H638.474C638.004 145.785 637.432 146.372 636.758 146.9C636.171 147.34 635.438 147.736 634.558 148.088C633.707 148.469 632.666 148.66 631.434 148.66ZM632.974 143.38C634.646 143.38 636.01 142.808 637.066 141.664C638.151 140.52 638.694 138.892 638.694 136.78C638.694 134.668 638.151 133.04 637.066 131.896C636.01 130.752 634.646 130.18 632.974 130.18C631.419 130.18 630.114 130.752 629.058 131.896C628.002 133.04 627.474 134.668 627.474 136.78C627.474 138.892 628.002 140.52 629.058 141.664C630.114 142.808 631.419 143.38 632.974 143.38ZM656.734 125.56H668.614L674.554 148H668.394L663.774 130.84H661.574L656.954 148H650.794L656.734 125.56ZM680.495 125.56H686.655V132.6H691.715C693.094 132.6 694.341 132.805 695.455 133.216C696.57 133.627 697.509 134.184 698.271 134.888C699.063 135.592 699.665 136.413 700.075 137.352C700.515 138.261 700.735 139.244 700.735 140.3C700.735 141.356 700.515 142.353 700.075 143.292C699.665 144.201 699.063 145.008 698.271 145.712C697.509 146.416 696.57 146.973 695.455 147.384C694.341 147.795 693.094 148 691.715 148H680.495V125.56ZM691.275 142.94C692.273 142.94 693.035 142.691 693.563 142.192C694.091 141.693 694.355 141.063 694.355 140.3C694.355 139.537 694.091 138.907 693.563 138.408C693.035 137.909 692.273 137.66 691.275 137.66H686.655V142.94H691.275Z" fill="white"/>
<path d="M400.585 371.266C399.627 371.266 398.731 371.098 397.897 370.76C397.063 370.406 396.345 369.918 395.741 369.297C395.138 368.658 394.659 367.913 394.304 367.061C393.967 366.191 393.798 365.242 393.798 364.213C393.798 363.184 393.967 362.244 394.304 361.392C394.659 360.522 395.138 359.777 395.741 359.156C396.345 358.517 397.063 358.029 397.897 357.692C398.731 357.337 399.627 357.16 400.585 357.16C401.26 357.16 401.872 357.231 402.422 357.373C402.972 357.515 403.46 357.701 403.886 357.932C404.329 358.163 404.711 358.429 405.03 358.73C405.35 359.032 405.633 359.334 405.882 359.635C406.45 360.345 406.858 361.161 407.106 362.084H404.178C404.037 361.64 403.806 361.241 403.486 360.886C403.22 360.585 402.857 360.309 402.395 360.061C401.934 359.813 401.331 359.688 400.585 359.688C400.053 359.688 399.547 359.795 399.068 360.008C398.607 360.221 398.199 360.522 397.844 360.913C397.507 361.303 397.232 361.782 397.019 362.35C396.824 362.9 396.726 363.521 396.726 364.213C396.726 364.905 396.824 365.535 397.019 366.103C397.232 366.653 397.507 367.123 397.844 367.513C398.199 367.904 398.607 368.205 399.068 368.418C399.547 368.631 400.053 368.738 400.585 368.738C401.348 368.738 401.969 368.613 402.448 368.365C402.928 368.117 403.309 367.842 403.593 367.54C403.912 367.203 404.152 366.804 404.312 366.342H407.106C406.858 367.283 406.45 368.108 405.882 368.818C405.633 369.119 405.35 369.421 405.03 369.722C404.711 370.006 404.329 370.264 403.886 370.494C403.46 370.725 402.972 370.911 402.422 371.053C401.872 371.195 401.26 371.266 400.585 371.266ZM417.611 371.266C416.653 371.266 415.748 371.089 414.896 370.734C414.062 370.361 413.326 369.864 412.687 369.243C412.066 368.605 411.578 367.859 411.223 367.008C410.868 366.138 410.691 365.207 410.691 364.213C410.691 363.219 410.868 362.297 411.223 361.445C411.578 360.576 412.066 359.83 412.687 359.209C413.326 358.571 414.062 358.074 414.896 357.719C415.748 357.346 416.653 357.16 417.611 357.16C418.569 357.16 419.465 357.346 420.299 357.719C421.151 358.074 421.887 358.571 422.508 359.209C423.147 359.83 423.644 360.576 423.999 361.445C424.353 362.297 424.531 363.219 424.531 364.213V365.145H413.486C413.592 365.712 413.769 366.218 414.018 366.662C414.266 367.105 414.577 367.487 414.949 367.806C415.322 368.108 415.73 368.338 416.174 368.498C416.635 368.658 417.114 368.738 417.611 368.738C418.303 368.738 418.897 368.649 419.394 368.472C419.891 368.276 420.29 368.055 420.592 367.806C420.947 367.54 421.239 367.229 421.47 366.875H424.398C424.061 367.709 423.591 368.445 422.987 369.084C422.721 369.35 422.419 369.616 422.082 369.882C421.745 370.148 421.355 370.388 420.911 370.601C420.468 370.796 419.971 370.956 419.421 371.08C418.871 371.204 418.267 371.266 417.611 371.266ZM421.603 362.882C421.532 362.492 421.399 362.102 421.204 361.711C421.009 361.321 420.743 360.984 420.406 360.7C420.068 360.398 419.669 360.159 419.208 359.981C418.747 359.786 418.214 359.688 417.611 359.688C417.15 359.688 416.697 359.759 416.254 359.901C415.828 360.043 415.428 360.256 415.056 360.54C414.701 360.806 414.399 361.143 414.151 361.552C413.903 361.942 413.725 362.385 413.619 362.882H421.603ZM429.058 357.426H433.05L436.643 365.544H437.175L440.768 357.426H444.761V371H441.966V361.418L441.993 361.152H441.86L438.506 368.605H435.312L431.959 361.152H431.826L431.852 361.418V371H429.058V357.426ZM450.083 357.426H452.877V361.951H456.204C457.003 361.951 457.721 362.066 458.36 362.297C458.999 362.527 459.54 362.847 459.984 363.255C460.445 363.663 460.791 364.142 461.022 364.692C461.27 365.242 461.394 365.837 461.394 366.475C461.394 367.114 461.27 367.709 461.022 368.259C460.791 368.809 460.445 369.288 459.984 369.696C459.54 370.104 458.999 370.423 458.36 370.654C457.721 370.885 457.003 371 456.204 371H450.083V357.426ZM456.204 368.472C456.949 368.472 457.508 368.294 457.881 367.939C458.271 367.567 458.467 367.079 458.467 366.475C458.467 365.872 458.271 365.393 457.881 365.038C457.508 364.666 456.949 364.479 456.204 364.479H452.877V368.472H456.204ZM467.779 366.076C467.3 365.863 466.874 365.579 466.501 365.224C466.182 364.923 465.889 364.524 465.623 364.027C465.375 363.512 465.25 362.865 465.25 362.084C465.25 361.427 465.366 360.815 465.596 360.247C465.845 359.662 466.2 359.165 466.661 358.757C467.122 358.349 467.681 358.029 468.338 357.799C468.994 357.55 469.74 357.426 470.573 357.426H476.695V371H473.9V366.875H470.44L468.311 371H465.117L467.779 366.076ZM473.9 364.346V359.955H470.707C469.908 359.955 469.287 360.159 468.843 360.567C468.4 360.975 468.178 361.481 468.178 362.084C468.178 362.758 468.382 363.308 468.79 363.734C469.198 364.142 469.837 364.346 470.707 364.346H473.9Z" fill="white"/>
<path d="M109.133 368.472H110.464L113.525 357.426H119.513L122.574 368.472H123.905V373.928H121.376V371H111.662V373.928H109.133V368.472ZM119.646 368.472L117.384 359.955H115.654L113.392 368.472H119.646ZM127.775 357.426H130.57V359.156H130.703C131.005 358.801 131.368 358.473 131.794 358.171C132.149 357.923 132.584 357.692 133.098 357.479C133.631 357.266 134.252 357.16 134.961 357.16C135.866 357.16 136.7 357.329 137.463 357.666C138.244 358.003 138.918 358.482 139.486 359.103C140.072 359.706 140.524 360.443 140.843 361.312C141.181 362.181 141.349 363.148 141.349 364.213C141.349 365.278 141.181 366.245 140.843 367.114C140.524 367.984 140.072 368.729 139.486 369.35C138.918 369.953 138.244 370.423 137.463 370.76C136.7 371.098 135.866 371.266 134.961 371.266C134.252 371.266 133.631 371.169 133.098 370.973C132.584 370.76 132.149 370.53 131.794 370.281C131.368 369.98 131.005 369.643 130.703 369.27H130.57V376.057H127.775V357.426ZM134.429 368.738C135.636 368.738 136.603 368.356 137.33 367.593C138.058 366.813 138.421 365.686 138.421 364.213C138.421 362.74 138.058 361.623 137.33 360.86C136.603 360.079 135.636 359.688 134.429 359.688C133.294 359.688 132.362 360.079 131.635 360.86C130.925 361.623 130.57 362.74 130.57 364.213C130.57 365.686 130.925 366.813 131.635 367.593C132.362 368.356 133.294 368.738 134.429 368.738ZM150.663 371H147.869L144.143 357.426H147.07L149.998 368.338H151.462L154.656 357.426H157.583L151.994 376.057H149.067L150.663 371ZM166.094 371.266C165.402 371.266 164.781 371.195 164.231 371.053C163.699 370.929 163.22 370.76 162.794 370.548C162.386 370.335 162.031 370.095 161.729 369.829C161.445 369.545 161.206 369.252 161.011 368.951C160.549 368.259 160.248 367.478 160.106 366.608H162.9C162.989 366.999 163.158 367.354 163.406 367.673C163.619 367.939 163.929 368.188 164.338 368.418C164.763 368.631 165.349 368.738 166.094 368.738C167.106 368.738 167.824 368.569 168.25 368.232C168.676 367.877 168.889 367.469 168.889 367.008C168.889 366.546 168.676 366.147 168.25 365.81C167.824 365.455 167.106 365.278 166.094 365.278H164.63V362.882H166.094C167.035 362.882 167.691 362.731 168.064 362.43C168.436 362.128 168.623 361.747 168.623 361.285C168.623 360.877 168.41 360.514 167.984 360.194C167.576 359.857 166.901 359.688 165.961 359.688C165.358 359.688 164.879 359.786 164.524 359.981C164.187 360.159 163.921 360.354 163.725 360.567C163.512 360.815 163.371 361.099 163.3 361.418H160.505C160.682 360.62 161.002 359.91 161.463 359.289C161.658 359.023 161.889 358.766 162.155 358.517C162.439 358.251 162.767 358.021 163.14 357.825C163.512 357.63 163.938 357.471 164.417 357.346C164.914 357.222 165.473 357.16 166.094 357.16C166.999 357.16 167.78 357.266 168.436 357.479C169.111 357.675 169.661 357.941 170.086 358.278C170.53 358.615 170.858 359.014 171.071 359.476C171.302 359.919 171.417 360.389 171.417 360.886C171.417 361.472 171.293 361.96 171.045 362.35C170.796 362.723 170.521 363.015 170.22 363.228C169.865 363.494 169.465 363.69 169.022 363.814V363.92C169.519 364.027 169.962 364.213 170.353 364.479C170.69 364.71 170.991 365.038 171.258 365.464C171.541 365.89 171.683 366.449 171.683 367.141C171.683 367.709 171.568 368.241 171.337 368.738C171.107 369.235 170.752 369.669 170.273 370.042C169.811 370.414 169.226 370.716 168.516 370.947C167.824 371.16 167.017 371.266 166.094 371.266ZM176.347 357.426H179.142V361.951H182.469C183.267 361.951 183.986 362.066 184.625 362.297C185.263 362.527 185.805 362.847 186.248 363.255C186.71 363.663 187.056 364.142 187.286 364.692C187.535 365.242 187.659 365.837 187.659 366.475C187.659 367.114 187.535 367.709 187.286 368.259C187.056 368.809 186.71 369.288 186.248 369.696C185.805 370.104 185.263 370.423 184.625 370.654C183.986 370.885 183.267 371 182.469 371H176.347V357.426ZM182.469 368.472C183.214 368.472 183.773 368.294 184.146 367.939C184.536 367.567 184.731 367.079 184.731 366.475C184.731 365.872 184.536 365.393 184.146 365.038C183.773 364.666 183.214 364.479 182.469 364.479H179.142V368.472H182.469ZM194.043 366.076C193.564 365.863 193.139 365.579 192.766 365.224C192.447 364.923 192.154 364.524 191.888 364.027C191.639 363.512 191.515 362.865 191.515 362.084C191.515 361.427 191.63 360.815 191.861 360.247C192.109 359.662 192.464 359.165 192.926 358.757C193.387 358.349 193.946 358.029 194.602 357.799C195.259 357.55 196.004 357.426 196.838 357.426H202.96V371H200.165V366.875H196.705L194.576 371H191.382L194.043 366.076ZM200.165 364.346V359.955H196.971C196.173 359.955 195.552 360.159 195.108 360.567C194.664 360.975 194.443 361.481 194.443 362.084C194.443 362.758 194.647 363.308 195.055 363.734C195.463 364.142 196.102 364.346 196.971 364.346H200.165Z" fill="white"/>
<path d="M660.597 357.426H672.707V371H669.912V359.955H663.392V371H660.597V357.426ZM683.624 371.266C682.72 371.266 681.877 371.098 681.096 370.76C680.333 370.423 679.659 369.953 679.073 369.35C678.505 368.729 678.053 367.984 677.716 367.114C677.396 366.245 677.237 365.278 677.237 364.213C677.237 363.148 677.396 362.181 677.716 361.312C678.053 360.443 678.505 359.706 679.073 359.103C679.659 358.482 680.333 358.003 681.096 357.666C681.877 357.329 682.72 357.16 683.624 357.16C684.316 357.16 684.929 357.266 685.461 357.479C685.993 357.692 686.437 357.923 686.792 358.171C687.218 358.473 687.581 358.801 687.883 359.156H688.016V357.426H690.811V371H688.016V369.137H687.883C687.581 369.527 687.218 369.882 686.792 370.202C686.437 370.468 685.993 370.716 685.461 370.947C684.929 371.16 684.316 371.266 683.624 371.266ZM684.157 368.738C685.292 368.738 686.215 368.356 686.925 367.593C687.652 366.813 688.016 365.686 688.016 364.213C688.016 362.74 687.652 361.623 686.925 360.86C686.215 360.079 685.292 359.688 684.157 359.688C682.95 359.688 681.983 360.079 681.256 360.86C680.528 361.623 680.164 362.74 680.164 364.213C680.164 365.686 680.528 366.813 681.256 367.593C681.983 368.356 682.95 368.738 684.157 368.738ZM696.123 357.426H698.918V359.156H699.051C699.353 358.801 699.716 358.473 700.142 358.171C700.497 357.923 700.932 357.692 701.446 357.479C701.979 357.266 702.6 357.16 703.309 357.16C704.214 357.16 705.048 357.329 705.811 357.666C706.592 358.003 707.266 358.482 707.834 359.103C708.42 359.706 708.872 360.443 709.191 361.312C709.529 362.181 709.697 363.148 709.697 364.213C709.697 365.278 709.529 366.245 709.191 367.114C708.872 367.984 708.42 368.729 707.834 369.35C707.266 369.953 706.592 370.423 705.811 370.76C705.048 371.098 704.214 371.266 703.309 371.266C702.6 371.266 701.979 371.169 701.446 370.973C700.932 370.76 700.497 370.53 700.142 370.281C699.716 369.98 699.353 369.643 699.051 369.27H698.918V376.057H696.123V357.426ZM702.777 368.738C703.984 368.738 704.951 368.356 705.678 367.593C706.406 366.813 706.769 365.686 706.769 364.213C706.769 362.74 706.406 361.623 705.678 360.86C704.951 360.079 703.984 359.688 702.777 359.688C701.642 359.688 700.71 360.079 699.982 360.86C699.273 361.623 698.918 362.74 698.918 364.213C698.918 365.686 699.273 366.813 699.982 367.593C700.71 368.356 701.642 368.738 702.777 368.738ZM717.272 359.955H712.747V357.426H724.591V359.955H720.067V371H717.272V359.955ZM728.453 357.426H731.247V362.882H737.901V357.426H740.696V371H737.901V365.411H731.247V371H728.453V357.426ZM752.142 371.266C751.184 371.266 750.279 371.089 749.428 370.734C748.594 370.361 747.857 369.864 747.219 369.243C746.598 368.605 746.11 367.859 745.755 367.008C745.4 366.138 745.222 365.207 745.222 364.213C745.222 363.219 745.4 362.297 745.755 361.445C746.11 360.576 746.598 359.83 747.219 359.209C747.857 358.571 748.594 358.074 749.428 357.719C750.279 357.346 751.184 357.16 752.142 357.16C753.101 357.16 753.997 357.346 754.831 357.719C755.682 358.074 756.419 358.571 757.04 359.209C757.678 359.83 758.175 360.576 758.53 361.445C758.885 362.297 759.062 363.219 759.062 364.213V365.145H748.017C748.123 365.712 748.301 366.218 748.549 366.662C748.798 367.105 749.108 367.487 749.481 367.806C749.853 368.108 750.262 368.338 750.705 368.498C751.167 368.658 751.646 368.738 752.142 368.738C752.834 368.738 753.429 368.649 753.926 368.472C754.422 368.276 754.822 368.055 755.123 367.806C755.478 367.54 755.771 367.229 756.002 366.875H758.929C758.592 367.709 758.122 368.445 757.519 369.084C757.253 369.35 756.951 369.616 756.614 369.882C756.277 370.148 755.886 370.388 755.443 370.601C754.999 370.796 754.502 370.956 753.952 371.08C753.402 371.204 752.799 371.266 752.142 371.266ZM756.135 362.882C756.064 362.492 755.931 362.102 755.735 361.711C755.54 361.321 755.274 360.984 754.937 360.7C754.6 360.398 754.201 360.159 753.739 359.981C753.278 359.786 752.746 359.688 752.142 359.688C751.681 359.688 751.229 359.759 750.785 359.901C750.359 360.043 749.96 360.256 749.587 360.54C749.232 360.806 748.931 361.143 748.682 361.552C748.434 361.942 748.257 362.385 748.15 362.882H756.135ZM763.589 357.426H766.384V359.156H766.517C766.818 358.801 767.182 358.473 767.608 358.171C767.963 357.923 768.398 357.692 768.912 357.479C769.444 357.266 770.066 357.16 770.775 357.16C771.68 357.16 772.514 357.329 773.277 357.666C774.058 358.003 774.732 358.482 775.3 359.103C775.885 359.706 776.338 360.443 776.657 361.312C776.994 362.181 777.163 363.148 777.163 364.213C777.163 365.278 776.994 366.245 776.657 367.114C776.338 367.984 775.885 368.729 775.3 369.35C774.732 369.953 774.058 370.423 773.277 370.76C772.514 371.098 771.68 371.266 770.775 371.266C770.066 371.266 769.444 371.169 768.912 370.973C768.398 370.76 767.963 370.53 767.608 370.281C767.182 369.98 766.818 369.643 766.517 369.27H766.384V376.057H763.589V357.426ZM770.243 368.738C771.45 368.738 772.417 368.356 773.144 367.593C773.872 366.813 774.235 365.686 774.235 364.213C774.235 362.74 773.872 361.623 773.144 360.86C772.417 360.079 771.45 359.688 770.243 359.688C769.107 359.688 768.176 360.079 767.448 360.86C766.739 361.623 766.384 362.74 766.384 364.213C766.384 365.686 766.739 366.813 767.448 367.593C768.176 368.356 769.107 368.738 770.243 368.738Z" fill="white"/>
<path d="M907.597 357.426H914.384C915.715 357.426 916.735 357.746 917.445 358.384C918.154 359.023 918.509 359.813 918.509 360.753C918.509 361.392 918.394 361.906 918.163 362.297C917.95 362.669 917.711 362.962 917.445 363.175C917.125 363.423 916.77 363.592 916.38 363.681V363.787C916.877 363.876 917.32 364.053 917.711 364.32C918.048 364.55 918.35 364.887 918.616 365.331C918.9 365.757 919.042 366.351 919.042 367.114C919.042 367.646 918.935 368.152 918.722 368.631C918.509 369.11 918.208 369.527 917.817 369.882C917.427 370.219 916.948 370.494 916.38 370.707C915.83 370.902 915.209 371 914.517 371H907.597V357.426ZM914.384 368.472C914.987 368.472 915.448 368.321 915.768 368.019C916.087 367.7 916.247 367.274 916.247 366.742C916.247 366.28 916.087 365.899 915.768 365.597C915.448 365.295 914.987 365.145 914.384 365.145H910.392V368.472H914.384ZM914.118 362.749C915.182 362.749 915.715 362.261 915.715 361.285C915.715 360.877 915.582 360.558 915.315 360.327C915.049 360.079 914.65 359.955 914.118 359.955H910.392V362.749H914.118ZM939.553 371.266C938.559 371.266 937.628 371.089 936.758 370.734C935.907 370.361 935.162 369.864 934.523 369.243C933.902 368.605 933.405 367.859 933.032 367.008C932.677 366.138 932.5 365.207 932.5 364.213C932.5 363.219 932.677 362.297 933.032 361.445C933.405 360.576 933.902 359.83 934.523 359.209C935.162 358.571 935.907 358.074 936.758 357.719C937.628 357.346 938.559 357.16 939.553 357.16C940.547 357.16 941.469 357.346 942.321 357.719C943.19 358.074 943.936 358.571 944.557 359.209C945.196 359.83 945.692 360.576 946.047 361.445C946.42 362.297 946.606 363.219 946.606 364.213C946.606 365.207 946.42 366.138 946.047 367.008C945.692 367.859 945.196 368.605 944.557 369.243C943.936 369.864 943.19 370.361 942.321 370.734C941.469 371.089 940.547 371.266 939.553 371.266ZM939.553 368.738C940.156 368.738 940.706 368.631 941.203 368.418C941.718 368.205 942.152 367.904 942.507 367.513C942.88 367.123 943.164 366.653 943.359 366.103C943.572 365.535 943.678 364.905 943.678 364.213C943.678 363.521 943.572 362.9 943.359 362.35C943.164 361.782 942.88 361.303 942.507 360.913C942.152 360.522 941.718 360.221 941.203 360.008C940.706 359.795 940.156 359.688 939.553 359.688C938.95 359.688 938.391 359.795 937.876 360.008C937.379 360.221 936.945 360.522 936.572 360.913C936.217 361.303 935.933 361.782 935.72 362.35C935.525 362.9 935.428 363.521 935.428 364.213C935.428 364.905 935.525 365.535 935.72 366.103C935.933 366.653 936.217 367.123 936.572 367.513C936.945 367.904 937.379 368.205 937.876 368.418C938.391 368.631 938.95 368.738 939.553 368.738ZM949.663 368.472H950.994L954.054 357.426H960.043L963.104 368.472H964.434V373.928H961.906V371H952.191V373.928H949.663V368.472ZM960.176 368.472L957.914 359.955H956.184L953.921 368.472H960.176ZM968.305 357.426H971.1V366.475L971.073 366.742H971.339L977.487 357.426H980.548V371H977.753V361.951L977.78 361.685H977.514L971.366 371H968.305V357.426ZM985.873 357.426H988.668V362.882H995.322V357.426H998.116V371H995.322V365.411H988.668V371H985.873V357.426ZM1009.7 371.266C1008.7 371.266 1007.77 371.089 1006.9 370.734C1006.05 370.361 1005.3 369.864 1004.67 369.243C1004.04 368.605 1003.55 367.859 1003.18 367.008C1002.82 366.138 1002.64 365.207 1002.64 364.213C1002.64 363.219 1002.82 362.297 1003.18 361.445C1003.55 360.576 1004.04 359.83 1004.67 359.209C1005.3 358.571 1006.05 358.074 1006.9 357.719C1007.77 357.346 1008.7 357.16 1009.7 357.16C1010.69 357.16 1011.61 357.346 1012.46 357.719C1013.33 358.074 1014.08 358.571 1014.7 359.209C1015.34 359.83 1015.84 360.576 1016.19 361.445C1016.56 362.297 1016.75 363.219 1016.75 364.213C1016.75 365.207 1016.56 366.138 1016.19 367.008C1015.84 367.859 1015.34 368.605 1014.7 369.243C1014.08 369.864 1013.33 370.361 1012.46 370.734C1011.61 371.089 1010.69 371.266 1009.7 371.266ZM1009.7 368.738C1010.3 368.738 1010.85 368.631 1011.35 368.418C1011.86 368.205 1012.3 367.904 1012.65 367.513C1013.02 367.123 1013.31 366.653 1013.5 366.103C1013.71 365.535 1013.82 364.905 1013.82 364.213C1013.82 363.521 1013.71 362.9 1013.5 362.35C1013.31 361.782 1013.02 361.303 1012.65 360.913C1012.3 360.522 1011.86 360.221 1011.35 360.008C1010.85 359.795 1010.3 359.688 1009.7 359.688C1009.09 359.688 1008.53 359.795 1008.02 360.008C1007.52 360.221 1007.09 360.522 1006.72 360.913C1006.36 361.303 1006.08 361.782 1005.86 362.35C1005.67 362.9 1005.57 363.521 1005.57 364.213C1005.57 364.905 1005.67 365.535 1005.86 366.103C1006.08 366.653 1006.36 367.123 1006.72 367.513C1007.09 367.904 1007.52 368.205 1008.02 368.418C1008.53 368.631 1009.09 368.738 1009.7 368.738ZM1029.65 366.342C1029.39 366.52 1029.09 366.679 1028.75 366.821C1028.45 366.946 1028.07 367.052 1027.63 367.141C1027.19 367.229 1026.66 367.274 1026.06 367.274C1024.39 367.274 1023.11 366.848 1022.2 365.996C1021.31 365.127 1020.87 363.956 1020.87 362.483V357.426H1023.66V362.217C1023.66 363.015 1023.89 363.636 1024.33 364.08C1024.79 364.524 1025.46 364.745 1026.33 364.745C1026.93 364.745 1027.44 364.71 1027.84 364.639C1028.27 364.55 1028.62 364.453 1028.88 364.346C1029.2 364.24 1029.46 364.107 1029.65 363.947V357.426H1032.45V371H1029.65V366.342ZM1037.77 357.426H1040.57V362.749H1042.56L1046.69 357.426H1049.88L1044.96 363.681L1050.28 371H1046.82L1042.7 365.278H1040.57V371H1037.77V357.426ZM1059.2 371H1056.41L1052.68 357.426H1055.61L1058.54 368.338H1060L1063.2 357.426H1066.12L1060.54 376.057H1057.61L1059.2 371Z" fill="white"/>
</g>
<defs>
<clipPath id="clip0_268_71">
<rect width="1151" height="408" rx="53" fill="white"/>
</clipPath>
<clipPath id="clip1_268_71">
<rect x="40" y="204" width="251" height="128" rx="44" fill="white"/>
</clipPath>
<clipPath id="clip2_268_71">
<rect x="313" y="204" width="251" height="128" rx="44" fill="white"/>
</clipPath>
<clipPath id="clip3_268_71">
<rect x="586" y="204" width="251" height="128" rx="44" fill="white"/>
</clipPath>
<clipPath id="clip4_268_71">
<rect x="859" y="204" width="251" height="128" rx="44" fill="white"/>
</clipPath>
</defs>
</svg>
