<svg width="904" height="848" viewBox="0 0 904 848" fill="none" xmlns="http://www.w3.org/2000/svg">
<rect width="904" height="848" rx="53" fill="#138B35"/>
<path d="M135.74 90.88C134.185 90.88 132.807 90.7333 131.604 90.44C130.401 90.1467 129.316 89.7653 128.348 89.296C127.409 88.7973 126.588 88.24 125.884 87.624C125.209 87.008 124.637 86.3773 124.168 85.732C123.024 84.2067 122.261 82.476 121.88 80.54H128.7C128.964 81.332 129.404 82.036 130.02 82.652C130.548 83.18 131.281 83.664 132.22 84.104C133.159 84.5147 134.405 84.72 135.96 84.72C137.955 84.72 139.407 84.3387 140.316 83.576C141.225 82.8133 141.68 81.8747 141.68 80.76C141.68 79.7627 141.24 78.9267 140.36 78.252C139.48 77.5773 137.94 77.24 135.74 77.24H131.56V71.08H135.74C137.617 71.08 138.923 70.7867 139.656 70.2C140.419 69.584 140.8 68.7773 140.8 67.78C140.8 66.9 140.389 66.1373 139.568 65.492C138.776 64.8173 137.5 64.48 135.74 64.48C134.42 64.48 133.349 64.6707 132.528 65.052C131.736 65.404 131.12 65.8 130.68 66.24C130.152 66.768 129.785 67.3547 129.58 68H122.76C123.171 66.1813 123.933 64.568 125.048 63.16C125.517 62.544 126.075 61.9573 126.72 61.4C127.395 60.8133 128.172 60.3 129.052 59.86C129.932 59.3907 130.944 59.024 132.088 58.76C133.232 58.4667 134.523 58.32 135.96 58.32C137.837 58.32 139.495 58.5693 140.932 59.068C142.369 59.5373 143.587 60.1827 144.584 61.004C145.581 61.8253 146.329 62.7933 146.828 63.908C147.356 64.9933 147.62 66.1373 147.62 67.34C147.62 68.6307 147.371 69.6867 146.872 70.508C146.403 71.3 145.875 71.9453 145.288 72.444C144.613 73.0013 143.851 73.4267 143 73.72V74.16C144.027 74.4827 144.936 74.952 145.728 75.568C146.403 76.096 147.033 76.8293 147.62 77.768C148.207 78.7067 148.5 79.924 148.5 81.42C148.5 82.74 148.236 83.972 147.708 85.116C147.18 86.26 146.388 87.272 145.332 88.152C144.276 89.0027 142.941 89.6627 141.328 90.132C139.744 90.6307 137.881 90.88 135.74 90.88ZM165.227 90.66C163.79 90.66 162.44 90.3813 161.179 89.824C159.947 89.2667 158.862 88.4747 157.923 87.448C156.984 86.4213 156.236 85.1747 155.679 83.708C155.151 82.2413 154.887 80.5987 154.887 78.78C154.887 76.9613 155.151 75.3187 155.679 73.852C156.236 72.3853 156.984 71.1387 157.923 70.112C158.862 69.0853 159.947 68.2933 161.179 67.736C162.44 67.1787 163.79 66.9 165.227 66.9C166.459 66.9 167.5 67.0907 168.351 67.472C169.231 67.824 169.964 68.22 170.551 68.66C171.226 69.188 171.798 69.7747 172.267 70.42H172.487V67.56H178.647V90H172.487V87.14H172.267C171.798 87.7853 171.226 88.372 170.551 88.9C169.964 89.34 169.231 89.736 168.351 90.088C167.5 90.4693 166.459 90.66 165.227 90.66ZM166.767 85.38C168.439 85.38 169.803 84.808 170.859 83.664C171.944 82.52 172.487 80.892 172.487 78.78C172.487 76.668 171.944 75.04 170.859 73.896C169.803 72.752 168.439 72.18 166.767 72.18C165.212 72.18 163.907 72.752 162.851 73.896C161.795 75.04 161.267 76.668 161.267 78.78C161.267 80.892 161.795 82.52 162.851 83.664C163.907 84.808 165.212 85.38 166.767 85.38ZM200.867 82.74C200.456 83.0333 199.972 83.2973 199.415 83.532C198.916 83.7373 198.315 83.9133 197.611 84.06C196.907 84.2067 196.086 84.28 195.147 84.28C192.39 84.28 190.234 83.532 188.679 82.036C187.124 80.5107 186.347 78.472 186.347 75.92V67.56H192.507V75.48C192.507 76.5947 192.815 77.46 193.431 78.076C194.076 78.692 195.015 79 196.247 79C197.01 79 197.67 78.9413 198.227 78.824C198.814 78.6773 199.312 78.5307 199.723 78.384C200.163 78.208 200.544 78.0027 200.867 77.768V67.56H207.027V90H200.867V82.74ZM226.186 90.66C224.484 90.66 222.886 90.352 221.39 89.736C219.923 89.12 218.647 88.284 217.562 87.228C216.476 86.1427 215.626 84.8813 215.01 83.444C214.394 81.9773 214.086 80.4227 214.086 78.78C214.086 77.1373 214.394 75.5973 215.01 74.16C215.626 72.6933 216.476 71.432 217.562 70.376C218.647 69.2907 219.923 68.44 221.39 67.824C222.886 67.208 224.484 66.9 226.186 66.9C227.946 66.9 229.544 67.208 230.982 67.824C232.448 68.44 233.71 69.2907 234.766 70.376C235.822 71.4613 236.628 72.7227 237.186 74.16C237.772 75.5973 238.066 77.1373 238.066 78.78V80.1H220.466C220.583 80.804 220.803 81.4787 221.126 82.124C221.478 82.7693 221.903 83.3413 222.402 83.84C222.93 84.3093 223.516 84.6907 224.162 84.984C224.807 85.248 225.482 85.38 226.186 85.38C227.183 85.38 227.99 85.248 228.606 84.984C229.251 84.6907 229.779 84.3827 230.19 84.06C230.63 83.6787 230.982 83.2387 231.246 82.74H237.846C237.376 84.2067 236.643 85.5267 235.646 86.7C235.206 87.1987 234.692 87.6827 234.106 88.152C233.519 88.6213 232.844 89.0467 232.082 89.428C231.319 89.8093 230.439 90.1027 229.442 90.308C228.474 90.5427 227.388 90.66 226.186 90.66ZM231.466 76.36C231.348 75.8027 231.143 75.2747 230.85 74.776C230.556 74.2773 230.175 73.8373 229.706 73.456C229.266 73.0747 228.738 72.7667 228.122 72.532C227.535 72.2973 226.89 72.18 226.186 72.18C224.748 72.18 223.546 72.6053 222.578 73.456C221.639 74.2773 221.008 75.2453 220.686 76.36H231.466ZM245.309 67.56H253.669L258.949 79.66H259.609L264.889 67.56H273.249V90H267.089V78.78L267.309 74.82H267.089L262.249 85.82H256.309L251.469 74.82H251.249L251.469 78.78V90H245.309V67.56ZM308.246 90.66C306.544 90.66 304.946 90.352 303.45 89.736C301.983 89.12 300.707 88.284 299.622 87.228C298.536 86.1427 297.686 84.8813 297.07 83.444C296.454 81.9773 296.146 80.4227 296.146 78.78C296.146 77.1373 296.454 75.5973 297.07 74.16C297.686 72.6933 298.536 71.432 299.622 70.376C300.707 69.2907 301.983 68.44 303.45 67.824C304.946 67.208 306.544 66.9 308.246 66.9C310.006 66.9 311.604 67.208 313.042 67.824C314.508 68.44 315.77 69.2907 316.826 70.376C317.882 71.4613 318.688 72.7227 319.246 74.16C319.832 75.5973 320.126 77.1373 320.126 78.78V80.1H302.526C302.643 80.804 302.863 81.4787 303.186 82.124C303.538 82.7693 303.963 83.3413 304.462 83.84C304.99 84.3093 305.576 84.6907 306.222 84.984C306.867 85.248 307.542 85.38 308.246 85.38C309.243 85.38 310.05 85.248 310.666 84.984C311.311 84.6907 311.839 84.3827 312.25 84.06C312.69 83.6787 313.042 83.2387 313.306 82.74H319.906C319.436 84.2067 318.703 85.5267 317.706 86.7C317.266 87.1987 316.752 87.6827 316.166 88.152C315.579 88.6213 314.904 89.0467 314.142 89.428C313.379 89.8093 312.499 90.1027 311.502 90.308C310.534 90.5427 309.448 90.66 308.246 90.66ZM313.526 76.36C313.408 75.8027 313.203 75.2747 312.91 74.776C312.616 74.2773 312.235 73.8373 311.766 73.456C311.326 73.0747 310.798 72.7667 310.182 72.532C309.595 72.2973 308.95 72.18 308.246 72.18C306.808 72.18 305.606 72.6053 304.638 73.456C303.699 74.2773 303.068 75.2453 302.746 76.36H313.526ZM330.904 78.56L324.744 67.56H331.564L335.744 75.92H336.844L341.024 67.56H347.844L341.684 78.56L348.284 90H341.464L336.844 81.2H335.744L331.124 90H324.304L330.904 78.56ZM362.816 90.66C361.379 90.66 360.029 90.3813 358.768 89.824C357.536 89.2667 356.451 88.4747 355.512 87.448C354.573 86.4213 353.825 85.1747 353.268 83.708C352.74 82.2413 352.476 80.5987 352.476 78.78C352.476 76.9613 352.74 75.3187 353.268 73.852C353.825 72.3853 354.573 71.1387 355.512 70.112C356.451 69.0853 357.536 68.2933 358.768 67.736C360.029 67.1787 361.379 66.9 362.816 66.9C364.048 66.9 365.089 67.0907 365.94 67.472C366.82 67.824 367.553 68.22 368.14 68.66C368.815 69.188 369.387 69.7747 369.856 70.42H370.076V67.56H376.236V90H370.076V87.14H369.856C369.387 87.7853 368.815 88.372 368.14 88.9C367.553 89.34 366.82 89.736 365.94 90.088C365.089 90.4693 364.048 90.66 362.816 90.66ZM364.356 85.38C366.028 85.38 367.392 84.808 368.448 83.664C369.533 82.52 370.076 80.892 370.076 78.78C370.076 76.668 369.533 75.04 368.448 73.896C367.392 72.752 366.028 72.18 364.356 72.18C362.801 72.18 361.496 72.752 360.44 73.896C359.384 75.04 358.856 76.668 358.856 78.78C358.856 80.892 359.384 82.52 360.44 83.664C361.496 84.808 362.801 85.38 364.356 85.38ZM389.876 72.84H382.396V67.56H403.516V72.84H396.036V90H389.876V72.84ZM409.686 67.56H415.846V74.6H420.906C422.285 74.6 423.532 74.8053 424.646 75.216C425.761 75.6267 426.7 76.184 427.462 76.888C428.254 77.592 428.856 78.4133 429.266 79.352C429.706 80.2613 429.926 81.244 429.926 82.3C429.926 83.356 429.706 84.3533 429.266 85.292C428.856 86.2013 428.254 87.008 427.462 87.712C426.7 88.416 425.761 88.9733 424.646 89.384C423.532 89.7947 422.285 90 420.906 90H409.686V67.56ZM420.466 84.94C421.464 84.94 422.226 84.6907 422.754 84.192C423.282 83.6933 423.546 83.0627 423.546 82.3C423.546 81.5373 423.282 80.9067 422.754 80.408C422.226 79.9093 421.464 79.66 420.466 79.66H415.846V84.94H420.466ZM452.605 67.56H458.765V75.92H468.225V67.56H474.385V90H468.225V81.2H458.765V90H452.605V67.56ZM492.006 90.66C490.569 90.66 489.219 90.3813 487.958 89.824C486.726 89.2667 485.641 88.4747 484.702 87.448C483.763 86.4213 483.015 85.1747 482.458 83.708C481.93 82.2413 481.666 80.5987 481.666 78.78C481.666 76.9613 481.93 75.3187 482.458 73.852C483.015 72.3853 483.763 71.1387 484.702 70.112C485.641 69.0853 486.726 68.2933 487.958 67.736C489.219 67.1787 490.569 66.9 492.006 66.9C493.238 66.9 494.279 67.0907 495.13 67.472C496.01 67.824 496.743 68.22 497.33 68.66C498.005 69.188 498.577 69.7747 499.046 70.42H499.266V67.56H505.426V90H499.266V87.14H499.046C498.577 87.7853 498.005 88.372 497.33 88.9C496.743 89.34 496.01 89.736 495.13 90.088C494.279 90.4693 493.238 90.66 492.006 90.66ZM493.546 85.38C495.218 85.38 496.582 84.808 497.638 83.664C498.723 82.52 499.266 80.892 499.266 78.78C499.266 76.668 498.723 75.04 497.638 73.896C496.582 72.752 495.218 72.18 493.546 72.18C491.991 72.18 490.686 72.752 489.63 73.896C488.574 75.04 488.046 76.668 488.046 78.78C488.046 80.892 488.574 82.52 489.63 83.664C490.686 84.808 491.991 85.38 493.546 85.38ZM539.978 90.44C538.335 90.3227 536.795 89.9413 535.358 89.296C533.95 88.6507 532.718 87.8147 531.662 86.788C530.635 85.732 529.814 84.5293 529.198 83.18C528.611 81.8013 528.318 80.3347 528.318 78.78C528.318 77.2547 528.611 75.8027 529.198 74.424C529.814 73.0453 530.635 71.8427 531.662 70.816C532.718 69.76 533.95 68.9093 535.358 68.264C536.795 67.6187 538.335 67.2373 539.978 67.12V59.2H546.138V67.12C547.781 67.2373 549.306 67.6187 550.714 68.264C552.151 68.9093 553.383 69.76 554.41 70.816C555.466 71.8427 556.287 73.0453 556.874 74.424C557.49 75.8027 557.798 77.2547 557.798 78.78C557.798 80.3347 557.49 81.8013 556.874 83.18C556.287 84.5293 555.466 85.732 554.41 86.788C553.383 87.8147 552.151 88.6507 550.714 89.296C549.306 89.9413 547.781 90.3227 546.138 90.44V98.272H539.978V90.44ZM539.978 72.4C538.423 72.6347 537.147 73.2947 536.15 74.38C535.182 75.436 534.698 76.9027 534.698 78.78C534.698 80.6573 535.182 82.1387 536.15 83.224C537.147 84.28 538.423 84.9253 539.978 85.16V72.4ZM546.138 85.16C547.693 84.9253 548.954 84.28 549.922 83.224C550.919 82.1387 551.418 80.6573 551.418 78.78C551.418 76.9027 550.919 75.436 549.922 74.38C548.954 73.2947 547.693 72.6347 546.138 72.4V85.16ZM575.606 90.66C573.905 90.66 572.306 90.352 570.81 89.736C569.343 89.12 568.067 88.284 566.982 87.228C565.897 86.1427 565.046 84.8813 564.43 83.444C563.814 81.9773 563.506 80.4227 563.506 78.78C563.506 77.1373 563.814 75.5973 564.43 74.16C565.046 72.6933 565.897 71.432 566.982 70.376C568.067 69.2907 569.343 68.44 570.81 67.824C572.306 67.208 573.905 66.9 575.606 66.9C577.366 66.9 578.965 67.208 580.402 67.824C581.869 68.44 583.13 69.2907 584.186 70.376C585.242 71.4613 586.049 72.7227 586.606 74.16C587.193 75.5973 587.486 77.1373 587.486 78.78V80.1H569.886C570.003 80.804 570.223 81.4787 570.546 82.124C570.898 82.7693 571.323 83.3413 571.822 83.84C572.35 84.3093 572.937 84.6907 573.582 84.984C574.227 85.248 574.902 85.38 575.606 85.38C576.603 85.38 577.41 85.248 578.026 84.984C578.671 84.6907 579.199 84.3827 579.61 84.06C580.05 83.6787 580.402 83.2387 580.666 82.74H587.266C586.797 84.2067 586.063 85.5267 585.066 86.7C584.626 87.1987 584.113 87.6827 583.526 88.152C582.939 88.6213 582.265 89.0467 581.502 89.428C580.739 89.8093 579.859 90.1027 578.862 90.308C577.894 90.5427 576.809 90.66 575.606 90.66ZM580.886 76.36C580.769 75.8027 580.563 75.2747 580.27 74.776C579.977 74.2773 579.595 73.8373 579.126 73.456C578.686 73.0747 578.158 72.7667 577.542 72.532C576.955 72.2973 576.31 72.18 575.606 72.18C574.169 72.18 572.966 72.6053 571.998 73.456C571.059 74.2773 570.429 75.2453 570.106 76.36H580.886ZM605.509 90.66C603.807 90.66 602.209 90.352 600.713 89.736C599.246 89.12 597.97 88.284 596.885 87.228C595.799 86.1427 594.949 84.8813 594.333 83.444C593.717 81.9773 593.409 80.4227 593.409 78.78C593.409 77.1373 593.717 75.5973 594.333 74.16C594.949 72.6933 595.799 71.432 596.885 70.376C597.97 69.2907 599.246 68.44 600.713 67.824C602.209 67.208 603.807 66.9 605.509 66.9C606.711 66.9 607.797 67.032 608.765 67.296C609.733 67.5307 610.598 67.8533 611.361 68.264C612.123 68.6747 612.783 69.144 613.341 69.672C613.927 70.2 614.426 70.7427 614.837 71.3C615.805 72.5907 616.509 74.0573 616.949 75.7H610.569C610.305 75.0547 609.953 74.468 609.513 73.94C609.102 73.5 608.574 73.104 607.929 72.752C607.313 72.3707 606.506 72.18 605.509 72.18C604.746 72.18 604.013 72.3413 603.309 72.664C602.634 72.9867 602.033 73.4413 601.505 74.028C600.977 74.5853 600.551 75.2747 600.229 76.096C599.935 76.888 599.789 77.7827 599.789 78.78C599.789 79.7773 599.935 80.6867 600.229 81.508C600.551 82.3 600.977 82.9893 601.505 83.576C602.033 84.1333 602.634 84.5733 603.309 84.896C604.013 85.2187 604.746 85.38 605.509 85.38C606.506 85.38 607.313 85.204 607.929 84.852C608.574 84.4707 609.102 84.06 609.513 83.62C609.953 83.092 610.305 82.5053 610.569 81.86H616.949C616.567 83.5027 615.893 84.9693 614.925 86.26C614.514 86.8173 614.015 87.36 613.429 87.888C612.871 88.416 612.211 88.8853 611.449 89.296C610.686 89.7067 609.806 90.0293 608.809 90.264C607.841 90.528 606.741 90.66 605.509 90.66ZM629.267 72.84H621.787V67.56H642.907V72.84H635.427V90H629.267V72.84ZM649.077 67.56H655.237V77.24L655.017 81.2H655.457L664.477 67.56H671.077V90H664.917V80.32L665.137 76.36H664.697L655.677 90H649.077V67.56ZM679.453 67.56H691.773C692.976 67.56 694.032 67.7067 694.941 68C695.85 68.264 696.598 68.6453 697.185 69.144C697.801 69.6427 698.256 70.2293 698.549 70.904C698.872 71.5787 699.033 72.2973 699.033 73.06C699.033 74.116 698.828 74.9667 698.417 75.612C698.036 76.228 697.61 76.712 697.141 77.064C696.613 77.4747 695.997 77.7533 695.293 77.9V78.12C696.173 78.296 696.98 78.604 697.713 79.044C698.3 79.4547 698.842 80.012 699.341 80.716C699.869 81.42 700.133 82.388 700.133 83.62C700.133 84.5293 699.942 85.38 699.561 86.172C699.209 86.9347 698.681 87.6093 697.977 88.196C697.273 88.7533 696.393 89.1933 695.337 89.516C694.31 89.8387 693.122 90 691.773 90H679.453V67.56ZM691.333 85.38C692.096 85.38 692.726 85.1453 693.225 84.676C693.724 84.2067 693.973 83.6347 693.973 82.96C693.973 82.2853 693.724 81.7133 693.225 81.244C692.726 80.7747 692.096 80.54 691.333 80.54H685.613V85.38H691.333ZM690.893 76.14C691.568 76.14 692.096 75.9493 692.477 75.568C692.888 75.1867 693.093 74.7173 693.093 74.16C693.093 73.6027 692.888 73.1333 692.477 72.752C692.096 72.3707 691.568 72.18 690.893 72.18H685.613V76.14H690.893ZM716.619 90.66C715.182 90.66 713.832 90.3813 712.571 89.824C711.339 89.2667 710.254 88.4747 709.315 87.448C708.376 86.4213 707.628 85.1747 707.071 83.708C706.543 82.2413 706.279 80.5987 706.279 78.78C706.279 76.9613 706.543 75.3187 707.071 73.852C707.628 72.3853 708.376 71.1387 709.315 70.112C710.254 69.0853 711.339 68.2933 712.571 67.736C713.832 67.1787 715.182 66.9 716.619 66.9C717.851 66.9 718.892 67.0907 719.743 67.472C720.623 67.824 721.356 68.22 721.943 68.66C722.618 69.188 723.19 69.7747 723.659 70.42H723.879V67.56H730.039V90H723.879V87.14H723.659C723.19 87.7853 722.618 88.372 721.943 88.9C721.356 89.34 720.623 89.736 719.743 90.088C718.892 90.4693 717.851 90.66 716.619 90.66ZM718.159 85.38C719.831 85.38 721.195 84.808 722.251 83.664C723.336 82.52 723.879 80.892 723.879 78.78C723.879 76.668 723.336 75.04 722.251 73.896C721.195 72.752 719.831 72.18 718.159 72.18C716.604 72.18 715.299 72.752 714.243 73.896C713.187 75.04 712.659 76.668 712.659 78.78C712.659 80.892 713.187 82.52 714.243 83.664C715.299 84.808 716.604 85.38 718.159 85.38ZM741.919 67.56H753.799L759.739 90H753.579L748.959 72.84H746.759L742.139 90H735.979L741.919 67.56ZM765.681 67.56H771.841V74.6H776.901C778.279 74.6 779.526 74.8053 780.641 75.216C781.755 75.6267 782.694 76.184 783.457 76.888C784.249 77.592 784.85 78.4133 785.261 79.352C785.701 80.2613 785.921 81.244 785.921 82.3C785.921 83.356 785.701 84.3533 785.261 85.292C784.85 86.2013 784.249 87.008 783.457 87.712C782.694 88.416 781.755 88.9733 780.641 89.384C779.526 89.7947 778.279 90 776.901 90H765.681V67.56ZM776.461 84.94C777.458 84.94 778.221 84.6907 778.749 84.192C779.277 83.6933 779.541 83.0627 779.541 82.3C779.541 81.5373 779.277 80.9067 778.749 80.408C778.221 79.9093 777.458 79.66 776.461 79.66H771.841V84.94H776.461Z" fill="white"/>
<rect x="37" y="137" width="410" height="327" rx="40" fill="#64B580"/>
<rect x="462" y="137" width="410" height="327" rx="40" fill="#64B580"/>
<rect x="462" y="479" width="410" height="327" rx="40" fill="#64B580"/>
<rect x="37" y="479" width="410" height="327" rx="40" fill="#64B580"/>
<path d="M129.12 293.32C127.968 293.32 126.891 293.117 125.888 292.712C124.885 292.285 124.021 291.699 123.296 290.952C122.571 290.184 121.995 289.288 121.568 288.264C121.163 287.219 120.96 286.077 120.96 284.84C120.96 283.603 121.163 282.472 121.568 281.448C121.995 280.403 122.571 279.507 123.296 278.76C124.021 277.992 124.885 277.405 125.888 277C126.891 276.573 127.968 276.36 129.12 276.36C129.931 276.36 130.667 276.445 131.328 276.616C131.989 276.787 132.576 277.011 133.088 277.288C133.621 277.565 134.08 277.885 134.464 278.248C134.848 278.611 135.189 278.973 135.488 279.336C136.171 280.189 136.661 281.171 136.96 282.28H133.44C133.269 281.747 132.992 281.267 132.608 280.84C132.288 280.477 131.851 280.147 131.296 279.848C130.741 279.549 130.016 279.4 129.12 279.4C128.48 279.4 127.872 279.528 127.296 279.784C126.741 280.04 126.251 280.403 125.824 280.872C125.419 281.341 125.088 281.917 124.832 282.6C124.597 283.261 124.48 284.008 124.48 284.84C124.48 285.672 124.597 286.429 124.832 287.112C125.088 287.773 125.419 288.339 125.824 288.808C126.251 289.277 126.741 289.64 127.296 289.896C127.872 290.152 128.48 290.28 129.12 290.28C130.037 290.28 130.784 290.131 131.36 289.832C131.936 289.533 132.395 289.203 132.736 288.84C133.12 288.435 133.408 287.955 133.6 287.4H136.96C136.661 288.531 136.171 289.523 135.488 290.376C135.189 290.739 134.848 291.101 134.464 291.464C134.08 291.805 133.621 292.115 133.088 292.392C132.576 292.669 131.989 292.893 131.328 293.064C130.667 293.235 129.931 293.32 129.12 293.32ZM142.23 276.68H145.59V283.24H153.59V276.68H156.95V293H153.59V286.28H145.59V293H142.23V276.68ZM165.912 287.08C165.336 286.824 164.824 286.483 164.376 286.056C163.992 285.693 163.64 285.213 163.32 284.616C163.022 283.997 162.872 283.219 162.872 282.28C162.872 281.491 163.011 280.755 163.288 280.072C163.587 279.368 164.014 278.771 164.568 278.28C165.123 277.789 165.795 277.405 166.584 277.128C167.374 276.829 168.27 276.68 169.272 276.68H176.632V293H173.272V288.04H169.112L166.552 293H162.712L165.912 287.08ZM173.272 285V279.72H169.432C168.472 279.72 167.726 279.965 167.192 280.456C166.659 280.947 166.392 281.555 166.392 282.28C166.392 283.091 166.638 283.752 167.128 284.264C167.619 284.755 168.387 285 169.432 285H173.272ZM186.718 279.72H181.278V276.68H195.518V279.72H190.078V293H186.718V279.72ZM200.16 276.68H203.52V282.12H207.52C208.48 282.12 209.344 282.259 210.112 282.536C210.88 282.813 211.531 283.197 212.064 283.688C212.619 284.179 213.035 284.755 213.312 285.416C213.611 286.077 213.76 286.792 213.76 287.56C213.76 288.328 213.611 289.043 213.312 289.704C213.035 290.365 212.619 290.941 212.064 291.432C211.531 291.923 210.88 292.307 210.112 292.584C209.344 292.861 208.48 293 207.52 293H200.16V276.68ZM207.52 289.96C208.416 289.96 209.088 289.747 209.536 289.32C210.005 288.872 210.24 288.285 210.24 287.56C210.24 286.835 210.005 286.259 209.536 285.832C209.088 285.384 208.416 285.16 207.52 285.16H203.52V289.96H207.52ZM237.605 293.32C236.453 293.32 235.376 293.117 234.373 292.712C233.37 292.285 232.506 291.699 231.781 290.952C231.056 290.184 230.48 289.288 230.053 288.264C229.648 287.219 229.445 286.077 229.445 284.84C229.445 283.603 229.648 282.472 230.053 281.448C230.48 280.403 231.056 279.507 231.781 278.76C232.506 277.992 233.37 277.405 234.373 277C235.376 276.573 236.453 276.36 237.605 276.36C238.416 276.36 239.152 276.445 239.813 276.616C240.474 276.787 241.061 277.011 241.573 277.288C242.106 277.565 242.565 277.885 242.949 278.248C243.333 278.611 243.674 278.973 243.973 279.336C244.656 280.189 245.146 281.171 245.445 282.28H241.925C241.754 281.747 241.477 281.267 241.093 280.84C240.773 280.477 240.336 280.147 239.781 279.848C239.226 279.549 238.501 279.4 237.605 279.4C236.965 279.4 236.357 279.528 235.781 279.784C235.226 280.04 234.736 280.403 234.309 280.872C233.904 281.341 233.573 281.917 233.317 282.6C233.082 283.261 232.965 284.008 232.965 284.84C232.965 285.672 233.082 286.429 233.317 287.112C233.573 287.773 233.904 288.339 234.309 288.808C234.736 289.277 235.226 289.64 235.781 289.896C236.357 290.152 236.965 290.28 237.605 290.28C238.522 290.28 239.269 290.131 239.845 289.832C240.421 289.533 240.88 289.203 241.221 288.84C241.605 288.435 241.893 287.955 242.085 287.4H245.445C245.146 288.531 244.656 289.523 243.973 290.376C243.674 290.739 243.333 291.101 242.949 291.464C242.565 291.805 242.106 292.115 241.573 292.392C241.061 292.669 240.474 292.893 239.813 293.064C239.152 293.235 238.416 293.32 237.605 293.32ZM254.395 279.72H248.955V276.68H263.195V279.72H257.755V293H254.395V279.72ZM267.837 276.68H271.197V278.76H271.357C271.72 278.333 272.157 277.939 272.669 277.576C273.096 277.277 273.619 277 274.237 276.744C274.877 276.488 275.624 276.36 276.477 276.36C277.565 276.36 278.568 276.563 279.485 276.968C280.424 277.373 281.235 277.949 281.917 278.696C282.621 279.421 283.165 280.307 283.549 281.352C283.955 282.397 284.157 283.56 284.157 284.84C284.157 286.12 283.955 287.283 283.549 288.328C283.165 289.373 282.621 290.269 281.917 291.016C281.235 291.741 280.424 292.307 279.485 292.712C278.568 293.117 277.565 293.32 276.477 293.32C275.624 293.32 274.877 293.203 274.237 292.968C273.619 292.712 273.096 292.435 272.669 292.136C272.157 291.773 271.72 291.368 271.357 290.92H271.197V299.08H267.837V276.68ZM275.837 290.28C277.288 290.28 278.451 289.821 279.325 288.904C280.2 287.965 280.637 286.611 280.637 284.84C280.637 283.069 280.2 281.725 279.325 280.808C278.451 279.869 277.288 279.4 275.837 279.4C274.472 279.4 273.352 279.869 272.477 280.808C271.624 281.725 271.197 283.069 271.197 284.84C271.197 286.611 271.624 287.965 272.477 288.904C273.352 289.821 274.472 290.28 275.837 290.28ZM296.945 293.32C295.793 293.32 294.705 293.107 293.681 292.68C292.678 292.232 291.793 291.635 291.025 290.888C290.278 290.12 289.692 289.224 289.265 288.2C288.838 287.155 288.625 286.035 288.625 284.84C288.625 283.645 288.838 282.536 289.265 281.512C289.692 280.467 290.278 279.571 291.025 278.824C291.793 278.056 292.678 277.459 293.681 277.032C294.705 276.584 295.793 276.36 296.945 276.36C298.097 276.36 299.174 276.584 300.177 277.032C301.201 277.459 302.086 278.056 302.833 278.824C303.601 279.571 304.198 280.467 304.625 281.512C305.052 282.536 305.265 283.645 305.265 284.84V285.96H291.985C292.113 286.643 292.326 287.251 292.625 287.784C292.924 288.317 293.297 288.776 293.745 289.16C294.193 289.523 294.684 289.8 295.217 289.992C295.772 290.184 296.348 290.28 296.945 290.28C297.777 290.28 298.492 290.173 299.089 289.96C299.686 289.725 300.166 289.459 300.529 289.16C300.956 288.84 301.308 288.467 301.585 288.04H305.105C304.7 289.043 304.134 289.928 303.409 290.696C303.089 291.016 302.726 291.336 302.321 291.656C301.916 291.976 301.446 292.264 300.913 292.52C300.38 292.755 299.782 292.947 299.121 293.096C298.46 293.245 297.734 293.32 296.945 293.32ZM301.745 283.24C301.66 282.771 301.5 282.301 301.265 281.832C301.03 281.363 300.71 280.957 300.305 280.616C299.9 280.253 299.42 279.965 298.865 279.752C298.31 279.517 297.67 279.4 296.945 279.4C296.39 279.4 295.846 279.485 295.313 279.656C294.801 279.827 294.321 280.083 293.873 280.424C293.446 280.744 293.084 281.149 292.785 281.64C292.486 282.109 292.273 282.643 292.145 283.24H301.745ZM317.908 293.32C316.756 293.32 315.678 293.117 314.676 292.712C313.673 292.285 312.809 291.699 312.084 290.952C311.358 290.184 310.782 289.288 310.356 288.264C309.95 287.219 309.748 286.077 309.748 284.84C309.748 283.603 309.95 282.472 310.356 281.448C310.782 280.403 311.358 279.507 312.084 278.76C312.809 277.992 313.673 277.405 314.676 277C315.678 276.573 316.756 276.36 317.908 276.36C318.718 276.36 319.454 276.445 320.116 276.616C320.777 276.787 321.364 277.011 321.876 277.288C322.409 277.565 322.868 277.885 323.252 278.248C323.636 278.611 323.977 278.973 324.276 279.336C324.958 280.189 325.449 281.171 325.748 282.28H322.228C322.057 281.747 321.78 281.267 321.396 280.84C321.076 280.477 320.638 280.147 320.084 279.848C319.529 279.549 318.804 279.4 317.908 279.4C317.268 279.4 316.66 279.528 316.084 279.784C315.529 280.04 315.038 280.403 314.612 280.872C314.206 281.341 313.876 281.917 313.62 282.6C313.385 283.261 313.268 284.008 313.268 284.84C313.268 285.672 313.385 286.429 313.62 287.112C313.876 287.773 314.206 288.339 314.612 288.808C315.038 289.277 315.529 289.64 316.084 289.896C316.66 290.152 317.268 290.28 317.908 290.28C318.825 290.28 319.572 290.131 320.148 289.832C320.724 289.533 321.182 289.203 321.524 288.84C321.908 288.435 322.196 287.955 322.388 287.4H325.748C325.449 288.531 324.958 289.523 324.276 290.376C323.977 290.739 323.636 291.101 323.252 291.464C322.868 291.805 322.409 292.115 321.876 292.392C321.364 292.669 320.777 292.893 320.116 293.064C319.454 293.235 318.718 293.32 317.908 293.32ZM338.218 293.32C337.066 293.32 335.988 293.117 334.986 292.712C333.983 292.285 333.119 291.699 332.394 290.952C331.668 290.184 331.092 289.288 330.666 288.264C330.26 287.219 330.058 286.077 330.058 284.84C330.058 283.603 330.26 282.472 330.666 281.448C331.092 280.403 331.668 279.507 332.394 278.76C333.119 277.992 333.983 277.405 334.986 277C335.988 276.573 337.066 276.36 338.218 276.36C339.028 276.36 339.764 276.445 340.426 276.616C341.087 276.787 341.674 277.011 342.186 277.288C342.719 277.565 343.178 277.885 343.562 278.248C343.946 278.611 344.287 278.973 344.586 279.336C345.268 280.189 345.759 281.171 346.058 282.28H342.538C342.367 281.747 342.09 281.267 341.706 280.84C341.386 280.477 340.948 280.147 340.394 279.848C339.839 279.549 339.114 279.4 338.218 279.4C337.578 279.4 336.97 279.528 336.394 279.784C335.839 280.04 335.348 280.403 334.922 280.872C334.516 281.341 334.186 281.917 333.93 282.6C333.695 283.261 333.578 284.008 333.578 284.84C333.578 285.672 333.695 286.429 333.93 287.112C334.186 287.773 334.516 288.339 334.922 288.808C335.348 289.277 335.839 289.64 336.394 289.896C336.97 290.152 337.578 290.28 338.218 290.28C339.135 290.28 339.882 290.131 340.458 289.832C341.034 289.533 341.492 289.203 341.834 288.84C342.218 288.435 342.506 287.955 342.698 287.4H346.058C345.759 288.531 345.268 289.523 344.586 290.376C344.287 290.739 343.946 291.101 343.562 291.464C343.178 291.805 342.719 292.115 342.186 292.392C341.674 292.669 341.087 292.893 340.426 293.064C339.764 293.235 339.028 293.32 338.218 293.32ZM121.92 318.68H125.28V329.56L125.248 329.88H125.568L132.96 318.68H136.64V335H133.28V324.12L133.312 323.8H132.992L125.6 335H121.92V318.68ZM162.091 335.32C160.897 335.32 159.777 335.107 158.731 334.68C157.707 334.232 156.811 333.635 156.043 332.888C155.297 332.12 154.699 331.224 154.251 330.2C153.825 329.155 153.611 328.035 153.611 326.84C153.611 325.645 153.825 324.536 154.251 323.512C154.699 322.467 155.297 321.571 156.043 320.824C156.811 320.056 157.707 319.459 158.731 319.032C159.777 318.584 160.897 318.36 162.091 318.36C163.286 318.36 164.395 318.584 165.419 319.032C166.465 319.459 167.361 320.056 168.107 320.824C168.875 321.571 169.473 322.467 169.899 323.512C170.347 324.536 170.571 325.645 170.571 326.84C170.571 328.035 170.347 329.155 169.899 330.2C169.473 331.224 168.875 332.12 168.107 332.888C167.361 333.635 166.465 334.232 165.419 334.68C164.395 335.107 163.286 335.32 162.091 335.32ZM162.091 332.28C162.817 332.28 163.478 332.152 164.075 331.896C164.694 331.64 165.217 331.277 165.643 330.808C166.091 330.339 166.433 329.773 166.667 329.112C166.923 328.429 167.051 327.672 167.051 326.84C167.051 326.008 166.923 325.261 166.667 324.6C166.433 323.917 166.091 323.341 165.643 322.872C165.217 322.403 164.694 322.04 164.075 321.784C163.478 321.528 162.817 321.4 162.091 321.4C161.366 321.4 160.694 321.528 160.075 321.784C159.478 322.04 158.955 322.403 158.507 322.872C158.081 323.341 157.739 323.917 157.483 324.6C157.249 325.261 157.131 326.008 157.131 326.84C157.131 327.672 157.249 328.429 157.483 329.112C157.739 329.773 158.081 330.339 158.507 330.808C158.955 331.277 159.478 331.64 160.075 331.896C160.694 332.152 161.366 332.28 162.091 332.28ZM179.686 321.72H174.246V318.68H188.486V321.72H183.046V335H179.686V321.72ZM190.744 331.96H192.344L196.024 318.68H203.224L206.904 331.96H208.504V338.52H205.464V335H193.784V338.52H190.744V331.96ZM203.384 331.96L200.664 321.72H198.584L195.864 331.96H203.384ZM220.678 335.32C219.483 335.32 218.363 335.107 217.318 334.68C216.294 334.232 215.398 333.635 214.63 332.888C213.883 332.12 213.286 331.224 212.838 330.2C212.411 329.155 212.198 328.035 212.198 326.84C212.198 325.645 212.411 324.536 212.838 323.512C213.286 322.467 213.883 321.571 214.63 320.824C215.398 320.056 216.294 319.459 217.318 319.032C218.363 318.584 219.483 318.36 220.678 318.36C221.872 318.36 222.982 318.584 224.006 319.032C225.051 319.459 225.947 320.056 226.694 320.824C227.462 321.571 228.059 322.467 228.486 323.512C228.934 324.536 229.158 325.645 229.158 326.84C229.158 328.035 228.934 329.155 228.486 330.2C228.059 331.224 227.462 332.12 226.694 332.888C225.947 333.635 225.051 334.232 224.006 334.68C222.982 335.107 221.872 335.32 220.678 335.32ZM220.678 332.28C221.403 332.28 222.064 332.152 222.662 331.896C223.28 331.64 223.803 331.277 224.23 330.808C224.678 330.339 225.019 329.773 225.254 329.112C225.51 328.429 225.638 327.672 225.638 326.84C225.638 326.008 225.51 325.261 225.254 324.6C225.019 323.917 224.678 323.341 224.23 322.872C223.803 322.403 223.28 322.04 222.662 321.784C222.064 321.528 221.403 321.4 220.678 321.4C219.952 321.4 219.28 321.528 218.662 321.784C218.064 322.04 217.542 322.403 217.094 322.872C216.667 323.341 216.326 323.917 216.07 324.6C215.835 325.261 215.718 326.008 215.718 326.84C215.718 327.672 215.835 328.429 216.07 329.112C216.326 329.773 216.667 330.339 217.094 330.808C217.542 331.277 218.064 331.64 218.662 331.896C219.28 332.152 219.952 332.28 220.678 332.28ZM237.324 326.84L232.524 318.68H236.364L240.044 325.24H240.844L244.524 318.68H248.364L243.564 326.84L248.524 335H244.684L240.844 328.28H240.044L236.204 335H232.364L237.324 326.84ZM253.152 318.68H256.512V325.24H264.512V318.68H267.872V335H264.512V328.28H256.512V335H253.152V318.68ZM280.515 335H277.155L272.675 318.68H276.195L279.715 331.8H281.475L285.315 318.68H288.835L282.115 341.08H278.595L280.515 335ZM296.827 321.72H291.387V318.68H305.627V321.72H300.187V335H296.827V321.72ZM310.27 318.68H313.63V324.12H317.63C318.59 324.12 319.454 324.259 320.222 324.536C320.99 324.813 321.641 325.197 322.174 325.688C322.729 326.179 323.145 326.755 323.422 327.416C323.721 328.077 323.87 328.792 323.87 329.56C323.87 330.328 323.721 331.043 323.422 331.704C323.145 332.365 322.729 332.941 322.174 333.432C321.641 333.923 320.99 334.307 320.222 334.584C319.454 334.861 318.59 335 317.63 335H310.27V318.68ZM317.63 331.96C318.526 331.96 319.198 331.747 319.646 331.32C320.115 330.872 320.35 330.285 320.35 329.56C320.35 328.835 320.115 328.259 319.646 327.832C319.198 327.384 318.526 327.16 317.63 327.16H313.63V331.96H317.63Z" fill="white"/>
<path d="M546.92 297.68H555.08C556.68 297.68 557.907 298.064 558.76 298.832C559.613 299.6 560.04 300.549 560.04 301.68C560.04 302.448 559.901 303.067 559.624 303.536C559.368 303.984 559.08 304.336 558.76 304.592C558.376 304.891 557.949 305.093 557.48 305.2V305.328C558.077 305.435 558.611 305.648 559.08 305.968C559.485 306.245 559.848 306.651 560.168 307.184C560.509 307.696 560.68 308.411 560.68 309.328C560.68 309.968 560.552 310.576 560.296 311.152C560.04 311.728 559.677 312.229 559.208 312.656C558.739 313.061 558.163 313.392 557.48 313.648C556.819 313.883 556.072 314 555.24 314H546.92V297.68ZM555.08 310.96C555.805 310.96 556.36 310.779 556.744 310.416C557.128 310.032 557.32 309.52 557.32 308.88C557.32 308.325 557.128 307.867 556.744 307.504C556.36 307.141 555.805 306.96 555.08 306.96H550.28V310.96H555.08ZM554.76 304.08C556.04 304.08 556.68 303.493 556.68 302.32C556.68 301.829 556.52 301.445 556.2 301.168C555.88 300.869 555.4 300.72 554.76 300.72H550.28V304.08H554.76ZM564.532 310.96H566.132L569.812 297.68H577.012L580.693 310.96H582.292V317.52H579.253V314H567.572V317.52H564.532V310.96ZM577.172 310.96L574.453 300.72H572.372L569.652 310.96H577.172ZM594.466 314.32C593.272 314.32 592.152 314.107 591.106 313.68C590.082 313.232 589.186 312.635 588.418 311.888C587.672 311.12 587.074 310.224 586.626 309.2C586.2 308.155 585.986 307.035 585.986 305.84C585.986 304.645 586.2 303.536 586.626 302.512C587.074 301.467 587.672 300.571 588.418 299.824C589.186 299.056 590.082 298.459 591.106 298.032C592.152 297.584 593.272 297.36 594.466 297.36C595.661 297.36 596.77 297.584 597.794 298.032C598.84 298.459 599.736 299.056 600.482 299.824C601.25 300.571 601.848 301.467 602.274 302.512C602.722 303.536 602.946 304.645 602.946 305.84C602.946 307.035 602.722 308.155 602.274 309.2C601.848 310.224 601.25 311.12 600.482 311.888C599.736 312.635 598.84 313.232 597.794 313.68C596.77 314.107 595.661 314.32 594.466 314.32ZM594.466 311.28C595.192 311.28 595.853 311.152 596.45 310.896C597.069 310.64 597.592 310.277 598.018 309.808C598.466 309.339 598.808 308.773 599.042 308.112C599.298 307.429 599.426 306.672 599.426 305.84C599.426 305.008 599.298 304.261 599.042 303.6C598.808 302.917 598.466 302.341 598.018 301.872C597.592 301.403 597.069 301.04 596.45 300.784C595.853 300.528 595.192 300.4 594.466 300.4C593.741 300.4 593.069 300.528 592.45 300.784C591.853 301.04 591.33 301.403 590.882 301.872C590.456 302.341 590.114 302.917 589.858 303.6C589.624 304.261 589.506 305.008 589.506 305.84C589.506 306.672 589.624 307.429 589.858 308.112C590.114 308.773 590.456 309.339 590.882 309.808C591.33 310.277 591.853 310.64 592.45 310.896C593.069 311.152 593.741 311.28 594.466 311.28ZM611.113 305.84L606.313 297.68H610.153L613.833 304.24H614.633L618.313 297.68H622.153L617.353 305.84L622.313 314H618.473L614.633 307.28H613.833L609.993 314H606.153L611.113 305.84ZM626.941 297.68H630.301V304.24H638.301V297.68H641.661V314H638.301V307.28H630.301V314H626.941V297.68ZM655.584 314.32C654.389 314.32 653.269 314.107 652.224 313.68C651.2 313.232 650.304 312.635 649.536 311.888C648.789 311.12 648.192 310.224 647.744 309.2C647.317 308.155 647.104 307.035 647.104 305.84C647.104 304.645 647.317 303.536 647.744 302.512C648.192 301.467 648.789 300.571 649.536 299.824C650.304 299.056 651.2 298.459 652.224 298.032C653.269 297.584 654.389 297.36 655.584 297.36C656.778 297.36 657.888 297.584 658.912 298.032C659.957 298.459 660.853 299.056 661.6 299.824C662.368 300.571 662.965 301.467 663.392 302.512C663.84 303.536 664.064 304.645 664.064 305.84C664.064 307.035 663.84 308.155 663.392 309.2C662.965 310.224 662.368 311.12 661.6 311.888C660.853 312.635 659.957 313.232 658.912 313.68C657.888 314.107 656.778 314.32 655.584 314.32ZM655.584 311.28C656.309 311.28 656.97 311.152 657.568 310.896C658.186 310.64 658.709 310.277 659.136 309.808C659.584 309.339 659.925 308.773 660.16 308.112C660.416 307.429 660.544 306.672 660.544 305.84C660.544 305.008 660.416 304.261 660.16 303.6C659.925 302.917 659.584 302.341 659.136 301.872C658.709 301.403 658.186 301.04 657.568 300.784C656.97 300.528 656.309 300.4 655.584 300.4C654.858 300.4 654.186 300.528 653.568 300.784C652.97 301.04 652.448 301.403 652 301.872C651.573 302.341 651.232 302.917 650.976 303.6C650.741 304.261 650.624 305.008 650.624 305.84C650.624 306.672 650.741 307.429 650.976 308.112C651.232 308.773 651.573 309.339 652 309.808C652.448 310.277 652.97 310.64 653.568 310.896C654.186 311.152 654.858 311.28 655.584 311.28ZM669.499 297.68H677.659C679.259 297.68 680.485 298.064 681.339 298.832C682.192 299.6 682.619 300.549 682.619 301.68C682.619 302.448 682.48 303.067 682.203 303.536C681.947 303.984 681.659 304.336 681.339 304.592C680.955 304.891 680.528 305.093 680.059 305.2V305.328C680.656 305.435 681.189 305.648 681.659 305.968C682.064 306.245 682.427 306.651 682.747 307.184C683.088 307.696 683.259 308.411 683.259 309.328C683.259 309.968 683.131 310.576 682.875 311.152C682.619 311.728 682.256 312.229 681.787 312.656C681.317 313.061 680.741 313.392 680.059 313.648C679.397 313.883 678.651 314 677.819 314H669.499V297.68ZM677.659 310.96C678.384 310.96 678.939 310.779 679.323 310.416C679.707 310.032 679.899 309.52 679.899 308.88C679.899 308.325 679.707 307.867 679.323 307.504C678.939 307.141 678.384 306.96 677.659 306.96H672.859V310.96H677.659ZM677.339 304.08C678.619 304.08 679.259 303.493 679.259 302.32C679.259 301.829 679.099 301.445 678.779 301.168C678.459 300.869 677.979 300.72 677.339 300.72H672.859V304.08H677.339ZM688.871 297.68H692.231V308.56L692.199 308.88H692.519L699.911 297.68H703.591V314H700.231V303.12L700.263 302.8H699.943L692.551 314H688.871V297.68ZM713.674 300.72H708.234V297.68H722.474V300.72H717.034V314H713.674V300.72ZM727.116 297.68H730.476V303.12H734.476C735.436 303.12 736.3 303.259 737.068 303.536C737.836 303.813 738.487 304.197 739.02 304.688C739.575 305.179 739.991 305.755 740.268 306.416C740.567 307.077 740.716 307.792 740.716 308.56C740.716 309.328 740.567 310.043 740.268 310.704C739.991 311.365 739.575 311.941 739.02 312.432C738.487 312.923 737.836 313.307 737.068 313.584C736.3 313.861 735.436 314 734.476 314H727.116V297.68ZM734.476 310.96C735.372 310.96 736.044 310.747 736.492 310.32C736.962 309.872 737.196 309.285 737.196 308.56C737.196 307.835 736.962 307.259 736.492 306.832C736.044 306.384 735.372 306.16 734.476 306.16H730.476V310.96H734.476ZM753.033 314.32C751.881 314.32 750.803 314.117 749.801 313.712C748.798 313.285 747.934 312.699 747.209 311.952C746.483 311.184 745.907 310.288 745.481 309.264C745.075 308.219 744.873 307.077 744.873 305.84C744.873 304.603 745.075 303.472 745.481 302.448C745.907 301.403 746.483 300.507 747.209 299.76C747.934 298.992 748.798 298.405 749.801 298C750.803 297.573 751.881 297.36 753.033 297.36C753.843 297.36 754.579 297.445 755.241 297.616C755.902 297.787 756.489 298.011 757.001 298.288C757.534 298.565 757.993 298.885 758.377 299.248C758.761 299.611 759.102 299.973 759.401 300.336C760.083 301.189 760.574 302.171 760.873 303.28H757.353C757.182 302.747 756.905 302.267 756.521 301.84C756.201 301.477 755.763 301.147 755.209 300.848C754.654 300.549 753.929 300.4 753.033 300.4C752.393 300.4 751.785 300.528 751.209 300.784C750.654 301.04 750.163 301.403 749.737 301.872C749.331 302.341 749.001 302.917 748.745 303.6C748.51 304.261 748.393 305.008 748.393 305.84C748.393 306.672 748.51 307.429 748.745 308.112C749.001 308.773 749.331 309.339 749.737 309.808C750.163 310.277 750.654 310.64 751.209 310.896C751.785 311.152 752.393 311.28 753.033 311.28C753.95 311.28 754.697 311.131 755.273 310.832C755.849 310.533 756.307 310.203 756.649 309.84C757.033 309.435 757.321 308.955 757.513 308.4H760.873C760.574 309.531 760.083 310.523 759.401 311.376C759.102 311.739 758.761 312.101 758.377 312.464C757.993 312.805 757.534 313.115 757.001 313.392C756.489 313.669 755.902 313.893 755.241 314.064C754.579 314.235 753.843 314.32 753.033 314.32ZM768.703 308.08C768.127 307.824 767.615 307.483 767.167 307.056C766.783 306.693 766.431 306.213 766.111 305.616C765.812 304.997 765.663 304.219 765.663 303.28C765.663 302.491 765.801 301.755 766.079 301.072C766.377 300.368 766.804 299.771 767.359 299.28C767.913 298.789 768.585 298.405 769.375 298.128C770.164 297.829 771.06 297.68 772.063 297.68H779.423V314H776.063V309.04H771.903L769.343 314H765.503L768.703 308.08ZM776.063 306V300.72H772.223C771.263 300.72 770.516 300.965 769.983 301.456C769.449 301.947 769.183 302.555 769.183 303.28C769.183 304.091 769.428 304.752 769.919 305.264C770.409 305.755 771.177 306 772.223 306H776.063Z" fill="white"/>
<path d="M119.92 618.68H134.48V635H131.12V621.72H123.28V635H119.92V618.68ZM148.406 635.32C147.212 635.32 146.092 635.107 145.046 634.68C144.022 634.232 143.126 633.635 142.358 632.888C141.612 632.12 141.014 631.224 140.566 630.2C140.14 629.155 139.926 628.035 139.926 626.84C139.926 625.645 140.14 624.536 140.566 623.512C141.014 622.467 141.612 621.571 142.358 620.824C143.126 620.056 144.022 619.459 145.046 619.032C146.092 618.584 147.212 618.36 148.406 618.36C149.601 618.36 150.71 618.584 151.734 619.032C152.78 619.459 153.676 620.056 154.422 620.824C155.19 621.571 155.788 622.467 156.214 623.512C156.662 624.536 156.886 625.645 156.886 626.84C156.886 628.035 156.662 629.155 156.214 630.2C155.788 631.224 155.19 632.12 154.422 632.888C153.676 633.635 152.78 634.232 151.734 634.68C150.71 635.107 149.601 635.32 148.406 635.32ZM148.406 632.28C149.132 632.28 149.793 632.152 150.39 631.896C151.009 631.64 151.532 631.277 151.958 630.808C152.406 630.339 152.748 629.773 152.982 629.112C153.238 628.429 153.366 627.672 153.366 626.84C153.366 626.008 153.238 625.261 152.982 624.6C152.748 623.917 152.406 623.341 151.958 622.872C151.532 622.403 151.009 622.04 150.39 621.784C149.793 621.528 149.132 621.4 148.406 621.4C147.681 621.4 147.009 621.528 146.39 621.784C145.793 622.04 145.27 622.403 144.822 622.872C144.396 623.341 144.054 623.917 143.798 624.6C143.564 625.261 143.446 626.008 143.446 626.84C143.446 627.672 143.564 628.429 143.798 629.112C144.054 629.773 144.396 630.339 144.822 630.808C145.27 631.277 145.793 631.64 146.39 631.896C147.009 632.152 147.681 632.28 148.406 632.28ZM162.321 618.68H176.881V635H173.521V621.72H165.681V635H162.321V618.68ZM183.288 618.68H186.648V620.76H186.808C187.17 620.333 187.608 619.939 188.12 619.576C188.546 619.277 189.069 619 189.688 618.744C190.328 618.488 191.074 618.36 191.928 618.36C193.016 618.36 194.018 618.563 194.936 618.968C195.874 619.373 196.685 619.949 197.368 620.696C198.072 621.421 198.616 622.307 199 623.352C199.405 624.397 199.608 625.56 199.608 626.84C199.608 628.12 199.405 629.283 199 630.328C198.616 631.373 198.072 632.269 197.368 633.016C196.685 633.741 195.874 634.307 194.936 634.712C194.018 635.117 193.016 635.32 191.928 635.32C191.074 635.32 190.328 635.203 189.688 634.968C189.069 634.712 188.546 634.435 188.12 634.136C187.608 633.773 187.17 633.368 186.808 632.92H186.648V641.08H183.288V618.68ZM191.288 632.28C192.738 632.28 193.901 631.821 194.776 630.904C195.65 629.965 196.088 628.611 196.088 626.84C196.088 625.069 195.65 623.725 194.776 622.808C193.901 621.869 192.738 621.4 191.288 621.4C189.922 621.4 188.802 621.869 187.928 622.808C187.074 623.725 186.648 625.069 186.648 626.84C186.648 628.611 187.074 629.965 187.928 630.904C188.802 631.821 189.922 632.28 191.288 632.28ZM212.555 635.32C211.36 635.32 210.24 635.107 209.195 634.68C208.171 634.232 207.275 633.635 206.507 632.888C205.76 632.12 205.163 631.224 204.715 630.2C204.288 629.155 204.075 628.035 204.075 626.84C204.075 625.645 204.288 624.536 204.715 623.512C205.163 622.467 205.76 621.571 206.507 620.824C207.275 620.056 208.171 619.459 209.195 619.032C210.24 618.584 211.36 618.36 212.555 618.36C213.75 618.36 214.859 618.584 215.883 619.032C216.928 619.459 217.824 620.056 218.571 620.824C219.339 621.571 219.936 622.467 220.363 623.512C220.811 624.536 221.035 625.645 221.035 626.84C221.035 628.035 220.811 629.155 220.363 630.2C219.936 631.224 219.339 632.12 218.571 632.888C217.824 633.635 216.928 634.232 215.883 634.68C214.859 635.107 213.75 635.32 212.555 635.32ZM212.555 632.28C213.28 632.28 213.942 632.152 214.539 631.896C215.158 631.64 215.68 631.277 216.107 630.808C216.555 630.339 216.896 629.773 217.131 629.112C217.387 628.429 217.515 627.672 217.515 626.84C217.515 626.008 217.387 625.261 217.131 624.6C216.896 623.917 216.555 623.341 216.107 622.872C215.68 622.403 215.158 622.04 214.539 621.784C213.942 621.528 213.28 621.4 212.555 621.4C211.83 621.4 211.158 621.528 210.539 621.784C209.942 622.04 209.419 622.403 208.971 622.872C208.544 623.341 208.203 623.917 207.947 624.6C207.712 625.261 207.595 626.008 207.595 626.84C207.595 627.672 207.712 628.429 207.947 629.112C208.203 629.773 208.544 630.339 208.971 630.808C209.419 631.277 209.942 631.64 210.539 631.896C211.158 632.152 211.83 632.28 212.555 632.28ZM233.67 635.32C232.518 635.32 231.451 635.117 230.47 634.712C229.489 634.285 228.635 633.677 227.91 632.888C227.206 632.077 226.651 631.085 226.246 629.912C225.862 628.739 225.67 627.395 225.67 625.88C225.67 623.512 225.905 621.496 226.374 619.832C226.843 618.147 227.537 616.771 228.454 615.704C229.393 614.637 230.534 613.859 231.878 613.368C233.222 612.856 234.779 612.6 236.55 612.6H240.39V615.64H236.87C234.31 615.64 232.401 616.237 231.142 617.432C229.883 618.605 229.179 620.195 229.03 622.2H229.19C229.489 621.795 229.883 621.421 230.374 621.08C230.801 620.803 231.323 620.547 231.942 620.312C232.582 620.077 233.371 619.96 234.31 619.96C235.355 619.96 236.326 620.152 237.222 620.536C238.118 620.92 238.897 621.453 239.558 622.136C240.219 622.797 240.731 623.608 241.094 624.568C241.478 625.507 241.67 626.531 241.67 627.64C241.67 628.771 241.478 629.805 241.094 630.744C240.71 631.683 240.166 632.493 239.462 633.176C238.758 633.837 237.915 634.36 236.934 634.744C235.953 635.128 234.865 635.32 233.67 635.32ZM233.67 632.28C234.31 632.28 234.897 632.173 235.43 631.96C235.985 631.725 236.465 631.405 236.87 631C237.275 630.573 237.585 630.083 237.798 629.528C238.033 628.952 238.15 628.323 238.15 627.64C238.15 626.957 238.033 626.339 237.798 625.784C237.585 625.208 237.275 624.717 236.87 624.312C236.465 623.885 235.985 623.565 235.43 623.352C234.897 623.117 234.31 623 233.67 623C233.03 623 232.433 623.117 231.878 623.352C231.345 623.565 230.875 623.885 230.47 624.312C230.065 624.717 229.745 625.208 229.51 625.784C229.297 626.339 229.19 626.957 229.19 627.64C229.19 628.323 229.297 628.952 229.51 629.528C229.745 630.083 230.065 630.573 230.47 631C230.875 631.405 231.345 631.725 231.878 631.96C232.433 632.173 233.03 632.28 233.67 632.28ZM254.456 635.32C253.262 635.32 252.142 635.107 251.096 634.68C250.072 634.232 249.176 633.635 248.408 632.888C247.662 632.12 247.064 631.224 246.616 630.2C246.19 629.155 245.976 628.035 245.976 626.84C245.976 625.645 246.19 624.536 246.616 623.512C247.064 622.467 247.662 621.571 248.408 620.824C249.176 620.056 250.072 619.459 251.096 619.032C252.142 618.584 253.262 618.36 254.456 618.36C255.651 618.36 256.76 618.584 257.784 619.032C258.83 619.459 259.726 620.056 260.472 620.824C261.24 621.571 261.838 622.467 262.264 623.512C262.712 624.536 262.936 625.645 262.936 626.84C262.936 628.035 262.712 629.155 262.264 630.2C261.838 631.224 261.24 632.12 260.472 632.888C259.726 633.635 258.83 634.232 257.784 634.68C256.76 635.107 255.651 635.32 254.456 635.32ZM254.456 632.28C255.182 632.28 255.843 632.152 256.44 631.896C257.059 631.64 257.582 631.277 258.008 630.808C258.456 630.339 258.798 629.773 259.032 629.112C259.288 628.429 259.416 627.672 259.416 626.84C259.416 626.008 259.288 625.261 259.032 624.6C258.798 623.917 258.456 623.341 258.008 622.872C257.582 622.403 257.059 622.04 256.44 621.784C255.843 621.528 255.182 621.4 254.456 621.4C253.731 621.4 253.059 621.528 252.44 621.784C251.843 622.04 251.32 622.403 250.872 622.872C250.446 623.341 250.104 623.917 249.848 624.6C249.614 625.261 249.496 626.008 249.496 626.84C249.496 627.672 249.614 628.429 249.848 629.112C250.104 629.773 250.446 630.339 250.872 630.808C251.32 631.277 251.843 631.64 252.44 631.896C253.059 632.152 253.731 632.28 254.456 632.28ZM268.371 618.68H276.531C278.131 618.68 279.358 619.064 280.211 619.832C281.065 620.6 281.491 621.549 281.491 622.68C281.491 623.448 281.353 624.067 281.075 624.536C280.819 624.984 280.531 625.336 280.211 625.592C279.827 625.891 279.401 626.093 278.931 626.2V626.328C279.529 626.435 280.062 626.648 280.531 626.968C280.937 627.245 281.299 627.651 281.619 628.184C281.961 628.696 282.131 629.411 282.131 630.328C282.131 630.968 282.003 631.576 281.747 632.152C281.491 632.728 281.129 633.229 280.659 633.656C280.19 634.061 279.614 634.392 278.931 634.648C278.27 634.883 277.523 635 276.691 635H268.371V618.68ZM276.531 631.96C277.257 631.96 277.811 631.779 278.195 631.416C278.579 631.032 278.771 630.52 278.771 629.88C278.771 629.325 278.579 628.867 278.195 628.504C277.811 628.141 277.257 627.96 276.531 627.96H271.731V631.96H276.531ZM276.211 625.08C277.491 625.08 278.131 624.493 278.131 623.32C278.131 622.829 277.971 622.445 277.651 622.168C277.331 621.869 276.851 621.72 276.211 621.72H271.731V625.08H276.211ZM294.464 635.32C293.376 635.32 292.362 635.117 291.424 634.712C290.506 634.307 289.696 633.741 288.992 633.016C288.309 632.269 287.765 631.373 287.36 630.328C286.976 629.283 286.784 628.12 286.784 626.84C286.784 625.56 286.976 624.397 287.36 623.352C287.765 622.307 288.309 621.421 288.992 620.696C289.696 619.949 290.506 619.373 291.424 618.968C292.362 618.563 293.376 618.36 294.464 618.36C295.296 618.36 296.032 618.488 296.672 618.744C297.312 619 297.845 619.277 298.272 619.576C298.784 619.939 299.221 620.333 299.584 620.76H299.744V618.68H303.104V635H299.744V632.76H299.584C299.221 633.229 298.784 633.656 298.272 634.04C297.845 634.36 297.312 634.659 296.672 634.936C296.032 635.192 295.296 635.32 294.464 635.32ZM295.104 632.28C296.469 632.28 297.578 631.821 298.432 630.904C299.306 629.965 299.744 628.611 299.744 626.84C299.744 625.069 299.306 623.725 298.432 622.808C297.578 621.869 296.469 621.4 295.104 621.4C293.653 621.4 292.49 621.869 291.616 622.808C290.741 623.725 290.304 625.069 290.304 626.84C290.304 628.611 290.741 629.965 291.616 630.904C292.49 631.821 293.653 632.28 295.104 632.28ZM313.171 621.72H307.731V618.68H321.971V621.72H316.531V635H313.171V621.72ZM326.614 618.68H329.974V624.12H333.974C334.934 624.12 335.798 624.259 336.566 624.536C337.334 624.813 337.984 625.197 338.518 625.688C339.072 626.179 339.488 626.755 339.766 627.416C340.064 628.077 340.214 628.792 340.214 629.56C340.214 630.328 340.064 631.043 339.766 631.704C339.488 632.365 339.072 632.941 338.518 633.432C337.984 633.923 337.334 634.307 336.566 634.584C335.798 634.861 334.934 635 333.974 635H326.614V618.68ZM333.974 631.96C334.87 631.96 335.542 631.747 335.99 631.32C336.459 630.872 336.694 630.285 336.694 629.56C336.694 628.835 336.459 628.259 335.99 627.832C335.542 627.384 334.87 627.16 333.974 627.16H329.974V631.96H333.974ZM130 669.4C129.68 669.613 129.317 669.805 128.912 669.976C128.549 670.125 128.101 670.253 127.568 670.36C127.035 670.467 126.405 670.52 125.68 670.52C123.675 670.52 122.128 670.008 121.04 668.984C119.973 667.939 119.44 666.531 119.44 664.76V658.68H122.8V664.44C122.8 665.4 123.067 666.147 123.6 666.68C124.155 667.213 124.955 667.48 126 667.48C126.725 667.48 127.333 667.437 127.824 667.352C128.336 667.245 128.752 667.128 129.072 667C129.456 666.872 129.765 666.712 130 666.52V658.68H133.36V675H130V669.4ZM143.441 661.72H138.001V658.68H152.241V661.72H146.801V675H143.441V661.72ZM164.404 675.32C163.209 675.32 162.089 675.107 161.044 674.68C160.02 674.232 159.124 673.635 158.356 672.888C157.609 672.12 157.012 671.224 156.564 670.2C156.137 669.155 155.924 668.035 155.924 666.84C155.924 665.645 156.137 664.536 156.564 663.512C157.012 662.467 157.609 661.571 158.356 660.824C159.124 660.056 160.02 659.459 161.044 659.032C162.089 658.584 163.209 658.36 164.404 658.36C165.598 658.36 166.708 658.584 167.732 659.032C168.777 659.459 169.673 660.056 170.42 660.824C171.188 661.571 171.785 662.467 172.212 663.512C172.66 664.536 172.884 665.645 172.884 666.84C172.884 668.035 172.66 669.155 172.212 670.2C171.785 671.224 171.188 672.12 170.42 672.888C169.673 673.635 168.777 674.232 167.732 674.68C166.708 675.107 165.598 675.32 164.404 675.32ZM164.404 672.28C165.129 672.28 165.79 672.152 166.388 671.896C167.006 671.64 167.529 671.277 167.956 670.808C168.404 670.339 168.745 669.773 168.98 669.112C169.236 668.429 169.364 667.672 169.364 666.84C169.364 666.008 169.236 665.261 168.98 664.6C168.745 663.917 168.404 663.341 167.956 662.872C167.529 662.403 167.006 662.04 166.388 661.784C165.79 661.528 165.129 661.4 164.404 661.4C163.678 661.4 163.006 661.528 162.388 661.784C161.79 662.04 161.268 662.403 160.82 662.872C160.393 663.341 160.052 663.917 159.796 664.6C159.561 665.261 159.444 666.008 159.444 666.84C159.444 667.672 159.561 668.429 159.796 669.112C160.052 669.773 160.393 670.339 160.82 670.808C161.268 671.277 161.79 671.64 162.388 671.896C163.006 672.152 163.678 672.28 164.404 672.28ZM178.319 664.6H189.999V667.8H178.319V664.6ZM200.09 661.72H194.65V658.68H208.89V661.72H203.45V675H200.09V661.72ZM221.053 675.32C219.858 675.32 218.738 675.107 217.693 674.68C216.669 674.232 215.773 673.635 215.005 672.888C214.258 672.12 213.661 671.224 213.213 670.2C212.786 669.155 212.573 668.035 212.573 666.84C212.573 665.645 212.786 664.536 213.213 663.512C213.661 662.467 214.258 661.571 215.005 660.824C215.773 660.056 216.669 659.459 217.693 659.032C218.738 658.584 219.858 658.36 221.053 658.36C222.247 658.36 223.357 658.584 224.381 659.032C225.426 659.459 226.322 660.056 227.069 660.824C227.837 661.571 228.434 662.467 228.861 663.512C229.309 664.536 229.533 665.645 229.533 666.84C229.533 668.035 229.309 669.155 228.861 670.2C228.434 671.224 227.837 672.12 227.069 672.888C226.322 673.635 225.426 674.232 224.381 674.68C223.357 675.107 222.247 675.32 221.053 675.32ZM221.053 672.28C221.778 672.28 222.439 672.152 223.037 671.896C223.655 671.64 224.178 671.277 224.605 670.808C225.053 670.339 225.394 669.773 225.629 669.112C225.885 668.429 226.013 667.672 226.013 666.84C226.013 666.008 225.885 665.261 225.629 664.6C225.394 663.917 225.053 663.341 224.605 662.872C224.178 662.403 223.655 662.04 223.037 661.784C222.439 661.528 221.778 661.4 221.053 661.4C220.327 661.4 219.655 661.528 219.037 661.784C218.439 662.04 217.917 662.403 217.469 662.872C217.042 663.341 216.701 663.917 216.445 664.6C216.21 665.261 216.093 666.008 216.093 666.84C216.093 667.672 216.21 668.429 216.445 669.112C216.701 669.773 217.042 670.339 217.469 670.808C217.917 671.277 218.439 671.64 219.037 671.896C219.655 672.152 220.327 672.28 221.053 672.28ZM246.496 658.68H249.856V665.24H257.856V658.68H261.216V675H257.856V668.28H249.856V675H246.496V658.68ZM275.139 675.32C273.944 675.32 272.824 675.107 271.779 674.68C270.755 674.232 269.859 673.635 269.091 672.888C268.344 672.12 267.747 671.224 267.299 670.2C266.872 669.155 266.659 668.035 266.659 666.84C266.659 665.645 266.872 664.536 267.299 663.512C267.747 662.467 268.344 661.571 269.091 660.824C269.859 660.056 270.755 659.459 271.779 659.032C272.824 658.584 273.944 658.36 275.139 658.36C276.333 658.36 277.443 658.584 278.467 659.032C279.512 659.459 280.408 660.056 281.155 660.824C281.923 661.571 282.52 662.467 282.947 663.512C283.395 664.536 283.619 665.645 283.619 666.84C283.619 668.035 283.395 669.155 282.947 670.2C282.52 671.224 281.923 672.12 281.155 672.888C280.408 673.635 279.512 674.232 278.467 674.68C277.443 675.107 276.333 675.32 275.139 675.32ZM275.139 672.28C275.864 672.28 276.525 672.152 277.123 671.896C277.741 671.64 278.264 671.277 278.691 670.808C279.139 670.339 279.48 669.773 279.715 669.112C279.971 668.429 280.099 667.672 280.099 666.84C280.099 666.008 279.971 665.261 279.715 664.6C279.48 663.917 279.139 663.341 278.691 662.872C278.264 662.403 277.741 662.04 277.123 661.784C276.525 661.528 275.864 661.4 275.139 661.4C274.413 661.4 273.741 661.528 273.123 661.784C272.525 662.04 272.003 662.403 271.555 662.872C271.128 663.341 270.787 663.917 270.531 664.6C270.296 665.261 270.179 666.008 270.179 666.84C270.179 667.672 270.296 668.429 270.531 669.112C270.787 669.773 271.128 670.339 271.555 670.808C272.003 671.277 272.525 671.64 273.123 671.896C273.741 672.152 274.413 672.28 275.139 672.28ZM289.054 658.68H297.214C298.814 658.68 300.04 659.064 300.894 659.832C301.747 660.6 302.174 661.549 302.174 662.68C302.174 663.448 302.035 664.067 301.758 664.536C301.502 664.984 301.214 665.336 300.894 665.592C300.51 665.891 300.083 666.093 299.614 666.2V666.328C300.211 666.435 300.744 666.648 301.214 666.968C301.619 667.245 301.982 667.651 302.302 668.184C302.643 668.696 302.814 669.411 302.814 670.328C302.814 670.968 302.686 671.576 302.43 672.152C302.174 672.728 301.811 673.229 301.342 673.656C300.872 674.061 300.296 674.392 299.614 674.648C298.952 674.883 298.206 675 297.374 675H289.054V658.68ZM297.214 671.96C297.939 671.96 298.494 671.779 298.878 671.416C299.262 671.032 299.454 670.52 299.454 669.88C299.454 669.325 299.262 668.867 298.878 668.504C298.494 668.141 297.939 667.96 297.214 667.96H292.414V671.96H297.214ZM296.894 665.08C298.174 665.08 298.814 664.493 298.814 663.32C298.814 662.829 298.654 662.445 298.334 662.168C298.014 661.869 297.534 661.72 296.894 661.72H292.414V665.08H296.894ZM315.946 675.32C314.752 675.32 313.632 675.107 312.586 674.68C311.562 674.232 310.666 673.635 309.898 672.888C309.152 672.12 308.554 671.224 308.106 670.2C307.68 669.155 307.466 668.035 307.466 666.84C307.466 665.645 307.68 664.536 308.106 663.512C308.554 662.467 309.152 661.571 309.898 660.824C310.666 660.056 311.562 659.459 312.586 659.032C313.632 658.584 314.752 658.36 315.946 658.36C317.141 658.36 318.25 658.584 319.274 659.032C320.32 659.459 321.216 660.056 321.962 660.824C322.73 661.571 323.328 662.467 323.754 663.512C324.202 664.536 324.426 665.645 324.426 666.84C324.426 668.035 324.202 669.155 323.754 670.2C323.328 671.224 322.73 672.12 321.962 672.888C321.216 673.635 320.32 674.232 319.274 674.68C318.25 675.107 317.141 675.32 315.946 675.32ZM315.946 672.28C316.672 672.28 317.333 672.152 317.93 671.896C318.549 671.64 319.072 671.277 319.498 670.808C319.946 670.339 320.288 669.773 320.522 669.112C320.778 668.429 320.906 667.672 320.906 666.84C320.906 666.008 320.778 665.261 320.522 664.6C320.288 663.917 319.946 663.341 319.498 662.872C319.072 662.403 318.549 662.04 317.93 661.784C317.333 661.528 316.672 661.4 315.946 661.4C315.221 661.4 314.549 661.528 313.93 661.784C313.333 662.04 312.81 662.403 312.362 662.872C311.936 663.341 311.594 663.917 311.338 664.6C311.104 665.261 310.986 666.008 310.986 666.84C310.986 667.672 311.104 668.429 311.338 669.112C311.594 669.773 311.936 670.339 312.362 670.808C312.81 671.277 313.333 671.64 313.93 671.896C314.549 672.152 315.221 672.28 315.946 672.28ZM337.221 675.32C336.069 675.32 334.981 675.107 333.957 674.68C332.955 674.232 332.069 673.635 331.301 672.888C330.555 672.12 329.968 671.224 329.541 670.2C329.115 669.155 328.901 668.035 328.901 666.84C328.901 665.645 329.115 664.536 329.541 663.512C329.968 662.467 330.555 661.571 331.301 660.824C332.069 660.056 332.955 659.459 333.957 659.032C334.981 658.584 336.069 658.36 337.221 658.36C338.373 658.36 339.451 658.584 340.453 659.032C341.477 659.459 342.363 660.056 343.109 660.824C343.877 661.571 344.475 662.467 344.901 663.512C345.328 664.536 345.541 665.645 345.541 666.84V667.96H332.261C332.389 668.643 332.603 669.251 332.901 669.784C333.2 670.317 333.573 670.776 334.021 671.16C334.469 671.523 334.96 671.8 335.493 671.992C336.048 672.184 336.624 672.28 337.221 672.28C338.053 672.28 338.768 672.173 339.365 671.96C339.963 671.725 340.443 671.459 340.805 671.16C341.232 670.84 341.584 670.467 341.861 670.04H345.381C344.976 671.043 344.411 671.928 343.685 672.696C343.365 673.016 343.003 673.336 342.597 673.656C342.192 673.976 341.723 674.264 341.189 674.52C340.656 674.755 340.059 674.947 339.397 675.096C338.736 675.245 338.011 675.32 337.221 675.32ZM342.021 665.24C341.936 664.771 341.776 664.301 341.541 663.832C341.307 663.363 340.987 662.957 340.581 662.616C340.176 662.253 339.696 661.965 339.141 661.752C338.587 661.517 337.947 661.4 337.221 661.4C336.667 661.4 336.123 661.485 335.589 661.656C335.077 661.827 334.597 662.083 334.149 662.424C333.723 662.744 333.36 663.149 333.061 663.64C332.763 664.109 332.549 664.643 332.421 665.24H342.021Z" fill="white"/>
<path d="M526.92 600.68H541.48V617H538.12V603.72H530.28V617H526.92V600.68ZM555.406 617.32C554.212 617.32 553.092 617.107 552.046 616.68C551.022 616.232 550.126 615.635 549.358 614.888C548.612 614.12 548.014 613.224 547.566 612.2C547.14 611.155 546.926 610.035 546.926 608.84C546.926 607.645 547.14 606.536 547.566 605.512C548.014 604.467 548.612 603.571 549.358 602.824C550.126 602.056 551.022 601.459 552.046 601.032C553.092 600.584 554.212 600.36 555.406 600.36C556.601 600.36 557.71 600.584 558.734 601.032C559.78 601.459 560.676 602.056 561.422 602.824C562.19 603.571 562.788 604.467 563.214 605.512C563.662 606.536 563.886 607.645 563.886 608.84C563.886 610.035 563.662 611.155 563.214 612.2C562.788 613.224 562.19 614.12 561.422 614.888C560.676 615.635 559.78 616.232 558.734 616.68C557.71 617.107 556.601 617.32 555.406 617.32ZM555.406 614.28C556.132 614.28 556.793 614.152 557.39 613.896C558.009 613.64 558.532 613.277 558.958 612.808C559.406 612.339 559.748 611.773 559.982 611.112C560.238 610.429 560.366 609.672 560.366 608.84C560.366 608.008 560.238 607.261 559.982 606.6C559.748 605.917 559.406 605.341 558.958 604.872C558.532 604.403 558.009 604.04 557.39 603.784C556.793 603.528 556.132 603.4 555.406 603.4C554.681 603.4 554.009 603.528 553.39 603.784C552.793 604.04 552.27 604.403 551.822 604.872C551.396 605.341 551.054 605.917 550.798 606.6C550.564 607.261 550.446 608.008 550.446 608.84C550.446 609.672 550.564 610.429 550.798 611.112C551.054 611.773 551.396 612.339 551.822 612.808C552.27 613.277 552.793 613.64 553.39 613.896C554.009 614.152 554.681 614.28 555.406 614.28ZM579.401 611.4C579.081 611.613 578.719 611.805 578.313 611.976C577.951 612.125 577.503 612.253 576.969 612.36C576.436 612.467 575.807 612.52 575.081 612.52C573.076 612.52 571.529 612.008 570.441 610.984C569.375 609.939 568.841 608.531 568.841 606.76V600.68H572.201V606.44C572.201 607.4 572.468 608.147 573.001 608.68C573.556 609.213 574.356 609.48 575.401 609.48C576.127 609.48 576.735 609.437 577.225 609.352C577.737 609.245 578.153 609.128 578.473 609C578.857 608.872 579.167 608.712 579.401 608.52V600.68H582.761V617H579.401V611.4ZM595.403 617H592.043L587.563 600.68H591.083L594.603 613.8H596.363L600.203 600.68H603.723L597.003 623.08H593.483L595.403 617ZM608.035 600.68H616.195C617.795 600.68 619.022 601.064 619.875 601.832C620.728 602.6 621.155 603.549 621.155 604.68C621.155 605.448 621.016 606.067 620.739 606.536C620.483 606.984 620.195 607.336 619.875 607.592C619.491 607.891 619.064 608.093 618.595 608.2V608.328C619.192 608.435 619.726 608.648 620.195 608.968C620.6 609.245 620.963 609.651 621.283 610.184C621.624 610.696 621.795 611.411 621.795 612.328C621.795 612.968 621.667 613.576 621.411 614.152C621.155 614.728 620.792 615.229 620.323 615.656C619.854 616.061 619.278 616.392 618.595 616.648C617.934 616.883 617.187 617 616.355 617H608.035V600.68ZM616.195 613.96C616.92 613.96 617.475 613.779 617.859 613.416C618.243 613.032 618.435 612.52 618.435 611.88C618.435 611.325 618.243 610.867 617.859 610.504C617.475 610.141 616.92 609.96 616.195 609.96H611.395V613.96H616.195ZM615.875 607.08C617.155 607.08 617.795 606.493 617.795 605.32C617.795 604.829 617.635 604.445 617.315 604.168C616.995 603.869 616.515 603.72 615.875 603.72H611.395V607.08H615.875ZM634.608 617.32C633.456 617.32 632.378 617.117 631.376 616.712C630.373 616.285 629.509 615.699 628.784 614.952C628.058 614.184 627.482 613.288 627.056 612.264C626.65 611.219 626.448 610.077 626.448 608.84C626.448 607.603 626.65 606.472 627.056 605.448C627.482 604.403 628.058 603.507 628.784 602.76C629.509 601.992 630.373 601.405 631.376 601C632.378 600.573 633.456 600.36 634.608 600.36C635.418 600.36 636.154 600.445 636.816 600.616C637.477 600.787 638.064 601.011 638.576 601.288C639.109 601.565 639.568 601.885 639.952 602.248C640.336 602.611 640.677 602.973 640.976 603.336C641.658 604.189 642.149 605.171 642.448 606.28H638.928C638.757 605.747 638.48 605.267 638.096 604.84C637.776 604.477 637.338 604.147 636.784 603.848C636.229 603.549 635.504 603.4 634.608 603.4C633.968 603.4 633.36 603.528 632.784 603.784C632.229 604.04 631.738 604.403 631.312 604.872C630.906 605.341 630.576 605.917 630.32 606.6C630.085 607.261 629.968 608.008 629.968 608.84C629.968 609.672 630.085 610.429 630.32 611.112C630.576 611.773 630.906 612.339 631.312 612.808C631.738 613.277 632.229 613.64 632.784 613.896C633.36 614.152 633.968 614.28 634.608 614.28C635.525 614.28 636.272 614.131 636.848 613.832C637.424 613.533 637.882 613.203 638.224 612.84C638.608 612.435 638.896 611.955 639.088 611.4H642.448C642.149 612.531 641.658 613.523 640.976 614.376C640.677 614.739 640.336 615.101 639.952 615.464C639.568 615.805 639.109 616.115 638.576 616.392C638.064 616.669 637.477 616.893 636.816 617.064C636.154 617.235 635.418 617.32 634.608 617.32ZM651.398 603.72H645.958V600.68H660.198V603.72H654.758V617H651.398V603.72ZM664.84 600.68H673C674.6 600.68 675.827 601.064 676.68 601.832C677.533 602.6 677.96 603.549 677.96 604.68C677.96 605.448 677.821 606.067 677.544 606.536C677.288 606.984 677 607.336 676.68 607.592C676.296 607.891 675.869 608.093 675.4 608.2V608.328C675.997 608.435 676.531 608.648 677 608.968C677.405 609.245 677.768 609.651 678.088 610.184C678.429 610.696 678.6 611.411 678.6 612.328C678.6 612.968 678.472 613.576 678.216 614.152C677.96 614.728 677.597 615.229 677.128 615.656C676.659 616.061 676.083 616.392 675.4 616.648C674.739 616.883 673.992 617 673.16 617H664.84V600.68ZM673 613.96C673.725 613.96 674.28 613.779 674.664 613.416C675.048 613.032 675.24 612.52 675.24 611.88C675.24 611.325 675.048 610.867 674.664 610.504C674.28 610.141 673.725 609.96 673 609.96H668.2V613.96H673ZM672.68 607.08C673.96 607.08 674.6 606.493 674.6 605.32C674.6 604.829 674.44 604.445 674.12 604.168C673.8 603.869 673.32 603.72 672.68 603.72H668.2V607.08H672.68ZM691.732 617.32C690.538 617.32 689.418 617.107 688.372 616.68C687.348 616.232 686.452 615.635 685.684 614.888C684.938 614.12 684.34 613.224 683.892 612.2C683.466 611.155 683.252 610.035 683.252 608.84C683.252 607.645 683.466 606.536 683.892 605.512C684.34 604.467 684.938 603.571 685.684 602.824C686.452 602.056 687.348 601.459 688.372 601.032C689.418 600.584 690.538 600.36 691.732 600.36C692.927 600.36 694.036 600.584 695.06 601.032C696.106 601.459 697.002 602.056 697.748 602.824C698.516 603.571 699.114 604.467 699.54 605.512C699.988 606.536 700.212 607.645 700.212 608.84C700.212 610.035 699.988 611.155 699.54 612.2C699.114 613.224 698.516 614.12 697.748 614.888C697.002 615.635 696.106 616.232 695.06 616.68C694.036 617.107 692.927 617.32 691.732 617.32ZM691.732 614.28C692.458 614.28 693.119 614.152 693.716 613.896C694.335 613.64 694.858 613.277 695.284 612.808C695.732 612.339 696.074 611.773 696.308 611.112C696.564 610.429 696.692 609.672 696.692 608.84C696.692 608.008 696.564 607.261 696.308 606.6C696.074 605.917 695.732 605.341 695.284 604.872C694.858 604.403 694.335 604.04 693.716 603.784C693.119 603.528 692.458 603.4 691.732 603.4C691.007 603.4 690.335 603.528 689.716 603.784C689.119 604.04 688.596 604.403 688.148 604.872C687.722 605.341 687.38 605.917 687.124 606.6C686.89 607.261 686.772 608.008 686.772 608.84C686.772 609.672 686.89 610.429 687.124 611.112C687.38 611.773 687.722 612.339 688.148 612.808C688.596 613.277 689.119 613.64 689.716 613.896C690.335 614.152 691.007 614.28 691.732 614.28ZM705.647 600.68H713.807C715.407 600.68 716.634 601.064 717.487 601.832C718.341 602.6 718.767 603.549 718.767 604.68C718.767 605.448 718.629 606.067 718.351 606.536C718.095 606.984 717.807 607.336 717.487 607.592C717.103 607.891 716.677 608.093 716.207 608.2V608.328C716.805 608.435 717.338 608.648 717.807 608.968C718.213 609.245 718.575 609.651 718.895 610.184C719.237 610.696 719.407 611.411 719.407 612.328C719.407 612.968 719.279 613.576 719.023 614.152C718.767 614.728 718.405 615.229 717.935 615.656C717.466 616.061 716.89 616.392 716.207 616.648C715.546 616.883 714.799 617 713.967 617H705.647V600.68ZM713.807 613.96C714.533 613.96 715.087 613.779 715.471 613.416C715.855 613.032 716.047 612.52 716.047 611.88C716.047 611.325 715.855 610.867 715.471 610.504C715.087 610.141 714.533 609.96 713.807 609.96H709.007V613.96H713.807ZM713.487 607.08C714.767 607.08 715.407 606.493 715.407 605.32C715.407 604.829 715.247 604.445 714.927 604.168C714.607 603.869 714.127 603.72 713.487 603.72H709.007V607.08H713.487ZM731.74 617.32C730.652 617.32 729.639 617.117 728.7 616.712C727.783 616.307 726.972 615.741 726.268 615.016C725.585 614.269 725.041 613.373 724.636 612.328C724.252 611.283 724.06 610.12 724.06 608.84C724.06 607.56 724.252 606.397 724.636 605.352C725.041 604.307 725.585 603.421 726.268 602.696C726.972 601.949 727.783 601.373 728.7 600.968C729.639 600.563 730.652 600.36 731.74 600.36C732.572 600.36 733.308 600.488 733.948 600.744C734.588 601 735.121 601.277 735.548 601.576C736.06 601.939 736.497 602.333 736.86 602.76H737.02V600.68H740.38V617H737.02V614.76H736.86C736.497 615.229 736.06 615.656 735.548 616.04C735.121 616.36 734.588 616.659 733.948 616.936C733.308 617.192 732.572 617.32 731.74 617.32ZM732.38 614.28C733.745 614.28 734.855 613.821 735.708 612.904C736.583 611.965 737.02 610.611 737.02 608.84C737.02 607.069 736.583 605.725 735.708 604.808C734.855 603.869 733.745 603.4 732.38 603.4C730.929 603.4 729.767 603.869 728.892 604.808C728.017 605.725 727.58 607.069 727.58 608.84C727.58 610.611 728.017 611.965 728.892 612.904C729.767 613.821 730.929 614.28 732.38 614.28ZM750.448 603.72H745.008V600.68H759.248V603.72H753.808V617H750.448V603.72ZM763.89 600.68H767.25V606.12H771.25C772.21 606.12 773.074 606.259 773.842 606.536C774.61 606.813 775.261 607.197 775.794 607.688C776.349 608.179 776.765 608.755 777.042 609.416C777.341 610.077 777.49 610.792 777.49 611.56C777.49 612.328 777.341 613.043 777.042 613.704C776.765 614.365 776.349 614.941 775.794 615.432C775.261 615.923 774.61 616.307 773.842 616.584C773.074 616.861 772.21 617 771.25 617H763.89V600.68ZM771.25 613.96C772.146 613.96 772.818 613.747 773.266 613.32C773.735 612.872 773.97 612.285 773.97 611.56C773.97 610.835 773.735 610.259 773.266 609.832C772.818 609.384 772.146 609.16 771.25 609.16H767.25V613.96H771.25ZM534.12 657.32C532.968 657.32 531.891 657.117 530.888 656.712C529.885 656.285 529.021 655.699 528.296 654.952C527.571 654.184 526.995 653.288 526.568 652.264C526.163 651.219 525.96 650.077 525.96 648.84C525.96 647.603 526.163 646.472 526.568 645.448C526.995 644.403 527.571 643.507 528.296 642.76C529.021 641.992 529.885 641.405 530.888 641C531.891 640.573 532.968 640.36 534.12 640.36C534.931 640.36 535.667 640.445 536.328 640.616C536.989 640.787 537.576 641.011 538.088 641.288C538.621 641.565 539.08 641.885 539.464 642.248C539.848 642.611 540.189 642.973 540.488 643.336C541.171 644.189 541.661 645.171 541.96 646.28H538.44C538.269 645.747 537.992 645.267 537.608 644.84C537.288 644.477 536.851 644.147 536.296 643.848C535.741 643.549 535.016 643.4 534.12 643.4C533.48 643.4 532.872 643.528 532.296 643.784C531.741 644.04 531.251 644.403 530.824 644.872C530.419 645.341 530.088 645.917 529.832 646.6C529.597 647.261 529.48 648.008 529.48 648.84C529.48 649.672 529.597 650.429 529.832 651.112C530.088 651.773 530.419 652.339 530.824 652.808C531.251 653.277 531.741 653.64 532.296 653.896C532.872 654.152 533.48 654.28 534.12 654.28C535.037 654.28 535.784 654.131 536.36 653.832C536.936 653.533 537.395 653.203 537.736 652.84C538.12 652.435 538.408 651.955 538.6 651.4H541.96C541.661 652.531 541.171 653.523 540.488 654.376C540.189 654.739 539.848 655.101 539.464 655.464C539.08 655.805 538.621 656.115 538.088 656.392C537.576 656.669 536.989 656.893 536.328 657.064C535.667 657.235 534.931 657.32 534.12 657.32ZM554.59 657.32C553.438 657.32 552.35 657.107 551.326 656.68C550.323 656.232 549.438 655.635 548.67 654.888C547.923 654.12 547.337 653.224 546.91 652.2C546.483 651.155 546.27 650.035 546.27 648.84C546.27 647.645 546.483 646.536 546.91 645.512C547.337 644.467 547.923 643.571 548.67 642.824C549.438 642.056 550.323 641.459 551.326 641.032C552.35 640.584 553.438 640.36 554.59 640.36C555.742 640.36 556.819 640.584 557.822 641.032C558.846 641.459 559.731 642.056 560.478 642.824C561.246 643.571 561.843 644.467 562.27 645.512C562.697 646.536 562.91 647.645 562.91 648.84V649.96H549.63C549.758 650.643 549.971 651.251 550.27 651.784C550.569 652.317 550.942 652.776 551.39 653.16C551.838 653.523 552.329 653.8 552.862 653.992C553.417 654.184 553.993 654.28 554.59 654.28C555.422 654.28 556.137 654.173 556.734 653.96C557.331 653.725 557.811 653.459 558.174 653.16C558.601 652.84 558.953 652.467 559.23 652.04H562.75C562.345 653.043 561.779 653.928 561.054 654.696C560.734 655.016 560.371 655.336 559.966 655.656C559.561 655.976 559.091 656.264 558.558 656.52C558.025 656.755 557.427 656.947 556.766 657.096C556.105 657.245 555.379 657.32 554.59 657.32ZM559.39 647.24C559.305 646.771 559.145 646.301 558.91 645.832C558.675 645.363 558.355 644.957 557.95 644.616C557.545 644.253 557.065 643.965 556.51 643.752C555.955 643.517 555.315 643.4 554.59 643.4C554.035 643.4 553.491 643.485 552.958 643.656C552.446 643.827 551.966 644.083 551.518 644.424C551.091 644.744 550.729 645.149 550.43 645.64C550.131 646.109 549.918 646.643 549.79 647.24H559.39ZM575.552 657.32C574.4 657.32 573.334 657.117 572.352 656.712C571.371 656.285 570.518 655.677 569.792 654.888C569.088 654.077 568.534 653.085 568.128 651.912C567.744 650.739 567.552 649.395 567.552 647.88C567.552 645.512 567.787 643.496 568.256 641.832C568.726 640.147 569.419 638.771 570.336 637.704C571.275 636.637 572.416 635.859 573.76 635.368C575.104 634.856 576.662 634.6 578.432 634.6H582.273V637.64H578.752C576.192 637.64 574.283 638.237 573.024 639.432C571.766 640.605 571.062 642.195 570.912 644.2H571.072C571.371 643.795 571.766 643.421 572.256 643.08C572.683 642.803 573.206 642.547 573.824 642.312C574.464 642.077 575.254 641.96 576.192 641.96C577.238 641.96 578.208 642.152 579.104 642.536C580 642.92 580.779 643.453 581.44 644.136C582.102 644.797 582.614 645.608 582.976 646.568C583.36 647.507 583.552 648.531 583.552 649.64C583.552 650.771 583.36 651.805 582.976 652.744C582.592 653.683 582.048 654.493 581.344 655.176C580.64 655.837 579.798 656.36 578.816 656.744C577.835 657.128 576.747 657.32 575.552 657.32ZM575.552 654.28C576.192 654.28 576.779 654.173 577.312 653.96C577.867 653.725 578.347 653.405 578.752 653C579.158 652.573 579.467 652.083 579.681 651.528C579.915 650.952 580.032 650.323 580.032 649.64C580.032 648.957 579.915 648.339 579.681 647.784C579.467 647.208 579.158 646.717 578.752 646.312C578.347 645.885 577.867 645.565 577.312 645.352C576.779 645.117 576.192 645 575.552 645C574.912 645 574.315 645.117 573.76 645.352C573.227 645.565 572.758 645.885 572.352 646.312C571.947 646.717 571.627 647.208 571.392 647.784C571.179 648.339 571.072 648.957 571.072 649.64C571.072 650.323 571.179 650.952 571.392 651.528C571.627 652.083 571.947 652.573 572.352 653C572.758 653.405 573.227 653.725 573.76 653.96C574.315 654.173 574.912 654.28 575.552 654.28ZM591.379 651.08C590.803 650.824 590.291 650.483 589.843 650.056C589.459 649.693 589.107 649.213 588.787 648.616C588.488 647.997 588.339 647.219 588.339 646.28C588.339 645.491 588.477 644.755 588.755 644.072C589.053 643.368 589.48 642.771 590.035 642.28C590.589 641.789 591.261 641.405 592.051 641.128C592.84 640.829 593.736 640.68 594.739 640.68H602.099V657H598.739V652.04H594.579L592.019 657H588.179L591.379 651.08ZM598.739 649V643.72H594.899C593.939 643.72 593.192 643.965 592.659 644.456C592.125 644.947 591.859 645.555 591.859 646.28C591.859 647.091 592.104 647.752 592.595 648.264C593.085 648.755 593.853 649 594.899 649H598.739ZM618.273 653.96H619.873L623.553 640.68H630.753L634.433 653.96H636.033V660.52H632.993V657H621.313V660.52H618.273V653.96ZM630.913 653.96L628.193 643.72H626.113L623.393 653.96H630.913ZM640.686 640.68H644.046V642.76H644.206C644.569 642.333 645.006 641.939 645.518 641.576C645.945 641.277 646.468 641 647.086 640.744C647.726 640.488 648.473 640.36 649.326 640.36C650.414 640.36 651.417 640.563 652.334 640.968C653.273 641.373 654.084 641.949 654.766 642.696C655.47 643.421 656.014 644.307 656.398 645.352C656.804 646.397 657.006 647.56 657.006 648.84C657.006 650.12 656.804 651.283 656.398 652.328C656.014 653.373 655.47 654.269 654.766 655.016C654.084 655.741 653.273 656.307 652.334 656.712C651.417 657.117 650.414 657.32 649.326 657.32C648.473 657.32 647.726 657.203 647.086 656.968C646.468 656.712 645.945 656.435 645.518 656.136C645.006 655.773 644.569 655.368 644.206 654.92H644.046V663.08H640.686V640.68ZM648.686 654.28C650.137 654.28 651.3 653.821 652.174 652.904C653.049 651.965 653.486 650.611 653.486 648.84C653.486 647.069 653.049 645.725 652.174 644.808C651.3 643.869 650.137 643.4 648.686 643.4C647.321 643.4 646.201 643.869 645.326 644.808C644.473 645.725 644.046 647.069 644.046 648.84C644.046 650.611 644.473 651.965 645.326 652.904C646.201 653.821 647.321 654.28 648.686 654.28ZM668.205 657H664.845L660.365 640.68H663.885L667.405 653.8H669.165L673.005 640.68H676.525L669.805 663.08H666.285L668.205 657ZM680.837 640.68H692.357V643.72H684.197V657H680.837V640.68ZM697.147 640.68H700.507V651.56L700.475 651.88H700.795L708.187 640.68H711.867V657H708.507V646.12L708.539 645.8H708.219L700.827 657H697.147V640.68ZM718.27 640.68H723.07L727.39 650.44H728.03L732.35 640.68H737.15V657H733.79V645.48L733.822 645.16H733.662L729.63 654.12H725.79L721.758 645.16H721.598L721.63 645.48V657H718.27V640.68ZM537 691.4C536.68 691.613 536.317 691.805 535.912 691.976C535.549 692.125 535.101 692.253 534.568 692.36C534.035 692.467 533.405 692.52 532.68 692.52C530.675 692.52 529.128 692.008 528.04 690.984C526.973 689.939 526.44 688.531 526.44 686.76V680.68H529.8V686.44C529.8 687.4 530.067 688.147 530.6 688.68C531.155 689.213 531.955 689.48 533 689.48C533.725 689.48 534.333 689.437 534.824 689.352C535.336 689.245 535.752 689.128 536.072 689C536.456 688.872 536.765 688.712 537 688.52V680.68H540.36V697H537V691.4ZM554.121 697.32C552.969 697.32 551.881 697.107 550.857 696.68C549.855 696.232 548.969 695.635 548.201 694.888C547.455 694.12 546.868 693.224 546.441 692.2C546.015 691.155 545.801 690.035 545.801 688.84C545.801 687.645 546.015 686.536 546.441 685.512C546.868 684.467 547.455 683.571 548.201 682.824C548.969 682.056 549.855 681.459 550.857 681.032C551.881 680.584 552.969 680.36 554.121 680.36C555.273 680.36 556.351 680.584 557.353 681.032C558.377 681.459 559.263 682.056 560.009 682.824C560.777 683.571 561.375 684.467 561.801 685.512C562.228 686.536 562.441 687.645 562.441 688.84V689.96H549.161C549.289 690.643 549.503 691.251 549.801 691.784C550.1 692.317 550.473 692.776 550.921 693.16C551.369 693.523 551.86 693.8 552.393 693.992C552.948 694.184 553.524 694.28 554.121 694.28C554.953 694.28 555.668 694.173 556.265 693.96C556.863 693.725 557.343 693.459 557.705 693.16C558.132 692.84 558.484 692.467 558.761 692.04H562.281C561.876 693.043 561.311 693.928 560.585 694.696C560.265 695.016 559.903 695.336 559.497 695.656C559.092 695.976 558.623 696.264 558.089 696.52C557.556 696.755 556.959 696.947 556.297 697.096C555.636 697.245 554.911 697.32 554.121 697.32ZM558.921 687.24C558.836 686.771 558.676 686.301 558.441 685.832C558.207 685.363 557.887 684.957 557.481 684.616C557.076 684.253 556.596 683.965 556.041 683.752C555.487 683.517 554.847 683.4 554.121 683.4C553.567 683.4 553.023 683.485 552.489 683.656C551.977 683.827 551.497 684.083 551.049 684.424C550.623 684.744 550.26 685.149 549.961 685.64C549.663 686.109 549.449 686.643 549.321 687.24H558.921ZM570.604 680.68H577.804L582.284 697H578.764L575.244 683.72H573.164L569.644 697H566.124L570.604 680.68ZM594.433 697.32C593.238 697.32 592.118 697.107 591.073 696.68C590.049 696.232 589.153 695.635 588.385 694.888C587.638 694.12 587.041 693.224 586.593 692.2C586.166 691.155 585.953 690.035 585.953 688.84C585.953 687.645 586.166 686.536 586.593 685.512C587.041 684.467 587.638 683.571 588.385 682.824C589.153 682.056 590.049 681.459 591.073 681.032C592.118 680.584 593.238 680.36 594.433 680.36C595.627 680.36 596.737 680.584 597.761 681.032C598.806 681.459 599.702 682.056 600.449 682.824C601.217 683.571 601.814 684.467 602.241 685.512C602.689 686.536 602.913 687.645 602.913 688.84C602.913 690.035 602.689 691.155 602.241 692.2C601.814 693.224 601.217 694.12 600.449 694.888C599.702 695.635 598.806 696.232 597.761 696.68C596.737 697.107 595.627 697.32 594.433 697.32ZM594.433 694.28C595.158 694.28 595.819 694.152 596.417 693.896C597.035 693.64 597.558 693.277 597.985 692.808C598.433 692.339 598.774 691.773 599.009 691.112C599.265 690.429 599.393 689.672 599.393 688.84C599.393 688.008 599.265 687.261 599.009 686.6C598.774 685.917 598.433 685.341 597.985 684.872C597.558 684.403 597.035 684.04 596.417 683.784C595.819 683.528 595.158 683.4 594.433 683.4C593.707 683.4 593.035 683.528 592.417 683.784C591.819 684.04 591.297 684.403 590.849 684.872C590.422 685.341 590.081 685.917 589.825 686.6C589.59 687.261 589.473 688.008 589.473 688.84C589.473 689.672 589.59 690.429 589.825 691.112C590.081 691.773 590.422 692.339 590.849 692.808C591.297 693.277 591.819 693.64 592.417 693.896C593.035 694.152 593.707 694.28 594.433 694.28ZM608.347 680.68H616.507C618.107 680.68 619.334 681.064 620.187 681.832C621.041 682.6 621.467 683.549 621.467 684.68C621.467 685.448 621.329 686.067 621.051 686.536C620.795 686.984 620.507 687.336 620.187 687.592C619.803 687.891 619.377 688.093 618.907 688.2V688.328C619.505 688.435 620.038 688.648 620.507 688.968C620.913 689.245 621.275 689.651 621.595 690.184C621.937 690.696 622.107 691.411 622.107 692.328C622.107 692.968 621.979 693.576 621.723 694.152C621.467 694.728 621.105 695.229 620.635 695.656C620.166 696.061 619.59 696.392 618.907 696.648C618.246 696.883 617.499 697 616.667 697H608.347V680.68ZM616.507 693.96C617.233 693.96 617.787 693.779 618.171 693.416C618.555 693.032 618.747 692.52 618.747 691.88C618.747 691.325 618.555 690.867 618.171 690.504C617.787 690.141 617.233 689.96 616.507 689.96H611.707V693.96H616.507ZM616.187 687.08C617.467 687.08 618.107 686.493 618.107 685.32C618.107 684.829 617.947 684.445 617.627 684.168C617.307 683.869 616.827 683.72 616.187 683.72H611.707V687.08H616.187ZM635.08 697.32C633.928 697.32 632.84 697.107 631.816 696.68C630.813 696.232 629.928 695.635 629.16 694.888C628.413 694.12 627.827 693.224 627.4 692.2C626.973 691.155 626.76 690.035 626.76 688.84C626.76 687.645 626.973 686.536 627.4 685.512C627.827 684.467 628.413 683.571 629.16 682.824C629.928 682.056 630.813 681.459 631.816 681.032C632.84 680.584 633.928 680.36 635.08 680.36C636.232 680.36 637.309 680.584 638.312 681.032C639.336 681.459 640.221 682.056 640.968 682.824C641.736 683.571 642.333 684.467 642.76 685.512C643.187 686.536 643.4 687.645 643.4 688.84V689.96H630.12C630.248 690.643 630.461 691.251 630.76 691.784C631.059 692.317 631.432 692.776 631.88 693.16C632.328 693.523 632.819 693.8 633.352 693.992C633.907 694.184 634.483 694.28 635.08 694.28C635.912 694.28 636.627 694.173 637.224 693.96C637.821 693.725 638.301 693.459 638.664 693.16C639.091 692.84 639.443 692.467 639.72 692.04H643.24C642.835 693.043 642.269 693.928 641.544 694.696C641.224 695.016 640.861 695.336 640.456 695.656C640.051 695.976 639.581 696.264 639.048 696.52C638.515 696.755 637.917 696.947 637.256 697.096C636.595 697.245 635.869 697.32 635.08 697.32ZM639.88 687.24C639.795 686.771 639.635 686.301 639.4 685.832C639.165 685.363 638.845 684.957 638.44 684.616C638.035 684.253 637.555 683.965 637 683.752C636.445 683.517 635.805 683.4 635.08 683.4C634.525 683.4 633.981 683.485 633.448 683.656C632.936 683.827 632.456 684.083 632.008 684.424C631.581 684.744 631.219 685.149 630.92 685.64C630.621 686.109 630.408 686.643 630.28 687.24H639.88ZM648.843 680.68H652.203V687.08H654.603L659.563 680.68H663.403L657.483 688.2L663.883 697H659.723L654.763 690.12H652.203V697H648.843V680.68ZM675.266 697.32C674.072 697.32 672.952 697.107 671.906 696.68C670.882 696.232 669.986 695.635 669.218 694.888C668.472 694.12 667.874 693.224 667.426 692.2C667 691.155 666.786 690.035 666.786 688.84C666.786 687.645 667 686.536 667.426 685.512C667.874 684.467 668.472 683.571 669.218 682.824C669.986 682.056 670.882 681.459 671.906 681.032C672.952 680.584 674.072 680.36 675.266 680.36C676.461 680.36 677.57 680.584 678.594 681.032C679.64 681.459 680.536 682.056 681.282 682.824C682.05 683.571 682.648 684.467 683.074 685.512C683.522 686.536 683.746 687.645 683.746 688.84C683.746 690.035 683.522 691.155 683.074 692.2C682.648 693.224 682.05 694.12 681.282 694.888C680.536 695.635 679.64 696.232 678.594 696.68C677.57 697.107 676.461 697.32 675.266 697.32ZM675.266 694.28C675.992 694.28 676.653 694.152 677.25 693.896C677.869 693.64 678.392 693.277 678.818 692.808C679.266 692.339 679.608 691.773 679.842 691.112C680.098 690.429 680.226 689.672 680.226 688.84C680.226 688.008 680.098 687.261 679.842 686.6C679.608 685.917 679.266 685.341 678.818 684.872C678.392 684.403 677.869 684.04 677.25 683.784C676.653 683.528 675.992 683.4 675.266 683.4C674.541 683.4 673.869 683.528 673.25 683.784C672.653 684.04 672.13 684.403 671.682 684.872C671.256 685.341 670.914 685.917 670.658 686.6C670.424 687.261 670.306 688.008 670.306 688.84C670.306 689.672 670.424 690.429 670.658 691.112C670.914 691.773 671.256 692.339 671.682 692.808C672.13 693.277 672.653 693.64 673.25 693.896C673.869 694.152 674.541 694.28 675.266 694.28ZM689.181 680.68H693.981L698.301 690.44H698.941L703.261 680.68H708.061V697H704.701V685.48L704.733 685.16H704.573L700.541 694.12H696.701L692.669 685.16H692.509L692.541 685.48V697H689.181V680.68Z" fill="white"/>
</svg>
