<svg width="1167" height="490" viewBox="0 0 1167 490" fill="none" xmlns="http://www.w3.org/2000/svg">
<g filter="url(#filter0_b_2284_3)">
<path d="M0 0H602.904C823.818 0 1002.9 179.086 1002.9 400V490H400C179.086 490 0 310.914 0 90V0Z" fill="#8000FF" fill-opacity="0.5"/>
</g>
<path d="M70.1221 44.3837H76.8783L86.6632 65.3513H88.76L98.5449 44.3837H105.301V77H101.108V49.0432L101.154 48.5773H101.061L91.5557 69.0789H83.8675L74.3622 48.5773H74.269L74.3156 49.0432V77H70.1221V44.3837ZM126.503 77.4659C124.826 77.4659 123.257 77.1708 121.797 76.5806C120.337 75.9594 119.079 75.1207 118.023 74.0645C116.967 72.9773 116.128 71.6882 115.507 70.1972C114.917 68.7061 114.622 67.0909 114.622 65.3513C114.622 63.6118 114.917 61.9965 115.507 60.5055C116.128 59.0145 116.967 57.7409 118.023 56.6847C119.079 55.5975 120.337 54.7588 121.797 54.1686C123.257 53.5473 124.826 53.2367 126.503 53.2367C128.181 53.2367 129.75 53.5473 131.21 54.1686C132.67 54.7588 133.928 55.582 134.984 56.6381C136.04 57.6943 136.863 58.9523 137.453 60.4123C138.074 61.8723 138.385 63.441 138.385 65.1184V66.5162H118.349C118.474 67.6034 118.769 68.613 119.235 69.5449C119.701 70.4457 120.291 71.2223 121.005 71.8746C121.72 72.5269 122.543 73.0395 123.475 73.4122C124.438 73.785 125.447 73.9713 126.503 73.9713C127.901 73.9713 129.082 73.7539 130.045 73.319C131.008 72.8841 131.8 72.4027 132.421 71.8746C133.135 71.2844 133.726 70.5855 134.192 69.7778H137.919C137.36 71.2378 136.568 72.5269 135.543 73.6452C134.642 74.6081 133.462 75.4934 132.002 76.3011C130.542 77.0777 128.709 77.4659 126.503 77.4659ZM134.425 63.2546C134.3 62.3848 134.021 61.5616 133.586 60.7851C133.182 59.9774 132.638 59.2785 131.955 58.6883C131.272 58.0981 130.464 57.6321 129.532 57.2905C128.631 56.9177 127.622 56.7313 126.503 56.7313C125.385 56.7313 124.36 56.9177 123.428 57.2905C122.527 57.6321 121.72 58.0981 121.005 58.6883C120.322 59.2785 119.763 59.9774 119.328 60.7851C118.893 61.5616 118.598 62.3848 118.443 63.2546H134.425ZM157.482 77.4659C155.835 77.4659 154.298 77.1708 152.869 76.5806C151.471 75.9594 150.244 75.1207 149.188 74.0645C148.163 72.9773 147.34 71.6882 146.718 70.1972C146.128 68.7061 145.833 67.0909 145.833 65.3513C145.833 63.6118 146.128 61.9965 146.718 60.5055C147.34 59.0145 148.163 57.7409 149.188 56.6847C150.244 55.5975 151.471 54.7588 152.869 54.1686C154.298 53.5473 155.835 53.2367 157.482 53.2367C158.631 53.2367 159.672 53.361 160.603 53.6095C161.566 53.8269 162.421 54.1375 163.166 54.5414C163.912 54.9141 164.564 55.349 165.123 55.846C165.682 56.343 166.164 56.84 166.568 57.337C167.531 58.5485 168.229 59.8998 168.664 61.3908H164.937C164.564 60.521 164.052 59.7444 163.399 59.0611C162.84 58.4709 162.079 57.9428 161.116 57.4768C160.153 56.9798 158.942 56.7313 157.482 56.7313C156.363 56.7313 155.323 56.9488 154.36 57.3836C153.397 57.7875 152.558 58.3777 151.844 59.1542C151.129 59.8998 150.57 60.8006 150.166 61.8567C149.762 62.9129 149.561 64.0777 149.561 65.3513C149.561 66.656 149.778 67.8364 150.213 68.8925C150.648 69.9487 151.222 70.8495 151.937 71.595C152.651 72.3405 153.49 72.9307 154.453 73.3656C155.416 73.7694 156.426 73.9713 157.482 73.9713C159.004 73.9713 160.246 73.7073 161.209 73.1792C162.203 72.6512 162.995 72.061 163.586 71.4086C164.269 70.6631 164.797 69.8089 165.17 68.8459H168.897C168.462 70.4923 167.748 71.9367 166.754 73.1792C166.319 73.7073 165.822 74.2354 165.263 74.7635C164.704 75.2605 164.036 75.7109 163.259 76.1147C162.514 76.5185 161.66 76.8447 160.697 77.0932C159.734 77.3417 158.662 77.4659 157.482 77.4659ZM182.43 57.1973H174.276V53.7027H194.311V57.1973H186.157V77H182.43V57.1973ZM212.27 77.4659C210.531 77.4659 208.916 77.1708 207.425 76.5806C205.934 75.9594 204.644 75.1207 203.557 74.0645C202.501 72.9773 201.662 71.6882 201.041 70.1972C200.451 68.7061 200.156 67.0909 200.156 65.3513C200.156 63.6118 200.451 61.9965 201.041 60.5055C201.662 59.0145 202.501 57.7409 203.557 56.6847C204.644 55.5975 205.934 54.7588 207.425 54.1686C208.916 53.5473 210.531 53.2367 212.27 53.2367C214.01 53.2367 215.625 53.5473 217.116 54.1686C218.607 54.7588 219.881 55.5975 220.937 56.6847C222.024 57.7409 222.863 59.0145 223.453 60.5055C224.074 61.9965 224.385 63.6118 224.385 65.3513C224.385 67.0909 224.074 68.7061 223.453 70.1972C222.863 71.6882 222.024 72.9773 220.937 74.0645C219.881 75.1207 218.607 75.9594 217.116 76.5806C215.625 77.1708 214.01 77.4659 212.27 77.4659ZM212.27 73.9713C213.482 73.9713 214.6 73.7694 215.625 73.3656C216.65 72.9307 217.536 72.3405 218.281 71.595C219.027 70.8184 219.601 69.9021 220.005 68.8459C220.44 67.7898 220.657 66.6249 220.657 65.3513C220.657 64.0777 220.44 62.9129 220.005 61.8567C219.601 60.8006 219.027 59.8998 218.281 59.1542C217.536 58.3777 216.65 57.7875 215.625 57.3836C214.6 56.9488 213.482 56.7313 212.27 56.7313C211.059 56.7313 209.941 56.9488 208.916 57.3836C207.891 57.7875 207.005 58.3777 206.26 59.1542C205.514 59.8998 204.924 60.8006 204.489 61.8567C204.085 62.9129 203.883 64.0777 203.883 65.3513C203.883 66.6249 204.085 67.7898 204.489 68.8459C204.924 69.9021 205.514 70.8184 206.26 71.595C207.005 72.3405 207.891 72.9307 208.916 73.3656C209.941 73.7694 211.059 73.9713 212.27 73.9713ZM250.007 53.7027H253.734V57.4302H253.781C253.781 57.4302 253.921 57.2128 254.2 56.7779C254.511 56.312 254.992 55.8305 255.645 55.3335C256.328 54.8054 257.198 54.3239 258.254 53.889C259.31 53.4542 260.599 53.2367 262.121 53.2367C263.643 53.2367 265.072 53.5473 266.408 54.1686C267.775 54.7588 268.971 55.5975 269.996 56.6847C271.021 57.7409 271.828 59.0145 272.419 60.5055C273.009 61.9965 273.304 63.6118 273.304 65.3513C273.304 67.0909 273.009 68.7061 272.419 70.1972C271.828 71.6882 271.021 72.9773 269.996 74.0645C268.971 75.1207 267.775 75.9594 266.408 76.5806C265.072 77.1708 263.643 77.4659 262.121 77.4659C260.599 77.4659 259.31 77.2485 258.254 76.8136C257.198 76.3787 256.328 75.9128 255.645 75.4158C254.992 74.8877 254.511 74.4062 254.2 73.9713C253.921 73.5054 253.781 73.2724 253.781 73.2724H253.734V85.853H250.007V53.7027ZM261.655 73.9713C262.774 73.9713 263.814 73.7694 264.777 73.3656C265.74 72.9307 266.579 72.3405 267.293 71.595C268.008 70.8184 268.567 69.9021 268.971 68.8459C269.375 67.7898 269.576 66.6249 269.576 65.3513C269.576 64.0777 269.375 62.9129 268.971 61.8567C268.567 60.8006 268.008 59.8998 267.293 59.1542C266.579 58.3777 265.74 57.7875 264.777 57.3836C263.814 56.9488 262.774 56.7313 261.655 56.7313C260.537 56.7313 259.496 56.9488 258.533 57.3836C257.571 57.7875 256.732 58.3777 256.017 59.1542C255.303 59.8998 254.744 60.8006 254.34 61.8567C253.936 62.9129 253.734 64.0777 253.734 65.3513C253.734 66.6249 253.936 67.7898 254.34 68.8459C254.744 69.9021 255.303 70.8184 256.017 71.595C256.732 72.3405 257.571 72.9307 258.533 73.3656C259.496 73.7694 260.537 73.9713 261.655 73.9713ZM292.657 77.4659C290.98 77.4659 289.411 77.1708 287.951 76.5806C286.491 75.9594 285.233 75.1207 284.177 74.0645C283.121 72.9773 282.282 71.6882 281.661 70.1972C281.071 68.7061 280.776 67.0909 280.776 65.3513C280.776 63.6118 281.071 61.9965 281.661 60.5055C282.282 59.0145 283.121 57.7409 284.177 56.6847C285.233 55.5975 286.491 54.7588 287.951 54.1686C289.411 53.5473 290.98 53.2367 292.657 53.2367C294.335 53.2367 295.903 53.5473 297.363 54.1686C298.823 54.7588 300.081 55.582 301.137 56.6381C302.194 57.6943 303.017 58.9523 303.607 60.4123C304.228 61.8723 304.539 63.441 304.539 65.1184V66.5162H284.503C284.627 67.6034 284.922 68.613 285.388 69.5449C285.854 70.4457 286.445 71.2223 287.159 71.8746C287.873 72.5269 288.697 73.0395 289.629 73.4122C290.591 73.785 291.601 73.9713 292.657 73.9713C294.055 73.9713 295.235 73.7539 296.198 73.319C297.161 72.8841 297.953 72.4027 298.575 71.8746C299.289 71.2844 299.879 70.5855 300.345 69.7778H304.073C303.514 71.2378 302.722 72.5269 301.697 73.6452C300.796 74.6081 299.615 75.4934 298.155 76.3011C296.695 77.0777 294.863 77.4659 292.657 77.4659ZM300.578 63.2546C300.454 62.3848 300.174 61.5616 299.74 60.7851C299.336 59.9774 298.792 59.2785 298.109 58.6883C297.425 58.0981 296.618 57.6321 295.686 57.2905C294.785 56.9177 293.775 56.7313 292.657 56.7313C291.539 56.7313 290.514 56.9177 289.582 57.2905C288.681 57.6321 287.873 58.0981 287.159 58.6883C286.476 59.2785 285.916 59.9774 285.482 60.7851C285.047 61.5616 284.752 62.3848 284.596 63.2546H300.578ZM317.112 53.7027H326.897L333.42 77H329.46L324.101 57.1973H319.908L314.549 77H310.589L317.112 53.7027ZM350.649 77.4659C349.127 77.4659 347.683 77.1708 346.316 76.5806C344.98 75.9594 343.8 75.1207 342.775 74.0645C341.75 72.9773 340.942 71.6882 340.352 70.1972C339.762 68.7061 339.467 67.0909 339.467 65.3513C339.467 63.6118 339.762 61.9965 340.352 60.5055C340.942 59.0145 341.75 57.7409 342.775 56.6847C343.8 55.5975 344.98 54.7588 346.316 54.1686C347.683 53.5473 349.127 53.2367 350.649 53.2367C352.171 53.2367 353.461 53.4542 354.517 53.889C355.573 54.3239 356.427 54.8054 357.079 55.3335C357.763 55.8616 358.244 56.3586 358.524 56.8245C358.834 57.2594 358.99 57.4768 358.99 57.4768H359.036V53.7027H362.764V77H359.036V73.2724H358.99C358.99 73.2724 358.834 73.5054 358.524 73.9713C358.244 74.4062 357.763 74.8877 357.079 75.4158C356.427 75.9128 355.573 76.3787 354.517 76.8136C353.461 77.2485 352.171 77.4659 350.649 77.4659ZM351.115 73.9713C352.234 73.9713 353.274 73.7694 354.237 73.3656C355.2 72.9307 356.039 72.3405 356.753 71.595C357.468 70.8184 358.027 69.9021 358.431 68.8459C358.834 67.7898 359.036 66.6249 359.036 65.3513C359.036 64.0777 358.834 62.9129 358.431 61.8567C358.027 60.8006 357.468 59.8998 356.753 59.1542C356.039 58.3777 355.2 57.7875 354.237 57.3836C353.274 56.9488 352.234 56.7313 351.115 56.7313C349.997 56.7313 348.956 56.9488 347.993 57.3836C347.03 57.7875 346.192 58.3777 345.477 59.1542C344.763 59.8998 344.204 60.8006 343.8 61.8567C343.396 62.9129 343.194 64.0777 343.194 65.3513C343.194 66.6249 343.396 67.7898 343.8 68.8459C344.204 69.9021 344.763 70.8184 345.477 71.595C346.192 72.3405 347.03 72.9307 347.993 73.3656C348.956 73.7694 349.997 73.9713 351.115 73.9713ZM373.031 53.7027H376.759V63.0216H381.418L388.873 53.7027H393.3L384.68 64.6524L393.999 77H389.339L381.418 66.5162H376.759V77H373.031V53.7027ZM410.58 77.4659C408.934 77.4659 407.396 77.1708 405.967 76.5806C404.569 75.9594 403.342 75.1207 402.286 74.0645C401.261 72.9773 400.438 71.6882 399.817 70.1972C399.226 68.7061 398.931 67.0909 398.931 65.3513C398.931 63.6118 399.226 61.9965 399.817 60.5055C400.438 59.0145 401.261 57.7409 402.286 56.6847C403.342 55.5975 404.569 54.7588 405.967 54.1686C407.396 53.5473 408.934 53.2367 410.58 53.2367C411.729 53.2367 412.77 53.361 413.702 53.6095C414.665 53.8269 415.519 54.1375 416.264 54.5414C417.01 54.9141 417.662 55.349 418.221 55.846C418.781 56.343 419.262 56.84 419.666 57.337C420.629 58.5485 421.328 59.8998 421.763 61.3908H418.035C417.662 60.521 417.15 59.7444 416.497 59.0611C415.938 58.4709 415.177 57.9428 414.214 57.4768C413.251 56.9798 412.04 56.7313 410.58 56.7313C409.462 56.7313 408.421 56.9488 407.458 57.3836C406.495 57.7875 405.656 58.3777 404.942 59.1542C404.227 59.8998 403.668 60.8006 403.265 61.8567C402.861 62.9129 402.659 64.0777 402.659 65.3513C402.659 66.656 402.876 67.8364 403.311 68.8925C403.746 69.9487 404.321 70.8495 405.035 71.595C405.75 72.3405 406.588 72.9307 407.551 73.3656C408.514 73.7694 409.524 73.9713 410.58 73.9713C412.102 73.9713 413.345 73.7073 414.307 73.1792C415.301 72.6512 416.094 72.061 416.684 71.4086C417.367 70.6631 417.895 69.8089 418.268 68.8459H421.996C421.561 70.4923 420.846 71.9367 419.852 73.1792C419.417 73.7073 418.92 74.2354 418.361 74.7635C417.802 75.2605 417.134 75.7109 416.358 76.1147C415.612 76.5185 414.758 76.8447 413.795 77.0932C412.832 77.3417 411.76 77.4659 410.58 77.4659ZM440.188 77.4659C438.665 77.4659 437.221 77.1708 435.854 76.5806C434.519 75.9594 433.338 75.1207 432.313 74.0645C431.288 72.9773 430.48 71.6882 429.89 70.1972C429.3 68.7061 429.005 67.0909 429.005 65.3513C429.005 63.6118 429.3 61.9965 429.89 60.5055C430.48 59.0145 431.288 57.7409 432.313 56.6847C433.338 55.5975 434.519 54.7588 435.854 54.1686C437.221 53.5473 438.665 53.2367 440.188 53.2367C441.71 53.2367 442.999 53.4542 444.055 53.889C445.111 54.3239 445.965 54.8054 446.618 55.3335C447.301 55.8616 447.782 56.3586 448.062 56.8245C448.373 57.2594 448.528 57.4768 448.528 57.4768H448.575V53.7027H452.302V77H448.575V73.2724H448.528C448.528 73.2724 448.373 73.5054 448.062 73.9713C447.782 74.4062 447.301 74.8877 446.618 75.4158C445.965 75.9128 445.111 76.3787 444.055 76.8136C442.999 77.2485 441.71 77.4659 440.188 77.4659ZM440.653 73.9713C441.772 73.9713 442.812 73.7694 443.775 73.3656C444.738 72.9307 445.577 72.3405 446.291 71.595C447.006 70.8184 447.565 69.9021 447.969 68.8459C448.373 67.7898 448.575 66.6249 448.575 65.3513C448.575 64.0777 448.373 62.9129 447.969 61.8567C447.565 60.8006 447.006 59.8998 446.291 59.1542C445.577 58.3777 444.738 57.7875 443.775 57.3836C442.812 56.9488 441.772 56.7313 440.653 56.7313C439.535 56.7313 438.495 56.9488 437.532 57.3836C436.569 57.7875 435.73 58.3777 435.016 59.1542C434.301 59.8998 433.742 60.8006 433.338 61.8567C432.934 62.9129 432.732 64.0777 432.732 65.3513C432.732 66.6249 432.934 67.7898 433.338 68.8459C433.742 69.9021 434.301 70.8184 435.016 71.595C435.73 72.3405 436.569 72.9307 437.532 73.3656C438.495 73.7694 439.535 73.9713 440.653 73.9713ZM479.356 53.7027H483.084V71.1757L483.037 71.6416H483.13L495.664 53.7027H499.858V77H496.13V59.527L496.177 59.0611H496.084L483.55 77H479.356V53.7027ZM526.899 53.7027H547.168V77H543.44V57.1973H530.627V77H526.899V53.7027ZM568.145 77.4659C566.405 77.4659 564.79 77.1708 563.299 76.5806C561.808 75.9594 560.519 75.1207 559.431 74.0645C558.375 72.9773 557.536 71.6882 556.915 70.1972C556.325 68.7061 556.03 67.0909 556.03 65.3513C556.03 63.6118 556.325 61.9965 556.915 60.5055C557.536 59.0145 558.375 57.7409 559.431 56.6847C560.519 55.5975 561.808 54.7588 563.299 54.1686C564.79 53.5473 566.405 53.2367 568.145 53.2367C569.884 53.2367 571.499 53.5473 572.99 54.1686C574.481 54.7588 575.755 55.5975 576.811 56.6847C577.898 57.7409 578.737 59.0145 579.327 60.5055C579.948 61.9965 580.259 63.6118 580.259 65.3513C580.259 67.0909 579.948 68.7061 579.327 70.1972C578.737 71.6882 577.898 72.9773 576.811 74.0645C575.755 75.1207 574.481 75.9594 572.99 76.5806C571.499 77.1708 569.884 77.4659 568.145 77.4659ZM568.145 73.9713C569.356 73.9713 570.474 73.7694 571.499 73.3656C572.524 72.9307 573.41 72.3405 574.155 71.595C574.901 70.8184 575.475 69.9021 575.879 68.8459C576.314 67.7898 576.532 66.6249 576.532 65.3513C576.532 64.0777 576.314 62.9129 575.879 61.8567C575.475 60.8006 574.901 59.8998 574.155 59.1542C573.41 58.3777 572.524 57.7875 571.499 57.3836C570.474 56.9488 569.356 56.7313 568.145 56.7313C566.933 56.7313 565.815 56.9488 564.79 57.3836C563.765 57.7875 562.879 58.3777 562.134 59.1542C561.388 59.8998 560.798 60.8006 560.363 61.8567C559.959 62.9129 559.757 64.0777 559.757 65.3513C559.757 66.6249 559.959 67.7898 560.363 68.8459C560.798 69.9021 561.388 70.8184 562.134 71.595C562.879 72.3405 563.765 72.9307 564.79 73.3656C565.815 73.7694 566.933 73.9713 568.145 73.9713ZM589.094 53.7027H592.821V63.0216H597.481L604.936 53.7027H609.363L600.743 64.6524L610.062 77H605.402L597.481 66.5162H592.821V77H589.094V53.7027ZM627.109 77.4659C625.369 77.4659 623.754 77.1708 622.263 76.5806C620.772 75.9594 619.483 75.1207 618.395 74.0645C617.339 72.9773 616.501 71.6882 615.879 70.1972C615.289 68.7061 614.994 67.0909 614.994 65.3513C614.994 63.6118 615.289 61.9965 615.879 60.5055C616.501 59.0145 617.339 57.7409 618.395 56.6847C619.483 55.5975 620.772 54.7588 622.263 54.1686C623.754 53.5473 625.369 53.2367 627.109 53.2367C628.848 53.2367 630.463 53.5473 631.954 54.1686C633.445 54.7588 634.719 55.5975 635.775 56.6847C636.862 57.7409 637.701 59.0145 638.291 60.5055C638.913 61.9965 639.223 63.6118 639.223 65.3513C639.223 67.0909 638.913 68.7061 638.291 70.1972C637.701 71.6882 636.862 72.9773 635.775 74.0645C634.719 75.1207 633.445 75.9594 631.954 76.5806C630.463 77.1708 628.848 77.4659 627.109 77.4659ZM627.109 73.9713C628.32 73.9713 629.438 73.7694 630.463 73.3656C631.488 72.9307 632.374 72.3405 633.119 71.595C633.865 70.8184 634.439 69.9021 634.843 68.8459C635.278 67.7898 635.496 66.6249 635.496 65.3513C635.496 64.0777 635.278 62.9129 634.843 61.8567C634.439 60.8006 633.865 59.8998 633.119 59.1542C632.374 58.3777 631.488 57.7875 630.463 57.3836C629.438 56.9488 628.32 56.7313 627.109 56.7313C625.897 56.7313 624.779 56.9488 623.754 57.3836C622.729 57.7875 621.843 58.3777 621.098 59.1542C620.352 59.8998 619.762 60.8006 619.327 61.8567C618.923 62.9129 618.722 64.0777 618.722 65.3513C618.722 66.6249 618.923 67.7898 619.327 68.8459C619.762 69.9021 620.352 70.8184 621.098 71.595C621.843 72.3405 622.729 72.9307 623.754 73.3656C624.779 73.7694 625.897 73.9713 627.109 73.9713ZM651.786 68.613C650.916 68.2402 650.139 67.7432 649.456 67.1219C648.866 66.5939 648.322 65.8949 647.825 65.0252C647.359 64.1243 647.126 62.9905 647.126 61.6238C647.126 60.5055 647.328 59.4649 647.732 58.5019C648.167 57.539 648.772 56.7003 649.549 55.9858C650.357 55.2714 651.304 54.7122 652.391 54.3084C653.51 53.9046 654.768 53.7027 656.165 53.7027H666.696V77H662.968V69.5449H655.513L651.413 77H647.126L651.786 68.613ZM662.968 66.0503V57.1973H656.212C654.441 57.1973 653.106 57.6166 652.205 58.4553C651.304 59.263 650.854 60.3191 650.854 61.6238C650.854 62.9284 651.304 64.0001 652.205 64.8388C653.106 65.6464 654.441 66.0503 656.212 66.0503H662.968ZM70.1221 102.384H74.3156V116.595H91.7886V102.384H95.9821V135H91.7886V120.556H74.3156V135H70.1221V102.384ZM116.477 135.466C114.954 135.466 113.51 135.171 112.143 134.581C110.808 133.959 109.627 133.121 108.602 132.065C107.577 130.977 106.769 129.688 106.179 128.197C105.589 126.706 105.294 125.091 105.294 123.351C105.294 121.612 105.589 119.997 106.179 118.505C106.769 117.014 107.577 115.741 108.602 114.685C109.627 113.598 110.808 112.759 112.143 112.169C113.51 111.547 114.954 111.237 116.477 111.237C117.999 111.237 119.288 111.454 120.344 111.889C121.4 112.324 122.254 112.805 122.907 113.333C123.59 113.862 124.071 114.359 124.351 114.825C124.662 115.259 124.817 115.477 124.817 115.477H124.864V111.703H128.591V135H124.864V131.272H124.817C124.817 131.272 124.662 131.505 124.351 131.971C124.071 132.406 123.59 132.888 122.907 133.416C122.254 133.913 121.4 134.379 120.344 134.814C119.288 135.249 117.999 135.466 116.477 135.466ZM116.942 131.971C118.061 131.971 119.101 131.769 120.064 131.366C121.027 130.931 121.866 130.341 122.58 129.595C123.295 128.818 123.854 127.902 124.258 126.846C124.662 125.79 124.864 124.625 124.864 123.351C124.864 122.078 124.662 120.913 124.258 119.857C123.854 118.801 123.295 117.9 122.58 117.154C121.866 116.378 121.027 115.787 120.064 115.384C119.101 114.949 118.061 114.731 116.942 114.731C115.824 114.731 114.784 114.949 113.821 115.384C112.858 115.787 112.019 116.378 111.305 117.154C110.59 117.9 110.031 118.801 109.627 119.857C109.223 120.913 109.021 122.078 109.021 123.351C109.021 124.625 109.223 125.79 109.627 126.846C110.031 127.902 110.59 128.818 111.305 129.595C112.019 130.341 112.858 130.931 113.821 131.366C114.784 131.769 115.824 131.971 116.942 131.971ZM138.858 111.703H142.586V121.022H147.245L154.701 111.703H159.127L150.507 122.652L159.826 135H155.166L147.245 124.516H142.586V135H138.858V111.703ZM176.873 135.466C175.134 135.466 173.518 135.171 172.027 134.581C170.536 133.959 169.247 133.121 168.16 132.065C167.104 130.977 166.265 129.688 165.644 128.197C165.054 126.706 164.758 125.091 164.758 123.351C164.758 121.612 165.054 119.997 165.644 118.505C166.265 117.014 167.104 115.741 168.16 114.685C169.247 113.598 170.536 112.759 172.027 112.169C173.518 111.547 175.134 111.237 176.873 111.237C178.613 111.237 180.228 111.547 181.719 112.169C183.21 112.759 184.484 113.598 185.54 114.685C186.627 115.741 187.466 117.014 188.056 118.505C188.677 119.997 188.988 121.612 188.988 123.351C188.988 125.091 188.677 126.706 188.056 128.197C187.466 129.688 186.627 130.977 185.54 132.065C184.484 133.121 183.21 133.959 181.719 134.581C180.228 135.171 178.613 135.466 176.873 135.466ZM176.873 131.971C178.085 131.971 179.203 131.769 180.228 131.366C181.253 130.931 182.138 130.341 182.884 129.595C183.629 128.818 184.204 127.902 184.608 126.846C185.043 125.79 185.26 124.625 185.26 123.351C185.26 122.078 185.043 120.913 184.608 119.857C184.204 118.801 183.629 117.9 182.884 117.154C182.138 116.378 181.253 115.787 180.228 115.384C179.203 114.949 178.085 114.731 176.873 114.731C175.662 114.731 174.543 114.949 173.518 115.384C172.493 115.787 171.608 116.378 170.862 117.154C170.117 117.9 169.527 118.801 169.092 119.857C168.688 120.913 168.486 122.078 168.486 123.351C168.486 124.625 168.688 125.79 169.092 126.846C169.527 127.902 170.117 128.818 170.862 129.595C171.608 130.341 172.493 130.931 173.518 131.366C174.543 131.769 175.662 131.971 176.873 131.971ZM197.822 111.703H201.55V121.255H214.597V111.703H218.324V135H214.597V124.749H201.55V135H197.822V111.703ZM239.062 135.466C237.385 135.466 235.816 135.171 234.356 134.581C232.896 133.959 231.638 133.121 230.582 132.065C229.526 130.977 228.687 129.688 228.066 128.197C227.476 126.706 227.181 125.091 227.181 123.351C227.181 121.612 227.476 119.997 228.066 118.505C228.687 117.014 229.526 115.741 230.582 114.685C231.638 113.598 232.896 112.759 234.356 112.169C235.816 111.547 237.385 111.237 239.062 111.237C240.74 111.237 242.308 111.547 243.768 112.169C245.228 112.759 246.486 113.582 247.543 114.638C248.599 115.694 249.422 116.952 250.012 118.412C250.633 119.872 250.944 121.441 250.944 123.118V124.516H230.908C231.033 125.603 231.328 126.613 231.794 127.545C232.26 128.446 232.85 129.222 233.564 129.875C234.279 130.527 235.102 131.039 236.034 131.412C236.997 131.785 238.006 131.971 239.062 131.971C240.46 131.971 241.641 131.754 242.604 131.319C243.567 130.884 244.359 130.403 244.98 129.875C245.694 129.284 246.285 128.585 246.75 127.778H250.478C249.919 129.238 249.127 130.527 248.102 131.645C247.201 132.608 246.021 133.493 244.561 134.301C243.101 135.078 241.268 135.466 239.062 135.466ZM246.983 121.255C246.859 120.385 246.58 119.562 246.145 118.785C245.741 117.977 245.197 117.278 244.514 116.688C243.831 116.098 243.023 115.632 242.091 115.29C241.19 114.918 240.181 114.731 239.062 114.731C237.944 114.731 236.919 114.918 235.987 115.29C235.086 115.632 234.279 116.098 233.564 116.688C232.881 117.278 232.322 117.977 231.887 118.785C231.452 119.562 231.157 120.385 231.001 121.255H246.983ZM278.894 135H259.79V111.703H263.517V131.505H275.632V111.703H279.359V131.505H282.621V140.358H278.894V135ZM307.105 111.703H310.833V121.255H323.879V111.703H327.607V135H323.879V124.749H310.833V135H307.105V111.703ZM347.646 135.466C346.124 135.466 344.68 135.171 343.313 134.581C341.977 133.959 340.797 133.121 339.772 132.065C338.747 130.977 337.939 129.688 337.349 128.197C336.759 126.706 336.463 125.091 336.463 123.351C336.463 121.612 336.759 119.997 337.349 118.505C337.939 117.014 338.747 115.741 339.772 114.685C340.797 113.598 341.977 112.759 343.313 112.169C344.68 111.547 346.124 111.237 347.646 111.237C349.168 111.237 350.457 111.454 351.514 111.889C352.57 112.324 353.424 112.805 354.076 113.333C354.76 113.862 355.241 114.359 355.521 114.825C355.831 115.259 355.987 115.477 355.987 115.477H356.033V111.703H359.761V135H356.033V131.272H355.987C355.987 131.272 355.831 131.505 355.521 131.971C355.241 132.406 354.76 132.888 354.076 133.416C353.424 133.913 352.57 134.379 351.514 134.814C350.457 135.249 349.168 135.466 347.646 135.466ZM348.112 131.971C349.23 131.971 350.271 131.769 351.234 131.366C352.197 130.931 353.036 130.341 353.75 129.595C354.465 128.818 355.024 127.902 355.427 126.846C355.831 125.79 356.033 124.625 356.033 123.351C356.033 122.078 355.831 120.913 355.427 119.857C355.024 118.801 354.465 117.9 353.75 117.154C353.036 116.378 352.197 115.787 351.234 115.384C350.271 114.949 349.23 114.731 348.112 114.731C346.994 114.731 345.953 114.949 344.99 115.384C344.027 115.787 343.189 116.378 342.474 117.154C341.76 117.9 341.201 118.801 340.797 119.857C340.393 120.913 340.191 122.078 340.191 123.351C340.191 124.625 340.393 125.79 340.797 126.846C341.201 127.902 341.76 128.818 342.474 129.595C343.189 130.341 344.027 130.931 344.99 131.366C345.953 131.769 346.994 131.971 348.112 131.971ZM370.028 111.703H373.756V131.505H383.074V111.703H386.802V131.505H396.121V111.703H399.849V135H370.028V111.703ZM413.84 111.703H423.625L430.148 135H426.187L420.829 115.197H416.635L411.277 135H407.316L413.84 111.703ZM437.592 111.703H441.32V129.176L441.273 129.642H441.366L453.9 111.703H458.094V135H454.366V117.527L454.413 117.061H454.32L441.786 135H437.592V111.703ZM467.416 138.961C469.28 138.743 470.212 137.734 470.212 135.932V135.233C470.15 135.295 470.057 135.342 469.932 135.373C469.684 135.435 469.466 135.466 469.28 135.466C468.69 135.466 468.193 135.249 467.789 134.814C467.385 134.379 467.183 133.789 467.183 133.043C467.183 132.142 467.447 131.428 467.975 130.9C468.503 130.372 469.171 130.108 469.979 130.108C470.787 130.108 471.454 130.434 471.983 131.086C472.511 131.707 472.775 132.779 472.775 134.301C472.775 136.413 472.293 137.998 471.33 139.054C470.367 140.11 469.063 140.7 467.416 140.824V138.961ZM498.646 111.703H514.721V115.197H502.373V135H498.646V111.703ZM518.228 131.505H520.791L526.149 111.703H535.934L541.293 131.505H543.855V140.358H540.128V135H521.956V140.358H518.228V131.505ZM537.565 131.505L533.138 115.197H528.945L524.518 131.505H537.565ZM561.541 135.466C559.864 135.466 558.295 135.171 556.835 134.581C555.375 133.959 554.117 133.121 553.061 132.065C552.005 130.977 551.166 129.688 550.545 128.197C549.955 126.706 549.66 125.091 549.66 123.351C549.66 121.612 549.955 119.997 550.545 118.505C551.166 117.014 552.005 115.741 553.061 114.685C554.117 113.598 555.375 112.759 556.835 112.169C558.295 111.547 559.864 111.237 561.541 111.237C563.219 111.237 564.787 111.547 566.247 112.169C567.707 112.759 568.965 113.582 570.021 114.638C571.078 115.694 571.901 116.952 572.491 118.412C573.112 119.872 573.423 121.441 573.423 123.118V124.516H553.387C553.511 125.603 553.806 126.613 554.272 127.545C554.738 128.446 555.329 129.222 556.043 129.875C556.757 130.527 557.581 131.039 558.513 131.412C559.475 131.785 560.485 131.971 561.541 131.971C562.939 131.971 564.119 131.754 565.082 131.319C566.045 130.884 566.837 130.403 567.459 129.875C568.173 129.284 568.763 128.585 569.229 127.778H572.957C572.398 129.238 571.606 130.527 570.581 131.645C569.68 132.608 568.499 133.493 567.039 134.301C565.579 135.078 563.747 135.466 561.541 135.466ZM569.462 121.255C569.338 120.385 569.058 119.562 568.624 118.785C568.22 117.977 567.676 117.278 566.993 116.688C566.309 116.098 565.502 115.632 564.57 115.29C563.669 114.918 562.659 114.731 561.541 114.731C560.423 114.731 559.398 114.918 558.466 115.29C557.565 115.632 556.757 116.098 556.043 116.688C555.36 117.278 554.8 117.977 554.366 118.785C553.931 119.562 553.636 120.385 553.48 121.255H569.462ZM599.055 111.703H604.647L611.636 126.147H612.801L619.79 111.703H625.381V135H621.654V116.362L621.7 115.896H621.607L614.665 130.341H609.772L602.829 115.896H602.736L602.783 116.362V135H599.055V111.703ZM646.353 135.466C644.613 135.466 642.998 135.171 641.507 134.581C640.016 133.959 638.727 133.121 637.639 132.065C636.583 130.977 635.744 129.688 635.123 128.197C634.533 126.706 634.238 125.091 634.238 123.351C634.238 121.612 634.533 119.997 635.123 118.505C635.744 117.014 636.583 115.741 637.639 114.685C638.727 113.598 640.016 112.759 641.507 112.169C642.998 111.547 644.613 111.237 646.353 111.237C648.092 111.237 649.707 111.547 651.198 112.169C652.689 112.759 653.963 113.598 655.019 114.685C656.106 115.741 656.945 117.014 657.535 118.505C658.157 119.997 658.467 121.612 658.467 123.351C658.467 125.091 658.157 126.706 657.535 128.197C656.945 129.688 656.106 130.977 655.019 132.065C653.963 133.121 652.689 133.959 651.198 134.581C649.707 135.171 648.092 135.466 646.353 135.466ZM646.353 131.971C647.564 131.971 648.682 131.769 649.707 131.366C650.732 130.931 651.618 130.341 652.363 129.595C653.109 128.818 653.683 127.902 654.087 126.846C654.522 125.79 654.74 124.625 654.74 123.351C654.74 122.078 654.522 120.913 654.087 119.857C653.683 118.801 653.109 117.9 652.363 117.154C651.618 116.378 650.732 115.787 649.707 115.384C648.682 114.949 647.564 114.731 646.353 114.731C645.141 114.731 644.023 114.949 642.998 115.384C641.973 115.787 641.087 116.378 640.342 117.154C639.596 117.9 639.006 118.801 638.571 119.857C638.167 120.913 637.966 122.078 637.966 123.351C637.966 124.625 638.167 125.79 638.571 126.846C639.006 127.902 639.596 128.818 640.342 129.595C641.087 130.341 641.973 130.931 642.998 131.366C644.023 131.769 645.141 131.971 646.353 131.971ZM672.216 122.652L664.062 111.703H668.489L675.478 121.022H679.438V111.703H683.166V121.022H687.127L694.116 111.703H698.542L690.388 122.652L699.241 135H694.582L687.127 124.516H683.166V135H679.438V124.516H675.478L668.023 135H663.363L672.216 122.652ZM706.476 111.703H710.204V121.255H723.25V111.703H726.978V135H723.25V124.749H710.204V135H706.476V111.703ZM747.949 135.466C746.209 135.466 744.594 135.171 743.103 134.581C741.612 133.959 740.323 133.121 739.236 132.065C738.18 130.977 737.341 129.688 736.72 128.197C736.129 126.706 735.834 125.091 735.834 123.351C735.834 121.612 736.129 119.997 736.72 118.505C737.341 117.014 738.18 115.741 739.236 114.685C740.323 113.598 741.612 112.759 743.103 112.169C744.594 111.547 746.209 111.237 747.949 111.237C749.689 111.237 751.304 111.547 752.795 112.169C754.286 112.759 755.559 113.598 756.616 114.685C757.703 115.741 758.542 117.014 759.132 118.505C759.753 119.997 760.064 121.612 760.064 123.351C760.064 125.091 759.753 126.706 759.132 128.197C758.542 129.688 757.703 130.977 756.616 132.065C755.559 133.121 754.286 133.959 752.795 134.581C751.304 135.171 749.689 135.466 747.949 135.466ZM747.949 131.971C749.16 131.971 750.279 131.769 751.304 131.366C752.329 130.931 753.214 130.341 753.96 129.595C754.705 128.818 755.28 127.902 755.684 126.846C756.119 125.79 756.336 124.625 756.336 123.351C756.336 122.078 756.119 120.913 755.684 119.857C755.28 118.801 754.705 117.9 753.96 117.154C753.214 116.378 752.329 115.787 751.304 115.384C750.279 114.949 749.16 114.731 747.949 114.731C746.738 114.731 745.619 114.949 744.594 115.384C743.569 115.787 742.684 116.378 741.938 117.154C741.193 117.9 740.603 118.801 740.168 119.857C739.764 120.913 739.562 122.078 739.562 123.351C739.562 124.625 739.764 125.79 740.168 126.846C740.603 127.902 741.193 128.818 741.938 129.595C742.684 130.341 743.569 130.931 744.594 131.366C745.619 131.769 746.738 131.971 747.949 131.971ZM79.907 193.466C78.2606 193.466 76.723 193.171 75.2941 192.581C73.8963 191.959 72.6693 191.121 71.6131 190.065C70.5881 188.977 69.7649 187.688 69.1436 186.197C68.5534 184.706 68.2583 183.091 68.2583 181.351C68.2583 179.612 68.5534 177.997 69.1436 176.505C69.7649 175.014 70.5881 173.741 71.6131 172.685C72.6693 171.598 73.8963 170.759 75.2941 170.169C76.723 169.547 78.2606 169.237 79.907 169.237C81.0563 169.237 82.0969 169.361 83.0288 169.609C83.9918 169.827 84.846 170.138 85.5915 170.541C86.3371 170.914 86.9894 171.349 87.5485 171.846C88.1076 172.343 88.5891 172.84 88.9929 173.337C89.9559 174.549 90.6548 175.9 91.0897 177.391H87.3621C86.9894 176.521 86.4768 175.744 85.8245 175.061C85.2654 174.471 84.5043 173.943 83.5414 173.477C82.5784 172.98 81.367 172.731 79.907 172.731C78.7887 172.731 77.7481 172.949 76.7851 173.384C75.8222 173.787 74.9835 174.378 74.269 175.154C73.5546 175.9 72.9954 176.801 72.5916 177.857C72.1878 178.913 71.9859 180.078 71.9859 181.351C71.9859 182.656 72.2033 183.836 72.6382 184.893C73.0731 185.949 73.6478 186.85 74.3622 187.595C75.0767 188.341 75.9154 188.931 76.8783 189.366C77.8413 189.769 78.8508 189.971 79.907 189.971C81.4291 189.971 82.6716 189.707 83.6346 189.179C84.6286 188.651 85.4207 188.061 86.0109 187.409C86.6943 186.663 87.2223 185.809 87.5951 184.846H91.3227C90.8878 186.492 90.1733 187.937 89.1793 189.179C88.7444 189.707 88.2474 190.235 87.6883 190.763C87.1292 191.26 86.4613 191.711 85.6847 192.115C84.9392 192.519 84.085 192.845 83.122 193.093C82.1591 193.342 81.0874 193.466 79.907 193.466ZM99.7297 169.703H119.998V193H116.271V173.197H103.457V193H99.7297V169.703ZM130.258 169.703H133.986V173.43H134.033C134.033 173.43 134.172 173.213 134.452 172.778C134.763 172.312 135.244 171.83 135.896 171.333C136.58 170.805 137.449 170.324 138.506 169.889C139.562 169.454 140.851 169.237 142.373 169.237C143.895 169.237 145.324 169.547 146.66 170.169C148.026 170.759 149.222 171.598 150.247 172.685C151.273 173.741 152.08 175.014 152.67 176.505C153.261 177.997 153.556 179.612 153.556 181.351C153.556 183.091 153.261 184.706 152.67 186.197C152.08 187.688 151.273 188.977 150.247 190.065C149.222 191.121 148.026 191.959 146.66 192.581C145.324 193.171 143.895 193.466 142.373 193.466C140.851 193.466 139.562 193.249 138.506 192.814C137.449 192.379 136.58 191.913 135.896 191.416C135.244 190.888 134.763 190.406 134.452 189.971C134.172 189.505 134.033 189.272 134.033 189.272H133.986V201.853H130.258V169.703ZM141.907 189.971C143.025 189.971 144.066 189.769 145.029 189.366C145.992 188.931 146.831 188.341 147.545 187.595C148.259 186.818 148.819 185.902 149.222 184.846C149.626 183.79 149.828 182.625 149.828 181.351C149.828 180.078 149.626 178.913 149.222 177.857C148.819 176.801 148.259 175.9 147.545 175.154C146.831 174.378 145.992 173.787 145.029 173.384C144.066 172.949 143.025 172.731 141.907 172.731C140.789 172.731 139.748 172.949 138.785 173.384C137.822 173.787 136.984 174.378 136.269 175.154C135.555 175.9 134.995 176.801 134.592 177.857C134.188 178.913 133.986 180.078 133.986 181.351C133.986 182.625 134.188 183.79 134.592 184.846C134.995 185.902 135.555 186.818 136.269 187.595C136.984 188.341 137.822 188.931 138.785 189.366C139.748 189.769 140.789 189.971 141.907 189.971ZM166.153 184.613C165.283 184.24 164.506 183.743 163.823 183.122C163.233 182.594 162.689 181.895 162.192 181.025C161.726 180.124 161.493 178.991 161.493 177.624C161.493 176.505 161.695 175.465 162.099 174.502C162.534 173.539 163.14 172.7 163.916 171.986C164.724 171.271 165.671 170.712 166.758 170.308C167.877 169.905 169.135 169.703 170.533 169.703H181.063V193H177.335V185.545H169.88L165.78 193H161.493L166.153 184.613ZM177.335 182.05V173.197H170.579C168.809 173.197 167.473 173.617 166.572 174.455C165.671 175.263 165.221 176.319 165.221 177.624C165.221 178.928 165.671 180 166.572 180.839C167.473 181.646 168.809 182.05 170.579 182.05H177.335ZM196.441 173.197H188.287V169.703H208.323V173.197H200.169V193H196.441V173.197ZM225.35 193.466C223.828 193.466 222.383 193.171 221.016 192.581C219.681 191.959 218.5 191.121 217.475 190.065C216.45 188.977 215.642 187.688 215.052 186.197C214.462 184.706 214.167 183.091 214.167 181.351C214.167 179.612 214.462 177.997 215.052 176.505C215.642 175.014 216.45 173.741 217.475 172.685C218.5 171.598 219.681 170.759 221.016 170.169C222.383 169.547 223.828 169.237 225.35 169.237C226.872 169.237 228.161 169.454 229.217 169.889C230.273 170.324 231.127 170.805 231.78 171.333C232.463 171.862 232.945 172.359 233.224 172.825C233.535 173.259 233.69 173.477 233.69 173.477H233.737V169.703H237.464V193H233.737V189.272H233.69C233.69 189.272 233.535 189.505 233.224 189.971C232.945 190.406 232.463 190.888 231.78 191.416C231.127 191.913 230.273 192.379 229.217 192.814C228.161 193.249 226.872 193.466 225.35 193.466ZM225.816 189.971C226.934 189.971 227.975 189.769 228.937 189.366C229.9 188.931 230.739 188.341 231.454 187.595C232.168 186.818 232.727 185.902 233.131 184.846C233.535 183.79 233.737 182.625 233.737 181.351C233.737 180.078 233.535 178.913 233.131 177.857C232.727 176.801 232.168 175.9 231.454 175.154C230.739 174.378 229.9 173.787 228.937 173.384C227.975 172.949 226.934 172.731 225.816 172.731C224.697 172.731 223.657 172.949 222.694 173.384C221.731 173.787 220.892 174.378 220.178 175.154C219.463 175.9 218.904 176.801 218.5 177.857C218.096 178.913 217.895 180.078 217.895 181.351C217.895 182.625 218.096 183.79 218.5 184.846C218.904 185.902 219.463 186.818 220.178 187.595C220.892 188.341 221.731 188.931 222.694 189.366C223.657 189.769 224.697 189.971 225.816 189.971ZM252.857 173.197H244.703V169.703H264.739V173.197H256.585V193H252.857V173.197ZM271.981 169.703H275.708V177.624H282.232C283.567 177.624 284.779 177.826 285.866 178.229C286.953 178.633 287.885 179.192 288.662 179.907C289.438 180.59 290.028 181.398 290.432 182.33C290.867 183.262 291.085 184.256 291.085 185.312C291.085 186.368 290.867 187.362 290.432 188.294C290.028 189.226 289.438 190.049 288.662 190.763C287.885 191.447 286.953 191.99 285.866 192.394C284.779 192.798 283.567 193 282.232 193H271.981V169.703ZM282.232 189.505C283.878 189.505 285.136 189.102 286.006 188.294C286.907 187.486 287.357 186.492 287.357 185.312C287.357 184.131 286.907 183.137 286.006 182.33C285.136 181.522 283.878 181.118 282.232 181.118H275.708V189.505H282.232ZM309.484 193.466C307.838 193.466 306.3 193.171 304.871 192.581C303.473 191.959 302.246 191.121 301.19 190.065C300.165 188.977 299.342 187.688 298.721 186.197C298.13 184.706 297.835 183.091 297.835 181.351C297.835 179.612 298.13 177.997 298.721 176.505C299.342 175.014 300.165 173.741 301.19 172.685C302.246 171.598 303.473 170.759 304.871 170.169C306.3 169.547 307.838 169.237 309.484 169.237C310.633 169.237 311.674 169.361 312.606 169.609C313.569 169.827 314.423 170.138 315.169 170.541C315.914 170.914 316.566 171.349 317.126 171.846C317.685 172.343 318.166 172.84 318.57 173.337C319.533 174.549 320.232 175.9 320.667 177.391H316.939C316.566 176.521 316.054 175.744 315.402 175.061C314.842 174.471 314.081 173.943 313.118 173.477C312.155 172.98 310.944 172.731 309.484 172.731C308.366 172.731 307.325 172.949 306.362 173.384C305.399 173.787 304.561 174.378 303.846 175.154C303.132 175.9 302.572 176.801 302.169 177.857C301.765 178.913 301.563 180.078 301.563 181.351C301.563 182.656 301.78 183.836 302.215 184.893C302.65 185.949 303.225 186.85 303.939 187.595C304.654 188.341 305.492 188.931 306.455 189.366C307.418 189.769 308.428 189.971 309.484 189.971C311.006 189.971 312.249 189.707 313.212 189.179C314.206 188.651 314.998 188.061 315.588 187.409C316.271 186.663 316.799 185.809 317.172 184.846H320.9C320.465 186.492 319.75 187.937 318.756 189.179C318.321 189.707 317.824 190.235 317.265 190.763C316.706 191.26 316.038 191.711 315.262 192.115C314.516 192.519 313.662 192.845 312.699 193.093C311.736 193.342 310.664 193.466 309.484 193.466ZM333.034 184.613C332.165 184.24 331.388 183.743 330.705 183.122C330.114 182.594 329.571 181.895 329.074 181.025C328.608 180.124 328.375 178.991 328.375 177.624C328.375 176.505 328.577 175.465 328.981 174.502C329.415 173.539 330.021 172.7 330.798 171.986C331.605 171.271 332.553 170.712 333.64 170.308C334.758 169.905 336.016 169.703 337.414 169.703H347.945V193H344.217V185.545H336.762L332.662 193H328.375L333.034 184.613ZM344.217 182.05V173.197H337.461C335.69 173.197 334.355 173.617 333.454 174.455C332.553 175.263 332.102 176.319 332.102 177.624C332.102 178.928 332.553 180 333.454 180.839C334.355 181.646 335.69 182.05 337.461 182.05H344.217ZM385.701 193.466C383.961 193.466 382.346 193.171 380.855 192.581C379.364 191.959 378.075 191.121 376.988 190.065C375.932 188.977 375.093 187.688 374.472 186.197C373.881 184.706 373.586 183.091 373.586 181.351C373.586 179.612 373.881 177.997 374.472 176.505C375.093 175.014 375.932 173.741 376.988 172.685C378.075 171.598 379.364 170.759 380.855 170.169C382.346 169.547 383.961 169.237 385.701 169.237C387.44 169.237 389.056 169.547 390.547 170.169C392.038 170.759 393.311 171.598 394.367 172.685C395.455 173.741 396.293 175.014 396.884 176.505C397.505 177.997 397.815 179.612 397.815 181.351C397.815 183.091 397.505 184.706 396.884 186.197C396.293 187.688 395.455 188.977 394.367 190.065C393.311 191.121 392.038 191.959 390.547 192.581C389.056 193.171 387.44 193.466 385.701 193.466ZM385.701 189.971C386.912 189.971 388.031 189.769 389.056 189.366C390.081 188.931 390.966 188.341 391.712 187.595C392.457 186.818 393.032 185.902 393.436 184.846C393.87 183.79 394.088 182.625 394.088 181.351C394.088 180.078 393.87 178.913 393.436 177.857C393.032 176.801 392.457 175.9 391.712 175.154C390.966 174.378 390.081 173.787 389.056 173.384C388.031 172.949 386.912 172.731 385.701 172.731C384.489 172.731 383.371 172.949 382.346 173.384C381.321 173.787 380.436 174.378 379.69 175.154C378.945 175.9 378.354 176.801 377.92 177.857C377.516 178.913 377.314 180.078 377.314 181.351C377.314 182.625 377.516 183.79 377.92 184.846C378.354 185.902 378.945 186.818 379.69 187.595C380.436 188.341 381.321 188.931 382.346 189.366C383.371 189.769 384.489 189.971 385.701 189.971ZM411.776 173.197H403.622V169.703H423.657V173.197H415.503V193H411.776V173.197ZM446.276 169.703H451.867L458.856 184.147H460.021L467.01 169.703H472.602V193H468.874V174.362L468.921 173.896H468.828L461.885 188.341H456.993L450.05 173.896H449.957L450.003 174.362V193H446.276V169.703ZM492.175 193H486.817L480.526 169.703H484.487L489.612 189.505H493.107L499.164 169.703H503.125L493.34 201.853H489.379L492.175 193ZM518.03 193.466C516.849 193.466 515.809 193.357 514.908 193.14C514.007 192.922 513.199 192.643 512.485 192.301C511.802 191.928 511.196 191.509 510.668 191.043C510.171 190.577 509.751 190.111 509.41 189.645C508.602 188.527 508.058 187.238 507.779 185.778H511.506C511.693 186.585 512.05 187.284 512.578 187.875C513.013 188.403 513.65 188.884 514.489 189.319C515.358 189.754 516.539 189.971 518.03 189.971C520.018 189.971 521.478 189.583 522.41 188.806C523.373 188.03 523.854 187.176 523.854 186.244C523.854 185.312 523.419 184.504 522.549 183.821C521.68 183.106 520.251 182.749 518.263 182.749H515.467V179.255H518.263C520.126 179.255 521.447 178.944 522.223 178.323C523 177.701 523.388 176.925 523.388 175.993C523.388 175.185 522.953 174.44 522.083 173.756C521.245 173.073 519.894 172.731 518.03 172.731C516.787 172.731 515.793 172.918 515.048 173.29C514.302 173.663 513.712 174.067 513.277 174.502C512.78 175.03 512.423 175.605 512.205 176.226H508.478C508.757 174.921 509.301 173.756 510.109 172.731C510.45 172.296 510.854 171.877 511.32 171.473C511.786 171.038 512.345 170.666 512.998 170.355C513.65 170.013 514.38 169.749 515.187 169.563C516.026 169.345 516.974 169.237 518.03 169.237C519.552 169.237 520.872 169.423 521.99 169.796C523.14 170.138 524.087 170.603 524.833 171.194C525.609 171.784 526.184 172.483 526.557 173.29C526.929 174.067 527.116 174.89 527.116 175.76C527.116 176.754 526.929 177.577 526.557 178.229C526.184 178.882 525.749 179.41 525.252 179.814C524.786 180.186 524.336 180.451 523.901 180.606C523.497 180.761 523.248 180.854 523.155 180.885V180.932C523.217 180.932 523.481 181.01 523.947 181.165C524.413 181.32 524.91 181.615 525.438 182.05C525.997 182.454 526.494 183.013 526.929 183.728C527.364 184.442 527.582 185.358 527.582 186.477C527.582 187.409 527.38 188.294 526.976 189.133C526.572 189.971 525.966 190.717 525.159 191.369C524.351 192.022 523.357 192.534 522.177 192.907C520.996 193.28 519.614 193.466 518.03 193.466ZM536.451 169.703H540.179V177.624H545.77C547.106 177.624 548.317 177.826 549.404 178.229C550.492 178.633 551.423 179.192 552.2 179.907C552.977 180.59 553.567 181.398 553.971 182.33C554.405 183.262 554.623 184.256 554.623 185.312C554.623 186.368 554.405 187.362 553.971 188.294C553.567 189.226 552.977 190.049 552.2 190.763C551.423 191.447 550.492 191.99 549.404 192.394C548.317 192.798 547.106 193 545.77 193H536.451V169.703ZM545.77 189.505C547.416 189.505 548.674 189.102 549.544 188.294C550.445 187.486 550.895 186.492 550.895 185.312C550.895 184.131 550.445 183.137 549.544 182.33C548.674 181.522 547.416 181.118 545.77 181.118H540.179V189.505H545.77ZM557.652 169.703H561.379V193H557.652V169.703ZM571.621 169.703H575.348V179.022H580.008L587.463 169.703H591.89L583.27 180.652L592.588 193H587.929L580.008 182.516H575.348V193H571.621V169.703ZM599.829 169.703H603.556V187.176L603.51 187.642H603.603L616.137 169.703H620.331V193H616.603V175.527L616.65 175.061H616.556L604.022 193H599.829V169.703ZM647.372 169.703H651.099V187.176L651.053 187.642H651.146L663.68 169.703H667.873V193H664.146V175.527L664.192 175.061H664.099L651.565 193H647.372V169.703ZM694.915 169.703H698.642V189.505H707.961V169.703H711.689V189.505H721.008V169.703H724.735V193H694.915V169.703ZM744.318 193H738.959L732.669 169.703H736.63L741.755 189.505H745.25L751.307 169.703H755.268L745.483 201.853H741.522L744.318 193ZM762.251 169.703H767.843L774.832 184.147H775.997L782.986 169.703H788.577V193H784.85V174.362L784.896 173.896H784.803L777.861 188.341H772.968L766.025 173.896H765.932L765.979 174.362V193H762.251V169.703ZM808.617 193.466C807.095 193.466 805.65 193.171 804.283 192.581C802.948 191.959 801.767 191.121 800.742 190.065C799.717 188.977 798.909 187.688 798.319 186.197C797.729 184.706 797.434 183.091 797.434 181.351C797.434 179.612 797.729 177.997 798.319 176.505C798.909 175.014 799.717 173.741 800.742 172.685C801.767 171.598 802.948 170.759 804.283 170.169C805.65 169.547 807.095 169.237 808.617 169.237C810.139 169.237 811.428 169.454 812.484 169.889C813.54 170.324 814.394 170.805 815.047 171.333C815.73 171.862 816.212 172.359 816.491 172.825C816.802 173.259 816.957 173.477 816.957 173.477H817.004V169.703H820.731V193H817.004V189.272H816.957C816.957 189.272 816.802 189.505 816.491 189.971C816.212 190.406 815.73 190.888 815.047 191.416C814.394 191.913 813.54 192.379 812.484 192.814C811.428 193.249 810.139 193.466 808.617 193.466ZM809.083 189.971C810.201 189.971 811.242 189.769 812.204 189.366C813.167 188.931 814.006 188.341 814.721 187.595C815.435 186.818 815.994 185.902 816.398 184.846C816.802 183.79 817.004 182.625 817.004 181.351C817.004 180.078 816.802 178.913 816.398 177.857C815.994 176.801 815.435 175.9 814.721 175.154C814.006 174.378 813.167 173.787 812.204 173.384C811.242 172.949 810.201 172.731 809.083 172.731C807.964 172.731 806.924 172.949 805.961 173.384C804.998 173.787 804.159 174.378 803.445 175.154C802.73 175.9 802.171 176.801 801.767 177.857C801.363 178.913 801.162 180.078 801.162 181.351C801.162 182.625 801.363 183.79 801.767 184.846C802.171 185.902 802.73 186.818 803.445 187.595C804.159 188.341 804.998 188.931 805.961 189.366C806.924 189.769 807.964 189.971 809.083 189.971ZM93.4322 238.419C91.1024 237.705 89.1921 236.54 87.701 234.925C86.2411 233.31 85.5111 231.213 85.5111 228.635C85.5111 227.175 85.7751 225.823 86.3032 224.581C86.8623 223.338 87.6389 222.267 88.6329 221.366C89.658 220.434 90.9005 219.704 92.3605 219.176C93.8515 218.648 95.5289 218.384 97.3927 218.384H111.371V251H107.178V238.885H97.8587L90.6365 251H85.7441L93.4322 238.419ZM107.178 234.925V222.344H97.3927C94.8145 222.344 92.8886 222.934 91.615 224.115C90.3414 225.264 89.7046 226.771 89.7046 228.635C89.7046 230.498 90.3414 232.02 91.615 233.201C92.8886 234.35 94.8145 234.925 97.3927 234.925H107.178ZM148.873 251.466C147.195 251.466 145.642 251.186 144.213 250.627C142.815 250.037 141.619 249.198 140.625 248.111C139.631 246.993 138.855 245.626 138.296 244.011C137.736 242.396 137.457 240.532 137.457 238.419C137.457 234.816 137.799 231.741 138.482 229.194C139.165 226.647 140.159 224.581 141.464 222.997C142.769 221.381 144.368 220.216 146.263 219.502C148.189 218.756 150.379 218.384 152.833 218.384H158.424V222.344H152.833C150.969 222.344 149.354 222.562 147.987 222.997C146.62 223.4 145.471 224.053 144.539 224.954C143.607 225.823 142.862 226.957 142.303 228.355C141.775 229.722 141.402 231.368 141.184 233.294H141.231C141.697 232.611 142.318 231.989 143.095 231.43C143.747 230.964 144.57 230.545 145.564 230.172C146.589 229.768 147.847 229.566 149.339 229.566C150.923 229.566 152.383 229.846 153.718 230.405C155.054 230.933 156.203 231.694 157.166 232.688C158.16 233.651 158.921 234.801 159.45 236.136C160.009 237.472 160.288 238.932 160.288 240.516C160.288 242.1 160.009 243.56 159.45 244.896C158.89 246.232 158.114 247.397 157.12 248.391C156.126 249.354 154.914 250.115 153.485 250.674C152.088 251.202 150.55 251.466 148.873 251.466ZM148.873 247.971C149.991 247.971 151.016 247.785 151.948 247.412C152.88 247.008 153.687 246.48 154.371 245.828C155.054 245.145 155.582 244.352 155.955 243.452C156.359 242.551 156.561 241.572 156.561 240.516C156.561 239.46 156.359 238.482 155.955 237.581C155.582 236.68 155.054 235.903 154.371 235.251C153.687 234.568 152.88 234.04 151.948 233.667C151.016 233.263 149.991 233.061 148.873 233.061C147.754 233.061 146.729 233.263 145.797 233.667C144.865 234.04 144.058 234.568 143.374 235.251C142.691 235.903 142.147 236.68 141.744 237.581C141.371 238.482 141.184 239.46 141.184 240.516C141.184 241.572 141.371 242.551 141.744 243.452C142.147 244.352 142.691 245.145 143.374 245.828C144.058 246.48 144.865 247.008 145.797 247.412C146.729 247.785 147.754 247.971 148.873 247.971ZM168.655 227.703H172.383V235.624H177.974C179.31 235.624 180.521 235.826 181.609 236.229C182.696 236.633 183.628 237.192 184.404 237.907C185.181 238.59 185.771 239.398 186.175 240.33C186.61 241.262 186.827 242.256 186.827 243.312C186.827 244.368 186.61 245.362 186.175 246.294C185.771 247.226 185.181 248.049 184.404 248.763C183.628 249.447 182.696 249.99 181.609 250.394C180.521 250.798 179.31 251 177.974 251H168.655V227.703ZM177.974 247.505C179.621 247.505 180.879 247.102 181.748 246.294C182.649 245.486 183.1 244.492 183.1 243.312C183.1 242.131 182.649 241.137 181.748 240.33C180.879 239.522 179.621 239.118 177.974 239.118H172.383V247.505H177.974ZM189.856 227.703H193.583V251H189.856V227.703ZM224.327 231.197H216.173V227.703H236.208V231.197H228.054V251H224.327V231.197ZM252.77 251H247.411L241.121 227.703H245.081L250.207 247.505H253.701L259.759 227.703H263.719L253.934 259.853H249.974L252.77 251ZM275.828 231.197H267.674V227.703H287.71V231.197H279.556V251H275.828V231.197ZM310.329 227.703H330.597V251H326.87V231.197H314.056V251H310.329V227.703ZM351.574 251.466C349.834 251.466 348.219 251.171 346.728 250.581C345.237 249.959 343.948 249.121 342.861 248.065C341.805 246.977 340.966 245.688 340.345 244.197C339.754 242.706 339.459 241.091 339.459 239.351C339.459 237.612 339.754 235.997 340.345 234.505C340.966 233.014 341.805 231.741 342.861 230.685C343.948 229.598 345.237 228.759 346.728 228.169C348.219 227.547 349.834 227.237 351.574 227.237C353.313 227.237 354.929 227.547 356.42 228.169C357.911 228.759 359.184 229.598 360.241 230.685C361.328 231.741 362.166 233.014 362.757 234.505C363.378 235.997 363.689 237.612 363.689 239.351C363.689 241.091 363.378 242.706 362.757 244.197C362.166 245.688 361.328 246.977 360.241 248.065C359.184 249.121 357.911 249.959 356.42 250.581C354.929 251.171 353.313 251.466 351.574 251.466ZM351.574 247.971C352.785 247.971 353.904 247.769 354.929 247.366C355.954 246.931 356.839 246.341 357.585 245.595C358.33 244.818 358.905 243.902 359.309 242.846C359.744 241.79 359.961 240.625 359.961 239.351C359.961 238.078 359.744 236.913 359.309 235.857C358.905 234.801 358.33 233.9 357.585 233.154C356.839 232.378 355.954 231.787 354.929 231.384C353.904 230.949 352.785 230.731 351.574 230.731C350.362 230.731 349.244 230.949 348.219 231.384C347.194 231.787 346.309 232.378 345.563 233.154C344.818 233.9 344.227 234.801 343.793 235.857C343.389 236.913 343.187 238.078 343.187 239.351C343.187 240.625 343.389 241.79 343.793 242.846C344.227 243.902 344.818 244.818 345.563 245.595C346.309 246.341 347.194 246.931 348.219 247.366C349.244 247.769 350.362 247.971 351.574 247.971ZM382.774 251.466C381.128 251.466 379.59 251.171 378.161 250.581C376.763 249.959 375.536 249.121 374.48 248.065C373.455 246.977 372.632 245.688 372.011 244.197C371.421 242.706 371.125 241.091 371.125 239.351C371.125 237.612 371.421 235.997 372.011 234.505C372.632 233.014 373.455 231.741 374.48 230.685C375.536 229.598 376.763 228.759 378.161 228.169C379.59 227.547 381.128 227.237 382.774 227.237C383.923 227.237 384.964 227.361 385.896 227.609C386.859 227.827 387.713 228.138 388.459 228.541C389.204 228.914 389.857 229.349 390.416 229.846C390.975 230.343 391.456 230.84 391.86 231.337C392.823 232.549 393.522 233.9 393.957 235.391H390.229C389.857 234.521 389.344 233.744 388.692 233.061C388.133 232.471 387.371 231.943 386.409 231.477C385.446 230.98 384.234 230.731 382.774 230.731C381.656 230.731 380.615 230.949 379.652 231.384C378.689 231.787 377.851 232.378 377.136 233.154C376.422 233.9 375.863 234.801 375.459 235.857C375.055 236.913 374.853 238.078 374.853 239.351C374.853 240.656 375.07 241.836 375.505 242.893C375.94 243.949 376.515 244.85 377.229 245.595C377.944 246.341 378.783 246.931 379.745 247.366C380.708 247.769 381.718 247.971 382.774 247.971C384.296 247.971 385.539 247.707 386.502 247.179C387.496 246.651 388.288 246.061 388.878 245.409C389.561 244.663 390.09 243.809 390.462 242.846H394.19C393.755 244.492 393.041 245.937 392.046 247.179C391.612 247.707 391.115 248.235 390.555 248.763C389.996 249.26 389.328 249.711 388.552 250.115C387.806 250.519 386.952 250.845 385.989 251.093C385.026 251.342 383.955 251.466 382.774 251.466ZM413.081 251.466C411.403 251.466 409.835 251.171 408.375 250.581C406.915 249.959 405.657 249.121 404.6 248.065C403.544 246.977 402.706 245.688 402.084 244.197C401.494 242.706 401.199 241.091 401.199 239.351C401.199 237.612 401.494 235.997 402.084 234.505C402.706 233.014 403.544 231.741 404.6 230.685C405.657 229.598 406.915 228.759 408.375 228.169C409.835 227.547 411.403 227.237 413.081 227.237C414.758 227.237 416.327 227.547 417.787 228.169C419.247 228.759 420.505 229.582 421.561 230.638C422.617 231.694 423.44 232.952 424.03 234.412C424.652 235.872 424.962 237.441 424.962 239.118V240.516H404.927C405.051 241.603 405.346 242.613 405.812 243.545C406.278 244.446 406.868 245.222 407.583 245.875C408.297 246.527 409.12 247.039 410.052 247.412C411.015 247.785 412.025 247.971 413.081 247.971C414.479 247.971 415.659 247.754 416.622 247.319C417.585 246.884 418.377 246.403 418.998 245.875C419.713 245.284 420.303 244.585 420.769 243.778H424.496C423.937 245.238 423.145 246.527 422.12 247.645C421.219 248.608 420.039 249.493 418.579 250.301C417.119 251.078 415.286 251.466 413.081 251.466ZM421.002 237.255C420.878 236.385 420.598 235.562 420.163 234.785C419.759 233.977 419.216 233.278 418.532 232.688C417.849 232.098 417.041 231.632 416.109 231.29C415.209 230.918 414.199 230.731 413.081 230.731C411.962 230.731 410.937 230.918 410.005 231.29C409.105 231.632 408.297 232.098 407.583 232.688C406.899 233.278 406.34 233.977 405.905 234.785C405.47 235.562 405.175 236.385 405.02 237.255H421.002ZM437.536 227.703H447.321L453.844 251H449.883L444.525 231.197H440.331L434.973 251H431.012L437.536 227.703ZM461.288 227.703H465.016V245.176L464.969 245.642H465.062L477.596 227.703H481.79V251H478.062V233.527L478.109 233.061H478.015L465.482 251H461.288V227.703ZM495.772 227.703H505.557L512.08 251H508.119L502.761 231.197H498.567L493.209 251H489.248L495.772 227.703ZM529.309 251.466C527.787 251.466 526.342 251.171 524.976 250.581C523.64 249.959 522.46 249.121 521.434 248.065C520.409 246.977 519.602 245.688 519.012 244.197C518.421 242.706 518.126 241.091 518.126 239.351C518.126 237.612 518.421 235.997 519.012 234.505C519.602 233.014 520.409 231.741 521.434 230.685C522.46 229.598 523.64 228.759 524.976 228.169C526.342 227.547 527.787 227.237 529.309 227.237C530.831 227.237 532.12 227.454 533.176 227.889C534.232 228.324 535.087 228.805 535.739 229.333C536.422 229.862 536.904 230.359 537.183 230.825C537.494 231.259 537.649 231.477 537.649 231.477H537.696V227.703H541.424V251H537.696V247.272H537.649C537.649 247.272 537.494 247.505 537.183 247.971C536.904 248.406 536.422 248.888 535.739 249.416C535.087 249.913 534.232 250.379 533.176 250.814C532.12 251.249 530.831 251.466 529.309 251.466ZM529.775 247.971C530.893 247.971 531.934 247.769 532.897 247.366C533.86 246.931 534.698 246.341 535.413 245.595C536.127 244.818 536.686 243.902 537.09 242.846C537.494 241.79 537.696 240.625 537.696 239.351C537.696 238.078 537.494 236.913 537.09 235.857C536.686 234.801 536.127 233.9 535.413 233.154C534.698 232.378 533.86 231.787 532.897 231.384C531.934 230.949 530.893 230.731 529.775 230.731C528.657 230.731 527.616 230.949 526.653 231.384C525.69 231.787 524.851 232.378 524.137 233.154C523.422 233.9 522.863 234.801 522.46 235.857C522.056 236.913 521.854 238.078 521.854 239.351C521.854 240.625 522.056 241.79 522.46 242.846C522.863 243.902 523.422 244.818 524.137 245.595C524.851 246.341 525.69 246.931 526.653 247.366C527.616 247.769 528.657 247.971 529.775 247.971ZM561.942 251.466C560.295 251.466 558.758 251.171 557.329 250.581C555.931 249.959 554.704 249.121 553.648 248.065C552.623 246.977 551.799 245.688 551.178 244.197C550.588 242.706 550.293 241.091 550.293 239.351C550.293 237.612 550.588 235.997 551.178 234.505C551.799 233.014 552.623 231.741 553.648 230.685C554.704 229.598 555.931 228.759 557.329 228.169C558.758 227.547 560.295 227.237 561.942 227.237C563.091 227.237 564.132 227.361 565.063 227.609C566.026 227.827 566.881 228.138 567.626 228.541C568.372 228.914 569.024 229.349 569.583 229.846C570.142 230.343 570.624 230.84 571.028 231.337C571.991 232.549 572.689 233.9 573.124 235.391H569.397C569.024 234.521 568.511 233.744 567.859 233.061C567.3 232.471 566.539 231.943 565.576 231.477C564.613 230.98 563.402 230.731 561.942 230.731C560.823 230.731 559.783 230.949 558.82 231.384C557.857 231.787 557.018 232.378 556.304 233.154C555.589 233.9 555.03 234.801 554.626 235.857C554.222 236.913 554.02 238.078 554.02 239.351C554.02 240.656 554.238 241.836 554.673 242.893C555.108 243.949 555.682 244.85 556.397 245.595C557.111 246.341 557.95 246.931 558.913 247.366C559.876 247.769 560.885 247.971 561.942 247.971C563.464 247.971 564.706 247.707 565.669 247.179C566.663 246.651 567.455 246.061 568.045 245.409C568.729 244.663 569.257 243.809 569.63 242.846H573.357C572.922 244.492 572.208 245.937 571.214 247.179C570.779 247.707 570.282 248.235 569.723 248.763C569.164 249.26 568.496 249.711 567.719 250.115C566.974 250.519 566.12 250.845 565.157 251.093C564.194 251.342 563.122 251.466 561.942 251.466ZM581.764 227.703H585.492V235.624H592.015C593.351 235.624 594.562 235.826 595.65 236.229C596.737 236.633 597.669 237.192 598.445 237.907C599.222 238.59 599.812 239.398 600.216 240.33C600.651 241.262 600.868 242.256 600.868 243.312C600.868 244.368 600.651 245.362 600.216 246.294C599.812 247.226 599.222 248.049 598.445 248.763C597.669 249.447 596.737 249.99 595.65 250.394C594.562 250.798 593.351 251 592.015 251H581.764V227.703ZM592.015 247.505C593.661 247.505 594.92 247.102 595.789 246.294C596.69 245.486 597.141 244.492 597.141 243.312C597.141 242.131 596.69 241.137 595.789 240.33C594.92 239.522 593.661 239.118 592.015 239.118H585.492V247.505H592.015ZM606.687 256.358C608.364 254.929 609.871 253.268 611.207 251.373C611.766 250.565 612.325 249.68 612.884 248.717C613.443 247.723 613.925 246.651 614.329 245.502C614.763 244.321 615.105 243.063 615.354 241.728C615.633 240.392 615.773 238.979 615.773 237.488C615.773 235.997 615.633 234.599 615.354 233.294C615.105 231.958 614.763 230.716 614.329 229.566C613.925 228.386 613.443 227.299 612.884 226.305C612.325 225.311 611.766 224.41 611.207 223.602C609.871 221.707 608.364 220.046 606.687 218.617L608.551 215.821C610.632 217.374 612.496 219.238 614.142 221.412C614.826 222.344 615.509 223.385 616.192 224.534C616.876 225.652 617.466 226.879 617.963 228.215C618.491 229.551 618.91 230.995 619.221 232.549C619.563 234.102 619.734 235.748 619.734 237.488C619.734 239.227 619.563 240.873 619.221 242.427C618.91 243.98 618.491 245.424 617.963 246.76C617.466 248.096 616.876 249.338 616.192 250.487C615.509 251.606 614.826 252.631 614.142 253.563C612.496 255.737 610.632 257.601 608.551 259.154L606.687 256.358ZM647.243 218.384H651.436V232.595H657.726L667.977 218.384H672.87L661.454 234.226L673.336 251H668.21L657.959 236.556H651.436V251H647.243V218.384ZM697.596 227.703H713.671V231.197H701.323V251H697.596V227.703ZM730.902 251.466C729.38 251.466 727.935 251.171 726.569 250.581C725.233 249.959 724.052 249.121 723.027 248.065C722.002 246.977 721.195 245.688 720.604 244.197C720.014 242.706 719.719 241.091 719.719 239.351C719.719 237.612 720.014 235.997 720.604 234.505C721.195 233.014 722.002 231.741 723.027 230.685C724.052 229.598 725.233 228.759 726.569 228.169C727.935 227.547 729.38 227.237 730.902 227.237C732.424 227.237 733.713 227.454 734.769 227.889C735.825 228.324 736.68 228.805 737.332 229.333C738.015 229.862 738.497 230.359 738.776 230.825C739.087 231.259 739.242 231.477 739.242 231.477H739.289V227.703H743.016V251H739.289V247.272H739.242C739.242 247.272 739.087 247.505 738.776 247.971C738.497 248.406 738.015 248.888 737.332 249.416C736.68 249.913 735.825 250.379 734.769 250.814C733.713 251.249 732.424 251.466 730.902 251.466ZM731.368 247.971C732.486 247.971 733.527 247.769 734.49 247.366C735.453 246.931 736.291 246.341 737.006 245.595C737.72 244.818 738.279 243.902 738.683 242.846C739.087 241.79 739.289 240.625 739.289 239.351C739.289 238.078 739.087 236.913 738.683 235.857C738.279 234.801 737.72 233.9 737.006 233.154C736.291 232.378 735.453 231.787 734.49 231.384C733.527 230.949 732.486 230.731 731.368 230.731C730.25 230.731 729.209 230.949 728.246 231.384C727.283 231.787 726.444 232.378 725.73 233.154C725.015 233.9 724.456 234.801 724.052 235.857C723.649 236.913 723.447 238.078 723.447 239.351C723.447 240.625 723.649 241.79 724.052 242.846C724.456 243.902 725.015 244.818 725.73 245.595C726.444 246.341 727.283 246.931 728.246 247.366C729.209 247.769 730.25 247.971 731.368 247.971ZM753.284 227.703H758.875L765.864 242.147H767.029L774.018 227.703H779.61V251H775.882V232.362L775.929 231.896H775.835L768.893 246.341H764L757.058 231.896H756.965L757.011 232.362V251H753.284V227.703ZM799.649 251.466C798.127 251.466 796.683 251.171 795.316 250.581C793.98 249.959 792.8 249.121 791.775 248.065C790.749 246.977 789.942 245.688 789.352 244.197C788.761 242.706 788.466 241.091 788.466 239.351C788.466 237.612 788.761 235.997 789.352 234.505C789.942 233.014 790.749 231.741 791.775 230.685C792.8 229.598 793.98 228.759 795.316 228.169C796.683 227.547 798.127 227.237 799.649 227.237C801.171 227.237 802.46 227.454 803.516 227.889C804.573 228.324 805.427 228.805 806.079 229.333C806.763 229.862 807.244 230.359 807.524 230.825C807.834 231.259 807.989 231.477 807.989 231.477H808.036V227.703H811.764V251H808.036V247.272H807.989C807.989 247.272 807.834 247.505 807.524 247.971C807.244 248.406 806.763 248.888 806.079 249.416C805.427 249.913 804.573 250.379 803.516 250.814C802.46 251.249 801.171 251.466 799.649 251.466ZM800.115 247.971C801.233 247.971 802.274 247.769 803.237 247.366C804.2 246.931 805.038 246.341 805.753 245.595C806.467 244.818 807.027 243.902 807.43 242.846C807.834 241.79 808.036 240.625 808.036 239.351C808.036 238.078 807.834 236.913 807.43 235.857C807.027 234.801 806.467 233.9 805.753 233.154C805.038 232.378 804.2 231.787 803.237 231.384C802.274 230.949 801.233 230.731 800.115 230.731C798.997 230.731 797.956 230.949 796.993 231.384C796.03 231.787 795.191 232.378 794.477 233.154C793.763 233.9 793.203 234.801 792.8 235.857C792.396 236.913 792.194 238.078 792.194 239.351C792.194 240.625 792.396 241.79 792.8 242.846C793.203 243.902 793.763 244.818 794.477 245.595C795.191 246.341 796.03 246.931 796.993 247.366C797.956 247.769 798.997 247.971 800.115 247.971ZM822.031 227.703H825.758V237.022H830.418L837.873 227.703H842.3L833.68 238.652L842.998 251H838.339L830.418 240.516H825.758V251H822.031V227.703ZM859.114 251.466C857.592 251.466 856.147 251.171 854.78 250.581C853.445 249.959 852.264 249.121 851.239 248.065C850.214 246.977 849.406 245.688 848.816 244.197C848.226 242.706 847.931 241.091 847.931 239.351C847.931 237.612 848.226 235.997 848.816 234.505C849.406 233.014 850.214 231.741 851.239 230.685C852.264 229.598 853.445 228.759 854.78 228.169C856.147 227.547 857.592 227.237 859.114 227.237C860.636 227.237 861.925 227.454 862.981 227.889C864.037 228.324 864.891 228.805 865.544 229.333C866.227 229.862 866.709 230.359 866.988 230.825C867.299 231.259 867.454 231.477 867.454 231.477H867.501V227.703H871.228V251H867.501V247.272H867.454C867.454 247.272 867.299 247.505 866.988 247.971C866.709 248.406 866.227 248.888 865.544 249.416C864.891 249.913 864.037 250.379 862.981 250.814C861.925 251.249 860.636 251.466 859.114 251.466ZM859.58 247.971C860.698 247.971 861.738 247.769 862.701 247.366C863.664 246.931 864.503 246.341 865.218 245.595C865.932 244.818 866.491 243.902 866.895 242.846C867.299 241.79 867.501 240.625 867.501 239.351C867.501 238.078 867.299 236.913 866.895 235.857C866.491 234.801 865.932 233.9 865.218 233.154C864.503 232.378 863.664 231.787 862.701 231.384C861.738 230.949 860.698 230.731 859.58 230.731C858.461 230.731 857.421 230.949 856.458 231.384C855.495 231.787 854.656 232.378 853.942 233.154C853.227 233.9 852.668 234.801 852.264 235.857C851.86 236.913 851.658 238.078 851.658 239.351C851.658 240.625 851.86 241.79 852.264 242.846C852.668 243.902 853.227 244.818 853.942 245.595C854.656 246.341 855.495 246.931 856.458 247.366C857.421 247.769 858.461 247.971 859.58 247.971ZM881.495 227.703H887.087L894.076 242.147H895.241L902.23 227.703H907.821V251H904.094V232.362L904.14 231.896H904.047L897.105 246.341H892.212L885.27 231.896H885.176L885.223 232.362V251H881.495V227.703ZM120.017 285.703H125.608L132.597 300.147H133.762L140.751 285.703H146.343V309H142.615V290.362L142.662 289.896H142.568L135.626 304.341H130.733L123.791 289.896H123.698L123.744 290.362V309H120.017V285.703ZM167.314 309.466C165.574 309.466 163.959 309.171 162.468 308.581C160.977 307.959 159.688 307.121 158.601 306.065C157.545 304.977 156.706 303.688 156.085 302.197C155.494 300.706 155.199 299.091 155.199 297.351C155.199 295.612 155.494 293.997 156.085 292.505C156.706 291.014 157.545 289.741 158.601 288.685C159.688 287.598 160.977 286.759 162.468 286.169C163.959 285.547 165.574 285.237 167.314 285.237C169.053 285.237 170.669 285.547 172.16 286.169C173.651 286.759 174.924 287.598 175.98 288.685C177.068 289.741 177.906 291.014 178.497 292.505C179.118 293.997 179.428 295.612 179.428 297.351C179.428 299.091 179.118 300.706 178.497 302.197C177.906 303.688 177.068 304.977 175.98 306.065C174.924 307.121 173.651 307.959 172.16 308.581C170.669 309.171 169.053 309.466 167.314 309.466ZM167.314 305.971C168.525 305.971 169.644 305.769 170.669 305.366C171.694 304.931 172.579 304.341 173.325 303.595C174.07 302.818 174.645 301.902 175.049 300.846C175.483 299.79 175.701 298.625 175.701 297.351C175.701 296.078 175.483 294.913 175.049 293.857C174.645 292.801 174.07 291.9 173.325 291.154C172.579 290.378 171.694 289.787 170.669 289.384C169.644 288.949 168.525 288.731 167.314 288.731C166.102 288.731 164.984 288.949 163.959 289.384C162.934 289.787 162.049 290.378 161.303 291.154C160.558 291.9 159.967 292.801 159.533 293.857C159.129 294.913 158.927 296.078 158.927 297.351C158.927 298.625 159.129 299.79 159.533 300.846C159.967 301.902 160.558 302.818 161.303 303.595C162.049 304.341 162.934 304.931 163.959 305.366C164.984 305.769 166.102 305.971 167.314 305.971ZM193.178 296.652L185.023 285.703H189.45L196.439 295.022H200.4V285.703H204.127V295.022H208.088L215.077 285.703H219.504L211.349 296.652L220.202 309H215.543L208.088 298.516H204.127V309H200.4V298.516H196.439L188.984 309H184.325L193.178 296.652ZM227.437 285.703H231.165V295.255H244.211V285.703H247.939V309H244.211V298.749H231.165V309H227.437V285.703ZM268.91 309.466C267.171 309.466 265.555 309.171 264.064 308.581C262.573 307.959 261.284 307.121 260.197 306.065C259.141 304.977 258.302 303.688 257.681 302.197C257.091 300.706 256.796 299.091 256.796 297.351C256.796 295.612 257.091 293.997 257.681 292.505C258.302 291.014 259.141 289.741 260.197 288.685C261.284 287.598 262.573 286.759 264.064 286.169C265.555 285.547 267.171 285.237 268.91 285.237C270.65 285.237 272.265 285.547 273.756 286.169C275.247 286.759 276.521 287.598 277.577 288.685C278.664 289.741 279.503 291.014 280.093 292.505C280.714 293.997 281.025 295.612 281.025 297.351C281.025 299.091 280.714 300.706 280.093 302.197C279.503 303.688 278.664 304.977 277.577 306.065C276.521 307.121 275.247 307.959 273.756 308.581C272.265 309.171 270.65 309.466 268.91 309.466ZM268.91 305.971C270.122 305.971 271.24 305.769 272.265 305.366C273.29 304.931 274.175 304.341 274.921 303.595C275.666 302.818 276.241 301.902 276.645 300.846C277.08 299.79 277.297 298.625 277.297 297.351C277.297 296.078 277.08 294.913 276.645 293.857C276.241 292.801 275.666 291.9 274.921 291.154C274.175 290.378 273.29 289.787 272.265 289.384C271.24 288.949 270.122 288.731 268.91 288.731C267.699 288.731 266.581 288.949 265.555 289.384C264.53 289.787 263.645 290.378 262.9 291.154C262.154 291.9 261.564 292.801 261.129 293.857C260.725 294.913 260.523 296.078 260.523 297.351C260.523 298.625 260.725 299.79 261.129 300.846C261.564 301.902 262.154 302.818 262.9 303.595C263.645 304.341 264.53 304.931 265.555 305.366C266.581 305.769 267.699 305.971 268.91 305.971ZM314.568 309.466C313.387 309.466 312.347 309.357 311.446 309.14C310.545 308.922 309.737 308.643 309.023 308.301C308.339 307.928 307.734 307.509 307.206 307.043C306.709 306.577 306.289 306.111 305.948 305.645C305.14 304.527 304.596 303.238 304.317 301.778H308.044C308.231 302.585 308.588 303.284 309.116 303.875C309.551 304.403 310.188 304.884 311.026 305.319C311.896 305.754 313.077 305.971 314.568 305.971C316.556 305.971 318.016 305.583 318.947 304.806C319.91 304.03 320.392 303.176 320.392 302.244C320.392 301.312 319.957 300.504 319.087 299.821C318.217 299.106 316.789 298.749 314.801 298.749H312.005V295.255H314.801C316.664 295.255 317.985 294.944 318.761 294.323C319.538 293.701 319.926 292.925 319.926 291.993C319.926 291.185 319.491 290.44 318.621 289.756C317.783 289.073 316.431 288.731 314.568 288.731C313.325 288.731 312.331 288.918 311.586 289.29C310.84 289.663 310.25 290.067 309.815 290.502C309.318 291.03 308.961 291.605 308.743 292.226H305.016C305.295 290.921 305.839 289.756 306.646 288.731C306.988 288.296 307.392 287.877 307.858 287.473C308.324 287.038 308.883 286.666 309.535 286.355C310.188 286.013 310.918 285.749 311.725 285.563C312.564 285.345 313.511 285.237 314.568 285.237C316.09 285.237 317.41 285.423 318.528 285.796C319.677 286.138 320.625 286.603 321.37 287.194C322.147 287.784 322.722 288.483 323.094 289.29C323.467 290.067 323.654 290.89 323.654 291.76C323.654 292.754 323.467 293.577 323.094 294.229C322.722 294.882 322.287 295.41 321.79 295.814C321.324 296.186 320.873 296.451 320.439 296.606C320.035 296.761 319.786 296.854 319.693 296.885V296.932C319.755 296.932 320.019 297.01 320.485 297.165C320.951 297.32 321.448 297.615 321.976 298.05C322.535 298.454 323.032 299.013 323.467 299.728C323.902 300.442 324.119 301.358 324.119 302.477C324.119 303.409 323.918 304.294 323.514 305.133C323.11 305.971 322.504 306.717 321.697 307.369C320.889 308.022 319.895 308.534 318.715 308.907C317.534 309.28 316.152 309.466 314.568 309.466ZM342.774 309.466C341.252 309.466 339.807 309.171 338.44 308.581C337.105 307.959 335.924 307.121 334.899 306.065C333.874 304.977 333.067 303.688 332.476 302.197C331.886 300.706 331.591 299.091 331.591 297.351C331.591 295.612 331.886 293.997 332.476 292.505C333.067 291.014 333.874 289.741 334.899 288.685C335.924 287.598 337.105 286.759 338.44 286.169C339.807 285.547 341.252 285.237 342.774 285.237C344.296 285.237 345.585 285.454 346.641 285.889C347.697 286.324 348.551 286.805 349.204 287.333C349.887 287.862 350.369 288.359 350.648 288.825C350.959 289.259 351.114 289.477 351.114 289.477H351.161V285.703H354.888V309H351.161V305.272H351.114C351.114 305.272 350.959 305.505 350.648 305.971C350.369 306.406 349.887 306.888 349.204 307.416C348.551 307.913 347.697 308.379 346.641 308.814C345.585 309.249 344.296 309.466 342.774 309.466ZM343.24 305.971C344.358 305.971 345.399 305.769 346.362 305.366C347.324 304.931 348.163 304.341 348.878 303.595C349.592 302.818 350.151 301.902 350.555 300.846C350.959 299.79 351.161 298.625 351.161 297.351C351.161 296.078 350.959 294.913 350.555 293.857C350.151 292.801 349.592 291.9 348.878 291.154C348.163 290.378 347.324 289.787 346.362 289.384C345.399 288.949 344.358 288.731 343.24 288.731C342.121 288.731 341.081 288.949 340.118 289.384C339.155 289.787 338.316 290.378 337.602 291.154C336.887 291.9 336.328 292.801 335.924 293.857C335.521 294.913 335.319 296.078 335.319 297.351C335.319 298.625 335.521 299.79 335.924 300.846C336.328 301.902 336.887 302.818 337.602 303.595C338.316 304.341 339.155 304.931 340.118 305.366C341.081 305.769 342.121 305.971 343.24 305.971ZM365.156 285.703H368.883V295.022H373.543L380.998 285.703H385.424L376.804 296.652L386.123 309H381.464L373.543 298.516H368.883V309H365.156V285.703ZM402.238 309.466C400.716 309.466 399.272 309.171 397.905 308.581C396.569 307.959 395.389 307.121 394.364 306.065C393.339 304.977 392.531 303.688 391.941 302.197C391.351 300.706 391.056 299.091 391.056 297.351C391.056 295.612 391.351 293.997 391.941 292.505C392.531 291.014 393.339 289.741 394.364 288.685C395.389 287.598 396.569 286.759 397.905 286.169C399.272 285.547 400.716 285.237 402.238 285.237C403.76 285.237 405.05 285.454 406.106 285.889C407.162 286.324 408.016 286.805 408.668 287.333C409.352 287.862 409.833 288.359 410.113 288.825C410.423 289.259 410.579 289.477 410.579 289.477H410.625V285.703H414.353V309H410.625V305.272H410.579C410.579 305.272 410.423 305.505 410.113 305.971C409.833 306.406 409.352 306.888 408.668 307.416C408.016 307.913 407.162 308.379 406.106 308.814C405.05 309.249 403.76 309.466 402.238 309.466ZM402.704 305.971C403.823 305.971 404.863 305.769 405.826 305.366C406.789 304.931 407.628 304.341 408.342 303.595C409.057 302.818 409.616 301.902 410.02 300.846C410.423 299.79 410.625 298.625 410.625 297.351C410.625 296.078 410.423 294.913 410.02 293.857C409.616 292.801 409.057 291.9 408.342 291.154C407.628 290.378 406.789 289.787 405.826 289.384C404.863 288.949 403.823 288.731 402.704 288.731C401.586 288.731 400.545 288.949 399.582 289.384C398.619 289.787 397.781 290.378 397.066 291.154C396.352 291.9 395.793 292.801 395.389 293.857C394.985 294.913 394.783 296.078 394.783 297.351C394.783 298.625 394.985 299.79 395.389 300.846C395.793 301.902 396.352 302.818 397.066 303.595C397.781 304.341 398.619 304.931 399.582 305.366C400.545 305.769 401.586 305.971 402.704 305.971ZM432.541 309.466C431.361 309.466 430.32 309.357 429.419 309.14C428.519 308.922 427.711 308.643 426.997 308.301C426.313 307.928 425.707 307.509 425.179 307.043C424.682 306.577 424.263 306.111 423.921 305.645C423.114 304.527 422.57 303.238 422.29 301.778H426.018C426.204 302.585 426.562 303.284 427.09 303.875C427.525 304.403 428.161 304.884 429 305.319C429.87 305.754 431.05 305.971 432.541 305.971C434.529 305.971 435.989 305.583 436.921 304.806C437.884 304.03 438.366 303.176 438.366 302.244C438.366 301.312 437.931 300.504 437.061 299.821C436.191 299.106 434.762 298.749 432.774 298.749H429.979V295.255H432.774C434.638 295.255 435.958 294.944 436.735 294.323C437.511 293.701 437.9 292.925 437.9 291.993C437.9 291.185 437.465 290.44 436.595 289.756C435.756 289.073 434.405 288.731 432.541 288.731C431.299 288.731 430.305 288.918 429.559 289.29C428.814 289.663 428.223 290.067 427.789 290.502C427.292 291.03 426.934 291.605 426.717 292.226H422.989C423.269 290.921 423.813 289.756 424.62 288.731C424.962 288.296 425.366 287.877 425.832 287.473C426.298 287.038 426.857 286.666 427.509 286.355C428.161 286.013 428.891 285.749 429.699 285.563C430.538 285.345 431.485 285.237 432.541 285.237C434.063 285.237 435.384 285.423 436.502 285.796C437.651 286.138 438.599 286.603 439.344 287.194C440.121 287.784 440.695 288.483 441.068 289.29C441.441 290.067 441.627 290.89 441.627 291.76C441.627 292.754 441.441 293.577 441.068 294.229C440.695 294.882 440.26 295.41 439.763 295.814C439.297 296.186 438.847 296.451 438.412 296.606C438.008 296.761 437.76 296.854 437.667 296.885V296.932C437.729 296.932 437.993 297.01 438.459 297.165C438.925 297.32 439.422 297.615 439.95 298.05C440.509 298.454 441.006 299.013 441.441 299.728C441.876 300.442 442.093 301.358 442.093 302.477C442.093 303.409 441.891 304.294 441.487 305.133C441.084 305.971 440.478 306.717 439.67 307.369C438.863 308.022 437.869 308.534 436.688 308.907C435.508 309.28 434.125 309.466 432.541 309.466ZM460.747 309.466C459.225 309.466 457.781 309.171 456.414 308.581C455.078 307.959 453.898 307.121 452.873 306.065C451.848 304.977 451.04 303.688 450.45 302.197C449.86 300.706 449.565 299.091 449.565 297.351C449.565 295.612 449.86 293.997 450.45 292.505C451.04 291.014 451.848 289.741 452.873 288.685C453.898 287.598 455.078 286.759 456.414 286.169C457.781 285.547 459.225 285.237 460.747 285.237C462.27 285.237 463.559 285.454 464.615 285.889C465.671 286.324 466.525 286.805 467.178 287.333C467.861 287.862 468.342 288.359 468.622 288.825C468.933 289.259 469.088 289.477 469.088 289.477H469.134V285.703H472.862V309H469.134V305.272H469.088C469.088 305.272 468.933 305.505 468.622 305.971C468.342 306.406 467.861 306.888 467.178 307.416C466.525 307.913 465.671 308.379 464.615 308.814C463.559 309.249 462.27 309.466 460.747 309.466ZM461.213 305.971C462.332 305.971 463.372 305.769 464.335 305.366C465.298 304.931 466.137 304.341 466.851 303.595C467.566 302.818 468.125 301.902 468.529 300.846C468.933 299.79 469.134 298.625 469.134 297.351C469.134 296.078 468.933 294.913 468.529 293.857C468.125 292.801 467.566 291.9 466.851 291.154C466.137 290.378 465.298 289.787 464.335 289.384C463.372 288.949 462.332 288.731 461.213 288.731C460.095 288.731 459.054 288.949 458.092 289.384C457.129 289.787 456.29 290.378 455.575 291.154C454.861 291.9 454.302 292.801 453.898 293.857C453.494 294.913 453.292 296.078 453.292 297.351C453.292 298.625 453.494 299.79 453.898 300.846C454.302 301.902 454.861 302.818 455.575 303.595C456.29 304.341 457.129 304.931 458.092 305.366C459.054 305.769 460.095 305.971 461.213 305.971ZM488.255 289.197H480.101V285.703H500.136V289.197H491.982V309H488.255V289.197ZM507.379 285.703H511.106V293.624H517.629C518.965 293.624 520.177 293.826 521.264 294.229C522.351 294.633 523.283 295.192 524.059 295.907C524.836 296.59 525.426 297.398 525.83 298.33C526.265 299.262 526.482 300.256 526.482 301.312C526.482 302.368 526.265 303.362 525.83 304.294C525.426 305.226 524.836 306.049 524.059 306.763C523.283 307.447 522.351 307.99 521.264 308.394C520.177 308.798 518.965 309 517.629 309H507.379V285.703ZM517.629 305.505C519.276 305.505 520.534 305.102 521.404 304.294C522.304 303.486 522.755 302.492 522.755 301.312C522.755 300.131 522.304 299.137 521.404 298.33C520.534 297.522 519.276 297.118 517.629 297.118H511.106V305.505H517.629ZM551.418 285.703H555.145V295.255H568.192V285.703H571.919V309H568.192V298.749H555.145V309H551.418V285.703ZM591.959 309.466C590.437 309.466 588.992 309.171 587.625 308.581C586.29 307.959 585.109 307.121 584.084 306.065C583.059 304.977 582.252 303.688 581.661 302.197C581.071 300.706 580.776 299.091 580.776 297.351C580.776 295.612 581.071 293.997 581.661 292.505C582.252 291.014 583.059 289.741 584.084 288.685C585.109 287.598 586.29 286.759 587.625 286.169C588.992 285.547 590.437 285.237 591.959 285.237C593.481 285.237 594.77 285.454 595.826 285.889C596.882 286.324 597.736 286.805 598.389 287.333C599.072 287.862 599.554 288.359 599.833 288.825C600.144 289.259 600.299 289.477 600.299 289.477H600.346V285.703H604.073V309H600.346V305.272H600.299C600.299 305.272 600.144 305.505 599.833 305.971C599.554 306.406 599.072 306.888 598.389 307.416C597.736 307.913 596.882 308.379 595.826 308.814C594.77 309.249 593.481 309.466 591.959 309.466ZM592.425 305.971C593.543 305.971 594.584 305.769 595.547 305.366C596.509 304.931 597.348 304.341 598.063 303.595C598.777 302.818 599.336 301.902 599.74 300.846C600.144 299.79 600.346 298.625 600.346 297.351C600.346 296.078 600.144 294.913 599.74 293.857C599.336 292.801 598.777 291.9 598.063 291.154C597.348 290.378 596.509 289.787 595.547 289.384C594.584 288.949 593.543 288.731 592.425 288.731C591.306 288.731 590.266 288.949 589.303 289.384C588.34 289.787 587.501 290.378 586.787 291.154C586.072 291.9 585.513 292.801 585.109 293.857C584.706 294.913 584.504 296.078 584.504 297.351C584.504 298.625 584.706 299.79 585.109 300.846C585.513 301.902 586.072 302.818 586.787 303.595C587.501 304.341 588.34 304.931 589.303 305.366C590.266 305.769 591.306 305.971 592.425 305.971ZM614.341 285.703H634.609V309H630.882V289.197H618.068V309H614.341V285.703ZM644.869 285.703H648.597V303.176L648.55 303.642H648.643L661.177 285.703H665.371V309H661.643V291.527L661.69 291.061H661.597L649.063 309H644.869V285.703ZM680.751 289.197H672.597V285.703H692.632V289.197H684.478V309H680.751V289.197ZM699.875 285.703H703.602V295.022H708.262L715.717 285.703H720.143L711.523 296.652L720.842 309H716.183L708.262 298.516H703.602V309H699.875V285.703ZM728.083 285.703H731.81V303.176L731.764 303.642H731.857L744.391 285.703H748.584V309H744.857V291.527L744.903 291.061H744.81L732.276 309H728.083V285.703ZM757.907 312.961C759.771 312.743 760.702 311.734 760.702 309.932V309.233C760.64 309.295 760.547 309.342 760.423 309.373C760.174 309.435 759.957 309.466 759.771 309.466C759.18 309.466 758.683 309.249 758.28 308.814C757.876 308.379 757.674 307.789 757.674 307.043C757.674 306.142 757.938 305.428 758.466 304.9C758.994 304.372 759.662 304.108 760.469 304.108C761.277 304.108 761.945 304.434 762.473 305.086C763.001 305.707 763.265 306.779 763.265 308.301C763.265 310.413 762.784 311.998 761.821 313.054C760.858 314.11 759.553 314.7 757.907 314.824V312.961ZM789.136 285.703H792.864V295.022H797.523L804.978 285.703H809.405L800.785 296.652L810.104 309H805.444L797.523 298.516H792.864V309H789.136V285.703ZM817.344 285.703H821.072V289.43H821.118C821.118 289.43 821.258 289.213 821.538 288.778C821.848 288.312 822.33 287.83 822.982 287.333C823.665 286.805 824.535 286.324 825.591 285.889C826.647 285.454 827.937 285.237 829.459 285.237C830.981 285.237 832.41 285.547 833.745 286.169C835.112 286.759 836.308 287.598 837.333 288.685C838.358 289.741 839.166 291.014 839.756 292.505C840.346 293.997 840.641 295.612 840.641 297.351C840.641 299.091 840.346 300.706 839.756 302.197C839.166 303.688 838.358 304.977 837.333 306.065C836.308 307.121 835.112 307.959 833.745 308.581C832.41 309.171 830.981 309.466 829.459 309.466C827.937 309.466 826.647 309.249 825.591 308.814C824.535 308.379 823.665 307.913 822.982 307.416C822.33 306.888 821.848 306.406 821.538 305.971C821.258 305.505 821.118 305.272 821.118 305.272H821.072V317.853H817.344V285.703ZM828.993 305.971C830.111 305.971 831.152 305.769 832.115 305.366C833.078 304.931 833.916 304.341 834.631 303.595C835.345 302.818 835.904 301.902 836.308 300.846C836.712 299.79 836.914 298.625 836.914 297.351C836.914 296.078 836.712 294.913 836.308 293.857C835.904 292.801 835.345 291.9 834.631 291.154C833.916 290.378 833.078 289.787 832.115 289.384C831.152 288.949 830.111 288.731 828.993 288.731C827.874 288.731 826.834 288.949 825.871 289.384C824.908 289.787 824.069 290.378 823.355 291.154C822.64 291.9 822.081 292.801 821.677 293.857C821.274 294.913 821.072 296.078 821.072 297.351C821.072 298.625 821.274 299.79 821.677 300.846C822.081 301.902 822.64 302.818 823.355 303.595C824.069 304.341 824.908 304.931 825.871 305.366C826.834 305.769 827.874 305.971 828.993 305.971ZM858.147 309H852.789L846.498 285.703H850.459L855.584 305.505H859.079L865.136 285.703H869.097L859.312 317.853H855.351L858.147 309ZM881.206 289.197H873.052V285.703H893.088V289.197H884.934V309H881.206V289.197ZM911.047 309.466C909.307 309.466 907.692 309.171 906.201 308.581C904.71 307.959 903.421 307.121 902.333 306.065C901.277 304.977 900.439 303.688 899.817 302.197C899.227 300.706 898.932 299.091 898.932 297.351C898.932 295.612 899.227 293.997 899.817 292.505C900.439 291.014 901.277 289.741 902.333 288.685C903.421 287.598 904.71 286.759 906.201 286.169C907.692 285.547 909.307 285.237 911.047 285.237C912.786 285.237 914.402 285.547 915.893 286.169C917.384 286.759 918.657 287.598 919.713 288.685C920.801 289.741 921.639 291.014 922.229 292.505C922.851 293.997 923.161 295.612 923.161 297.351C923.161 299.091 922.851 300.706 922.229 302.197C921.639 303.688 920.801 304.977 919.713 306.065C918.657 307.121 917.384 307.959 915.893 308.581C914.402 309.171 912.786 309.466 911.047 309.466ZM911.047 305.971C912.258 305.971 913.376 305.769 914.402 305.366C915.427 304.931 916.312 304.341 917.057 303.595C917.803 302.818 918.378 301.902 918.781 300.846C919.216 299.79 919.434 298.625 919.434 297.351C919.434 296.078 919.216 294.913 918.781 293.857C918.378 292.801 917.803 291.9 917.057 291.154C916.312 290.378 915.427 289.787 914.402 289.384C913.376 288.949 912.258 288.731 911.047 288.731C909.835 288.731 908.717 288.949 907.692 289.384C906.667 289.787 905.782 290.378 905.036 291.154C904.29 291.9 903.7 292.801 903.265 293.857C902.862 294.913 902.66 296.078 902.66 297.351C902.66 298.625 902.862 299.79 903.265 300.846C903.7 301.902 904.29 302.818 905.036 303.595C905.782 304.341 906.667 304.931 907.692 305.366C908.717 305.769 909.835 305.971 911.047 305.971ZM282.747 425.932C281.256 425.932 279.92 425.777 278.74 425.466C277.559 425.186 276.503 424.814 275.571 424.348C274.67 423.851 273.878 423.307 273.195 422.717C272.511 422.096 271.921 421.459 271.424 420.806C270.275 419.315 269.467 417.607 269.001 415.681H273.195C273.599 416.861 274.204 417.918 275.012 418.85C275.726 419.657 276.689 420.387 277.901 421.039C279.143 421.661 280.759 421.971 282.747 421.971C285.542 421.971 287.593 421.412 288.897 420.294C290.233 419.176 290.901 417.793 290.901 416.147C290.901 415.339 290.73 414.578 290.388 413.864C290.078 413.149 289.581 412.528 288.897 412C288.245 411.472 287.406 411.068 286.381 410.789C285.356 410.478 284.145 410.323 282.747 410.323H278.553V406.362H282.747C283.896 406.362 284.921 406.222 285.822 405.943C286.723 405.632 287.468 405.228 288.058 404.731C288.68 404.203 289.146 403.598 289.456 402.914C289.798 402.231 289.969 401.516 289.969 400.771C289.969 400.087 289.814 399.42 289.503 398.767C289.192 398.115 288.726 397.54 288.105 397.043C287.484 396.546 286.723 396.158 285.822 395.878C284.921 395.568 283.896 395.412 282.747 395.412C280.976 395.412 279.532 395.707 278.413 396.298C277.295 396.857 276.425 397.494 275.804 398.208C275.028 399.016 274.468 399.948 274.127 401.004H269.933C270.43 399.233 271.222 397.649 272.309 396.251C272.775 395.661 273.319 395.086 273.94 394.527C274.593 393.937 275.338 393.424 276.177 392.989C277.047 392.524 278.025 392.151 279.112 391.871C280.2 391.592 281.411 391.452 282.747 391.452C284.548 391.452 286.148 391.7 287.546 392.197C288.975 392.694 290.171 393.362 291.134 394.201C292.128 395.04 292.873 396.034 293.37 397.183C293.898 398.301 294.162 399.497 294.162 400.771C294.162 402.169 293.883 403.333 293.324 404.265C292.796 405.197 292.221 405.943 291.6 406.502C290.823 407.154 289.969 407.651 289.037 407.993V408.226C290.155 408.568 291.165 409.08 292.066 409.764C292.811 410.354 293.495 411.161 294.116 412.186C294.768 413.18 295.094 414.501 295.094 416.147C295.094 417.483 294.815 418.756 294.256 419.968C293.728 421.148 292.935 422.189 291.879 423.09C290.823 423.959 289.534 424.643 288.012 425.14C286.49 425.668 284.735 425.932 282.747 425.932ZM315.119 425.466C313.38 425.466 311.764 425.171 310.273 424.581C308.782 423.959 307.493 423.121 306.406 422.065C305.35 420.977 304.511 419.688 303.89 418.197C303.3 416.706 303.004 415.091 303.004 413.351C303.004 411.612 303.3 409.997 303.89 408.505C304.511 407.014 305.35 405.741 306.406 404.685C307.493 403.598 308.782 402.759 310.273 402.169C311.764 401.547 313.38 401.237 315.119 401.237C316.859 401.237 318.474 401.547 319.965 402.169C321.456 402.759 322.73 403.598 323.786 404.685C324.873 405.741 325.712 407.014 326.302 408.505C326.923 409.997 327.234 411.612 327.234 413.351C327.234 415.091 326.923 416.706 326.302 418.197C325.712 419.688 324.873 420.977 323.786 422.065C322.73 423.121 321.456 423.959 319.965 424.581C318.474 425.171 316.859 425.466 315.119 425.466ZM315.119 421.971C316.331 421.971 317.449 421.769 318.474 421.366C319.499 420.931 320.384 420.341 321.13 419.595C321.875 418.818 322.45 417.902 322.854 416.846C323.289 415.79 323.506 414.625 323.506 413.351C323.506 412.078 323.289 410.913 322.854 409.857C322.45 408.801 321.875 407.9 321.13 407.154C320.384 406.378 319.499 405.787 318.474 405.384C317.449 404.949 316.331 404.731 315.119 404.731C313.908 404.731 312.789 404.949 311.764 405.384C310.739 405.787 309.854 406.378 309.108 407.154C308.363 407.9 307.773 408.801 307.338 409.857C306.934 410.913 306.732 412.078 306.732 413.351C306.732 414.625 306.934 415.79 307.338 416.846C307.773 417.902 308.363 418.818 309.108 419.595C309.854 420.341 310.739 420.931 311.764 421.366C312.789 421.769 313.908 421.971 315.119 421.971ZM339.796 416.613C338.926 416.24 338.15 415.743 337.466 415.122C336.876 414.594 336.332 413.895 335.835 413.025C335.37 412.124 335.137 410.991 335.137 409.624C335.137 408.505 335.338 407.465 335.742 406.502C336.177 405.539 336.783 404.7 337.559 403.986C338.367 403.271 339.315 402.712 340.402 402.308C341.52 401.905 342.778 401.703 344.176 401.703H354.706V425H350.979V417.545H343.524L339.423 425H335.137L339.796 416.613ZM350.979 414.05V405.197H344.223C342.452 405.197 341.116 405.617 340.215 406.455C339.315 407.263 338.864 408.319 338.864 409.624C338.864 410.928 339.315 412 340.215 412.839C341.116 413.646 342.452 414.05 344.223 414.05H350.979ZM381.746 401.703H385.473V419.176L385.427 419.642H385.52L398.054 401.703H402.247V425H398.52V407.527L398.566 407.061H398.473L385.939 425H381.746V401.703ZM433.935 392.384H446.749L455.136 425H450.943L448.38 415.448H432.305L429.742 425H425.548L433.935 392.384ZM447.448 411.488L443.487 396.344H437.197L433.237 411.488H447.448ZM466.776 401.703H476.56L483.084 425H479.123L473.765 405.197H469.571L464.213 425H460.252L466.776 401.703ZM501.012 425.466C499.334 425.466 497.766 425.171 496.306 424.581C494.846 423.959 493.588 423.121 492.532 422.065C491.475 420.977 490.637 419.688 490.015 418.197C489.425 416.706 489.13 415.091 489.13 413.351C489.13 411.612 489.425 409.997 490.015 408.505C490.637 407.014 491.475 405.741 492.532 404.685C493.588 403.598 494.846 402.759 496.306 402.169C497.766 401.547 499.334 401.237 501.012 401.237C502.689 401.237 504.258 401.547 505.718 402.169C507.178 402.759 508.436 403.582 509.492 404.638C510.548 405.694 511.371 406.952 511.962 408.412C512.583 409.872 512.893 411.441 512.893 413.118V414.516H492.858C492.982 415.603 493.277 416.613 493.743 417.545C494.209 418.446 494.799 419.222 495.514 419.875C496.228 420.527 497.051 421.039 497.983 421.412C498.946 421.785 499.956 421.971 501.012 421.971C502.41 421.971 503.59 421.754 504.553 421.319C505.516 420.884 506.308 420.403 506.929 419.875C507.644 419.284 508.234 418.585 508.7 417.778H512.427C511.868 419.238 511.076 420.527 510.051 421.645C509.15 422.608 507.97 423.493 506.51 424.301C505.05 425.078 503.217 425.466 501.012 425.466ZM508.933 411.255C508.809 410.385 508.529 409.562 508.094 408.785C507.69 407.977 507.147 407.278 506.463 406.688C505.78 406.098 504.972 405.632 504.04 405.29C503.14 404.918 502.13 404.731 501.012 404.731C499.894 404.731 498.868 404.918 497.937 405.29C497.036 405.632 496.228 406.098 495.514 406.688C494.83 407.278 494.271 407.977 493.836 408.785C493.401 409.562 493.106 410.385 492.951 411.255H508.933ZM521.739 401.703H525.467V411.022H530.126L537.581 401.703H542.008L533.388 412.652L542.707 425H538.047L530.126 414.516H525.467V425H521.739V401.703ZM559.288 425.466C557.642 425.466 556.104 425.171 554.675 424.581C553.277 423.959 552.05 423.121 550.994 422.065C549.969 420.977 549.146 419.688 548.525 418.197C547.934 416.706 547.639 415.091 547.639 413.351C547.639 411.612 547.934 409.997 548.525 408.505C549.146 407.014 549.969 405.741 550.994 404.685C552.05 403.598 553.277 402.759 554.675 402.169C556.104 401.547 557.642 401.237 559.288 401.237C560.437 401.237 561.478 401.361 562.41 401.609C563.373 401.827 564.227 402.138 564.972 402.541C565.718 402.914 566.37 403.349 566.929 403.846C567.489 404.343 567.97 404.84 568.374 405.337C569.337 406.549 570.036 407.9 570.471 409.391H566.743C566.37 408.521 565.858 407.744 565.205 407.061C564.646 406.471 563.885 405.943 562.922 405.477C561.959 404.98 560.748 404.731 559.288 404.731C558.17 404.731 557.129 404.949 556.166 405.384C555.203 405.787 554.364 406.378 553.65 407.154C552.935 407.9 552.376 408.801 551.973 409.857C551.569 410.913 551.367 412.078 551.367 413.351C551.367 414.656 551.584 415.836 552.019 416.893C552.454 417.949 553.029 418.85 553.743 419.595C554.458 420.341 555.296 420.931 556.259 421.366C557.222 421.769 558.232 421.971 559.288 421.971C560.81 421.971 562.052 421.707 563.015 421.179C564.009 420.651 564.802 420.061 565.392 419.409C566.075 418.663 566.603 417.809 566.976 416.846H570.704C570.269 418.492 569.554 419.937 568.56 421.179C568.125 421.707 567.628 422.235 567.069 422.763C566.51 423.26 565.842 423.711 565.066 424.115C564.32 424.519 563.466 424.845 562.503 425.093C561.54 425.342 560.468 425.466 559.288 425.466ZM589.594 425.466C587.917 425.466 586.348 425.171 584.888 424.581C583.428 423.959 582.17 423.121 581.114 422.065C580.058 420.977 579.219 419.688 578.598 418.197C578.008 416.706 577.713 415.091 577.713 413.351C577.713 411.612 578.008 409.997 578.598 408.505C579.219 407.014 580.058 405.741 581.114 404.685C582.17 403.598 583.428 402.759 584.888 402.169C586.348 401.547 587.917 401.237 589.594 401.237C591.272 401.237 592.841 401.547 594.3 402.169C595.76 402.759 597.019 403.582 598.075 404.638C599.131 405.694 599.954 406.952 600.544 408.412C601.165 409.872 601.476 411.441 601.476 413.118V414.516H581.44C581.565 415.603 581.86 416.613 582.326 417.545C582.792 418.446 583.382 419.222 584.096 419.875C584.811 420.527 585.634 421.039 586.566 421.412C587.529 421.785 588.538 421.971 589.594 421.971C590.992 421.971 592.173 421.754 593.136 421.319C594.099 420.884 594.891 420.403 595.512 419.875C596.226 419.284 596.817 418.585 597.283 417.778H601.01C600.451 419.238 599.659 420.527 598.634 421.645C597.733 422.608 596.553 423.493 595.093 424.301C593.633 425.078 591.8 425.466 589.594 425.466ZM597.516 411.255C597.391 410.385 597.112 409.562 596.677 408.785C596.273 407.977 595.729 407.278 595.046 406.688C594.363 406.098 593.555 405.632 592.623 405.29C591.722 404.918 590.713 404.731 589.594 404.731C588.476 404.731 587.451 404.918 586.519 405.29C585.618 405.632 584.811 406.098 584.096 406.688C583.413 407.278 582.854 407.977 582.419 408.785C581.984 409.562 581.689 410.385 581.534 411.255H597.516ZM610.322 401.703H614.049V419.176L614.003 419.642H614.096L626.63 401.703H630.823V425H627.096V407.527L627.142 407.061H627.049L614.515 425H610.322V401.703ZM620.573 396.111C618.336 396.111 616.612 395.552 615.401 394.434C614.189 393.316 613.583 391.933 613.583 390.287H617.078C617.078 391.095 617.358 391.762 617.917 392.291C618.507 392.819 619.392 393.083 620.573 393.083C621.753 393.083 622.623 392.819 623.182 392.291C623.772 391.762 624.067 391.095 624.067 390.287H627.562C627.562 391.933 626.956 393.316 625.745 394.434C624.533 395.552 622.809 396.111 620.573 396.111Z" fill="white"/>
<defs>
<filter id="filter0_b_2284_3" x="-30" y="-30" width="1062.9" height="550" filterUnits="userSpaceOnUse" color-interpolation-filters="sRGB">
<feFlood flood-opacity="0" result="BackgroundImageFix"/>
<feGaussianBlur in="BackgroundImageFix" stdDeviation="15"/>
<feComposite in2="SourceAlpha" operator="in" result="effect1_backgroundBlur_2284_3"/>
<feBlend mode="normal" in="SourceGraphic" in2="effect1_backgroundBlur_2284_3" result="shape"/>
</filter>
</defs>
</svg>
