<svg width="1167" height="491" viewBox="0 0 1167 491" fill="none" xmlns="http://www.w3.org/2000/svg">
<g filter="url(#filter0_b_268_139)">
<path d="M0.341797 245.5C0.341797 110.19 110.032 0.5 245.342 0.5H713.342C848.652 0.5 958.342 110.19 958.342 245.5C958.342 380.81 848.652 490.5 713.342 490.5H245.342C110.032 490.5 0.341797 380.81 0.341797 245.5Z" fill="#8000FF" fill-opacity="0.5"/>
</g>
<path d="M100.99 107.844H89.8077V103.884H116.367V107.844H105.184V136.5H100.99V107.844ZM133.134 136.5H127.775L121.485 113.203H125.445L130.571 133.005H134.065L140.123 113.203H144.083L134.298 145.353H130.338L133.134 136.5ZM161.318 136.966C159.671 136.966 158.134 136.671 156.705 136.081C155.307 135.459 154.08 134.621 153.024 133.565C151.999 132.477 151.176 131.188 150.554 129.697C149.964 128.206 149.669 126.591 149.669 124.851C149.669 123.112 149.964 121.497 150.554 120.005C151.176 118.514 151.999 117.241 153.024 116.185C154.08 115.098 155.307 114.259 156.705 113.669C158.134 113.047 159.671 112.737 161.318 112.737C162.467 112.737 163.508 112.861 164.44 113.109C165.403 113.327 166.257 113.638 167.002 114.041C167.748 114.414 168.4 114.849 168.959 115.346C169.518 115.843 170 116.34 170.404 116.837C171.367 118.049 172.066 119.4 172.501 120.891H168.773C168.4 120.021 167.888 119.244 167.235 118.561C166.676 117.971 165.915 117.443 164.952 116.977C163.989 116.48 162.778 116.231 161.318 116.231C160.2 116.231 159.159 116.449 158.196 116.884C157.233 117.287 156.394 117.878 155.68 118.654C154.965 119.4 154.406 120.301 154.002 121.357C153.599 122.413 153.397 123.578 153.397 124.851C153.397 126.156 153.614 127.336 154.049 128.393C154.484 129.449 155.059 130.35 155.773 131.095C156.488 131.841 157.326 132.431 158.289 132.866C159.252 133.269 160.262 133.471 161.318 133.471C162.84 133.471 164.082 133.207 165.045 132.679C166.039 132.151 166.832 131.561 167.422 130.909C168.105 130.163 168.633 129.309 169.006 128.346H172.734C172.299 129.992 171.584 131.437 170.59 132.679C170.155 133.207 169.658 133.735 169.099 134.263C168.54 134.76 167.872 135.211 167.096 135.615C166.35 136.019 165.496 136.345 164.533 136.593C163.57 136.842 162.498 136.966 161.318 136.966ZM181.141 113.203H184.868V130.676L184.822 131.142H184.915L197.449 113.203H201.642V136.5H197.915V119.027L197.961 118.561H197.868L185.334 136.5H181.141V113.203ZM215.624 113.203H225.409L231.932 136.5H227.972L222.613 116.697H218.42L213.062 136.5H209.101L215.624 113.203ZM239.377 113.203H243.104V130.676L243.058 131.142H243.151L255.685 113.203H259.878V136.5H256.151V119.027L256.197 118.561H256.104L243.57 136.5H239.377V113.203ZM290.634 116.697H282.48V113.203H302.516V116.697H294.362V136.5H290.634V116.697ZM319.077 136.5H313.719L307.429 113.203H311.389L316.514 133.005H320.009L326.066 113.203H330.027L320.242 145.353H316.281L319.077 136.5ZM342.136 116.697H333.982V113.203H354.018V116.697H345.864V136.5H342.136V116.697ZM386.887 136.966C385.241 136.966 383.703 136.671 382.274 136.081C380.876 135.459 379.649 134.621 378.593 133.565C377.568 132.477 376.745 131.188 376.124 129.697C375.533 128.206 375.238 126.591 375.238 124.851C375.238 123.112 375.533 121.497 376.124 120.005C376.745 118.514 377.568 117.241 378.593 116.185C379.649 115.098 380.876 114.259 382.274 113.669C383.703 113.047 385.241 112.737 386.887 112.737C388.036 112.737 389.077 112.861 390.009 113.109C390.972 113.327 391.826 113.638 392.572 114.041C393.317 114.414 393.969 114.849 394.529 115.346C395.088 115.843 395.569 116.34 395.973 116.837C396.936 118.049 397.635 119.4 398.07 120.891H394.342C393.969 120.021 393.457 119.244 392.805 118.561C392.245 117.971 391.484 117.443 390.521 116.977C389.558 116.48 388.347 116.231 386.887 116.231C385.769 116.231 384.728 116.449 383.765 116.884C382.802 117.287 381.963 117.878 381.249 118.654C380.535 119.4 379.975 120.301 379.572 121.357C379.168 122.413 378.966 123.578 378.966 124.851C378.966 126.156 379.183 127.336 379.618 128.393C380.053 129.449 380.628 130.35 381.342 131.095C382.057 131.841 382.895 132.431 383.858 132.866C384.821 133.269 385.831 133.471 386.887 133.471C388.409 133.471 389.652 133.207 390.615 132.679C391.609 132.151 392.401 131.561 392.991 130.909C393.674 130.163 394.202 129.309 394.575 128.346H398.303C397.868 129.992 397.153 131.437 396.159 132.679C395.724 133.207 395.227 133.735 394.668 134.263C394.109 134.76 393.441 135.211 392.665 135.615C391.919 136.019 391.065 136.345 390.102 136.593C389.139 136.842 388.067 136.966 386.887 136.966ZM420.468 133.005H423.031L428.389 113.203H438.174L443.532 133.005H446.095V141.858H442.367V136.5H424.195V141.858H420.468V133.005ZM439.805 133.005L435.378 116.697H431.185L426.758 133.005H439.805ZM453.297 113.203H457.025V116.93H457.071C457.071 116.93 457.211 116.713 457.491 116.278C457.801 115.812 458.283 115.33 458.935 114.833C459.618 114.305 460.488 113.824 461.544 113.389C462.601 112.954 463.89 112.737 465.412 112.737C466.934 112.737 468.363 113.047 469.698 113.669C471.065 114.259 472.261 115.098 473.286 116.185C474.311 117.241 475.119 118.514 475.709 120.005C476.299 121.497 476.594 123.112 476.594 124.851C476.594 126.591 476.299 128.206 475.709 129.697C475.119 131.188 474.311 132.477 473.286 133.565C472.261 134.621 471.065 135.459 469.698 136.081C468.363 136.671 466.934 136.966 465.412 136.966C463.89 136.966 462.601 136.749 461.544 136.314C460.488 135.879 459.618 135.413 458.935 134.916C458.283 134.388 457.801 133.906 457.491 133.471C457.211 133.005 457.071 132.772 457.071 132.772H457.025V145.353H453.297V113.203ZM464.946 133.471C466.064 133.471 467.105 133.269 468.068 132.866C469.031 132.431 469.869 131.841 470.584 131.095C471.298 130.318 471.857 129.402 472.261 128.346C472.665 127.29 472.867 126.125 472.867 124.851C472.867 123.578 472.665 122.413 472.261 121.357C471.857 120.301 471.298 119.4 470.584 118.654C469.869 117.878 469.031 117.287 468.068 116.884C467.105 116.449 466.064 116.231 464.946 116.231C463.828 116.231 462.787 116.449 461.824 116.884C460.861 117.287 460.022 117.878 459.308 118.654C458.593 119.4 458.034 120.301 457.63 121.357C457.227 122.413 457.025 123.578 457.025 124.851C457.025 126.125 457.227 127.29 457.63 128.346C458.034 129.402 458.593 130.318 459.308 131.095C460.022 131.841 460.861 132.431 461.824 132.866C462.787 133.269 463.828 133.471 464.946 133.471ZM494.1 136.5H488.742L482.452 113.203H486.412L491.538 133.005H495.032L501.089 113.203H505.05L495.265 145.353H491.305L494.1 136.5ZM519.955 136.966C518.774 136.966 517.734 136.857 516.833 136.64C515.932 136.422 515.125 136.143 514.41 135.801C513.727 135.428 513.121 135.009 512.593 134.543C512.096 134.077 511.676 133.611 511.335 133.145C510.527 132.027 509.984 130.738 509.704 129.278H513.432C513.618 130.085 513.975 130.784 514.503 131.375C514.938 131.903 515.575 132.384 516.414 132.819C517.283 133.254 518.464 133.471 519.955 133.471C521.943 133.471 523.403 133.083 524.335 132.306C525.298 131.53 525.779 130.676 525.779 129.744C525.779 128.812 525.344 128.004 524.474 127.321C523.605 126.606 522.176 126.249 520.188 126.249H517.392V122.755H520.188C522.052 122.755 523.372 122.444 524.148 121.823C524.925 121.201 525.313 120.425 525.313 119.493C525.313 118.685 524.878 117.94 524.009 117.256C523.17 116.573 521.819 116.231 519.955 116.231C518.712 116.231 517.718 116.418 516.973 116.79C516.227 117.163 515.637 117.567 515.202 118.002C514.705 118.53 514.348 119.105 514.13 119.726H510.403C510.682 118.421 511.226 117.256 512.034 116.231C512.375 115.796 512.779 115.377 513.245 114.973C513.711 114.538 514.27 114.166 514.923 113.855C515.575 113.513 516.305 113.249 517.113 113.063C517.951 112.845 518.899 112.737 519.955 112.737C521.477 112.737 522.797 112.923 523.915 113.296C525.065 113.638 526.012 114.103 526.758 114.694C527.534 115.284 528.109 115.983 528.482 116.79C528.854 117.567 529.041 118.39 529.041 119.26C529.041 120.254 528.854 121.077 528.482 121.729C528.109 122.382 527.674 122.91 527.177 123.314C526.711 123.686 526.261 123.951 525.826 124.106C525.422 124.261 525.173 124.354 525.08 124.385V124.432C525.142 124.432 525.406 124.51 525.872 124.665C526.338 124.82 526.835 125.115 527.363 125.55C527.923 125.954 528.42 126.513 528.854 127.228C529.289 127.942 529.507 128.858 529.507 129.977C529.507 130.909 529.305 131.794 528.901 132.633C528.497 133.471 527.891 134.217 527.084 134.869C526.276 135.522 525.282 136.034 524.102 136.407C522.921 136.78 521.539 136.966 519.955 136.966ZM538.376 113.203H542.104V121.124H548.627C549.963 121.124 551.174 121.326 552.261 121.729C553.349 122.133 554.28 122.692 555.057 123.407C555.834 124.09 556.424 124.898 556.828 125.83C557.262 126.762 557.48 127.756 557.48 128.812C557.48 129.868 557.262 130.862 556.828 131.794C556.424 132.726 555.834 133.549 555.057 134.263C554.28 134.947 553.349 135.49 552.261 135.894C551.174 136.298 549.963 136.5 548.627 136.5H538.376V113.203ZM548.627 133.005C550.273 133.005 551.531 132.602 552.401 131.794C553.302 130.986 553.752 129.992 553.752 128.812C553.752 127.631 553.302 126.637 552.401 125.83C551.531 125.022 550.273 124.618 548.627 124.618H542.104V133.005H548.627ZM569.356 128.113C568.486 127.74 567.71 127.243 567.026 126.622C566.436 126.094 565.893 125.395 565.396 124.525C564.93 123.624 564.697 122.491 564.697 121.124C564.697 120.005 564.899 118.965 565.302 118.002C565.737 117.039 566.343 116.2 567.12 115.486C567.927 114.771 568.875 114.212 569.962 113.808C571.08 113.405 572.338 113.203 573.736 113.203H584.266V136.5H580.539V129.045H573.084L568.983 136.5H564.697L569.356 128.113ZM580.539 125.55V116.697H573.783C572.012 116.697 570.676 117.117 569.775 117.955C568.875 118.763 568.424 119.819 568.424 121.124C568.424 122.428 568.875 123.5 569.775 124.339C570.676 125.146 572.012 125.55 573.783 125.55H580.539ZM594.519 113.203H600.11L607.1 127.647H608.264L615.254 113.203H620.845V136.5H617.117V117.862L617.164 117.396H617.071L610.128 131.841H605.236L598.293 117.396H598.2L598.247 117.862V136.5H594.519V113.203ZM631.099 113.203H634.827V130.676L634.78 131.142H634.874L647.408 113.203H651.601V136.5H647.874V119.027L647.92 118.561H647.827L635.293 136.5H631.099V113.203ZM675.614 133.005H678.176L683.535 113.203H693.32L698.678 133.005H701.241V141.858H697.513V136.5H679.341V141.858H675.614V133.005ZM694.951 133.005L690.524 116.697H686.331L681.904 133.005H694.951ZM719.16 136.966C717.42 136.966 715.805 136.671 714.314 136.081C712.823 135.459 711.534 134.621 710.447 133.565C709.39 132.477 708.552 131.188 707.93 129.697C707.34 128.206 707.045 126.591 707.045 124.851C707.045 123.112 707.34 121.497 707.93 120.005C708.552 118.514 709.39 117.241 710.447 116.185C711.534 115.098 712.823 114.259 714.314 113.669C715.805 113.047 717.42 112.737 719.16 112.737C720.899 112.737 722.515 113.047 724.006 113.669C725.497 114.259 726.77 115.098 727.826 116.185C728.914 117.241 729.752 118.514 730.342 120.005C730.964 121.497 731.274 123.112 731.274 124.851C731.274 126.591 730.964 128.206 730.342 129.697C729.752 131.188 728.914 132.477 727.826 133.565C726.77 134.621 725.497 135.459 724.006 136.081C722.515 136.671 720.899 136.966 719.16 136.966ZM719.16 133.471C720.371 133.471 721.489 133.269 722.515 132.866C723.54 132.431 724.425 131.841 725.17 131.095C725.916 130.318 726.491 129.402 726.894 128.346C727.329 127.29 727.547 126.125 727.547 124.851C727.547 123.578 727.329 122.413 726.894 121.357C726.491 120.301 725.916 119.4 725.17 118.654C724.425 117.878 723.54 117.287 722.515 116.884C721.489 116.449 720.371 116.231 719.16 116.231C717.948 116.231 716.83 116.449 715.805 116.884C714.78 117.287 713.895 117.878 713.149 118.654C712.404 119.4 711.813 120.301 711.378 121.357C710.975 122.413 710.773 123.578 710.773 124.851C710.773 126.125 710.975 127.29 711.378 128.346C711.813 129.402 712.404 130.318 713.149 131.095C713.895 131.841 714.78 132.431 715.805 132.866C716.83 133.269 717.948 133.471 719.16 133.471ZM766.215 136.5H760.857L754.566 113.203H758.527L763.652 133.005H767.147L773.204 113.203H777.165L767.38 145.353H763.419L766.215 136.5ZM789.274 116.697H781.12V113.203H801.155V116.697H793.001V136.5H789.274V116.697ZM808.398 113.203H812.125V116.93H812.172C812.172 116.93 812.312 116.713 812.591 116.278C812.902 115.812 813.383 115.33 814.036 114.833C814.719 114.305 815.589 113.824 816.645 113.389C817.701 112.954 818.99 112.737 820.512 112.737C822.034 112.737 823.463 113.047 824.799 113.669C826.166 114.259 827.362 115.098 828.387 116.185C829.412 117.241 830.22 118.514 830.81 120.005C831.4 121.497 831.695 123.112 831.695 124.851C831.695 126.591 831.4 128.206 830.81 129.697C830.22 131.188 829.412 132.477 828.387 133.565C827.362 134.621 826.166 135.459 824.799 136.081C823.463 136.671 822.034 136.966 820.512 136.966C818.99 136.966 817.701 136.749 816.645 136.314C815.589 135.879 814.719 135.413 814.036 134.916C813.383 134.388 812.902 133.906 812.591 133.471C812.312 133.005 812.172 132.772 812.172 132.772H812.125V145.353H808.398V113.203ZM820.046 133.471C821.165 133.471 822.205 133.269 823.168 132.866C824.131 132.431 824.97 131.841 825.684 131.095C826.399 130.318 826.958 129.402 827.362 128.346C827.766 127.29 827.967 126.125 827.967 124.851C827.967 123.578 827.766 122.413 827.362 121.357C826.958 120.301 826.399 119.4 825.684 118.654C824.97 117.878 824.131 117.287 823.168 116.884C822.205 116.449 821.165 116.231 820.046 116.231C818.928 116.231 817.887 116.449 816.924 116.884C815.962 117.287 815.123 117.878 814.408 118.654C813.694 119.4 813.135 120.301 812.731 121.357C812.327 122.413 812.125 123.578 812.125 124.851C812.125 126.125 812.327 127.29 812.731 128.346C813.135 129.402 813.694 130.318 814.408 131.095C815.123 131.841 815.962 132.431 816.924 132.866C817.887 133.269 818.928 133.471 820.046 133.471ZM850.349 136.966C848.827 136.966 847.383 136.671 846.016 136.081C844.68 135.459 843.5 134.621 842.475 133.565C841.45 132.477 840.642 131.188 840.052 129.697C839.462 128.206 839.167 126.591 839.167 124.851C839.167 123.112 839.462 121.497 840.052 120.005C840.642 118.514 841.45 117.241 842.475 116.185C843.5 115.098 844.68 114.259 846.016 113.669C847.383 113.047 848.827 112.737 850.349 112.737C851.871 112.737 853.16 112.954 854.217 113.389C855.273 113.824 856.127 114.305 856.779 114.833C857.463 115.362 857.944 115.859 858.224 116.325C858.534 116.759 858.69 116.977 858.69 116.977H858.736V113.203H862.464V136.5H858.736V132.772H858.69C858.69 132.772 858.534 133.005 858.224 133.471C857.944 133.906 857.463 134.388 856.779 134.916C856.127 135.413 855.273 135.879 854.217 136.314C853.16 136.749 851.871 136.966 850.349 136.966ZM850.815 133.471C851.933 133.471 852.974 133.269 853.937 132.866C854.9 132.431 855.739 131.841 856.453 131.095C857.168 130.318 857.727 129.402 858.131 128.346C858.534 127.29 858.736 126.125 858.736 124.851C858.736 123.578 858.534 122.413 858.131 121.357C857.727 120.301 857.168 119.4 856.453 118.654C855.739 117.878 854.9 117.287 853.937 116.884C852.974 116.449 851.933 116.231 850.815 116.231C849.697 116.231 848.656 116.449 847.693 116.884C846.73 117.287 845.892 117.878 845.177 118.654C844.463 119.4 843.904 120.301 843.5 121.357C843.096 122.413 842.894 123.578 842.894 124.851C842.894 126.125 843.096 127.29 843.5 128.346C843.904 129.402 844.463 130.318 845.177 131.095C845.892 131.841 846.73 132.431 847.693 132.866C848.656 133.269 849.697 133.471 850.815 133.471ZM93.0694 161.884H97.2629V176.095H103.553L113.804 161.884H118.696L107.281 177.726L119.162 194.5H114.037L103.786 180.056H97.2629V194.5H93.0694V161.884ZM130.363 171.203H140.148L146.671 194.5H142.711L137.353 174.697H133.159L127.801 194.5H123.84L130.363 171.203ZM163.901 194.966C162.378 194.966 160.934 194.671 159.567 194.081C158.232 193.459 157.051 192.621 156.026 191.565C155.001 190.477 154.193 189.188 153.603 187.697C153.013 186.206 152.718 184.591 152.718 182.851C152.718 181.112 153.013 179.497 153.603 178.005C154.193 176.514 155.001 175.241 156.026 174.185C157.051 173.098 158.232 172.259 159.567 171.669C160.934 171.047 162.378 170.737 163.901 170.737C165.423 170.737 166.712 170.954 167.768 171.389C168.824 171.824 169.678 172.305 170.331 172.833C171.014 173.362 171.495 173.859 171.775 174.325C172.086 174.759 172.241 174.977 172.241 174.977H172.288V171.203H176.015V194.5H172.288V190.772H172.241C172.241 190.772 172.086 191.005 171.775 191.471C171.495 191.906 171.014 192.388 170.331 192.916C169.678 193.413 168.824 193.879 167.768 194.314C166.712 194.749 165.423 194.966 163.901 194.966ZM164.366 191.471C165.485 191.471 166.525 191.269 167.488 190.866C168.451 190.431 169.29 189.841 170.004 189.095C170.719 188.318 171.278 187.402 171.682 186.346C172.086 185.29 172.288 184.125 172.288 182.851C172.288 181.578 172.086 180.413 171.682 179.357C171.278 178.301 170.719 177.4 170.004 176.654C169.29 175.878 168.451 175.287 167.488 174.884C166.525 174.449 165.485 174.231 164.366 174.231C163.248 174.231 162.208 174.449 161.245 174.884C160.282 175.287 159.443 175.878 158.729 176.654C158.014 177.4 157.455 178.301 157.051 179.357C156.647 180.413 156.445 181.578 156.445 182.851C156.445 184.125 156.647 185.29 157.051 186.346C157.455 187.402 158.014 188.318 158.729 189.095C159.443 189.841 160.282 190.431 161.245 190.866C162.208 191.269 163.248 191.471 164.366 191.471ZM196.533 194.966C194.887 194.966 193.349 194.671 191.92 194.081C190.522 193.459 189.295 192.621 188.239 191.565C187.214 190.477 186.391 189.188 185.77 187.697C185.18 186.206 184.885 184.591 184.885 182.851C184.885 181.112 185.18 179.497 185.77 178.005C186.391 176.514 187.214 175.241 188.239 174.185C189.295 173.098 190.522 172.259 191.92 171.669C193.349 171.047 194.887 170.737 196.533 170.737C197.683 170.737 198.723 170.861 199.655 171.109C200.618 171.327 201.472 171.638 202.218 172.041C202.963 172.414 203.616 172.849 204.175 173.346C204.734 173.843 205.215 174.34 205.619 174.837C206.582 176.049 207.281 177.4 207.716 178.891H203.988C203.616 178.021 203.103 177.244 202.451 176.561C201.892 175.971 201.131 175.443 200.168 174.977C199.205 174.48 197.993 174.231 196.533 174.231C195.415 174.231 194.374 174.449 193.411 174.884C192.448 175.287 191.61 175.878 190.895 176.654C190.181 177.4 189.622 178.301 189.218 179.357C188.814 180.413 188.612 181.578 188.612 182.851C188.612 184.156 188.83 185.336 189.264 186.393C189.699 187.449 190.274 188.35 190.988 189.095C191.703 189.841 192.542 190.431 193.505 190.866C194.468 191.269 195.477 191.471 196.533 191.471C198.055 191.471 199.298 191.207 200.261 190.679C201.255 190.151 202.047 189.561 202.637 188.909C203.32 188.163 203.849 187.309 204.221 186.346H207.949C207.514 187.992 206.8 189.437 205.806 190.679C205.371 191.207 204.874 191.735 204.315 192.263C203.755 192.76 203.088 193.211 202.311 193.615C201.565 194.019 200.711 194.345 199.748 194.593C198.785 194.842 197.714 194.966 196.533 194.966ZM226.607 194.966C224.96 194.966 223.423 194.671 221.994 194.081C220.596 193.459 219.369 192.621 218.313 191.565C217.288 190.477 216.465 189.188 215.843 187.697C215.253 186.206 214.958 184.591 214.958 182.851C214.958 181.112 215.253 179.497 215.843 178.005C216.465 176.514 217.288 175.241 218.313 174.185C219.369 173.098 220.596 172.259 221.994 171.669C223.423 171.047 224.96 170.737 226.607 170.737C227.756 170.737 228.797 170.861 229.729 171.109C230.692 171.327 231.546 171.638 232.291 172.041C233.037 172.414 233.689 172.849 234.248 173.346C234.807 173.843 235.289 174.34 235.693 174.837C236.656 176.049 237.355 177.4 237.79 178.891H234.062C233.689 178.021 233.177 177.244 232.524 176.561C231.965 175.971 231.204 175.443 230.241 174.977C229.278 174.48 228.067 174.231 226.607 174.231C225.489 174.231 224.448 174.449 223.485 174.884C222.522 175.287 221.683 175.878 220.969 176.654C220.254 177.4 219.695 178.301 219.291 179.357C218.888 180.413 218.686 181.578 218.686 182.851C218.686 184.156 218.903 185.336 219.338 186.393C219.773 187.449 220.348 188.35 221.062 189.095C221.776 189.841 222.615 190.431 223.578 190.866C224.541 191.269 225.551 191.471 226.607 191.471C228.129 191.471 229.371 191.207 230.334 190.679C231.328 190.151 232.12 189.561 232.711 188.909C233.394 188.163 233.922 187.309 234.295 186.346H238.022C237.588 187.992 236.873 189.437 235.879 190.679C235.444 191.207 234.947 191.735 234.388 192.263C233.829 192.76 233.161 193.211 232.385 193.615C231.639 194.019 230.785 194.345 229.822 194.593C228.859 194.842 227.787 194.966 226.607 194.966ZM246.43 171.203H250.157V180.755H263.204V171.203H266.931V194.5H263.204V184.249H250.157V194.5H246.43V171.203ZM277.186 171.203H280.913V179.124H286.505C287.84 179.124 289.052 179.326 290.139 179.729C291.226 180.133 292.158 180.692 292.935 181.407C293.711 182.09 294.301 182.898 294.705 183.83C295.14 184.762 295.358 185.756 295.358 186.812C295.358 187.868 295.14 188.862 294.705 189.794C294.301 190.726 293.711 191.549 292.935 192.263C292.158 192.947 291.226 193.49 290.139 193.894C289.052 194.298 287.84 194.5 286.505 194.5H277.186V171.203ZM286.505 191.005C288.151 191.005 289.409 190.602 290.279 189.794C291.18 188.986 291.63 187.992 291.63 186.812C291.63 185.631 291.18 184.637 290.279 183.83C289.409 183.022 288.151 182.618 286.505 182.618H280.913V191.005H286.505ZM298.386 171.203H302.114V194.5H298.386V171.203ZM322.839 194.966C321.162 194.966 319.593 194.671 318.133 194.081C316.673 193.459 315.415 192.621 314.359 191.565C313.303 190.477 312.464 189.188 311.843 187.697C311.253 186.206 310.958 184.591 310.958 182.851C310.958 181.112 311.253 179.497 311.843 178.005C312.464 176.514 313.303 175.241 314.359 174.185C315.415 173.098 316.673 172.259 318.133 171.669C319.593 171.047 321.162 170.737 322.839 170.737C324.517 170.737 326.085 171.047 327.545 171.669C329.005 172.259 330.263 173.082 331.32 174.138C332.376 175.194 333.199 176.452 333.789 177.912C334.41 179.372 334.721 180.941 334.721 182.618V184.016H314.685C314.81 185.103 315.105 186.113 315.571 187.045C316.037 187.946 316.627 188.722 317.341 189.375C318.056 190.027 318.879 190.539 319.811 190.912C320.774 191.285 321.783 191.471 322.839 191.471C324.237 191.471 325.418 191.254 326.381 190.819C327.343 190.384 328.136 189.903 328.757 189.375C329.471 188.784 330.062 188.085 330.527 187.278H334.255C333.696 188.738 332.904 190.027 331.879 191.145C330.978 192.108 329.797 192.993 328.338 193.801C326.878 194.578 325.045 194.966 322.839 194.966ZM330.76 180.755C330.636 179.885 330.357 179.062 329.922 178.285C329.518 177.477 328.974 176.778 328.291 176.188C327.608 175.598 326.8 175.132 325.868 174.79C324.967 174.418 323.958 174.231 322.839 174.231C321.721 174.231 320.696 174.418 319.764 174.79C318.863 175.132 318.056 175.598 317.341 176.188C316.658 176.778 316.099 177.477 315.664 178.285C315.229 179.062 314.934 179.885 314.778 180.755H330.76ZM357.325 191.005H359.888L365.246 171.203H375.031L380.389 191.005H382.952V199.858H379.224V194.5H361.052V199.858H357.325V191.005ZM376.662 191.005L372.235 174.697H368.042L363.615 191.005H376.662ZM390.154 171.203H393.882V188.676L393.835 189.142H393.928L406.462 171.203H410.656V194.5H406.928V177.027L406.975 176.561H406.882L394.348 194.5H390.154V171.203ZM417.882 191.005H420.444L425.803 171.203H435.588L440.946 191.005H443.509V199.858H439.781V194.5H421.609V199.858H417.882V191.005ZM437.218 191.005L432.792 174.697H428.598L424.172 191.005H437.218ZM456.535 182.152L448.381 171.203H452.808L459.797 180.522H463.757V171.203H467.485V180.522H471.445L478.435 171.203H482.861L474.707 182.152L483.56 194.5H478.901L471.445 184.016H467.485V194.5H463.757V184.016H459.797L452.342 194.5H447.682L456.535 182.152ZM500.369 194.966C498.691 194.966 497.123 194.671 495.663 194.081C494.203 193.459 492.945 192.621 491.888 191.565C490.832 190.477 489.994 189.188 489.372 187.697C488.782 186.206 488.487 184.591 488.487 182.851C488.487 181.112 488.782 179.497 489.372 178.005C489.994 176.514 490.832 175.241 491.888 174.185C492.945 173.098 494.203 172.259 495.663 171.669C497.123 171.047 498.691 170.737 500.369 170.737C502.046 170.737 503.615 171.047 505.075 171.669C506.535 172.259 507.793 173.082 508.849 174.138C509.905 175.194 510.728 176.452 511.318 177.912C511.94 179.372 512.25 180.941 512.25 182.618V184.016H492.215C492.339 185.103 492.634 186.113 493.1 187.045C493.566 187.946 494.156 188.722 494.87 189.375C495.585 190.027 496.408 190.539 497.34 190.912C498.303 191.285 499.313 191.471 500.369 191.471C501.766 191.471 502.947 191.254 503.91 190.819C504.873 190.384 505.665 189.903 506.286 189.375C507.001 188.784 507.591 188.085 508.057 187.278H511.784C511.225 188.738 510.433 190.027 509.408 191.145C508.507 192.108 507.327 192.993 505.867 193.801C504.407 194.578 502.574 194.966 500.369 194.966ZM508.29 180.755C508.166 179.885 507.886 179.062 507.451 178.285C507.047 177.477 506.504 176.778 505.82 176.188C505.137 175.598 504.329 175.132 503.397 174.79C502.496 174.418 501.487 174.231 500.369 174.231C499.25 174.231 498.225 174.418 497.293 174.79C496.393 175.132 495.585 175.598 494.87 176.188C494.187 176.778 493.628 177.477 493.193 178.285C492.758 179.062 492.463 179.885 492.308 180.755H508.29ZM521.096 171.203H524.824V188.676L524.777 189.142H524.87L537.404 171.203H541.598V194.5H537.87V177.027L537.917 176.561H537.823L525.29 194.5H521.096V171.203ZM550.92 198.461C552.784 198.243 553.716 197.234 553.716 195.432V194.733C553.654 194.795 553.561 194.842 553.436 194.873C553.188 194.935 552.97 194.966 552.784 194.966C552.194 194.966 551.697 194.749 551.293 194.314C550.889 193.879 550.687 193.289 550.687 192.543C550.687 191.642 550.951 190.928 551.479 190.4C552.007 189.872 552.675 189.608 553.483 189.608C554.291 189.608 554.958 189.934 555.487 190.586C556.015 191.207 556.279 192.279 556.279 193.801C556.279 195.913 555.797 197.498 554.834 198.554C553.871 199.61 552.567 200.2 550.92 200.324V198.461ZM592.4 194.966C590.754 194.966 589.216 194.671 587.788 194.081C586.39 193.459 585.163 192.621 584.107 191.565C583.081 190.477 582.258 189.188 581.637 187.697C581.047 186.206 580.752 184.591 580.752 182.851C580.752 181.112 581.047 179.497 581.637 178.005C582.258 176.514 583.081 175.241 584.107 174.185C585.163 173.098 586.39 172.259 587.788 171.669C589.216 171.047 590.754 170.737 592.4 170.737C593.55 170.737 594.59 170.861 595.522 171.109C596.485 171.327 597.339 171.638 598.085 172.041C598.83 172.414 599.483 172.849 600.042 173.346C600.601 173.843 601.083 174.34 601.486 174.837C602.449 176.049 603.148 177.4 603.583 178.891H599.856C599.483 178.021 598.97 177.244 598.318 176.561C597.759 175.971 596.998 175.443 596.035 174.977C595.072 174.48 593.86 174.231 592.4 174.231C591.282 174.231 590.242 174.449 589.279 174.884C588.316 175.287 587.477 175.878 586.762 176.654C586.048 177.4 585.489 178.301 585.085 179.357C584.681 180.413 584.479 181.578 584.479 182.851C584.479 184.156 584.697 185.336 585.132 186.393C585.567 187.449 586.141 188.35 586.856 189.095C587.57 189.841 588.409 190.431 589.372 190.866C590.335 191.269 591.344 191.471 592.4 191.471C593.923 191.471 595.165 191.207 596.128 190.679C597.122 190.151 597.914 189.561 598.504 188.909C599.188 188.163 599.716 187.309 600.089 186.346H603.816C603.381 187.992 602.667 189.437 601.673 190.679C601.238 191.207 600.741 191.735 600.182 192.263C599.623 192.76 598.955 193.211 598.178 193.615C597.433 194.019 596.578 194.345 595.615 194.593C594.653 194.842 593.581 194.966 592.4 194.966ZM622.94 194.966C621.2 194.966 619.585 194.671 618.094 194.081C616.603 193.459 615.314 192.621 614.227 191.565C613.171 190.477 612.332 189.188 611.711 187.697C611.12 186.206 610.825 184.591 610.825 182.851C610.825 181.112 611.12 179.497 611.711 178.005C612.332 176.514 613.171 175.241 614.227 174.185C615.314 173.098 616.603 172.259 618.094 171.669C619.585 171.047 621.2 170.737 622.94 170.737C624.679 170.737 626.295 171.047 627.786 171.669C629.277 172.259 630.55 173.098 631.607 174.185C632.694 175.241 633.532 176.514 634.123 178.005C634.744 179.497 635.055 181.112 635.055 182.851C635.055 184.591 634.744 186.206 634.123 187.697C633.532 189.188 632.694 190.477 631.607 191.565C630.55 192.621 629.277 193.459 627.786 194.081C626.295 194.671 624.679 194.966 622.94 194.966ZM622.94 191.471C624.151 191.471 625.27 191.269 626.295 190.866C627.32 190.431 628.205 189.841 628.951 189.095C629.696 188.318 630.271 187.402 630.675 186.346C631.11 185.29 631.327 184.125 631.327 182.851C631.327 181.578 631.11 180.413 630.675 179.357C630.271 178.301 629.696 177.4 628.951 176.654C628.205 175.878 627.32 175.287 626.295 174.884C625.27 174.449 624.151 174.231 622.94 174.231C621.728 174.231 620.61 174.449 619.585 174.884C618.56 175.287 617.675 175.878 616.929 176.654C616.184 177.4 615.594 178.301 615.159 179.357C614.755 180.413 614.553 181.578 614.553 182.851C614.553 184.125 614.755 185.29 615.159 186.346C615.594 187.402 616.184 188.318 616.929 189.095C617.675 189.841 618.56 190.431 619.585 190.866C620.61 191.269 621.728 191.471 622.94 191.471ZM643.889 171.203H655.305C657.542 171.203 659.266 171.762 660.477 172.88C661.689 173.998 662.294 175.381 662.294 177.027C662.294 178.083 662.123 178.937 661.782 179.59C661.471 180.242 661.098 180.755 660.663 181.127C660.26 181.5 659.871 181.764 659.499 181.919C659.126 182.044 658.893 182.106 658.8 182.106V182.152C658.862 182.152 659.126 182.23 659.592 182.385C660.058 182.51 660.555 182.774 661.083 183.177C661.642 183.581 662.139 184.156 662.574 184.901C663.009 185.616 663.226 186.563 663.226 187.744C663.226 189.732 662.543 191.363 661.176 192.636C659.84 193.879 657.899 194.5 655.352 194.5H643.889V171.203ZM655.305 191.005C656.703 191.005 657.744 190.695 658.427 190.074C659.141 189.421 659.499 188.567 659.499 187.511C659.499 186.455 659.141 185.616 658.427 184.995C657.744 184.342 656.703 184.016 655.305 184.016H647.617V191.005H655.305ZM655.072 180.755C656.252 180.755 657.122 180.491 657.681 179.962C658.272 179.403 658.567 178.658 658.567 177.726C658.567 176.794 658.272 176.064 657.681 175.536C657.122 174.977 656.252 174.697 655.072 174.697H647.617V180.755H655.072ZM672.097 171.203H675.825V174.93H675.871C675.871 174.93 676.011 174.713 676.291 174.278C676.601 173.812 677.083 173.33 677.735 172.833C678.419 172.305 679.288 171.824 680.345 171.389C681.401 170.954 682.69 170.737 684.212 170.737C685.734 170.737 687.163 171.047 688.499 171.669C689.865 172.259 691.061 173.098 692.086 174.185C693.112 175.241 693.919 176.514 694.509 178.005C695.1 179.497 695.395 181.112 695.395 182.851C695.395 184.591 695.1 186.206 694.509 187.697C693.919 189.188 693.112 190.477 692.086 191.565C691.061 192.621 689.865 193.459 688.499 194.081C687.163 194.671 685.734 194.966 684.212 194.966C682.69 194.966 681.401 194.749 680.345 194.314C679.288 193.879 678.419 193.413 677.735 192.916C677.083 192.388 676.601 191.906 676.291 191.471C676.011 191.005 675.871 190.772 675.871 190.772H675.825V203.353H672.097V171.203ZM683.746 191.471C684.864 191.471 685.905 191.269 686.868 190.866C687.831 190.431 688.669 189.841 689.384 189.095C690.098 188.318 690.658 187.402 691.061 186.346C691.465 185.29 691.667 184.125 691.667 182.851C691.667 181.578 691.465 180.413 691.061 179.357C690.658 178.301 690.098 177.4 689.384 176.654C688.669 175.878 687.831 175.287 686.868 174.884C685.905 174.449 684.864 174.231 683.746 174.231C682.628 174.231 681.587 174.449 680.624 174.884C679.661 175.287 678.822 175.878 678.108 176.654C677.394 177.4 676.834 178.301 676.431 179.357C676.027 180.413 675.825 181.578 675.825 182.851C675.825 184.125 676.027 185.29 676.431 186.346C676.834 187.402 677.394 188.318 678.108 189.095C678.822 189.841 679.661 190.431 680.624 190.866C681.587 191.269 682.628 191.471 683.746 191.471ZM714.748 194.966C713.07 194.966 711.502 194.671 710.042 194.081C708.582 193.459 707.324 192.621 706.268 191.565C705.211 190.477 704.373 189.188 703.751 187.697C703.161 186.206 702.866 184.591 702.866 182.851C702.866 181.112 703.161 179.497 703.751 178.005C704.373 176.514 705.211 175.241 706.268 174.185C707.324 173.098 708.582 172.259 710.042 171.669C711.502 171.047 713.07 170.737 714.748 170.737C716.425 170.737 717.994 171.047 719.454 171.669C720.914 172.259 722.172 173.082 723.228 174.138C724.284 175.194 725.107 176.452 725.698 177.912C726.319 179.372 726.629 180.941 726.629 182.618V184.016H706.594C706.718 185.103 707.013 186.113 707.479 187.045C707.945 187.946 708.535 188.722 709.25 189.375C709.964 190.027 710.787 190.539 711.719 190.912C712.682 191.285 713.692 191.471 714.748 191.471C716.146 191.471 717.326 191.254 718.289 190.819C719.252 190.384 720.044 189.903 720.665 189.375C721.38 188.784 721.97 188.085 722.436 187.278H726.164C725.604 188.738 724.812 190.027 723.787 191.145C722.886 192.108 721.706 192.993 720.246 193.801C718.786 194.578 716.953 194.966 714.748 194.966ZM722.669 180.755C722.545 179.885 722.265 179.062 721.83 178.285C721.426 177.477 720.883 176.778 720.199 176.188C719.516 175.598 718.708 175.132 717.776 174.79C716.876 174.418 715.866 174.231 714.748 174.231C713.63 174.231 712.604 174.418 711.673 174.79C710.772 175.132 709.964 175.598 709.25 176.188C708.566 176.778 708.007 177.477 707.572 178.285C707.137 179.062 706.842 179.885 706.687 180.755H722.669ZM735.475 171.203H741.067L748.056 185.647H749.221L756.21 171.203H761.801V194.5H758.074V175.862L758.12 175.396H758.027L751.084 189.841H746.192L739.249 175.396H739.156L739.203 175.862V194.5H735.475V171.203ZM782.539 194.966C780.862 194.966 779.293 194.671 777.833 194.081C776.373 193.459 775.115 192.621 774.059 191.565C773.003 190.477 772.164 189.188 771.543 187.697C770.953 186.206 770.658 184.591 770.658 182.851C770.658 181.112 770.953 179.497 771.543 178.005C772.164 176.514 773.003 175.241 774.059 174.185C775.115 173.098 776.373 172.259 777.833 171.669C779.293 171.047 780.862 170.737 782.539 170.737C784.217 170.737 785.786 171.047 787.245 171.669C788.705 172.259 789.964 173.082 791.02 174.138C792.076 175.194 792.899 176.452 793.489 177.912C794.11 179.372 794.421 180.941 794.421 182.618V184.016H774.385C774.51 185.103 774.805 186.113 775.271 187.045C775.737 187.946 776.327 188.722 777.041 189.375C777.756 190.027 778.579 190.539 779.511 190.912C780.474 191.285 781.483 191.471 782.539 191.471C783.937 191.471 785.118 191.254 786.081 190.819C787.044 190.384 787.836 189.903 788.457 189.375C789.171 188.784 789.762 188.085 790.228 187.278H793.955C793.396 188.738 792.604 190.027 791.579 191.145C790.678 192.108 789.498 192.993 788.038 193.801C786.578 194.578 784.745 194.966 782.539 194.966ZM790.461 180.755C790.336 179.885 790.057 179.062 789.622 178.285C789.218 177.477 788.674 176.778 787.991 176.188C787.308 175.598 786.5 175.132 785.568 174.79C784.667 174.418 783.658 174.231 782.539 174.231C781.421 174.231 780.396 174.418 779.464 174.79C778.563 175.132 777.756 175.598 777.041 176.188C776.358 176.778 775.799 177.477 775.364 178.285C774.929 179.062 774.634 179.885 774.479 180.755H790.461ZM803.267 171.203H806.994V180.755H820.041V171.203H823.768V194.5H820.041V184.249H806.994V194.5H803.267V171.203ZM834.023 171.203H837.75V180.755H850.797V171.203H854.525V194.5H850.797V184.249H837.75V194.5H834.023V171.203ZM874.564 194.966C873.042 194.966 871.597 194.671 870.231 194.081C868.895 193.459 867.714 192.621 866.689 191.565C865.664 190.477 864.857 189.188 864.266 187.697C863.676 186.206 863.381 184.591 863.381 182.851C863.381 181.112 863.676 179.497 864.266 178.005C864.857 176.514 865.664 175.241 866.689 174.185C867.714 173.098 868.895 172.259 870.231 171.669C871.597 171.047 873.042 170.737 874.564 170.737C876.086 170.737 877.375 170.954 878.431 171.389C879.487 171.824 880.342 172.305 880.994 172.833C881.677 173.362 882.159 173.859 882.438 174.325C882.749 174.759 882.904 174.977 882.904 174.977H882.951V171.203H886.679V194.5H882.951V190.772H882.904C882.904 190.772 882.749 191.005 882.438 191.471C882.159 191.906 881.677 192.388 880.994 192.916C880.342 193.413 879.487 193.879 878.431 194.314C877.375 194.749 876.086 194.966 874.564 194.966ZM875.03 191.471C876.148 191.471 877.189 191.269 878.152 190.866C879.115 190.431 879.953 189.841 880.668 189.095C881.382 188.318 881.941 187.402 882.345 186.346C882.749 185.29 882.951 184.125 882.951 182.851C882.951 181.578 882.749 180.413 882.345 179.357C881.941 178.301 881.382 177.4 880.668 176.654C879.953 175.878 879.115 175.287 878.152 174.884C877.189 174.449 876.148 174.231 875.03 174.231C873.912 174.231 872.871 174.449 871.908 174.884C870.945 175.287 870.106 175.878 869.392 176.654C868.677 177.4 868.118 178.301 867.714 179.357C867.311 180.413 867.109 181.578 867.109 182.851C867.109 184.125 867.311 185.29 867.714 186.346C868.118 187.402 868.677 188.318 869.392 189.095C870.106 189.841 870.945 190.431 871.908 190.866C872.871 191.269 873.912 191.471 875.03 191.471ZM900.673 186.113C899.804 185.74 899.027 185.243 898.344 184.622C897.753 184.094 897.21 183.395 896.713 182.525C896.247 181.624 896.014 180.491 896.014 179.124C896.014 178.005 896.216 176.965 896.62 176.002C897.054 175.039 897.66 174.2 898.437 173.486C899.244 172.771 900.192 172.212 901.279 171.808C902.397 171.405 903.655 171.203 905.053 171.203H915.584V194.5H911.856V187.045H904.401L900.301 194.5H896.014L900.673 186.113ZM911.856 183.55V174.697H905.1C903.329 174.697 901.993 175.117 901.093 175.955C900.192 176.763 899.741 177.819 899.741 179.124C899.741 180.428 900.192 181.5 901.093 182.339C901.993 183.146 903.329 183.55 905.1 183.55H911.856ZM102.388 252.966C100.866 252.966 99.4218 252.671 98.055 252.081C96.7193 251.459 95.5389 250.621 94.5138 249.565C93.4887 248.477 92.6811 247.188 92.0909 245.697C91.5007 244.206 91.2056 242.591 91.2056 240.851C91.2056 239.112 91.5007 237.497 92.0909 236.005C92.6811 234.514 93.4887 233.241 94.5138 232.185C95.5389 231.098 96.7193 230.259 98.055 229.669C99.4218 229.047 100.866 228.737 102.388 228.737C103.91 228.737 105.2 228.954 106.256 229.389C107.312 229.824 108.166 230.305 108.818 230.833C109.502 231.362 109.983 231.859 110.263 232.325C110.573 232.759 110.729 232.977 110.729 232.977H110.775V229.203H114.503V252.5H110.775V248.772H110.729C110.729 248.772 110.573 249.005 110.263 249.471C109.983 249.906 109.502 250.388 108.818 250.916C108.166 251.413 107.312 251.879 106.256 252.314C105.2 252.749 103.91 252.966 102.388 252.966ZM102.854 249.471C103.973 249.471 105.013 249.269 105.976 248.866C106.939 248.431 107.778 247.841 108.492 247.095C109.207 246.318 109.766 245.402 110.17 244.346C110.573 243.29 110.775 242.125 110.775 240.851C110.775 239.578 110.573 238.413 110.17 237.357C109.766 236.301 109.207 235.4 108.492 234.654C107.778 233.878 106.939 233.287 105.976 232.884C105.013 232.449 103.973 232.231 102.854 232.231C101.736 232.231 100.695 232.449 99.7324 232.884C98.7695 233.287 97.9307 233.878 97.2163 234.654C96.5018 235.4 95.9427 236.301 95.5389 237.357C95.1351 238.413 94.9332 239.578 94.9332 240.851C94.9332 242.125 95.1351 243.29 95.5389 244.346C95.9427 245.402 96.5018 246.318 97.2163 247.095C97.9307 247.841 98.7695 248.431 99.7324 248.866C100.695 249.269 101.736 249.471 102.854 249.471ZM124.77 229.203H145.039V252.5H141.311V232.697H128.498V252.5H124.77V229.203ZM155.299 229.203H175.567V252.5H171.84V232.697H159.026V252.5H155.299V229.203ZM195.612 252.966C194.09 252.966 192.646 252.671 191.279 252.081C189.943 251.459 188.763 250.621 187.738 249.565C186.713 248.477 185.905 247.188 185.315 245.697C184.725 244.206 184.43 242.591 184.43 240.851C184.43 239.112 184.725 237.497 185.315 236.005C185.905 234.514 186.713 233.241 187.738 232.185C188.763 231.098 189.943 230.259 191.279 229.669C192.646 229.047 194.09 228.737 195.612 228.737C197.134 228.737 198.423 228.954 199.48 229.389C200.536 229.824 201.39 230.305 202.042 230.833C202.726 231.362 203.207 231.859 203.487 232.325C203.797 232.759 203.953 232.977 203.953 232.977H203.999V229.203H207.727V252.5H203.999V248.772H203.953C203.953 248.772 203.797 249.005 203.487 249.471C203.207 249.906 202.726 250.388 202.042 250.916C201.39 251.413 200.536 251.879 199.48 252.314C198.423 252.749 197.134 252.966 195.612 252.966ZM196.078 249.471C197.196 249.471 198.237 249.269 199.2 248.866C200.163 248.431 201.002 247.841 201.716 247.095C202.431 246.318 202.99 245.402 203.394 244.346C203.797 243.29 203.999 242.125 203.999 240.851C203.999 239.578 203.797 238.413 203.394 237.357C202.99 236.301 202.431 235.4 201.716 234.654C201.002 233.878 200.163 233.287 199.2 232.884C198.237 232.449 197.196 232.231 196.078 232.231C194.96 232.231 193.919 232.449 192.956 232.884C191.993 233.287 191.155 233.878 190.44 234.654C189.726 235.4 189.167 236.301 188.763 237.357C188.359 238.413 188.157 239.578 188.157 240.851C188.157 242.125 188.359 243.29 188.763 244.346C189.167 245.402 189.726 246.318 190.44 247.095C191.155 247.841 191.993 248.431 192.956 248.866C193.919 249.269 194.96 249.471 196.078 249.471ZM217.994 229.203H221.722V232.93H221.768C221.768 232.93 221.908 232.713 222.188 232.278C222.498 231.812 222.98 231.33 223.632 230.833C224.315 230.305 225.185 229.824 226.241 229.389C227.297 228.954 228.587 228.737 230.109 228.737C231.631 228.737 233.06 229.047 234.395 229.669C235.762 230.259 236.958 231.098 237.983 232.185C239.008 233.241 239.816 234.514 240.406 236.005C240.996 237.497 241.291 239.112 241.291 240.851C241.291 242.591 240.996 244.206 240.406 245.697C239.816 247.188 239.008 248.477 237.983 249.565C236.958 250.621 235.762 251.459 234.395 252.081C233.06 252.671 231.631 252.966 230.109 252.966C228.587 252.966 227.297 252.749 226.241 252.314C225.185 251.879 224.315 251.413 223.632 250.916C222.98 250.388 222.498 249.906 222.188 249.471C221.908 249.005 221.768 248.772 221.768 248.772H221.722V261.353H217.994V229.203ZM229.643 249.471C230.761 249.471 231.802 249.269 232.765 248.866C233.728 248.431 234.566 247.841 235.281 247.095C235.995 246.318 236.554 245.402 236.958 244.346C237.362 243.29 237.564 242.125 237.564 240.851C237.564 239.578 237.362 238.413 236.958 237.357C236.554 236.301 235.995 235.4 235.281 234.654C234.566 233.878 233.728 233.287 232.765 232.884C231.802 232.449 230.761 232.231 229.643 232.231C228.524 232.231 227.484 232.449 226.521 232.884C225.558 233.287 224.719 233.878 224.005 234.654C223.29 235.4 222.731 236.301 222.327 237.357C221.924 238.413 221.722 239.578 221.722 240.851C221.722 242.125 221.924 243.29 222.327 244.346C222.731 245.402 223.29 246.318 224.005 247.095C224.719 247.841 225.558 248.431 226.521 248.866C227.484 249.269 228.524 249.471 229.643 249.471ZM259.946 252.966C258.424 252.966 256.979 252.671 255.612 252.081C254.277 251.459 253.096 250.621 252.071 249.565C251.046 248.477 250.238 247.188 249.648 245.697C249.058 244.206 248.763 242.591 248.763 240.851C248.763 239.112 249.058 237.497 249.648 236.005C250.238 234.514 251.046 233.241 252.071 232.185C253.096 231.098 254.277 230.259 255.612 229.669C256.979 229.047 258.424 228.737 259.946 228.737C261.468 228.737 262.757 228.954 263.813 229.389C264.869 229.824 265.723 230.305 266.376 230.833C267.059 231.362 267.541 231.859 267.82 232.325C268.131 232.759 268.286 232.977 268.286 232.977H268.333V229.203H272.06V252.5H268.333V248.772H268.286C268.286 248.772 268.131 249.005 267.82 249.471C267.541 249.906 267.059 250.388 266.376 250.916C265.723 251.413 264.869 251.879 263.813 252.314C262.757 252.749 261.468 252.966 259.946 252.966ZM260.412 249.471C261.53 249.471 262.57 249.269 263.533 248.866C264.496 248.431 265.335 247.841 266.05 247.095C266.764 246.318 267.323 245.402 267.727 244.346C268.131 243.29 268.333 242.125 268.333 240.851C268.333 239.578 268.131 238.413 267.727 237.357C267.323 236.301 266.764 235.4 266.05 234.654C265.335 233.878 264.496 233.287 263.533 232.884C262.57 232.449 261.53 232.231 260.412 232.231C259.293 232.231 258.253 232.449 257.29 232.884C256.327 233.287 255.488 233.878 254.774 234.654C254.059 235.4 253.5 236.301 253.096 237.357C252.692 238.413 252.49 239.578 252.49 240.851C252.49 242.125 252.692 243.29 253.096 244.346C253.5 245.402 254.059 246.318 254.774 247.095C255.488 247.841 256.327 248.431 257.29 248.866C258.253 249.269 259.293 249.471 260.412 249.471ZM287.453 232.697H279.299V229.203H299.335V232.697H291.18V252.5H287.453V232.697ZM315.896 252.5H310.537L304.247 229.203H308.208L313.333 249.005H316.828L322.885 229.203H326.845L317.061 261.353H313.1L315.896 252.5ZM333.829 229.203H337.557V232.93H337.603C337.603 232.93 337.743 232.713 338.023 232.278C338.333 231.812 338.815 231.33 339.467 230.833C340.15 230.305 341.02 229.824 342.076 229.389C343.133 228.954 344.422 228.737 345.944 228.737C347.466 228.737 348.895 229.047 350.23 229.669C351.597 230.259 352.793 231.098 353.818 232.185C354.843 233.241 355.651 234.514 356.241 236.005C356.831 237.497 357.126 239.112 357.126 240.851C357.126 242.591 356.831 244.206 356.241 245.697C355.651 247.188 354.843 248.477 353.818 249.565C352.793 250.621 351.597 251.459 350.23 252.081C348.895 252.671 347.466 252.966 345.944 252.966C344.422 252.966 343.133 252.749 342.076 252.314C341.02 251.879 340.15 251.413 339.467 250.916C338.815 250.388 338.333 249.906 338.023 249.471C337.743 249.005 337.603 248.772 337.603 248.772H337.557V261.353H333.829V229.203ZM345.478 249.471C346.596 249.471 347.637 249.269 348.6 248.866C349.563 248.431 350.401 247.841 351.116 247.095C351.83 246.318 352.389 245.402 352.793 244.346C353.197 243.29 353.399 242.125 353.399 240.851C353.399 239.578 353.197 238.413 352.793 237.357C352.389 236.301 351.83 235.4 351.116 234.654C350.401 233.878 349.563 233.287 348.6 232.884C347.637 232.449 346.596 232.231 345.478 232.231C344.36 232.231 343.319 232.449 342.356 232.884C341.393 233.287 340.554 233.878 339.84 234.654C339.125 235.4 338.566 236.301 338.162 237.357C337.759 238.413 337.557 239.578 337.557 240.851C337.557 242.125 337.759 243.29 338.162 244.346C338.566 245.402 339.125 246.318 339.84 247.095C340.554 247.841 341.393 248.431 342.356 248.866C343.319 249.269 344.36 249.471 345.478 249.471ZM375.781 252.966C374.259 252.966 372.814 252.671 371.447 252.081C370.112 251.459 368.931 250.621 367.906 249.565C366.881 248.477 366.073 247.188 365.483 245.697C364.893 244.206 364.598 242.591 364.598 240.851C364.598 239.112 364.893 237.497 365.483 236.005C366.073 234.514 366.881 233.241 367.906 232.185C368.931 231.098 370.112 230.259 371.447 229.669C372.814 229.047 374.259 228.737 375.781 228.737C377.303 228.737 378.592 228.954 379.648 229.389C380.704 229.824 381.558 230.305 382.211 230.833C382.894 231.362 383.376 231.859 383.655 232.325C383.966 232.759 384.121 232.977 384.121 232.977H384.168V229.203H387.895V252.5H384.168V248.772H384.121C384.121 248.772 383.966 249.005 383.655 249.471C383.376 249.906 382.894 250.388 382.211 250.916C381.558 251.413 380.704 251.879 379.648 252.314C378.592 252.749 377.303 252.966 375.781 252.966ZM376.247 249.471C377.365 249.471 378.406 249.269 379.368 248.866C380.331 248.431 381.17 247.841 381.885 247.095C382.599 246.318 383.158 245.402 383.562 244.346C383.966 243.29 384.168 242.125 384.168 240.851C384.168 239.578 383.966 238.413 383.562 237.357C383.158 236.301 382.599 235.4 381.885 234.654C381.17 233.878 380.331 233.287 379.368 232.884C378.406 232.449 377.365 232.231 376.247 232.231C375.128 232.231 374.088 232.449 373.125 232.884C372.162 233.287 371.323 233.878 370.609 234.654C369.894 235.4 369.335 236.301 368.931 237.357C368.527 238.413 368.326 239.578 368.326 240.851C368.326 242.125 368.527 243.29 368.931 244.346C369.335 245.402 369.894 246.318 370.609 247.095C371.323 247.841 372.162 248.431 373.125 248.866C374.088 249.269 375.128 249.471 376.247 249.471ZM397.231 256.461C399.094 256.243 400.026 255.234 400.026 253.432V252.733C399.964 252.795 399.871 252.842 399.747 252.873C399.498 252.935 399.281 252.966 399.094 252.966C398.504 252.966 398.007 252.749 397.603 252.314C397.2 251.879 396.998 251.289 396.998 250.543C396.998 249.642 397.262 248.928 397.79 248.4C398.318 247.872 398.986 247.608 399.793 247.608C400.601 247.608 401.269 247.934 401.797 248.586C402.325 249.207 402.589 250.279 402.589 251.801C402.589 253.913 402.108 255.498 401.145 256.554C400.182 257.61 398.877 258.2 397.231 258.324V256.461ZM428.46 229.203H448.729V252.5H445.001V232.697H432.188V252.5H428.46V229.203ZM458.989 229.203H462.716V232.93H462.763C462.763 232.93 462.903 232.713 463.182 232.278C463.493 231.812 463.974 231.33 464.627 230.833C465.31 230.305 466.18 229.824 467.236 229.389C468.292 228.954 469.581 228.737 471.103 228.737C472.625 228.737 474.054 229.047 475.39 229.669C476.757 230.259 477.953 231.098 478.978 232.185C480.003 233.241 480.81 234.514 481.401 236.005C481.991 237.497 482.286 239.112 482.286 240.851C482.286 242.591 481.991 244.206 481.401 245.697C480.81 247.188 480.003 248.477 478.978 249.565C477.953 250.621 476.757 251.459 475.39 252.081C474.054 252.671 472.625 252.966 471.103 252.966C469.581 252.966 468.292 252.749 467.236 252.314C466.18 251.879 465.31 251.413 464.627 250.916C463.974 250.388 463.493 249.906 463.182 249.471C462.903 249.005 462.763 248.772 462.763 248.772H462.716V261.353H458.989V229.203ZM470.637 249.471C471.756 249.471 472.796 249.269 473.759 248.866C474.722 248.431 475.561 247.841 476.275 247.095C476.99 246.318 477.549 245.402 477.953 244.346C478.356 243.29 478.558 242.125 478.558 240.851C478.558 239.578 478.356 238.413 477.953 237.357C477.549 236.301 476.99 235.4 476.275 234.654C475.561 233.878 474.722 233.287 473.759 232.884C472.796 232.449 471.756 232.231 470.637 232.231C469.519 232.231 468.478 232.449 467.515 232.884C466.552 233.287 465.714 233.878 464.999 234.654C464.285 235.4 463.726 236.301 463.322 237.357C462.918 238.413 462.716 239.578 462.716 240.851C462.716 242.125 462.918 243.29 463.322 244.346C463.726 245.402 464.285 246.318 464.999 247.095C465.714 247.841 466.552 248.431 467.515 248.866C468.478 249.269 469.519 249.471 470.637 249.471ZM491.155 229.203H494.883V246.676L494.836 247.142H494.929L507.463 229.203H511.657V252.5H507.929V235.027L507.976 234.561H507.883L495.349 252.5H491.155V229.203ZM521.911 229.203H525.639V238.522H530.298L537.754 229.203H542.18L533.56 240.152L542.879 252.5H538.22L530.298 242.016H525.639V252.5H521.911V229.203ZM559.926 252.966C558.187 252.966 556.571 252.671 555.08 252.081C553.589 251.459 552.3 250.621 551.213 249.565C550.157 248.477 549.318 247.188 548.697 245.697C548.107 244.206 547.812 242.591 547.812 240.851C547.812 239.112 548.107 237.497 548.697 236.005C549.318 234.514 550.157 233.241 551.213 232.185C552.3 231.098 553.589 230.259 555.08 229.669C556.571 229.047 558.187 228.737 559.926 228.737C561.666 228.737 563.281 229.047 564.772 229.669C566.263 230.259 567.537 231.098 568.593 232.185C569.68 233.241 570.519 234.514 571.109 236.005C571.73 237.497 572.041 239.112 572.041 240.851C572.041 242.591 571.73 244.206 571.109 245.697C570.519 247.188 569.68 248.477 568.593 249.565C567.537 250.621 566.263 251.459 564.772 252.081C563.281 252.671 561.666 252.966 559.926 252.966ZM559.926 249.471C561.138 249.471 562.256 249.269 563.281 248.866C564.306 248.431 565.191 247.841 565.937 247.095C566.682 246.318 567.257 245.402 567.661 244.346C568.096 243.29 568.313 242.125 568.313 240.851C568.313 239.578 568.096 238.413 567.661 237.357C567.257 236.301 566.682 235.4 565.937 234.654C565.191 233.878 564.306 233.287 563.281 232.884C562.256 232.449 561.138 232.231 559.926 232.231C558.715 232.231 557.596 232.449 556.571 232.884C555.546 233.287 554.661 233.878 553.915 234.654C553.17 235.4 552.58 236.301 552.145 237.357C551.741 238.413 551.539 239.578 551.539 240.851C551.539 242.125 551.741 243.29 552.145 244.346C552.58 245.402 553.17 246.318 553.915 247.095C554.661 247.841 555.546 248.431 556.571 248.866C557.596 249.269 558.715 249.471 559.926 249.471ZM584.603 229.203H594.388L600.911 252.5H596.951L591.592 232.697H587.399L582.04 252.5H578.08L584.603 229.203ZM608.355 229.203H612.083V237.124H618.606C619.942 237.124 621.153 237.326 622.241 237.729C623.328 238.133 624.26 238.692 625.036 239.407C625.813 240.09 626.403 240.898 626.807 241.83C627.242 242.762 627.459 243.756 627.459 244.812C627.459 245.868 627.242 246.862 626.807 247.794C626.403 248.726 625.813 249.549 625.036 250.263C624.26 250.947 623.328 251.49 622.241 251.894C621.153 252.298 619.942 252.5 618.606 252.5H608.355V229.203ZM618.606 249.005C620.253 249.005 621.511 248.602 622.38 247.794C623.281 246.986 623.732 245.992 623.732 244.812C623.732 243.631 623.281 242.637 622.38 241.83C621.511 241.022 620.253 240.618 618.606 240.618H612.083V249.005H618.606ZM635.608 229.203H639.335V238.755H652.382V229.203H656.11V252.5H652.382V242.249H639.335V252.5H635.608V229.203ZM666.364 229.203H670.092V237.124H675.683C677.019 237.124 678.23 237.326 679.317 237.729C680.405 238.133 681.336 238.692 682.113 239.407C682.89 240.09 683.48 240.898 683.884 241.83C684.318 242.762 684.536 243.756 684.536 244.812C684.536 245.868 684.318 246.862 683.884 247.794C683.48 248.726 682.89 249.549 682.113 250.263C681.336 250.947 680.405 251.49 679.317 251.894C678.23 252.298 677.019 252.5 675.683 252.5H666.364V229.203ZM675.683 249.005C677.329 249.005 678.587 248.602 679.457 247.794C680.358 246.986 680.808 245.992 680.808 244.812C680.808 243.631 680.358 242.637 679.457 241.83C678.587 241.022 677.329 240.618 675.683 240.618H670.092V249.005H675.683ZM687.565 229.203H691.292V252.5H687.565V229.203ZM701.534 229.203H705.261V246.676L705.215 247.142H705.308L717.842 229.203H722.036V252.5H718.308V235.027L718.355 234.561H718.261L705.727 252.5H701.534V229.203ZM711.785 223.611C709.548 223.611 707.824 223.052 706.613 221.934C705.401 220.816 704.795 219.433 704.795 217.787H708.29C708.29 218.595 708.57 219.262 709.129 219.791C709.719 220.319 710.604 220.583 711.785 220.583C712.965 220.583 713.835 220.319 714.394 219.791C714.984 219.262 715.279 218.595 715.279 217.787H718.774C718.774 219.433 718.168 220.816 716.957 221.934C715.745 223.052 714.021 223.611 711.785 223.611ZM746.048 249.005H748.611L753.969 229.203H763.754L769.113 249.005H771.675V257.858H767.948V252.5H749.776V257.858H746.048V249.005ZM765.385 249.005L760.958 232.697H756.765L752.338 249.005H765.385ZM778.877 229.203H782.605V246.676L782.558 247.142H782.652L795.185 229.203H799.379V252.5H795.651V235.027L795.698 234.561H795.605L783.071 252.5H778.877V229.203ZM817.555 252.966C816.374 252.966 815.334 252.857 814.433 252.64C813.532 252.422 812.724 252.143 812.01 251.801C811.326 251.428 810.721 251.009 810.193 250.543C809.696 250.077 809.276 249.611 808.935 249.145C808.127 248.027 807.583 246.738 807.304 245.278H811.031C811.218 246.085 811.575 246.784 812.103 247.375C812.538 247.903 813.175 248.384 814.013 248.819C814.883 249.254 816.064 249.471 817.555 249.471C819.543 249.471 821.003 249.083 821.935 248.306C822.897 247.53 823.379 246.676 823.379 245.744C823.379 244.812 822.944 244.004 822.074 243.321C821.205 242.606 819.776 242.249 817.788 242.249H814.992V238.755H817.788C819.651 238.755 820.972 238.444 821.748 237.823C822.525 237.201 822.913 236.425 822.913 235.493C822.913 234.685 822.478 233.94 821.608 233.256C820.77 232.573 819.418 232.231 817.555 232.231C816.312 232.231 815.318 232.418 814.573 232.79C813.827 233.163 813.237 233.567 812.802 234.002C812.305 234.53 811.948 235.105 811.73 235.726H808.003C808.282 234.421 808.826 233.256 809.634 232.231C809.975 231.796 810.379 231.377 810.845 230.973C811.311 230.538 811.87 230.166 812.522 229.855C813.175 229.513 813.905 229.249 814.712 229.063C815.551 228.845 816.498 228.737 817.555 228.737C819.077 228.737 820.397 228.923 821.515 229.296C822.664 229.638 823.612 230.103 824.357 230.694C825.134 231.284 825.709 231.983 826.081 232.79C826.454 233.567 826.641 234.39 826.641 235.26C826.641 236.254 826.454 237.077 826.081 237.729C825.709 238.382 825.274 238.91 824.777 239.314C824.311 239.686 823.86 239.951 823.426 240.106C823.022 240.261 822.773 240.354 822.68 240.385V240.432C822.742 240.432 823.006 240.51 823.472 240.665C823.938 240.82 824.435 241.115 824.963 241.55C825.522 241.954 826.019 242.513 826.454 243.228C826.889 243.942 827.107 244.858 827.107 245.977C827.107 246.909 826.905 247.794 826.501 248.633C826.097 249.471 825.491 250.217 824.684 250.869C823.876 251.522 822.882 252.034 821.702 252.407C820.521 252.78 819.139 252.966 817.555 252.966ZM845.761 252.966C844.239 252.966 842.794 252.671 841.427 252.081C840.092 251.459 838.911 250.621 837.886 249.565C836.861 248.477 836.054 247.188 835.463 245.697C834.873 244.206 834.578 242.591 834.578 240.851C834.578 239.112 834.873 237.497 835.463 236.005C836.054 234.514 836.861 233.241 837.886 232.185C838.911 231.098 840.092 230.259 841.427 229.669C842.794 229.047 844.239 228.737 845.761 228.737C847.283 228.737 848.572 228.954 849.628 229.389C850.684 229.824 851.538 230.305 852.191 230.833C852.874 231.362 853.356 231.859 853.635 232.325C853.946 232.759 854.101 232.977 854.101 232.977H854.148V229.203H857.875V252.5H854.148V248.772H854.101C854.101 248.772 853.946 249.005 853.635 249.471C853.356 249.906 852.874 250.388 852.191 250.916C851.538 251.413 850.684 251.879 849.628 252.314C848.572 252.749 847.283 252.966 845.761 252.966ZM846.227 249.471C847.345 249.471 848.386 249.269 849.349 248.866C850.311 248.431 851.15 247.841 851.865 247.095C852.579 246.318 853.138 245.402 853.542 244.346C853.946 243.29 854.148 242.125 854.148 240.851C854.148 239.578 853.946 238.413 853.542 237.357C853.138 236.301 852.579 235.4 851.865 234.654C851.15 233.878 850.311 233.287 849.349 232.884C848.386 232.449 847.345 232.231 846.227 232.231C845.108 232.231 844.068 232.449 843.105 232.884C842.142 233.287 841.303 233.878 840.589 234.654C839.874 235.4 839.315 236.301 838.911 237.357C838.508 238.413 838.306 239.578 838.306 240.851C838.306 242.125 838.508 243.29 838.911 244.346C839.315 245.402 839.874 246.318 840.589 247.095C841.303 247.841 842.142 248.431 843.105 248.866C844.068 249.269 845.108 249.471 846.227 249.471ZM868.143 229.203H871.87V246.676L871.824 247.142H871.917L884.451 229.203H888.644V252.5H884.917V235.027L884.963 234.561H884.87L872.336 252.5H868.143V229.203ZM878.393 223.611C876.157 223.611 874.433 223.052 873.221 221.934C872.01 220.816 871.404 219.433 871.404 217.787H874.899C874.899 218.595 875.178 219.262 875.737 219.791C876.328 220.319 877.213 220.583 878.393 220.583C879.574 220.583 880.444 220.319 881.003 219.791C881.593 219.262 881.888 218.595 881.888 217.787H885.383C885.383 219.433 884.777 220.816 883.565 221.934C882.354 223.052 880.63 223.611 878.393 223.611ZM898.899 229.203H902.626V238.755H915.673V229.203H919.4V252.5H915.673V242.249H902.626V252.5H898.899V229.203ZM102.854 310.966C101.208 310.966 99.6703 310.671 98.2414 310.081C96.8435 309.459 95.6165 308.621 94.5604 307.565C93.5353 306.477 92.7121 305.188 92.0909 303.697C91.5007 302.206 91.2056 300.591 91.2056 298.851C91.2056 297.112 91.5007 295.497 92.0909 294.005C92.7121 292.514 93.5353 291.241 94.5604 290.185C95.6165 289.098 96.8435 288.259 98.2414 287.669C99.6703 287.047 101.208 286.737 102.854 286.737C104.004 286.737 105.044 286.861 105.976 287.109C106.939 287.327 107.793 287.638 108.539 288.041C109.284 288.414 109.937 288.849 110.496 289.346C111.055 289.843 111.536 290.34 111.94 290.837C112.903 292.049 113.602 293.4 114.037 294.891H110.309C109.937 294.021 109.424 293.244 108.772 292.561C108.213 291.971 107.452 291.443 106.489 290.977C105.526 290.48 104.314 290.231 102.854 290.231C101.736 290.231 100.695 290.449 99.7324 290.884C98.7695 291.287 97.9307 291.878 97.2163 292.654C96.5018 293.4 95.9427 294.301 95.5389 295.357C95.1351 296.413 94.9332 297.578 94.9332 298.851C94.9332 300.156 95.1506 301.336 95.5855 302.393C96.0204 303.449 96.595 304.35 97.3095 305.095C98.0239 305.841 98.8626 306.431 99.8256 306.866C100.789 307.269 101.798 307.471 102.854 307.471C104.376 307.471 105.619 307.207 106.582 306.679C107.576 306.151 108.368 305.561 108.958 304.909C109.642 304.163 110.17 303.309 110.542 302.346H114.27C113.835 303.992 113.121 305.437 112.127 306.679C111.692 307.207 111.195 307.735 110.636 308.263C110.076 308.76 109.409 309.211 108.632 309.615C107.886 310.019 107.032 310.345 106.069 310.593C105.106 310.842 104.035 310.966 102.854 310.966ZM132.462 310.966C130.94 310.966 129.495 310.671 128.129 310.081C126.793 309.459 125.612 308.621 124.587 307.565C123.562 306.477 122.755 305.188 122.164 303.697C121.574 302.206 121.279 300.591 121.279 298.851C121.279 297.112 121.574 295.497 122.164 294.005C122.755 292.514 123.562 291.241 124.587 290.185C125.612 289.098 126.793 288.259 128.129 287.669C129.495 287.047 130.94 286.737 132.462 286.737C133.984 286.737 135.273 286.954 136.329 287.389C137.385 287.824 138.24 288.305 138.892 288.833C139.575 289.362 140.057 289.859 140.336 290.325C140.647 290.759 140.802 290.977 140.802 290.977H140.849V287.203H144.577V310.5H140.849V306.772H140.802C140.802 306.772 140.647 307.005 140.336 307.471C140.057 307.906 139.575 308.388 138.892 308.916C138.24 309.413 137.385 309.879 136.329 310.314C135.273 310.749 133.984 310.966 132.462 310.966ZM132.928 307.471C134.046 307.471 135.087 307.269 136.05 306.866C137.013 306.431 137.851 305.841 138.566 305.095C139.28 304.318 139.839 303.402 140.243 302.346C140.647 301.29 140.849 300.125 140.849 298.851C140.849 297.578 140.647 296.413 140.243 295.357C139.839 294.301 139.28 293.4 138.566 292.654C137.851 291.878 137.013 291.287 136.05 290.884C135.087 290.449 134.046 290.231 132.928 290.231C131.81 290.231 130.769 290.449 129.806 290.884C128.843 291.287 128.004 291.878 127.29 292.654C126.575 293.4 126.016 294.301 125.612 295.357C125.209 296.413 125.007 297.578 125.007 298.851C125.007 300.125 125.209 301.29 125.612 302.346C126.016 303.402 126.575 304.318 127.29 305.095C128.004 305.841 128.843 306.431 129.806 306.866C130.769 307.269 131.81 307.471 132.928 307.471ZM154.844 287.203H160.435L167.424 301.647H168.589L175.578 287.203H181.17V310.5H177.442V291.862L177.489 291.396H177.396L170.453 305.841H165.56L158.618 291.396H158.525L158.571 291.862V310.5H154.844V287.203ZM202.141 310.966C200.401 310.966 198.786 310.671 197.295 310.081C195.804 309.459 194.515 308.621 193.428 307.565C192.372 306.477 191.533 305.188 190.912 303.697C190.321 302.206 190.026 300.591 190.026 298.851C190.026 297.112 190.321 295.497 190.912 294.005C191.533 292.514 192.372 291.241 193.428 290.185C194.515 289.098 195.804 288.259 197.295 287.669C198.786 287.047 200.401 286.737 202.141 286.737C203.88 286.737 205.496 287.047 206.987 287.669C208.478 288.259 209.751 289.098 210.808 290.185C211.895 291.241 212.733 292.514 213.324 294.005C213.945 295.497 214.256 297.112 214.256 298.851C214.256 300.591 213.945 302.206 213.324 303.697C212.733 305.188 211.895 306.477 210.808 307.565C209.751 308.621 208.478 309.459 206.987 310.081C205.496 310.671 203.88 310.966 202.141 310.966ZM202.141 307.471C203.352 307.471 204.471 307.269 205.496 306.866C206.521 306.431 207.406 305.841 208.152 305.095C208.897 304.318 209.472 303.402 209.876 302.346C210.311 301.29 210.528 300.125 210.528 298.851C210.528 297.578 210.311 296.413 209.876 295.357C209.472 294.301 208.897 293.4 208.152 292.654C207.406 291.878 206.521 291.287 205.496 290.884C204.471 290.449 203.352 290.231 202.141 290.231C200.929 290.231 199.811 290.449 198.786 290.884C197.761 291.287 196.876 291.878 196.13 292.654C195.385 293.4 194.795 294.301 194.36 295.357C193.956 296.413 193.754 297.578 193.754 298.851C193.754 300.125 193.956 301.29 194.36 302.346C194.795 303.402 195.385 304.318 196.13 305.095C196.876 305.841 197.761 306.431 198.786 306.866C199.811 307.269 200.929 307.471 202.141 307.471ZM223.09 287.203H226.818V304.676L226.771 305.142H226.865L239.398 287.203H243.592V310.5H239.864V293.027L239.911 292.561H239.818L227.284 310.5H223.09V287.203ZM233.341 281.611C231.105 281.611 229.381 281.052 228.169 279.934C226.958 278.816 226.352 277.433 226.352 275.787H229.847C229.847 276.595 230.126 277.262 230.685 277.791C231.275 278.319 232.161 278.583 233.341 278.583C234.522 278.583 235.391 278.319 235.95 277.791C236.541 277.262 236.836 276.595 236.836 275.787H240.33C240.33 277.433 239.725 278.816 238.513 279.934C237.302 281.052 235.578 281.611 233.341 281.611ZM280.884 310.966C279.238 310.966 277.7 310.671 276.271 310.081C274.873 309.459 273.646 308.621 272.59 307.565C271.565 306.477 270.742 305.188 270.121 303.697C269.531 302.206 269.235 300.591 269.235 298.851C269.235 297.112 269.531 295.497 270.121 294.005C270.742 292.514 271.565 291.241 272.59 290.185C273.646 289.098 274.873 288.259 276.271 287.669C277.7 287.047 279.238 286.737 280.884 286.737C282.033 286.737 283.074 286.861 284.006 287.109C284.969 287.327 285.823 287.638 286.569 288.041C287.314 288.414 287.967 288.849 288.526 289.346C289.085 289.843 289.566 290.34 289.97 290.837C290.933 292.049 291.632 293.4 292.067 294.891H288.339C287.967 294.021 287.454 293.244 286.802 292.561C286.243 291.971 285.481 291.443 284.518 290.977C283.556 290.48 282.344 290.231 280.884 290.231C279.766 290.231 278.725 290.449 277.762 290.884C276.799 291.287 275.961 291.878 275.246 292.654C274.532 293.4 273.973 294.301 273.569 295.357C273.165 296.413 272.963 297.578 272.963 298.851C272.963 300.156 273.18 301.336 273.615 302.393C274.05 303.449 274.625 304.35 275.339 305.095C276.054 305.841 276.893 306.431 277.855 306.866C278.818 307.269 279.828 307.471 280.884 307.471C282.406 307.471 283.649 307.207 284.612 306.679C285.606 306.151 286.398 305.561 286.988 304.909C287.671 304.163 288.199 303.309 288.572 302.346H292.3C291.865 303.992 291.15 305.437 290.156 306.679C289.722 307.207 289.225 307.735 288.665 308.263C288.106 308.76 287.438 309.211 286.662 309.615C285.916 310.019 285.062 310.345 284.099 310.593C283.136 310.842 282.065 310.966 280.884 310.966ZM319.811 310.5H300.707V287.203H304.434V307.005H316.549V287.203H320.277V307.005H323.538V315.858H319.811V310.5ZM341.719 310.966C340.042 310.966 338.473 310.671 337.013 310.081C335.553 309.459 334.295 308.621 333.239 307.565C332.183 306.477 331.344 305.188 330.723 303.697C330.133 302.206 329.838 300.591 329.838 298.851C329.838 297.112 330.133 295.497 330.723 294.005C331.344 292.514 332.183 291.241 333.239 290.185C334.295 289.098 335.553 288.259 337.013 287.669C338.473 287.047 340.042 286.737 341.719 286.737C343.397 286.737 344.965 287.047 346.425 287.669C347.885 288.259 349.143 289.082 350.2 290.138C351.256 291.194 352.079 292.452 352.669 293.912C353.29 295.372 353.601 296.941 353.601 298.618V300.016H333.565C333.689 301.103 333.985 302.113 334.451 303.045C334.916 303.946 335.507 304.722 336.221 305.375C336.936 306.027 337.759 306.539 338.691 306.912C339.654 307.285 340.663 307.471 341.719 307.471C343.117 307.471 344.298 307.254 345.26 306.819C346.223 306.384 347.016 305.903 347.637 305.375C348.351 304.784 348.941 304.085 349.407 303.278H353.135C352.576 304.738 351.784 306.027 350.759 307.145C349.858 308.108 348.677 308.993 347.217 309.801C345.757 310.578 343.925 310.966 341.719 310.966ZM349.64 296.755C349.516 295.885 349.237 295.062 348.802 294.285C348.398 293.477 347.854 292.778 347.171 292.188C346.487 291.598 345.68 291.132 344.748 290.79C343.847 290.418 342.838 290.231 341.719 290.231C340.601 290.231 339.576 290.418 338.644 290.79C337.743 291.132 336.936 291.598 336.221 292.188C335.538 292.778 334.979 293.477 334.544 294.285C334.109 295.062 333.814 295.885 333.658 296.755H349.64ZM362.447 287.203H366.174V296.755H379.221V287.203H382.948V310.5H379.221V300.249H366.174V310.5H362.447V287.203ZM393.203 287.203H396.93V295.124H402.522C403.857 295.124 405.069 295.326 406.156 295.729C407.243 296.133 408.175 296.692 408.952 297.407C409.728 298.09 410.319 298.898 410.722 299.83C411.157 300.762 411.375 301.756 411.375 302.812C411.375 303.868 411.157 304.862 410.722 305.794C410.319 306.726 409.728 307.549 408.952 308.263C408.175 308.947 407.243 309.49 406.156 309.894C405.069 310.298 403.857 310.5 402.522 310.5H393.203V287.203ZM402.522 307.005C404.168 307.005 405.426 306.602 406.296 305.794C407.197 304.986 407.647 303.992 407.647 302.812C407.647 301.631 407.197 300.637 406.296 299.83C405.426 299.022 404.168 298.618 402.522 298.618H396.93V307.005H402.522ZM414.403 287.203H418.131V310.5H414.403V287.203ZM427.441 314.461C429.305 314.243 430.236 313.234 430.236 311.432V310.733C430.174 310.795 430.081 310.842 429.957 310.873C429.708 310.935 429.491 310.966 429.305 310.966C428.714 310.966 428.217 310.749 427.813 310.314C427.41 309.879 427.208 309.289 427.208 308.543C427.208 307.642 427.472 306.928 428 306.4C428.528 305.872 429.196 305.608 430.003 305.608C430.811 305.608 431.479 305.934 432.007 306.586C432.535 307.207 432.799 308.279 432.799 309.801C432.799 311.913 432.318 313.498 431.355 314.554C430.392 315.61 429.087 316.2 427.441 316.324V314.461ZM462.398 283.009L456.573 287.436V282.776L462.864 277.884H466.591V310.5H462.398V283.009ZM491.301 311.432C489.313 311.432 487.434 311.028 485.663 310.22C483.892 309.413 482.339 308.263 481.003 306.772C479.668 305.25 478.596 303.433 477.788 301.321C477.012 299.177 476.624 296.801 476.624 294.192C476.624 291.583 477.012 289.222 477.788 287.109C478.596 284.966 479.668 283.149 481.003 281.658C482.339 280.136 483.892 278.971 485.663 278.163C487.434 277.356 489.313 276.952 491.301 276.952C493.289 276.952 495.168 277.356 496.939 278.163C498.709 278.971 500.263 280.136 501.598 281.658C502.934 283.149 503.99 284.966 504.767 287.109C505.574 289.222 505.978 291.583 505.978 294.192C505.978 296.801 505.574 299.177 504.767 301.321C503.99 303.433 502.934 305.25 501.598 306.772C500.263 308.263 498.709 309.413 496.939 310.22C495.168 311.028 493.289 311.432 491.301 311.432ZM491.301 307.471C492.761 307.471 494.128 307.192 495.401 306.633C496.675 306.042 497.778 305.188 498.709 304.07C499.672 302.952 500.418 301.569 500.946 299.923C501.505 298.246 501.785 296.335 501.785 294.192C501.785 292.049 501.505 290.154 500.946 288.507C500.418 286.83 499.672 285.432 498.709 284.314C497.778 283.196 496.675 282.357 495.401 281.798C494.128 281.207 492.761 280.912 491.301 280.912C489.841 280.912 488.474 281.207 487.201 281.798C485.927 282.357 484.809 283.196 483.846 284.314C482.914 285.432 482.168 286.83 481.609 288.507C481.081 290.154 480.817 292.049 480.817 294.192C480.817 296.335 481.081 298.246 481.609 299.923C482.168 301.569 482.914 302.952 483.846 304.07C484.809 305.188 485.927 306.042 487.201 306.633C488.474 307.192 489.841 307.471 491.301 307.471ZM524.86 277.884H529.054L516.473 310.5H512.279L524.86 277.884ZM539.787 283.009L533.962 287.436V282.776L540.253 277.884H543.98V310.5H539.787V283.009ZM568.69 311.432C566.702 311.432 564.823 311.028 563.052 310.22C561.281 309.413 559.728 308.263 558.392 306.772C557.057 305.25 555.985 303.433 555.177 301.321C554.401 299.177 554.013 296.801 554.013 294.192C554.013 291.583 554.401 289.222 555.177 287.109C555.985 284.966 557.057 283.149 558.392 281.658C559.728 280.136 561.281 278.971 563.052 278.163C564.823 277.356 566.702 276.952 568.69 276.952C570.678 276.952 572.557 277.356 574.328 278.163C576.098 278.971 577.652 280.136 578.987 281.658C580.323 283.149 581.379 284.966 582.156 287.109C582.963 289.222 583.367 291.583 583.367 294.192C583.367 296.801 582.963 299.177 582.156 301.321C581.379 303.433 580.323 305.25 578.987 306.772C577.652 308.263 576.098 309.413 574.328 310.22C572.557 311.028 570.678 311.432 568.69 311.432ZM568.69 307.471C570.15 307.471 571.517 307.192 572.79 306.633C574.064 306.042 575.167 305.188 576.098 304.07C577.061 302.952 577.807 301.569 578.335 299.923C578.894 298.246 579.174 296.335 579.174 294.192C579.174 292.049 578.894 290.154 578.335 288.507C577.807 286.83 577.061 285.432 576.098 284.314C575.167 283.196 574.064 282.357 572.79 281.798C571.517 281.207 570.15 280.912 568.69 280.912C567.23 280.912 565.863 281.207 564.59 281.798C563.316 282.357 562.198 283.196 561.235 284.314C560.303 285.432 559.557 286.83 558.998 288.507C558.47 290.154 558.206 292.049 558.206 294.192C558.206 296.335 558.47 298.246 558.998 299.923C559.557 301.569 560.303 302.952 561.235 304.07C562.198 305.188 563.316 306.042 564.59 306.633C565.863 307.192 567.23 307.471 568.69 307.471ZM147.611 393.884H160.424L168.811 426.5H164.618L162.055 416.948H145.98L143.417 426.5H139.224L147.611 393.884ZM161.123 412.988L157.163 397.844H150.872L146.912 412.988H161.123ZM176.723 403.203H180.451V406.93H180.497C180.497 406.93 180.637 406.713 180.917 406.278C181.227 405.812 181.709 405.33 182.361 404.833C183.045 404.305 183.914 403.824 184.97 403.389C186.027 402.954 187.316 402.737 188.838 402.737C190.36 402.737 191.789 403.047 193.125 403.669C194.491 404.259 195.687 405.098 196.712 406.185C197.737 407.241 198.545 408.514 199.135 410.005C199.725 411.497 200.021 413.112 200.021 414.851C200.021 416.591 199.725 418.206 199.135 419.697C198.545 421.188 197.737 422.477 196.712 423.565C195.687 424.621 194.491 425.459 193.125 426.081C191.789 426.671 190.36 426.966 188.838 426.966C187.316 426.966 186.027 426.749 184.97 426.314C183.914 425.879 183.045 425.413 182.361 424.916C181.709 424.388 181.227 423.906 180.917 423.471C180.637 423.005 180.497 422.772 180.497 422.772H180.451V435.353H176.723V403.203ZM188.372 423.471C189.49 423.471 190.531 423.269 191.494 422.866C192.457 422.431 193.295 421.841 194.01 421.095C194.724 420.318 195.283 419.402 195.687 418.346C196.091 417.29 196.293 416.125 196.293 414.851C196.293 413.578 196.091 412.413 195.687 411.357C195.283 410.301 194.724 409.4 194.01 408.654C193.295 407.878 192.457 407.287 191.494 406.884C190.531 406.449 189.49 406.231 188.372 406.231C187.254 406.231 186.213 406.449 185.25 406.884C184.287 407.287 183.448 407.878 182.734 408.654C182.019 409.4 181.46 410.301 181.056 411.357C180.653 412.413 180.451 413.578 180.451 414.851C180.451 416.125 180.653 417.29 181.056 418.346C181.46 419.402 182.019 420.318 182.734 421.095C183.448 421.841 184.287 422.431 185.25 422.866C186.213 423.269 187.254 423.471 188.372 423.471ZM214.015 406.697H205.861V403.203H225.897V406.697H217.743V426.5H214.015V406.697ZM243.623 426.966C241.946 426.966 240.377 426.671 238.917 426.081C237.457 425.459 236.199 424.621 235.143 423.565C234.087 422.477 233.248 421.188 232.627 419.697C232.036 418.206 231.741 416.591 231.741 414.851C231.741 413.112 232.036 411.497 232.627 410.005C233.248 408.514 234.087 407.241 235.143 406.185C236.199 405.098 237.457 404.259 238.917 403.669C240.377 403.047 241.946 402.737 243.623 402.737C245.3 402.737 246.869 403.047 248.329 403.669C249.789 404.259 251.047 405.082 252.103 406.138C253.159 407.194 253.982 408.452 254.573 409.912C255.194 411.372 255.505 412.941 255.505 414.618V416.016H235.469C235.593 417.103 235.888 418.113 236.354 419.045C236.82 419.946 237.41 420.722 238.125 421.375C238.839 422.027 239.662 422.539 240.594 422.912C241.557 423.285 242.567 423.471 243.623 423.471C245.021 423.471 246.201 423.254 247.164 422.819C248.127 422.384 248.919 421.903 249.54 421.375C250.255 420.784 250.845 420.085 251.311 419.278H255.039C254.479 420.738 253.687 422.027 252.662 423.145C251.761 424.108 250.581 424.993 249.121 425.801C247.661 426.578 245.828 426.966 243.623 426.966ZM251.544 412.755C251.42 411.885 251.14 411.062 250.705 410.285C250.302 409.477 249.758 408.778 249.075 408.188C248.391 407.598 247.583 407.132 246.652 406.79C245.751 406.418 244.741 406.231 243.623 406.231C242.505 406.231 241.48 406.418 240.548 406.79C239.647 407.132 238.839 407.598 238.125 408.188C237.441 408.778 236.882 409.477 236.447 410.285C236.012 411.062 235.717 411.885 235.562 412.755H251.544ZM264.35 403.203H269.942L276.931 417.647H278.096L285.085 403.203H290.676V426.5H286.949V407.862L286.995 407.396H286.902L279.959 421.841H275.067L268.124 407.396H268.031L268.078 407.862V426.5H264.35V403.203Z" fill="white"/>
<defs>
<filter id="filter0_b_268_139" x="-29.6582" y="-29.5" width="1018" height="550" filterUnits="userSpaceOnUse" color-interpolation-filters="sRGB">
<feFlood flood-opacity="0" result="BackgroundImageFix"/>
<feGaussianBlur in="BackgroundImageFix" stdDeviation="15"/>
<feComposite in2="SourceAlpha" operator="in" result="effect1_backgroundBlur_268_139"/>
<feBlend mode="normal" in="SourceGraphic" in2="effect1_backgroundBlur_268_139" result="shape"/>
</filter>
</defs>
</svg>
