<svg width="1151" height="397" viewBox="0 0 1151 397" fill="none" xmlns="http://www.w3.org/2000/svg">
<rect width="1151" height="397" rx="53" fill="#FC5812"/>
<path d="M179.348 258.946C172.179 258.946 165.845 258.062 160.345 256.295C154.846 254.527 150.23 252.17 146.498 249.224C142.767 246.278 139.919 242.89 137.955 239.06C136.089 235.23 135.156 231.302 135.156 227.275C135.156 221.972 136.236 217.7 138.396 214.46C140.655 211.121 143.11 208.567 145.762 206.8C148.904 204.737 152.489 203.215 156.515 202.233V200.76C153.373 199.582 150.525 198.01 147.971 196.046C145.811 194.377 143.847 192.167 142.079 189.417C140.41 186.57 139.575 182.985 139.575 178.664C139.575 175.031 140.41 171.495 142.079 168.058C143.847 164.523 146.4 161.429 149.739 158.778C153.176 156.126 157.35 154.015 162.26 152.444C167.17 150.774 172.866 149.939 179.348 149.939C185.829 149.939 191.525 150.774 196.435 152.444C201.345 154.015 205.47 156.126 208.809 158.778C212.246 161.429 214.799 164.523 216.469 168.058C218.237 171.495 219.12 175.031 219.12 178.664C219.12 182.985 218.237 186.57 216.469 189.417C214.701 192.167 212.737 194.377 210.577 196.046C208.023 198.01 205.225 199.582 202.18 200.76V202.233C206.108 203.215 209.644 204.737 212.786 206.8C215.438 208.567 217.893 211.121 220.152 214.46C222.41 217.7 223.54 221.972 223.54 227.275C223.54 231.302 222.558 235.23 220.594 239.06C218.728 242.89 215.929 246.278 212.197 249.224C208.465 252.17 203.85 254.527 198.35 256.295C192.851 258.062 186.517 258.946 179.348 258.946ZM179.348 238.323C186.713 238.323 191.967 237.047 195.109 234.493C198.35 231.94 199.971 228.797 199.971 225.066C199.971 221.334 198.35 218.191 195.109 215.638C191.967 213.085 186.713 211.808 179.348 211.808C171.982 211.808 166.679 213.085 163.439 215.638C160.296 218.191 158.725 221.334 158.725 225.066C158.725 228.797 160.296 231.94 163.439 234.493C166.679 237.047 171.982 238.323 179.348 238.323ZM179.348 192.658C184.945 192.658 189.021 191.578 191.574 189.417C194.226 187.159 195.551 184.556 195.551 181.61C195.551 178.664 194.226 176.111 191.574 173.95C189.021 171.692 184.945 170.562 179.348 170.562C173.75 170.562 169.625 171.692 166.974 173.95C164.421 176.111 163.144 178.664 163.144 181.61C163.144 184.556 164.421 187.159 166.974 189.417C169.625 191.578 173.75 192.658 179.348 192.658ZM288.343 226.539L294.972 221.383V220.646C294.088 221.236 293.008 221.727 291.731 222.119C290.651 222.512 289.276 222.856 287.606 223.151C285.937 223.445 283.973 223.593 281.714 223.593C276.804 223.593 272.139 222.66 267.72 220.794C263.399 218.928 259.569 216.375 256.23 213.134C252.989 209.893 250.387 206.112 248.423 201.791C246.557 197.372 245.624 192.609 245.624 187.502C245.624 182.396 246.606 177.584 248.57 173.066C250.633 168.451 253.53 164.424 257.261 160.987C260.993 157.55 265.461 154.85 270.666 152.885C275.969 150.921 281.862 149.939 288.343 149.939C294.825 149.939 300.668 150.921 305.872 152.885C311.176 154.85 315.693 157.55 319.425 160.987C323.156 164.424 326.004 168.451 327.968 173.066C330.031 177.682 331.062 182.592 331.062 187.797C331.062 191.431 330.522 194.966 329.442 198.403C328.459 201.742 327.134 205.032 325.464 208.273C323.893 211.513 322.027 214.656 319.867 217.7C317.706 220.745 315.546 223.691 313.385 226.539L290.553 256H265.511L288.343 226.539ZM288.343 204.443C294.235 204.443 298.9 202.822 302.337 199.582C305.774 196.341 307.493 192.314 307.493 187.502C307.493 182.69 305.774 178.664 302.337 175.423C298.9 172.183 294.235 170.562 288.343 170.562C282.451 170.562 277.786 172.183 274.349 175.423C270.912 178.664 269.193 182.69 269.193 187.502C269.193 192.314 270.912 196.341 274.349 199.582C277.786 202.822 282.451 204.443 288.343 204.443ZM428.215 152.885H445.155L383.287 256H366.346L428.215 152.885ZM434.107 257.473C430.572 257.473 427.282 256.835 424.238 255.558C421.194 254.281 418.542 252.514 416.283 250.255C414.025 247.996 412.257 245.345 410.98 242.3C409.704 239.256 409.065 235.966 409.065 232.431C409.065 228.896 409.704 225.606 410.98 222.561C412.257 219.517 414.025 216.866 416.283 214.607C418.542 212.348 421.194 210.58 424.238 209.304C427.282 208.027 430.572 207.389 434.107 207.389C437.643 207.389 440.933 208.027 443.977 209.304C447.021 210.58 449.673 212.348 451.932 214.607C454.19 216.866 455.958 219.517 457.235 222.561C458.511 225.606 459.15 228.896 459.15 232.431C459.15 235.966 458.511 239.256 457.235 242.3C455.958 245.345 454.19 247.996 451.932 250.255C449.673 252.514 447.021 254.281 443.977 255.558C440.933 256.835 437.643 257.473 434.107 257.473ZM434.107 242.742C437.054 242.742 439.509 241.76 441.473 239.796C443.437 237.832 444.419 235.377 444.419 232.431C444.419 229.485 443.437 227.03 441.473 225.066C439.509 223.102 437.054 222.119 434.107 222.119C431.161 222.119 428.706 223.102 426.742 225.066C424.778 227.03 423.796 229.485 423.796 232.431C423.796 235.377 424.778 237.832 426.742 239.796C428.706 241.76 431.161 242.742 434.107 242.742ZM377.394 201.497C373.859 201.497 370.569 200.858 367.525 199.582C364.481 198.305 361.829 196.537 359.57 194.279C357.312 192.02 355.544 189.368 354.267 186.324C352.991 183.28 352.352 179.99 352.352 176.454C352.352 172.919 352.991 169.629 354.267 166.585C355.544 163.541 357.312 160.889 359.57 158.63C361.829 156.372 364.481 154.604 367.525 153.327C370.569 152.051 373.859 151.412 377.394 151.412C380.93 151.412 384.22 152.051 387.264 153.327C390.308 154.604 392.96 156.372 395.219 158.63C397.477 160.889 399.245 163.541 400.522 166.585C401.798 169.629 402.437 172.919 402.437 176.454C402.437 179.99 401.798 183.28 400.522 186.324C399.245 189.368 397.477 192.02 395.219 194.279C392.96 196.537 390.308 198.305 387.264 199.582C384.22 200.858 380.93 201.497 377.394 201.497ZM377.394 186.766C380.341 186.766 382.796 185.784 384.76 183.82C386.724 181.856 387.706 179.401 387.706 176.454C387.706 173.508 386.724 171.053 384.76 169.089C382.796 167.125 380.341 166.143 377.394 166.143C374.448 166.143 371.993 167.125 370.029 169.089C368.065 171.053 367.083 173.508 367.083 176.454C367.083 179.401 368.065 181.856 370.029 183.82C371.993 185.784 374.448 186.766 377.394 186.766Z" fill="white"/>
<path d="M512.156 146.673H525.093V150.087H515.929V165H512.156V146.673ZM538.917 165.359C537.576 165.359 536.318 165.12 535.144 164.641C533.994 164.138 532.988 163.467 532.125 162.628C531.287 161.766 530.616 160.76 530.113 159.61C529.634 158.436 529.394 157.178 529.394 155.836C529.394 154.495 529.634 153.249 530.113 152.099C530.616 150.925 531.287 149.919 532.125 149.08C532.988 148.218 533.994 147.547 535.144 147.068C536.318 146.565 537.576 146.313 538.917 146.313C540.259 146.313 541.505 146.565 542.655 147.068C543.828 147.547 544.835 148.218 545.673 149.08C546.536 149.919 547.206 150.925 547.686 152.099C548.189 153.249 548.44 154.495 548.44 155.836C548.44 157.178 548.189 158.436 547.686 159.61C547.206 160.76 546.536 161.766 545.673 162.628C544.835 163.467 543.828 164.138 542.655 164.641C541.505 165.12 540.259 165.359 538.917 165.359ZM538.917 161.945C539.732 161.945 540.474 161.802 541.145 161.514C541.84 161.227 542.427 160.819 542.906 160.292C543.409 159.765 543.793 159.13 544.056 158.388C544.344 157.621 544.487 156.771 544.487 155.836C544.487 154.902 544.344 154.063 544.056 153.321C543.793 152.554 543.409 151.907 542.906 151.38C542.427 150.853 541.84 150.446 541.145 150.158C540.474 149.871 539.732 149.727 538.917 149.727C538.103 149.727 537.348 149.871 536.653 150.158C535.982 150.446 535.395 150.853 534.892 151.38C534.413 151.907 534.03 152.554 533.742 153.321C533.479 154.063 533.347 154.902 533.347 155.836C533.347 156.771 533.479 157.621 533.742 158.388C534.03 159.13 534.413 159.765 534.892 160.292C535.395 160.819 535.982 161.227 536.653 161.514C537.348 161.802 538.103 161.945 538.917 161.945ZM562.629 165.359C561.336 165.359 560.126 165.132 559 164.677C557.874 164.197 556.904 163.539 556.089 162.7C555.274 161.838 554.628 160.831 554.148 159.681C553.693 158.508 553.466 157.226 553.466 155.836C553.466 154.447 553.693 153.177 554.148 152.027C554.628 150.853 555.274 149.847 556.089 149.009C556.904 148.146 557.874 147.487 559 147.032C560.126 146.553 561.336 146.313 562.629 146.313C563.54 146.313 564.366 146.409 565.109 146.601C565.852 146.792 566.51 147.044 567.085 147.355C567.684 147.667 568.199 148.026 568.631 148.434C569.062 148.841 569.445 149.248 569.781 149.655C570.547 150.614 571.098 151.716 571.434 152.961H567.481C567.289 152.363 566.978 151.823 566.546 151.344C566.187 150.937 565.696 150.566 565.073 150.23C564.45 149.895 563.636 149.727 562.629 149.727C561.911 149.727 561.228 149.871 560.581 150.158C559.958 150.446 559.407 150.853 558.928 151.38C558.473 151.907 558.101 152.554 557.814 153.321C557.55 154.063 557.419 154.902 557.419 155.836C557.419 156.771 557.55 157.621 557.814 158.388C558.101 159.13 558.473 159.765 558.928 160.292C559.407 160.819 559.958 161.227 560.581 161.514C561.228 161.802 561.911 161.945 562.629 161.945C563.659 161.945 564.498 161.778 565.145 161.442C565.792 161.107 566.307 160.736 566.69 160.328C567.121 159.873 567.445 159.334 567.66 158.711H571.434C571.098 159.981 570.547 161.095 569.781 162.053C569.445 162.461 569.062 162.868 568.631 163.275C568.199 163.658 567.684 164.006 567.085 164.317C566.51 164.629 565.852 164.88 565.109 165.072C564.366 165.264 563.54 165.359 562.629 165.359ZM581.484 150.087H575.375V146.673H591.367V150.087H585.258V165H581.484V150.087ZM604.846 165.359C603.552 165.359 602.33 165.12 601.18 164.641C600.054 164.138 599.06 163.467 598.197 162.628C597.359 161.766 596.7 160.76 596.221 159.61C595.742 158.436 595.502 157.178 595.502 155.836C595.502 154.495 595.742 153.249 596.221 152.099C596.7 150.925 597.359 149.919 598.197 149.08C599.06 148.218 600.054 147.547 601.18 147.068C602.33 146.565 603.552 146.313 604.846 146.313C606.139 146.313 607.349 146.565 608.475 147.068C609.625 147.547 610.619 148.218 611.458 149.08C612.32 149.919 612.991 150.925 613.47 152.099C613.949 153.249 614.189 154.495 614.189 155.836V157.094H599.276C599.419 157.861 599.659 158.544 599.994 159.142C600.33 159.741 600.749 160.256 601.252 160.688C601.755 161.095 602.306 161.406 602.905 161.622C603.528 161.838 604.175 161.945 604.846 161.945C605.78 161.945 606.583 161.826 607.253 161.586C607.924 161.323 608.463 161.023 608.87 160.688C609.35 160.328 609.745 159.909 610.056 159.43H614.009C613.554 160.556 612.919 161.55 612.105 162.413C611.745 162.772 611.338 163.131 610.883 163.491C610.428 163.85 609.901 164.173 609.302 164.461C608.703 164.724 608.032 164.94 607.289 165.108C606.547 165.276 605.732 165.359 604.846 165.359ZM610.236 154.04C610.14 153.512 609.961 152.985 609.697 152.458C609.433 151.931 609.074 151.476 608.619 151.093C608.164 150.686 607.625 150.362 607.002 150.123C606.379 149.859 605.66 149.727 604.846 149.727C604.223 149.727 603.612 149.823 603.013 150.015C602.438 150.206 601.899 150.494 601.396 150.877C600.917 151.237 600.509 151.692 600.174 152.243C599.839 152.77 599.599 153.369 599.455 154.04H610.236ZM620.301 146.673H624.074V158.891L624.038 159.25H624.398L632.699 146.673H636.831V165H633.058V152.782L633.094 152.422H632.735L624.434 165H620.301V146.673ZM628.566 142.72C626.674 142.72 625.272 142.288 624.362 141.426C623.451 140.54 622.996 139.414 622.996 138.048H626.051C626.051 138.671 626.242 139.162 626.626 139.521C627.009 139.857 627.656 140.025 628.566 140.025C629.477 140.025 630.123 139.857 630.507 139.521C630.89 139.162 631.082 138.671 631.082 138.048H634.136C634.136 139.414 633.681 140.54 632.771 141.426C631.86 142.288 630.459 142.72 628.566 142.72ZM665.054 165.18C663.784 165.084 662.598 164.772 661.496 164.245C660.394 163.718 659.424 163.036 658.585 162.197C657.747 161.358 657.088 160.4 656.609 159.322C656.13 158.22 655.89 157.058 655.89 155.836C655.89 154.615 656.13 153.465 656.609 152.386C657.088 151.284 657.747 150.314 658.585 149.476C659.424 148.637 660.394 147.954 661.496 147.427C662.598 146.9 663.784 146.589 665.054 146.493V139.845H668.827V146.493C670.073 146.589 671.247 146.9 672.349 147.427C673.475 147.954 674.457 148.637 675.296 149.476C676.134 150.314 676.793 151.284 677.272 152.386C677.751 153.465 677.991 154.615 677.991 155.836C677.991 157.058 677.751 158.22 677.272 159.322C676.793 160.4 676.134 161.358 675.296 162.197C674.457 163.036 673.475 163.718 672.349 164.245C671.247 164.772 670.073 165.084 668.827 165.18V171.828H665.054V165.18ZM665.054 149.907C664.335 150.003 663.652 150.206 663.005 150.518C662.383 150.829 661.832 151.237 661.352 151.74C660.897 152.243 660.526 152.842 660.238 153.536C659.975 154.207 659.843 154.974 659.843 155.836C659.843 156.699 659.975 157.477 660.238 158.172C660.526 158.843 660.897 159.43 661.352 159.933C661.832 160.436 662.383 160.843 663.005 161.155C663.652 161.466 664.335 161.67 665.054 161.766V149.907ZM668.827 161.766C669.546 161.67 670.217 161.466 670.839 161.155C671.486 160.843 672.037 160.436 672.493 159.933C672.972 159.43 673.343 158.843 673.607 158.172C673.894 157.477 674.038 156.699 674.038 155.836C674.038 154.974 673.894 154.207 673.607 153.536C673.343 152.842 672.972 152.243 672.493 151.74C672.037 151.237 671.486 150.829 670.839 150.518C670.217 150.206 669.546 150.003 668.827 149.907V161.766ZM692.358 165.359C691.064 165.359 689.843 165.12 688.693 164.641C687.567 164.138 686.572 163.467 685.71 162.628C684.871 161.766 684.213 160.76 683.733 159.61C683.254 158.436 683.015 157.178 683.015 155.836C683.015 154.495 683.254 153.249 683.733 152.099C684.213 150.925 684.871 149.919 685.71 149.08C686.572 148.218 687.567 147.547 688.693 147.068C689.843 146.565 691.064 146.313 692.358 146.313C693.652 146.313 694.862 146.565 695.988 147.068C697.138 147.547 698.132 148.218 698.97 149.08C699.833 149.919 700.504 150.925 700.983 152.099C701.462 153.249 701.701 154.495 701.701 155.836V157.094H686.788C686.932 157.861 687.171 158.544 687.507 159.142C687.842 159.741 688.261 160.256 688.764 160.688C689.268 161.095 689.819 161.406 690.418 161.622C691.04 161.838 691.687 161.945 692.358 161.945C693.292 161.945 694.095 161.826 694.766 161.586C695.437 161.323 695.976 161.023 696.383 160.688C696.862 160.328 697.257 159.909 697.569 159.43H701.522C701.067 160.556 700.432 161.55 699.617 162.413C699.258 162.772 698.85 163.131 698.395 163.491C697.94 163.85 697.413 164.173 696.814 164.461C696.215 164.724 695.544 164.94 694.802 165.108C694.059 165.276 693.244 165.359 692.358 165.359ZM697.748 154.04C697.653 153.512 697.473 152.985 697.209 152.458C696.946 151.931 696.587 151.476 696.131 151.093C695.676 150.686 695.137 150.362 694.514 150.123C693.891 149.859 693.173 149.727 692.358 149.727C691.735 149.727 691.124 149.823 690.525 150.015C689.95 150.206 689.411 150.494 688.908 150.877C688.429 151.237 688.022 151.692 687.686 152.243C687.351 152.77 687.111 153.369 686.968 154.04H697.748ZM715.899 165.359C714.605 165.359 713.395 165.132 712.269 164.677C711.143 164.197 710.173 163.539 709.359 162.7C708.544 161.838 707.897 160.831 707.418 159.681C706.963 158.508 706.735 157.226 706.735 155.836C706.735 154.447 706.963 153.177 707.418 152.027C707.897 150.853 708.544 149.847 709.359 149.009C710.173 148.146 711.143 147.487 712.269 147.032C713.395 146.553 714.605 146.313 715.899 146.313C716.809 146.313 717.636 146.409 718.379 146.601C719.121 146.792 719.78 147.044 720.355 147.355C720.954 147.667 721.469 148.026 721.9 148.434C722.331 148.841 722.715 149.248 723.05 149.655C723.817 150.614 724.368 151.716 724.703 152.961H720.75C720.559 152.363 720.247 151.823 719.816 151.344C719.457 150.937 718.965 150.566 718.343 150.23C717.72 149.895 716.905 149.727 715.899 149.727C715.18 149.727 714.497 149.871 713.851 150.158C713.228 150.446 712.677 150.853 712.198 151.38C711.742 151.907 711.371 152.554 711.084 153.321C710.82 154.063 710.688 154.902 710.688 155.836C710.688 156.771 710.82 157.621 711.084 158.388C711.371 159.13 711.742 159.765 712.198 160.292C712.677 160.819 713.228 161.227 713.851 161.514C714.497 161.802 715.18 161.945 715.899 161.945C716.929 161.945 717.768 161.778 718.414 161.442C719.061 161.107 719.576 160.736 719.96 160.328C720.391 159.873 720.714 159.334 720.93 158.711H724.703C724.368 159.981 723.817 161.095 723.05 162.053C722.715 162.461 722.331 162.868 721.9 163.275C721.469 163.658 720.954 164.006 720.355 164.317C719.78 164.629 719.121 164.88 718.379 165.072C717.636 165.264 716.809 165.359 715.899 165.359ZM734.754 150.087H728.645V146.673H744.636V150.087H738.527V165H734.754V150.087ZM749.85 146.673H753.623V158.891L753.587 159.25H753.947L762.248 146.673H766.381V165H762.607V152.782L762.643 152.422H762.284L753.983 165H749.85V146.673ZM773.57 146.673H782.734C784.531 146.673 785.909 147.104 786.867 147.966C787.825 148.829 788.304 149.895 788.304 151.165C788.304 152.027 788.149 152.722 787.837 153.249C787.55 153.752 787.226 154.147 786.867 154.435C786.436 154.77 785.956 154.998 785.429 155.118V155.261C786.1 155.381 786.699 155.621 787.226 155.98C787.681 156.292 788.089 156.747 788.448 157.346C788.831 157.921 789.023 158.723 789.023 159.753C789.023 160.472 788.879 161.155 788.592 161.802C788.304 162.449 787.897 163.012 787.37 163.491C786.843 163.946 786.196 164.317 785.429 164.605C784.687 164.868 783.848 165 782.914 165H773.57V146.673ZM782.734 161.586C783.549 161.586 784.172 161.382 784.603 160.975C785.034 160.544 785.25 159.969 785.25 159.25C785.25 158.627 785.034 158.112 784.603 157.705C784.172 157.298 783.549 157.094 782.734 157.094H777.344V161.586H782.734ZM782.375 153.86C783.812 153.86 784.531 153.201 784.531 151.883C784.531 151.332 784.351 150.901 783.992 150.59C783.633 150.254 783.094 150.087 782.375 150.087H777.344V153.86H782.375ZM802.872 165.359C801.65 165.359 800.513 165.132 799.458 164.677C798.428 164.221 797.518 163.587 796.727 162.772C795.961 161.933 795.35 160.927 794.895 159.753C794.463 158.579 794.248 157.274 794.248 155.836C794.248 154.399 794.463 153.093 794.895 151.919C795.35 150.745 795.961 149.751 796.727 148.937C797.518 148.098 798.428 147.451 799.458 146.996C800.513 146.541 801.65 146.313 802.872 146.313C803.807 146.313 804.633 146.457 805.352 146.745C806.071 147.032 806.67 147.343 807.149 147.679C807.724 148.086 808.215 148.529 808.622 149.009H808.802V146.673H812.575V165H808.802V162.484H808.622C808.215 163.012 807.724 163.491 807.149 163.922C806.67 164.281 806.071 164.617 805.352 164.928C804.633 165.216 803.807 165.359 802.872 165.359ZM803.591 161.945C805.124 161.945 806.37 161.43 807.328 160.4C808.311 159.346 808.802 157.825 808.802 155.836C808.802 153.848 808.311 152.339 807.328 151.308C806.37 150.254 805.124 149.727 803.591 149.727C801.962 149.727 800.656 150.254 799.674 151.308C798.692 152.339 798.201 153.848 798.201 155.836C798.201 157.825 798.692 159.346 799.674 160.4C800.656 161.43 801.962 161.945 803.591 161.945ZM822.803 146.673H830.888L835.919 165H831.966L828.013 150.087H825.678L821.725 165H817.772L822.803 146.673ZM843.992 158.352C843.345 158.064 842.77 157.681 842.267 157.202C841.836 156.795 841.441 156.256 841.081 155.585C840.746 154.89 840.578 154.016 840.578 152.961C840.578 152.075 840.734 151.249 841.046 150.482C841.381 149.691 841.86 149.02 842.483 148.469C843.106 147.918 843.861 147.487 844.747 147.176C845.633 146.84 846.64 146.673 847.766 146.673H856.031V165H852.258V159.43H847.586L844.711 165H840.399L843.992 158.352ZM852.258 156.016V150.087H847.945C846.867 150.087 846.029 150.362 845.43 150.913C844.831 151.464 844.531 152.147 844.531 152.961C844.531 153.872 844.807 154.615 845.358 155.189C845.909 155.741 846.771 156.016 847.945 156.016H852.258ZM512.156 191.673H528.507V210H524.734V195.087H515.929V210H512.156V191.673ZM535.701 191.673H539.474V194.009H539.654C540.061 193.529 540.553 193.086 541.128 192.679C541.607 192.343 542.194 192.032 542.888 191.745C543.607 191.457 544.446 191.313 545.404 191.313C546.626 191.313 547.752 191.541 548.782 191.996C549.836 192.451 550.746 193.098 551.513 193.937C552.304 194.751 552.915 195.745 553.346 196.919C553.801 198.093 554.029 199.399 554.029 200.836C554.029 202.274 553.801 203.579 553.346 204.753C552.915 205.927 552.304 206.933 551.513 207.772C550.746 208.587 549.836 209.221 548.782 209.677C547.752 210.132 546.626 210.359 545.404 210.359C544.446 210.359 543.607 210.228 542.888 209.964C542.194 209.677 541.607 209.365 541.128 209.03C540.553 208.622 540.061 208.167 539.654 207.664H539.474V216.828H535.701V191.673ZM544.685 206.945C546.314 206.945 547.62 206.43 548.602 205.4C549.584 204.346 550.076 202.825 550.076 200.836C550.076 198.848 549.584 197.339 548.602 196.308C547.62 195.254 546.314 194.727 544.685 194.727C543.152 194.727 541.894 195.254 540.912 196.308C539.954 197.339 539.474 198.848 539.474 200.836C539.474 202.825 539.954 204.346 540.912 205.4C541.894 206.43 543.152 206.945 544.685 206.945ZM560.124 191.673H563.897V203.891L563.861 204.25H564.22L572.522 191.673H576.654V210H572.881V197.782L572.917 197.422H572.557L564.256 210H560.124V191.673ZM592.109 210.359C590.816 210.359 589.594 210.12 588.444 209.641C587.318 209.138 586.324 208.467 585.461 207.628C584.623 206.766 583.964 205.76 583.485 204.61C583.006 203.436 582.766 202.178 582.766 200.836C582.766 199.495 583.006 198.249 583.485 197.099C583.964 195.925 584.623 194.919 585.461 194.08C586.324 193.218 587.318 192.547 588.444 192.068C589.594 191.565 590.816 191.313 592.109 191.313C593.403 191.313 594.613 191.565 595.739 192.068C596.889 192.547 597.883 193.218 598.722 194.08C599.584 194.919 600.255 195.925 600.734 197.099C601.213 198.249 601.453 199.495 601.453 200.836V202.094H586.539C586.683 202.861 586.923 203.544 587.258 204.142C587.593 204.741 588.013 205.256 588.516 205.688C589.019 206.095 589.57 206.406 590.169 206.622C590.792 206.838 591.439 206.945 592.109 206.945C593.044 206.945 593.846 206.826 594.517 206.586C595.188 206.323 595.727 206.023 596.134 205.688C596.613 205.328 597.009 204.909 597.32 204.43H601.273C600.818 205.556 600.183 206.55 599.368 207.413C599.009 207.772 598.602 208.131 598.147 208.491C597.691 208.85 597.164 209.173 596.565 209.461C595.967 209.724 595.296 209.94 594.553 210.108C593.81 210.276 592.996 210.359 592.109 210.359ZM597.5 199.04C597.404 198.512 597.224 197.985 596.961 197.458C596.697 196.931 596.338 196.476 595.883 196.093C595.428 195.686 594.888 195.362 594.266 195.123C593.643 194.859 592.924 194.727 592.109 194.727C591.487 194.727 590.876 194.823 590.277 195.015C589.702 195.206 589.163 195.494 588.66 195.877C588.18 196.237 587.773 196.692 587.438 197.243C587.102 197.77 586.863 198.369 586.719 199.04H597.5ZM614.213 210.359C613.279 210.359 612.44 210.264 611.697 210.072C610.979 209.904 610.332 209.677 609.757 209.389C609.206 209.102 608.727 208.778 608.319 208.419C607.936 208.036 607.613 207.64 607.349 207.233C606.726 206.299 606.319 205.244 606.127 204.071H609.901C610.02 204.598 610.248 205.077 610.583 205.508C610.871 205.867 611.29 206.203 611.841 206.514C612.416 206.802 613.207 206.945 614.213 206.945C615.578 206.945 616.549 206.718 617.124 206.263C617.699 205.784 617.986 205.232 617.986 204.61C617.986 203.987 617.699 203.448 617.124 202.992C616.549 202.513 615.578 202.274 614.213 202.274H612.236V199.04H614.213C615.483 199.04 616.369 198.836 616.872 198.429C617.375 198.021 617.627 197.506 617.627 196.883C617.627 196.332 617.339 195.841 616.764 195.41C616.213 194.955 615.303 194.727 614.033 194.727C613.219 194.727 612.572 194.859 612.093 195.123C611.637 195.362 611.278 195.626 611.015 195.913C610.727 196.249 610.535 196.632 610.44 197.063H606.666C606.906 195.985 607.337 195.027 607.96 194.188C608.224 193.829 608.535 193.481 608.894 193.146C609.278 192.787 609.721 192.475 610.224 192.212C610.727 191.948 611.302 191.733 611.949 191.565C612.62 191.397 613.374 191.313 614.213 191.313C615.435 191.313 616.489 191.457 617.375 191.745C618.286 192.008 619.028 192.367 619.603 192.823C620.202 193.278 620.645 193.817 620.933 194.44C621.244 195.039 621.4 195.674 621.4 196.344C621.4 197.135 621.232 197.794 620.897 198.321C620.562 198.824 620.19 199.219 619.783 199.507C619.304 199.866 618.765 200.13 618.166 200.297V200.441C618.837 200.585 619.436 200.836 619.963 201.196C620.418 201.507 620.825 201.95 621.184 202.525C621.568 203.1 621.759 203.855 621.759 204.789C621.759 205.556 621.604 206.275 621.292 206.945C620.981 207.616 620.502 208.203 619.855 208.706C619.232 209.209 618.441 209.617 617.483 209.928C616.549 210.216 615.459 210.359 614.213 210.359ZM632.908 200.118L626.619 191.673H630.931L636.142 198.86H638.478V191.673H642.251V198.86H644.587L649.798 191.673H654.11L647.821 200.118L654.649 210H650.157L644.767 202.274H642.251V210H638.478V202.274H635.963L630.572 210H626.08L632.908 200.118ZM666.693 210.359C665.472 210.359 664.334 210.132 663.279 209.677C662.249 209.221 661.339 208.587 660.548 207.772C659.782 206.933 659.171 205.927 658.716 204.753C658.284 203.579 658.069 202.274 658.069 200.836C658.069 199.399 658.284 198.093 658.716 196.919C659.171 195.745 659.782 194.751 660.548 193.937C661.339 193.098 662.249 192.451 663.279 191.996C664.334 191.541 665.472 191.313 666.693 191.313C667.628 191.313 668.454 191.457 669.173 191.745C669.892 192.032 670.491 192.343 670.97 192.679C671.545 193.086 672.036 193.529 672.443 194.009H672.623V191.673H676.396V210H672.623V207.484H672.443C672.036 208.012 671.545 208.491 670.97 208.922C670.491 209.281 669.892 209.617 669.173 209.928C668.454 210.216 667.628 210.359 666.693 210.359ZM667.412 206.945C668.945 206.945 670.191 206.43 671.149 205.4C672.132 204.346 672.623 202.825 672.623 200.836C672.623 198.848 672.132 197.339 671.149 196.308C670.191 195.254 668.945 194.727 667.412 194.727C665.783 194.727 664.477 195.254 663.495 196.308C662.513 197.339 662.022 198.848 662.022 200.836C662.022 202.825 662.513 204.346 663.495 205.4C664.477 206.43 665.783 206.945 667.412 206.945ZM699.022 210.359C697.848 210.359 696.746 210.156 695.716 209.748C694.685 209.341 693.763 208.79 692.948 208.095C692.134 207.377 691.451 206.538 690.9 205.58C690.373 204.622 690.026 203.579 689.858 202.453H687.342V210H683.569V191.673H687.342V199.04H689.858C690.074 197.914 690.457 196.883 691.008 195.949C691.559 194.991 692.23 194.176 693.02 193.505C693.811 192.811 694.709 192.272 695.716 191.888C696.746 191.505 697.848 191.313 699.022 191.313C700.315 191.313 701.525 191.565 702.651 192.068C703.801 192.547 704.795 193.218 705.634 194.08C706.496 194.919 707.167 195.925 707.646 197.099C708.125 198.249 708.365 199.495 708.365 200.836C708.365 202.178 708.125 203.436 707.646 204.61C707.167 205.76 706.496 206.766 705.634 207.628C704.795 208.467 703.801 209.138 702.651 209.641C701.525 210.12 700.315 210.359 699.022 210.359ZM699.022 206.945C699.788 206.945 700.495 206.802 701.142 206.514C701.813 206.227 702.388 205.819 702.867 205.292C703.346 204.765 703.717 204.13 703.981 203.388C704.268 202.621 704.412 201.771 704.412 200.836C704.412 199.902 704.268 199.063 703.981 198.321C703.717 197.554 703.346 196.907 702.867 196.38C702.388 195.853 701.813 195.446 701.142 195.158C700.495 194.871 699.788 194.727 699.022 194.727C698.255 194.727 697.536 194.871 696.866 195.158C696.219 195.446 695.656 195.853 695.177 196.38C694.697 196.907 694.314 197.554 694.027 198.321C693.763 199.063 693.631 199.902 693.631 200.836C693.631 201.771 693.763 202.621 694.027 203.388C694.314 204.13 694.697 204.765 695.177 205.292C695.656 205.819 696.219 206.227 696.866 206.514C697.536 206.802 698.255 206.945 699.022 206.945ZM718.617 195.087H712.507V191.673H728.499V195.087H722.39V210H718.617V195.087ZM745.571 191.673H749.345V198.86H752.04L757.61 191.673H761.922L755.274 200.118L762.461 210H757.79L752.219 202.274H749.345V210H745.571V191.673ZM780.449 191.673H784.222V199.04H793.206V191.673H796.979V210H793.206V202.453H784.222V210H780.449V191.673ZM811.716 210.359C810.494 210.359 809.356 210.132 808.302 209.677C807.272 209.221 806.361 208.587 805.571 207.772C804.804 206.933 804.193 205.927 803.738 204.753C803.307 203.579 803.091 202.274 803.091 200.836C803.091 199.399 803.307 198.093 803.738 196.919C804.193 195.745 804.804 194.751 805.571 193.937C806.361 193.098 807.272 192.451 808.302 191.996C809.356 191.541 810.494 191.313 811.716 191.313C812.65 191.313 813.477 191.457 814.196 191.745C814.914 192.032 815.513 192.343 815.992 192.679C816.567 193.086 817.058 193.529 817.466 194.009H817.645V191.673H821.419V210H817.645V207.484H817.466C817.058 208.012 816.567 208.491 815.992 208.922C815.513 209.281 814.914 209.617 814.196 209.928C813.477 210.216 812.65 210.359 811.716 210.359ZM812.435 206.945C813.968 206.945 815.214 206.43 816.172 205.4C817.154 204.346 817.645 202.825 817.645 200.836C817.645 198.848 817.154 197.339 816.172 196.308C815.214 195.254 813.968 194.727 812.435 194.727C810.806 194.727 809.5 195.254 808.518 196.308C807.535 197.339 807.044 198.848 807.044 200.836C807.044 202.825 807.535 204.346 808.518 205.4C809.5 206.43 810.806 206.945 812.435 206.945ZM828.592 191.673H833.982L838.834 202.633H839.552L844.404 191.673H849.794V210H846.021V197.063L846.057 196.704H845.877L841.349 206.766H837.037L832.509 196.704H832.329L832.365 197.063V210H828.592V191.673ZM512.156 236.673H528.507V255H524.734V240.087H515.929V255H512.156V236.673ZM544.146 255.359C542.805 255.359 541.547 255.12 540.373 254.641C539.223 254.138 538.217 253.467 537.354 252.628C536.516 251.766 535.845 250.76 535.342 249.61C534.863 248.436 534.623 247.178 534.623 245.836C534.623 244.495 534.863 243.249 535.342 242.099C535.845 240.925 536.516 239.919 537.354 239.08C538.217 238.218 539.223 237.547 540.373 237.068C541.547 236.565 542.805 236.313 544.146 236.313C545.488 236.313 546.734 236.565 547.884 237.068C549.057 237.547 550.064 238.218 550.902 239.08C551.765 239.919 552.435 240.925 552.915 242.099C553.418 243.249 553.669 244.495 553.669 245.836C553.669 247.178 553.418 248.436 552.915 249.61C552.435 250.76 551.765 251.766 550.902 252.628C550.064 253.467 549.057 254.138 547.884 254.641C546.734 255.12 545.488 255.359 544.146 255.359ZM544.146 251.945C544.961 251.945 545.703 251.802 546.374 251.514C547.069 251.227 547.656 250.819 548.135 250.292C548.638 249.765 549.021 249.13 549.285 248.388C549.572 247.621 549.716 246.771 549.716 245.836C549.716 244.902 549.572 244.063 549.285 243.321C549.021 242.554 548.638 241.907 548.135 241.38C547.656 240.853 547.069 240.446 546.374 240.158C545.703 239.871 544.961 239.727 544.146 239.727C543.332 239.727 542.577 239.871 541.882 240.158C541.211 240.446 540.624 240.853 540.121 241.38C539.642 241.907 539.259 242.554 538.971 243.321C538.708 244.063 538.576 244.902 538.576 245.836C538.576 246.771 538.708 247.621 538.971 248.388C539.259 249.13 539.642 249.765 540.121 250.292C540.624 250.819 541.211 251.227 541.882 251.514C542.577 251.802 543.332 251.945 544.146 251.945ZM559.773 236.673H568.936C570.733 236.673 572.111 237.104 573.069 237.966C574.027 238.829 574.506 239.895 574.506 241.165C574.506 242.027 574.351 242.722 574.039 243.249C573.752 243.752 573.428 244.147 573.069 244.435C572.638 244.77 572.159 244.998 571.632 245.118V245.261C572.302 245.381 572.901 245.621 573.428 245.98C573.884 246.292 574.291 246.747 574.65 247.346C575.033 247.921 575.225 248.723 575.225 249.753C575.225 250.472 575.081 251.155 574.794 251.802C574.506 252.449 574.099 253.012 573.572 253.491C573.045 253.946 572.398 254.317 571.632 254.605C570.889 254.868 570.05 255 569.116 255H559.773V236.673ZM568.936 251.586C569.751 251.586 570.374 251.382 570.805 250.975C571.236 250.544 571.452 249.969 571.452 249.25C571.452 248.627 571.236 248.112 570.805 247.705C570.374 247.298 569.751 247.094 568.936 247.094H563.546V251.586H568.936ZM568.577 243.86C570.014 243.86 570.733 243.201 570.733 241.883C570.733 241.332 570.553 240.901 570.194 240.59C569.835 240.254 569.296 240.087 568.577 240.087H563.546V243.86H568.577ZM585.661 240.087H579.551V236.673H595.543V240.087H589.434V255H585.661V240.087ZM609.201 255.359C607.86 255.359 606.602 255.12 605.428 254.641C604.278 254.138 603.272 253.467 602.41 252.628C601.571 251.766 600.9 250.76 600.397 249.61C599.918 248.436 599.678 247.178 599.678 245.836C599.678 244.495 599.918 243.249 600.397 242.099C600.9 240.925 601.571 239.919 602.41 239.08C603.272 238.218 604.278 237.547 605.428 237.068C606.602 236.565 607.86 236.313 609.201 236.313C610.543 236.313 611.789 236.565 612.939 237.068C614.113 237.547 615.119 238.218 615.957 239.08C616.82 239.919 617.491 240.925 617.97 242.099C618.473 243.249 618.724 244.495 618.724 245.836C618.724 247.178 618.473 248.436 617.97 249.61C617.491 250.76 616.82 251.766 615.957 252.628C615.119 253.467 614.113 254.138 612.939 254.641C611.789 255.12 610.543 255.359 609.201 255.359ZM609.201 251.945C610.016 251.945 610.759 251.802 611.429 251.514C612.124 251.227 612.711 250.819 613.19 250.292C613.693 249.765 614.077 249.13 614.34 248.388C614.628 247.621 614.772 246.771 614.772 245.836C614.772 244.902 614.628 244.063 614.34 243.321C614.077 242.554 613.693 241.907 613.19 241.38C612.711 240.853 612.124 240.446 611.429 240.158C610.759 239.871 610.016 239.727 609.201 239.727C608.387 239.727 607.632 239.871 606.937 240.158C606.267 240.446 605.68 240.853 605.177 241.38C604.697 241.907 604.314 242.554 604.027 243.321C603.763 244.063 603.631 244.902 603.631 245.836C603.631 246.771 603.763 247.621 604.027 248.388C604.314 249.13 604.697 249.765 605.177 250.292C605.68 250.819 606.267 251.227 606.937 251.514C607.632 251.802 608.387 251.945 609.201 251.945ZM624.828 236.673H628.601V239.009H628.781C629.188 238.529 629.679 238.086 630.254 237.679C630.733 237.343 631.32 237.032 632.015 236.745C632.734 236.457 633.572 236.313 634.531 236.313C635.753 236.313 636.878 236.541 637.909 236.996C638.963 237.451 639.873 238.098 640.64 238.937C641.43 239.751 642.041 240.745 642.473 241.919C642.928 243.093 643.155 244.399 643.155 245.836C643.155 247.274 642.928 248.579 642.473 249.753C642.041 250.927 641.43 251.933 640.64 252.772C639.873 253.587 638.963 254.221 637.909 254.677C636.878 255.132 635.753 255.359 634.531 255.359C633.572 255.359 632.734 255.228 632.015 254.964C631.32 254.677 630.733 254.365 630.254 254.03C629.679 253.622 629.188 253.167 628.781 252.664H628.601V261.828H624.828V236.673ZM633.812 251.945C635.441 251.945 636.747 251.43 637.729 250.4C638.711 249.346 639.202 247.825 639.202 245.836C639.202 243.848 638.711 242.339 637.729 241.308C636.747 240.254 635.441 239.727 633.812 239.727C632.279 239.727 631.021 240.254 630.039 241.308C629.08 242.339 628.601 243.848 628.601 245.836C628.601 247.825 629.08 249.346 630.039 250.4C631.021 251.43 632.279 251.945 633.812 251.945ZM649.25 236.673H653.024V244.04H662.008V236.673H665.781V255H662.008V247.453H653.024V255H649.25V236.673ZM681.416 255.359C680.074 255.359 678.816 255.12 677.643 254.641C676.493 254.138 675.486 253.467 674.624 252.628C673.785 251.766 673.115 250.76 672.612 249.61C672.132 248.436 671.893 247.178 671.893 245.836C671.893 244.495 672.132 243.249 672.612 242.099C673.115 240.925 673.785 239.919 674.624 239.08C675.486 238.218 676.493 237.547 677.643 237.068C678.816 236.565 680.074 236.313 681.416 236.313C682.757 236.313 684.003 236.565 685.153 237.068C686.327 237.547 687.333 238.218 688.172 239.08C689.034 239.919 689.705 240.925 690.184 242.099C690.687 243.249 690.939 244.495 690.939 245.836C690.939 247.178 690.687 248.436 690.184 249.61C689.705 250.76 689.034 251.766 688.172 252.628C687.333 253.467 686.327 254.138 685.153 254.641C684.003 255.12 682.757 255.359 681.416 255.359ZM681.416 251.945C682.23 251.945 682.973 251.802 683.644 251.514C684.339 251.227 684.926 250.819 685.405 250.292C685.908 249.765 686.291 249.13 686.555 248.388C686.842 247.621 686.986 246.771 686.986 245.836C686.986 244.902 686.842 244.063 686.555 243.321C686.291 242.554 685.908 241.907 685.405 241.38C684.926 240.853 684.339 240.446 683.644 240.158C682.973 239.871 682.23 239.727 681.416 239.727C680.601 239.727 679.847 239.871 679.152 240.158C678.481 240.446 677.894 240.853 677.391 241.38C676.912 241.907 676.529 242.554 676.241 243.321C675.978 244.063 675.846 244.902 675.846 245.836C675.846 246.771 675.978 247.621 676.241 248.388C676.529 249.13 676.912 249.765 677.391 250.292C677.894 250.819 678.481 251.227 679.152 251.514C679.847 251.802 680.601 251.945 681.416 251.945Z" fill="white"/>
</svg>
