<svg width="680" height="397" viewBox="0 0 680 397" fill="none" xmlns="http://www.w3.org/2000/svg">
<rect width="680" height="397" rx="53" fill="white"/>
<path d="M205.433 147.503L211.17 143.041V142.403C210.405 142.913 209.47 143.338 208.365 143.678C207.43 144.018 206.24 144.316 204.795 144.571C203.351 144.826 201.651 144.953 199.696 144.953C195.446 144.953 191.409 144.146 187.585 142.531C183.845 140.916 180.531 138.706 177.641 135.902C174.836 133.097 172.584 129.825 170.884 126.085C169.269 122.261 168.462 118.139 168.462 113.719C168.462 109.3 169.312 105.135 171.012 101.226C172.796 97.2311 175.304 93.7465 178.533 90.7719C181.763 87.7972 185.63 85.46 190.135 83.7602C194.724 82.0604 199.823 81.2105 205.433 81.2105C211.042 81.2105 216.099 82.0604 220.604 83.7602C225.193 85.46 229.103 87.7972 232.332 90.7719C235.562 93.7465 238.027 97.2311 239.726 101.226C241.511 105.22 242.404 109.47 242.404 113.974C242.404 117.119 241.936 120.179 241.001 123.153C240.151 126.043 239.004 128.89 237.559 131.695C236.199 134.499 234.584 137.219 232.715 139.854C230.845 142.488 228.975 145.038 227.105 147.503L207.345 173H185.673L205.433 147.503ZM205.433 128.38C210.532 128.38 214.569 126.978 217.544 124.173C220.519 121.368 222.006 117.884 222.006 113.719C222.006 109.555 220.519 106.07 217.544 103.265C214.569 100.461 210.532 99.0584 205.433 99.0584C200.333 99.0584 196.296 100.461 193.322 103.265C190.347 106.07 188.86 109.555 188.86 113.719C188.86 117.884 190.347 121.368 193.322 124.173C196.296 126.978 200.333 128.38 205.433 128.38ZM297.163 175.55C291.553 175.55 286.454 174.7 281.864 173C277.36 171.3 273.493 168.963 270.263 165.988C267.033 163.014 264.526 159.529 262.741 155.534C261.042 151.54 260.192 147.29 260.192 142.786C260.192 139.641 260.617 136.624 261.467 133.734C262.402 130.76 263.549 127.87 264.909 125.065C266.354 122.261 267.968 119.541 269.753 116.906C271.623 114.272 273.535 111.722 275.49 109.257L295.25 83.7602H316.923L297.163 109.257L291.426 113.719V114.357C292.191 113.847 293.126 113.422 294.23 113.082C295.165 112.742 296.355 112.444 297.8 112.189C299.245 111.934 300.945 111.807 302.899 111.807C307.149 111.807 311.143 112.614 314.883 114.229C318.708 115.844 322.022 118.054 324.827 120.858C327.717 123.663 329.969 126.978 331.584 130.802C333.283 134.542 334.133 138.621 334.133 143.041C334.133 147.545 333.241 151.752 331.456 155.662C329.756 159.572 327.292 163.014 324.062 165.988C320.832 168.963 316.923 171.3 312.333 173C307.829 174.7 302.772 175.55 297.163 175.55ZM297.163 157.702C302.262 157.702 306.299 156.299 309.274 153.495C312.248 150.69 313.736 147.205 313.736 143.041C313.736 138.876 312.248 135.392 309.274 132.587C306.299 129.782 302.262 128.38 297.163 128.38C292.063 128.38 288.026 129.782 285.051 132.587C282.077 135.392 280.589 138.876 280.589 143.041C280.589 147.205 282.077 150.69 285.051 153.495C288.026 156.299 292.063 157.702 297.163 157.702ZM418.851 83.7602H433.512L379.968 173H365.308L418.851 83.7602ZM423.951 174.275C420.891 174.275 418.044 173.722 415.409 172.618C412.775 171.513 410.48 169.983 408.525 168.028C406.57 166.073 405.04 163.779 403.936 161.144C402.831 158.509 402.278 155.662 402.278 152.602C402.278 149.543 402.831 146.695 403.936 144.061C405.04 141.426 406.57 139.131 408.525 137.177C410.48 135.222 412.775 133.692 415.409 132.587C418.044 131.482 420.891 130.93 423.951 130.93C427.01 130.93 429.858 131.482 432.492 132.587C435.127 133.692 437.422 135.222 439.377 137.177C441.331 139.131 442.861 141.426 443.966 144.061C445.071 146.695 445.623 149.543 445.623 152.602C445.623 155.662 445.071 158.509 443.966 161.144C442.861 163.779 441.331 166.073 439.377 168.028C437.422 169.983 435.127 171.513 432.492 172.618C429.858 173.722 427.01 174.275 423.951 174.275ZM423.951 161.526C426.501 161.526 428.625 160.676 430.325 158.977C432.025 157.277 432.875 155.152 432.875 152.602C432.875 150.053 432.025 147.928 430.325 146.228C428.625 144.528 426.501 143.678 423.951 143.678C421.401 143.678 419.276 144.528 417.577 146.228C415.877 147.928 415.027 150.053 415.027 152.602C415.027 155.152 415.877 157.277 417.577 158.977C419.276 160.676 421.401 161.526 423.951 161.526ZM374.869 125.83C371.809 125.83 368.962 125.278 366.327 124.173C363.693 123.068 361.398 121.538 359.443 119.584C357.488 117.629 355.959 115.334 354.854 112.699C353.749 110.065 353.196 107.217 353.196 104.158C353.196 101.098 353.749 98.251 354.854 95.6163C355.959 92.9816 357.488 90.6869 359.443 88.7321C361.398 86.7773 363.693 85.2475 366.327 84.1426C368.962 83.0378 371.809 82.4853 374.869 82.4853C377.929 82.4853 380.776 83.0378 383.41 84.1426C386.045 85.2475 388.34 86.7773 390.295 88.7321C392.249 90.6869 393.779 92.9816 394.884 95.6163C395.989 98.251 396.541 101.098 396.541 104.158C396.541 107.217 395.989 110.065 394.884 112.699C393.779 115.334 392.249 117.629 390.295 119.584C388.34 121.538 386.045 123.068 383.41 124.173C380.776 125.278 377.929 125.83 374.869 125.83ZM374.869 113.082C377.419 113.082 379.543 112.232 381.243 110.532C382.943 108.832 383.793 106.708 383.793 104.158C383.793 101.608 382.943 99.4834 381.243 97.7836C379.543 96.0838 377.419 95.2339 374.869 95.2339C372.319 95.2339 370.194 96.0838 368.495 97.7836C366.795 99.4834 365.945 101.608 365.945 104.158C365.945 106.708 366.795 108.832 368.495 110.532C370.194 112.232 372.319 113.082 374.869 113.082Z" fill="black"/>
<path d="M152.92 226.68H156.28V228.76H156.44C156.803 228.333 157.24 227.939 157.752 227.576C158.179 227.277 158.701 227 159.32 226.744C159.96 226.488 160.707 226.36 161.56 226.36C162.648 226.36 163.651 226.563 164.568 226.968C165.507 227.373 166.317 227.949 167 228.696C167.704 229.421 168.248 230.307 168.632 231.352C169.037 232.397 169.24 233.56 169.24 234.84C169.24 236.12 169.037 237.283 168.632 238.328C168.248 239.373 167.704 240.269 167 241.016C166.317 241.741 165.507 242.307 164.568 242.712C163.651 243.117 162.648 243.32 161.56 243.32C160.707 243.32 159.96 243.203 159.32 242.968C158.701 242.712 158.179 242.435 157.752 242.136C157.24 241.773 156.803 241.368 156.44 240.92H156.28V249.08H152.92V226.68ZM160.92 240.28C162.371 240.28 163.533 239.821 164.408 238.904C165.283 237.965 165.72 236.611 165.72 234.84C165.72 233.069 165.283 231.725 164.408 230.808C163.533 229.869 162.371 229.4 160.92 229.4C159.555 229.4 158.435 229.869 157.56 230.808C156.707 231.725 156.28 233.069 156.28 234.84C156.28 236.611 156.707 237.965 157.56 238.904C158.435 239.821 159.555 240.28 160.92 240.28ZM182.028 243.32C180.876 243.32 179.787 243.107 178.763 242.68C177.761 242.232 176.875 241.635 176.107 240.888C175.361 240.12 174.774 239.224 174.347 238.2C173.921 237.155 173.707 236.035 173.707 234.84C173.707 233.645 173.921 232.536 174.347 231.512C174.774 230.467 175.361 229.571 176.107 228.824C176.875 228.056 177.761 227.459 178.763 227.032C179.787 226.584 180.876 226.36 182.028 226.36C183.179 226.36 184.257 226.584 185.26 227.032C186.284 227.459 187.169 228.056 187.916 228.824C188.684 229.571 189.281 230.467 189.708 231.512C190.134 232.536 190.347 233.645 190.347 234.84V235.96H177.067C177.195 236.643 177.409 237.251 177.707 237.784C178.006 238.317 178.379 238.776 178.827 239.16C179.275 239.523 179.766 239.8 180.299 239.992C180.854 240.184 181.43 240.28 182.028 240.28C182.86 240.28 183.574 240.173 184.172 239.96C184.769 239.725 185.249 239.459 185.611 239.16C186.038 238.84 186.39 238.467 186.668 238.04H190.188C189.782 239.043 189.217 239.928 188.491 240.696C188.172 241.016 187.809 241.336 187.404 241.656C186.998 241.976 186.529 242.264 185.996 242.52C185.462 242.755 184.865 242.947 184.203 243.096C183.542 243.245 182.817 243.32 182.028 243.32ZM186.828 233.24C186.742 232.771 186.582 232.301 186.347 231.832C186.113 231.363 185.793 230.957 185.387 230.616C184.982 230.253 184.502 229.965 183.948 229.752C183.393 229.517 182.753 229.4 182.028 229.4C181.473 229.4 180.929 229.485 180.395 229.656C179.883 229.827 179.403 230.083 178.955 230.424C178.529 230.744 178.166 231.149 177.867 231.64C177.569 232.109 177.355 232.643 177.227 233.24H186.828ZM195.79 226.68H199.15V233.08H201.55L206.51 226.68H210.35L204.43 234.2L210.83 243H206.67L201.71 236.12H199.15V243H195.79V226.68ZM222.214 243.32C221.019 243.32 219.899 243.107 218.854 242.68C217.83 242.232 216.934 241.635 216.166 240.888C215.419 240.12 214.822 239.224 214.374 238.2C213.947 237.155 213.734 236.035 213.734 234.84C213.734 233.645 213.947 232.536 214.374 231.512C214.822 230.467 215.419 229.571 216.166 228.824C216.934 228.056 217.83 227.459 218.854 227.032C219.899 226.584 221.019 226.36 222.214 226.36C223.408 226.36 224.518 226.584 225.542 227.032C226.587 227.459 227.483 228.056 228.23 228.824C228.998 229.571 229.595 230.467 230.022 231.512C230.47 232.536 230.694 233.645 230.694 234.84C230.694 236.035 230.47 237.155 230.022 238.2C229.595 239.224 228.998 240.12 228.23 240.888C227.483 241.635 226.587 242.232 225.542 242.68C224.518 243.107 223.408 243.32 222.214 243.32ZM222.214 240.28C222.939 240.28 223.6 240.152 224.198 239.896C224.816 239.64 225.339 239.277 225.766 238.808C226.214 238.339 226.555 237.773 226.79 237.112C227.046 236.429 227.174 235.672 227.174 234.84C227.174 234.008 227.046 233.261 226.79 232.6C226.555 231.917 226.214 231.341 225.766 230.872C225.339 230.403 224.816 230.04 224.198 229.784C223.6 229.528 222.939 229.4 222.214 229.4C221.488 229.4 220.816 229.528 220.198 229.784C219.6 230.04 219.078 230.403 218.63 230.872C218.203 231.341 217.862 231.917 217.606 232.6C217.371 233.261 217.254 234.008 217.254 234.84C217.254 235.672 217.371 236.429 217.606 237.112C217.862 237.773 218.203 238.339 218.63 238.808C219.078 239.277 219.6 239.64 220.198 239.896C220.816 240.152 221.488 240.28 222.214 240.28ZM236.129 226.68H240.929L245.249 236.44H245.889L250.209 226.68H255.009V243H251.649V231.48L251.681 231.16H251.521L247.489 240.12H243.649L239.617 231.16H239.457L239.489 231.48V243H236.129V226.68ZM268.768 243.32C267.616 243.32 266.528 243.107 265.504 242.68C264.501 242.232 263.616 241.635 262.848 240.888C262.101 240.12 261.514 239.224 261.088 238.2C260.661 237.155 260.448 236.035 260.448 234.84C260.448 233.645 260.661 232.536 261.088 231.512C261.514 230.467 262.101 229.571 262.848 228.824C263.616 228.056 264.501 227.459 265.504 227.032C266.528 226.584 267.616 226.36 268.768 226.36C269.92 226.36 270.997 226.584 272 227.032C273.024 227.459 273.909 228.056 274.656 228.824C275.424 229.571 276.021 230.467 276.448 231.512C276.874 232.536 277.088 233.645 277.088 234.84V235.96H263.808C263.936 236.643 264.149 237.251 264.448 237.784C264.746 238.317 265.12 238.776 265.568 239.16C266.016 239.523 266.506 239.8 267.04 239.992C267.594 240.184 268.17 240.28 268.768 240.28C269.6 240.28 270.314 240.173 270.912 239.96C271.509 239.725 271.989 239.459 272.352 239.16C272.778 238.84 273.13 238.467 273.408 238.04H276.928C276.522 239.043 275.957 239.928 275.232 240.696C274.912 241.016 274.549 241.336 274.144 241.656C273.738 241.976 273.269 242.264 272.736 242.52C272.202 242.755 271.605 242.947 270.944 243.096C270.282 243.245 269.557 243.32 268.768 243.32ZM273.568 233.24C273.482 232.771 273.322 232.301 273.088 231.832C272.853 231.363 272.533 230.957 272.128 230.616C271.722 230.253 271.242 229.965 270.688 229.752C270.133 229.517 269.493 229.4 268.768 229.4C268.213 229.4 267.669 229.485 267.136 229.656C266.624 229.827 266.144 230.083 265.696 230.424C265.269 230.744 264.906 231.149 264.608 231.64C264.309 232.109 264.096 232.643 263.968 233.24H273.568ZM282.53 226.68H285.89V233.24H293.89V226.68H297.25V243H293.89V236.28H285.89V243H282.53V226.68ZM301.892 239.96H303.492L307.172 226.68H314.372L318.052 239.96H319.652V246.52H316.612V243H304.932V246.52H301.892V239.96ZM314.532 239.96L311.812 229.72H309.732L307.012 239.96H314.532ZM330.077 243H326.717L322.237 226.68H325.757L329.277 239.8H331.037L334.877 226.68H338.397L331.677 249.08H328.157L330.077 243ZM356.47 243.32C355.425 243.32 354.443 243.139 353.526 242.776C352.609 242.413 351.787 241.923 351.062 241.304C350.337 240.664 349.729 239.917 349.238 239.064C348.769 238.211 348.459 237.283 348.31 236.28H346.07V243H342.71V226.68H346.07V233.24H348.31C348.502 232.237 348.843 231.32 349.334 230.488C349.825 229.635 350.422 228.909 351.126 228.312C351.83 227.693 352.63 227.213 353.526 226.872C354.443 226.531 355.425 226.36 356.47 226.36C357.622 226.36 358.699 226.584 359.702 227.032C360.726 227.459 361.611 228.056 362.358 228.824C363.126 229.571 363.723 230.467 364.15 231.512C364.577 232.536 364.79 233.645 364.79 234.84C364.79 236.035 364.577 237.155 364.15 238.2C363.723 239.224 363.126 240.12 362.358 240.888C361.611 241.635 360.726 242.232 359.702 242.68C358.699 243.107 357.622 243.32 356.47 243.32ZM356.47 240.28C357.153 240.28 357.782 240.152 358.358 239.896C358.955 239.64 359.467 239.277 359.894 238.808C360.321 238.339 360.651 237.773 360.886 237.112C361.142 236.429 361.27 235.672 361.27 234.84C361.27 234.008 361.142 233.261 360.886 232.6C360.651 231.917 360.321 231.341 359.894 230.872C359.467 230.403 358.955 230.04 358.358 229.784C357.782 229.528 357.153 229.4 356.47 229.4C355.787 229.4 355.147 229.528 354.55 229.784C353.974 230.04 353.473 230.403 353.046 230.872C352.619 231.341 352.278 231.917 352.022 232.6C351.787 233.261 351.67 234.008 351.67 234.84C351.67 235.672 351.787 236.429 352.022 237.112C352.278 237.773 352.619 238.339 353.046 238.808C353.473 239.277 353.974 239.64 354.55 239.896C355.147 240.152 355.787 240.28 356.47 240.28ZM373.919 229.72H368.479V226.68H382.719V229.72H377.279V243H373.919V229.72ZM160.12 283.16C158.989 283.075 157.933 282.797 156.952 282.328C155.971 281.859 155.107 281.251 154.36 280.504C153.613 279.757 153.027 278.904 152.6 277.944C152.173 276.963 151.96 275.928 151.96 274.84C151.96 273.752 152.173 272.728 152.6 271.768C153.027 270.787 153.613 269.923 154.36 269.176C155.107 268.429 155.971 267.821 156.952 267.352C157.933 266.883 158.989 266.605 160.12 266.52V260.6H163.48V266.52C164.589 266.605 165.635 266.883 166.616 267.352C167.619 267.821 168.493 268.429 169.24 269.176C169.987 269.923 170.573 270.787 171 271.768C171.427 272.728 171.64 273.752 171.64 274.84C171.64 275.928 171.427 276.963 171 277.944C170.573 278.904 169.987 279.757 169.24 280.504C168.493 281.251 167.619 281.859 166.616 282.328C165.635 282.797 164.589 283.075 163.48 283.16V289.08H160.12V283.16ZM160.12 269.56C159.48 269.645 158.872 269.827 158.296 270.104C157.741 270.381 157.251 270.744 156.824 271.192C156.419 271.64 156.088 272.173 155.832 272.792C155.597 273.389 155.48 274.072 155.48 274.84C155.48 275.608 155.597 276.301 155.832 276.92C156.088 277.517 156.419 278.04 156.824 278.488C157.251 278.936 157.741 279.299 158.296 279.576C158.872 279.853 159.48 280.035 160.12 280.12V269.56ZM163.48 280.12C164.12 280.035 164.717 279.853 165.272 279.576C165.848 279.299 166.339 278.936 166.744 278.488C167.171 278.04 167.501 277.517 167.736 276.92C167.992 276.301 168.12 275.608 168.12 274.84C168.12 274.072 167.992 273.389 167.736 272.792C167.501 272.173 167.171 271.64 166.744 271.192C166.339 270.744 165.848 270.381 165.272 270.104C164.717 269.827 164.12 269.645 163.48 269.56V280.12ZM184.434 283.32C183.282 283.32 182.194 283.107 181.17 282.68C180.167 282.232 179.282 281.635 178.514 280.888C177.767 280.12 177.18 279.224 176.754 278.2C176.327 277.155 176.114 276.035 176.114 274.84C176.114 273.645 176.327 272.536 176.754 271.512C177.18 270.467 177.767 269.571 178.514 268.824C179.282 268.056 180.167 267.459 181.17 267.032C182.194 266.584 183.282 266.36 184.434 266.36C185.586 266.36 186.663 266.584 187.666 267.032C188.69 267.459 189.575 268.056 190.322 268.824C191.09 269.571 191.687 270.467 192.114 271.512C192.54 272.536 192.754 273.645 192.754 274.84V275.96H179.474C179.602 276.643 179.815 277.251 180.114 277.784C180.412 278.317 180.786 278.776 181.234 279.16C181.682 279.523 182.172 279.8 182.706 279.992C183.26 280.184 183.836 280.28 184.434 280.28C185.266 280.28 185.98 280.173 186.578 279.96C187.175 279.725 187.655 279.459 188.018 279.16C188.444 278.84 188.796 278.467 189.074 278.04H192.594C192.188 279.043 191.623 279.928 190.898 280.696C190.578 281.016 190.215 281.336 189.81 281.656C189.404 281.976 188.935 282.264 188.402 282.52C187.868 282.755 187.271 282.947 186.61 283.096C185.948 283.245 185.223 283.32 184.434 283.32ZM189.234 273.24C189.148 272.771 188.988 272.301 188.754 271.832C188.519 271.363 188.199 270.957 187.794 270.616C187.388 270.253 186.908 269.965 186.354 269.752C185.799 269.517 185.159 269.4 184.434 269.4C183.879 269.4 183.335 269.485 182.802 269.656C182.29 269.827 181.81 270.083 181.362 270.424C180.935 270.744 180.572 271.149 180.274 271.64C179.975 272.109 179.762 272.643 179.634 273.24H189.234ZM205.396 283.32C204.244 283.32 203.167 283.117 202.164 282.712C201.162 282.285 200.298 281.699 199.572 280.952C198.847 280.184 198.271 279.288 197.844 278.264C197.439 277.219 197.236 276.077 197.236 274.84C197.236 273.603 197.439 272.472 197.844 271.448C198.271 270.403 198.847 269.507 199.572 268.76C200.298 267.992 201.162 267.405 202.164 267C203.167 266.573 204.244 266.36 205.396 266.36C206.207 266.36 206.943 266.445 207.604 266.616C208.266 266.787 208.852 267.011 209.364 267.288C209.898 267.565 210.356 267.885 210.74 268.248C211.124 268.611 211.466 268.973 211.764 269.336C212.447 270.189 212.938 271.171 213.236 272.28H209.716C209.546 271.747 209.268 271.267 208.884 270.84C208.564 270.477 208.127 270.147 207.572 269.848C207.018 269.549 206.292 269.4 205.396 269.4C204.756 269.4 204.148 269.528 203.572 269.784C203.018 270.04 202.527 270.403 202.1 270.872C201.695 271.341 201.364 271.917 201.108 272.6C200.874 273.261 200.756 274.008 200.756 274.84C200.756 275.672 200.874 276.429 201.108 277.112C201.364 277.773 201.695 278.339 202.1 278.808C202.527 279.277 203.018 279.64 203.572 279.896C204.148 280.152 204.756 280.28 205.396 280.28C206.314 280.28 207.06 280.131 207.636 279.832C208.212 279.533 208.671 279.203 209.012 278.84C209.396 278.435 209.684 277.955 209.876 277.4H213.236C212.938 278.531 212.447 279.523 211.764 280.376C211.466 280.739 211.124 281.101 210.74 281.464C210.356 281.805 209.898 282.115 209.364 282.392C208.852 282.669 208.266 282.893 207.604 283.064C206.943 283.235 206.207 283.32 205.396 283.32ZM222.186 269.72H216.746V266.68H230.986V269.72H225.546V283H222.186V269.72ZM235.629 266.68H238.989V277.56L238.957 277.88H239.277L246.669 266.68H250.349V283H246.989V272.12L247.021 271.8H246.701L239.309 283H235.629V266.68ZM256.751 266.68H264.911C266.511 266.68 267.738 267.064 268.591 267.832C269.445 268.6 269.871 269.549 269.871 270.68C269.871 271.448 269.733 272.067 269.455 272.536C269.199 272.984 268.911 273.336 268.591 273.592C268.207 273.891 267.781 274.093 267.311 274.2V274.328C267.909 274.435 268.442 274.648 268.911 274.968C269.317 275.245 269.679 275.651 269.999 276.184C270.341 276.696 270.511 277.411 270.511 278.328C270.511 278.968 270.383 279.576 270.127 280.152C269.871 280.728 269.509 281.229 269.039 281.656C268.57 282.061 267.994 282.392 267.311 282.648C266.65 282.883 265.903 283 265.071 283H256.751V266.68ZM264.911 279.96C265.637 279.96 266.191 279.779 266.575 279.416C266.959 279.032 267.151 278.52 267.151 277.88C267.151 277.325 266.959 276.867 266.575 276.504C266.191 276.141 265.637 275.96 264.911 275.96H260.111V279.96H264.911ZM264.591 273.08C265.871 273.08 266.511 272.493 266.511 271.32C266.511 270.829 266.351 270.445 266.031 270.168C265.711 269.869 265.231 269.72 264.591 269.72H260.111V273.08H264.591ZM282.844 283.32C281.756 283.32 280.742 283.117 279.804 282.712C278.886 282.307 278.076 281.741 277.372 281.016C276.689 280.269 276.145 279.373 275.74 278.328C275.356 277.283 275.164 276.12 275.164 274.84C275.164 273.56 275.356 272.397 275.74 271.352C276.145 270.307 276.689 269.421 277.372 268.696C278.076 267.949 278.886 267.373 279.804 266.968C280.742 266.563 281.756 266.36 282.844 266.36C283.676 266.36 284.412 266.488 285.052 266.744C285.692 267 286.225 267.277 286.652 267.576C287.164 267.939 287.601 268.333 287.964 268.76H288.124V266.68H291.484V283H288.124V280.76H287.964C287.601 281.229 287.164 281.656 286.652 282.04C286.225 282.36 285.692 282.659 285.052 282.936C284.412 283.192 283.676 283.32 282.844 283.32ZM283.484 280.28C284.849 280.28 285.958 279.821 286.812 278.904C287.686 277.965 288.124 276.611 288.124 274.84C288.124 273.069 287.686 271.725 286.812 270.808C285.958 269.869 284.849 269.4 283.484 269.4C282.033 269.4 280.87 269.869 279.996 270.808C279.121 271.725 278.684 273.069 278.684 274.84C278.684 276.611 279.121 277.965 279.996 278.904C280.87 279.821 282.033 280.28 283.484 280.28ZM300.591 266.68H307.791L312.271 283H308.751L305.231 269.72H303.151L299.631 283H296.111L300.591 266.68ZM316.9 266.68H320.26V272.12H324.26C325.22 272.12 326.084 272.259 326.852 272.536C327.62 272.813 328.271 273.197 328.804 273.688C329.359 274.179 329.775 274.755 330.052 275.416C330.351 276.077 330.5 276.792 330.5 277.56C330.5 278.328 330.351 279.043 330.052 279.704C329.775 280.365 329.359 280.941 328.804 281.432C328.271 281.923 327.62 282.307 326.852 282.584C326.084 282.861 325.22 283 324.26 283H316.9V266.68ZM324.26 279.96C325.156 279.96 325.828 279.747 326.276 279.32C326.745 278.872 326.98 278.285 326.98 277.56C326.98 276.835 326.745 276.259 326.276 275.832C325.828 275.384 325.156 275.16 324.26 275.16H320.26V279.96H324.26ZM358.505 283.64C356.82 283.64 355.241 283.352 353.769 282.776C352.318 282.179 351.049 281.357 349.961 280.312C348.894 279.245 348.052 277.997 347.433 276.568C346.814 275.117 346.505 273.528 346.505 271.8C346.505 270.072 346.814 268.493 347.433 267.064C348.052 265.613 348.894 264.365 349.961 263.32C351.049 262.253 352.318 261.432 353.769 260.856C355.241 260.259 356.82 259.96 358.505 259.96C359.657 259.96 360.702 260.077 361.641 260.312C362.58 260.547 363.422 260.856 364.169 261.24C364.916 261.624 365.566 262.061 366.121 262.552C366.697 263.043 367.188 263.544 367.593 264.056C368.553 265.251 369.257 266.605 369.705 268.12H366.025C365.641 267.267 365.108 266.499 364.425 265.816C363.849 265.24 363.081 264.707 362.121 264.216C361.161 263.725 359.956 263.48 358.505 263.48C357.31 263.48 356.212 263.683 355.209 264.088C354.206 264.493 353.342 265.059 352.617 265.784C351.892 266.509 351.326 267.384 350.921 268.408C350.537 269.432 350.345 270.563 350.345 271.8C350.345 273.037 350.537 274.168 350.921 275.192C351.326 276.216 351.892 277.091 352.617 277.816C353.342 278.541 354.206 279.107 355.209 279.512C356.212 279.917 357.31 280.12 358.505 280.12C359.977 280.12 361.204 279.853 362.185 279.32C363.166 278.787 363.956 278.2 364.553 277.56C365.257 276.813 365.801 275.96 366.185 275H369.865C369.332 276.621 368.553 278.061 367.529 279.32C367.102 279.875 366.601 280.408 366.025 280.92C365.449 281.432 364.788 281.891 364.041 282.296C363.316 282.701 362.484 283.021 361.545 283.256C360.628 283.512 359.614 283.64 358.505 283.64ZM382.975 283.32C381.78 283.32 380.66 283.107 379.615 282.68C378.591 282.232 377.695 281.635 376.927 280.888C376.18 280.12 375.583 279.224 375.135 278.2C374.708 277.155 374.495 276.035 374.495 274.84C374.495 273.645 374.708 272.536 375.135 271.512C375.583 270.467 376.18 269.571 376.927 268.824C377.695 268.056 378.591 267.459 379.615 267.032C380.66 266.584 381.78 266.36 382.975 266.36C384.17 266.36 385.279 266.584 386.303 267.032C387.348 267.459 388.244 268.056 388.991 268.824C389.759 269.571 390.356 270.467 390.783 271.512C391.231 272.536 391.455 273.645 391.455 274.84C391.455 276.035 391.231 277.155 390.783 278.2C390.356 279.224 389.759 280.12 388.991 280.888C388.244 281.635 387.348 282.232 386.303 282.68C385.279 283.107 384.17 283.32 382.975 283.32ZM382.975 280.28C383.7 280.28 384.362 280.152 384.959 279.896C385.578 279.64 386.1 279.277 386.527 278.808C386.975 278.339 387.316 277.773 387.551 277.112C387.807 276.429 387.935 275.672 387.935 274.84C387.935 274.008 387.807 273.261 387.551 272.6C387.316 271.917 386.975 271.341 386.527 270.872C386.1 270.403 385.578 270.04 384.959 269.784C384.362 269.528 383.7 269.4 382.975 269.4C382.25 269.4 381.578 269.528 380.959 269.784C380.362 270.04 379.839 270.403 379.391 270.872C378.964 271.341 378.623 271.917 378.367 272.6C378.132 273.261 378.015 274.008 378.015 274.84C378.015 275.672 378.132 276.429 378.367 277.112C378.623 277.773 378.964 278.339 379.391 278.808C379.839 279.277 380.362 279.64 380.959 279.896C381.578 280.152 382.25 280.28 382.975 280.28ZM404.09 283.32C402.938 283.32 401.871 283.117 400.89 282.712C399.909 282.285 399.055 281.677 398.33 280.888C397.626 280.077 397.071 279.085 396.666 277.912C396.282 276.739 396.09 275.395 396.09 273.88C396.09 271.512 396.325 269.496 396.794 267.832C397.263 266.147 397.957 264.771 398.874 263.704C399.813 262.637 400.954 261.859 402.298 261.368C403.642 260.856 405.199 260.6 406.97 260.6H410.81V263.64H407.29C404.73 263.64 402.821 264.237 401.562 265.432C400.303 266.605 399.599 268.195 399.45 270.2H399.61C399.909 269.795 400.303 269.421 400.794 269.08C401.221 268.803 401.743 268.547 402.362 268.312C403.002 268.077 403.791 267.96 404.73 267.96C405.775 267.96 406.746 268.152 407.642 268.536C408.538 268.92 409.317 269.453 409.978 270.136C410.639 270.797 411.151 271.608 411.514 272.568C411.898 273.507 412.09 274.531 412.09 275.64C412.09 276.771 411.898 277.805 411.514 278.744C411.13 279.683 410.586 280.493 409.882 281.176C409.178 281.837 408.335 282.36 407.354 282.744C406.373 283.128 405.285 283.32 404.09 283.32ZM404.09 280.28C404.73 280.28 405.317 280.173 405.85 279.96C406.405 279.725 406.885 279.405 407.29 279C407.695 278.573 408.005 278.083 408.218 277.528C408.453 276.952 408.57 276.323 408.57 275.64C408.57 274.957 408.453 274.339 408.218 273.784C408.005 273.208 407.695 272.717 407.29 272.312C406.885 271.885 406.405 271.565 405.85 271.352C405.317 271.117 404.73 271 404.09 271C403.45 271 402.853 271.117 402.298 271.352C401.765 271.565 401.295 271.885 400.89 272.312C400.485 272.717 400.165 273.208 399.93 273.784C399.717 274.339 399.61 274.957 399.61 275.64C399.61 276.323 399.717 276.952 399.93 277.528C400.165 278.083 400.485 278.573 400.89 279C401.295 279.405 401.765 279.725 402.298 279.96C402.853 280.173 403.45 280.28 404.09 280.28ZM424.716 283.32C423.564 283.32 422.476 283.107 421.452 282.68C420.45 282.232 419.564 281.635 418.796 280.888C418.05 280.12 417.463 279.224 417.036 278.2C416.61 277.155 416.396 276.035 416.396 274.84C416.396 273.645 416.61 272.536 417.036 271.512C417.463 270.467 418.05 269.571 418.796 268.824C419.564 268.056 420.45 267.459 421.452 267.032C422.476 266.584 423.564 266.36 424.716 266.36C425.868 266.36 426.946 266.584 427.948 267.032C428.972 267.459 429.858 268.056 430.604 268.824C431.372 269.571 431.97 270.467 432.396 271.512C432.823 272.536 433.036 273.645 433.036 274.84V275.96H419.756C419.884 276.643 420.098 277.251 420.396 277.784C420.695 278.317 421.068 278.776 421.516 279.16C421.964 279.523 422.455 279.8 422.988 279.992C423.543 280.184 424.119 280.28 424.716 280.28C425.548 280.28 426.263 280.173 426.86 279.96C427.458 279.725 427.938 279.459 428.3 279.16C428.727 278.84 429.079 278.467 429.356 278.04H432.876C432.471 279.043 431.906 279.928 431.18 280.696C430.86 281.016 430.498 281.336 430.092 281.656C429.687 281.976 429.218 282.264 428.684 282.52C428.151 282.755 427.554 282.947 426.892 283.096C426.231 283.245 425.506 283.32 424.716 283.32ZM429.516 273.24C429.431 272.771 429.271 272.301 429.036 271.832C428.802 271.363 428.482 270.957 428.076 270.616C427.671 270.253 427.191 269.965 426.636 269.752C426.082 269.517 425.442 269.4 424.716 269.4C424.162 269.4 423.618 269.485 423.084 269.656C422.572 269.827 422.092 270.083 421.644 270.424C421.218 270.744 420.855 271.149 420.556 271.64C420.258 272.109 420.044 272.643 419.916 273.24H429.516ZM438.479 266.68H441.839V268.76H441.999C442.361 268.333 442.799 267.939 443.311 267.576C443.737 267.277 444.26 267 444.879 266.744C445.519 266.488 446.265 266.36 447.119 266.36C448.207 266.36 449.209 266.563 450.127 266.968C451.065 267.373 451.876 267.949 452.559 268.696C453.263 269.421 453.807 270.307 454.191 271.352C454.596 272.397 454.799 273.56 454.799 274.84C454.799 276.12 454.596 277.283 454.191 278.328C453.807 279.373 453.263 280.269 452.559 281.016C451.876 281.741 451.065 282.307 450.127 282.712C449.209 283.117 448.207 283.32 447.119 283.32C446.265 283.32 445.519 283.203 444.879 282.968C444.26 282.712 443.737 282.435 443.311 282.136C442.799 281.773 442.361 281.368 441.999 280.92H441.839V289.08H438.479V266.68ZM446.479 280.28C447.929 280.28 449.092 279.821 449.967 278.904C450.841 277.965 451.279 276.611 451.279 274.84C451.279 273.069 450.841 271.725 449.967 270.808C449.092 269.869 447.929 269.4 446.479 269.4C445.113 269.4 443.993 269.869 443.119 270.808C442.265 271.725 441.839 273.069 441.839 274.84C441.839 276.611 442.265 277.965 443.119 278.904C443.993 279.821 445.113 280.28 446.479 280.28ZM460.226 266.68H463.586V277.56L463.554 277.88H463.874L471.266 266.68H474.946V283H471.586V272.12L471.618 271.8H471.298L463.906 283H460.226V266.68ZM488.549 283.32C487.397 283.32 486.319 283.117 485.317 282.712C484.314 282.285 483.45 281.699 482.725 280.952C481.999 280.184 481.423 279.288 480.997 278.264C480.591 277.219 480.389 276.077 480.389 274.84C480.389 273.603 480.591 272.472 480.997 271.448C481.423 270.403 481.999 269.507 482.725 268.76C483.45 267.992 484.314 267.405 485.317 267C486.319 266.573 487.397 266.36 488.549 266.36C489.359 266.36 490.095 266.445 490.757 266.616C491.418 266.787 492.005 267.011 492.517 267.288C493.05 267.565 493.509 267.885 493.893 268.248C494.277 268.611 494.618 268.973 494.917 269.336C495.599 270.189 496.09 271.171 496.389 272.28H492.869C492.698 271.747 492.421 271.267 492.037 270.84C491.717 270.477 491.279 270.147 490.725 269.848C490.17 269.549 489.445 269.4 488.549 269.4C487.909 269.4 487.301 269.528 486.725 269.784C486.17 270.04 485.679 270.403 485.253 270.872C484.847 271.341 484.517 271.917 484.261 272.6C484.026 273.261 483.909 274.008 483.909 274.84C483.909 275.672 484.026 276.429 484.261 277.112C484.517 277.773 484.847 278.339 485.253 278.808C485.679 279.277 486.17 279.64 486.725 279.896C487.301 280.152 487.909 280.28 488.549 280.28C489.466 280.28 490.213 280.131 490.789 279.832C491.365 279.533 491.823 279.203 492.165 278.84C492.549 278.435 492.837 277.955 493.029 277.4H496.389C496.09 278.531 495.599 279.523 494.917 280.376C494.618 280.739 494.277 281.101 493.893 281.464C493.509 281.805 493.05 282.115 492.517 282.392C492.005 282.669 491.418 282.893 490.757 283.064C490.095 283.235 489.359 283.32 488.549 283.32ZM501.659 266.68H505.019V272.12H509.019C509.979 272.12 510.843 272.259 511.611 272.536C512.379 272.813 513.029 273.197 513.563 273.688C514.117 274.179 514.533 274.755 514.811 275.416C515.109 276.077 515.259 276.792 515.259 277.56C515.259 278.328 515.109 279.043 514.811 279.704C514.533 280.365 514.117 280.941 513.563 281.432C513.029 281.923 512.379 282.307 511.611 282.584C510.843 282.861 509.979 283 509.019 283H501.659V266.68ZM509.019 279.96C509.915 279.96 510.587 279.747 511.035 279.32C511.504 278.872 511.739 278.285 511.739 277.56C511.739 276.835 511.504 276.259 511.035 275.832C510.587 275.384 509.915 275.16 509.019 275.16H505.019V279.96H509.019Z" fill="black"/>
</svg>
