<svg width="1258" height="448" viewBox="0 0 1258 448" fill="none" xmlns="http://www.w3.org/2000/svg">
<g filter="url(#filter0_b_268_135)">
<path d="M0 139.886C0 62.629 62.629 0 139.886 0H841C936.545 0 1014 77.4547 1014 173V275C1014 370.545 936.545 448 841 448H390.008C343.553 448 305.894 410.341 305.894 363.886C305.894 317.431 268.234 279.771 221.779 279.771H139.886C62.629 279.771 0 217.142 0 139.886Z" fill="#FC5812" fill-opacity="0.3"/>
</g>
<path d="M96.7276 40.3837H100.921V54.5951H118.394V40.3837H122.588V73H118.394V58.5557H100.921V73H96.7276V40.3837ZM143.082 73.4659C141.56 73.4659 140.115 73.1708 138.749 72.5806C137.413 71.9594 136.233 71.1207 135.207 70.0645C134.182 68.9773 133.375 67.6882 132.785 66.1972C132.194 64.7061 131.899 63.0909 131.899 61.3513C131.899 59.6118 132.194 57.9965 132.785 56.5055C133.375 55.0145 134.182 53.7409 135.207 52.6847C136.233 51.5975 137.413 50.7588 138.749 50.1686C140.115 49.5473 141.56 49.2367 143.082 49.2367C144.604 49.2367 145.893 49.4542 146.949 49.889C148.005 50.3239 148.86 50.8054 149.512 51.3335C150.195 51.8616 150.677 52.3586 150.956 52.8245C151.267 53.2594 151.422 53.4768 151.422 53.4768H151.469V49.7027H155.197V73H151.469V69.2724H151.422C151.422 69.2724 151.267 69.5054 150.956 69.9713C150.677 70.4062 150.195 70.8877 149.512 71.4158C148.86 71.9128 148.005 72.3787 146.949 72.8136C145.893 73.2485 144.604 73.4659 143.082 73.4659ZM143.548 69.9713C144.666 69.9713 145.707 69.7694 146.67 69.3656C147.633 68.9307 148.471 68.3405 149.186 67.595C149.9 66.8184 150.459 65.9021 150.863 64.8459C151.267 63.7898 151.469 62.6249 151.469 61.3513C151.469 60.0777 151.267 58.9129 150.863 57.8567C150.459 56.8006 149.9 55.8998 149.186 55.1542C148.471 54.3777 147.633 53.7875 146.67 53.3836C145.707 52.9488 144.666 52.7313 143.548 52.7313C142.43 52.7313 141.389 52.9488 140.426 53.3836C139.463 53.7875 138.624 54.3777 137.91 55.1542C137.196 55.8998 136.636 56.8006 136.233 57.8567C135.829 58.9129 135.627 60.0777 135.627 61.3513C135.627 62.6249 135.829 63.7898 136.233 64.8459C136.636 65.9021 137.196 66.8184 137.91 67.595C138.624 68.3405 139.463 68.9307 140.426 69.3656C141.389 69.7694 142.43 69.9713 143.548 69.9713ZM165.464 49.7027H169.191V53.4302H169.238C169.238 53.4302 169.378 53.2128 169.657 52.7779C169.968 52.312 170.449 51.8305 171.102 51.3335C171.785 50.8054 172.655 50.3239 173.711 49.889C174.767 49.4542 176.056 49.2367 177.578 49.2367C179.101 49.2367 180.529 49.5473 181.865 50.1686C183.232 50.7588 184.428 51.5975 185.453 52.6847C186.478 53.7409 187.286 55.0145 187.876 56.5055C188.466 57.9965 188.761 59.6118 188.761 61.3513C188.761 63.0909 188.466 64.7061 187.876 66.1972C187.286 67.6882 186.478 68.9773 185.453 70.0645C184.428 71.1207 183.232 71.9594 181.865 72.5806C180.529 73.1708 179.101 73.4659 177.578 73.4659C176.056 73.4659 174.767 73.2485 173.711 72.8136C172.655 72.3787 171.785 71.9128 171.102 71.4158C170.449 70.8877 169.968 70.4062 169.657 69.9713C169.378 69.5054 169.238 69.2724 169.238 69.2724H169.191V81.853H165.464V49.7027ZM177.112 69.9713C178.231 69.9713 179.271 69.7694 180.234 69.3656C181.197 68.9307 182.036 68.3405 182.75 67.595C183.465 66.8184 184.024 65.9021 184.428 64.8459C184.832 63.7898 185.034 62.6249 185.034 61.3513C185.034 60.0777 184.832 58.9129 184.428 57.8567C184.024 56.8006 183.465 55.8998 182.75 55.1542C182.036 54.3777 181.197 53.7875 180.234 53.3836C179.271 52.9488 178.231 52.7313 177.112 52.7313C175.994 52.7313 174.954 52.9488 173.991 53.3836C173.028 53.7875 172.189 54.3777 171.475 55.1542C170.76 55.8998 170.201 56.8006 169.797 57.8567C169.393 58.9129 169.191 60.0777 169.191 61.3513C169.191 62.6249 169.393 63.7898 169.797 64.8459C170.201 65.9021 170.76 66.8184 171.475 67.595C172.189 68.3405 173.028 68.9307 173.991 69.3656C174.954 69.7694 175.994 69.9713 177.112 69.9713ZM208.347 73.4659C206.608 73.4659 204.992 73.1708 203.501 72.5806C202.01 71.9594 200.721 71.1207 199.634 70.0645C198.578 68.9773 197.739 67.6882 197.118 66.1972C196.528 64.7061 196.233 63.0909 196.233 61.3513C196.233 59.6118 196.528 57.9965 197.118 56.5055C197.739 55.0145 198.578 53.7409 199.634 52.6847C200.721 51.5975 202.01 50.7588 203.501 50.1686C204.992 49.5473 206.608 49.2367 208.347 49.2367C210.087 49.2367 211.702 49.5473 213.193 50.1686C214.684 50.7588 215.958 51.5975 217.014 52.6847C218.101 53.7409 218.94 55.0145 219.53 56.5055C220.151 57.9965 220.462 59.6118 220.462 61.3513C220.462 63.0909 220.151 64.7061 219.53 66.1972C218.94 67.6882 218.101 68.9773 217.014 70.0645C215.958 71.1207 214.684 71.9594 213.193 72.5806C211.702 73.1708 210.087 73.4659 208.347 73.4659ZM208.347 69.9713C209.559 69.9713 210.677 69.7694 211.702 69.3656C212.727 68.9307 213.612 68.3405 214.358 67.595C215.104 66.8184 215.678 65.9021 216.082 64.8459C216.517 63.7898 216.734 62.6249 216.734 61.3513C216.734 60.0777 216.517 58.9129 216.082 57.8567C215.678 56.8006 215.104 55.8998 214.358 55.1542C213.612 54.3777 212.727 53.7875 211.702 53.3836C210.677 52.9488 209.559 52.7313 208.347 52.7313C207.136 52.7313 206.018 52.9488 204.992 53.3836C203.967 53.7875 203.082 54.3777 202.337 55.1542C201.591 55.8998 201.001 56.8006 200.566 57.8567C200.162 58.9129 199.96 60.0777 199.96 61.3513C199.96 62.6249 200.162 63.7898 200.566 64.8459C201.001 65.9021 201.591 66.8184 202.337 67.595C203.082 68.3405 203.967 68.9307 204.992 69.3656C206.018 69.7694 207.136 69.9713 208.347 69.9713ZM226.268 69.5054H228.831L234.189 49.7027H243.974L249.332 69.5054H251.895V78.3584H248.168V73H229.996V78.3584H226.268V69.5054ZM245.605 69.5054L241.178 53.1973H236.985L232.558 69.5054H245.605ZM267.734 73H262.375L256.085 49.7027H260.046L265.171 69.5054H268.666L274.723 49.7027H278.683L268.899 81.853H264.938L267.734 73ZM306.169 53.1973H298.015V49.7027H318.05V53.1973H309.896V73H306.169V53.1973ZM334.612 73H329.253L322.963 49.7027H326.923L332.049 69.5054H335.543L341.601 49.7027H345.561L335.776 81.853H331.816L334.612 73ZM357.67 53.1973H349.516V49.7027H369.552V53.1973H361.398V73H357.67V53.1973ZM392.171 49.7027H403.586C405.823 49.7027 407.547 50.2618 408.758 51.3801C409.97 52.4983 410.575 53.8807 410.575 55.527C410.575 56.5831 410.405 57.4374 410.063 58.0897C409.752 58.742 409.379 59.2546 408.945 59.6273C408.541 60.0001 408.153 60.2641 407.78 60.4194C407.407 60.5437 407.174 60.6058 407.081 60.6058V60.6524C407.143 60.6524 407.407 60.7301 407.873 60.8854C408.339 61.0096 408.836 61.2737 409.364 61.6775C409.923 62.0813 410.42 62.656 410.855 63.4015C411.29 64.1159 411.507 65.0634 411.507 66.2438C411.507 68.2318 410.824 69.8626 409.457 71.1362C408.121 72.3787 406.18 73 403.633 73H392.171V49.7027ZM403.586 69.5054C404.984 69.5054 406.025 69.1948 406.708 68.5735C407.423 67.9212 407.78 67.0669 407.78 66.0108C407.78 64.9547 407.423 64.1159 406.708 63.4947C406.025 62.8424 404.984 62.5162 403.586 62.5162H395.898V69.5054H403.586ZM403.353 59.2546C404.534 59.2546 405.403 58.9905 405.963 58.4625C406.553 57.9033 406.848 57.1578 406.848 56.2259C406.848 55.294 406.553 54.564 405.963 54.036C405.403 53.4768 404.534 53.1973 403.353 53.1973H395.898V59.2546H403.353ZM430.629 73.4659C428.983 73.4659 427.445 73.1708 426.016 72.5806C424.619 71.9594 423.392 71.1207 422.335 70.0645C421.31 68.9773 420.487 67.6882 419.866 66.1972C419.276 64.7061 418.981 63.0909 418.981 61.3513C418.981 59.6118 419.276 57.9965 419.866 56.5055C420.487 55.0145 421.31 53.7409 422.335 52.6847C423.392 51.5975 424.619 50.7588 426.016 50.1686C427.445 49.5473 428.983 49.2367 430.629 49.2367C431.779 49.2367 432.819 49.361 433.751 49.6095C434.714 49.8269 435.568 50.1375 436.314 50.5414C437.059 50.9141 437.712 51.349 438.271 51.846C438.83 52.343 439.311 52.84 439.715 53.337C440.678 54.5485 441.377 55.8998 441.812 57.3908H438.084C437.712 56.521 437.199 55.7444 436.547 55.0611C435.988 54.4709 435.227 53.9428 434.264 53.4768C433.301 52.9798 432.089 52.7313 430.629 52.7313C429.511 52.7313 428.47 52.9488 427.507 53.3836C426.545 53.7875 425.706 54.3777 424.991 55.1542C424.277 55.8998 423.718 56.8006 423.314 57.8567C422.91 58.9129 422.708 60.0777 422.708 61.3513C422.708 62.656 422.926 63.8364 423.361 64.8925C423.795 65.9487 424.37 66.8495 425.085 67.595C425.799 68.3405 426.638 68.9307 427.601 69.3656C428.564 69.7694 429.573 69.9713 430.629 69.9713C432.151 69.9713 433.394 69.7073 434.357 69.1792C435.351 68.6512 436.143 68.061 436.733 67.4086C437.417 66.6631 437.945 65.8089 438.317 64.8459H442.045C441.61 66.4923 440.896 67.9367 439.902 69.1792C439.467 69.7073 438.97 70.2354 438.411 70.7635C437.852 71.2605 437.184 71.7109 436.407 72.1147C435.662 72.5185 434.807 72.8447 433.844 73.0932C432.881 73.3417 431.81 73.4659 430.629 73.4659ZM460.936 73.4659C459.258 73.4659 457.69 73.1708 456.23 72.5806C454.77 71.9594 453.512 71.1207 452.456 70.0645C451.4 68.9773 450.561 67.6882 449.94 66.1972C449.349 64.7061 449.054 63.0909 449.054 61.3513C449.054 59.6118 449.349 57.9965 449.94 56.5055C450.561 55.0145 451.4 53.7409 452.456 52.6847C453.512 51.5975 454.77 50.7588 456.23 50.1686C457.69 49.5473 459.258 49.2367 460.936 49.2367C462.613 49.2367 464.182 49.5473 465.642 50.1686C467.102 50.7588 468.36 51.582 469.416 52.6381C470.472 53.6943 471.295 54.9523 471.886 56.4123C472.507 57.8723 472.818 59.441 472.818 61.1184V62.5162H452.782C452.906 63.6034 453.201 64.613 453.667 65.5449C454.133 66.4457 454.723 67.2223 455.438 67.8746C456.152 68.5269 456.975 69.0395 457.907 69.4122C458.87 69.785 459.88 69.9713 460.936 69.9713C462.334 69.9713 463.514 69.7539 464.477 69.319C465.44 68.8841 466.232 68.4027 466.853 67.8746C467.568 67.2844 468.158 66.5855 468.624 65.7778H472.352C471.792 67.2378 471 68.5269 469.975 69.6452C469.074 70.6081 467.894 71.4934 466.434 72.3011C464.974 73.0777 463.141 73.4659 460.936 73.4659ZM468.857 59.2546C468.733 58.3848 468.453 57.5616 468.018 56.7851C467.614 55.9774 467.071 55.2785 466.387 54.6883C465.704 54.0981 464.896 53.6321 463.965 53.2905C463.064 52.9177 462.054 52.7313 460.936 52.7313C459.818 52.7313 458.793 52.9177 457.861 53.2905C456.96 53.6321 456.152 54.0981 455.438 54.6883C454.754 55.2785 454.195 55.9774 453.76 56.7851C453.325 57.5616 453.03 58.3848 452.875 59.2546H468.857ZM481.663 49.7027H497.738V53.1973H485.391V73H481.663V49.7027ZM501.246 69.5054H503.808L509.167 49.7027H518.952L524.31 69.5054H526.873V78.3584H523.145V73H504.973V78.3584H501.246V69.5054ZM520.583 69.5054L516.156 53.1973H511.963L507.536 69.5054H520.583ZM543.86 73.4659C542.338 73.4659 540.893 73.1708 539.527 72.5806C538.191 71.9594 537.01 71.1207 535.985 70.0645C534.96 68.9773 534.153 67.6882 533.562 66.1972C532.972 64.7061 532.677 63.0909 532.677 61.3513C532.677 59.6118 532.972 57.9965 533.562 56.5055C534.153 55.0145 534.96 53.7409 535.985 52.6847C537.01 51.5975 538.191 50.7588 539.527 50.1686C540.893 49.5473 542.338 49.2367 543.86 49.2367C545.382 49.2367 546.671 49.4542 547.727 49.889C548.783 50.3239 549.638 50.8054 550.29 51.3335C550.973 51.8616 551.455 52.3586 551.734 52.8245C552.045 53.2594 552.2 53.4768 552.2 53.4768H552.247V49.7027H555.974V73H552.247V69.2724H552.2C552.2 69.2724 552.045 69.5054 551.734 69.9713C551.455 70.4062 550.973 70.8877 550.29 71.4158C549.638 71.9128 548.783 72.3787 547.727 72.8136C546.671 73.2485 545.382 73.4659 543.86 73.4659ZM544.326 69.9713C545.444 69.9713 546.485 69.7694 547.448 69.3656C548.411 68.9307 549.249 68.3405 549.964 67.595C550.678 66.8184 551.237 65.9021 551.641 64.8459C552.045 63.7898 552.247 62.6249 552.247 61.3513C552.247 60.0777 552.045 58.9129 551.641 57.8567C551.237 56.8006 550.678 55.8998 549.964 55.1542C549.249 54.3777 548.411 53.7875 547.448 53.3836C546.485 52.9488 545.444 52.7313 544.326 52.7313C543.208 52.7313 542.167 52.9488 541.204 53.3836C540.241 53.7875 539.402 54.3777 538.688 55.1542C537.973 55.8998 537.414 56.8006 537.01 57.8567C536.607 58.9129 536.405 60.0777 536.405 61.3513C536.405 62.6249 536.607 63.7898 537.01 64.8459C537.414 65.9021 537.973 66.8184 538.688 67.595C539.402 68.3405 540.241 68.9307 541.204 69.3656C542.167 69.7694 543.208 69.9713 544.326 69.9713ZM583.029 49.7027H603.297V73H599.57V53.1973H586.756V73H583.029V49.7027ZM624.274 73.4659C622.534 73.4659 620.919 73.1708 619.428 72.5806C617.937 71.9594 616.648 71.1207 615.561 70.0645C614.505 68.9773 613.666 67.6882 613.045 66.1972C612.454 64.7061 612.159 63.0909 612.159 61.3513C612.159 59.6118 612.454 57.9965 613.045 56.5055C613.666 55.0145 614.505 53.7409 615.561 52.6847C616.648 51.5975 617.937 50.7588 619.428 50.1686C620.919 49.5473 622.534 49.2367 624.274 49.2367C626.013 49.2367 627.629 49.5473 629.12 50.1686C630.611 50.7588 631.884 51.5975 632.94 52.6847C634.028 53.7409 634.866 55.0145 635.457 56.5055C636.078 57.9965 636.388 59.6118 636.388 61.3513C636.388 63.0909 636.078 64.7061 635.457 66.1972C634.866 67.6882 634.028 68.9773 632.94 70.0645C631.884 71.1207 630.611 71.9594 629.12 72.5806C627.629 73.1708 626.013 73.4659 624.274 73.4659ZM624.274 69.9713C625.485 69.9713 626.604 69.7694 627.629 69.3656C628.654 68.9307 629.539 68.3405 630.285 67.595C631.03 66.8184 631.605 65.9021 632.009 64.8459C632.443 63.7898 632.661 62.6249 632.661 61.3513C632.661 60.0777 632.443 58.9129 632.009 57.8567C631.605 56.8006 631.03 55.8998 630.285 55.1542C629.539 54.3777 628.654 53.7875 627.629 53.3836C626.604 52.9488 625.485 52.7313 624.274 52.7313C623.062 52.7313 621.944 52.9488 620.919 53.3836C619.894 53.7875 619.009 54.3777 618.263 55.1542C617.518 55.8998 616.927 56.8006 616.493 57.8567C616.089 58.9129 615.887 60.0777 615.887 61.3513C615.887 62.6249 616.089 63.7898 616.493 64.8459C616.927 65.9021 617.518 66.8184 618.263 67.595C619.009 68.3405 619.894 68.9307 620.919 69.3656C621.944 69.7694 623.062 69.9713 624.274 69.9713ZM648.951 49.7027H658.736L665.259 73H661.298L655.94 53.1973H651.747L646.388 73H642.428L648.951 49.7027ZM672.703 49.7027H676.431V59.2546H689.477V49.7027H693.205V73H689.477V62.7492H676.431V73H672.703V49.7027ZM714.176 73.4659C712.437 73.4659 710.821 73.1708 709.33 72.5806C707.839 71.9594 706.55 71.1207 705.463 70.0645C704.407 68.9773 703.568 67.6882 702.947 66.1972C702.357 64.7061 702.061 63.0909 702.061 61.3513C702.061 59.6118 702.357 57.9965 702.947 56.5055C703.568 55.0145 704.407 53.7409 705.463 52.6847C706.55 51.5975 707.839 50.7588 709.33 50.1686C710.821 49.5473 712.437 49.2367 714.176 49.2367C715.916 49.2367 717.531 49.5473 719.022 50.1686C720.513 50.7588 721.787 51.5975 722.843 52.6847C723.93 53.7409 724.769 55.0145 725.359 56.5055C725.98 57.9965 726.291 59.6118 726.291 61.3513C726.291 63.0909 725.98 64.7061 725.359 66.1972C724.769 67.6882 723.93 68.9773 722.843 70.0645C721.787 71.1207 720.513 71.9594 719.022 72.5806C717.531 73.1708 715.916 73.4659 714.176 73.4659ZM714.176 69.9713C715.388 69.9713 716.506 69.7694 717.531 69.3656C718.556 68.9307 719.441 68.3405 720.187 67.595C720.932 66.8184 721.507 65.9021 721.911 64.8459C722.346 63.7898 722.563 62.6249 722.563 61.3513C722.563 60.0777 722.346 58.9129 721.911 57.8567C721.507 56.8006 720.932 55.8998 720.187 55.1542C719.441 54.3777 718.556 53.7875 717.531 53.3836C716.506 52.9488 715.388 52.7313 714.176 52.7313C712.965 52.7313 711.846 52.9488 710.821 53.3836C709.796 53.7875 708.911 54.3777 708.165 55.1542C707.42 55.8998 706.83 56.8006 706.395 57.8567C705.991 58.9129 705.789 60.0777 705.789 61.3513C705.789 62.6249 705.991 63.7898 706.395 64.8459C706.83 65.9021 707.42 66.8184 708.165 67.595C708.911 68.3405 709.796 68.9307 710.821 69.3656C711.846 69.7694 712.965 69.9713 714.176 69.9713ZM734.194 76.9605C736.057 76.7431 736.989 75.7336 736.989 73.9319V73.233C736.927 73.2951 736.834 73.3417 736.71 73.3728C736.461 73.4349 736.244 73.4659 736.057 73.4659C735.467 73.4659 734.97 73.2485 734.566 72.8136C734.163 72.3787 733.961 71.7885 733.961 71.043C733.961 70.1422 734.225 69.4277 734.753 68.8997C735.281 68.3716 735.949 68.1076 736.756 68.1076C737.564 68.1076 738.232 68.4337 738.76 69.086C739.288 69.7073 739.552 70.779 739.552 72.3011C739.552 74.4134 739.071 75.9976 738.108 77.0537C737.145 78.1099 735.84 78.7001 734.194 78.8243V76.9605ZM775.208 73.4659C773.686 73.4659 772.241 73.1708 770.875 72.5806C769.539 71.9594 768.358 71.1207 767.333 70.0645C766.308 68.9773 765.501 67.6882 764.91 66.1972C764.32 64.7061 764.025 63.0909 764.025 61.3513C764.025 59.6118 764.32 57.9965 764.91 56.5055C765.501 55.0145 766.308 53.7409 767.333 52.6847C768.358 51.5975 769.539 50.7588 770.875 50.1686C772.241 49.5473 773.686 49.2367 775.208 49.2367C776.73 49.2367 778.019 49.4542 779.075 49.889C780.131 50.3239 780.986 50.8054 781.638 51.3335C782.321 51.8616 782.803 52.3586 783.082 52.8245C783.393 53.2594 783.548 53.4768 783.548 53.4768H783.595V49.7027H787.322V73H783.595V69.2724H783.548C783.548 69.2724 783.393 69.5054 783.082 69.9713C782.803 70.4062 782.321 70.8877 781.638 71.4158C780.986 71.9128 780.131 72.3787 779.075 72.8136C778.019 73.2485 776.73 73.4659 775.208 73.4659ZM775.674 69.9713C776.792 69.9713 777.833 69.7694 778.796 69.3656C779.759 68.9307 780.597 68.3405 781.312 67.595C782.026 66.8184 782.585 65.9021 782.989 64.8459C783.393 63.7898 783.595 62.6249 783.595 61.3513C783.595 60.0777 783.393 58.9129 782.989 57.8567C782.585 56.8006 782.026 55.8998 781.312 55.1542C780.597 54.3777 779.759 53.7875 778.796 53.3836C777.833 52.9488 776.792 52.7313 775.674 52.7313C774.555 52.7313 773.515 52.9488 772.552 53.3836C771.589 53.7875 770.75 54.3777 770.036 55.1542C769.321 55.8998 768.762 56.8006 768.358 57.8567C767.955 58.9129 767.753 60.0777 767.753 61.3513C767.753 62.6249 767.955 63.7898 768.358 64.8459C768.762 65.9021 769.321 66.8184 770.036 67.595C770.75 68.3405 771.589 68.9307 772.552 69.3656C773.515 69.7694 774.555 69.9713 775.674 69.9713ZM818.091 53.1973H809.937V49.7027H829.973V53.1973H821.819V73H818.091V53.1973ZM847 73.4659C845.478 73.4659 844.034 73.1708 842.667 72.5806C841.331 71.9594 840.151 71.1207 839.126 70.0645C838.1 68.9773 837.293 67.6882 836.703 66.1972C836.112 64.7061 835.817 63.0909 835.817 61.3513C835.817 59.6118 836.112 57.9965 836.703 56.5055C837.293 55.0145 838.1 53.7409 839.126 52.6847C840.151 51.5975 841.331 50.7588 842.667 50.1686C844.034 49.5473 845.478 49.2367 847 49.2367C848.522 49.2367 849.811 49.4542 850.867 49.889C851.924 50.3239 852.778 50.8054 853.43 51.3335C854.114 51.8616 854.595 52.3586 854.875 52.8245C855.185 53.2594 855.341 53.4768 855.341 53.4768H855.387V49.7027H859.115V73H855.387V69.2724H855.341C855.341 69.2724 855.185 69.5054 854.875 69.9713C854.595 70.4062 854.114 70.8877 853.43 71.4158C852.778 71.9128 851.924 72.3787 850.867 72.8136C849.811 73.2485 848.522 73.4659 847 73.4659ZM847.466 69.9713C848.584 69.9713 849.625 69.7694 850.588 69.3656C851.551 68.9307 852.39 68.3405 853.104 67.595C853.818 66.8184 854.378 65.9021 854.781 64.8459C855.185 63.7898 855.387 62.6249 855.387 61.3513C855.387 60.0777 855.185 58.9129 854.781 57.8567C854.378 56.8006 853.818 55.8998 853.104 55.1542C852.39 54.3777 851.551 53.7875 850.588 53.3836C849.625 52.9488 848.584 52.7313 847.466 52.7313C846.348 52.7313 845.307 52.9488 844.344 53.3836C843.381 53.7875 842.543 54.3777 841.828 55.1542C841.114 55.8998 840.554 56.8006 840.151 57.8567C839.747 58.9129 839.545 60.0777 839.545 61.3513C839.545 62.6249 839.747 63.7898 840.151 64.8459C840.554 65.9021 841.114 66.8184 841.828 67.595C842.543 68.3405 843.381 68.9307 844.344 69.3656C845.307 69.7694 846.348 69.9713 847.466 69.9713ZM869.382 49.7027H873.109V59.0216H877.769L885.224 49.7027H889.651L881.031 60.6524L890.349 73H885.69L877.769 62.5162H873.109V73H869.382V49.7027ZM96.2616 107.703H116.53V131H112.803V111.197H99.9892V131H96.2616V107.703ZM126.79 107.703H130.518V111.43H130.564C130.564 111.43 130.704 111.213 130.984 110.778C131.294 110.312 131.776 109.83 132.428 109.333C133.112 108.805 133.981 108.324 135.037 107.889C136.094 107.454 137.383 107.237 138.905 107.237C140.427 107.237 141.856 107.547 143.192 108.169C144.558 108.759 145.754 109.598 146.779 110.685C147.804 111.741 148.612 113.014 149.202 114.505C149.792 115.997 150.088 117.612 150.088 119.351C150.088 121.091 149.792 122.706 149.202 124.197C148.612 125.688 147.804 126.977 146.779 128.065C145.754 129.121 144.558 129.959 143.192 130.581C141.856 131.171 140.427 131.466 138.905 131.466C137.383 131.466 136.094 131.249 135.037 130.814C133.981 130.379 133.112 129.913 132.428 129.416C131.776 128.888 131.294 128.406 130.984 127.971C130.704 127.505 130.564 127.272 130.564 127.272H130.518V139.853H126.79V107.703ZM138.439 127.971C139.557 127.971 140.598 127.769 141.561 127.366C142.524 126.931 143.362 126.341 144.077 125.595C144.791 124.818 145.35 123.902 145.754 122.846C146.158 121.79 146.36 120.625 146.36 119.351C146.36 118.078 146.158 116.913 145.754 115.857C145.35 114.801 144.791 113.9 144.077 113.154C143.362 112.378 142.524 111.787 141.561 111.384C140.598 110.949 139.557 110.731 138.439 110.731C137.321 110.731 136.28 110.949 135.317 111.384C134.354 111.787 133.515 112.378 132.801 113.154C132.086 113.9 131.527 114.801 131.124 115.857C130.72 116.913 130.518 118.078 130.518 119.351C130.518 120.625 130.72 121.79 131.124 122.846C131.527 123.902 132.086 124.818 132.801 125.595C133.515 126.341 134.354 126.931 135.317 127.366C136.28 127.769 137.321 127.971 138.439 127.971ZM158.957 107.703H162.685V125.176L162.638 125.642H162.731L175.265 107.703H179.459V131H175.731V113.527L175.778 113.061H175.684L163.15 131H158.957V107.703ZM189.713 107.703H193.441V117.022H198.1L205.555 107.703H209.982L201.362 118.652L210.681 131H206.021L198.1 120.516H193.441V131H189.713V107.703ZM227.728 131.466C225.988 131.466 224.373 131.171 222.882 130.581C221.391 129.959 220.102 129.121 219.015 128.065C217.958 126.977 217.12 125.688 216.498 124.197C215.908 122.706 215.613 121.091 215.613 119.351C215.613 117.612 215.908 115.997 216.498 114.505C217.12 113.014 217.958 111.741 219.015 110.685C220.102 109.598 221.391 108.759 222.882 108.169C224.373 107.547 225.988 107.237 227.728 107.237C229.467 107.237 231.083 107.547 232.574 108.169C234.065 108.759 235.338 109.598 236.394 110.685C237.482 111.741 238.32 113.014 238.91 114.505C239.532 115.997 239.842 117.612 239.842 119.351C239.842 121.091 239.532 122.706 238.91 124.197C238.32 125.688 237.482 126.977 236.394 128.065C235.338 129.121 234.065 129.959 232.574 130.581C231.083 131.171 229.467 131.466 227.728 131.466ZM227.728 127.971C228.939 127.971 230.057 127.769 231.083 127.366C232.108 126.931 232.993 126.341 233.738 125.595C234.484 124.818 235.059 123.902 235.462 122.846C235.897 121.79 236.115 120.625 236.115 119.351C236.115 118.078 235.897 116.913 235.462 115.857C235.059 114.801 234.484 113.9 233.738 113.154C232.993 112.378 232.108 111.787 231.083 111.384C230.057 110.949 228.939 110.731 227.728 110.731C226.516 110.731 225.398 110.949 224.373 111.384C223.348 111.787 222.463 112.378 221.717 113.154C220.972 113.9 220.381 114.801 219.946 115.857C219.543 116.913 219.341 118.078 219.341 119.351C219.341 120.625 219.543 121.79 219.946 122.846C220.381 123.902 220.972 124.818 221.717 125.595C222.463 126.341 223.348 126.931 224.373 127.366C225.398 127.769 226.516 127.971 227.728 127.971ZM252.405 107.703H262.19L268.713 131H264.752L259.394 111.197H255.2L249.842 131H245.881L252.405 107.703ZM276.157 107.703H279.885V115.624H286.408C287.744 115.624 288.955 115.826 290.042 116.229C291.13 116.633 292.061 117.192 292.838 117.907C293.615 118.59 294.205 119.398 294.609 120.33C295.043 121.262 295.261 122.256 295.261 123.312C295.261 124.368 295.043 125.362 294.609 126.294C294.205 127.226 293.615 128.049 292.838 128.763C292.061 129.447 291.13 129.99 290.042 130.394C288.955 130.798 287.744 131 286.408 131H276.157V107.703ZM286.408 127.505C288.054 127.505 289.312 127.102 290.182 126.294C291.083 125.486 291.533 124.492 291.533 123.312C291.533 122.131 291.083 121.137 290.182 120.33C289.312 119.522 288.054 119.118 286.408 119.118H279.885V127.505H286.408ZM303.41 107.703H307.137V117.255H320.184V107.703H323.911V131H320.184V120.749H307.137V131H303.41V107.703ZM334.166 107.703H337.893V115.624H343.485C344.82 115.624 346.032 115.826 347.119 116.229C348.206 116.633 349.138 117.192 349.915 117.907C350.691 118.59 351.281 119.398 351.685 120.33C352.12 121.262 352.338 122.256 352.338 123.312C352.338 124.368 352.12 125.362 351.685 126.294C351.281 127.226 350.691 128.049 349.915 128.763C349.138 129.447 348.206 129.99 347.119 130.394C346.032 130.798 344.82 131 343.485 131H334.166V107.703ZM343.485 127.505C345.131 127.505 346.389 127.102 347.259 126.294C348.16 125.486 348.61 124.492 348.61 123.312C348.61 122.131 348.16 121.137 347.259 120.33C346.389 119.522 345.131 119.118 343.485 119.118H337.893V127.505H343.485ZM355.366 107.703H359.094V131H355.366V107.703ZM379.819 131.466C378.142 131.466 376.573 131.171 375.113 130.581C373.653 129.959 372.395 129.121 371.339 128.065C370.283 126.977 369.444 125.688 368.823 124.197C368.233 122.706 367.938 121.091 367.938 119.351C367.938 117.612 368.233 115.997 368.823 114.505C369.444 113.014 370.283 111.741 371.339 110.685C372.395 109.598 373.653 108.759 375.113 108.169C376.573 107.547 378.142 107.237 379.819 107.237C381.497 107.237 383.065 107.547 384.525 108.169C385.985 108.759 387.243 109.582 388.3 110.638C389.356 111.694 390.179 112.952 390.769 114.412C391.39 115.872 391.701 117.441 391.701 119.118V120.516H371.665C371.789 121.603 372.085 122.613 372.551 123.545C373.016 124.446 373.607 125.222 374.321 125.875C375.036 126.527 375.859 127.039 376.791 127.412C377.754 127.785 378.763 127.971 379.819 127.971C381.217 127.971 382.398 127.754 383.361 127.319C384.323 126.884 385.116 126.403 385.737 125.875C386.451 125.284 387.041 124.585 387.507 123.778H391.235C390.676 125.238 389.884 126.527 388.859 127.645C387.958 128.608 386.777 129.493 385.317 130.301C383.858 131.078 382.025 131.466 379.819 131.466ZM387.74 117.255C387.616 116.385 387.337 115.562 386.902 114.785C386.498 113.977 385.954 113.278 385.271 112.688C384.587 112.098 383.78 111.632 382.848 111.29C381.947 110.918 380.938 110.731 379.819 110.731C378.701 110.731 377.676 110.918 376.744 111.29C375.843 111.632 375.036 112.098 374.321 112.688C373.638 113.278 373.079 113.977 372.644 114.785C372.209 115.562 371.914 116.385 371.758 117.255H387.74ZM417.333 107.703H421.061V117.022H425.721L433.176 107.703H437.602L428.982 118.652L438.301 131H433.642L425.721 120.516H421.061V131H417.333V107.703ZM454.416 131.466C452.894 131.466 451.45 131.171 450.083 130.581C448.747 129.959 447.567 129.121 446.542 128.065C445.517 126.977 444.709 125.688 444.119 124.197C443.529 122.706 443.234 121.091 443.234 119.351C443.234 117.612 443.529 115.997 444.119 114.505C444.709 113.014 445.517 111.741 446.542 110.685C447.567 109.598 448.747 108.759 450.083 108.169C451.45 107.547 452.894 107.237 454.416 107.237C455.938 107.237 457.228 107.454 458.284 107.889C459.34 108.324 460.194 108.805 460.846 109.333C461.53 109.862 462.011 110.359 462.291 110.825C462.601 111.259 462.757 111.477 462.757 111.477H462.803V107.703H466.531V131H462.803V127.272H462.757C462.757 127.272 462.601 127.505 462.291 127.971C462.011 128.406 461.53 128.888 460.846 129.416C460.194 129.913 459.34 130.379 458.284 130.814C457.228 131.249 455.938 131.466 454.416 131.466ZM454.882 127.971C456.001 127.971 457.041 127.769 458.004 127.366C458.967 126.931 459.806 126.341 460.52 125.595C461.235 124.818 461.794 123.902 462.198 122.846C462.601 121.79 462.803 120.625 462.803 119.351C462.803 118.078 462.601 116.913 462.198 115.857C461.794 114.801 461.235 113.9 460.52 113.154C459.806 112.378 458.967 111.787 458.004 111.384C457.041 110.949 456.001 110.731 454.882 110.731C453.764 110.731 452.723 110.949 451.76 111.384C450.797 111.787 449.959 112.378 449.244 113.154C448.53 113.9 447.971 114.801 447.567 115.857C447.163 116.913 446.961 118.078 446.961 119.351C446.961 120.625 447.163 121.79 447.567 122.846C447.971 123.902 448.53 124.818 449.244 125.595C449.959 126.341 450.797 126.931 451.76 127.366C452.723 127.769 453.764 127.971 454.882 127.971ZM491.708 122.38C491.211 122.722 490.637 123.032 489.984 123.312C489.425 123.56 488.711 123.778 487.841 123.964C487.002 124.151 486.039 124.244 484.952 124.244C482.125 124.244 479.935 123.514 478.382 122.054C476.86 120.563 476.099 118.575 476.099 116.09V107.703H479.827V115.857C479.827 117.379 480.277 118.575 481.178 119.445C482.079 120.314 483.415 120.749 485.185 120.749C486.241 120.749 487.173 120.672 487.981 120.516C488.788 120.361 489.472 120.175 490.031 119.957C490.683 119.709 491.242 119.429 491.708 119.118V107.703H495.436V131H491.708V122.38ZM516.172 131.466C514.495 131.466 512.926 131.171 511.466 130.581C510.006 129.959 508.748 129.121 507.692 128.065C506.636 126.977 505.797 125.688 505.176 124.197C504.586 122.706 504.291 121.091 504.291 119.351C504.291 117.612 504.586 115.997 505.176 114.505C505.797 113.014 506.636 111.741 507.692 110.685C508.748 109.598 510.006 108.759 511.466 108.169C512.926 107.547 514.495 107.237 516.172 107.237C517.85 107.237 519.419 107.547 520.878 108.169C522.338 108.759 523.597 109.582 524.653 110.638C525.709 111.694 526.532 112.952 527.122 114.412C527.743 115.872 528.054 117.441 528.054 119.118V120.516H508.018C508.143 121.603 508.438 122.613 508.904 123.545C509.37 124.446 509.96 125.222 510.674 125.875C511.389 126.527 512.212 127.039 513.144 127.412C514.107 127.785 515.116 127.971 516.172 127.971C517.57 127.971 518.751 127.754 519.714 127.319C520.677 126.884 521.469 126.403 522.09 125.875C522.804 125.284 523.395 124.585 523.861 123.778H527.588C527.029 125.238 526.237 126.527 525.212 127.645C524.311 128.608 523.131 129.493 521.671 130.301C520.211 131.078 518.378 131.466 516.172 131.466ZM524.094 117.255C523.969 116.385 523.69 115.562 523.255 114.785C522.851 113.977 522.307 113.278 521.624 112.688C520.941 112.098 520.133 111.632 519.201 111.29C518.3 110.918 517.291 110.731 516.172 110.731C515.054 110.731 514.029 110.918 513.097 111.29C512.196 111.632 511.389 112.098 510.674 112.688C509.991 113.278 509.432 113.977 508.997 114.785C508.562 115.562 508.267 116.385 508.112 117.255H524.094ZM540.627 107.703H550.412L556.935 131H552.975L547.617 111.197H543.423L538.065 131H534.104L540.627 107.703ZM564.38 107.703H568.107V125.176L568.061 125.642H568.154L580.688 107.703H584.881V131H581.154V113.527L581.2 113.061H581.107L568.573 131H564.38V107.703ZM594.204 134.961C596.068 134.743 597 133.734 597 131.932V131.233C596.937 131.295 596.844 131.342 596.72 131.373C596.472 131.435 596.254 131.466 596.068 131.466C595.478 131.466 594.981 131.249 594.577 130.814C594.173 130.379 593.971 129.789 593.971 129.043C593.971 128.142 594.235 127.428 594.763 126.9C595.291 126.372 595.959 126.108 596.767 126.108C597.574 126.108 598.242 126.434 598.77 127.086C599.298 127.707 599.562 128.779 599.562 130.301C599.562 132.413 599.081 133.998 598.118 135.054C597.155 136.11 595.85 136.7 594.204 136.824V134.961ZM625.433 107.703H629.161V125.176L629.114 125.642H629.207L641.741 107.703H645.935V131H642.207V113.527L642.254 113.061H642.161L629.627 131H625.433V107.703ZM656.189 107.703H659.917V117.255H672.964V107.703H676.691V131H672.964V120.749H659.917V131H656.189V107.703ZM692.071 111.197H683.917V107.703H703.953V111.197H695.799V131H692.071V111.197ZM721.679 131.466C720.001 131.466 718.432 131.171 716.973 130.581C715.513 129.959 714.255 129.121 713.198 128.065C712.142 126.977 711.304 125.688 710.682 124.197C710.092 122.706 709.797 121.091 709.797 119.351C709.797 117.612 710.092 115.997 710.682 114.505C711.304 113.014 712.142 111.741 713.198 110.685C714.255 109.598 715.513 108.759 716.973 108.169C718.432 107.547 720.001 107.237 721.679 107.237C723.356 107.237 724.925 107.547 726.385 108.169C727.845 108.759 729.103 109.582 730.159 110.638C731.215 111.694 732.038 112.952 732.628 114.412C733.25 115.872 733.56 117.441 733.56 119.118V120.516H713.525C713.649 121.603 713.944 122.613 714.41 123.545C714.876 124.446 715.466 125.222 716.18 125.875C716.895 126.527 717.718 127.039 718.65 127.412C719.613 127.785 720.622 127.971 721.679 127.971C723.076 127.971 724.257 127.754 725.22 127.319C726.183 126.884 726.975 126.403 727.596 125.875C728.311 125.284 728.901 124.585 729.367 123.778H733.094C732.535 125.238 731.743 126.527 730.718 127.645C729.817 128.608 728.637 129.493 727.177 130.301C725.717 131.078 723.884 131.466 721.679 131.466ZM729.6 117.255C729.475 116.385 729.196 115.562 728.761 114.785C728.357 113.977 727.814 113.278 727.13 112.688C726.447 112.098 725.639 111.632 724.707 111.29C723.806 110.918 722.797 110.731 721.679 110.731C720.56 110.731 719.535 110.918 718.603 111.29C717.703 111.632 716.895 112.098 716.18 112.688C715.497 113.278 714.938 113.977 714.503 114.785C714.068 115.562 713.773 116.385 713.618 117.255H729.6ZM742.406 107.703H746.133V111.43H746.18C746.18 111.43 746.32 111.213 746.599 110.778C746.91 110.312 747.392 109.83 748.044 109.333C748.727 108.805 749.597 108.324 750.653 107.889C751.709 107.454 752.998 107.237 754.521 107.237C756.043 107.237 757.472 107.547 758.807 108.169C760.174 108.759 761.37 109.598 762.395 110.685C763.42 111.741 764.228 113.014 764.818 114.505C765.408 115.997 765.703 117.612 765.703 119.351C765.703 121.091 765.408 122.706 764.818 124.197C764.228 125.688 763.42 126.977 762.395 128.065C761.37 129.121 760.174 129.959 758.807 130.581C757.472 131.171 756.043 131.466 754.521 131.466C752.998 131.466 751.709 131.249 750.653 130.814C749.597 130.379 748.727 129.913 748.044 129.416C747.392 128.888 746.91 128.406 746.599 127.971C746.32 127.505 746.18 127.272 746.18 127.272H746.133V139.853H742.406V107.703ZM754.055 127.971C755.173 127.971 756.213 127.769 757.176 127.366C758.139 126.931 758.978 126.341 759.693 125.595C760.407 124.818 760.966 123.902 761.37 122.846C761.774 121.79 761.976 120.625 761.976 119.351C761.976 118.078 761.774 116.913 761.37 115.857C760.966 114.801 760.407 113.9 759.693 113.154C758.978 112.378 758.139 111.787 757.176 111.384C756.213 110.949 755.173 110.731 754.055 110.731C752.936 110.731 751.896 110.949 750.933 111.384C749.97 111.787 749.131 112.378 748.417 113.154C747.702 113.9 747.143 114.801 746.739 115.857C746.335 116.913 746.133 118.078 746.133 119.351C746.133 120.625 746.335 121.79 746.739 122.846C747.143 123.902 747.702 124.818 748.417 125.595C749.131 126.341 749.97 126.931 750.933 127.366C751.896 127.769 752.936 127.971 754.055 127.971ZM785.056 131.466C783.379 131.466 781.81 131.171 780.35 130.581C778.89 129.959 777.632 129.121 776.576 128.065C775.52 126.977 774.681 125.688 774.06 124.197C773.47 122.706 773.175 121.091 773.175 119.351C773.175 117.612 773.47 115.997 774.06 114.505C774.681 113.014 775.52 111.741 776.576 110.685C777.632 109.598 778.89 108.759 780.35 108.169C781.81 107.547 783.379 107.237 785.056 107.237C786.734 107.237 788.302 107.547 789.762 108.169C791.222 108.759 792.48 109.582 793.537 110.638C794.593 111.694 795.416 112.952 796.006 114.412C796.627 115.872 796.938 117.441 796.938 119.118V120.516H776.902C777.027 121.603 777.322 122.613 777.788 123.545C778.254 124.446 778.844 125.222 779.558 125.875C780.273 126.527 781.096 127.039 782.028 127.412C782.991 127.785 784 127.971 785.056 127.971C786.454 127.971 787.635 127.754 788.598 127.319C789.561 126.884 790.353 126.403 790.974 125.875C791.688 125.284 792.279 124.585 792.745 123.778H796.472C795.913 125.238 795.121 126.527 794.096 127.645C793.195 128.608 792.015 129.493 790.555 130.301C789.095 131.078 787.262 131.466 785.056 131.466ZM792.977 117.255C792.853 116.385 792.574 115.562 792.139 114.785C791.735 113.977 791.191 113.278 790.508 112.688C789.825 112.098 789.017 111.632 788.085 111.29C787.184 110.918 786.175 110.731 785.056 110.731C783.938 110.731 782.913 110.918 781.981 111.29C781.08 111.632 780.273 112.098 779.558 112.688C778.875 113.278 778.316 113.977 777.881 114.785C777.446 115.562 777.151 116.385 776.996 117.255H792.977ZM816.035 131.466C814.388 131.466 812.851 131.171 811.422 130.581C810.024 129.959 808.797 129.121 807.741 128.065C806.716 126.977 805.893 125.688 805.271 124.197C804.681 122.706 804.386 121.091 804.386 119.351C804.386 117.612 804.681 115.997 805.271 114.505C805.893 113.014 806.716 111.741 807.741 110.685C808.797 109.598 810.024 108.759 811.422 108.169C812.851 107.547 814.388 107.237 816.035 107.237C817.184 107.237 818.225 107.361 819.156 107.609C820.119 107.827 820.974 108.138 821.719 108.541C822.465 108.914 823.117 109.349 823.676 109.846C824.235 110.343 824.717 110.84 825.121 111.337C826.084 112.549 826.782 113.9 827.217 115.391H823.49C823.117 114.521 822.604 113.744 821.952 113.061C821.393 112.471 820.632 111.943 819.669 111.477C818.706 110.98 817.495 110.731 816.035 110.731C814.916 110.731 813.876 110.949 812.913 111.384C811.95 111.787 811.111 112.378 810.397 113.154C809.682 113.9 809.123 114.801 808.719 115.857C808.315 116.913 808.114 118.078 808.114 119.351C808.114 120.656 808.331 121.836 808.766 122.893C809.201 123.949 809.775 124.85 810.49 125.595C811.204 126.341 812.043 126.931 813.006 127.366C813.969 127.769 814.978 127.971 816.035 127.971C817.557 127.971 818.799 127.707 819.762 127.179C820.756 126.651 821.548 126.061 822.139 125.409C822.822 124.663 823.35 123.809 823.723 122.846H827.45C827.015 124.492 826.301 125.937 825.307 127.179C824.872 127.707 824.375 128.235 823.816 128.763C823.257 129.26 822.589 129.711 821.812 130.115C821.067 130.519 820.213 130.845 819.25 131.093C818.287 131.342 817.215 131.466 816.035 131.466ZM835.857 107.703H839.585V117.255H852.631V107.703H856.359V131H852.631V120.749H839.585V131H835.857V107.703ZM866.613 107.703H870.341V115.624H875.932C877.268 115.624 878.48 115.826 879.567 116.229C880.654 116.633 881.586 117.192 882.362 117.907C883.139 118.59 883.729 119.398 884.133 120.33C884.568 121.262 884.785 122.256 884.785 123.312C884.785 124.368 884.568 125.362 884.133 126.294C883.729 127.226 883.139 128.049 882.362 128.763C881.586 129.447 880.654 129.99 879.567 130.394C878.48 130.798 877.268 131 875.932 131H866.613V107.703ZM875.932 127.505C877.579 127.505 878.837 127.102 879.707 126.294C880.607 125.486 881.058 124.492 881.058 123.312C881.058 122.131 880.607 121.137 879.707 120.33C878.837 119.522 877.579 119.118 875.932 119.118H870.341V127.505H875.932ZM887.814 107.703H891.542V131H887.814V107.703ZM901.783 107.703H905.511V125.176L905.464 125.642H905.558L918.091 107.703H922.285V131H918.557V113.527L918.604 113.061H918.511L905.977 131H901.783V107.703ZM912.034 102.111C909.798 102.111 908.074 101.552 906.862 100.434C905.651 99.3156 905.045 97.9333 905.045 96.287H908.54C908.54 97.0946 908.819 97.7625 909.378 98.2905C909.968 98.8186 910.854 99.0826 912.034 99.0826C913.215 99.0826 914.084 98.8186 914.643 98.2905C915.234 97.7625 915.529 97.0946 915.529 96.287H919.023C919.023 97.9333 918.418 99.3156 917.206 100.434C915.995 101.552 914.271 102.111 912.034 102.111ZM93.233 185.505H95.7957L101.154 165.703H110.939L116.297 185.505H118.86V194.358H115.132V189H96.9605V194.358H93.233V185.505ZM112.57 185.505L108.143 169.197H103.95L99.5233 185.505H112.57ZM126.062 165.703H129.79V183.176L129.743 183.642H129.836L142.37 165.703H146.564V189H142.836V171.527L142.883 171.061H142.79L130.256 189H126.062V165.703ZM164.739 189.466C163.559 189.466 162.518 189.357 161.618 189.14C160.717 188.922 159.909 188.643 159.195 188.301C158.511 187.928 157.906 187.509 157.377 187.043C156.88 186.577 156.461 186.111 156.119 185.645C155.312 184.527 154.768 183.238 154.489 181.778H158.216C158.403 182.585 158.76 183.284 159.288 183.875C159.723 184.403 160.36 184.884 161.198 185.319C162.068 185.754 163.248 185.971 164.739 185.971C166.727 185.971 168.187 185.583 169.119 184.806C170.082 184.03 170.564 183.176 170.564 182.244C170.564 181.312 170.129 180.504 169.259 179.821C168.389 179.106 166.96 178.749 164.972 178.749H162.177V175.255H164.972C166.836 175.255 168.156 174.944 168.933 174.323C169.71 173.701 170.098 172.925 170.098 171.993C170.098 171.185 169.663 170.44 168.793 169.756C167.954 169.073 166.603 168.731 164.739 168.731C163.497 168.731 162.503 168.918 161.757 169.29C161.012 169.663 160.422 170.067 159.987 170.502C159.49 171.03 159.133 171.605 158.915 172.226H155.188C155.467 170.921 156.011 169.756 156.818 168.731C157.16 168.296 157.564 167.877 158.03 167.473C158.496 167.038 159.055 166.666 159.707 166.355C160.36 166.013 161.089 165.749 161.897 165.563C162.736 165.345 163.683 165.237 164.739 165.237C166.262 165.237 167.582 165.423 168.7 165.796C169.849 166.138 170.797 166.603 171.542 167.194C172.319 167.784 172.893 168.483 173.266 169.29C173.639 170.067 173.825 170.89 173.825 171.76C173.825 172.754 173.639 173.577 173.266 174.229C172.893 174.882 172.459 175.41 171.962 175.814C171.496 176.186 171.045 176.451 170.61 176.606C170.207 176.761 169.958 176.854 169.865 176.885V176.932C169.927 176.932 170.191 177.01 170.657 177.165C171.123 177.32 171.62 177.615 172.148 178.05C172.707 178.454 173.204 179.013 173.639 179.728C174.074 180.442 174.291 181.358 174.291 182.477C174.291 183.409 174.089 184.294 173.686 185.133C173.282 185.971 172.676 186.717 171.868 187.369C171.061 188.022 170.067 188.534 168.886 188.907C167.706 189.28 166.324 189.466 164.739 189.466ZM192.946 189.466C191.423 189.466 189.979 189.171 188.612 188.581C187.277 187.959 186.096 187.121 185.071 186.065C184.046 184.977 183.238 183.688 182.648 182.197C182.058 180.706 181.763 179.091 181.763 177.351C181.763 175.612 182.058 173.997 182.648 172.505C183.238 171.014 184.046 169.741 185.071 168.685C186.096 167.598 187.277 166.759 188.612 166.169C189.979 165.547 191.423 165.237 192.946 165.237C194.468 165.237 195.757 165.454 196.813 165.889C197.869 166.324 198.723 166.805 199.376 167.333C200.059 167.862 200.541 168.359 200.82 168.825C201.131 169.259 201.286 169.477 201.286 169.477H201.333V165.703H205.06V189H201.333V185.272H201.286C201.286 185.272 201.131 185.505 200.82 185.971C200.541 186.406 200.059 186.888 199.376 187.416C198.723 187.913 197.869 188.379 196.813 188.814C195.757 189.249 194.468 189.466 192.946 189.466ZM193.412 185.971C194.53 185.971 195.57 185.769 196.533 185.366C197.496 184.931 198.335 184.341 199.049 183.595C199.764 182.818 200.323 181.902 200.727 180.846C201.131 179.79 201.333 178.625 201.333 177.351C201.333 176.078 201.131 174.913 200.727 173.857C200.323 172.801 199.764 171.9 199.049 171.154C198.335 170.378 197.496 169.787 196.533 169.384C195.57 168.949 194.53 168.731 193.412 168.731C192.293 168.731 191.253 168.949 190.29 169.384C189.327 169.787 188.488 170.378 187.774 171.154C187.059 171.9 186.5 172.801 186.096 173.857C185.692 174.913 185.49 176.078 185.49 177.351C185.49 178.625 185.692 179.79 186.096 180.846C186.5 181.902 187.059 182.818 187.774 183.595C188.488 184.341 189.327 184.931 190.29 185.366C191.253 185.769 192.293 185.971 193.412 185.971ZM215.327 165.703H219.055V183.176L219.008 183.642H219.102L231.636 165.703H235.829V189H232.101V171.527L232.148 171.061H232.055L219.521 189H215.327V165.703ZM225.578 160.111C223.342 160.111 221.618 159.552 220.406 158.434C219.195 157.316 218.589 155.933 218.589 154.287H222.084C222.084 155.095 222.363 155.762 222.922 156.291C223.513 156.819 224.398 157.083 225.578 157.083C226.759 157.083 227.628 156.819 228.188 156.291C228.778 155.762 229.073 155.095 229.073 154.287H232.567C232.567 155.933 231.962 157.316 230.75 158.434C229.539 159.552 227.815 160.111 225.578 160.111ZM246.084 165.703H249.811V175.255H262.858V165.703H266.585V189H262.858V178.749H249.811V189H246.084V165.703ZM293.626 165.703H297.354V183.176L297.307 183.642H297.401L309.935 165.703H314.128V189H310.401V171.527L310.447 171.061H310.354L297.82 189H293.626V165.703ZM351.653 189.233C349.914 189.109 348.298 188.72 346.807 188.068C345.316 187.416 344.027 186.562 342.94 185.505C341.884 184.418 341.045 183.191 340.424 181.824C339.834 180.427 339.539 178.936 339.539 177.351C339.539 175.767 339.834 174.292 340.424 172.925C341.045 171.527 341.884 170.3 342.94 169.244C344.027 168.157 345.316 167.287 346.807 166.635C348.298 165.982 349.914 165.594 351.653 165.47V156.384H355.381V165.47C357.12 165.594 358.736 165.982 360.227 166.635C361.718 167.287 362.991 168.157 364.047 169.244C365.135 170.3 365.973 171.527 366.563 172.925C367.185 174.292 367.495 175.767 367.495 177.351C367.495 178.936 367.185 180.427 366.563 181.824C365.973 183.191 365.135 184.418 364.047 185.505C362.991 186.562 361.718 187.416 360.227 188.068C358.736 188.72 357.12 189.109 355.381 189.233V197.853H351.653V189.233ZM351.653 168.964C350.442 169.026 349.323 169.275 348.298 169.71C347.273 170.145 346.388 170.735 345.642 171.48C344.897 172.226 344.307 173.111 343.872 174.136C343.468 175.13 343.266 176.202 343.266 177.351C343.266 178.532 343.468 179.619 343.872 180.613C344.307 181.607 344.897 182.477 345.642 183.222C346.388 183.968 347.273 184.558 348.298 184.993C349.323 185.428 350.442 185.676 351.653 185.738V168.964ZM355.381 185.738C356.592 185.676 357.711 185.428 358.736 184.993C359.761 184.558 360.646 183.968 361.391 183.222C362.137 182.477 362.712 181.607 363.115 180.613C363.55 179.619 363.768 178.532 363.768 177.351C363.768 176.202 363.55 175.13 363.115 174.136C362.712 173.111 362.137 172.226 361.391 171.48C360.646 170.735 359.761 170.145 358.736 169.71C357.711 169.275 356.592 169.026 355.381 168.964V185.738ZM384.748 189H379.39L373.099 165.703H377.06L382.185 185.505H385.68L391.737 165.703H395.698L385.913 197.853H381.952L384.748 189ZM402.682 165.703H406.409V175.255H419.456V165.703H423.183V189H419.456V178.749H406.409V189H402.682V165.703ZM433.438 165.703H437.165V175.022H441.825L449.28 165.703H453.706L445.086 176.652L454.405 189H449.746L441.825 178.516H437.165V189H433.438V165.703ZM480.75 189H461.646V165.703H465.373V185.505H477.488V165.703H481.216V185.505H484.477V194.358H480.75V189ZM492.174 165.703H495.902V183.176L495.855 183.642H495.949L508.482 165.703H512.676V189H508.948V171.527L508.995 171.061H508.902L496.368 189H492.174V165.703ZM533.647 189.466C531.908 189.466 530.292 189.171 528.801 188.581C527.31 187.959 526.021 187.121 524.934 186.065C523.878 184.977 523.039 183.688 522.418 182.197C521.828 180.706 521.533 179.091 521.533 177.351C521.533 175.612 521.828 173.997 522.418 172.505C523.039 171.014 523.878 169.741 524.934 168.685C526.021 167.598 527.31 166.759 528.801 166.169C530.292 165.547 531.908 165.237 533.647 165.237C535.387 165.237 537.002 165.547 538.493 166.169C539.984 166.759 541.258 167.598 542.314 168.685C543.401 169.741 544.24 171.014 544.83 172.505C545.451 173.997 545.762 175.612 545.762 177.351C545.762 179.091 545.451 180.706 544.83 182.197C544.24 183.688 543.401 184.977 542.314 186.065C541.258 187.121 539.984 187.959 538.493 188.581C537.002 189.171 535.387 189.466 533.647 189.466ZM533.647 185.971C534.859 185.971 535.977 185.769 537.002 185.366C538.027 184.931 538.912 184.341 539.658 183.595C540.403 182.818 540.978 181.902 541.382 180.846C541.817 179.79 542.034 178.625 542.034 177.351C542.034 176.078 541.817 174.913 541.382 173.857C540.978 172.801 540.403 171.9 539.658 171.154C538.912 170.378 538.027 169.787 537.002 169.384C535.977 168.949 534.859 168.731 533.647 168.731C532.436 168.731 531.318 168.949 530.292 169.384C529.267 169.787 528.382 170.378 527.637 171.154C526.891 171.9 526.301 172.801 525.866 173.857C525.462 174.913 525.26 176.078 525.26 177.351C525.26 178.625 525.462 179.79 525.866 180.846C526.301 181.902 526.891 182.818 527.637 183.595C528.382 184.341 529.267 184.931 530.292 185.366C531.318 185.769 532.436 185.971 533.647 185.971ZM554.597 165.703H558.324V175.255H571.371V165.703H575.098V189H571.371V178.749H558.324V189H554.597V165.703ZM595.138 189.466C593.616 189.466 592.171 189.171 590.804 188.581C589.469 187.959 588.288 187.121 587.263 186.065C586.238 184.977 585.43 183.688 584.84 182.197C584.25 180.706 583.955 179.091 583.955 177.351C583.955 175.612 584.25 173.997 584.84 172.505C585.43 171.014 586.238 169.741 587.263 168.685C588.288 167.598 589.469 166.759 590.804 166.169C592.171 165.547 593.616 165.237 595.138 165.237C596.66 165.237 597.949 165.454 599.005 165.889C600.061 166.324 600.915 166.805 601.568 167.333C602.251 167.862 602.733 168.359 603.012 168.825C603.323 169.259 603.478 169.477 603.478 169.477H603.525V165.703H607.252V189H603.525V185.272H603.478C603.478 185.272 603.323 185.505 603.012 185.971C602.733 186.406 602.251 186.888 601.568 187.416C600.915 187.913 600.061 188.379 599.005 188.814C597.949 189.249 596.66 189.466 595.138 189.466ZM595.604 185.971C596.722 185.971 597.762 185.769 598.725 185.366C599.688 184.931 600.527 184.341 601.242 183.595C601.956 182.818 602.515 181.902 602.919 180.846C603.323 179.79 603.525 178.625 603.525 177.351C603.525 176.078 603.323 174.913 602.919 173.857C602.515 172.801 601.956 171.9 601.242 171.154C600.527 170.378 599.688 169.787 598.725 169.384C597.762 168.949 596.722 168.731 595.604 168.731C594.485 168.731 593.445 168.949 592.482 169.384C591.519 169.787 590.68 170.378 589.966 171.154C589.251 171.9 588.692 172.801 588.288 173.857C587.884 174.913 587.683 176.078 587.683 177.351C587.683 178.625 587.884 179.79 588.288 180.846C588.692 181.902 589.251 182.818 589.966 183.595C590.68 184.341 591.519 184.931 592.482 185.366C593.445 185.769 594.485 185.971 595.604 185.971ZM621.247 165.703H631.032L637.555 189H633.595L628.236 169.197H624.043L618.684 189H614.724L621.247 165.703ZM661.786 165.703H665.514V175.255H678.56V165.703H682.288V189H678.56V178.749H665.514V189H661.786V165.703ZM703.026 189.466C701.349 189.466 699.78 189.171 698.32 188.581C696.86 187.959 695.602 187.121 694.546 186.065C693.49 184.977 692.651 183.688 692.03 182.197C691.44 180.706 691.144 179.091 691.144 177.351C691.144 175.612 691.44 173.997 692.03 172.505C692.651 171.014 693.49 169.741 694.546 168.685C695.602 167.598 696.86 166.759 698.32 166.169C699.78 165.547 701.349 165.237 703.026 165.237C704.704 165.237 706.272 165.547 707.732 166.169C709.192 166.759 710.45 167.582 711.506 168.638C712.563 169.694 713.386 170.952 713.976 172.412C714.597 173.872 714.908 175.441 714.908 177.118V178.516H694.872C694.996 179.603 695.291 180.613 695.757 181.545C696.223 182.446 696.814 183.222 697.528 183.875C698.242 184.527 699.066 185.039 699.997 185.412C700.96 185.785 701.97 185.971 703.026 185.971C704.424 185.971 705.604 185.754 706.567 185.319C707.53 184.884 708.322 184.403 708.944 183.875C709.658 183.284 710.248 182.585 710.714 181.778H714.442C713.883 183.238 713.091 184.527 712.065 185.645C711.165 186.608 709.984 187.493 708.524 188.301C707.064 189.078 705.232 189.466 703.026 189.466ZM710.947 175.255C710.823 174.385 710.543 173.562 710.109 172.785C709.705 171.977 709.161 171.278 708.478 170.688C707.794 170.098 706.987 169.632 706.055 169.29C705.154 168.918 704.144 168.731 703.026 168.731C701.908 168.731 700.883 168.918 699.951 169.29C699.05 169.632 698.242 170.098 697.528 170.688C696.845 171.278 696.285 171.977 695.851 172.785C695.416 173.562 695.121 174.385 694.965 175.255H710.947ZM740.54 165.703H760.809V189H757.081V169.197H744.268V189H740.54V165.703ZM781.786 189.466C780.046 189.466 778.431 189.171 776.94 188.581C775.449 187.959 774.16 187.121 773.073 186.065C772.016 184.977 771.178 183.688 770.556 182.197C769.966 180.706 769.671 179.091 769.671 177.351C769.671 175.612 769.966 173.997 770.556 172.505C771.178 171.014 772.016 169.741 773.073 168.685C774.16 167.598 775.449 166.759 776.94 166.169C778.431 165.547 780.046 165.237 781.786 165.237C783.525 165.237 785.141 165.547 786.632 166.169C788.123 166.759 789.396 167.598 790.452 168.685C791.54 169.741 792.378 171.014 792.968 172.505C793.59 173.997 793.9 175.612 793.9 177.351C793.9 179.091 793.59 180.706 792.968 182.197C792.378 183.688 791.54 184.977 790.452 186.065C789.396 187.121 788.123 187.959 786.632 188.581C785.141 189.171 783.525 189.466 781.786 189.466ZM781.786 185.971C782.997 185.971 784.115 185.769 785.141 185.366C786.166 184.931 787.051 184.341 787.796 183.595C788.542 182.818 789.117 181.902 789.52 180.846C789.955 179.79 790.173 178.625 790.173 177.351C790.173 176.078 789.955 174.913 789.52 173.857C789.117 172.801 788.542 171.9 787.796 171.154C787.051 170.378 786.166 169.787 785.141 169.384C784.115 168.949 782.997 168.731 781.786 168.731C780.574 168.731 779.456 168.949 778.431 169.384C777.406 169.787 776.521 170.378 775.775 171.154C775.029 171.9 774.439 172.801 774.004 173.857C773.601 174.913 773.399 176.078 773.399 177.351C773.399 178.625 773.601 179.79 774.004 180.846C774.439 181.902 775.029 182.818 775.775 183.595C776.521 184.341 777.406 184.931 778.431 185.366C779.456 185.769 780.574 185.971 781.786 185.971ZM799.706 185.505H802.269L807.628 165.703H817.412L822.771 185.505H825.333V194.358H821.606V189H803.434V194.358H799.706V185.505ZM819.043 185.505L814.617 169.197H810.423L805.997 185.505H819.043ZM832.536 165.703H836.263V175.022H840.923L848.378 165.703H852.804L844.184 176.652L853.503 189H848.844L840.923 178.516H836.263V189H832.536V165.703ZM869.618 189.466C868.096 189.466 866.652 189.171 865.285 188.581C863.949 187.959 862.769 187.121 861.744 186.065C860.719 184.977 859.911 183.688 859.321 182.197C858.731 180.706 858.436 179.091 858.436 177.351C858.436 175.612 858.731 173.997 859.321 172.505C859.911 171.014 860.719 169.741 861.744 168.685C862.769 167.598 863.949 166.759 865.285 166.169C866.652 165.547 868.096 165.237 869.618 165.237C871.141 165.237 872.43 165.454 873.486 165.889C874.542 166.324 875.396 166.805 876.049 167.333C876.732 167.862 877.213 168.359 877.493 168.825C877.804 169.259 877.959 169.477 877.959 169.477H878.006V165.703H881.733V189H878.006V185.272H877.959C877.959 185.272 877.804 185.505 877.493 185.971C877.213 186.406 876.732 186.888 876.049 187.416C875.396 187.913 874.542 188.379 873.486 188.814C872.43 189.249 871.141 189.466 869.618 189.466ZM870.084 185.971C871.203 185.971 872.243 185.769 873.206 185.366C874.169 184.931 875.008 184.341 875.722 183.595C876.437 182.818 876.996 181.902 877.4 180.846C877.804 179.79 878.006 178.625 878.006 177.351C878.006 176.078 877.804 174.913 877.4 173.857C876.996 172.801 876.437 171.9 875.722 171.154C875.008 170.378 874.169 169.787 873.206 169.384C872.243 168.949 871.203 168.731 870.084 168.731C868.966 168.731 867.926 168.949 866.963 169.384C866 169.787 865.161 170.378 864.446 171.154C863.732 171.9 863.173 172.801 862.769 173.857C862.365 174.913 862.163 176.078 862.163 177.351C862.163 178.625 862.365 179.79 862.769 180.846C863.173 181.902 863.732 182.818 864.446 183.595C865.161 184.341 866 184.931 866.963 185.366C867.926 185.769 868.966 185.971 870.084 185.971ZM906.911 180.38C906.414 180.722 905.839 181.032 905.187 181.312C904.627 181.56 903.913 181.778 903.043 181.964C902.205 182.151 901.242 182.244 900.154 182.244C897.328 182.244 895.138 181.514 893.584 180.054C892.062 178.563 891.301 176.575 891.301 174.09V165.703H895.029V173.857C895.029 175.379 895.479 176.575 896.38 177.445C897.281 178.314 898.617 178.749 900.387 178.749C901.443 178.749 902.375 178.672 903.183 178.516C903.991 178.361 904.674 178.175 905.233 177.957C905.885 177.709 906.445 177.429 906.911 177.118V165.703H910.638V189H906.911V180.38ZM930.676 189.466C929.154 189.466 927.709 189.171 926.342 188.581C925.007 187.959 923.826 187.121 922.801 186.065C921.776 184.977 920.968 183.688 920.378 182.197C919.788 180.706 919.493 179.091 919.493 177.351C919.493 175.612 919.788 173.997 920.378 172.505C920.968 171.014 921.776 169.741 922.801 168.685C923.826 167.598 925.007 166.759 926.342 166.169C927.709 165.547 929.154 165.237 930.676 165.237C932.198 165.237 933.487 165.454 934.543 165.889C935.599 166.324 936.453 166.805 937.106 167.333C937.789 167.862 938.271 168.359 938.55 168.825C938.861 169.259 939.016 169.477 939.016 169.477H939.063V165.703H942.79V189H939.063V185.272H939.016C939.016 185.272 938.861 185.505 938.55 185.971C938.271 186.406 937.789 186.888 937.106 187.416C936.453 187.913 935.599 188.379 934.543 188.814C933.487 189.249 932.198 189.466 930.676 189.466ZM931.142 185.971C932.26 185.971 933.301 185.769 934.264 185.366C935.226 184.931 936.065 184.341 936.78 183.595C937.494 182.818 938.053 181.902 938.457 180.846C938.861 179.79 939.063 178.625 939.063 177.351C939.063 176.078 938.861 174.913 938.457 173.857C938.053 172.801 937.494 171.9 936.78 171.154C936.065 170.378 935.226 169.787 934.264 169.384C933.301 168.949 932.26 168.731 931.142 168.731C930.023 168.731 928.983 168.949 928.02 169.384C927.057 169.787 926.218 170.378 925.504 171.154C924.789 171.9 924.23 172.801 923.826 173.857C923.422 174.913 923.221 176.078 923.221 177.351C923.221 178.625 923.422 179.79 923.826 180.846C924.23 181.902 924.789 182.818 925.504 183.595C926.218 184.341 927.057 184.931 928.02 185.366C928.983 185.769 930.023 185.971 931.142 185.971ZM956.785 165.703H966.57L973.093 189H969.133L963.774 169.197H959.581L954.222 189H950.262L956.785 165.703ZM104.649 218.344H93.4659V214.384H120.025V218.344H108.842V247H104.649V218.344ZM136.792 247H131.433L125.143 223.703H129.104L134.229 243.505H137.724L143.781 223.703H147.741L137.957 255.853H133.996L136.792 247ZM159.851 227.197H151.697V223.703H171.732V227.197H163.578V247H159.851V227.197ZM191.322 243.505H193.885L199.243 223.703H209.028L214.386 243.505H216.949V252.358H213.222V247H195.05V252.358H191.322V243.505ZM210.659 243.505L206.232 227.197H202.039L197.612 243.505H210.659ZM233.936 247.466C232.414 247.466 230.97 247.171 229.603 246.581C228.267 245.959 227.087 245.121 226.062 244.065C225.037 242.977 224.229 241.688 223.639 240.197C223.049 238.706 222.753 237.091 222.753 235.351C222.753 233.612 223.049 231.997 223.639 230.505C224.229 229.014 225.037 227.741 226.062 226.685C227.087 225.598 228.267 224.759 229.603 224.169C230.97 223.547 232.414 223.237 233.936 223.237C235.458 223.237 236.747 223.454 237.803 223.889C238.86 224.324 239.714 224.805 240.366 225.333C241.05 225.862 241.531 226.359 241.811 226.825C242.121 227.259 242.277 227.477 242.277 227.477H242.323V223.703H246.051V247H242.323V243.272H242.277C242.277 243.272 242.121 243.505 241.811 243.971C241.531 244.406 241.05 244.888 240.366 245.416C239.714 245.913 238.86 246.379 237.803 246.814C236.747 247.249 235.458 247.466 233.936 247.466ZM234.402 243.971C235.52 243.971 236.561 243.769 237.524 243.366C238.487 242.931 239.326 242.341 240.04 241.595C240.754 240.818 241.314 239.902 241.717 238.846C242.121 237.79 242.323 236.625 242.323 235.351C242.323 234.078 242.121 232.913 241.717 231.857C241.314 230.801 240.754 229.9 240.04 229.154C239.326 228.378 238.487 227.787 237.524 227.384C236.561 226.949 235.52 226.731 234.402 226.731C233.284 226.731 232.243 226.949 231.28 227.384C230.317 227.787 229.479 228.378 228.764 229.154C228.05 229.9 227.491 230.801 227.087 231.857C226.683 232.913 226.481 234.078 226.481 235.351C226.481 236.625 226.683 237.79 227.087 238.846C227.491 239.902 228.05 240.818 228.764 241.595C229.479 242.341 230.317 242.931 231.28 243.366C232.243 243.769 233.284 243.971 234.402 243.971ZM262.142 234.652L253.988 223.703H258.415L265.404 233.022H269.364V223.703H273.092V233.022H277.053L284.042 223.703H288.468L280.314 234.652L289.167 247H284.508L277.053 236.516H273.092V247H269.364V236.516H265.404L257.949 247H253.289L262.142 234.652ZM305.976 247.466C304.298 247.466 302.73 247.171 301.27 246.581C299.81 245.959 298.552 245.121 297.496 244.065C296.439 242.977 295.601 241.688 294.98 240.197C294.389 238.706 294.094 237.091 294.094 235.351C294.094 233.612 294.389 231.997 294.98 230.505C295.601 229.014 296.439 227.741 297.496 226.685C298.552 225.598 299.81 224.759 301.27 224.169C302.73 223.547 304.298 223.237 305.976 223.237C307.653 223.237 309.222 223.547 310.682 224.169C312.142 224.759 313.4 225.582 314.456 226.638C315.512 227.694 316.335 228.952 316.926 230.412C317.547 231.872 317.858 233.441 317.858 235.118V236.516H297.822C297.946 237.603 298.241 238.613 298.707 239.545C299.173 240.446 299.763 241.222 300.478 241.875C301.192 242.527 302.015 243.039 302.947 243.412C303.91 243.785 304.92 243.971 305.976 243.971C307.374 243.971 308.554 243.754 309.517 243.319C310.48 242.884 311.272 242.403 311.893 241.875C312.608 241.284 313.198 240.585 313.664 239.778H317.392C316.832 241.238 316.04 242.527 315.015 243.645C314.114 244.608 312.934 245.493 311.474 246.301C310.014 247.078 308.181 247.466 305.976 247.466ZM313.897 233.255C313.773 232.385 313.493 231.562 313.058 230.785C312.654 229.977 312.111 229.278 311.427 228.688C310.744 228.098 309.936 227.632 309.005 227.29C308.104 226.918 307.094 226.731 305.976 226.731C304.858 226.731 303.833 226.918 302.901 227.29C302 227.632 301.192 228.098 300.478 228.688C299.794 229.278 299.235 229.977 298.8 230.785C298.365 231.562 298.07 232.385 297.915 233.255H313.897ZM343.49 223.703H354.906C357.142 223.703 358.866 224.262 360.078 225.38C361.289 226.498 361.895 227.881 361.895 229.527C361.895 230.583 361.724 231.437 361.382 232.09C361.072 232.742 360.699 233.255 360.264 233.627C359.86 234 359.472 234.264 359.099 234.419C358.726 234.544 358.494 234.606 358.4 234.606V234.652C358.462 234.652 358.726 234.73 359.192 234.885C359.658 235.01 360.155 235.274 360.683 235.677C361.243 236.081 361.74 236.656 362.174 237.401C362.609 238.116 362.827 239.063 362.827 240.244C362.827 242.232 362.143 243.863 360.777 245.136C359.441 246.379 357.5 247 354.952 247H343.49V223.703ZM354.906 243.505C356.304 243.505 357.344 243.195 358.028 242.574C358.742 241.921 359.099 241.067 359.099 240.011C359.099 238.955 358.742 238.116 358.028 237.495C357.344 236.842 356.304 236.516 354.906 236.516H347.218V243.505H354.906ZM354.673 233.255C355.853 233.255 356.723 232.991 357.282 232.462C357.872 231.903 358.167 231.158 358.167 230.226C358.167 229.294 357.872 228.564 357.282 228.036C356.723 227.477 355.853 227.197 354.673 227.197H347.218V233.255H354.673ZM379.619 247.466C378.439 247.466 377.398 247.357 376.497 247.14C375.596 246.922 374.789 246.643 374.074 246.301C373.391 245.928 372.785 245.509 372.257 245.043C371.76 244.577 371.341 244.111 370.999 243.645C370.191 242.527 369.648 241.238 369.368 239.778H373.096C373.282 240.585 373.639 241.284 374.168 241.875C374.602 242.403 375.239 242.884 376.078 243.319C376.948 243.754 378.128 243.971 379.619 243.971C381.607 243.971 383.067 243.583 383.999 242.806C384.962 242.03 385.443 241.176 385.443 240.244C385.443 239.312 385.009 238.504 384.139 237.821C383.269 237.106 381.84 236.749 379.852 236.749H377.056V233.255H379.852C381.716 233.255 383.036 232.944 383.813 232.323C384.589 231.701 384.977 230.925 384.977 229.993C384.977 229.185 384.543 228.44 383.673 227.756C382.834 227.073 381.483 226.731 379.619 226.731C378.377 226.731 377.383 226.918 376.637 227.29C375.892 227.663 375.301 228.067 374.866 228.502C374.369 229.03 374.012 229.605 373.795 230.226H370.067C370.347 228.921 370.89 227.756 371.698 226.731C372.04 226.296 372.444 225.877 372.909 225.473C373.375 225.038 373.935 224.666 374.587 224.355C375.239 224.013 375.969 223.749 376.777 223.563C377.616 223.345 378.563 223.237 379.619 223.237C381.141 223.237 382.461 223.423 383.58 223.796C384.729 224.138 385.676 224.603 386.422 225.194C387.198 225.784 387.773 226.483 388.146 227.29C388.519 228.067 388.705 228.89 388.705 229.76C388.705 230.754 388.519 231.577 388.146 232.229C387.773 232.882 387.338 233.41 386.841 233.814C386.375 234.186 385.925 234.451 385.49 234.606C385.086 234.761 384.838 234.854 384.745 234.885V234.932C384.807 234.932 385.071 235.01 385.537 235.165C386.003 235.32 386.5 235.615 387.028 236.05C387.587 236.454 388.084 237.013 388.519 237.728C388.954 238.442 389.171 239.358 389.171 240.477C389.171 241.409 388.969 242.294 388.565 243.133C388.161 243.971 387.556 244.717 386.748 245.369C385.94 246.022 384.946 246.534 383.766 246.907C382.586 247.28 381.203 247.466 379.619 247.466ZM398.04 223.703H401.768V227.43H401.815C401.815 227.43 401.954 227.213 402.234 226.778C402.545 226.312 403.026 225.83 403.678 225.333C404.362 224.805 405.231 224.324 406.288 223.889C407.344 223.454 408.633 223.237 410.155 223.237C411.677 223.237 413.106 223.547 414.442 224.169C415.808 224.759 417.004 225.598 418.029 226.685C419.055 227.741 419.862 229.014 420.452 230.505C421.043 231.997 421.338 233.612 421.338 235.351C421.338 237.091 421.043 238.706 420.452 240.197C419.862 241.688 419.055 242.977 418.029 244.065C417.004 245.121 415.808 245.959 414.442 246.581C413.106 247.171 411.677 247.466 410.155 247.466C408.633 247.466 407.344 247.249 406.288 246.814C405.231 246.379 404.362 245.913 403.678 245.416C403.026 244.888 402.545 244.406 402.234 243.971C401.954 243.505 401.815 243.272 401.815 243.272H401.768V255.853H398.04V223.703ZM409.689 243.971C410.807 243.971 411.848 243.769 412.811 243.366C413.774 242.931 414.613 242.341 415.327 241.595C416.041 240.818 416.601 239.902 417.004 238.846C417.408 237.79 417.61 236.625 417.61 235.351C417.61 234.078 417.408 232.913 417.004 231.857C416.601 230.801 416.041 229.9 415.327 229.154C414.613 228.378 413.774 227.787 412.811 227.384C411.848 226.949 410.807 226.731 409.689 226.731C408.571 226.731 407.53 226.949 406.567 227.384C405.604 227.787 404.766 228.378 404.051 229.154C403.337 229.9 402.777 230.801 402.374 231.857C401.97 232.913 401.768 234.078 401.768 235.351C401.768 236.625 401.97 237.79 402.374 238.846C402.777 239.902 403.337 240.818 404.051 241.595C404.766 242.341 405.604 242.931 406.567 243.366C407.53 243.769 408.571 243.971 409.689 243.971ZM440.924 247.466C439.184 247.466 437.569 247.171 436.078 246.581C434.587 245.959 433.298 245.121 432.211 244.065C431.154 242.977 430.316 241.688 429.695 240.197C429.104 238.706 428.809 237.091 428.809 235.351C428.809 233.612 429.104 231.997 429.695 230.505C430.316 229.014 431.154 227.741 432.211 226.685C433.298 225.598 434.587 224.759 436.078 224.169C437.569 223.547 439.184 223.237 440.924 223.237C442.663 223.237 444.279 223.547 445.77 224.169C447.261 224.759 448.534 225.598 449.59 226.685C450.678 227.741 451.516 229.014 452.107 230.505C452.728 231.997 453.038 233.612 453.038 235.351C453.038 237.091 452.728 238.706 452.107 240.197C451.516 241.688 450.678 242.977 449.59 244.065C448.534 245.121 447.261 245.959 445.77 246.581C444.279 247.171 442.663 247.466 440.924 247.466ZM440.924 243.971C442.135 243.971 443.254 243.769 444.279 243.366C445.304 242.931 446.189 242.341 446.935 241.595C447.68 240.818 448.255 239.902 448.659 238.846C449.093 237.79 449.311 236.625 449.311 235.351C449.311 234.078 449.093 232.913 448.659 231.857C448.255 230.801 447.68 229.9 446.935 229.154C446.189 228.378 445.304 227.787 444.279 227.384C443.254 226.949 442.135 226.731 440.924 226.731C439.712 226.731 438.594 226.949 437.569 227.384C436.544 227.787 435.659 228.378 434.913 229.154C434.168 229.9 433.577 230.801 433.143 231.857C432.739 232.913 432.537 234.078 432.537 235.351C432.537 236.625 432.739 237.79 433.143 238.846C433.577 239.902 434.168 240.818 434.913 241.595C435.659 242.341 436.544 242.931 437.569 243.366C438.594 243.769 439.712 243.971 440.924 243.971ZM472.124 247.466C470.478 247.466 468.94 247.171 467.511 246.581C466.113 245.959 464.886 245.121 463.83 244.065C462.805 242.977 461.982 241.688 461.361 240.197C460.771 238.706 460.475 237.091 460.475 235.351C460.475 233.612 460.771 231.997 461.361 230.505C461.982 229.014 462.805 227.741 463.83 226.685C464.886 225.598 466.113 224.759 467.511 224.169C468.94 223.547 470.478 223.237 472.124 223.237C473.273 223.237 474.314 223.361 475.246 223.609C476.209 223.827 477.063 224.138 477.809 224.541C478.554 224.914 479.206 225.349 479.766 225.846C480.325 226.343 480.806 226.84 481.21 227.337C482.173 228.549 482.872 229.9 483.307 231.391H479.579C479.206 230.521 478.694 229.744 478.042 229.061C477.482 228.471 476.721 227.943 475.758 227.477C474.796 226.98 473.584 226.731 472.124 226.731C471.006 226.731 469.965 226.949 469.002 227.384C468.039 227.787 467.201 228.378 466.486 229.154C465.772 229.9 465.213 230.801 464.809 231.857C464.405 232.913 464.203 234.078 464.203 235.351C464.203 236.656 464.42 237.836 464.855 238.893C465.29 239.949 465.865 240.85 466.579 241.595C467.294 242.341 468.132 242.931 469.095 243.366C470.058 243.769 471.068 243.971 472.124 243.971C473.646 243.971 474.889 243.707 475.852 243.179C476.846 242.651 477.638 242.061 478.228 241.409C478.911 240.663 479.439 239.809 479.812 238.846H483.54C483.105 240.492 482.39 241.937 481.396 243.179C480.962 243.707 480.465 244.235 479.905 244.763C479.346 245.26 478.678 245.711 477.902 246.115C477.156 246.519 476.302 246.845 475.339 247.093C474.376 247.342 473.304 247.466 472.124 247.466ZM495.674 223.703H505.459L511.983 247H508.022L502.664 227.197H498.47L493.112 247H489.151L495.674 223.703ZM519.427 223.703H523.154V231.624H528.746C530.081 231.624 531.293 231.826 532.38 232.229C533.467 232.633 534.399 233.192 535.176 233.907C535.952 234.59 536.543 235.398 536.946 236.33C537.381 237.262 537.599 238.256 537.599 239.312C537.599 240.368 537.381 241.362 536.946 242.294C536.543 243.226 535.952 244.049 535.176 244.763C534.399 245.447 533.467 245.99 532.38 246.394C531.293 246.798 530.081 247 528.746 247H519.427V223.703ZM528.746 243.505C530.392 243.505 531.65 243.102 532.52 242.294C533.421 241.486 533.871 240.492 533.871 239.312C533.871 238.131 533.421 237.137 532.52 236.33C531.65 235.522 530.392 235.118 528.746 235.118H523.154V243.505H528.746ZM540.627 223.703H544.355V247H540.627V223.703ZM565.08 247.466C563.403 247.466 561.834 247.171 560.374 246.581C558.914 245.959 557.656 245.121 556.6 244.065C555.544 242.977 554.705 241.688 554.084 240.197C553.494 238.706 553.199 237.091 553.199 235.351C553.199 233.612 553.494 231.997 554.084 230.505C554.705 229.014 555.544 227.741 556.6 226.685C557.656 225.598 558.914 224.759 560.374 224.169C561.834 223.547 563.403 223.237 565.08 223.237C566.758 223.237 568.327 223.547 569.787 224.169C571.246 224.759 572.505 225.582 573.561 226.638C574.617 227.694 575.44 228.952 576.03 230.412C576.651 231.872 576.962 233.441 576.962 235.118V236.516H556.926C557.051 237.603 557.346 238.613 557.812 239.545C558.278 240.446 558.868 241.222 559.582 241.875C560.297 242.527 561.12 243.039 562.052 243.412C563.015 243.785 564.024 243.971 565.08 243.971C566.478 243.971 567.659 243.754 568.622 243.319C569.585 242.884 570.377 242.403 570.998 241.875C571.712 241.284 572.303 240.585 572.769 239.778H576.496C575.937 241.238 575.145 242.527 574.12 243.645C573.219 244.608 572.039 245.493 570.579 246.301C569.119 247.078 567.286 247.466 565.08 247.466ZM573.002 233.255C572.877 232.385 572.598 231.562 572.163 230.785C571.759 229.977 571.215 229.278 570.532 228.688C569.849 228.098 569.041 227.632 568.109 227.29C567.208 226.918 566.199 226.731 565.08 226.731C563.962 226.731 562.937 226.918 562.005 227.29C561.104 227.632 560.297 228.098 559.582 228.688C558.899 229.278 558.34 229.977 557.905 230.785C557.47 231.562 557.175 232.385 557.02 233.255H573.002ZM602.595 223.703H622.863V247H619.136V227.197H606.322V247H602.595V223.703ZM643.84 247.466C642.1 247.466 640.485 247.171 638.994 246.581C637.503 245.959 636.214 245.121 635.127 244.065C634.071 242.977 633.232 241.688 632.611 240.197C632.02 238.706 631.725 237.091 631.725 235.351C631.725 233.612 632.02 231.997 632.611 230.505C633.232 229.014 634.071 227.741 635.127 226.685C636.214 225.598 637.503 224.759 638.994 224.169C640.485 223.547 642.1 223.237 643.84 223.237C645.58 223.237 647.195 223.547 648.686 224.169C650.177 224.759 651.45 225.598 652.507 226.685C653.594 227.741 654.432 229.014 655.023 230.505C655.644 231.997 655.955 233.612 655.955 235.351C655.955 237.091 655.644 238.706 655.023 240.197C654.432 241.688 653.594 242.977 652.507 244.065C651.45 245.121 650.177 245.959 648.686 246.581C647.195 247.171 645.58 247.466 643.84 247.466ZM643.84 243.971C645.051 243.971 646.17 243.769 647.195 243.366C648.22 242.931 649.105 242.341 649.851 241.595C650.596 240.818 651.171 239.902 651.575 238.846C652.01 237.79 652.227 236.625 652.227 235.351C652.227 234.078 652.01 232.913 651.575 231.857C651.171 230.801 650.596 229.9 649.851 229.154C649.105 228.378 648.22 227.787 647.195 227.384C646.17 226.949 645.051 226.731 643.84 226.731C642.629 226.731 641.51 226.949 640.485 227.384C639.46 227.787 638.575 228.378 637.829 229.154C637.084 229.9 636.494 230.801 636.059 231.857C635.655 232.913 635.453 234.078 635.453 235.351C635.453 236.625 635.655 237.79 636.059 238.846C636.494 239.902 637.084 240.818 637.829 241.595C638.575 242.341 639.46 242.931 640.485 243.366C641.51 243.769 642.629 243.971 643.84 243.971ZM664.789 223.703H676.205C678.442 223.703 680.166 224.262 681.377 225.38C682.589 226.498 683.194 227.881 683.194 229.527C683.194 230.583 683.023 231.437 682.682 232.09C682.371 232.742 681.998 233.255 681.563 233.627C681.16 234 680.771 234.264 680.399 234.419C680.026 234.544 679.793 234.606 679.7 234.606V234.652C679.762 234.652 680.026 234.73 680.492 234.885C680.958 235.01 681.455 235.274 681.983 235.677C682.542 236.081 683.039 236.656 683.474 237.401C683.909 238.116 684.126 239.063 684.126 240.244C684.126 242.232 683.443 243.863 682.076 245.136C680.74 246.379 678.799 247 676.252 247H664.789V223.703ZM676.205 243.505C677.603 243.505 678.644 243.195 679.327 242.574C680.041 241.921 680.399 241.067 680.399 240.011C680.399 238.955 680.041 238.116 679.327 237.495C678.644 236.842 677.603 236.516 676.205 236.516H668.517V243.505H676.205ZM675.972 233.255C677.153 233.255 678.022 232.991 678.581 232.462C679.172 231.903 679.467 231.158 679.467 230.226C679.467 229.294 679.172 228.564 678.581 228.036C678.022 227.477 677.153 227.197 675.972 227.197H668.517V233.255H675.972ZM703.481 247.466C701.804 247.466 700.235 247.171 698.775 246.581C697.315 245.959 696.057 245.121 695.001 244.065C693.945 242.977 693.106 241.688 692.485 240.197C691.895 238.706 691.6 237.091 691.6 235.351C691.6 233.612 691.895 231.997 692.485 230.505C693.106 229.014 693.945 227.741 695.001 226.685C696.057 225.598 697.315 224.759 698.775 224.169C700.235 223.547 701.804 223.237 703.481 223.237C705.159 223.237 706.727 223.547 708.187 224.169C709.647 224.759 710.905 225.582 711.961 226.638C713.018 227.694 713.841 228.952 714.431 230.412C715.052 231.872 715.363 233.441 715.363 235.118V236.516H695.327C695.451 237.603 695.746 238.613 696.212 239.545C696.678 240.446 697.269 241.222 697.983 241.875C698.697 242.527 699.521 243.039 700.452 243.412C701.415 243.785 702.425 243.971 703.481 243.971C704.879 243.971 706.059 243.754 707.022 243.319C707.985 242.884 708.777 242.403 709.399 241.875C710.113 241.284 710.703 240.585 711.169 239.778H714.897C714.338 241.238 713.546 242.527 712.521 243.645C711.62 244.608 710.439 245.493 708.979 246.301C707.519 247.078 705.687 247.466 703.481 247.466ZM711.402 233.255C711.278 232.385 710.998 231.562 710.564 230.785C710.16 229.977 709.616 229.278 708.933 228.688C708.249 228.098 707.442 227.632 706.51 227.29C705.609 226.918 704.599 226.731 703.481 226.731C702.363 226.731 701.338 226.918 700.406 227.29C699.505 227.632 698.697 228.098 697.983 228.688C697.3 229.278 696.74 229.977 696.306 230.785C695.871 231.562 695.576 232.385 695.42 233.255H711.402ZM734.459 247.466C732.813 247.466 731.275 247.171 729.846 246.581C728.449 245.959 727.222 245.121 726.166 244.065C725.14 242.977 724.317 241.688 723.696 240.197C723.106 238.706 722.811 237.091 722.811 235.351C722.811 233.612 723.106 231.997 723.696 230.505C724.317 229.014 725.14 227.741 726.166 226.685C727.222 225.598 728.449 224.759 729.846 224.169C731.275 223.547 732.813 223.237 734.459 223.237C735.609 223.237 736.649 223.361 737.581 223.609C738.544 223.827 739.398 224.138 740.144 224.541C740.889 224.914 741.542 225.349 742.101 225.846C742.66 226.343 743.141 226.84 743.545 227.337C744.508 228.549 745.207 229.9 745.642 231.391H741.915C741.542 230.521 741.029 229.744 740.377 229.061C739.818 228.471 739.057 227.943 738.094 227.477C737.131 226.98 735.919 226.731 734.459 226.731C733.341 226.731 732.3 226.949 731.338 227.384C730.375 227.787 729.536 228.378 728.821 229.154C728.107 229.9 727.548 230.801 727.144 231.857C726.74 232.913 726.538 234.078 726.538 235.351C726.538 236.656 726.756 237.836 727.191 238.893C727.625 239.949 728.2 240.85 728.915 241.595C729.629 242.341 730.468 242.931 731.431 243.366C732.394 243.769 733.403 243.971 734.459 243.971C735.981 243.971 737.224 243.707 738.187 243.179C739.181 242.651 739.973 242.061 740.563 241.409C741.247 240.663 741.775 239.809 742.147 238.846H745.875C745.44 240.492 744.726 241.937 743.732 243.179C743.297 243.707 742.8 244.235 742.241 244.763C741.682 245.26 741.014 245.711 740.237 246.115C739.492 246.519 738.637 246.845 737.674 247.093C736.711 247.342 735.64 247.466 734.459 247.466ZM764.766 247.466C763.088 247.466 761.52 247.171 760.06 246.581C758.6 245.959 757.342 245.121 756.286 244.065C755.229 242.977 754.391 241.688 753.77 240.197C753.179 238.706 752.884 237.091 752.884 235.351C752.884 233.612 753.179 231.997 753.77 230.505C754.391 229.014 755.229 227.741 756.286 226.685C757.342 225.598 758.6 224.759 760.06 224.169C761.52 223.547 763.088 223.237 764.766 223.237C766.443 223.237 768.012 223.547 769.472 224.169C770.932 224.759 772.19 225.582 773.246 226.638C774.302 227.694 775.125 228.952 775.716 230.412C776.337 231.872 776.648 233.441 776.648 235.118V236.516H756.612C756.736 237.603 757.031 238.613 757.497 239.545C757.963 240.446 758.553 241.222 759.268 241.875C759.982 242.527 760.805 243.039 761.737 243.412C762.7 243.785 763.71 243.971 764.766 243.971C766.164 243.971 767.344 243.754 768.307 243.319C769.27 242.884 770.062 242.403 770.683 241.875C771.398 241.284 771.988 240.585 772.454 239.778H776.182C775.622 241.238 774.83 242.527 773.805 243.645C772.904 244.608 771.724 245.493 770.264 246.301C768.804 247.078 766.971 247.466 764.766 247.466ZM772.687 233.255C772.563 232.385 772.283 231.562 771.848 230.785C771.444 229.977 770.901 229.278 770.217 228.688C769.534 228.098 768.726 227.632 767.795 227.29C766.894 226.918 765.884 226.731 764.766 226.731C763.648 226.731 762.623 226.918 761.691 227.29C760.79 227.632 759.982 228.098 759.268 228.688C758.584 229.278 758.025 229.977 757.59 230.785C757.155 231.562 756.86 232.385 756.705 233.255H772.687ZM789.221 223.703H799.006L805.529 247H801.568L796.21 227.197H792.017L786.658 247H782.698L789.221 223.703ZM812.973 223.703H816.701V241.176L816.654 241.642H816.747L829.281 223.703H833.475V247H829.747V229.527L829.794 229.061H829.701L817.167 247H812.973V223.703ZM847.457 223.703H857.242L863.765 247H859.804L854.446 227.197H850.253L844.894 247H840.934L847.457 223.703ZM871.209 223.703H874.937V241.176L874.89 241.642H874.983L887.517 223.703H891.711V247H887.983V229.527L888.03 229.061H887.937L875.403 247H871.209V223.703ZM912.216 247.466C910.57 247.466 909.032 247.171 907.603 246.581C906.205 245.959 904.978 245.121 903.922 244.065C902.897 242.977 902.074 241.688 901.453 240.197C900.863 238.706 900.568 237.091 900.568 235.351C900.568 233.612 900.863 231.997 901.453 230.505C902.074 229.014 902.897 227.741 903.922 226.685C904.978 225.598 906.205 224.759 907.603 224.169C909.032 223.547 910.57 223.237 912.216 223.237C913.366 223.237 914.406 223.361 915.338 223.609C916.301 223.827 917.155 224.138 917.901 224.541C918.646 224.914 919.299 225.349 919.858 225.846C920.417 226.343 920.898 226.84 921.302 227.337C922.265 228.549 922.964 229.9 923.399 231.391H919.671C919.299 230.521 918.786 229.744 918.134 229.061C917.575 228.471 916.814 227.943 915.851 227.477C914.888 226.98 913.676 226.731 912.216 226.731C911.098 226.731 910.057 226.949 909.094 227.384C908.131 227.787 907.293 228.378 906.578 229.154C905.864 229.9 905.305 230.801 904.901 231.857C904.497 232.913 904.295 234.078 904.295 235.351C904.295 236.656 904.513 237.836 904.947 238.893C905.382 239.949 905.957 240.85 906.671 241.595C907.386 242.341 908.225 242.931 909.188 243.366C910.15 243.769 911.16 243.971 912.216 243.971C913.738 243.971 914.981 243.707 915.944 243.179C916.938 242.651 917.73 242.061 918.32 241.409C919.003 240.663 919.532 239.809 919.904 238.846H923.632C923.197 240.492 922.483 241.937 921.489 243.179C921.054 243.707 920.557 244.235 919.998 244.763C919.438 245.26 918.771 245.711 917.994 246.115C917.248 246.519 916.394 246.845 915.431 247.093C914.468 247.342 913.397 247.466 912.216 247.466ZM932.039 223.703H935.767V231.624H942.29C943.626 231.624 944.837 231.826 945.924 232.229C947.011 232.633 947.943 233.192 948.72 233.907C949.496 234.59 950.087 235.398 950.49 236.33C950.925 237.262 951.143 238.256 951.143 239.312C951.143 240.368 950.925 241.362 950.49 242.294C950.087 243.226 949.496 244.049 948.72 244.763C947.943 245.447 947.011 245.99 945.924 246.394C944.837 246.798 943.626 247 942.29 247H932.039V223.703ZM942.29 243.505C943.936 243.505 945.194 243.102 946.064 242.294C946.965 241.486 947.415 240.492 947.415 239.312C947.415 238.131 946.965 237.137 946.064 236.33C945.194 235.522 943.936 235.118 942.29 235.118H935.767V243.505H942.29ZM956.962 252.358C958.639 250.929 960.146 249.268 961.481 247.373C962.04 246.565 962.6 245.68 963.159 244.717C963.718 243.723 964.199 242.651 964.603 241.502C965.038 240.321 965.38 239.063 965.628 237.728C965.908 236.392 966.048 234.979 966.048 233.488C966.048 231.997 965.908 230.599 965.628 229.294C965.38 227.958 965.038 226.716 964.603 225.566C964.199 224.386 963.718 223.299 963.159 222.305C962.6 221.311 962.04 220.41 961.481 219.602C960.146 217.707 958.639 216.046 956.962 214.617L958.825 211.821C960.907 213.374 962.77 215.238 964.417 217.412C965.1 218.344 965.784 219.385 966.467 220.534C967.15 221.652 967.741 222.879 968.238 224.215C968.766 225.551 969.185 226.995 969.496 228.549C969.837 230.102 970.008 231.748 970.008 233.488C970.008 235.227 969.837 236.873 969.496 238.427C969.185 239.98 968.766 241.424 968.238 242.76C967.741 244.096 967.15 245.338 966.467 246.487C965.784 247.606 965.1 248.631 964.417 249.563C962.77 251.737 960.907 253.601 958.825 255.154L956.962 252.358ZM357.15 346.226L345.734 330.384H350.627L360.877 344.595H365.77V330.384H369.963V344.595H374.856L385.107 330.384H389.999L378.583 346.226L390.465 363H385.34L375.089 348.556H369.963V363H365.77V348.556H360.645L350.394 363H345.268L357.15 346.226ZM406.305 363.466C404.783 363.466 403.339 363.171 401.972 362.581C400.636 361.959 399.456 361.121 398.431 360.065C397.406 358.977 396.598 357.688 396.008 356.197C395.418 354.706 395.123 353.091 395.123 351.351C395.123 349.612 395.418 347.997 396.008 346.505C396.598 345.014 397.406 343.741 398.431 342.685C399.456 341.598 400.636 340.759 401.972 340.169C403.339 339.547 404.783 339.237 406.305 339.237C407.828 339.237 409.117 339.454 410.173 339.889C411.229 340.324 412.083 340.805 412.736 341.333C413.419 341.862 413.9 342.359 414.18 342.825C414.491 343.259 414.646 343.477 414.646 343.477H414.693V339.703H418.42V363H414.693V359.272H414.646C414.646 359.272 414.491 359.505 414.18 359.971C413.9 360.406 413.419 360.888 412.736 361.416C412.083 361.913 411.229 362.379 410.173 362.814C409.117 363.249 407.828 363.466 406.305 363.466ZM406.771 359.971C407.89 359.971 408.93 359.769 409.893 359.366C410.856 358.931 411.695 358.341 412.409 357.595C413.124 356.818 413.683 355.902 414.087 354.846C414.491 353.79 414.693 352.625 414.693 351.351C414.693 350.078 414.491 348.913 414.087 347.857C413.683 346.801 413.124 345.9 412.409 345.154C411.695 344.378 410.856 343.787 409.893 343.384C408.93 342.949 407.89 342.731 406.771 342.731C405.653 342.731 404.613 342.949 403.65 343.384C402.687 343.787 401.848 344.378 401.133 345.154C400.419 345.9 399.86 346.801 399.456 347.857C399.052 348.913 398.85 350.078 398.85 351.351C398.85 352.625 399.052 353.79 399.456 354.846C399.86 355.902 400.419 356.818 401.133 357.595C401.848 358.341 402.687 358.931 403.65 359.366C404.613 359.769 405.653 359.971 406.771 359.971ZM428.687 339.703H432.415V349.255H445.461V339.703H449.189V363H445.461V352.749H432.415V363H428.687V339.703ZM459.443 339.703H463.171V349.255H476.218V339.703H479.945V363H476.218V352.749H463.171V363H459.443V339.703ZM499.984 363.466C498.462 363.466 497.018 363.171 495.651 362.581C494.315 361.959 493.135 361.121 492.11 360.065C491.085 358.977 490.277 357.688 489.687 356.197C489.097 354.706 488.802 353.091 488.802 351.351C488.802 349.612 489.097 347.997 489.687 346.505C490.277 345.014 491.085 343.741 492.11 342.685C493.135 341.598 494.315 340.759 495.651 340.169C497.018 339.547 498.462 339.237 499.984 339.237C501.506 339.237 502.796 339.454 503.852 339.889C504.908 340.324 505.762 340.805 506.414 341.333C507.098 341.862 507.579 342.359 507.859 342.825C508.17 343.259 508.325 343.477 508.325 343.477H508.371V339.703H512.099V363H508.371V359.272H508.325C508.325 359.272 508.17 359.505 507.859 359.971C507.579 360.406 507.098 360.888 506.414 361.416C505.762 361.913 504.908 362.379 503.852 362.814C502.796 363.249 501.506 363.466 499.984 363.466ZM500.45 359.971C501.569 359.971 502.609 359.769 503.572 359.366C504.535 358.931 505.374 358.341 506.088 357.595C506.803 356.818 507.362 355.902 507.766 354.846C508.17 353.79 508.371 352.625 508.371 351.351C508.371 350.078 508.17 348.913 507.766 347.857C507.362 346.801 506.803 345.9 506.088 345.154C505.374 344.378 504.535 343.787 503.572 343.384C502.609 342.949 501.569 342.731 500.45 342.731C499.332 342.731 498.291 342.949 497.329 343.384C496.366 343.787 495.527 344.378 494.812 345.154C494.098 345.9 493.539 346.801 493.135 347.857C492.731 348.913 492.529 350.078 492.529 351.351C492.529 352.625 492.731 353.79 493.135 354.846C493.539 355.902 494.098 356.818 494.812 357.595C495.527 358.341 496.366 358.931 497.329 359.366C498.291 359.769 499.332 359.971 500.45 359.971Z" fill="white"/>
<defs>
<filter id="filter0_b_268_135" x="-30" y="-30" width="1074" height="508" filterUnits="userSpaceOnUse" color-interpolation-filters="sRGB">
<feFlood flood-opacity="0" result="BackgroundImageFix"/>
<feGaussianBlur in="BackgroundImageFix" stdDeviation="15"/>
<feComposite in2="SourceAlpha" operator="in" result="effect1_backgroundBlur_268_135"/>
<feBlend mode="normal" in="SourceGraphic" in2="effect1_backgroundBlur_268_135" result="shape"/>
</filter>
</defs>
</svg>
