<svg width="279" height="134" viewBox="0 0 279 134" fill="none" xmlns="http://www.w3.org/2000/svg">
<path fill-rule="evenodd" clip-rule="evenodd" d="M43.4365 0.40625C31.5175 0.40625 21.8552 10.0685 21.8552 21.9876C21.8552 33.48 30.8382 42.8743 42.1657 43.5321V43.5698H45.5244C47.798 43.5698 49.6412 45.4129 49.6412 47.6866C49.6412 49.9602 47.798 51.8033 45.5244 51.8033H42.1657V52.001H35.1551C15.7395 52.001 0 67.7404 0 87.1561V98.8459C0 118.262 15.7395 134.001 35.1551 134.001H243.845C263.261 134.001 279 118.262 279 98.8459V87.1561C279 67.7404 263.261 52.001 243.845 52.001H112.41V51.8029H109.049C106.775 51.8029 104.932 49.9598 104.932 47.6861C104.932 45.4125 106.775 43.5694 109.049 43.5694H112.41V43.5649C124.135 43.3404 133.57 33.7659 133.57 21.9876C133.57 10.0685 123.908 0.40625 111.989 0.40625H43.4365Z" fill="white"/>
<path d="M65.3546 27.1785C64.6882 27.1785 64.0695 27.0654 63.4983 26.8394C62.9272 26.6014 62.4334 26.2801 62.0169 25.8755C61.6123 25.4591 61.2911 24.9653 61.0531 24.3941C60.827 23.8229 60.7139 23.2042 60.7139 22.5378C60.7139 21.8715 60.827 21.2527 61.0531 20.6816C61.2911 20.1104 61.6123 19.6226 62.0169 19.218C62.4334 18.8015 62.9272 18.4803 63.4983 18.2542C64.0695 18.0162 64.6882 17.8972 65.3546 17.8972C66.0209 17.8972 66.6397 18.0162 67.2108 18.2542C67.782 18.4803 68.2699 18.8015 68.6744 19.218C69.0909 19.6226 69.4122 20.1104 69.6383 20.6816C69.8762 21.2527 69.9952 21.8715 69.9952 22.5378C69.9952 23.2042 69.8762 23.8229 69.6383 24.3941C69.4122 24.9653 69.0909 25.4591 68.6744 25.8755C68.2699 26.2801 67.782 26.6014 67.2108 26.8394C66.6397 27.0654 66.0209 27.1785 65.3546 27.1785ZM65.3546 25.8398C65.8187 25.8398 66.247 25.7625 66.6397 25.6078C67.0324 25.4412 67.3715 25.2151 67.6571 24.9296C67.9426 24.6321 68.1628 24.2811 68.3175 23.8765C68.484 23.4719 68.5673 23.0257 68.5673 22.5378C68.5673 22.05 68.484 21.6038 68.3175 21.1992C68.1628 20.7946 67.9426 20.4496 67.6571 20.164C67.3715 19.8665 67.0324 19.6404 66.6397 19.4857C66.247 19.3191 65.8187 19.2358 65.3546 19.2358C64.8905 19.2358 64.4622 19.3191 64.0695 19.4857C63.6768 19.6404 63.3377 19.8665 63.0521 20.164C62.7665 20.4496 62.5405 20.7946 62.3739 21.1992C62.2192 21.6038 62.1418 22.05 62.1418 22.5378C62.1418 23.0257 62.2192 23.4719 62.3739 23.8765C62.5405 24.2811 62.7665 24.6321 63.0521 24.9296C63.3377 25.2151 63.6768 25.4412 64.0695 25.6078C64.4622 25.7625 64.8905 25.8398 65.3546 25.8398ZM79.8099 18.0757H81.2378V21.7347H86.2354V18.0757H87.6633V27H86.2354V23.0733H81.2378V27H79.8099V18.0757ZM95.3396 27.1785C94.7565 27.1785 94.2032 27.0654 93.6797 26.8394C93.168 26.6014 92.7158 26.2801 92.3232 25.8755C91.9305 25.4591 91.6211 24.9653 91.395 24.3941C91.1689 23.8229 91.0559 23.2042 91.0559 22.5378C91.0559 21.8715 91.1689 21.2527 91.395 20.6816C91.6211 20.1104 91.9305 19.6226 92.3232 19.218C92.7158 18.8015 93.168 18.4803 93.6797 18.2542C94.2032 18.0162 94.7565 17.8972 95.3396 17.8972C95.9226 17.8972 96.4164 17.9805 96.821 18.1471C97.2256 18.3137 97.5528 18.4981 97.8027 18.7004C98.0645 18.9027 98.2489 19.0931 98.356 19.2715C98.475 19.4381 98.5345 19.5214 98.5345 19.5214H98.5523V18.0757H99.9802V27H98.5523V25.5721H98.5345C98.5345 25.5721 98.475 25.6614 98.356 25.8398C98.2489 26.0064 98.0645 26.1909 97.8027 26.3931C97.5528 26.5835 97.2256 26.762 96.821 26.9286C96.4164 27.0952 95.9226 27.1785 95.3396 27.1785ZM95.5181 25.8398C95.9464 25.8398 96.345 25.7625 96.7139 25.6078C97.0828 25.4412 97.4041 25.2151 97.6777 24.9296C97.9514 24.6321 98.1656 24.2811 98.3203 23.8765C98.475 23.4719 98.5523 23.0257 98.5523 22.5378C98.5523 22.05 98.475 21.6038 98.3203 21.1992C98.1656 20.7946 97.9514 20.4496 97.6777 20.164C97.4041 19.8665 97.0828 19.6404 96.7139 19.4857C96.345 19.3191 95.9464 19.2358 95.5181 19.2358C95.0897 19.2358 94.6911 19.3191 94.3222 19.4857C93.9533 19.6404 93.6321 19.8665 93.3584 20.164C93.0847 20.4496 92.8705 20.7946 92.7158 21.1992C92.5611 21.6038 92.4838 22.05 92.4838 22.5378C92.4838 23.0257 92.5611 23.4719 92.7158 23.8765C92.8705 24.2811 93.0847 24.6321 93.3584 24.9296C93.6321 25.2151 93.9533 25.4412 94.3222 25.6078C94.6911 25.7625 95.0897 25.8398 95.5181 25.8398ZM107.84 27.1785C107.209 27.1785 106.62 27.0654 106.073 26.8394C105.537 26.6014 105.067 26.2801 104.663 25.8755C104.27 25.4591 103.955 24.9653 103.717 24.3941C103.491 23.8229 103.378 23.2042 103.378 22.5378C103.378 21.8715 103.491 21.2527 103.717 20.6816C103.955 20.1104 104.27 19.6226 104.663 19.218C105.067 18.8015 105.537 18.4803 106.073 18.2542C106.62 18.0162 107.209 17.8972 107.84 17.8972C108.28 17.8972 108.679 17.9448 109.036 18.04C109.405 18.1233 109.732 18.2423 110.017 18.397C110.303 18.5398 110.553 18.7063 110.767 18.8967C110.981 19.0871 111.166 19.2775 111.32 19.4679C111.689 19.9319 111.957 20.4496 112.124 21.0207H110.696C110.553 20.6875 110.357 20.3901 110.107 20.1283C109.892 19.9022 109.601 19.6999 109.232 19.5214C108.863 19.331 108.399 19.2358 107.84 19.2358C107.412 19.2358 107.013 19.3191 106.644 19.4857C106.275 19.6404 105.954 19.8665 105.68 20.164C105.407 20.4496 105.192 20.7946 105.038 21.1992C104.883 21.6038 104.806 22.05 104.806 22.5378C104.806 23.0376 104.889 23.4898 105.055 23.8943C105.222 24.2989 105.442 24.644 105.716 24.9296C105.99 25.2151 106.311 25.4412 106.68 25.6078C107.049 25.7625 107.435 25.8398 107.84 25.8398C108.423 25.8398 108.899 25.7387 109.268 25.5364C109.649 25.3341 109.952 25.108 110.178 24.8582C110.44 24.5726 110.642 24.2454 110.785 23.8765H112.213C112.046 24.5071 111.773 25.0604 111.392 25.5364C111.225 25.7387 111.035 25.941 110.821 26.1433C110.606 26.3337 110.351 26.5062 110.053 26.6609C109.768 26.8156 109.44 26.9405 109.071 27.0357C108.703 27.1309 108.292 27.1785 107.84 27.1785Z" fill="black"/>
<path d="M27.3838 79.3311H31.7733V90.3049H37.2602L46.0393 79.3311H51.2518L41.1011 92.2253L52.0749 106.766H46.588L37.2602 94.4201H31.7733V106.766H27.3838V79.3311ZM66.6366 83.4463H57.0345V79.3311H80.6282V83.4463H71.0261V106.766H66.6366V83.4463ZM101.776 107.314C99.7279 107.314 97.8258 106.967 96.07 106.272C94.3142 105.54 92.7961 104.553 91.5159 103.309C90.2722 102.029 89.2845 100.511 88.5529 98.7547C87.8579 96.9989 87.5104 95.0968 87.5104 93.0484C87.5104 90.9999 87.8579 89.0978 88.5529 87.342C89.2845 85.5862 90.2722 84.0864 91.5159 82.8427C92.7961 81.5624 94.3142 80.5748 96.07 79.8798C97.8258 79.1482 99.7279 78.7824 101.776 78.7824C103.825 78.7824 105.727 79.1482 107.483 79.8798C109.239 80.5748 110.738 81.5624 111.982 82.8427C113.262 84.0864 114.25 85.5862 114.945 87.342C115.677 89.0978 116.042 90.9999 116.042 93.0484C116.042 95.0968 115.677 96.9989 114.945 98.7547C114.25 100.511 113.262 102.029 111.982 103.309C110.738 104.553 109.239 105.54 107.483 106.272C105.727 106.967 103.825 107.314 101.776 107.314ZM101.776 103.199C103.203 103.199 104.52 102.961 105.727 102.486C106.934 101.974 107.977 101.279 108.854 100.401C109.732 99.4863 110.409 98.4072 110.885 97.1635C111.397 95.9198 111.653 94.5481 111.653 93.0484C111.653 91.5486 111.397 90.1769 110.885 88.9332C110.409 87.6895 109.732 86.6287 108.854 85.7508C107.977 84.8363 106.934 84.1413 105.727 83.6658C104.52 83.1536 103.203 82.8976 101.776 82.8976C100.35 82.8976 99.0329 83.1536 97.8258 83.6658C96.6187 84.1413 95.5762 84.8363 94.6983 85.7508C93.8204 86.6287 93.1253 87.6895 92.6132 88.9332C92.1377 90.1769 91.8999 91.5486 91.8999 93.0484C91.8999 94.5481 92.1377 95.9198 92.6132 97.1635C93.1253 98.4072 93.8204 99.4863 94.6983 100.401C95.5762 101.279 96.6187 101.974 97.8258 102.486C99.0329 102.961 100.35 103.199 101.776 103.199ZM146.214 79.3311H152.798L161.028 96.3405H162.4L170.631 79.3311H177.215V106.766H172.825V84.818L172.88 84.2693H172.77L164.595 101.279H158.834L150.658 84.2693H150.549L150.603 84.818V106.766H146.214V79.3311ZM189.29 79.3311H193.68V88.6588H200.264C201.837 88.6588 203.264 88.8966 204.544 89.3721C205.824 89.8477 206.922 90.5061 207.836 91.3474C208.751 92.1522 209.446 93.1032 209.921 94.2006C210.433 95.298 210.689 96.4685 210.689 97.7122C210.689 98.9559 210.433 100.126 209.921 101.224C209.446 102.321 208.751 103.291 207.836 104.132C206.922 104.937 205.824 105.577 204.544 106.052C203.264 106.528 201.837 106.766 200.264 106.766H189.29V79.3311ZM200.264 102.65C202.203 102.65 203.684 102.175 204.709 101.224C205.769 100.273 206.3 99.1022 206.3 97.7122C206.3 96.3222 205.769 95.1517 204.709 94.2006C203.684 93.2495 202.203 92.774 200.264 92.774H193.68V102.65H200.264ZM214.256 79.3311H218.645V106.766H214.256V79.3311ZM240.308 107.589C239.357 107.589 238.57 107.278 237.948 106.656C237.327 106.034 237.016 105.248 237.016 104.297C237.016 103.345 237.327 102.559 237.948 101.937C238.57 101.315 239.357 101.004 240.308 101.004C241.259 101.004 242.045 101.315 242.667 101.937C243.289 102.559 243.6 103.345 243.6 104.297C243.6 105.248 243.289 106.034 242.667 106.656C242.045 107.278 241.259 107.589 240.308 107.589ZM237.839 95.7918C237.839 93.8897 238.113 92.3168 238.662 91.0731C239.247 89.7928 239.96 88.7137 240.802 87.8358C241.68 86.9579 242.612 86.208 243.6 85.5862C244.588 84.9643 245.502 84.3242 246.343 83.6658C247.221 82.9707 247.935 82.2209 248.483 81.4161C249.069 80.5748 249.361 79.514 249.361 78.2337C249.361 77.429 249.178 76.6425 248.813 75.8744C248.447 75.1062 247.916 74.4295 247.221 73.8442C246.526 73.2589 245.685 72.8017 244.697 72.4725C243.746 72.1067 242.649 71.9238 241.405 71.9238C239.54 71.9238 238.022 72.2896 236.851 73.0212C235.681 73.7528 234.766 74.5392 234.108 75.3805C233.339 76.3682 232.754 77.5021 232.352 78.7824H227.414C227.926 76.6608 228.785 74.7404 229.992 73.0212C230.505 72.3262 231.108 71.6311 231.803 70.9361C232.498 70.2411 233.303 69.6193 234.217 69.0706C235.168 68.5219 236.229 68.0829 237.4 67.7537C238.57 67.4245 239.905 67.2599 241.405 67.2599C243.307 67.2599 245.045 67.5708 246.618 68.1927C248.227 68.778 249.599 69.5827 250.733 70.6069C251.867 71.5946 252.745 72.7651 253.367 74.1185C253.989 75.4354 254.299 76.8071 254.299 78.2337C254.299 79.953 254.007 81.3978 253.422 82.5684C252.873 83.7023 252.16 84.6717 251.282 85.4764C250.44 86.2812 249.526 86.9945 248.538 87.6163C247.551 88.2382 246.618 88.9149 245.74 89.6465C244.899 90.3781 244.185 91.2194 243.6 92.1705C243.051 93.1215 242.777 94.3286 242.777 95.7918H237.839Z" fill="black"/>
<path d="M44.4314 20.494V26.0689C44.4314 26.2767 44.3627 26.451 44.2253 26.5919C44.0879 26.7327 43.918 26.8029 43.7157 26.8024C43.5134 26.8019 43.3435 26.7315 43.2061 26.5911C43.0687 26.4508 43 26.2767 43 26.0689V18.7335C43 18.5257 43.0687 18.3516 43.2061 18.2113C43.3435 18.0709 43.5134 18.0005 43.7157 18H50.8728C51.0755 18 51.2456 18.0704 51.3831 18.2113C51.5205 18.3521 51.5889 18.5262 51.5885 18.7335C51.588 18.9409 51.5193 19.1152 51.3823 19.2565C51.2454 19.3979 51.0755 19.468 50.8728 19.4671H45.4334L51.8032 25.9955C51.9344 26.13 52 26.3011 52 26.509C52 26.7168 51.9344 26.888 51.8032 27.0224C51.672 27.1569 51.505 27.2242 51.3022 27.2242C51.0994 27.2242 50.9324 27.1569 50.8012 27.0224L44.4314 20.494Z" fill="black"/>
</svg>
